<svg version="1.1" xmlns="http://www.w3.org/2000/svg" xmlns:xlink="http://www.w3.org/1999/xlink" width="35" height="52.0141" viewBox="0,0,35,52.0141"><g transform="translate(-233,-156.98591)"><g data-paper-data="{&quot;isPaintingLayer&quot;:true}" fill-rule="nonzero" stroke-linecap="butt" stroke-miterlimit="10" stroke-dasharray="" stroke-dashoffset="0" style="mix-blend-mode: normal"><g><path d="M245,202.00002v5h-10v-5h3v-35.55c-1.56787,-0.90521 -2.33228,-2.75064 -1.8637,-4.49938c0.46857,-1.74873 2.05328,-2.96472 3.8637,-2.96472c1.81042,0 3.39513,1.21599 3.8637,2.96472c0.46857,1.74873 -0.29583,3.59417 -1.8637,4.49938v35.55z" fill="none" stroke="#000000" stroke-width="4" stroke-linejoin="round"/><path d="M245,202.00002v5h-10v-5h3v-35.55c-1.56787,-0.90521 -2.33228,-2.75064 -1.8637,-4.49938c0.46857,-1.74873 2.05328,-2.96472 3.8637,-2.96472c1.81042,0 3.39513,1.21599 3.8637,2.96472c0.46857,1.74873 -0.29583,3.59417 -1.8637,4.49938v35.55z" fill="#3ac54d" stroke="none" stroke-width="1" stroke-linejoin="miter"/></g><g><g><path d="M266,184.07764c-9.6,-4.08 -14.4,6.34 -24,2.26v-18c9.6,4.08 14.4,-6.34 24,-2.26c-2.32624,2.55199 -4.34041,5.37183 -6,8.4c2.31166,2.99432 4.32145,6.20998 6,9.6z" fill="none" stroke="#000000" stroke-width="4" stroke-linejoin="round"/><path d="M266,184.07764c-9.6,-4.08 -14.4,6.34 -24,2.26v-18c9.6,4.08 14.4,-6.34 24,-2.26c-2.32624,2.55199 -4.34041,5.37183 -6,8.4c2.31166,2.99432 4.32145,6.20998 6,9.6z" fill="#ffff00" stroke="none" stroke-width="1" stroke-linejoin="miter"/></g><path d="M266,184.07764c-9.6,-4.08 -14.4,6.34 -24,2.26v-18c9.6,4.08 14.4,-6.34 24,-2.26c-2.32624,2.55199 -4.34041,5.37183 -6,8.4c2.31166,2.99432 4.32145,6.20998 6,9.6z" fill="#ffff00" stroke="none" stroke-width="1" stroke-linejoin="miter"/><path d="M264,171.47764c-0.65754,-0.13593 -1.32895,-0.193 -2,-0.17v-6c2.17077,-0.16922 4.32231,0.5121 6,1.9c-1.53446,1.22062 -2.88207,2.65919 -4,4.27z" fill="#000000" stroke="none" stroke-width="1" stroke-linejoin="miter"/><path d="M250,180.50764c-1.92441,0.68281 -3.99788,0.83141 -6,0.43v-6c2.00212,0.40141 4.07559,0.25281 6,-0.43z" fill="#000000" stroke="none" stroke-width="1" stroke-linejoin="miter"/><path d="M268,185.20763c-1.67459,-1.39358 -3.82849,-2.07564 -6,-1.9v-6c0.67105,-0.023 1.34246,0.03407 2,0.17c1.50196,2.48585 2.8382,5.06813 4,7.73z" fill="#000000" stroke="none" stroke-width="1" stroke-linejoin="miter"/><path d="M256,184.51763c-2.4,0.79 -3.6,1.35 -6,2v-6c2.4,-0.64 3.6,-1.2 6,-2z" fill="#000000" stroke="none" stroke-width="1" stroke-linejoin="miter"/><path d="M256,172.51763c-2.4,0.79 -3.6,1.35 -6,2v-6c2.4,-0.64 3.6,-1.2 6,-2z" fill="#000000" stroke="none" stroke-width="1" stroke-linejoin="miter"/><path d="M244,186.93764c-0.69002,-0.11176 -1.36241,-0.31348 -2,-0.6v-6c0.63759,0.28652 1.30998,0.48824 2,0.6z" fill="#000000" stroke="none" stroke-width="1" stroke-linejoin="miter"/><path d="M244,174.93764c-0.69002,-0.11176 -1.36241,-0.31348 -2,-0.6v-6c0.63759,0.28652 1.30998,0.48824 2,0.6z" fill="#000000" stroke="none" stroke-width="1" stroke-linejoin="miter"/><path d="M262,177.30763c-2.05854,0.02011 -4.09456,0.43071 -6,1.21v-6c1.90544,-0.77929 3.94146,-1.18989 6,-1.21z" fill="#000000" stroke="none" stroke-width="1" stroke-linejoin="miter"/></g><path d="M245,202.00002v5h-10v-5h3v-35.55c-1.56787,-0.90521 -2.33228,-2.75064 -1.8637,-4.49938c0.46857,-1.74873 2.05328,-2.96472 3.8637,-2.96472c1.81042,0 3.39513,1.21599 3.8637,2.96472c0.46857,1.74873 -0.29583,3.59417 -1.8637,4.49938v35.55z" fill="#3ac54d" stroke="none" stroke-width="1" stroke-linejoin="miter"/></g></g></svg>