<svg xmlns="http://www.w3.org/2000/svg" viewBox="0 0 153 41"><defs><style>.cls-1{opacity:0.1;}.cls-2{fill:#fff;opacity:0.95;}</style></defs><g id="Explosion"><path class="cls-1" d="M146.65,41H6.35A6.37,6.37,0,0,1,0,34.65V8.35A6.37,6.37,0,0,1,6.35,2h140.3A6.37,6.37,0,0,1,153,8.35v26.3A6.37,6.37,0,0,1,146.65,41Z"/><path class="cls-2" d="M146.65,39H6.35A6.37,6.37,0,0,1,0,32.65V6.35A6.37,6.37,0,0,1,6.35,0h140.3A6.37,6.37,0,0,1,153,6.35v26.3A6.37,6.37,0,0,1,146.65,39Z"/><path d="M41.62,25.24H38.75V14h4.52c3,0,4.56,1.39,4.56,3.57a3.3,3.3,0,0,1-2.31,3.24l2.89,4.45H45.18l-2.25-3.78-1.31.11ZM43,19.4c1.23-.09,1.89-.59,1.89-1.67s-.68-1.48-2.12-1.48H41.56v3.19Z"/><path d="M50.44,25.24V14h8.23v2.31H53.25v2.16H57.6v2.29H53.25v2.19h5.42v2.31Z"/><path d="M66.64,22.09c0-.76-.81-1-2.31-1.42s-3.62-1.21-3.62-3.46c0-2.09,1.53-3.48,4.33-3.48a8.61,8.61,0,0,1,4.21,1l-.56,2.36a8.43,8.43,0,0,0-3.64-1c-1,0-1.47.34-1.47,1s1,1,2.37,1.4c1.73.47,3.53,1.26,3.53,3.4s-1.65,3.66-4.61,3.66a9.21,9.21,0,0,1-4.34-1l.54-2.37a8.44,8.44,0,0,0,3.86,1C65.94,23.15,66.64,22.77,66.64,22.09Z"/><path d="M77.29,16.38v8.86H74.43V16.38H70.85V14h10v2.4Z"/><path d="M92.22,25.24H89.37l-.83-2.4H84.37l-.81,2.4H80.71l4-11.26h3.58Zm-5.75-9L85,20.61h2.93Z"/><path d="M96.86,25.24H94V14h4.52c3,0,4.55,1.39,4.55,3.57a3.3,3.3,0,0,1-2.3,3.24l2.88,4.45h-3.23l-2.25-3.78-1.31.11Zm1.39-5.84c1.22-.09,1.89-.59,1.89-1.67s-.69-1.48-2.13-1.48H96.8v3.19Z"/><path d="M110.85,16.38v8.86H108V16.38H104.4V14h10v2.4Z"/></g></svg>