<svg id="Layer_1" data-name="Layer 1" xmlns="http://www.w3.org/2000/svg" viewBox="0 0 480 360"><defs><style>.cls-1{fill:none;stroke:#fff;stroke-width:4px;}</style></defs><path class="cls-1" d="M104.27,127.93h19.44v30.46h14.61v16.77h-34Z"/><path class="cls-1" d="M143.4,127.93h34v15.78H162.84v2.55h11.74v11.22H162.84v2.67H178.3v15H143.4Z"/><path class="cls-1" d="M180.65,127.93h21l7,25h.13l7.44-25h19l-18.07,47.23H198.72Z"/><path class="cls-1" d="M238.44,127.93h34v15.78H257.88v2.55h11.74v11.22H257.88v2.67h15.46v15h-34.9Z"/><path class="cls-1" d="M278.17,127.93H297.6v30.46h14.62v16.77H278.17Z"/><path class="cls-1" d="M341.24,140.71l9.65-12.78h20.36l-12.59,15.2c.72-.07,1.43-.13,2.09-.13,9.06,0,16.11,6.26,16.11,15.33,0,10.3-9,17.54-20.81,17.54-11.35,0-21.07-6.72-21.07-18.72C335,150.76,337.72,145.41,341.24,140.71Zm14.61,20.49a3.3,3.3,0,1,0,0-6.59,3.3,3.3,0,0,0,0,6.59Z"/><path class="cls-1" d="M105.21,188.65h17.13v8.51h-7.6v1.45h6.07V205h-6.07v9.11h-9.53Z"/><path class="cls-1" d="M128.93,188.65H138l8.82,25.47H136.57l-.8-3.34h-5.31l-.89,3.34h-9.46Zm5.3,15.72-1-5.17h-.06l-1,5.17Z"/><path class="cls-1" d="M148.46,188.65H158v16.43h7.17v9H148.46Z"/><path class="cls-1" d="M167.64,188.65h9.52v16.43h7.16v9H167.64Z"/><path class="cls-1" d="M186.82,188.65h9.52v25.47h-9.52Z"/><path class="cls-1" d="M199.15,188.65h8.67l6.81,10.87.06,0V188.65h8.57v25.47h-8.67l-6.8-10.87-.07,0v10.84h-8.57Z"/><path class="cls-1" d="M225.49,201.59c0-7.66,5.72-13.32,13.81-13.32a16.48,16.48,0,0,1,7.71,1.82v8.73a18.32,18.32,0,0,0-6.88-1.73c-3.38,0-5.14,2.11-5.14,4.86a4.5,4.5,0,0,0,4.47,4.78,2.85,2.85,0,0,0,1-.14v-1.3h-2.3v-5.7h9.46v12.59a15.44,15.44,0,0,1-8.5,2.32C230.74,214.5,225.49,208.91,225.49,201.59Z"/><path class="cls-1" d="M267.46,188.65h9.11l8.83,25.47H275.1l-.8-3.34H269l-.9,3.34h-9.46Zm5.31,15.72-1-5.17h-.07l-1,5.17Z"/><path class="cls-1" d="M287,188.65h8.76c5.56,0,11.8,1.76,11.8,9,0,6.54-5,9.18-10.71,9.18h-.32v7.25H287Zm9.79,11.75a2.16,2.16,0,1,0,0-4.29h-.26v4.29Z"/><path class="cls-1" d="M314,188.65h9.11l8.83,25.47h-10.3l-.8-3.34h-5.3l-.9,3.34h-9.46Zm5.31,15.72-1-5.17h-.07l-1,5.17Z"/><path class="cls-1" d="M333.53,188.65h9.34c4.79,0,11.25,1.37,11.25,8a7.47,7.47,0,0,1-2.68,6.15,2.93,2.93,0,0,0,3.19,2.43,7.83,7.83,0,0,0,4.83-1.83v9.28a11,11,0,0,1-6.14,1.83c-5.46,0-9.27-3.76-10.2-8.83h-.06v8.45h-9.53Zm10.23,11.26a2,2,0,1,0,0-3.91h-.7v3.91Z"/><path class="cls-1" d="M362.59,197.3h-6.46v-8.65h22.44v8.65h-6.45v16.82h-9.53Z"/><path d="M104.27,127.93h19.44v30.46h14.61v16.77h-34Z"/><path d="M143.4,127.93h34v15.78H162.84v2.55h11.74v11.22H162.84v2.67H178.3v15H143.4Z"/><path d="M180.65,127.93h21l7,25h.13l7.44-25h19l-18.07,47.23H198.72Z"/><path d="M238.44,127.93h34v15.78H257.88v2.55h11.74v11.22H257.88v2.67h15.46v15h-34.9Z"/><path d="M278.17,127.93H297.6v30.46h14.62v16.77H278.17Z"/><path d="M341.24,140.71l9.65-12.78h20.36l-12.59,15.2c.72-.07,1.43-.13,2.09-.13,9.06,0,16.11,6.26,16.11,15.33,0,10.3-9,17.54-20.81,17.54-11.35,0-21.07-6.72-21.07-18.72C335,150.76,337.72,145.41,341.24,140.71Zm14.61,20.49a3.3,3.3,0,1,0,0-6.59,3.3,3.3,0,0,0,0,6.59Z"/><path d="M105.21,188.65h17.13v8.51h-7.6v1.45h6.07V205h-6.07v9.11h-9.53Z"/><path d="M128.93,188.65H138l8.82,25.47H136.57l-.8-3.34h-5.31l-.89,3.34h-9.46Zm5.3,15.72-1-5.17h-.06l-1,5.17Z"/><path d="M148.46,188.65H158v16.43h7.17v9H148.46Z"/><path d="M167.64,188.65h9.52v16.43h7.16v9H167.64Z"/><path d="M186.82,188.65h9.52v25.47h-9.52Z"/><path d="M199.15,188.65h8.67l6.81,10.87.06,0V188.65h8.57v25.47h-8.67l-6.8-10.87-.07,0v10.84h-8.57Z"/><path d="M225.49,201.59c0-7.66,5.72-13.32,13.81-13.32a16.48,16.48,0,0,1,7.71,1.82v8.73a18.32,18.32,0,0,0-6.88-1.73c-3.38,0-5.14,2.11-5.14,4.86a4.5,4.5,0,0,0,4.47,4.78,2.85,2.85,0,0,0,1-.14v-1.3h-2.3v-5.7h9.46v12.59a15.44,15.44,0,0,1-8.5,2.32C230.74,214.5,225.49,208.91,225.49,201.59Z"/><path d="M267.46,188.65h9.11l8.83,25.47H275.1l-.8-3.34H269l-.9,3.34h-9.46Zm5.31,15.72-1-5.17h-.07l-1,5.17Z"/><path d="M287,188.65h8.76c5.56,0,11.8,1.76,11.8,9,0,6.54-5,9.18-10.71,9.18h-.32v7.25H287Zm9.79,11.75a2.16,2.16,0,1,0,0-4.29h-.26v4.29Z"/><path d="M314,188.65h9.11l8.83,25.47h-10.3l-.8-3.34h-5.3l-.9,3.34h-9.46Zm5.31,15.72-1-5.17h-.07l-1,5.17Z"/><path d="M333.53,188.65h9.34c4.79,0,11.25,1.37,11.25,8a7.47,7.47,0,0,1-2.68,6.15,2.93,2.93,0,0,0,3.19,2.43,7.83,7.83,0,0,0,4.83-1.83v9.28a11,11,0,0,1-6.14,1.83c-5.46,0-9.27-3.76-10.2-8.83h-.06v8.45h-9.53Zm10.23,11.26a2,2,0,1,0,0-3.91h-.7v3.91Z"/><path d="M362.59,197.3h-6.46v-8.65h22.44v8.65h-6.45v16.82h-9.53Z"/></svg>