<svg version="1.1" xmlns="http://www.w3.org/2000/svg" xmlns:xlink="http://www.w3.org/1999/xlink" width="40" height="40" viewBox="0,0,40,40"><g transform="translate(-220,-160)"><g data-paper-data="{&quot;isPaintingLayer&quot;:true}" fill-rule="nonzero" stroke-linecap="butt" stroke-linejoin="miter" stroke-miterlimit="10" stroke-dasharray="" stroke-dashoffset="0" style="mix-blend-mode: normal"><g><path d="M254.9,198h-29.8c-1.71208,0 -3.1,-1.38792 -3.1,-3.1v-29.8c0,-1.71208 1.38792,-3.1 3.1,-3.1h29.8c1.71208,0 3.1,1.38792 3.1,3.1v29.8c0,1.71208 -1.38792,3.1 -3.1,3.1z" fill="none" stroke="#000000" stroke-width="4"/><path d="M254.9,198h-29.8c-1.71208,0 -3.1,-1.38792 -3.1,-3.1v-29.8c0,-1.71208 1.38792,-3.1 3.1,-3.1h29.8c1.71208,0 3.1,1.38792 3.1,3.1v29.8c0,1.71208 -1.38792,3.1 -3.1,3.1z" fill="#ffffff" stroke="none" stroke-width="1"/></g><path d="M235.709,186.2c-1.49614,0 -2.709,0 -2.709,0v-14c0,0 1.21286,0 2.709,0h8.582c1.49614,0 2.709,0 2.709,0v14c0,0 -1.21286,0 -2.709,0z" fill="#000000" stroke="none" stroke-width="1"/></g></g></svg>