<svg xmlns="http://www.w3.org/2000/svg" viewBox="0 0 153 41"><defs><style>.cls-1{opacity:0.1;}.cls-2{fill:#fff;opacity:0.95;}</style></defs><g id="Explosion"><path class="cls-1" d="M146.65,41H6.35A6.37,6.37,0,0,1,0,34.65V8.35A6.37,6.37,0,0,1,6.35,2h140.3A6.37,6.37,0,0,1,153,8.35v26.3A6.37,6.37,0,0,1,146.65,41Z"/><path class="cls-2" d="M146.65,39H6.35A6.37,6.37,0,0,1,0,32.65V6.35A6.37,6.37,0,0,1,6.35,0h140.3A6.37,6.37,0,0,1,153,6.35v26.3A6.37,6.37,0,0,1,146.65,39Z"/><path d="M16.54,26V14.72h2.87v8.86h4.71V26Z"/><path d="M26.48,26V14.72h8.23V17H29.29v2.17h4.36v2.28H29.29v2.2h5.42V26Z"/><path d="M43.53,26H39.94l-3.8-11.25h3l2.66,8.48,2.65-8.48h3Z"/><path d="M49.21,26V14.72h8.23V17H52v2.17h4.36v2.28H52v2.2h5.42V26Z"/><path d="M60,26V14.72h2.86v8.86h4.72V26Z"/><path d="M80,22.82c0-.75-.81-1-2.3-1.42-1.64-.45-3.62-1.21-3.62-3.46,0-2.09,1.53-3.47,4.32-3.47a8.5,8.5,0,0,1,4.21,1l-.56,2.36a8.26,8.26,0,0,0-3.64-1c-1,0-1.47.34-1.47,1s1,1,2.38,1.41c1.72.46,3.52,1.26,3.52,3.4s-1.65,3.65-4.6,3.65a9.27,9.27,0,0,1-4.34-1l.54-2.38a8.25,8.25,0,0,0,3.85,1C79.33,23.88,80,23.51,80,22.82Z"/><path d="M85.3,26V14.72h8.23V17H88.11v2.17h4.36v2.28H88.11v2.2h5.42V26Z"/><path d="M96.05,26V14.72h2.86v8.86h4.72V26Z"/><path d="M106,26V14.72h8.23V17h-5.42v2.17h4.36v2.28h-4.36v2.2h5.42V26Z"/><path d="M125,17.69a5.61,5.61,0,0,0-2.84-.81,3.11,3.11,0,0,0-3.21,3.44c0,2.14,1.19,3.49,3.23,3.49a5.4,5.4,0,0,0,3-.92l.59,2.54a8.38,8.38,0,0,1-3.69.81c-3.6,0-6-2.07-6-5.85s2.36-5.94,6.07-5.94a8.61,8.61,0,0,1,3.73.85Z"/><path d="M133.63,17.12V26h-2.86V17.12h-3.58v-2.4h10v2.4Z"/></g></svg>