<svg version="1.1" xmlns="http://www.w3.org/2000/svg" xmlns:xlink="http://www.w3.org/1999/xlink" width="265.26" height="58.64" viewBox="0,0,265.26,58.64"><g transform="translate(-236.7,-174.45)"><g data-paper-data="{&quot;isPaintingLayer&quot;:true}" fill="#000000" fill-rule="nonzero" stroke="none" stroke-width="1" stroke-linecap="butt" stroke-linejoin="miter" stroke-miterlimit="10" stroke-dasharray="" stroke-dashoffset="0" style="mix-blend-mode: normal"><path d="M240.35,182.14c-0.36694,0.52912 -0.96618,0.84922 -1.61,0.86c-0.43214,0.02447 -0.85593,-0.12609 -1.17577,-0.41771c-0.31984,-0.29162 -0.50879,-0.69974 -0.52423,-1.13229c0,-1.06 0.79,-1.91 3.29,-2v-0.11c0,-0.59 -0.3,-0.85 -1,-0.85c-0.66359,0.04502 -1.309,0.23625 -1.89,0.56l-0.39,-1.35c0.79199,-0.42125 1.67304,-0.64751 2.57,-0.66c1.93,0 2.57,0.87 2.54,2.43v1.66c0,0.38 0.07,0.42 0.45,0.45l-0.18,1.32c-1.21,0.16 -1.81,-0.16 -2.06,-0.78zM240.35,180.33c-1.14,0.13 -1.56,0.35 -1.56,0.84c0.0042,0.17578 0.08283,0.34152 0.21633,0.45595c0.1335,0.11443 0.30931,0.16679 0.48367,0.14405c0.32694,0.00814 0.6411,-0.12702 0.86,-0.37z"/><path d="M249.2,183c-0.42872,-0.00904 -0.85358,-0.08322 -1.26,-0.22l-1.74,0.22v-8.11l1.85,-0.23v3.15c0.39948,-0.45321 0.96642,-0.72404 1.57,-0.75c1.38,0 2.38,1.13 2.38,2.9c0.05814,0.78104 -0.21,1.55126 -0.7406,2.12734c-0.5306,0.57608 -1.27622,0.90652 -2.0594,0.91266zM248.99,178.55c-0.35309,-0.002 -0.69203,0.13863 -0.94,0.39v2.46c0.25621,0.15373 0.55138,0.23012 0.85,0.22c0.79,0 1.25,-0.62 1.25,-1.54c0,-0.92 -0.41,-1.55 -1.16,-1.55z"/><path d="M258.5,183c-0.8057,0.0826 -1.60648,-0.19681 -2.1859,-0.76271c-0.57942,-0.5659 -0.87766,-1.35986 -0.8141,-2.16729c-0.05266,-0.82313 0.2564,-1.62828 0.84632,-2.20475c0.58992,-0.57647 1.40198,-0.86688 2.22368,-0.79525c0.69521,-0.01048 1.38223,0.15097 2,0.47l-0.36,1.39c-0.44683,-0.26286 -0.95195,-0.41061 -1.47,-0.43c-0.39422,-0.0171 -0.77619,0.13913 -1.04543,0.4276c-0.26924,0.28847 -0.39879,0.68029 -0.35457,1.0724c-0.05374,0.40225 0.07363,0.80762 0.34776,1.10685c0.27414,0.29923 0.66683,0.46153 1.07224,0.44315c0.52295,0.00147 1.03578,-0.14406 1.48,-0.42l0.28,1.4c-0.6224,0.32593 -1.31765,0.4877 -2.02,0.47z"/><path d="M267.94,174.89l1.85,-0.23v8.16h-1.85v-0.58c-0.39142,0.45129 -0.95296,0.71938 -1.55,0.74c-1.38,0 -2.39,-1.12 -2.39,-2.89c-0.04656,-0.77266 0.2254,-1.53066 0.75255,-2.09748c0.52714,-0.56682 1.26345,-0.89298 2.03745,-0.90252c0.39124,-0.0012 0.77993,0.06302 1.15,0.19zM267.09,178.44c-0.78,0 -1.24,0.63 -1.24,1.56c0,0.93 0.48,1.51 1.16,1.51c0.35174,0.0102 0.69075,-0.13196 0.93,-0.39v-2.44c-0.25091,-0.16769 -0.54844,-0.2517 -0.85,-0.24z"/><path d="M275.37,180.46c0.06,0.75 0.58,1.18 1.48,1.18c0.64258,-0.02312 1.26879,-0.20892 1.82,-0.54l0.18,1.43c-0.68057,0.31043 -1.42211,0.46421 -2.17,0.45c-1.89,0 -3.12,-1 -3.12,-2.91c-0.04059,-0.80741 0.26242,-1.59429 0.83407,-2.16593c0.57165,-0.57165 1.35852,-0.87466 2.16593,-0.83407c0.64979,-0.07238 1.29828,0.14667 1.77109,0.59824c0.47281,0.45158 0.72139,1.08933 0.67891,1.74176c-0.00013,0.33692 -0.04041,0.67262 -0.12,1l-3.54,0.06zM277.32,179.46v-0.06c0,-0.66 -0.28,-1.07 -0.86,-1.07c-0.61699,0.04776 -1.08785,0.57142 -1.07,1.19z"/><path d="M286.5,176.27c-0.29212,-0.13494 -0.60839,-0.20975 -0.93,-0.22c-0.48,0 -0.65,0.28 -0.65,0.82v0.44h1.58v1.45h-1.53v4.06h-1.84v-4l-1,-0.07v-1.17l0.91,-0.27v-0.48c0,-1.62 0.78,-2.31 2.18,-2.31c0.51574,-0.00461 1.02782,0.08695 1.51,0.27c0,0 -0.23,1.49 -0.23,1.48z"/><path d="M289.68,182.18c0.08055,-0.61587 0.54193,-1.11336 1.15,-1.24c-0.68489,-0.29796 -1.12844,-0.9731 -1.13,-1.72c0,-1.21 1,-2.16 2.65,-2.16c0.59205,0.00951 1.17516,0.14591 1.71,0.4l1.57,-0.14l0.08,1.5l-1.08,-0.17c0.11045,0.18756 0.16589,0.40242 0.16,0.62c-0.05009,0.59408 -0.33915,1.14239 -0.80099,1.51941c-0.46184,0.37702 -1.05693,0.55045 -1.64901,0.48059c-0.24834,-0.00791 -0.49571,-0.03465 -0.74,-0.08c-0.16,0.08 -0.33,0.21 -0.33,0.4c0,0.19 0.29,0.35 1,0.35h0.66c1.57,0.06 2.57,0.4 2.57,1.58c0,1.39 -1.67,2.29 -3.49,2.29c-1.5,0 -2.72,-0.46 -2.72,-1.45c0,-0.55 0.44,-1.07 1.33,-1.17c-0.46,-0.19 -0.94,-0.49 -0.94,-1.01zM290.94,184c0,0.43 0.55,0.73 1.4,0.73c0.85,0 1.58,-0.27 1.58,-0.75c0,-0.48 -0.42,-0.55 -1.42,-0.55c-0.35,0 -0.9,0 -1.11,0c-0.24739,0.08729 -0.42251,0.3091 -0.45,0.57zM292.34,180.21c0.57,0 0.82,-0.4 0.82,-1c0,-0.6 -0.28,-1 -0.86,-1c-0.58,0 -0.83,0.41 -0.83,1c0,0.59 0.28,1 0.87,1z"/><path d="M302.72,182.82v-3.3c0,-0.67 -0.3,-0.89 -0.77,-0.89c-0.37324,0.0141 -0.72863,0.16337 -1,0.42v3.77h-1.88v-7.93l1.85,-0.23v3.34c0.45705,-0.57702 1.14435,-0.92432 1.88,-0.95c0.50976,-0.02667 1.00452,0.17713 1.3476,0.5551c0.34308,0.37797 0.49816,0.8901 0.4224,1.3949v3.84z"/><path d="M309.5,176.45c-0.55228,0 -1,-0.44772 -1,-1c0,-0.55228 0.44772,-1 1,-1c0.69,0 1.1,0.35 1.1,1c0,0.65 -0.4,1 -1.1,1zM308.58,182.82v-5.49l1.85,-0.22v5.71z"/><path d="M313.5,184.47c0.68,-0.32 1,-0.72 1,-1.91v-5.23l1.85,-0.22v5.57c0,1.65 -0.47,2.58 -1.77,3zM315.41,176.47c-0.55228,0 -1,-0.44772 -1,-1c0,-0.55228 0.44772,-1 1,-1c0.68,0 1.09,0.35 1.09,1c0,0.65 -0.4,0.98 -1.08,0.98z"/><path d="M322.23,180.2v2.62h-1.84v-7.93l1.84,-0.23v5v0l1.7,-2.4h2.12l-2,2.65l2.06,2.93h-2.1l-1.73,-2.62z"/><path d="M329.5,182.82v-7.93l1.85,-0.23v8.16z"/><path d="M342.43,182.82v-3.29c0,-0.67 -0.29,-0.9 -0.76,-0.9c-0.33348,0.00812 -0.65292,0.13589 -0.9,0.36v3.83h-1.85v-3.29c0,-0.67 -0.3,-0.9 -0.76,-0.9c-0.33226,-0.00492 -0.65398,0.11662 -0.9,0.34v3.85h-1.85v-5.49l1.85,-0.22v0.78c0.4431,-0.51845 1.08806,-0.82089 1.77,-0.83c0.68092,-0.02764 1.30717,0.37124 1.57,1c0.46732,-0.59811 1.17186,-0.96316 1.93,-1c0.50262,-0.01691 0.98693,0.18958 1.32271,0.56396c0.33578,0.37438 0.48857,0.87821 0.41729,1.37604v3.83z"/><path d="M351.96,182.82v-3.3c0,-0.67 -0.3,-0.89 -0.8,-0.89c-0.37344,0.01319 -0.72914,0.16258 -1,0.42v3.77h-1.85v-5.49l1.85,-0.22v0.89c0.4486,-0.589 1.13105,-0.95395 1.87,-1c0.52004,-0.02978 1.02502,0.1805 1.37023,0.57057c0.34521,0.39007 0.49254,0.91687 0.39977,1.42943v3.84z"/><path d="M360.5,183c-0.81447,0.06746 -1.61736,-0.22687 -2.19525,-0.80475c-0.57789,-0.57789 -0.87222,-1.38078 -0.80475,-2.19525c-0.04379,-0.80828 0.25819,-1.59705 0.83057,-2.16943c0.57238,-0.57238 1.36115,-0.87436 2.16943,-0.83057c0.81447,-0.06746 1.61736,0.22687 2.19525,0.80475c0.57789,0.57789 0.87222,1.38078 0.80475,2.19525c0.03744,0.80655 -0.26659,1.59156 -0.83752,2.16248c-0.57093,0.57093 -1.35594,0.87496 -2.16248,0.83752zM360.5,178.46c-0.75,0 -1.15,0.61 -1.15,1.57c0,0.96 0.41,1.55 1.16,1.55c0.75,0 1.16,-0.6 1.16,-1.56c0,-0.96 -0.4,-1.56 -1.17,-1.56z"/><path d="M370.67,177.06c1.38,0 2.39,1.13 2.39,2.9c0.0495,0.77339 -0.22147,1.53307 -0.74924,2.10056c-0.52777,0.56749 -1.26582,0.89278 -2.04076,0.89944c-0.39006,-0.00361 -0.77749,-0.06425 -1.15,-0.18v2.5h-1.85v-8l1.85,-0.22v0.7c0.3999,-0.43452 0.95961,-0.68729 1.55,-0.7zM369.12,181.38c0.25575,0.1548 0.55126,0.23128 0.85,0.22c0.79,0 1.24,-0.62 1.24,-1.54c0,-0.92 -0.4,-1.53 -1.16,-1.53c-0.35008,-0.00158 -0.68576,0.13919 -0.93,0.39z"/><path d="M380.5,185.3v-3.06c-0.39376,0.4538 -0.95945,0.72214 -1.56,0.74c-1.38,0 -2.38,-1.12 -2.38,-2.89c-0.04656,-0.77266 0.2254,-1.53066 0.75255,-2.09748c0.52714,-0.56682 1.26345,-0.89298 2.03745,-0.90252c0.46163,0.0081 0.91838,0.09607 1.35,0.26l1.65,-0.22v8.17zM379.65,178.44c-0.78,0 -1.25,0.63 -1.25,1.56c0,0.93 0.48,1.52 1.17,1.52c0.35279,0.00505 0.69103,-0.14043 0.93,-0.4v-2.44c-0.25091,-0.16769 -0.54844,-0.2517 -0.85,-0.24z"/><path d="M388.27,182.82h-1.85v-5.49l1.85,-0.22v0.81c0.24128,-0.52298 0.76405,-0.85849 1.34,-0.86c0.32067,0.0018 0.63621,0.08069 0.92,0.23l-0.37,1.63c-0.21306,-0.11112 -0.4497,-0.16942 -0.69,-0.17c-0.52556,0.01632 -0.99382,0.3363 -1.2,0.82z"/><path d="M395.96,183c-0.81378,0.00806 -1.61941,-0.16262 -2.36,-0.5l0.36,-1.33c0.61672,0.32893 1.30132,0.51035 2,0.53c0.49,0 0.75,-0.17 0.75,-0.46c0,-0.29 -0.31,-0.43 -0.95,-0.57c-1.29,-0.25 -2.12,-0.73 -2.12,-1.82c0,-1.09 0.91,-1.79 2.46,-1.79c0.78069,0.01078 1.55177,0.17383 2.27,0.48l-0.38,1.32c-0.59469,-0.29987 -1.24498,-0.47351 -1.91,-0.51c-0.45,0 -0.69,0.15 -0.69,0.42c0,0.27 0.35,0.42 1,0.56c1.32,0.28 2.1,0.71 2.1,1.83c0,1.12 -0.89,1.84 -2.53,1.84z"/><path d="M404.5,183c-1.38,0 -2.13,-0.57 -2.05,-2l0.08,-2.12l-0.84,-0.15v-1.17l0.84,-0.28v-1.27h1.79v1.33h1.4v1.45h-1.52l-0.06,2c0,0.52 0.28,0.74 0.74,0.74c0.24983,-0.01034 0.49634,-0.06099 0.73,-0.15l0.21,1.44c-0.42762,0.12985 -0.87323,0.19061 -1.32,0.18z"/><path d="M411.3,177.24v3.3c0,0.67 0.28,0.9 0.76,0.9c0.35327,-0.00227 0.69262,-0.13801 0.95,-0.38v-3.82h1.85v5.49l-1.85,0.23v-0.83c-0.45747,0.52729 -1.11248,0.84213 -1.81,0.87c-0.49171,0.00414 -0.96112,-0.20484 -1.28709,-0.57299c-0.32597,-0.36815 -0.47656,-0.85942 -0.41291,-1.34701v-3.84z"/><path d="M422.36,182.83h-2.09l-2.06,-5.59h2l1.15,3.82l1.14,-3.82h2z"/><path d="M428.86,182.84l-1.57,-5.6h1.87l0.76,3.7l1,-3.7h1.93l1,3.64l0.64,-3.64h1.92l-1.58,5.6h-1.87l-1.07,-3.67l-1.07,3.67z"/><path d="M443.2,182.82l-1.07,-1.82l-1,1.79h-2l1.88,-2.79l-1.87,-2.73h2l1,1.61l1,-1.61h2l-1.9,2.73l1.92,2.87z"/><path d="M451.97,182.55l-0.27,0.73c-0.58,1.63 -1.27,2.13 -2.45,2.13c-0.57008,0.00563 -1.13408,-0.11743 -1.65,-0.36l0.55,-1.41c0.26324,0.15077 0.55732,0.23968 0.86,0.26c0.4,0 0.58,-0.15 0.79,-0.69l0.16,-0.43l-2.18,-5.54h2l1.18,3.67l1.08,-3.67h2z"/><path d="M456.9,182.82v-1.11l2.61,-3h-2.51v-1.47h4.93v1.1l-2.6,3h2.6v1.52z"/><path d="M244.36,206.82h-1.86l-0.55,-1.6h-2.82l-0.54,1.6h-1.89l2.66,-7.5h2.39zM240.54,200.82l-1,2.94h2z"/><path d="M254.22,204.63c0,1.2 -0.64,2.19 -3,2.19h-3.31v-7.5h3.25c2.23,0 2.83,0.85 2.83,2c0.00386,0.81048 -0.58835,1.50067 -1.39,1.62c0.88459,0.0832 1.57427,0.80268 1.62,1.69zM250.98,200.75h-1.23v1.72h1.13c0.79,0 1.2,-0.32 1.2,-0.88c0,-0.56 -0.38,-0.84 -1.1,-0.84zM250.98,203.66h-1.23v1.73h1.29c0.86,0 1.26,-0.28 1.26,-0.86c0,-0.58 -0.52,-0.87 -1.32,-0.87z"/><path d="M263.72,201.3c-0.56918,-0.3485 -1.22262,-0.5352 -1.89,-0.54c-1.19277,0.11111 -2.10483,1.11206 -2.10483,2.31c0,1.19794 0.91205,2.19889 2.10483,2.31c0.71365,-0.00212 1.41029,-0.21808 2,-0.62l0.39,1.7c-0.76937,0.3615 -1.60996,0.54602 -2.46,0.54c-1.07387,0.11352 -2.14254,-0.25696 -2.91572,-1.0108c-0.77318,-0.75385 -1.17059,-1.81279 -1.08428,-2.8892c-0.08176,-1.08387 0.31334,-2.14949 1.08192,-2.91808c0.76859,-0.76859 1.83421,-1.16368 2.91808,-1.08192c0.86084,0.00341 1.71059,0.19451 2.49,0.56z"/><path d="M270.86,206.82h-2.69v-7.5h2.82c2.64,0 4.14,1.46 4.14,3.69c0,2.23 -1.52,3.81 -4.27,3.81zM270.86,200.82h-0.79v4.45h0.89c0.60727,0.07703 1.21638,-0.12828 1.6531,-0.5572c0.43673,-0.42893 0.65298,-1.03424 0.5869,-1.6428c0.01,-1.53 -0.77,-2.23 -2.33,-2.23z"/><path d="M279.08,206.82v-7.5h5.48v1.53h-3.61v1.44h2.91v1.53h-2.91v1.46h3.61v1.54z"/><path d="M288.6,199.32h5.36v1.57h-3.46v1.55h2.77v1.56h-2.77v2.82h-1.9z"/><path d="M301.5,207c-2.17048,0 -3.93,-1.75952 -3.93,-3.93c0,-2.17048 1.75952,-3.93 3.93,-3.93c0.97895,-0.01667 1.94711,0.20649 2.82,0.65l-0.6,1.59c-0.65251,-0.39404 -1.39784,-0.60797 -2.16,-0.62c-0.6094,-0.03121 -1.20247,0.20292 -1.62621,0.642c-0.42374,0.43908 -0.63664,1.0401 -0.58379,1.648c0,1.5 0.76,2.39 2.18,2.39c0.41076,-0.002 0.81761,-0.07998 1.2,-0.23v-1.1h-1.79v-1.52h3.56v3.71c-0.92851,0.47297 -1.95805,0.7132 -3,0.7z"/><path d="M313.56,206.82v-3h-3v3h-1.9v-7.5h1.84v2.91h3v-2.91h2v7.5z"/><path d="M319.77,206.82v-7.5h1.91v7.5z"/><path d="M327.5,207c-0.74482,0.0017 -1.47901,-0.1767 -2.14,-0.52l0.38,-1.54c0.43772,0.28053 0.94083,0.44249 1.46,0.47c0.78,0 1.08,-0.41 1.08,-1.38v-4.71h1.9v4.86c-0.03,1.82 -0.87,2.82 -2.68,2.82z"/><path d="M336.31,202.63l2.49,-3.31h2.19l-3,3.66l3,3.84h-2.28l-2.47,-3.3v0v3.3h-1.91v-7.5h1.91v3.31z"/><path d="M344.63,206.82v-7.5h1.87v5.9h3.15v1.6z"/><path d="M360.57,201l-1.64,5.66h-2l-1.64,-5.65l-0.05,5.77h-1.78l0.27,-7.5h2.69l1.56,5.62l1.52,-5.58h2.67l0.25,7.5h-1.81z"/><path d="M371.73,199.32h1.77v7.57h-2l-3.16,-4.89v4.86h-1.79v-7.5h2.06l3.12,4.87z"/><path d="M381.42,207c-1.05992,0.07818 -2.10147,-0.30822 -2.85394,-1.05877c-0.75247,-0.75055 -1.14153,-1.79112 -1.06606,-2.85123c-0.05994,-1.06583 0.33238,-2.10751 1.08053,-2.86899c0.74815,-0.76148 1.78275,-1.17213 2.84947,-1.13101c1.05806,-0.07784 2.09783,0.30726 2.84992,1.05551c0.7521,0.74826 1.14251,1.78605 1.07008,2.84449c0.05661,1.06585 -0.33647,2.10656 -1.08355,2.86886c-0.74709,0.7623 -1.77967,1.17626 -2.84645,1.14114zM381.42,200.67c-1.28,0 -2,1 -2,2.37c0,1.37 0.75,2.42 2,2.42c1.25,0 2,-1 2,-2.37c0,-1.37 -0.73,-2.42 -2,-2.42z"/><path d="M391.99,204.63h-0.73v2.18h-1.91v-7.5h2.77c2.1,0 3.2,1.06 3.2,2.6c0,1.76 -1.19,2.72 -3.33,2.72zM391.99,200.83h-0.77v2.34h0.77c1,0 1.45,-0.43 1.45,-1.19c0,-0.76 -0.5,-1.15 -1.46,-1.15z"/><path d="M407.04,207.21l-0.75,1.55l-3.32,-1.76c-0.05282,0.01051 -0.10718,0.01051 -0.16,0c-1.05825,0.07513 -2.09702,-0.31262 -2.8472,-1.0628c-0.75018,-0.75018 -1.13793,-1.78895 -1.0628,-2.8472c-0.05994,-1.06583 0.33238,-2.10751 1.08053,-2.86899c0.74815,-0.76148 1.78275,-1.17213 2.84947,-1.13101c1.05972,-0.0809 2.10228,0.30284 2.85667,1.05147c0.75439,0.74863 1.14611,1.78821 1.07333,2.84853c0.04187,1.3344 -0.63837,2.58787 -1.78,3.28zM402.81,200.67c-1.27,0 -2,1 -2,2.37c0,1.37 0.74,2.44 2,2.44c1.26,0 2,-0.95 2,-2.39c0,-1.44 -0.73,-2.42 -2,-2.42z"/><path d="M412.65,206.82h-1.9v-7.5h3c2,0 3,0.92 3,2.37c0.02731,0.98332 -0.60149,1.86527 -1.54,2.16l1.92,3h-2.14l-1.49,-2.55l-0.88,0.07zM413.58,202.93c0.81,-0.06 1.25,-0.4 1.25,-1.12c0,-0.72 -0.45,-1 -1.41,-1h-0.8v2.19z"/><path d="M424.5,204.72c0,-0.51 -0.54,-0.68 -1.54,-0.95c-1,-0.27 -2.41,-0.8 -2.41,-2.3c0,-1.5 1,-2.32 2.88,-2.32c0.97746,-0.02162 1.94438,0.20548 2.81,0.66l-0.37,1.57c-0.75042,-0.39903 -1.58082,-0.62457 -2.43,-0.66c-0.66,0 -1,0.23 -1,0.64c0,0.41 0.68,0.68 1.58,0.93c1.15,0.32 2.35,0.84 2.35,2.27c0,1.43 -1.06,2.44 -3.03,2.44c-1.00534,0.01048 -1.99783,-0.22648 -2.89,-0.69l0.36,-1.58c0.79009,0.4299 1.67084,0.66637 2.57,0.69c0.67,0 1.12,-0.25 1.12,-0.7z"/><path d="M434.17,200.92v5.9h-1.91v-5.9h-2.39v-1.6h6.68v1.6z"/><path d="M443.6,207c-2,0 -3.3,-1 -3.3,-3.08v-4.6h1.9v4.35c0,1.13 0.45,1.72 1.45,1.72c1,0 1.36,-0.48 1.36,-1.64v-4.43h1.9v4.44c0.07687,0.89321 -0.24976,1.77398 -0.89042,2.4011c-0.64066,0.62712 -1.52822,0.93484 -2.41958,0.8389z"/><path d="M455.35,206.82h-2.39l-2.53,-7.5h2l1.74,5.68l1.76,-5.65h2z"/><path d="M464.97,206.82h-2l-2,-7.5h2l1,5.3l1.34,-5.3h2.18l1.37,5.3l1,-5.3h1.95l-2,7.5h-2l-1.31,-5.34z"/><path d="M477.13,206.82h-2.09l2.58,-3.76l-2.51,-3.74h2.15l1.51,2.43l1.55,-2.43h2.12l-2.53,3.68l2.6,3.83h-2.17l-1.59,-2.56z"/><path d="M489.99,204v2.85h-1.87v-2.85l-2.62,-4.68h2l1.55,3l1.5,-3h2z"/><path d="M495.82,206.82v-1.26l3.75,-4.64h-3.67v-1.6h6.06v1.27l-3.73,4.62h3.72v1.61z"/><path d="M240.09,231c-0.81003,0.05031 -1.60267,-0.24956 -2.17656,-0.82344c-0.57388,-0.57388 -0.87376,-1.36653 -0.82344,-2.17656c-0.05511,-0.81665 0.24108,-1.61798 0.8141,-2.20245c0.57301,-0.58447 1.36832,-0.89648 2.1859,-0.85755c0.81003,-0.05031 1.60267,0.24956 2.17656,0.82344c0.57388,0.57388 0.87376,1.36653 0.82344,2.17656c0.05187,0.81581 -0.24539,1.61523 -0.81767,2.19895c-0.57228,0.58372 -1.36566,0.89675 -2.18233,0.86105zM240.09,226.29c-0.75,0 -1.24,0.63 -1.24,1.66c0,1.03 0.5,1.65 1.25,1.65c0.75,0 1.25,-0.6 1.25,-1.6c0,-1 -0.5,-1.71 -1.24,-1.71z"/><path d="M248.13,226.79l-1.39,0.32v-1.52l3.26,-0.71v5.94h-1.87z"/><path d="M254.17,230.82v-1.29c1.9,-1.2 2.93,-1.76 2.93,-2.42c0,-0.42 -0.31,-0.67 -0.91,-0.67c-0.63022,0.04481 -1.23582,0.26283 -1.75,0.63l-0.41,-1.36c0.76483,-0.52019 1.66515,-0.80523 2.59,-0.82c1.55,0 2.44,0.79 2.44,1.9c0,1.11 -0.83,1.74 -2.38,2.53h2.65v1.5z"/><path d="M267.97,230.61c0,1.55 -1.41,2.45 -3.08,2.45c-0.81395,0.00659 -1.61721,-0.18564 -2.34,-0.56l0.21,-1.5c0.61023,0.353 1.29588,0.55527 2,0.59c0.83,0 1.35,-0.33 1.35,-1c0,-0.67 -0.44,-0.92 -1.36,-1c-0.33441,-0.00701 -0.66883,0.01306 -1,0.06v-1.23c1.06,-0.2 2,-0.43 2,-1.23c0,-0.5 -0.37,-0.79 -1.1,-0.79c-0.61587,0.04183 -1.20483,0.26836 -1.69,0.65l-0.41,-1.34c0.74069,-0.53849 1.63427,-0.82584 2.55,-0.82c1.51,0 2.63,0.78 2.63,2c-0.0408,0.88533 -0.6594,1.63823 -1.52,1.85c0.97641,0.08597 1.73331,0.89018 1.76,1.87z"/><path d="M276.5,230.78v2.12h-1.74v-2.12h-3.26l-0.23,-1.14l3.23,-4.64h2v4.32h1.15v1.46zM274.85,226.63l-1.82,2.72h1.82z"/><path d="M283.5,228c1.74,0 2.68,1 2.68,2.27c-0.00041,0.79013 -0.33823,1.54247 -0.92847,2.06776c-0.59023,0.52529 -1.3767,0.77352 -2.16153,0.68224c-0.7724,0.00053 -1.53721,-0.15243 -2.25,-0.45l0.17,-1.55c0.6275,0.29749 1.30667,0.47067 2,0.51c0.86,0 1.37,-0.41 1.37,-1.1c0,-0.69 -0.44,-1.08 -1.55,-1.08c-0.50912,-0.00456 -1.01564,0.0731 -1.5,0.23l-0.25,-0.29l0.52,-4.27h4.39v1.51h-2.91l-0.21,1.5c0.15,0.03 0.3,-0.03 0.63,-0.03z"/><path d="M294.32,222.78l0.44,1.5c-1.63,0.29 -3,1 -3.31,2.22v0c0.50169,-0.48195 1.17447,-0.74459 1.87,-0.73c0.62738,-0.02878 1.23646,0.21566 1.66988,0.67018c0.43342,0.45452 0.64866,1.07452 0.59012,1.69982c0.02626,0.7886 -0.28748,1.55049 -0.86144,2.09192c-0.57396,0.54143 -1.35283,0.81025 -2.13856,0.73808c-1.93,0 -3,-1.46 -3,-3.46c0.03,-2.27 1.78,-4.31 4.74,-4.73zM292.68,229.6c0.66,0 1.08,-0.49 1.08,-1.27c0.05102,-0.30615 -0.043,-0.61865 -0.2545,-0.84581c-0.2115,-0.22716 -0.51648,-0.34324 -0.8255,-0.31419c-0.40076,0.00145 -0.78763,0.14697 -1.09,0.41c-0.04191,0.18366 -0.06205,0.37163 -0.06,0.56c-0.03,0.77 0.42,1.46 1.15,1.46z"/><path d="M298.96,226.64v-1.58h5.54v1.25l-3.21,6.59h-1.79l3.14,-6.26z"/><path d="M313.5,228.72c0,1.28 -0.93,2.28 -2.86,2.28c-1.65,0 -2.8,-0.77 -2.8,-2.09c0.03889,-0.85178 0.67635,-1.55634 1.52,-1.68c-0.79324,-0.24785 -1.35056,-0.96041 -1.4,-1.79c0,-1.32 0.91,-2.25 2.78,-2.25c1.62,0 2.65,0.79 2.65,2.08c-0.03355,0.79554 -0.59418,1.47076 -1.37,1.65c0.82803,0.22094 1.42327,0.94488 1.48,1.8zM309.56,228.72c0,0.56 0.45,1 1.17,1c0.72,0 1.08,-0.32 1.08,-0.9c0,-0.58 -0.58,-0.87 -1.43,-1.14c-0.44592,0.17546 -0.75784,0.58365 -0.81,1.06zM311.7,225.45c0.0249,-0.27209 -0.07244,-0.54117 -0.26563,-0.73437c-0.1932,-0.1932 -0.46228,-0.29053 -0.73437,-0.26563c-0.25479,-0.02533 -0.50846,0.05785 -0.69877,0.22914c-0.19032,0.17128 -0.29967,0.41482 -0.30123,0.67086c0,0.51 0.45,0.83 1.28,1.11c0.39882,-0.18074 0.67522,-0.55557 0.73,-0.99z"/><path d="M318.32,233.09l-0.45,-1.48c1.63,-0.28 2.95,-1 3.26,-2.21v0c-0.47438,0.47275 -1.1204,0.7326 -1.79,0.72c-0.62116,0.03577 -1.2278,-0.19681 -1.66583,-0.63867c-0.43804,-0.44186 -0.66534,-1.0505 -0.62417,-1.67133c-0.0279,-0.79333 0.28346,-1.56097 0.85611,-2.11072c0.57265,-0.54974 1.35236,-0.82952 2.14389,-0.76928c1.93,0 3,1.46 3,3.45c-0.03,2.27 -1.78,4.31 -4.73,4.71zM319.95,226.29c-0.66,0 -1.08,0.48 -1.08,1.26c-0.03515,0.30391 0.06399,0.60804 0.2715,0.83284c0.20751,0.2248 0.50275,0.34792 0.8085,0.33716c0.39827,-0.00541 0.78277,-0.14651 1.09,-0.4c0.04078,-0.18723 0.0609,-0.37838 0.06,-0.57c0,-0.75 -0.4,-1.46 -1.15,-1.46z"/><path d="M327.89,231c-0.30181,0.02309 -0.59909,-0.08394 -0.81691,-0.29411c-0.21782,-0.21018 -0.3354,-0.50345 -0.32309,-0.80589c-0.01216,-0.45866 0.25422,-0.87914 0.67412,-1.06409c0.4199,-0.18494 0.90994,-0.09763 1.24012,0.22097c0.33018,0.31859 0.43493,0.80521 0.2651,1.23144c-0.16983,0.42623 -0.58054,0.70746 -1.03934,0.71168z"/><path d="M333.96,227.61c-0.59781,-0.01646 -1.07072,-0.51152 -1.05982,-1.10945c0.0109,-0.59794 0.50153,-1.07543 1.09954,-1.07009c0.59801,0.00534 1.08005,0.49151 1.08027,1.08954c0.01204,0.29792 -0.10315,0.58691 -0.31683,0.79486c-0.21368,0.20795 -0.50569,0.31526 -0.80317,0.29514zM333.96,231c-0.30181,0.02309 -0.59909,-0.08394 -0.81691,-0.29411c-0.21782,-0.21018 -0.3354,-0.50345 -0.32309,-0.80589c-0.01216,-0.45866 0.25422,-0.87914 0.67412,-1.06409c0.4199,-0.18494 0.90994,-0.09763 1.24012,0.22097c0.33018,0.31859 0.43493,0.80521 0.2651,1.23144c-0.16983,0.42623 -0.58054,0.70746 -1.03934,0.71168z"/><path d="M342.25,228.64v2h-1.48v-2h-2v-1.39h2v-2h1.48v2h2v1.39z"/><path d="M347.73,228.64v-1.47h3.82v1.47z"/><path d="M354.5,232.22v-1.4h6.71v1.4z"/></g></g></svg>