<svg id="Layer_1" data-name="Layer 1" xmlns="http://www.w3.org/2000/svg" viewBox="0 0 480 360"><defs><style>.cls-1{fill:none;stroke:#fff;stroke-width:4px;}</style></defs><path class="cls-1" d="M159,120.26h15.85l15.36,40.28H172.33l-1.39-5.29H161.7l-1.56,5.29H143.67Zm9.23,24.87L166.48,137h-.11l-1.78,8.18Z"/><path class="cls-1" d="M193,120.26h15.24c9.68,0,20.53,2.78,20.53,14.3,0,10.34-8.68,14.52-18.64,14.52h-.55v11.46H193Zm17,18.58c2.84,0,4.17-1.5,4.17-3.39s-1.39-3.4-4.17-3.4h-.44v6.79Z"/><path class="cls-1" d="M232.37,120.26h15.24c9.68,0,20.53,2.78,20.53,14.3,0,10.34-8.68,14.52-18.64,14.52h-.56v11.46H232.37Zm17,18.58c2.84,0,4.17-1.5,4.17-3.39s-1.39-3.4-4.17-3.4h-.45v6.79Z"/><path class="cls-1" d="M271.7,120.26h29v13.46H288.28v2.17h10v9.57h-10v2.28h13.19v12.8H271.7Z"/><path class="cls-1" d="M305.59,120.26h16.58v26h12.46v14.3h-29Z"/><path class="cls-1" d="M94.29,186.42c4.56,0,9.29,1,11.85,2.33v14.86a22.79,22.79,0,0,0-10-2.56c-5.68,0-8.74,2.72-8.74,6.45s3.06,6.4,8.74,6.4a21.63,21.63,0,0,0,10.23-2.67v14.19c-2.61,1.39-7.45,2.5-12.24,2.5-13.46,0-23.31-8.79-23.31-20.75S80.61,186.42,94.29,186.42Z"/><path class="cls-1" d="M132,186.42c12.63,0,22.48,9.06,22.48,20.75s-9.85,20.75-22.48,20.75-22.48-9.07-22.48-20.75S119.33,186.42,132,186.42Zm0,27.26a6.24,6.24,0,1,0-6.23-6.23A6.22,6.22,0,0,0,132,213.68Z"/><path class="cls-1" d="M158.45,187h15.46l8,10.12L189.66,187h15v40.28H188.1V207.67H188l-7.18,9.46-7.34-9.46h-.11v19.64H158.45Z"/><path class="cls-1" d="M209.58,187h15.24c9.68,0,20.53,2.78,20.53,14.3,0,10.34-8.68,14.52-18.63,14.52h-.56v11.46H209.58Zm17,18.58c2.84,0,4.18-1.5,4.18-3.39s-1.39-3.4-4.18-3.4h-.44v6.79Z"/><path class="cls-1" d="M248.92,187H265.5v26H278v14.3h-29Z"/><path class="cls-1" d="M282.3,187h29v13.46H298.88v2.17h10v9.57h-10v2.28h13.19v12.8H282.3Z"/><path class="cls-1" d="M326.87,200.71H315.63V187h39.06v13.68H343.45v26.6H326.87Z"/><path class="cls-1" d="M359,187h29v13.46h-12.4v2.17h10v9.57h-10v2.28h13.18v12.8H359Z"/><path class="cls-1" d="M391.58,187h17.91l-3.61,26a31.91,31.91,0,0,0-10.68,0Zm9,26.93c4.28,0,7.79,3.11,7.79,6.95s-3.51,7.06-7.79,7.06-7.79-3.17-7.79-7.06S396.25,214,400.54,214Z"/><path d="M159,120.26h15.85l15.36,40.28H172.33l-1.39-5.29H161.7l-1.56,5.29H143.67Zm9.23,24.87L166.48,137h-.11l-1.78,8.18Z"/><path d="M193,120.26h15.24c9.68,0,20.53,2.78,20.53,14.3,0,10.34-8.68,14.52-18.64,14.52h-.55v11.46H193Zm17,18.58c2.84,0,4.17-1.5,4.17-3.39s-1.39-3.4-4.17-3.4h-.44v6.79Z"/><path d="M232.37,120.26h15.24c9.68,0,20.53,2.78,20.53,14.3,0,10.34-8.68,14.52-18.64,14.52h-.56v11.46H232.37Zm17,18.58c2.84,0,4.17-1.5,4.17-3.39s-1.39-3.4-4.17-3.4h-.45v6.79Z"/><path d="M271.7,120.26h29v13.46H288.28v2.17h10v9.57h-10v2.28h13.19v12.8H271.7Z"/><path d="M305.59,120.26h16.58v26h12.46v14.3h-29Z"/><path d="M94.29,186.42c4.56,0,9.29,1,11.85,2.33v14.86a22.79,22.79,0,0,0-10-2.56c-5.68,0-8.74,2.72-8.74,6.45s3.06,6.4,8.74,6.4a21.63,21.63,0,0,0,10.23-2.67v14.19c-2.61,1.39-7.45,2.5-12.24,2.5-13.46,0-23.31-8.79-23.31-20.75S80.61,186.42,94.29,186.42Z"/><path d="M132,186.42c12.63,0,22.48,9.06,22.48,20.75s-9.85,20.75-22.48,20.75-22.48-9.07-22.48-20.75S119.33,186.42,132,186.42Zm0,27.26a6.24,6.24,0,1,0-6.23-6.23A6.22,6.22,0,0,0,132,213.68Z"/><path d="M158.45,187h15.46l8,10.12L189.66,187h15v40.28H188.1V207.67H188l-7.18,9.46-7.34-9.46h-.11v19.64H158.45Z"/><path d="M209.58,187h15.24c9.68,0,20.53,2.78,20.53,14.3,0,10.34-8.68,14.52-18.63,14.52h-.56v11.46H209.58Zm17,18.58c2.84,0,4.18-1.5,4.18-3.39s-1.39-3.4-4.18-3.4h-.44v6.79Z"/><path d="M248.92,187H265.5v26H278v14.3h-29Z"/><path d="M282.3,187h29v13.46H298.88v2.17h10v9.57h-10v2.28h13.19v12.8H282.3Z"/><path d="M326.87,200.71H315.63V187h39.06v13.68H343.45v26.6H326.87Z"/><path d="M359,187h29v13.46h-12.4v2.17h10v9.57h-10v2.28h13.18v12.8H359Z"/><path d="M391.58,187h17.91l-3.61,26a31.91,31.91,0,0,0-10.68,0Zm9,26.93c4.28,0,7.79,3.11,7.79,6.95s-3.51,7.06-7.79,7.06-7.79-3.17-7.79-7.06S396.25,214,400.54,214Z"/></svg>