<svg id="Layer_1" data-name="Layer 1" xmlns="http://www.w3.org/2000/svg" viewBox="0 0 480 360"><defs><style>.cls-1{fill:none;stroke:#fff;stroke-width:4px;}</style></defs><path class="cls-1" d="M100.77,127.93h19.44v30.46h14.61v16.77h-34Z"/><path class="cls-1" d="M139.9,127.93h34v15.78H159.34v2.55h11.74v11.22H159.34v2.67H174.8v15H139.9Z"/><path class="cls-1" d="M177.15,127.93h21l7,25h.13l7.44-25h19l-18.07,47.23H195.22Z"/><path class="cls-1" d="M234.94,127.93h34v15.78H254.38v2.55h11.74v11.22H254.38v2.67h15.46v15h-34.9Z"/><path class="cls-1" d="M274.67,127.93h19.44v30.46h14.61v16.77H274.67Z"/><path class="cls-1" d="M331.74,160.54l20.55-32.61h17.09v26.94h5.54v12.65h-5.54v7.64H349.94v-7.64h-18.2Zm19-5.67v-7.05l-.13-.06-4.43,7.11Z"/><path class="cls-1" d="M102.93,203.78a42.05,42.05,0,0,0,13.58,3c1.71,0,2.11-.42,2.11-.84s-.51-.71-1.26-.81c-2-.32-7.75-.71-12-3-2.17-1.2-3.65-2.85-3.65-5.31,0-5.1,6.39-8.58,16.83-8.58a54.23,54.23,0,0,1,14.72,2v8.34a49,49,0,0,0-12.49-2.26c-1.66,0-2.11.39-2.11.78s.62.74,1.31.88c1.71.31,7.41.74,11.47,2.71,2.79,1.4,4.16,3.2,4.16,5.48,0,4.89-6.39,8.3-17.23,8.3a56.48,56.48,0,0,1-15.46-2.07Z"/><path class="cls-1" d="M150.63,188.65h17v16.43h12.78v9H150.63Z"/><path class="cls-1" d="M196.27,188.65h17v25.47h-17Z"/><path class="cls-1" d="M252.87,188.27A45.72,45.72,0,0,1,265,189.74v9.39a35.34,35.34,0,0,0-10.27-1.61c-5.82,0-8.95,1.72-8.95,4.07s3.13,4,8.95,4a33.38,33.38,0,0,0,10.5-1.69v9a45.81,45.81,0,0,1-12.55,1.58c-13.81,0-23.91-5.55-23.91-13.12S238.84,188.27,252.87,188.27Z"/><path class="cls-1" d="M281.34,188.65h29.73v8.51H298.34v1.38h10.27v6H298.34V206h13.53v8.09H281.34Z"/><path class="cls-1" d="M327.5,214.12V188.65h17.29c8,0,14.15,1.51,18.31,4,3.65,2.14,6,5.06,6,8.75,0,3.52-2.17,6.55-5.88,8.73-4.27,2.53-10.49,4-18.31,4Zm17-8.3h.4a12.06,12.06,0,0,0,6.39-1.45,3.6,3.6,0,0,0,1.88-3,3.69,3.69,0,0,0-1.88-3.06c-1.2-.77-3.14-1.37-6.27-1.37h-.52Z"/><path d="M100.77,127.93h19.44v30.46h14.61v16.77h-34Z"/><path d="M139.9,127.93h34v15.78H159.34v2.55h11.74v11.22H159.34v2.67H174.8v15H139.9Z"/><path d="M177.15,127.93h21l7,25h.13l7.44-25h19l-18.07,47.23H195.22Z"/><path d="M234.94,127.93h34v15.78H254.38v2.55h11.74v11.22H254.38v2.67h15.46v15h-34.9Z"/><path d="M274.67,127.93h19.44v30.46h14.61v16.77H274.67Z"/><path d="M331.74,160.54l20.55-32.61h17.09v26.94h5.54v12.65h-5.54v7.64H349.94v-7.64h-18.2Zm19-5.67v-7.05l-.13-.06-4.43,7.11Z"/><path d="M102.93,203.78a42.05,42.05,0,0,0,13.58,3c1.71,0,2.11-.42,2.11-.84s-.51-.71-1.26-.81c-2-.32-7.75-.71-12-3-2.17-1.2-3.65-2.85-3.65-5.31,0-5.1,6.39-8.58,16.83-8.58a54.23,54.23,0,0,1,14.72,2v8.34a49,49,0,0,0-12.49-2.26c-1.66,0-2.11.39-2.11.78s.62.74,1.31.88c1.71.31,7.41.74,11.47,2.71,2.79,1.4,4.16,3.2,4.16,5.48,0,4.89-6.39,8.3-17.23,8.3a56.48,56.48,0,0,1-15.46-2.07Z"/><path d="M150.63,188.65h17v16.43h12.78v9H150.63Z"/><path d="M196.27,188.65h17v25.47h-17Z"/><path d="M252.87,188.27A45.72,45.72,0,0,1,265,189.74v9.39a35.34,35.34,0,0,0-10.27-1.61c-5.82,0-8.95,1.72-8.95,4.07s3.13,4,8.95,4a33.38,33.38,0,0,0,10.5-1.69v9a45.81,45.81,0,0,1-12.55,1.58c-13.81,0-23.91-5.55-23.91-13.12S238.84,188.27,252.87,188.27Z"/><path d="M281.34,188.65h29.73v8.51H298.34v1.38h10.27v6H298.34V206h13.53v8.09H281.34Z"/><path d="M327.5,214.12V188.65h17.29c8,0,14.15,1.51,18.31,4,3.65,2.14,6,5.06,6,8.75,0,3.52-2.17,6.55-5.88,8.73-4.27,2.53-10.49,4-18.31,4Zm17-8.3h.4a12.06,12.06,0,0,0,6.39-1.45,3.6,3.6,0,0,0,1.88-3,3.69,3.69,0,0,0-1.88-3.06c-1.2-.77-3.14-1.37-6.27-1.37h-.52Z"/></svg>