<svg version="1.1" xmlns="http://www.w3.org/2000/svg" xmlns:xlink="http://www.w3.org/1999/xlink" width="126" height="126" viewBox="0,0,126,126"><g transform="translate(-237,-57)"><g data-paper-data="{&quot;isPaintingLayer&quot;:true}" fill-rule="nonzero" stroke-linecap="butt" stroke-miterlimit="10" stroke-dasharray="" stroke-dashoffset="0" style="mix-blend-mode: normal"><path d="M239,181v-122h122v122z" fill="none" stroke="#000000" stroke-width="4" stroke-linejoin="round"/><path d="M239,181v-122h122v122z" fill="#b53838" stroke="none" stroke-width="1" stroke-linejoin="miter"/><path d="M248,172v-14h44v14z" fill="#c43939" stroke="none" stroke-width="1" stroke-linejoin="miter"/><path d="M308,172v-14h44v14z" fill="#c43939" stroke="none" stroke-width="1" stroke-linejoin="miter"/><path d="M248,82v-14h44v14z" fill="#c43939" stroke="none" stroke-width="1" stroke-linejoin="miter"/><path d="M308,82v-14h44v14z" fill="#c43939" stroke="none" stroke-width="1" stroke-linejoin="miter"/><path d="M278,142v-44h44v44z" fill="#ffffff" stroke="none" stroke-width="1" stroke-linejoin="miter"/><path d="M248,142v-14h14v14z" fill="#c43939" stroke="none" stroke-width="1" stroke-linejoin="miter"/><path d="M338,142v-14h14v14z" fill="#c43939" stroke="none" stroke-width="1" stroke-linejoin="miter"/><path d="M248,112v-14h14v14z" fill="#c43939" stroke="none" stroke-width="1" stroke-linejoin="miter"/><path d="M293,127v-14h14v14z" fill="#000000" stroke="none" stroke-width="1" stroke-linejoin="miter"/><path d="M338,112v-14h14v14z" fill="#c43939" stroke="none" stroke-width="1" stroke-linejoin="miter"/></g></g></svg>