<svg version="1.1" xmlns="http://www.w3.org/2000/svg" xmlns:xlink="http://www.w3.org/1999/xlink" width="420.22" height="225.48706" viewBox="0,0,420.22,225.48706"><g transform="translate(-9.56,-122.01294)"><g data-paper-data="{&quot;isPaintingLayer&quot;:true}" fill-rule="nonzero" stroke-linecap="butt" stroke-linejoin="miter" stroke-miterlimit="10" stroke-dasharray="" stroke-dashoffset="0" style="mix-blend-mode: normal"><path d="M247.21,192.82h3.57v1.05h-2.32v1h1.85v1h-1.85v1.88h-1.25z" fill="#000000" stroke="none" stroke-width="1"/><path d="M253.27,197.37c-0.24316,0.35224 -0.64201,0.56471 -1.07,0.57c-0.58947,0.03435 -1.09726,-0.41108 -1.14,-1c0,-0.7 0.53,-1.27 2.2,-1.32v-0.07c0,-0.39 -0.2,-0.57 -0.65,-0.57c-0.44637,0.03038 -0.8803,0.16022 -1.27,0.38l-0.25,-0.9c0.52643,-0.28178 1.11295,-0.43269 1.71,-0.44c1.29,0 1.71,0.58 1.69,1.62v1.1c0,0.26 0,0.28 0.3,0.31l-0.12,0.88c-0.81,0.1 -1.21,-0.11 -1.38,-0.52zM253.27,196.16c-0.76,0.09 -1,0.23 -1,0.56c0.00474,0.11711 0.05819,0.22691 0.14745,0.30287c0.08926,0.07596 0.20619,0.11117 0.32255,0.09713c0.21751,0.00451 0.42599,-0.08693 0.57,-0.25z" fill="#000000" stroke="none" stroke-width="1"/><path d="M256.68,197.94c-0.54407,0.00288 -1.08257,-0.10959 -1.58,-0.33l0.24,-0.89c0.42134,0.2172 0.88615,0.33682 1.36,0.35c0.33,0 0.51,-0.11 0.51,-0.3c0,-0.19 -0.21,-0.29 -0.63,-0.39c-0.87,-0.16 -1.42,-0.48 -1.42,-1.21c0,-0.73 0.61,-1.19 1.64,-1.19c0.51934,0.00762 1.03222,0.11631 1.51,0.32l-0.25,0.88c-0.39808,-0.20191 -0.8342,-0.31776 -1.28,-0.34c-0.29,0 -0.45,0.1 -0.45,0.28c0,0.18 0.23,0.28 0.64,0.37c0.88,0.19 1.4,0.48 1.4,1.22c0,0.74 -0.6,1.23 -1.69,1.23z" fill="#000000" stroke="none" stroke-width="1"/><path d="M260.53,197.94c-0.92,0 -1.42,-0.38 -1.37,-1.36l0.06,-1.41l-0.56,-0.1v-0.78l0.56,-0.18v-0.85h1.19v0.89h0.93v1h-1v1.34c-0.02066,0.13524 0.02427,0.27225 0.12101,0.36899c0.09674,0.09674 0.23374,0.14167 0.36899,0.12101c0.16771,-0.00623 0.33326,-0.04002 0.49,-0.1l0.14,1c-0.3043,0.07296 -0.61885,0.09325 -0.93,0.06z" fill="#000000" stroke="none" stroke-width="1"/><path d="M263,196.25c0,0.49 0.38,0.78 1,0.78c0.42801,-0.01131 0.84543,-0.1355 1.21,-0.36l0.12,1c-0.44924,0.21426 -0.94239,0.32042 -1.44,0.31c-0.5555,0.06811 -1.11214,-0.11752 -1.51555,-0.50542c-0.40342,-0.3879 -0.61073,-0.93684 -0.56445,-1.49458c-0.02919,-0.53885 0.17213,-1.0647 0.55372,-1.44628c0.38159,-0.38159 0.90743,-0.58291 1.44628,-0.55372c0.43293,-0.04841 0.86502,0.0977 1.17974,0.3989c0.31472,0.3012 0.47963,0.72647 0.45026,1.1611c0.00052,0.21915 -0.02636,0.43751 -0.08,0.65h-2.35zM264.29,195.61v-0.07c0,-0.44 -0.18,-0.71 -0.57,-0.71c-0.41345,0.02674 -0.73163,0.37585 -0.72,0.79z" fill="#000000" stroke="none" stroke-width="1"/><path d="M267.48,197.94c-0.54407,0.00288 -1.08257,-0.10959 -1.58,-0.33l0.24,-0.89c0.42134,0.2172 0.88615,0.33682 1.36,0.35c0.33,0 0.51,-0.11 0.51,-0.3c0,-0.19 -0.21,-0.29 -0.63,-0.39c-0.87,-0.16 -1.42,-0.48 -1.42,-1.21c0,-0.73 0.61,-1.19 1.64,-1.19c0.51934,0.00762 1.03222,0.11631 1.51,0.32l-0.25,0.88c-0.39808,-0.20191 -0.8342,-0.31776 -1.28,-0.34c-0.29,0 -0.45,0.1 -0.45,0.28c0,0.18 0.23,0.28 0.64,0.37c0.88,0.19 1.4,0.48 1.4,1.22c0,0.74 -0.6,1.23 -1.69,1.23z" fill="#000000" stroke="none" stroke-width="1"/><path d="M271.33,197.94c-0.92,0 -1.42,-0.38 -1.37,-1.36l0.06,-1.41l-0.56,-0.1v-0.78l0.56,-0.18v-0.85h1.19v0.89h0.93v1h-1v1.34c-0.02066,0.13524 0.02427,0.27225 0.12101,0.36899c0.09674,0.09674 0.23374,0.14167 0.36899,0.12101c0.16771,-0.00623 0.33326,-0.04002 0.49,-0.1l0.14,1c-0.3043,0.07296 -0.61885,0.09325 -0.93,0.06z" fill="#000000" stroke="none" stroke-width="1"/><path d="M277.27,193.88v3.94h-1.27v-3.94h-1.59v-1.06h4.45v1.06z" fill="#000000" stroke="none" stroke-width="1"/><path d="M280,193.57c-0.45,0 -0.73,-0.23 -0.73,-0.66c0,-0.43 0.28,-0.66 0.73,-0.66c0.45,0 0.73,0.23 0.73,0.66c0,0.43 -0.27,0.66 -0.73,0.66zM279.38,197.82v-3.66l1.24,-0.15v3.81z" fill="#000000" stroke="none" stroke-width="1"/><path d="M286.17,197.82v-2.2c0,-0.44 -0.19,-0.6 -0.5,-0.6c-0.22208,0.00658 -0.43465,0.09161 -0.6,0.24v2.56h-1.23v-2.2c0,-0.44 -0.2,-0.6 -0.51,-0.6c-0.22149,0.00023 -0.43511,0.08212 -0.6,0.23v2.57h-1.23v-3.66l1.23,-0.15v0.52c0.29438,-0.34654 0.72531,-0.5474 1.18,-0.55c0.43442,0.00323 0.82624,0.26183 1,0.66c0.31001,-0.40142 0.78307,-0.64345 1.29,-0.66c0.33105,-0.00881 0.6493,0.12805 0.87063,0.3744c0.22133,0.24635 0.32345,0.57738 0.27937,0.9056v2.56z" fill="#000000" stroke="none" stroke-width="1"/><path d="M289.28,196.25c0,0.49 0.38,0.78 1,0.78c0.4309,-0.01281 0.85117,-0.13682 1.22,-0.36l0.12,1c-0.45275,0.21438 -0.94917,0.32051 -1.45,0.31c-0.5555,0.06811 -1.11214,-0.11752 -1.51555,-0.50542c-0.40342,-0.3879 -0.61073,-0.93684 -0.56445,-1.49458c-0.02601,-0.53799 0.17634,-1.06194 0.5572,-1.4428c0.38086,-0.38086 0.90482,-0.58321 1.4428,-0.5572c0.43293,-0.04841 0.86502,0.0977 1.17974,0.3989c0.31472,0.3012 0.47963,0.72647 0.45026,1.1611c0.00052,0.21915 -0.02636,0.43751 -0.08,0.65h-2.36zM290.57,195.61v-0.07c0,-0.44 -0.18,-0.71 -0.56,-0.71c-0.41345,0.02674 -0.73163,0.37585 -0.72,0.79z" fill="#000000" stroke="none" stroke-width="1"/><path d="M293.09,195.68c-0.20033,0.01424 -0.39733,-0.05704 -0.54217,-0.19616c-0.14485,-0.13913 -0.22399,-0.33309 -0.21783,-0.53384c0,-0.41974 0.34026,-0.76 0.76,-0.76c0.41974,0 0.76,0.34026 0.76,0.76c0.00616,0.20075 -0.07298,0.39471 -0.21783,0.53384c-0.14485,0.13913 -0.34184,0.2104 -0.54217,0.19616zM293.09,197.94c-0.39885,-0.01641 -0.71056,-0.35014 -0.69973,-0.74918c0.01083,-0.39904 0.34017,-0.71538 0.73932,-0.71014c0.39915,0.00524 0.72007,0.33013 0.72041,0.72932c0.00616,0.20075 -0.07298,0.39471 -0.21783,0.53384c-0.14485,0.13913 -0.34184,0.2104 -0.54217,0.19616z" fill="#000000" stroke="none" stroke-width="1"/><path d="M236.7,221.82h-1.26l-0.37,-1.07h-1.85l-0.36,1.07h-1.27l1.78,-5h1.63zM234.15,217.82l-0.66,2h1.3z" fill="#000000" stroke="none" stroke-width="1"/><path d="M237.16,221.82v-5.29l1.23,-0.15v5.44z" fill="#000000" stroke="none" stroke-width="1"/><path d="M239.27,221.82v-5.29l1.23,-0.15v5.44z" fill="#000000" stroke="none" stroke-width="1"/><path d="M245.84,219.92v1.9h-1.25v-1.91l-1.74,-3.09h1.35l1,2l1,-2h1.34z" fill="#000000" stroke="none" stroke-width="1"/><path d="M248.43,220.25c0,0.49 0.39,0.78 1,0.78c0.42778,-0.0127 0.84485,-0.13679 1.21,-0.36l0.12,1c-0.4524,0.21543 -0.94906,0.32162 -1.45,0.31c-0.55388,0.06484 -1.10763,-0.12225 -1.50868,-0.50974c-0.40105,-0.38749 -0.60708,-0.93448 -0.56132,-1.49026c-0.02919,-0.53885 0.17213,-1.0647 0.55372,-1.44628c0.38159,-0.38159 0.90743,-0.58291 1.44628,-0.55372c0.43293,-0.04841 0.86502,0.0977 1.17974,0.3989c0.31472,0.3012 0.47963,0.72647 0.45026,1.1611c0.00052,0.21915 -0.02636,0.43751 -0.08,0.65h-2.36zM249.73,219.61v-0.07c0,-0.44 -0.19,-0.71 -0.57,-0.71c-0.41345,0.02674 -0.73163,0.37585 -0.72,0.79z" fill="#000000" stroke="none" stroke-width="1"/><path d="M251.57,221.82v-5.29l1.23,-0.15v5.44z" fill="#000000" stroke="none" stroke-width="1"/><path d="M253.68,221.82v-5.29l1.23,-0.15v5.44z" fill="#000000" stroke="none" stroke-width="1"/><path d="M257.57,221.94c-0.54238,0.04262 -1.07623,-0.15436 -1.46094,-0.53906c-0.3847,-0.3847 -0.58169,-0.91855 -0.53906,-1.46094c-0.02601,-0.53799 0.17634,-1.06194 0.5572,-1.4428c0.38086,-0.38086 0.90482,-0.58321 1.4428,-0.5572c0.54328,-0.04617 1.07925,0.14967 1.46479,0.53521c0.38554,0.38554 0.58138,0.92151 0.53521,1.46479c0.02289,0.53712 -0.18047,1.05924 -0.56061,1.43939c-0.38015,0.38015 -0.90226,0.5835 -1.43939,0.56061zM257.57,218.94c-0.5,0 -0.76,0.41 -0.76,1.05c0,0.64 0.27,1 0.77,1c0.5,0 0.77,-0.4 0.77,-1c0,-0.6 -0.26,-1.08 -0.77,-1.08z" fill="#000000" stroke="none" stroke-width="1"/><path d="M260.92,221.83l-1.05,-3.73h1.25l0.5,2.47l0.63,-2.47h1.29l0.64,2.43l0.43,-2.43h1.28l-1.05,3.73h-1.25l-0.71,-2.45l-0.71,2.45z" fill="#000000" stroke="none" stroke-width="1"/><path d="M272.9,221.82h-1.26l-0.37,-1.07h-1.85l-0.36,1.07h-1.27l1.78,-5h1.59zM270.35,217.82l-0.66,2h1.31z" fill="#000000" stroke="none" stroke-width="1"/><path d="M275.63,218c0.92,0 1.59,0.75 1.59,1.93c0.03007,0.51486 -0.15157,1.01964 -0.50279,1.3973c-0.35122,0.37766 -0.84152,0.59539 -1.35721,0.6027c-0.26098,-0.00417 -0.52012,-0.04456 -0.77,-0.12v1.66h-1.23v-5.31l1.23,-0.15v0.47c0.26538,-0.29692 0.64187,-0.47069 1.04,-0.48zM274.63,220.88c0.17262,0.1014 0.36983,0.15329 0.57,0.15c0.53,0 0.83,-0.42 0.83,-1c0,-0.58 -0.27,-1 -0.77,-1c-0.23707,-0.005 -0.46546,0.08925 -0.63,0.26z" fill="#000000" stroke="none" stroke-width="1"/><path d="M280.19,218c0.92,0 1.59,0.75 1.59,1.93c0.03007,0.51486 -0.15157,1.01964 -0.50279,1.3973c-0.35122,0.37766 -0.84152,0.59539 -1.35721,0.6027c-0.26098,-0.00417 -0.52012,-0.04456 -0.77,-0.12v1.66h-1.23v-5.31l1.23,-0.15v0.47c0.26538,-0.29692 0.64187,-0.47069 1.04,-0.48zM279.19,220.88c0.17262,0.1014 0.36983,0.15329 0.57,0.15c0.53,0 0.83,-0.42 0.83,-1c0,-0.58 -0.27,-1 -0.77,-1c-0.23707,-0.005 -0.46546,0.08925 -0.63,0.26z" fill="#000000" stroke="none" stroke-width="1"/><path d="M282.48,221.82v-5.29l1.23,-0.15v5.44z" fill="#000000" stroke="none" stroke-width="1"/><path d="M285.6,220.25c0,0.49 0.38,0.78 1,0.78c0.4309,-0.01281 0.85117,-0.13682 1.22,-0.36l0.12,1c-0.45275,0.21438 -0.94917,0.32051 -1.45,0.31c-0.5555,0.06811 -1.11214,-0.11752 -1.51555,-0.50542c-0.40342,-0.3879 -0.61073,-0.93684 -0.56445,-1.49458c-0.02601,-0.53799 0.17634,-1.06194 0.5572,-1.4428c0.38086,-0.38086 0.90482,-0.58321 1.4428,-0.5572c0.43293,-0.04841 0.86502,0.0977 1.17974,0.3989c0.31472,0.3012 0.47963,0.72647 0.45026,1.1611c0.00052,0.21915 -0.02636,0.43751 -0.08,0.65h-2.36zM286.89,219.61v-0.07c0,-0.44 -0.18,-0.71 -0.56,-0.71c-0.41345,0.02674 -0.73163,0.37585 -0.72,0.79z" fill="#000000" stroke="none" stroke-width="1"/><path d="M290.06,221.94c-0.54095,0.00391 -1.0764,-0.10863 -1.57,-0.33l0.24,-0.89c0.42085,0.2185 0.88596,0.3382 1.36,0.35c0.33,0 0.5,-0.11 0.5,-0.3c0,-0.19 -0.21,-0.29 -0.63,-0.39c-0.86,-0.16 -1.42,-0.48 -1.42,-1.21c0,-0.73 0.61,-1.19 1.64,-1.19c0.51963,0.005 1.03301,0.1138 1.51,0.32l-0.24,0.88c-0.3985,-0.2008 -0.83438,-0.31658 -1.28,-0.34c-0.3,0 -0.46,0.1 -0.46,0.28c0,0.18 0.23,0.28 0.64,0.37c0.88,0.19 1.4,0.48 1.4,1.22c0,0.74 -0.59,1.23 -1.69,1.23z" fill="#000000" stroke="none" stroke-width="1"/><path d="M293.1,219.68c-0.20033,0.01424 -0.39733,-0.05704 -0.54217,-0.19616c-0.14485,-0.13913 -0.22399,-0.33309 -0.21783,-0.53384c0.04421,-0.38352 0.36894,-0.67297 0.755,-0.67297c0.38606,0 0.71079,0.28944 0.755,0.67297c0.00593,0.19889 -0.07188,0.39114 -0.21447,0.52993c-0.14259,0.13879 -0.33687,0.21137 -0.53553,0.20007zM293.1,221.94c-0.40038,-0.01097 -0.71715,-0.3425 -0.70988,-0.74297c0.00727,-0.40046 0.33585,-0.72029 0.73636,-0.71673c0.40052,0.00356 0.72336,0.32917 0.72352,0.7297c0.00593,0.19889 -0.07188,0.39114 -0.21447,0.52993c-0.14259,0.13879 -0.33687,0.21137 -0.53553,0.20007z" fill="#000000" stroke="none" stroke-width="1"/><path d="M240.3,245.82h-1.3l-0.37,-1.07h-1.85l-0.36,1.07h-1.27l1.78,-5h1.59zM237.75,241.82l-0.66,2h1.3z" fill="#000000" stroke="none" stroke-width="1"/><path d="M240.76,245.82v-5.29l1.23,-0.15v5.44z" fill="#000000" stroke="none" stroke-width="1"/><path d="M242.87,245.82v-5.29l1.23,-0.15v5.44z" fill="#000000" stroke="none" stroke-width="1"/><path d="M249.44,243.92v1.9h-1.25v-1.91l-1.74,-3.09h1.35l1,2l1,-2h1.34z" fill="#000000" stroke="none" stroke-width="1"/><path d="M252,244.25c0,0.49 0.39,0.78 1,0.78c0.42778,-0.0127 0.84485,-0.13679 1.21,-0.36l0.12,1c-0.4524,0.21543 -0.94906,0.32162 -1.45,0.31c-0.55388,0.06484 -1.10763,-0.12225 -1.50868,-0.50974c-0.40105,-0.38749 -0.60708,-0.93448 -0.56132,-1.49026c-0.02919,-0.53885 0.17213,-1.0647 0.55372,-1.44628c0.38159,-0.38159 0.90743,-0.58291 1.44628,-0.55372c0.43293,-0.04841 0.86502,0.0977 1.17974,0.3989c0.31472,0.3012 0.47963,0.72647 0.45026,1.1611c0.00052,0.21915 -0.02636,0.43751 -0.08,0.65h-2.36zM253.3,243.61v-0.07c0,-0.44 -0.19,-0.71 -0.57,-0.71c-0.41345,0.02674 -0.73163,0.37585 -0.72,0.79z" fill="#000000" stroke="none" stroke-width="1"/><path d="M255.17,245.82v-5.29l1.23,-0.15v5.44z" fill="#000000" stroke="none" stroke-width="1"/><path d="M257.28,245.82v-5.29l1.23,-0.15v5.44z" fill="#000000" stroke="none" stroke-width="1"/><path d="M261.17,245.94c-0.54238,0.04262 -1.07623,-0.15436 -1.46094,-0.53906c-0.3847,-0.3847 -0.58169,-0.91855 -0.53906,-1.46094c-0.02601,-0.53799 0.17634,-1.06194 0.5572,-1.4428c0.38086,-0.38086 0.90482,-0.58321 1.4428,-0.5572c0.54328,-0.04617 1.07925,0.14967 1.46479,0.53521c0.38554,0.38554 0.58138,0.92151 0.53521,1.46479c0.02289,0.53712 -0.18047,1.05924 -0.56061,1.43939c-0.38015,0.38015 -0.90226,0.5835 -1.43939,0.56061zM261.17,242.94c-0.5,0 -0.76,0.41 -0.76,1.05c0,0.64 0.27,1 0.77,1c0.5,0 0.77,-0.4 0.77,-1c0,-0.6 -0.26,-1.08 -0.77,-1.08z" fill="#000000" stroke="none" stroke-width="1"/><path d="M264.52,245.83l-1,-3.73h1.25l0.5,2.47l0.63,-2.47h1.29l0.64,2.43l0.43,-2.43h1.28l-1.05,3.73h-1.25l-0.71,-2.45l-0.71,2.45z" fill="#000000" stroke="none" stroke-width="1"/><path d="M273.14,245.94c-0.39749,0.04784 -0.79683,-0.07315 -1.10094,-0.33354c-0.30411,-0.26039 -0.48513,-0.63635 -0.49906,-1.03646c0.02408,-0.65119 0.49126,-1.20104 1.13,-1.33c-0.43992,-0.21232 -0.72517,-0.65175 -0.74,-1.14c0.02228,-0.40604 0.21064,-0.78502 0.52086,-1.04795c0.31021,-0.26293 0.71495,-0.38663 1.11914,-0.34205c0.92,0 1.59,0.48 1.59,1.21c-0.04898,0.54941 -0.45773,0.99904 -1,1.1c0.24914,0.15024 0.4806,0.32802 0.69,0.53l0.46,-0.85h1.3l-1.14,1.49l1.2,1.5l-1.26,0.22l-0.62,-0.89c-0.38652,0.53599 -0.99085,0.87296 -1.65,0.92zM273.22,243.56c-0.30085,0.1482 -0.50738,0.43734 -0.55,0.77c-0.00052,0.18671 0.07689,0.36516 0.21357,0.49235c0.13668,0.12719 0.32024,0.19158 0.50643,0.17765c0.41464,-0.01369 0.79279,-0.24059 1,-0.6c-0.32491,-0.36104 -0.72402,-0.64759 -1.17,-0.84zM274.1,242.07c0.00589,-0.14936 -0.05157,-0.29426 -0.15821,-0.399c-0.10664,-0.10474 -0.25256,-0.15958 -0.40179,-0.151c-0.14134,-0.00544 -0.27881,0.04693 -0.38069,0.14505c-0.10189,0.09811 -0.15941,0.2335 -0.15931,0.37495c0,0.34 0.26,0.54 0.65,0.71c0.26006,-0.13074 0.43132,-0.38953 0.45,-0.68z" fill="#000000" stroke="none" stroke-width="1"/><path d="M280.25,245.82h-1.25v-5h2c1.33,0 2,0.61 2,1.58c0.02069,0.648 -0.38559,1.23304 -1,1.44l1.28,2h-1.43l-1,-1.68h-0.59zM280.87,243.22c0.54,0 0.84,-0.26 0.84,-0.74c0,-0.48 -0.3,-0.65 -0.94,-0.65h-0.54v1.41z" fill="#000000" stroke="none" stroke-width="1"/><path d="M284.72,244.25c0,0.49 0.38,0.78 1,0.78c0.4309,-0.01281 0.85117,-0.13682 1.22,-0.36l0.12,1c-0.45275,0.21438 -0.94917,0.32051 -1.45,0.31c-0.5555,0.06811 -1.11214,-0.11752 -1.51555,-0.50542c-0.40342,-0.3879 -0.61073,-0.93684 -0.56445,-1.49458c-0.02601,-0.53799 0.17634,-1.06194 0.5572,-1.4428c0.38086,-0.38086 0.90482,-0.58321 1.4428,-0.5572c0.43293,-0.04841 0.86502,0.0977 1.17974,0.3989c0.31472,0.3012 0.47963,0.72647 0.45026,1.1611c0.00052,0.21915 -0.02636,0.43751 -0.08,0.65h-2.36zM286.01,243.61v-0.07c0,-0.44 -0.18,-0.71 -0.56,-0.71c-0.41345,0.02674 -0.73163,0.37585 -0.72,0.79z" fill="#000000" stroke="none" stroke-width="1"/><path d="M290.29,240.53l1.24,-0.15v5.44h-1.24v-0.39c-0.25239,0.29455 -0.61293,0.47482 -1,0.5c-0.91,0 -1.59,-0.75 -1.59,-1.93c-0.03014,-0.51657 0.15284,-1.02291 0.50625,-1.40089c0.3534,-0.37797 0.84632,-0.59452 1.36375,-0.59911c0.25823,-0.00239 0.51507,0.03816 0.76,0.12zM289.73,242.9c-0.52,0 -0.83,0.42 -0.83,1c0,0.58 0.31,1 0.77,1c0.2328,0.00852 0.45823,-0.08238 0.62,-0.25v-1.63c-0.1694,-0.09791 -0.36536,-0.1399 -0.56,-0.12z" fill="#000000" stroke="none" stroke-width="1"/><path d="M293.09,243.68c-0.20033,0.01424 -0.39733,-0.05704 -0.54217,-0.19616c-0.14485,-0.13913 -0.22399,-0.33309 -0.21783,-0.53384c0,-0.41974 0.34026,-0.76 0.76,-0.76c0.41974,0 0.76,0.34026 0.76,0.76c0.00616,0.20075 -0.07298,0.39471 -0.21783,0.53384c-0.14485,0.13913 -0.34184,0.2104 -0.54217,0.19616zM293.09,245.94c-0.39885,-0.01641 -0.71056,-0.35014 -0.69973,-0.74918c0.01083,-0.39904 0.34017,-0.71538 0.73932,-0.71014c0.39915,0.00524 0.72007,0.33013 0.72041,0.72932c0.00616,0.20075 -0.07298,0.39471 -0.21783,0.53384c-0.14485,0.13913 -0.34184,0.2104 -0.54217,0.19616z" fill="#000000" stroke="none" stroke-width="1"/><path d="M304.67,197.82v-1.29c1.89,-1.2 2.92,-1.76 2.92,-2.42c0,-0.42 -0.31,-0.67 -0.91,-0.67c-0.63022,0.04481 -1.23582,0.26283 -1.75,0.63l-0.41,-1.36c0.7661,-0.51756 1.66562,-0.80235 2.59,-0.82c1.55,0 2.45,0.79 2.45,1.9c0,1.11 -0.84,1.73 -2.39,2.53h2.65v1.5z" fill="#000000" stroke="none" stroke-width="1"/><path d="M311.85,194.61c-0.59629,-0.0219 -1.06415,-0.51917 -1.04968,-1.11569c0.01447,-0.59652 0.50587,-1.07053 1.10253,-1.0635c0.59665,0.00703 1.07675,0.4925 1.07715,1.08919c0.01232,0.29979 -0.1042,0.59053 -0.32015,0.79884c-0.21595,0.20831 -0.5107,0.31428 -0.80985,0.29116zM311.85,198c-0.30014,0.02011 -0.59468,-0.08826 -0.81023,-0.29808c-0.21555,-0.20982 -0.33179,-0.50135 -0.31977,-0.80192c0,-0.62408 0.50592,-1.13 1.13,-1.13c0.62408,0 1.13,0.50592 1.13,1.13c0.01202,0.30057 -0.10422,0.59209 -0.31977,0.80192c-0.21555,0.20982 -0.51009,0.31819 -0.81023,0.29808z" fill="#000000" stroke="none" stroke-width="1"/><path d="M315.35,193.79l-1.39,0.32v-1.52l3.26,-0.71v5.94h-1.83z" fill="#000000" stroke="none" stroke-width="1"/><path d="M323.71,197.61c0,1.55 -1.41,2.45 -3.08,2.45c-0.81552,0.00977 -1.62033,-0.18627 -2.34,-0.57l0.21,-1.47c0.61023,0.353 1.29588,0.55527 2,0.59c0.83,0 1.36,-0.33 1.36,-1c0,-0.67 -0.45,-0.92 -1.37,-0.95c-0.33441,-0.00701 -0.66883,0.01306 -1,0.06v-1.33c1.06,-0.2 2,-0.44 2,-1.23c0,-0.5 -0.37,-0.79 -1.1,-0.79c-0.61587,0.04183 -1.20483,0.26836 -1.69,0.65l-0.41,-1.34c0.74069,-0.53849 1.63427,-0.82584 2.55,-0.82c1.52,0 2.63,0.78 2.63,2c-0.0408,0.88533 -0.6594,1.63823 -1.52,1.85c0.9876,0.08726 1.74844,0.90862 1.76,1.9z" fill="#000000" stroke="none" stroke-width="1"/><path d="M325.91,198c-0.30181,0.02309 -0.59909,-0.08394 -0.81691,-0.29411c-0.21782,-0.21018 -0.3354,-0.50345 -0.32309,-0.80589c-0.01216,-0.45866 0.25422,-0.87914 0.67412,-1.06409c0.4199,-0.18494 0.90994,-0.09763 1.24012,0.22097c0.33018,0.31859 0.43493,0.80521 0.2651,1.23144c-0.16983,0.42623 -0.58054,0.70746 -1.03934,0.71168z" fill="#000000" stroke="none" stroke-width="1"/><path d="M333,197.61c0,1.55 -1.41,2.45 -3.09,2.45c-0.81234,0.00981 -1.61393,-0.18628 -2.33,-0.57l0.21,-1.47c0.60961,0.35444 1.29562,0.55682 2,0.59c0.83,0 1.35,-0.33 1.35,-1c0,-0.67 -0.44,-0.92 -1.36,-0.95c-0.33441,-0.00701 -0.66883,0.01306 -1,0.06v-1.33c1.06,-0.2 2,-0.44 2,-1.23c0,-0.5 -0.37,-0.79 -1.1,-0.79c-0.61587,0.04183 -1.20483,0.26836 -1.69,0.65l-0.41,-1.34c0.73972,-0.54041 1.63394,-0.82796 2.55,-0.82c1.51,0 2.63,0.78 2.63,2c-0.05948,0.87804 -0.67018,1.62132 -1.52,1.85c0.9876,0.08726 1.74844,0.90862 1.76,1.9z" fill="#000000" stroke="none" stroke-width="1"/><path d="M336.29,195.64v-1.47h3.81v1.47z" fill="#000000" stroke="none" stroke-width="1"/><path d="M343.49,197.18c0.08055,-0.61587 0.54193,-1.11336 1.15,-1.24c-0.68489,-0.29796 -1.12844,-0.9731 -1.13,-1.72c0,-1.21 1,-2.16 2.65,-2.16c0.59071,0.01142 1.17276,0.14417 1.71,0.39l1.57,-0.13l0.08,1.5l-1.08,-0.17c0.11045,0.18756 0.16589,0.40242 0.16,0.62c-0.05009,0.59408 -0.33915,1.14239 -0.80099,1.51941c-0.46184,0.37702 -1.05693,0.55045 -1.64901,0.48059c-0.24834,-0.00791 -0.49571,-0.03465 -0.74,-0.08c-0.16,0.08 -0.33,0.21 -0.33,0.4c0,0.19 0.29,0.35 1,0.35h0.66c1.52,0 2.58,0.39 2.58,1.57c0,1.39 -1.67,2.29 -3.49,2.29c-1.5,0 -2.72,-0.46 -2.72,-1.45c0,-0.55 0.44,-1.07 1.33,-1.17c-0.44,-0.18 -0.95,-0.48 -0.95,-1zM344.75,199c0,0.43 0.55,0.73 1.4,0.73c0.85,0 1.58,-0.27 1.58,-0.75c0,-0.48 -0.47,-0.55 -1.44,-0.55c-0.34,0 -0.9,0 -1.1,0c-0.24348,0.09038 -0.41422,0.31156 -0.44,0.57zM346.15,195.21c0.56,0 0.81,-0.4 0.81,-1c0,-0.6 -0.27,-1 -0.85,-1c-0.58,0 -0.84,0.41 -0.84,1c0,0.59 0.29,1 0.88,1z" fill="#000000" stroke="none" stroke-width="1"/><path d="M352,197.82h-1.84v-5.49l1.84,-0.22v0.81c0.24855,-0.52121 0.77258,-0.85504 1.35,-0.86c0.32067,0.0018 0.63621,0.08069 0.92,0.23l-0.37,1.63c-0.217,-0.11015 -0.45664,-0.16835 -0.7,-0.17c-0.52397,0.02114 -0.9899,0.33953 -1.2,0.82z" fill="#000000" stroke="none" stroke-width="1"/><path d="M355.88,191.45c-0.55228,0 -1,-0.44772 -1,-1c0,-0.55228 0.44772,-1 1,-1c0.69,0 1.09,0.35 1.09,1c0,0.65 -0.4,1 -1.09,1zM354.96,197.82v-5.49l1.85,-0.22v5.71z" fill="#000000" stroke="none" stroke-width="1"/><path d="M360.29,197.82h-1.85v-4l-1,-0.07v-1.17l0.9,-0.27v-0.36c0.05,-1.62 0.78,-2.31 2.18,-2.31c0.51574,-0.00461 1.02782,0.08695 1.51,0.27c0,0 -0.35,1.54 -0.35,1.53c-0.29212,-0.13494 -0.60839,-0.20975 -0.93,-0.22c-0.48,0 -0.65,0.28 -0.65,0.82v0.32h2.38v-0.53c0.05,-1.62 0.79,-2.31 2.18,-2.31c0.51898,-0.00446 1.03431,0.08708 1.52,0.27c0,0 -0.36,1.54 -0.36,1.53c-0.28821,-0.13601 -0.60144,-0.21091 -0.92,-0.22c-0.48,0 -0.65,0.28 -0.65,0.82v0.44h1.55v1.45h-1.44v4.06h-1.84v-4.06h-2.3z" fill="#000000" stroke="none" stroke-width="1"/><path d="M370.14,192.06c1.38,0 2.38,1.13 2.38,2.9c0.0495,0.77339 -0.22147,1.53307 -0.74924,2.10056c-0.52777,0.56749 -1.26582,0.89278 -2.04076,0.89944c-0.38999,-0.00445 -0.7773,-0.06508 -1.15,-0.18v2.5h-1.85v-8l1.85,-0.22v0.7c0.40158,-0.43798 0.96585,-0.69118 1.56,-0.7zM368.58,196.38c0.25575,0.1548 0.55126,0.23128 0.85,0.22c0.79,0 1.25,-0.62 1.25,-1.54c0,-0.92 -0.41,-1.53 -1.17,-1.53c-0.34985,-0.00043 -0.68511,0.14016 -0.93,0.39z" fill="#000000" stroke="none" stroke-width="1"/><path d="M376.58,197.14c-0.36075,0.52071 -0.94686,0.83973 -1.58,0.86c-0.43214,0.02447 -0.85593,-0.12609 -1.17577,-0.41771c-0.31984,-0.29162 -0.50879,-0.69974 -0.52423,-1.13229c0,-1.06 0.79,-1.91 3.3,-2v-0.11c0,-0.59 -0.3,-0.85 -1,-0.85c-0.66654,0.04616 -1.31497,0.23727 -1.9,0.56l-0.38,-1.35c0.78843,-0.42116 1.66622,-0.64747 2.56,-0.66c1.93,0 2.57,0.87 2.55,2.43v1.66c0,0.38 0.08,0.42 0.46,0.45l-0.18,1.32c-1.21,0.16 -1.81,-0.16 -2.06,-0.78zM376.58,195.33c-1.14,0.13 -1.56,0.35 -1.56,0.84c0.0042,0.17578 0.08283,0.34152 0.21633,0.45595c0.1335,0.11443 0.30931,0.16679 0.48367,0.14405c0.32694,0.00814 0.6411,-0.12702 0.86,-0.37z" fill="#000000" stroke="none" stroke-width="1"/><path d="M382,198c-1.38,0 -2.13,-0.57 -2.06,-2l0.09,-2.12l-0.84,-0.15v-1.17l0.84,-0.28v-1.27h1.79v1.33h1.4v1.45h-1.49l-0.06,2c-0.03015,0.2022 0.03658,0.40681 0.18016,0.55235c0.14357,0.14554 0.34725,0.21505 0.54984,0.18765c0.25007,-0.00832 0.49691,-0.05904 0.73,-0.15l0.22,1.44c-0.43721,0.13305 -0.8932,0.19385 -1.35,0.18z" fill="#000000" stroke="none" stroke-width="1"/><path d="M386.9,198c-0.8057,0.0826 -1.60648,-0.19681 -2.1859,-0.76271c-0.57942,-0.5659 -0.87766,-1.35986 -0.8141,-2.16729c-0.04923,-0.8222 0.26093,-1.62528 0.85003,-2.20095c0.5891,-0.57567 1.39912,-0.86723 2.21997,-0.79905c0.69503,-0.00884 1.38166,0.15251 2,0.47l-0.36,1.39c-0.45093,-0.26177 -0.959,-0.40938 -1.48,-0.43c-0.39473,-0.01194 -0.77489,0.14955 -1.04034,0.44193c-0.26545,0.29238 -0.38957,0.68633 -0.33966,1.07807c-0.05046,0.40331 0.07943,0.80835 0.35504,1.10709c0.27561,0.29874 0.6689,0.46078 1.07496,0.44291c0.51962,0.00013 1.02888,-0.14537 1.47,-0.42l0.28,1.4c-0.62722,0.32067 -1.32603,0.47558 -2.03,0.45z" fill="#000000" stroke="none" stroke-width="1"/><path d="M393.62,197.82v-3.3c0,-0.67 -0.3,-0.89 -0.77,-0.89c-0.37324,0.0141 -0.72863,0.16337 -1,0.42v3.77h-1.85v-7.93l1.85,-0.23v3.34c0.45705,-0.57702 1.14435,-0.92432 1.88,-0.95c0.50374,-0.02509 0.99262,0.1748 1.33449,0.54563c0.34186,0.37083 0.50141,0.87432 0.43551,1.37437v3.84z" fill="#000000" stroke="none" stroke-width="1"/><path d="M396,199.22v-1.4h6.7v1.4z" fill="#000000" stroke="none" stroke-width="1"/><path d="M405.51,198c-1.38,0 -2.12,-0.57 -2.05,-2l0.09,-2.12l-0.84,-0.15v-1.17l0.84,-0.28v-1.27h1.78v1.33h1.39v1.45h-1.49l-0.06,2c-0.03468,0.20311 0.03055,0.4105 0.17525,0.55718c0.14471,0.14669 0.35118,0.21473 0.55475,0.18282c0.25007,-0.00832 0.49691,-0.05904 0.73,-0.15l0.22,1.44c-0.43409,0.13163 -0.88656,0.19241 -1.34,0.18z" fill="#000000" stroke="none" stroke-width="1"/><path d="M409.61,192.24v3.3c0,0.67 0.28,0.9 0.76,0.9c0.35327,-0.00227 0.69262,-0.13801 0.95,-0.38v-3.82h1.85v5.49l-1.85,0.23v-0.83c-0.45747,0.52729 -1.11248,0.84213 -1.81,0.87c-0.50033,0.01898 -0.98359,-0.18356 -1.32087,-0.55361c-0.33728,-0.37005 -0.49428,-0.86996 -0.42913,-1.36639v-3.84z" fill="#000000" stroke="none" stroke-width="1"/><path d="M416.73,198c-1.38,0 -2.12,-0.57 -2.05,-2l0.09,-2.12l-0.84,-0.15v-1.17l0.84,-0.28v-1.27h1.78v1.33h1.45v1.45h-1.49l-0.06,2c0,0.52 0.27,0.74 0.73,0.74c0.25007,-0.00832 0.49691,-0.05904 0.73,-0.15l0.22,1.44c-0.45325,0.13817 -0.92654,0.19903 -1.4,0.18z" fill="#000000" stroke="none" stroke-width="1"/><path d="M421.62,198c-0.81357,0.06393 -1.61435,-0.23154 -2.1914,-0.8086c-0.57706,-0.57706 -0.87253,-1.37783 -0.8086,-2.1914c-0.04059,-0.80741 0.26242,-1.59429 0.83407,-2.16593c0.57165,-0.57165 1.35852,-0.87466 2.16593,-0.83407c0.79678,-0.05041 1.57677,0.24416 2.14131,0.80869c0.56453,0.56453 0.85911,1.34453 0.80869,2.14131c0.04788,0.80514 -0.24405,1.59347 -0.8048,2.17323c-0.56075,0.57975 -1.33891,0.8978 -2.1452,0.87677zM421.62,193.46c-0.75,0 -1.15,0.61 -1.15,1.57c0,0.96 0.41,1.55 1.16,1.55c0.75,0 1.15,-0.6 1.15,-1.56c0,-0.96 -0.38,-1.56 -1.14,-1.56z" fill="#000000" stroke="none" stroke-width="1"/><path d="M427.51,197.82h-1.85v-5.49l1.85,-0.22v0.81c0.24321,-0.5213 0.76477,-0.85603 1.34,-0.86c0.32406,0.00019 0.64321,0.07912 0.93,0.23l-0.38,1.63c-0.21306,-0.11112 -0.4497,-0.16942 -0.69,-0.17c-0.52476,0.01875 -0.99184,0.33793 -1.2,0.82z" fill="#000000" stroke="none" stroke-width="1"/><path d="M304.67,221.82v-1.29c1.89,-1.2 2.92,-1.76 2.92,-2.42c0,-0.42 -0.31,-0.67 -0.91,-0.67c-0.63022,0.04481 -1.23582,0.26283 -1.75,0.63l-0.41,-1.36c0.7661,-0.51756 1.66562,-0.80235 2.59,-0.82c1.55,0 2.45,0.79 2.45,1.9c0,1.11 -0.84,1.73 -2.39,2.53h2.65v1.5z" fill="#000000" stroke="none" stroke-width="1"/><path d="M311.85,218.61c-0.59629,-0.0219 -1.06415,-0.51917 -1.04968,-1.11569c0.01447,-0.59652 0.50587,-1.07053 1.10253,-1.0635c0.59665,0.00703 1.07675,0.4925 1.07715,1.08919c0.01232,0.29979 -0.1042,0.59053 -0.32015,0.79884c-0.21595,0.20831 -0.5107,0.31428 -0.80985,0.29116zM311.85,222c-0.30014,0.02011 -0.59468,-0.08826 -0.81023,-0.29808c-0.21555,-0.20982 -0.33179,-0.50135 -0.31977,-0.80192c0,-0.62408 0.50592,-1.13 1.13,-1.13c0.62408,0 1.13,0.50592 1.13,1.13c0.01202,0.30057 -0.10422,0.59209 -0.31977,0.80192c-0.21555,0.20982 -0.51009,0.31819 -0.81023,0.29808z" fill="#000000" stroke="none" stroke-width="1"/><path d="M315.35,217.79l-1.39,0.32v-1.52l3.26,-0.71v5.94h-1.83z" fill="#000000" stroke="none" stroke-width="1"/><path d="M323.71,221.61c0,1.55 -1.41,2.45 -3.08,2.45c-0.81552,0.00977 -1.62033,-0.18627 -2.34,-0.57l0.21,-1.47c0.61023,0.353 1.29588,0.55527 2,0.59c0.83,0 1.36,-0.33 1.36,-1c0,-0.67 -0.45,-0.92 -1.37,-0.95c-0.33441,-0.00701 -0.66883,0.01306 -1,0.06v-1.33c1.06,-0.2 2,-0.44 2,-1.23c0,-0.5 -0.37,-0.79 -1.1,-0.79c-0.61587,0.04183 -1.20483,0.26836 -1.69,0.65l-0.41,-1.34c0.74069,-0.53849 1.63427,-0.82584 2.55,-0.82c1.52,0 2.63,0.78 2.63,2c-0.0408,0.88533 -0.6594,1.63823 -1.52,1.85c0.9876,0.08726 1.74844,0.90862 1.76,1.9z" fill="#000000" stroke="none" stroke-width="1"/><path d="M325.91,222c-0.30181,0.02309 -0.59909,-0.08394 -0.81691,-0.29411c-0.21782,-0.21018 -0.3354,-0.50345 -0.32309,-0.80589c-0.01216,-0.45866 0.25422,-0.87914 0.67412,-1.06409c0.4199,-0.18494 0.90994,-0.09763 1.24012,0.22097c0.33018,0.31859 0.43493,0.80521 0.2651,1.23144c-0.16983,0.42623 -0.58054,0.70746 -1.03934,0.71168z" fill="#000000" stroke="none" stroke-width="1"/><path d="M333,221.61c0,1.55 -1.41,2.45 -3.09,2.45c-0.81234,0.00981 -1.61393,-0.18628 -2.33,-0.57l0.21,-1.47c0.60961,0.35444 1.29562,0.55682 2,0.59c0.83,0 1.35,-0.33 1.35,-1c0,-0.67 -0.44,-0.92 -1.36,-0.95c-0.33441,-0.00701 -0.66883,0.01306 -1,0.06v-1.33c1.06,-0.2 2,-0.44 2,-1.23c0,-0.5 -0.37,-0.79 -1.1,-0.79c-0.61587,0.04183 -1.20483,0.26836 -1.69,0.65l-0.41,-1.34c0.73972,-0.54041 1.63394,-0.82796 2.55,-0.82c1.51,0 2.63,0.78 2.63,2c-0.05948,0.87804 -0.67018,1.62132 -1.52,1.85c0.9876,0.08726 1.74844,0.90862 1.76,1.9z" fill="#000000" stroke="none" stroke-width="1"/><path d="M336.29,219.64v-1.47h3.81v1.47z" fill="#000000" stroke="none" stroke-width="1"/><path d="M343.49,221.18c0.08055,-0.61587 0.54193,-1.11336 1.15,-1.24c-0.68489,-0.29796 -1.12844,-0.9731 -1.13,-1.72c0,-1.21 1,-2.16 2.65,-2.16c0.59071,0.01142 1.17276,0.14417 1.71,0.39l1.57,-0.13l0.08,1.5l-1.08,-0.17c0.11045,0.18756 0.16589,0.40242 0.16,0.62c-0.05009,0.59408 -0.33915,1.14239 -0.80099,1.51941c-0.46184,0.37702 -1.05693,0.55045 -1.64901,0.48059c-0.24834,-0.00791 -0.49571,-0.03465 -0.74,-0.08c-0.16,0.08 -0.33,0.21 -0.33,0.4c0,0.19 0.29,0.35 1,0.35h0.66c1.52,0 2.58,0.39 2.58,1.57c0,1.39 -1.67,2.29 -3.49,2.29c-1.5,0 -2.72,-0.46 -2.72,-1.45c0,-0.55 0.44,-1.07 1.33,-1.17c-0.44,-0.18 -0.95,-0.48 -0.95,-1zM344.75,223c0,0.43 0.55,0.73 1.4,0.73c0.85,0 1.58,-0.27 1.58,-0.75c0,-0.48 -0.47,-0.55 -1.44,-0.55c-0.34,0 -0.9,0 -1.1,0c-0.24348,0.09038 -0.41422,0.31156 -0.44,0.57zM346.15,219.21c0.56,0 0.81,-0.4 0.81,-1c0,-0.6 -0.27,-1 -0.85,-1c-0.58,0 -0.84,0.41 -0.84,1c0,0.59 0.29,1 0.88,1z" fill="#000000" stroke="none" stroke-width="1"/><path d="M352,221.82h-1.84v-5.49l1.84,-0.22v0.81c0.24855,-0.52121 0.77258,-0.85504 1.35,-0.86c0.32067,0.0018 0.63621,0.08069 0.92,0.23l-0.37,1.63c-0.217,-0.11015 -0.45664,-0.16835 -0.7,-0.17c-0.52397,0.02114 -0.9899,0.33953 -1.2,0.82z" fill="#000000" stroke="none" stroke-width="1"/><path d="M355.88,215.45c-0.55228,0 -1,-0.44772 -1,-1c0,-0.55228 0.44772,-1 1,-1c0.69,0 1.09,0.35 1.09,1c0,0.65 -0.4,1 -1.09,1zM354.96,221.82v-5.49l1.85,-0.22v5.71z" fill="#000000" stroke="none" stroke-width="1"/><path d="M360.29,221.82h-1.85v-4l-1,-0.07v-1.17l0.9,-0.27v-0.36c0.05,-1.62 0.78,-2.31 2.18,-2.31c0.51574,-0.00461 1.02782,0.08695 1.51,0.27c0,0 -0.35,1.54 -0.35,1.53c-0.29212,-0.13494 -0.60839,-0.20975 -0.93,-0.22c-0.48,0 -0.65,0.28 -0.65,0.82v0.32h2.38v-0.53c0.05,-1.62 0.79,-2.31 2.18,-2.31c0.51898,-0.00446 1.03431,0.08708 1.52,0.27c0,0 -0.36,1.54 -0.36,1.53c-0.28821,-0.13601 -0.60144,-0.21091 -0.92,-0.22c-0.48,0 -0.65,0.28 -0.65,0.82v0.44h1.55v1.45h-1.44v4.06h-1.84v-4.06h-2.3z" fill="#000000" stroke="none" stroke-width="1"/><path d="M370.14,216.06c1.38,0 2.38,1.13 2.38,2.9c0.0495,0.77339 -0.22147,1.53307 -0.74924,2.10056c-0.52777,0.56749 -1.26582,0.89278 -2.04076,0.89944c-0.38999,-0.00445 -0.7773,-0.06508 -1.15,-0.18v2.5h-1.85v-8l1.85,-0.22v0.7c0.40158,-0.43798 0.96585,-0.69118 1.56,-0.7zM368.58,220.38c0.25575,0.1548 0.55126,0.23128 0.85,0.22c0.79,0 1.25,-0.62 1.25,-1.54c0,-0.92 -0.41,-1.53 -1.17,-1.53c-0.34985,-0.00043 -0.68511,0.14016 -0.93,0.39z" fill="#000000" stroke="none" stroke-width="1"/><path d="M376.58,221.14c-0.36075,0.52071 -0.94686,0.83973 -1.58,0.86c-0.43214,0.02447 -0.85593,-0.12609 -1.17577,-0.41771c-0.31984,-0.29162 -0.50879,-0.69974 -0.52423,-1.13229c0,-1.06 0.79,-1.91 3.3,-2v-0.11c0,-0.59 -0.3,-0.85 -1,-0.85c-0.66654,0.04616 -1.31497,0.23727 -1.9,0.56l-0.38,-1.35c0.78843,-0.42116 1.66622,-0.64747 2.56,-0.66c1.93,0 2.57,0.87 2.55,2.43v1.66c0,0.38 0.08,0.42 0.46,0.45l-0.18,1.32c-1.21,0.16 -1.81,-0.16 -2.06,-0.78zM376.58,219.33c-1.14,0.13 -1.56,0.35 -1.56,0.84c0.0042,0.17578 0.08283,0.34152 0.21633,0.45595c0.1335,0.11443 0.30931,0.16679 0.48367,0.14405c0.32694,0.00814 0.6411,-0.12702 0.86,-0.37z" fill="#000000" stroke="none" stroke-width="1"/><path d="M382,222c-1.38,0 -2.13,-0.57 -2.06,-2l0.09,-2.12l-0.84,-0.15v-1.17l0.84,-0.28v-1.27h1.79v1.33h1.4v1.45h-1.49l-0.06,2c-0.03015,0.2022 0.03658,0.40681 0.18016,0.55235c0.14357,0.14554 0.34725,0.21505 0.54984,0.18765c0.25007,-0.00832 0.49691,-0.05904 0.73,-0.15l0.22,1.44c-0.43721,0.13305 -0.8932,0.19385 -1.35,0.18z" fill="#000000" stroke="none" stroke-width="1"/><path d="M386.9,222c-0.8057,0.0826 -1.60648,-0.19681 -2.1859,-0.76271c-0.57942,-0.5659 -0.87766,-1.35986 -0.8141,-2.16729c-0.04923,-0.8222 0.26093,-1.62528 0.85003,-2.20095c0.5891,-0.57567 1.39912,-0.86723 2.21997,-0.79905c0.69503,-0.00884 1.38166,0.15251 2,0.47l-0.36,1.39c-0.45093,-0.26177 -0.959,-0.40938 -1.48,-0.43c-0.39473,-0.01194 -0.77489,0.14955 -1.04034,0.44193c-0.26545,0.29238 -0.38957,0.68633 -0.33966,1.07807c-0.05046,0.40331 0.07943,0.80835 0.35504,1.10709c0.27561,0.29874 0.6689,0.46078 1.07496,0.44291c0.51962,0.00013 1.02888,-0.14537 1.47,-0.42l0.28,1.4c-0.62722,0.32067 -1.32603,0.47558 -2.03,0.45z" fill="#000000" stroke="none" stroke-width="1"/><path d="M393.62,221.82v-3.3c0,-0.67 -0.3,-0.89 -0.77,-0.89c-0.37324,0.0141 -0.72863,0.16337 -1,0.42v3.77h-1.85v-7.93l1.85,-0.23v3.34c0.45705,-0.57702 1.14435,-0.92432 1.88,-0.95c0.50374,-0.02509 0.99262,0.1748 1.33449,0.54563c0.34186,0.37083 0.50141,0.87432 0.43551,1.37437v3.84z" fill="#000000" stroke="none" stroke-width="1"/><path d="M304.67,245.82v-1.29c1.89,-1.2 2.92,-1.76 2.92,-2.42c0,-0.42 -0.31,-0.67 -0.91,-0.67c-0.63022,0.04481 -1.23582,0.26283 -1.75,0.63l-0.41,-1.36c0.7661,-0.51756 1.66562,-0.80235 2.59,-0.82c1.55,0 2.45,0.79 2.45,1.9c0,1.11 -0.84,1.73 -2.39,2.53h2.65v1.5z" fill="#000000" stroke="none" stroke-width="1"/><path d="M311.85,242.61c-0.59629,-0.0219 -1.06415,-0.51917 -1.04968,-1.11569c0.01447,-0.59652 0.50587,-1.07053 1.10253,-1.0635c0.59665,0.00703 1.07675,0.4925 1.07715,1.08919c0.01232,0.29979 -0.1042,0.59053 -0.32015,0.79884c-0.21595,0.20831 -0.5107,0.31428 -0.80985,0.29116zM311.85,246c-0.30014,0.02011 -0.59468,-0.08826 -0.81023,-0.29808c-0.21555,-0.20982 -0.33179,-0.50135 -0.31977,-0.80192c0,-0.62408 0.50592,-1.13 1.13,-1.13c0.62408,0 1.13,0.50592 1.13,1.13c0.01202,0.30057 -0.10422,0.59209 -0.31977,0.80192c-0.21555,0.20982 -0.51009,0.31819 -0.81023,0.29808z" fill="#000000" stroke="none" stroke-width="1"/><path d="M315.35,241.79l-1.39,0.32v-1.52l3.26,-0.71v5.94h-1.83z" fill="#000000" stroke="none" stroke-width="1"/><path d="M323.71,245.61c0,1.55 -1.41,2.45 -3.08,2.45c-0.81552,0.00977 -1.62033,-0.18627 -2.34,-0.57l0.21,-1.47c0.61023,0.353 1.29588,0.55527 2,0.59c0.83,0 1.36,-0.33 1.36,-1c0,-0.67 -0.45,-0.92 -1.37,-0.95c-0.33441,-0.00701 -0.66883,0.01306 -1,0.06v-1.33c1.06,-0.2 2,-0.44 2,-1.23c0,-0.5 -0.37,-0.79 -1.1,-0.79c-0.61587,0.04183 -1.20483,0.26836 -1.69,0.65l-0.41,-1.34c0.74069,-0.53849 1.63427,-0.82584 2.55,-0.82c1.52,0 2.63,0.78 2.63,2c-0.0408,0.88533 -0.6594,1.63823 -1.52,1.85c0.9876,0.08726 1.74844,0.90862 1.76,1.9z" fill="#000000" stroke="none" stroke-width="1"/><path d="M325.91,246c-0.30181,0.02309 -0.59909,-0.08394 -0.81691,-0.29411c-0.21782,-0.21018 -0.3354,-0.50345 -0.32309,-0.80589c-0.01216,-0.45866 0.25422,-0.87914 0.67412,-1.06409c0.4199,-0.18494 0.90994,-0.09763 1.24012,0.22097c0.33018,0.31859 0.43493,0.80521 0.2651,1.23144c-0.16983,0.42623 -0.58054,0.70746 -1.03934,0.71168z" fill="#000000" stroke="none" stroke-width="1"/><path d="M333,245.61c0,1.55 -1.41,2.45 -3.09,2.45c-0.81234,0.00981 -1.61393,-0.18628 -2.33,-0.57l0.21,-1.47c0.60961,0.35444 1.29562,0.55682 2,0.59c0.83,0 1.35,-0.33 1.35,-1c0,-0.67 -0.44,-0.92 -1.36,-0.95c-0.33441,-0.00701 -0.66883,0.01306 -1,0.06v-1.33c1.06,-0.2 2,-0.44 2,-1.23c0,-0.5 -0.37,-0.79 -1.1,-0.79c-0.61587,0.04183 -1.20483,0.26836 -1.69,0.65l-0.41,-1.34c0.73972,-0.54041 1.63394,-0.82796 2.55,-0.82c1.51,0 2.63,0.78 2.63,2c-0.05948,0.87804 -0.67018,1.62132 -1.52,1.85c0.9876,0.08726 1.74844,0.90862 1.76,1.9z" fill="#000000" stroke="none" stroke-width="1"/><path d="M336.29,243.64v-1.47h3.81v1.47z" fill="#000000" stroke="none" stroke-width="1"/><path d="M343.49,245.18c0.08055,-0.61587 0.54193,-1.11336 1.15,-1.24c-0.68489,-0.29796 -1.12844,-0.9731 -1.13,-1.72c0,-1.21 1,-2.16 2.65,-2.16c0.59071,0.01142 1.17276,0.14417 1.71,0.39l1.57,-0.13l0.08,1.5l-1.08,-0.17c0.11045,0.18756 0.16589,0.40242 0.16,0.62c-0.05009,0.59408 -0.33915,1.14239 -0.80099,1.51941c-0.46184,0.37702 -1.05693,0.55045 -1.64901,0.48059c-0.24834,-0.00791 -0.49571,-0.03465 -0.74,-0.08c-0.16,0.08 -0.33,0.21 -0.33,0.4c0,0.19 0.29,0.35 1,0.35h0.66c1.52,0 2.58,0.39 2.58,1.57c0,1.39 -1.67,2.29 -3.49,2.29c-1.5,0 -2.72,-0.46 -2.72,-1.45c0,-0.55 0.44,-1.07 1.33,-1.17c-0.44,-0.18 -0.95,-0.48 -0.95,-1zM344.75,247c0,0.43 0.55,0.73 1.4,0.73c0.85,0 1.58,-0.27 1.58,-0.75c0,-0.48 -0.47,-0.55 -1.44,-0.55c-0.34,0 -0.9,0 -1.1,0c-0.24348,0.09038 -0.41422,0.31156 -0.44,0.57zM346.15,243.21c0.56,0 0.81,-0.4 0.81,-1c0,-0.6 -0.27,-1 -0.85,-1c-0.58,0 -0.84,0.41 -0.84,1c0,0.59 0.29,1 0.88,1z" fill="#000000" stroke="none" stroke-width="1"/><path d="M352,245.82h-1.84v-5.49l1.84,-0.22v0.81c0.24855,-0.52121 0.77258,-0.85504 1.35,-0.86c0.32067,0.0018 0.63621,0.08069 0.92,0.23l-0.37,1.63c-0.217,-0.11015 -0.45664,-0.16835 -0.7,-0.17c-0.52397,0.02114 -0.9899,0.33953 -1.2,0.82z" fill="#000000" stroke="none" stroke-width="1"/><path d="M355.88,239.45c-0.55228,0 -1,-0.44772 -1,-1c0,-0.55228 0.44772,-1 1,-1c0.69,0 1.09,0.35 1.09,1c0,0.65 -0.4,1 -1.09,1zM354.96,245.82v-5.49l1.85,-0.22v5.71z" fill="#000000" stroke="none" stroke-width="1"/><path d="M360.29,245.82h-1.85v-4l-1,-0.07v-1.17l0.9,-0.27v-0.36c0.05,-1.62 0.78,-2.31 2.18,-2.31c0.51574,-0.00461 1.02782,0.08695 1.51,0.27c0,0 -0.35,1.54 -0.35,1.53c-0.29212,-0.13494 -0.60839,-0.20975 -0.93,-0.22c-0.48,0 -0.65,0.28 -0.65,0.82v0.32h2.38v-0.53c0.05,-1.62 0.79,-2.31 2.18,-2.31c0.51898,-0.00446 1.03431,0.08708 1.52,0.27c0,0 -0.36,1.54 -0.36,1.53c-0.28821,-0.13601 -0.60144,-0.21091 -0.92,-0.22c-0.48,0 -0.65,0.28 -0.65,0.82v0.44h1.55v1.45h-1.44v4.06h-1.84v-4.06h-2.3z" fill="#000000" stroke="none" stroke-width="1"/><path d="M370.14,240.06c1.38,0 2.38,1.13 2.38,2.9c0.0495,0.77339 -0.22147,1.53307 -0.74924,2.10056c-0.52777,0.56749 -1.26582,0.89278 -2.04076,0.89944c-0.38999,-0.00445 -0.7773,-0.06508 -1.15,-0.18v2.5h-1.85v-8l1.85,-0.22v0.7c0.40158,-0.43798 0.96585,-0.69118 1.56,-0.7zM368.58,244.38c0.25575,0.1548 0.55126,0.23128 0.85,0.22c0.79,0 1.25,-0.62 1.25,-1.54c0,-0.92 -0.41,-1.53 -1.17,-1.53c-0.34985,-0.00043 -0.68511,0.14016 -0.93,0.39z" fill="#000000" stroke="none" stroke-width="1"/><path d="M376.58,245.14c-0.36075,0.52071 -0.94686,0.83973 -1.58,0.86c-0.43214,0.02447 -0.85593,-0.12609 -1.17577,-0.41771c-0.31984,-0.29162 -0.50879,-0.69974 -0.52423,-1.13229c0,-1.06 0.79,-1.91 3.3,-2v-0.11c0,-0.59 -0.3,-0.85 -1,-0.85c-0.66654,0.04616 -1.31497,0.23727 -1.9,0.56l-0.38,-1.35c0.78843,-0.42116 1.66622,-0.64747 2.56,-0.66c1.93,0 2.57,0.87 2.55,2.43v1.66c0,0.38 0.08,0.42 0.46,0.45l-0.18,1.32c-1.21,0.16 -1.81,-0.16 -2.06,-0.78zM376.58,243.33c-1.14,0.13 -1.56,0.35 -1.56,0.84c0.0042,0.17578 0.08283,0.34152 0.21633,0.45595c0.1335,0.11443 0.30931,0.16679 0.48367,0.14405c0.32694,0.00814 0.6411,-0.12702 0.86,-0.37z" fill="#000000" stroke="none" stroke-width="1"/><path d="M382,246c-1.38,0 -2.13,-0.57 -2.06,-2l0.09,-2.12l-0.84,-0.15v-1.17l0.84,-0.28v-1.27h1.79v1.33h1.4v1.45h-1.49l-0.06,2c-0.03015,0.2022 0.03658,0.40681 0.18016,0.55235c0.14357,0.14554 0.34725,0.21505 0.54984,0.18765c0.25007,-0.00832 0.49691,-0.05904 0.73,-0.15l0.22,1.44c-0.43721,0.13305 -0.8932,0.19385 -1.35,0.18z" fill="#000000" stroke="none" stroke-width="1"/><path d="M386.9,246c-0.8057,0.0826 -1.60648,-0.19681 -2.1859,-0.76271c-0.57942,-0.5659 -0.87766,-1.35986 -0.8141,-2.16729c-0.04923,-0.8222 0.26093,-1.62528 0.85003,-2.20095c0.5891,-0.57567 1.39912,-0.86723 2.21997,-0.79905c0.69503,-0.00884 1.38166,0.15251 2,0.47l-0.36,1.39c-0.45093,-0.26177 -0.959,-0.40938 -1.48,-0.43c-0.39473,-0.01194 -0.77489,0.14955 -1.04034,0.44193c-0.26545,0.29238 -0.38957,0.68633 -0.33966,1.07807c-0.05046,0.40331 0.07943,0.80835 0.35504,1.10709c0.27561,0.29874 0.6689,0.46078 1.07496,0.44291c0.51962,0.00013 1.02888,-0.14537 1.47,-0.42l0.28,1.4c-0.62722,0.32067 -1.32603,0.47558 -2.03,0.45z" fill="#000000" stroke="none" stroke-width="1"/><path d="M393.62,245.82v-3.3c0,-0.67 -0.3,-0.89 -0.77,-0.89c-0.37324,0.0141 -0.72863,0.16337 -1,0.42v3.77h-1.85v-7.93l1.85,-0.23v3.34c0.45705,-0.57702 1.14435,-0.92432 1.88,-0.95c0.50374,-0.02509 0.99262,0.1748 1.33449,0.54563c0.34186,0.37083 0.50141,0.87432 0.43551,1.37437v3.84z" fill="#000000" stroke="none" stroke-width="1"/><path d="M275.22,123.58h9v14.08h6.78v7.74h-15.78z" fill="none" stroke="#ffffff" stroke-width="2"/><path d="M293.3,123.58h15.7v7.3h-6.72v1.17h5.43v5.19h-5.43v1.23h7.15v6.93h-16.13z" fill="none" stroke="#ffffff" stroke-width="2"/><path d="M310.51,123.58h9.7l3.23,11.58h0.06l3.43,-11.58h8.77l-8.35,21.82h-8.49z" fill="none" stroke="#ffffff" stroke-width="2"/><path d="M337.21,123.58h15.7v7.3h-6.72v1.17h5.42v5.19h-5.42v1.23h7.14v6.93h-16.12z" fill="none" stroke="#ffffff" stroke-width="2"/><path d="M355.56,123.58h9v14.08h6.75v7.74h-15.75z" fill="none" stroke="#ffffff" stroke-width="2"/><path d="M386,132.78l-3.55,0.75v-7.59l12.55,-2.69v22.15h-9z" fill="none" stroke="#ffffff" stroke-width="2"/><path d="M276.25,158.62c2.05582,0.8152 4.23129,1.28813 6.44,1.4c0.81,0 1,-0.19 1,-0.39c0,-0.2 -0.24,-0.32 -0.6,-0.37c-1.95288,-0.14603 -3.86844,-0.61226 -5.67,-1.38c-1.00871,-0.41038 -1.68493,-1.37194 -1.73,-2.46c0,-2.35 3,-4 8,-4c2.36386,-0.00597 4.71796,0.30343 7,0.92v3.85c-1.9237,-0.57982 -3.91259,-0.91578 -5.92,-1c-0.79,0 -1,0.18 -1,0.36c0,0.18 0.29,0.34 0.62,0.41c1.85915,0.16319 3.68662,0.58388 5.43,1.25c1.33,0.65 2,1.48 2,2.53c0,2.26 -3,3.84 -8.17,3.84c-2.47725,-0.00118 -4.94296,-0.33756 -7.33,-1z" fill="none" stroke="#ffffff" stroke-width="2"/><path d="M296.16,151.64h7.4c4.71,0 10,0.81 10,4.17c0,3 -4.22,4.24 -9.06,4.24h-0.27v3.35h-8zM304.43,157.06c1.38,0 2,-0.44 2,-1c0,-0.56 -0.68,-1 -2,-1h-0.22v2z" fill="none" stroke="#ffffff" stroke-width="2"/><path d="M318,151.64h8v11.76h-8z" fill="none" stroke="#ffffff" stroke-width="2"/><path d="M331.12,151.64h8.06v4.9h0.05l3.33,-4.92h8.81l-4.62,5.46l5,6.3h-9.06l-3.46,-5.54h-0.05v5.52h-8.06z" fill="none" stroke="#ffffff" stroke-width="2"/><path d="M355.91,151.64h14.09v3.93h-6v0.63h4.87v2.8h-4.87v0.66h6.41v3.74h-14.5z" fill="none" stroke="#ffffff" stroke-width="2"/><path d="M375.09,163.4v-11.76h8.19c3.00198,-0.13934 5.98979,0.49058 8.68,1.83c1.73,1 2.84,2.34 2.84,4.05c0,1.71 -1,3 -2.79,4c-2.68795,1.34759 -5.67618,1.98448 -8.68,1.85zM383.14,159.57h0.19c1.04202,0.05005 2.07829,-0.18138 3,-0.67c0.51934,-0.27078 0.85756,-0.7952 0.89,-1.38c-0.02849,-0.59623 -0.36583,-1.13444 -0.89,-1.42c-0.92301,-0.48196 -1.96109,-0.69995 -3,-0.63h-0.25z" fill="none" stroke="#ffffff" stroke-width="2"/><path d="M275.22,123.58h9v14.08h6.78v7.74h-15.78z" fill="#000000" stroke="none" stroke-width="1"/><path d="M293.3,123.58h15.7v7.3h-6.72v1.17h5.43v5.19h-5.43v1.23h7.15v6.93h-16.13z" fill="#000000" stroke="none" stroke-width="1"/><path d="M310.51,123.58h9.7l3.23,11.58h0.06l3.43,-11.58h8.77l-8.35,21.82h-8.49z" fill="#000000" stroke="none" stroke-width="1"/><path d="M337.21,123.58h15.7v7.3h-6.72v1.17h5.42v5.19h-5.42v1.23h7.14v6.93h-16.12z" fill="#000000" stroke="none" stroke-width="1"/><path d="M355.56,123.58h9v14.08h6.75v7.74h-15.75z" fill="#000000" stroke="none" stroke-width="1"/><path d="M386,132.78l-3.55,0.75v-7.59l12.55,-2.69v22.15h-9z" fill="#000000" stroke="none" stroke-width="1"/><path d="M276.25,158.62c2.05582,0.8152 4.23129,1.28813 6.44,1.4c0.81,0 1,-0.19 1,-0.39c0,-0.2 -0.24,-0.32 -0.6,-0.37c-1.95288,-0.14603 -3.86844,-0.61226 -5.67,-1.38c-1.00871,-0.41038 -1.68493,-1.37194 -1.73,-2.46c0,-2.35 3,-4 8,-4c2.36386,-0.00597 4.71796,0.30343 7,0.92v3.85c-1.9237,-0.57982 -3.91259,-0.91578 -5.92,-1c-0.79,0 -1,0.18 -1,0.36c0,0.18 0.29,0.34 0.62,0.41c1.85915,0.16319 3.68662,0.58388 5.43,1.25c1.33,0.65 2,1.48 2,2.53c0,2.26 -3,3.84 -8.17,3.84c-2.47725,-0.00118 -4.94296,-0.33756 -7.33,-1z" fill="#000000" stroke="none" stroke-width="1"/><path d="M296.16,151.64h7.4c4.71,0 10,0.81 10,4.17c0,3 -4.22,4.24 -9.06,4.24h-0.27v3.35h-8zM304.43,157.06c1.38,0 2,-0.44 2,-1c0,-0.56 -0.68,-1 -2,-1h-0.22v2z" fill="#000000" stroke="none" stroke-width="1"/><path d="M318,151.64h8v11.76h-8z" fill="#000000" stroke="none" stroke-width="1"/><path d="M331.12,151.64h8.06v4.9h0.05l3.33,-4.92h8.81l-4.62,5.46l5,6.3h-9.06l-3.46,-5.54h-0.05v5.52h-8.06z" fill="#000000" stroke="none" stroke-width="1"/><path d="M355.91,151.64h14.09v3.93h-6v0.63h4.87v2.8h-4.87v0.66h6.41v3.74h-14.5z" fill="#000000" stroke="none" stroke-width="1"/><path d="M375.09,163.4v-11.76h8.19c3.00198,-0.13934 5.98979,0.49058 8.68,1.83c1.73,1 2.84,2.34 2.84,4.05c0,1.71 -1,3 -2.79,4c-2.68795,1.34759 -5.67618,1.98448 -8.68,1.85zM383.14,159.57h0.19c1.04202,0.05005 2.07829,-0.18138 3,-0.67c0.51934,-0.27078 0.85756,-0.7952 0.89,-1.38c-0.02849,-0.59623 -0.36583,-1.13444 -0.89,-1.42c-0.92301,-0.48196 -1.96109,-0.69995 -3,-0.63h-0.25z" fill="#000000" stroke="none" stroke-width="1"/><path d="M15.91,347.5c-3.50701,0 -6.35,0 -6.35,0v-39c0,0 2.84299,0 6.35,0h140.3c3.50701,0 6.35,0 6.35,0v39c0,0 -2.84299,0 -6.35,0z" fill="#000000" stroke="none" stroke-width="1" opacity="0.1"/><path d="M15.91,345.5c-3.50701,0 -6.35,0 -6.35,0v-39c0,0 2.84299,0 6.35,0h140.3c3.50701,0 6.35,0 6.35,0v39c0,0 -2.84299,0 -6.35,0z" fill="#ffffff" stroke="none" stroke-width="1" opacity="0.95"/><path d="M73.78,326h36.78" fill="none" stroke="#000000" stroke-width="8"/><path d="M77.28,337.97l-20.72,-11.97l20.72,-11.97z" fill="#000000" stroke="none" stroke-width="1"/></g></g></svg>