<svg xmlns="http://www.w3.org/2000/svg" viewBox="0 0 153 41"><defs><style>.cls-1{opacity:0.1;}.cls-2{fill:#fff;opacity:0.95;}</style></defs><g id="Explosion"><path class="cls-1" d="M146.65,41H6.35A6.37,6.37,0,0,1,0,34.65V8.35A6.37,6.37,0,0,1,6.35,2h140.3A6.37,6.37,0,0,1,153,8.35v26.3A6.37,6.37,0,0,1,146.65,41Z"/><path class="cls-2" d="M146.65,39H6.35A6.37,6.37,0,0,1,0,32.65V6.35A6.37,6.37,0,0,1,6.35,0h140.3A6.37,6.37,0,0,1,153,6.35v26.3A6.37,6.37,0,0,1,146.65,39Z"/><path d="M64.79,14.72h2.69V26.08h-3l-4.73-7.4V26H57V14.72h3.09L64.79,22Z"/><path d="M70.39,26V14.72h8.23V17H73.2v2.17h4.36v2.28H73.2v2.2h5.42V26Z"/><path d="M86.36,26h-3l-3-11.25h3.06l1.51,8,2-8h3.28l2,8,1.51-8h2.94L93.74,26h-3l-2.18-8Z"/></g></svg>