<svg version="1.1" xmlns="http://www.w3.org/2000/svg" xmlns:xlink="http://www.w3.org/1999/xlink" width="55.5" height="26" viewBox="0,0,55.5,26"><g transform="translate(-212.83333,-169.04549)"><g data-paper-data="{&quot;isPaintingLayer&quot;:true}" fill-rule="nonzero" stroke-linecap="butt" stroke-miterlimit="10" stroke-dasharray="" stroke-dashoffset="0" style="mix-blend-mode: normal"><g><path d="M244.03,180.0455h-7.83l3.91,-9z" fill="none" stroke="#000000" stroke-width="4" stroke-linejoin="round"/><path d="M244.03,180.0455h-7.83l3.91,-9z" fill="#b3b3b3" stroke="none" stroke-width="1" stroke-linejoin="miter"/></g><g><path d="M262.86334,180.0455h-7.83l3.91,-9z" fill="none" stroke="#000000" stroke-width="4" stroke-linejoin="round"/><path d="M262.86334,180.0455h-7.83l3.91,-9z" fill="#b3b3b3" stroke="none" stroke-width="1" stroke-linejoin="miter"/></g><g><path d="M225.36333,180.0455h-7.83l3.91,-9z" fill="none" stroke="#000000" stroke-width="4" stroke-linejoin="round"/><path d="M225.36333,180.0455h-7.83l3.91,-9z" fill="#b3b3b3" stroke="none" stroke-width="1" stroke-linejoin="miter"/></g><g><path d="M262.86334,180.0455h-7.83l3.91,-9z" fill="none" stroke="#000000" stroke-width="4" stroke-linejoin="round"/><path d="M262.86334,180.0455h-7.83l3.91,-9z" fill="#b3b3b3" stroke="none" stroke-width="1" stroke-linejoin="miter"/></g><g><path d="M225.36333,180.0455h-7.83l3.91,-9z" fill="none" stroke="#000000" stroke-width="4" stroke-linejoin="round"/><path d="M225.36333,180.0455h-7.83l3.91,-9z" fill="#b3b3b3" stroke="none" stroke-width="1" stroke-linejoin="miter"/></g><path d="M244.5,194.0455h-8c-2.20914,0 -4,-1.79086 -4,-4v-8c0,-2.20914 1.79086,-4 4,-4h8c2.20914,0 4,1.79086 4,4v8c0,2.20914 -1.79086,4 -4,4z" fill="#b4004c" stroke="#000000" stroke-width="2" stroke-linejoin="miter"/><path d="M263.33333,194.0455h-8c-2.20914,0 -4,-1.79086 -4,-4v-8c0,-2.20914 1.79086,-4 4,-4h8c2.20914,0 4,1.79086 4,4v8c0,2.20914 -1.79086,4 -4,4z" fill="#b4004c" stroke="#000000" stroke-width="2" stroke-linejoin="miter"/><path d="M225.83333,194.0455h-8c-2.20914,0 -4,-1.79086 -4,-4v-8c0,-2.20914 1.79086,-4 4,-4h8c2.20914,0 4,1.79086 4,4v8c0,2.20914 -1.79086,4 -4,4z" fill="#b4004c" stroke="#000000" stroke-width="2" stroke-linejoin="miter"/><g><path d="M240.5,188.0455v-5h5v5z" fill="#ffffff" stroke="#ffffff" stroke-width="2" stroke-linejoin="round"/><path d="M242.5,187.0455v-3h3v3z" fill="#000000" stroke="none" stroke-width="1" stroke-linejoin="miter"/></g><g><path d="M259.33333,188.0455v-5h5v5z" fill="#ffffff" stroke="#ffffff" stroke-width="2" stroke-linejoin="round"/><path d="M261.33333,187.0455v-3h3v3z" fill="#000000" stroke="none" stroke-width="1" stroke-linejoin="miter"/></g><g><path d="M221.83333,188.0455v-5h5v5z" fill="#ffffff" stroke="#ffffff" stroke-width="2" stroke-linejoin="round"/><path d="M223.83333,187.0455v-3h3v3z" fill="#000000" stroke="none" stroke-width="1" stroke-linejoin="miter"/></g><g><path d="M259.33333,188.0455v-5h5v5z" fill="#ffffff" stroke="#ffffff" stroke-width="2" stroke-linejoin="round"/><path d="M261.33333,187.0455v-3h3v3z" fill="#000000" stroke="none" stroke-width="1" stroke-linejoin="miter"/></g><g><path d="M221.83333,188.0455v-5h5v5z" fill="#ffffff" stroke="#ffffff" stroke-width="2" stroke-linejoin="round"/><path d="M223.83333,187.0455v-3h3v3z" fill="#000000" stroke="none" stroke-width="1" stroke-linejoin="miter"/></g></g></g></svg>