<svg xmlns="http://www.w3.org/2000/svg" viewBox="0 0 153 41"><defs><style>.cls-1{opacity:0.1;}.cls-2{fill:#fff;opacity:0.95;}</style></defs><g id="Explosion"><path class="cls-1" d="M146.65,41H6.35A6.37,6.37,0,0,1,0,34.65V8.35A6.37,6.37,0,0,1,6.35,2h140.3A6.37,6.37,0,0,1,153,8.35v26.3A6.37,6.37,0,0,1,146.65,41Z"/><path class="cls-2" d="M146.65,39H6.35A6.37,6.37,0,0,1,0,32.65V6.35A6.37,6.37,0,0,1,6.35,0h140.3A6.37,6.37,0,0,1,153,6.35v26.3A6.37,6.37,0,0,1,146.65,39Z"/><path d="M39.91,17a5.58,5.58,0,0,0-2.85-.81,3.1,3.1,0,0,0-3.2,3.43c0,2.15,1.19,3.5,3.22,3.5a5.38,5.38,0,0,0,3-.92l.6,2.54a8.55,8.55,0,0,1-3.69.81c-3.6,0-6-2.07-6-5.85s2.36-5.95,6.07-5.95a8.71,8.71,0,0,1,3.72.85Z"/><path d="M48.12,25.51a5.5,5.5,0,0,1-5.87-5.87,5.68,5.68,0,0,1,5.9-5.93c3.35,0,5.89,2.06,5.89,5.86A5.71,5.71,0,0,1,48.12,25.51Zm0-9.49c-1.91,0-3,1.44-3,3.55s1.11,3.63,3,3.63,3-1.45,3-3.56S50,16,48.12,16Z"/><path d="M64.26,14H67V25.35H63.9L59.17,18v7.29H56.48V14h3.1l4.68,7.31Z"/><path d="M75.53,16.38v8.86H72.67V16.38H69.08V14h10v2.4Z"/><path d="M81.29,25.24V14h2.86V25.24Z"/><path d="M94.88,14h2.68V25.35h-3L89.78,18v7.29H87.1V14h3.1l4.68,7.31Z"/><path d="M105.36,25.51c-2.94,0-5-1.44-5-4.61V14h2.85v6.54c0,1.69.68,2.58,2.18,2.58,1.35,0,2-.72,2-2.47V14h2.84v6.67C110.32,23.91,108.38,25.51,105.36,25.51Z"/><path d="M113.15,25.24V14h8.23v2.31H116v2.16h4.35v2.29H116v2.19h5.42v2.31Z"/></g></svg>