<svg version="1.1" xmlns="http://www.w3.org/2000/svg" xmlns:xlink="http://www.w3.org/1999/xlink" width="20" height="26" viewBox="0,0,20,26"><g transform="translate(-229.5,-166)"><g data-paper-data="{&quot;isPaintingLayer&quot;:true}" fill-rule="nonzero" stroke="none" stroke-linecap="butt" stroke-linejoin="miter" stroke-miterlimit="10" stroke-dasharray="" stroke-dashoffset="0" style="mix-blend-mode: normal"><path d="M246.42971,187.74001h-1.59v4.03h-5.85v-4.06h-5.93l-0.41,-3.67l5.4,-8.43h6.79v8h1.49zM239.10971,181.21001l-1.49,2.52h1.49z" fill-opacity="0.2" fill="#000000" stroke-width="1"/><g stroke-width="1"><path d="M238.98971,188.80001v-4.06h-5.93l-0.41,-3.67l5.4,-8.43h6.79v8h1.49l0.1,4.13h-1.59v4.06zM239.10971,178.21001l-1.49,2.52h1.49z" fill="#ffff00"/><path d="M245.3397,189.30001h-6.85v-4.06h-5.88l-0.48,-4.29l5.65,-8.81h7.56v8h1.48l0.12,5.13h-1.6zM239.48971,188.30001h4.85v-4.06h1.58l-0.08,-3.13h-1.5v-8h-6l-5.15,8l0.34,3.05h6zM239.60971,181.23001h-2.9l2.87,-4.85zM238.48971,180.23001h0.12v-0.19z" fill="#000000"/></g><path d="M229.5,192v-26h20v26z" fill="none" stroke-width="0"/></g></g></svg>