<svg version="1.1" xmlns="http://www.w3.org/2000/svg" xmlns:xlink="http://www.w3.org/1999/xlink" width="135" height="30" viewBox="0,0,135,30"><g transform="translate(-172.5,-165)"><g data-paper-data="{&quot;isPaintingLayer&quot;:true}" fill-rule="nonzero" stroke="none" stroke-linecap="butt" stroke-linejoin="miter" stroke-miterlimit="10" stroke-dasharray="" stroke-dashoffset="0" style="mix-blend-mode: normal"><path d="M243.07,170.515h23.15v7.25h-3.91v9.75h-8.1v-9.75h-3v9.75h-8.09v-4.75c-1.24,3.06 -4.13,4.75 -8.34,4.75h-21v-17.03h21.29c4,0 6.79,1.58 8,4.58z" fill="#000000" stroke-width="1"/><path d="M243.07,172.515h23.15v7.25h-3.91v9.75h-8.1v-9.75h-3v9.75h-8.09v-4.75c-1.24,3.06 -4.13,4.75 -8.34,4.75h-21v-17.03h21.29c4,0 6.79,1.58 8,4.58z" fill="#000000" stroke-width="1" opacity="0.2"/><path d="M214.78,186.515v-15h11.84v4.37h-5.84v1.2h4.7v3.87h-4.7v1.2h5.83v4.36z" fill="#ffff00" stroke-width="1"/><path d="M227.99,186.515v-15h7c5.31,0 7.79,2.9 7.79,7.36c0,4.46 -2.6,7.64 -8,7.64zM234.66,181.235c1.13,0 1.8,-0.67 1.8,-2.21c0,-1.54 -0.57,-2.23 -1.92,-2.23h-0.46v4.44z" fill="#ffff00" stroke-width="1"/><path d="M244.07,186.515v-15h6.09v15z" fill="#ffff00" stroke-width="1"/><path d="M255.2,186.515v-9.75h-3.91v-5.25h13.92v5.28h-3.91v9.72z" fill="#ffff00" stroke-width="1"/><path d="M172.5,195v-30h135v30z" fill="none" stroke-width="0"/></g></g></svg>