<svg id="Layer_1" data-name="Layer 1" xmlns="http://www.w3.org/2000/svg" viewBox="0 0 480 360"><defs><style>.cls-1{fill:none;stroke:#fff;stroke-width:4px;}</style></defs><path class="cls-1" d="M102.77,127.93h19.44v30.46h14.61v16.77h-34Z"/><path class="cls-1" d="M141.9,127.93h34v15.78H161.34v2.55h11.74v11.22H161.34v2.67H176.8v15H141.9Z"/><path class="cls-1" d="M179.15,127.93h21l7,25h.13l7.44-25h19l-18.07,47.23H197.22Z"/><path class="cls-1" d="M236.94,127.93h34v15.78H256.38v2.55h11.74v11.22H256.38v2.67h15.46v15h-34.9Z"/><path class="cls-1" d="M276.67,127.93h19.44v30.46h14.61v16.77H276.67Z"/><path class="cls-1" d="M345.61,156.24c3.66-5.28,5.16-7.63,5.16-9.72,0-2.61-2.16-3.65-5-3.65-3.26,0-7.37,1.37-10.17,2.61V130.86a38.56,38.56,0,0,1,16.17-3.65c13.7,0,18.86,7.76,18.86,14.94,0,7.43-5.61,13-11.22,17.87l.06.13h10.5v15H332.76l-.06-.13Z"/><path class="cls-1" d="M102.73,188.65h13.46l3,11.82h.08l2.58-11.82h8.51L133,200.47H133l3.09-11.82h12.19l-9,25.47H128.17l-2.63-9.92h-.08l-2.58,9.92H111.7Z"/><path class="cls-1" d="M155.39,188.65h12.06l11.68,25.47H165.5l-1.06-3.35h-7l-1.19,3.35H143.7Zm7,15.72-1.35-5.17H161l-1.35,5.17Z"/><path class="cls-1" d="M181.25,188.65h12.61v16.43h9.48v9H181.25Z"/><path class="cls-1" d="M206.65,188.65h12.61v16.43h9.48v9H206.65Z"/><path class="cls-1" d="M244.15,205a15.07,15.07,0,0,0,4.7.92c2.45,0,3.17-1.27,3.17-2.54V188.65h12.62v15.13c0,3.58-1.23,6.4-3.47,8.12-2.46,1.9-5.93,2.6-9.82,2.6a19.11,19.11,0,0,1-7.2-1.19Z"/><path class="cls-1" d="M268.28,202.54V188.65h12.61v13.19c0,2.39.93,4.08,3.85,4.08s3.77-1.48,3.77-4V188.65h11.34V202.4c0,3.91-1.18,6.37-2.79,8-2.79,2.81-7.87,4.11-13.08,4.11-5.38,0-10.12-1.4-12.83-4C269.63,209,268.28,206.69,268.28,202.54Z"/><path class="cls-1" d="M303.54,188.65H315.3l6.1,6.4,5.88-6.4h11.43v25.47H326.1V201.7H326l-5.46,6-5.59-6h-.08v12.42H303.54Z"/><path class="cls-1" d="M342.44,188.65H354c7.37,0,15.62,1.76,15.62,9,0,6.54-6.6,9.18-14.18,9.18h-.42v7.25H342.44Zm12.95,11.75c2.16,0,3.17-1,3.17-2.15s-1.05-2.14-3.17-2.14h-.34v4.29Z"/><path d="M102.77,127.93h19.44v30.46h14.61v16.77h-34Z"/><path d="M141.9,127.93h34v15.78H161.34v2.55h11.74v11.22H161.34v2.67H176.8v15H141.9Z"/><path d="M179.15,127.93h21l7,25h.13l7.44-25h19l-18.07,47.23H197.22Z"/><path d="M236.94,127.93h34v15.78H256.38v2.55h11.74v11.22H256.38v2.67h15.46v15h-34.9Z"/><path d="M276.67,127.93h19.44v30.46h14.61v16.77H276.67Z"/><path d="M345.61,156.24c3.66-5.28,5.16-7.63,5.16-9.72,0-2.61-2.16-3.65-5-3.65-3.26,0-7.37,1.37-10.17,2.61V130.86a38.56,38.56,0,0,1,16.17-3.65c13.7,0,18.86,7.76,18.86,14.94,0,7.43-5.61,13-11.22,17.87l.06.13h10.5v15H332.76l-.06-.13Z"/><path d="M102.73,188.65h13.46l3,11.82h.08l2.58-11.82h8.51L133,200.47H133l3.09-11.82h12.19l-9,25.47H128.17l-2.63-9.92h-.08l-2.58,9.92H111.7Z"/><path d="M155.39,188.65h12.06l11.68,25.47H165.5l-1.06-3.35h-7l-1.19,3.35H143.7Zm7,15.72-1.35-5.17H161l-1.35,5.17Z"/><path d="M181.25,188.65h12.61v16.43h9.48v9H181.25Z"/><path d="M206.65,188.65h12.61v16.43h9.48v9H206.65Z"/><path d="M244.15,205a15.07,15.07,0,0,0,4.7.92c2.45,0,3.17-1.27,3.17-2.54V188.65h12.62v15.13c0,3.58-1.23,6.4-3.47,8.12-2.46,1.9-5.93,2.6-9.82,2.6a19.11,19.11,0,0,1-7.2-1.19Z"/><path d="M268.28,202.54V188.65h12.61v13.19c0,2.39.93,4.08,3.85,4.08s3.77-1.48,3.77-4V188.65h11.34V202.4c0,3.91-1.18,6.37-2.79,8-2.79,2.81-7.87,4.11-13.08,4.11-5.38,0-10.12-1.4-12.83-4C269.63,209,268.28,206.69,268.28,202.54Z"/><path d="M303.54,188.65H315.3l6.1,6.4,5.88-6.4h11.43v25.47H326.1V201.7H326l-5.46,6-5.59-6h-.08v12.42H303.54Z"/><path d="M342.44,188.65H354c7.37,0,15.62,1.76,15.62,9,0,6.54-6.6,9.18-14.18,9.18h-.42v7.25H342.44Zm12.95,11.75c2.16,0,3.17-1,3.17-2.15s-1.05-2.14-3.17-2.14h-.34v4.29Z"/></svg>