<svg version="1.1" xmlns="http://www.w3.org/2000/svg" xmlns:xlink="http://www.w3.org/1999/xlink" width="93" height="41" viewBox="0,0,93,41"><g transform="translate(-193.5,-159.5)"><g data-paper-data="{&quot;isPaintingLayer&quot;:true}" fill-rule="nonzero" stroke="none" stroke-width="1" stroke-linecap="butt" stroke-linejoin="miter" stroke-miterlimit="10" stroke-dasharray="" stroke-dashoffset="0" style="mix-blend-mode: normal"><path d="M280.15,200.5h-80.3c-3.50245,-0.01098 -6.33902,-2.84755 -6.35,-6.35v-26.3c0.01098,-3.50245 2.84755,-6.33902 6.35,-6.35h80.3c3.50245,0.01098 6.33902,2.84755 6.35,6.35v26.3c-0.01098,3.50245 -2.84755,6.33902 -6.35,6.35z" fill="#000000" opacity="0.1"/><path d="M280.15,198.5h-80.3c-3.50245,-0.01098 -6.33902,-2.84755 -6.35,-6.35v-26.3c0.01098,-3.50245 2.84755,-6.33902 6.35,-6.35h80.3c3.50245,0.01098 6.33902,2.84755 6.35,6.35v26.3c-0.01098,3.50245 -2.84755,6.33902 -6.35,6.35z" fill="#ffff87" opacity="0.95"/><g fill="#000000"><path d="M225.29,175.06l-2.47,8.5h-3.06l-2.47,-8.48l-0.07,8.66h-2.66l0.39,-11.24h4.05l2.35,8.44l2.34,-8.44h4l0.38,11.25h-2.73z"/><path d="M230.72,183.74v-11.24h8.23v2.3h-5.45v2.16h4.36v2.29h-4.36v2.19h5.42v2.31z"/><path d="M249.25,172.5h2.68v11.35h-3l-4.78,-7.35v7.29h-2.65v-11.29h3.09l4.69,7.3z"/><path d="M259.72,184.01c-2.93,0 -4.95,-1.44 -4.95,-4.61v-6.9h2.84v6.53c0,1.69 0.69,2.58 2.18,2.58c1.49,0 2.06,-0.72 2.06,-2.47v-6.64h2.84v6.66c0,3.25 -1.94,4.85 -4.97,4.85z"/></g></g></g></svg>