<svg version="1.1" xmlns="http://www.w3.org/2000/svg" xmlns:xlink="http://www.w3.org/1999/xlink" width="276.06879" height="90.57" viewBox="0,0,276.06879,90.57"><g transform="translate(-102.58997,-134.715)"><g data-paper-data="{&quot;isPaintingLayer&quot;:true}" fill-rule="nonzero" stroke-linecap="butt" stroke-linejoin="miter" stroke-miterlimit="10" stroke-dasharray="" stroke-dashoffset="0" style="mix-blend-mode: normal"><path d="M350.00112,152.495h-13.85v-15.78h39.4l0.06,0.13l-17.61,47.1h-20.52z" fill="none" stroke="#ffffff" stroke-width="4"/><path d="M105.34112,197.435h12.38l2.8,11.82h0.08l2.38,-11.82h7.82l2.35,11.82h0.07l2.85,-11.82h11.21l-8.3,25.47h-10.24l-2.42,-9.92h-0.07l-2.38,9.92h-10.27z" fill="none" stroke="#ffffff" stroke-width="4"/><path d="M162.56112,197.055c8.84,0 15.73,5.73 15.73,13.11c0,7.38 -6.89,13.12 -15.73,13.12c-8.84,0 -15.72,-5.73 -15.72,-13.12c0,-7.39 6.89,-13.11 15.72,-13.11zM162.56112,214.285c2.15918,-0.19525 3.76978,-2.07506 3.63163,-4.23864c-0.13815,-2.16358 -1.97477,-3.82327 -4.14124,-3.74232c-2.16648,0.08096 -3.8741,1.8731 -3.85039,4.04096c0.11851,2.29078 2.06896,4.05334 4.36,3.94z" fill="none" stroke="#ffffff" stroke-width="4"/><path d="M181.09112,197.435h11.56c5.8,0 13.71,1.3 13.71,8.09c-0.0324,2.48892 -1.38406,4.77342 -3.55,6l6.43,11.33h-12.19l-4.2,-8.37h-0.16v8.37h-11.6zM193.55112,208.695c1.83,0 2.65,-0.88 2.65,-2c0,-1.12 -0.86,-1.94 -2.65,-1.94h-0.86v3.91z" fill="none" stroke="#ffffff" stroke-width="4"/><path d="M210.45112,197.435h10.82l5.6,6.4l5.41,-6.4h10.51v25.47h-11.64v-12.42v0l-5,6l-5.13,-6h-0.08v12.42h-10.49z" fill="none" stroke="#ffffff" stroke-width="4"/><path d="M257.90112,197.435h20.86v8.51h-9.26v1.45h7.39v6.39h-7.39v9.11h-11.6z" fill="none" stroke="#ffffff" stroke-width="4"/><path d="M296.15112,197.055c8.84,0 15.73,5.73 15.73,13.11c0,7.38 -6.92,13.12 -15.73,13.12c-8.81,0 -15.72,-5.73 -15.72,-13.12c0,-7.39 6.86,-13.11 15.72,-13.11zM296.15112,214.285c2.15918,-0.19525 3.76978,-2.07506 3.63163,-4.23864c-0.13815,-2.16358 -1.97477,-3.82327 -4.14124,-3.74232c-2.16648,0.08096 -3.8741,1.8731 -3.85039,4.04096c0.11851,2.29078 2.06896,4.05334 4.36,3.94z" fill="none" stroke="#ffffff" stroke-width="4"/><path d="M329.76112,197.055c8.83,0 15.72,5.73 15.72,13.11c0,7.38 -6.89,13.12 -15.72,13.12c-8.83,0 -15.73,-5.73 -15.73,-13.12c0,-7.39 6.89,-13.11 15.73,-13.11zM329.76112,214.285c2.15918,-0.19525 3.76978,-2.07506 3.63163,-4.23864c-0.13815,-2.16358 -1.97477,-3.82327 -4.14124,-3.74232c-2.16648,0.08096 -3.8741,1.8731 -3.85039,4.04096c0.05431,1.10115 0.54454,2.13544 1.36252,2.87462c0.81798,0.73918 1.89647,1.12251 2.99748,1.06538z" fill="none" stroke="#ffffff" stroke-width="4"/><path d="M348.29112,222.905v-25.47h11.79c5.45,0 9.65,1.51 12.49,4c2.57741,2.16565 4.07224,5.35504 4.08764,8.72148c0.01541,3.36643 -1.45016,6.56937 -4.00764,8.75852c-2.92,2.53 -7.16,4 -12.49,4zM359.89112,214.605h0.26c1.58459,0.08679 3.143,-0.43149 4.36,-1.45c0.83351,-0.77273 1.29893,-1.86356 1.28,-3c0.01722,-1.15358 -0.44654,-2.26226 -1.28,-3.06c-1.19532,-0.99387 -2.72973,-1.48503 -4.28,-1.37h-0.35z" fill="none" stroke="#ffffff" stroke-width="4"/><path d="M350.00112,152.495h-13.85v-15.78h39.4l0.06,0.13l-17.61,47.1h-20.52z" fill="#000000" stroke="none" stroke-width="1"/><path d="M105.34112,197.435h12.38l2.8,11.82h0.08l2.38,-11.82h7.82l2.35,11.82h0.07l2.85,-11.82h11.21l-8.3,25.47h-10.24l-2.42,-9.92h-0.07l-2.38,9.92h-10.27z" fill="#000000" stroke="none" stroke-width="1"/><path d="M162.56112,197.055c8.84,0 15.73,5.73 15.73,13.11c0,7.38 -6.89,13.12 -15.73,13.12c-8.84,0 -15.72,-5.73 -15.72,-13.12c0,-7.39 6.89,-13.11 15.72,-13.11zM162.56112,214.285c2.15918,-0.19525 3.76978,-2.07506 3.63163,-4.23864c-0.13815,-2.16358 -1.97477,-3.82327 -4.14124,-3.74232c-2.16648,0.08096 -3.8741,1.8731 -3.85039,4.04096c0.11851,2.29078 2.06896,4.05334 4.36,3.94z" fill="#000000" stroke="none" stroke-width="1"/><path d="M181.09112,197.435h11.56c5.8,0 13.71,1.3 13.71,8.09c-0.0324,2.48892 -1.38406,4.77342 -3.55,6l6.43,11.33h-12.19l-4.2,-8.37h-0.16v8.37h-11.6zM193.55112,208.695c1.83,0 2.65,-0.88 2.65,-2c0,-1.12 -0.86,-1.94 -2.65,-1.94h-0.86v3.91z" fill="#000000" stroke="none" stroke-width="1"/><path d="M210.45112,197.435h10.82l5.6,6.4l5.41,-6.4h10.51v25.47h-11.64v-12.42v0l-5,6l-5.13,-6h-0.08v12.42h-10.49z" fill="#000000" stroke="none" stroke-width="1"/><path d="M257.90112,197.435h20.86v8.51h-9.26v1.45h7.39v6.39h-7.39v9.11h-11.6z" fill="#000000" stroke="none" stroke-width="1"/><path d="M296.15112,197.055c8.84,0 15.73,5.73 15.73,13.11c0,7.38 -6.92,13.12 -15.73,13.12c-8.81,0 -15.72,-5.73 -15.72,-13.12c0,-7.39 6.86,-13.11 15.72,-13.11zM296.15112,214.285c2.15918,-0.19525 3.76978,-2.07506 3.63163,-4.23864c-0.13815,-2.16358 -1.97477,-3.82327 -4.14124,-3.74232c-2.16648,0.08096 -3.8741,1.8731 -3.85039,4.04096c0.11851,2.29078 2.06896,4.05334 4.36,3.94z" fill="#000000" stroke="none" stroke-width="1"/><path d="M329.76112,197.055c8.83,0 15.72,5.73 15.72,13.11c0,7.38 -6.89,13.12 -15.72,13.12c-8.83,0 -15.73,-5.73 -15.73,-13.12c0,-7.39 6.89,-13.11 15.73,-13.11zM329.76112,214.285c2.15918,-0.19525 3.76978,-2.07506 3.63163,-4.23864c-0.13815,-2.16358 -1.97477,-3.82327 -4.14124,-3.74232c-2.16648,0.08096 -3.8741,1.8731 -3.85039,4.04096c0.05431,1.10115 0.54454,2.13544 1.36252,2.87462c0.81798,0.73918 1.89647,1.12251 2.99748,1.06538z" fill="#000000" stroke="none" stroke-width="1"/><path d="M348.29112,222.905v-25.47h11.79c5.45,0 9.65,1.51 12.49,4c2.57741,2.16565 4.07224,5.35504 4.08764,8.72148c0.01541,3.36643 -1.45016,6.56937 -4.00764,8.75852c-2.92,2.53 -7.16,4 -12.49,4zM359.89112,214.605h0.26c1.58459,0.08679 3.143,-0.43149 4.36,-1.45c0.83351,-0.77273 1.29893,-1.86356 1.28,-3c0.01722,-1.15358 -0.44654,-2.26226 -1.28,-3.06c-1.19532,-0.99387 -2.72973,-1.48503 -4.28,-1.37h-0.35z" fill="#000000" stroke="none" stroke-width="1"/><path d="M110.39,137.09956h19.44v30.46h14.61v16.77h-34z" fill="none" stroke="#ffffff" stroke-width="4"/><path d="M149.52,137.09956h34v15.78h-14.56v2.55h11.74v11.22h-11.74v2.67h15.46v15h-34.9z" fill="none" stroke="#ffffff" stroke-width="4"/><path d="M186.77,137.09956h21l7,25h0.13l7.44,-25h19l-18.07,47.23h-18.43z" fill="none" stroke="#ffffff" stroke-width="4"/><path d="M244.56,137.09956h34v15.78h-14.56v2.55h11.74v11.22h-11.74v2.67h15.46v15h-34.9z" fill="none" stroke="#ffffff" stroke-width="4"/><path d="M284.29,137.09956h19.44v30.46h14.61v16.77h-34.05z" fill="none" stroke="#ffffff" stroke-width="4"/><path d="M110.39,137.09956h19.44v30.46h14.61v16.77h-34z" fill="#000000" stroke="none" stroke-width="1"/><path d="M149.52,137.09956h34v15.78h-14.56v2.55h11.74v11.22h-11.74v2.67h15.46v15h-34.9z" fill="#000000" stroke="none" stroke-width="1"/><path d="M186.77,137.09956h21l7,25h0.13l7.44,-25h19l-18.07,47.23h-18.43z" fill="#000000" stroke="none" stroke-width="1"/><path d="M244.56,137.09956h34v15.78h-14.56v2.55h11.74v11.22h-11.74v2.67h15.46v15h-34.9z" fill="#000000" stroke="none" stroke-width="1"/><path d="M284.29,137.09956h19.44v30.46h14.61v16.77h-34.05z" fill="#000000" stroke="none" stroke-width="1"/></g></g></svg>