<svg version="1.1" xmlns="http://www.w3.org/2000/svg" xmlns:xlink="http://www.w3.org/1999/xlink" width="153" height="41" viewBox="0,0,153,41"><g transform="translate(-163.5,-159.5)"><g data-paper-data="{&quot;isPaintingLayer&quot;:true}" fill-rule="nonzero" stroke="none" stroke-width="1" stroke-linecap="butt" stroke-linejoin="miter" stroke-miterlimit="10" stroke-dasharray="" stroke-dashoffset="0" style="mix-blend-mode: normal"><path d="M310.15,200.5h-140.3c-3.50245,-0.01098 -6.33902,-2.84755 -6.35,-6.35v-26.3c0.01098,-3.50245 2.84755,-6.33902 6.35,-6.35h140.3c3.50245,0.01098 6.33902,2.84755 6.35,6.35v26.3c-0.01098,3.50245 -2.84755,6.33902 -6.35,6.35z" fill="#000000" opacity="0.1"/><path d="M310.15,198.5h-140.3c-3.50245,-0.01098 -6.33902,-2.84755 -6.35,-6.35v-26.3c0.01098,-3.50245 2.84755,-6.33902 6.35,-6.35h140.3c3.50245,0.01098 6.33902,2.84755 6.35,6.35v26.3c-0.01098,3.50245 -2.84755,6.33902 -6.35,6.35z" fill="#ffff87" opacity="0.95"/><path d="M223.5,182.2h-1.1v3.3h-2.83v-11.28h4.16c3.15,0 4.81,1.58 4.81,3.91c-0.04,2.63 -1.79,4.07 -5.04,4.07zM223.5,176.5h-1.14v3.5h1.15c1.48,0 2.18,-0.65 2.18,-1.78c0,-1.13 -0.74,-1.72 -2.19,-1.72z" fill="#000000"/><path d="M230.84,185.5v-11.28h2.86v8.86h4.72v2.42z" fill="#000000"/><path d="M251.15,185.5h-2.85l-0.8,-2.42h-4.21l-0.79,2.42h-2.86l4,-11.25h3.58zM245.4,176.5l-1.49,4.41h2.93z" fill="#000000"/><path d="M257.5,181.21v4.29h-2.79v-4.31l-3.93,-7h3l2.32,4.45l2.25,-4.45h3z" fill="#000000"/></g></g></svg>