<svg version="1.1" xmlns="http://www.w3.org/2000/svg" xmlns:xlink="http://www.w3.org/1999/xlink" width="19" height="21" viewBox="0,0,19,21"><g transform="translate(-231.5,-169)"><g data-paper-data="{&quot;isPaintingLayer&quot;:true}" fill-rule="nonzero" stroke="none" stroke-linecap="butt" stroke-linejoin="miter" stroke-miterlimit="10" stroke-dasharray="" stroke-dashoffset="0" style="mix-blend-mode: normal"><path d="M241.80001,185.3v-3.06c-0.39376,0.4538 -0.95945,0.72214 -1.56,0.74c-1.38,0 -2.38,-1.12 -2.38,-2.89c-0.04656,-0.77266 0.2254,-1.53066 0.75255,-2.09748c0.52714,-0.56682 1.26345,-0.89298 2.03745,-0.90252c0.46163,0.0081 0.91838,0.09607 1.35,0.26l1.65,-0.22v8.17zM240.95001,178.44c-0.78,0 -1.25,0.63 -1.25,1.56c0,0.93 0.48,1.52 1.17,1.52c0.35279,0.00505 0.69103,-0.14043 0.93,-0.4v-2.44c-0.25091,-0.16769 -0.54844,-0.2517 -0.85,-0.24z" fill="#000000" stroke-width="1"/><path d="M231.5,190v-21h19v21z" fill="none" stroke-width="0"/></g></g></svg>