<svg version="1.1" xmlns="http://www.w3.org/2000/svg" xmlns:xlink="http://www.w3.org/1999/xlink" width="19" height="21" viewBox="0,0,19,21"><g transform="translate(-231.5,-169)"><g data-paper-data="{&quot;isPaintingLayer&quot;:true}" fill-rule="nonzero" stroke="none" stroke-linecap="butt" stroke-linejoin="miter" stroke-miterlimit="10" stroke-dasharray="" stroke-dashoffset="0" style="mix-blend-mode: normal"><path d="M239.32599,185.09l-0.42002,-1.48c1.52142,-0.28 2.75349,-1 3.04284,-2.21c-0.44278,0.47275 -1.04577,0.7326 -1.67076,0.72c-0.57978,0.03577 -1.14601,-0.19681 -1.55486,-0.63867c-0.40886,-0.44186 -0.62102,-1.0505 -0.58259,-1.67133c-0.02604,-0.79333 0.26458,-1.56097 0.79908,-2.11072c0.5345,-0.54974 1.26227,-0.82952 2.00108,-0.76928c1.80144,0 2.80016,1.46 2.80016,3.45c-0.028,2.27 -1.66143,4.31 -4.41492,4.71zM240.84741,178.29c-0.61603,0 -1.00806,0.48 -1.00806,1.26c-0.03281,0.30391 0.05973,0.60804 0.25341,0.83284c0.19369,0.2248 0.46926,0.34792 0.75464,0.33716c0.37174,-0.00541 0.73063,-0.14651 1.01739,-0.4c0.03806,-0.18723 0.05684,-0.37838 0.056,-0.57c0,-0.75 -0.37335,-1.46 -1.07339,-1.46z" fill="#000000" stroke-width="1"/><path d="M231.5,190v-21h19v21z" fill="none" stroke-width="0"/></g></g></svg>