<svg version="1.1" xmlns="http://www.w3.org/2000/svg" xmlns:xlink="http://www.w3.org/1999/xlink" width="153" height="41" viewBox="0,0,153,41"><g transform="translate(-163.5,-159.5)"><g data-paper-data="{&quot;isPaintingLayer&quot;:true}" fill-rule="nonzero" stroke="none" stroke-width="1" stroke-linecap="butt" stroke-linejoin="miter" stroke-miterlimit="10" stroke-dasharray="" stroke-dashoffset="0" style="mix-blend-mode: normal"><path d="M310.15,200.5h-140.3c-3.50245,-0.01098 -6.33902,-2.84755 -6.35,-6.35v-26.3c0.01098,-3.50245 2.84755,-6.33902 6.35,-6.35h140.3c3.50245,0.01098 6.33902,2.84755 6.35,6.35v26.3c-0.01098,3.50245 -2.84755,6.33902 -6.35,6.35z" fill="#000000" opacity="0.1"/><path d="M310.15,198.5h-140.3c-3.50245,-0.01098 -6.33902,-2.84755 -6.35,-6.35v-26.3c0.01098,-3.50245 2.84755,-6.33902 6.35,-6.35h140.3c3.50245,0.01098 6.33902,2.84755 6.35,6.35v26.3c-0.01098,3.50245 -2.84755,6.33902 -6.35,6.35z" fill="#ffff87" opacity="0.95"/><path d="M221.9,177.19c-0.86161,-0.51738 -1.84507,-0.79689 -2.85,-0.81c-0.90185,-0.03463 -1.77402,0.32548 -2.38873,0.98629c-0.61471,0.66081 -0.91092,1.5567 -0.81127,2.45371c0,2.14 1.18,3.49 3.22,3.49c1.06902,-0.00296 2.11311,-0.32314 3,-0.92l0.59,2.54c-1.15231,0.54735 -2.41438,0.82439 -3.69,0.81c-3.6,0 -6,-2.07 -6,-5.85c0,-3.78 2.36,-5.94 6.07,-5.94c1.29134,0.00003 2.56614,0.29054 3.73,0.85z" fill="#000000"/><path d="M225.04,185.5v-11.28h2.87v8.86h4.71v2.42z" fill="#000000"/><path d="M239.64,185.74c-1.58825,0.11098 -3.14666,-0.47173 -4.27247,-1.59753c-1.1258,-1.1258 -1.70851,-2.68421 -1.59753,-4.27247c-0.06546,-1.58749 0.5358,-3.13005 1.65833,-4.25448c1.12253,-1.12443 2.66407,-1.7283 4.25167,-1.66552c3.35,0 5.89,2.05 5.89,5.85c0.06239,1.59194 -0.54197,3.13778 -1.66755,4.26526c-1.12559,1.12749 -2.6704,1.73445 -4.26245,1.67474zM239.64,176.25c-1.91,0 -3,1.45 -3,3.55c0,2.1 1.12,3.64 3,3.64c1.88,0 3,-1.46 3,-3.57c0,-2.11 -1.09,-3.62 -3,-3.62z" fill="#000000"/><path d="M253.5,182.32c0,-0.75 -0.81,-1 -2.31,-1.42c-1.5,-0.42 -3.69,-1.21 -3.69,-3.46c0,-2.09 1.53,-3.47 4.32,-3.47c1.46942,-0.03671 2.9233,0.30781 4.22,1l-0.54,2.35c-1.12029,-0.60882 -2.36591,-0.95102 -3.64,-1c-1,0 -1.48,0.34 -1.48,1c0,0.66 1,1 2.38,1.41c1.73,0.46 3.53,1.26 3.53,3.4c0,2.14 -1.66,3.65 -4.61,3.65c-1.50618,0.0219 -2.99527,-0.3212 -4.34,-1l0.54,-2.38c1.18659,0.64129 2.5113,0.98448 3.86,1c1.02,-0.02 1.76,-0.39 1.76,-1.08z" fill="#000000"/><path d="M258.74,185.5v-11.28h8.23v2.28h-5.42v2.17h4.35v2.28h-4.35v2.2h5.42v2.35z" fill="#000000"/></g></g></svg>