<svg version="1.1" xmlns="http://www.w3.org/2000/svg" xmlns:xlink="http://www.w3.org/1999/xlink" width="19" height="21" viewBox="0,0,19,21"><g transform="translate(-231.5,-169)"><g data-paper-data="{&quot;isPaintingLayer&quot;:true}" fill-rule="nonzero" stroke="none" stroke-linecap="butt" stroke-linejoin="miter" stroke-miterlimit="10" stroke-dasharray="" stroke-dashoffset="0" style="mix-blend-mode: normal"><path d="M239.82455,180.46c0.06,0.75 0.58,1.18 1.48,1.18c0.64258,-0.02312 1.26879,-0.20892 1.82,-0.54l0.18,1.43c-0.68057,0.31043 -1.42211,0.46421 -2.17,0.45c-1.89,0 -3.12,-1 -3.12,-2.91c-0.04059,-0.80741 0.26242,-1.59429 0.83407,-2.16593c0.57165,-0.57165 1.35852,-0.87466 2.16593,-0.83407c0.64979,-0.07238 1.29828,0.14667 1.77109,0.59824c0.47281,0.45158 0.72139,1.08933 0.67891,1.74176c-0.00013,0.33692 -0.04041,0.67262 -0.12,1l-3.54,0.06zM241.77455,179.46v-0.06c0,-0.66 -0.28,-1.07 -0.86,-1.07c-0.61699,0.04776 -1.08785,0.57142 -1.07,1.19z" fill="#000000" stroke-width="1"/><path d="M231.5,190v-21h19v21z" fill="none" stroke-width="0"/></g></g></svg>