<svg xmlns="http://www.w3.org/2000/svg" width="540" height="420" viewBox="0 0 540 420">
  <g>
    <rect width="540" height="420" style="fill: #ddd"/>
    <path d="M22.5,89H7.5A6.53,6.53,0,0,1,1,82.5v-15A6.53,6.53,0,0,1,7.5,61h15A6.53,6.53,0,0,1,29,67.5v15A6.53,6.53,0,0,1,22.5,89Z" style="fill: #e6e6e6"/>
    <path d="M52.5,119h-15a6.53,6.53,0,0,1-6.5-6.5v-15A6.53,6.53,0,0,1,37.5,91h15A6.53,6.53,0,0,1,59,97.5v15A6.53,6.53,0,0,1,52.5,119Z" style="fill: #e6e6e6"/>
    <path d="M22.5,149H7.5A6.53,6.53,0,0,1,1,142.5v-15A6.53,6.53,0,0,1,7.5,121h15a6.53,6.53,0,0,1,6.5,6.5v15A6.53,6.53,0,0,1,22.5,149Z" style="fill: #e6e6e6"/>
    <path d="M52.5,179h-15a6.53,6.53,0,0,1-6.5-6.5v-15a6.53,6.53,0,0,1,6.5-6.5h15a6.53,6.53,0,0,1,6.5,6.5v15A6.53,6.53,0,0,1,52.5,179Z" style="fill: #e6e6e6"/>
    <path d="M22.5,209H7.5A6.53,6.53,0,0,1,1,202.5v-15A6.53,6.53,0,0,1,7.5,181h15a6.53,6.53,0,0,1,6.5,6.5v15A6.53,6.53,0,0,1,22.5,209Z" style="fill: #e6e6e6"/>
    <path d="M52.5,239h-15a6.53,6.53,0,0,1-6.5-6.5v-15a6.53,6.53,0,0,1,6.5-6.5h15a6.53,6.53,0,0,1,6.5,6.5v15A6.53,6.53,0,0,1,52.5,239Z" style="fill: #e6e6e6"/>
    <path d="M22.5,269H7.5A6.53,6.53,0,0,1,1,262.5v-15A6.53,6.53,0,0,1,7.5,241h15a6.53,6.53,0,0,1,6.5,6.5v15A6.53,6.53,0,0,1,22.5,269Z" style="fill: #e6e6e6"/>
    <path d="M52.5,299h-15a6.53,6.53,0,0,1-6.5-6.5v-15a6.53,6.53,0,0,1,6.5-6.5h15a6.53,6.53,0,0,1,6.5,6.5v15A6.53,6.53,0,0,1,52.5,299Z" style="fill: #e6e6e6"/>
    <path d="M22.5,329H7.5A6.53,6.53,0,0,1,1,322.5v-15A6.53,6.53,0,0,1,7.5,301h15a6.53,6.53,0,0,1,6.5,6.5v15A6.53,6.53,0,0,1,22.5,329Z" style="fill: #e6e6e6"/>
    <path d="M52.5,359h-15a6.53,6.53,0,0,1-6.5-6.5v-15a6.53,6.53,0,0,1,6.5-6.5h15a6.53,6.53,0,0,1,6.5,6.5v15A6.53,6.53,0,0,1,52.5,359Z" style="fill: #e6e6e6"/>
    <path d="M22.5,389H7.5A6.53,6.53,0,0,1,1,382.5v-15A6.53,6.53,0,0,1,7.5,361h15a6.53,6.53,0,0,1,6.5,6.5v15A6.53,6.53,0,0,1,22.5,389Z" style="fill: #e6e6e6"/>
    <path d="M52.5,419h-15a6.53,6.53,0,0,1-6.5-6.5v-15a6.53,6.53,0,0,1,6.5-6.5h15a6.53,6.53,0,0,1,6.5,6.5v15A6.53,6.53,0,0,1,52.5,419Z" style="fill: #e6e6e6"/>
    <path d="M82.5,89h-15A6.53,6.53,0,0,1,61,82.5v-15A6.53,6.53,0,0,1,67.5,61h15A6.53,6.53,0,0,1,89,67.5v15A6.53,6.53,0,0,1,82.5,89Z" style="fill: #e6e6e6"/>
    <path d="M112.5,119h-15a6.53,6.53,0,0,1-6.5-6.5v-15A6.53,6.53,0,0,1,97.5,91h15a6.53,6.53,0,0,1,6.5,6.5v15A6.53,6.53,0,0,1,112.5,119Z" style="fill: #e6e6e6"/>
    <path d="M82.5,149h-15a6.53,6.53,0,0,1-6.5-6.5v-15a6.53,6.53,0,0,1,6.5-6.5h15a6.53,6.53,0,0,1,6.5,6.5v15A6.53,6.53,0,0,1,82.5,149Z" style="fill: #e6e6e6"/>
    <path d="M112.5,179h-15a6.53,6.53,0,0,1-6.5-6.5v-15a6.53,6.53,0,0,1,6.5-6.5h15a6.53,6.53,0,0,1,6.5,6.5v15A6.53,6.53,0,0,1,112.5,179Z" style="fill: #e6e6e6"/>
    <path d="M82.5,209h-15a6.53,6.53,0,0,1-6.5-6.5v-15a6.53,6.53,0,0,1,6.5-6.5h15a6.53,6.53,0,0,1,6.5,6.5v15A6.53,6.53,0,0,1,82.5,209Z" style="fill: #e6e6e6"/>
    <path d="M112.5,239h-15a6.53,6.53,0,0,1-6.5-6.5v-15a6.53,6.53,0,0,1,6.5-6.5h15a6.53,6.53,0,0,1,6.5,6.5v15A6.53,6.53,0,0,1,112.5,239Z" style="fill: #e6e6e6"/>
    <path d="M82.5,269h-15a6.53,6.53,0,0,1-6.5-6.5v-15a6.53,6.53,0,0,1,6.5-6.5h15a6.53,6.53,0,0,1,6.5,6.5v15A6.53,6.53,0,0,1,82.5,269Z" style="fill: #e6e6e6"/>
    <path d="M112.5,299h-15a6.53,6.53,0,0,1-6.5-6.5v-15a6.53,6.53,0,0,1,6.5-6.5h15a6.53,6.53,0,0,1,6.5,6.5v15A6.53,6.53,0,0,1,112.5,299Z" style="fill: #e6e6e6"/>
    <path d="M82.5,329h-15a6.53,6.53,0,0,1-6.5-6.5v-15a6.53,6.53,0,0,1,6.5-6.5h15a6.53,6.53,0,0,1,6.5,6.5v15A6.53,6.53,0,0,1,82.5,329Z" style="fill: #e6e6e6"/>
    <path d="M112.5,359h-15a6.53,6.53,0,0,1-6.5-6.5v-15a6.53,6.53,0,0,1,6.5-6.5h15a6.53,6.53,0,0,1,6.5,6.5v15A6.53,6.53,0,0,1,112.5,359Z" style="fill: #e6e6e6"/>
    <path d="M82.5,389h-15a6.53,6.53,0,0,1-6.5-6.5v-15a6.53,6.53,0,0,1,6.5-6.5h15a6.53,6.53,0,0,1,6.5,6.5v15A6.53,6.53,0,0,1,82.5,389Z" style="fill: #e6e6e6"/>
    <path d="M112.5,419h-15a6.53,6.53,0,0,1-6.5-6.5v-15a6.53,6.53,0,0,1,6.5-6.5h15a6.53,6.53,0,0,1,6.5,6.5v15A6.53,6.53,0,0,1,112.5,419Z" style="fill: #e6e6e6"/>
    <path d="M142.5,89h-15a6.53,6.53,0,0,1-6.5-6.5v-15a6.53,6.53,0,0,1,6.5-6.5h15a6.53,6.53,0,0,1,6.5,6.5v15A6.53,6.53,0,0,1,142.5,89Z" style="fill: #e6e6e6"/>
    <path d="M172.5,119h-15a6.53,6.53,0,0,1-6.5-6.5v-15a6.53,6.53,0,0,1,6.5-6.5h15a6.53,6.53,0,0,1,6.5,6.5v15A6.53,6.53,0,0,1,172.5,119Z" style="fill: #e6e6e6"/>
    <path d="M142.5,149h-15a6.53,6.53,0,0,1-6.5-6.5v-15a6.53,6.53,0,0,1,6.5-6.5h15a6.53,6.53,0,0,1,6.5,6.5v15A6.53,6.53,0,0,1,142.5,149Z" style="fill: #e6e6e6"/>
    <path d="M172.5,179h-15a6.53,6.53,0,0,1-6.5-6.5v-15a6.53,6.53,0,0,1,6.5-6.5h15a6.53,6.53,0,0,1,6.5,6.5v15A6.53,6.53,0,0,1,172.5,179Z" style="fill: #e6e6e6"/>
    <path d="M142.5,209h-15a6.53,6.53,0,0,1-6.5-6.5v-15a6.53,6.53,0,0,1,6.5-6.5h15a6.53,6.53,0,0,1,6.5,6.5v15A6.53,6.53,0,0,1,142.5,209Z" style="fill: #e6e6e6"/>
    <path d="M172.5,239h-15a6.53,6.53,0,0,1-6.5-6.5v-15a6.53,6.53,0,0,1,6.5-6.5h15a6.53,6.53,0,0,1,6.5,6.5v15A6.53,6.53,0,0,1,172.5,239Z" style="fill: #e6e6e6"/>
    <path d="M142.5,269h-15a6.53,6.53,0,0,1-6.5-6.5v-15a6.53,6.53,0,0,1,6.5-6.5h15a6.53,6.53,0,0,1,6.5,6.5v15A6.53,6.53,0,0,1,142.5,269Z" style="fill: #e6e6e6"/>
    <path d="M172.5,299h-15a6.53,6.53,0,0,1-6.5-6.5v-15a6.53,6.53,0,0,1,6.5-6.5h15a6.53,6.53,0,0,1,6.5,6.5v15A6.53,6.53,0,0,1,172.5,299Z" style="fill: #e6e6e6"/>
    <path d="M142.5,329h-15a6.53,6.53,0,0,1-6.5-6.5v-15a6.53,6.53,0,0,1,6.5-6.5h15a6.53,6.53,0,0,1,6.5,6.5v15A6.53,6.53,0,0,1,142.5,329Z" style="fill: #e6e6e6"/>
    <path d="M172.5,359h-15a6.53,6.53,0,0,1-6.5-6.5v-15a6.53,6.53,0,0,1,6.5-6.5h15a6.53,6.53,0,0,1,6.5,6.5v15A6.53,6.53,0,0,1,172.5,359Z" style="fill: #e6e6e6"/>
    <path d="M142.5,389h-15a6.53,6.53,0,0,1-6.5-6.5v-15a6.53,6.53,0,0,1,6.5-6.5h15a6.53,6.53,0,0,1,6.5,6.5v15A6.53,6.53,0,0,1,142.5,389Z" style="fill: #e6e6e6"/>
    <path d="M172.5,419h-15a6.53,6.53,0,0,1-6.5-6.5v-15a6.53,6.53,0,0,1,6.5-6.5h15a6.53,6.53,0,0,1,6.5,6.5v15A6.53,6.53,0,0,1,172.5,419Z" style="fill: #e6e6e6"/>
    <path d="M202.5,89h-15a6.53,6.53,0,0,1-6.5-6.5v-15a6.53,6.53,0,0,1,6.5-6.5h15a6.53,6.53,0,0,1,6.5,6.5v15A6.53,6.53,0,0,1,202.5,89Z" style="fill: #e6e6e6"/>
    <path d="M232.5,119h-15a6.53,6.53,0,0,1-6.5-6.5v-15a6.53,6.53,0,0,1,6.5-6.5h15a6.53,6.53,0,0,1,6.5,6.5v15A6.53,6.53,0,0,1,232.5,119Z" style="fill: #e6e6e6"/>
    <path d="M202.5,149h-15a6.53,6.53,0,0,1-6.5-6.5v-15a6.53,6.53,0,0,1,6.5-6.5h15a6.53,6.53,0,0,1,6.5,6.5v15A6.53,6.53,0,0,1,202.5,149Z" style="fill: #e6e6e6"/>
    <path d="M232.5,179h-15a6.53,6.53,0,0,1-6.5-6.5v-15a6.53,6.53,0,0,1,6.5-6.5h15a6.53,6.53,0,0,1,6.5,6.5v15A6.53,6.53,0,0,1,232.5,179Z" style="fill: #e6e6e6"/>
    <path d="M202.5,209h-15a6.53,6.53,0,0,1-6.5-6.5v-15a6.53,6.53,0,0,1,6.5-6.5h15a6.53,6.53,0,0,1,6.5,6.5v15A6.53,6.53,0,0,1,202.5,209Z" style="fill: #e6e6e6"/>
    <path d="M232.5,239h-15a6.53,6.53,0,0,1-6.5-6.5v-15a6.53,6.53,0,0,1,6.5-6.5h15a6.53,6.53,0,0,1,6.5,6.5v15A6.53,6.53,0,0,1,232.5,239Z" style="fill: #e6e6e6"/>
    <path d="M202.5,269h-15a6.53,6.53,0,0,1-6.5-6.5v-15a6.53,6.53,0,0,1,6.5-6.5h15a6.53,6.53,0,0,1,6.5,6.5v15A6.53,6.53,0,0,1,202.5,269Z" style="fill: #e6e6e6"/>
    <path d="M232.5,299h-15a6.53,6.53,0,0,1-6.5-6.5v-15a6.53,6.53,0,0,1,6.5-6.5h15a6.53,6.53,0,0,1,6.5,6.5v15A6.53,6.53,0,0,1,232.5,299Z" style="fill: #e6e6e6"/>
    <path d="M202.5,329h-15a6.53,6.53,0,0,1-6.5-6.5v-15a6.53,6.53,0,0,1,6.5-6.5h15a6.53,6.53,0,0,1,6.5,6.5v15A6.53,6.53,0,0,1,202.5,329Z" style="fill: #e6e6e6"/>
    <path d="M232.5,359h-15a6.53,6.53,0,0,1-6.5-6.5v-15a6.53,6.53,0,0,1,6.5-6.5h15a6.53,6.53,0,0,1,6.5,6.5v15A6.53,6.53,0,0,1,232.5,359Z" style="fill: #e6e6e6"/>
    <path d="M202.5,389h-15a6.53,6.53,0,0,1-6.5-6.5v-15a6.53,6.53,0,0,1,6.5-6.5h15a6.53,6.53,0,0,1,6.5,6.5v15A6.53,6.53,0,0,1,202.5,389Z" style="fill: #e6e6e6"/>
    <path d="M232.5,419h-15a6.53,6.53,0,0,1-6.5-6.5v-15a6.53,6.53,0,0,1,6.5-6.5h15a6.53,6.53,0,0,1,6.5,6.5v15A6.53,6.53,0,0,1,232.5,419Z" style="fill: #e6e6e6"/>
    <path d="M262.5,89h-15a6.53,6.53,0,0,1-6.5-6.5v-15a6.53,6.53,0,0,1,6.5-6.5h15a6.53,6.53,0,0,1,6.5,6.5v15A6.53,6.53,0,0,1,262.5,89Z" style="fill: #e6e6e6"/>
    <path d="M292.5,119h-15a6.53,6.53,0,0,1-6.5-6.5v-15a6.53,6.53,0,0,1,6.5-6.5h15a6.53,6.53,0,0,1,6.5,6.5v15A6.53,6.53,0,0,1,292.5,119Z" style="fill: #e6e6e6"/>
    <path d="M262.5,149h-15a6.53,6.53,0,0,1-6.5-6.5v-15a6.53,6.53,0,0,1,6.5-6.5h15a6.53,6.53,0,0,1,6.5,6.5v15A6.53,6.53,0,0,1,262.5,149Z" style="fill: #e6e6e6"/>
    <path d="M292.5,179h-15a6.53,6.53,0,0,1-6.5-6.5v-15a6.53,6.53,0,0,1,6.5-6.5h15a6.53,6.53,0,0,1,6.5,6.5v15A6.53,6.53,0,0,1,292.5,179Z" style="fill: #e6e6e6"/>
    <path d="M262.5,209h-15a6.53,6.53,0,0,1-6.5-6.5v-15a6.53,6.53,0,0,1,6.5-6.5h15a6.53,6.53,0,0,1,6.5,6.5v15A6.53,6.53,0,0,1,262.5,209Z" style="fill: #e6e6e6"/>
    <path d="M292.5,239h-15a6.53,6.53,0,0,1-6.5-6.5v-15a6.53,6.53,0,0,1,6.5-6.5h15a6.53,6.53,0,0,1,6.5,6.5v15A6.53,6.53,0,0,1,292.5,239Z" style="fill: #e6e6e6"/>
    <path d="M262.5,269h-15a6.53,6.53,0,0,1-6.5-6.5v-15a6.53,6.53,0,0,1,6.5-6.5h15a6.53,6.53,0,0,1,6.5,6.5v15A6.53,6.53,0,0,1,262.5,269Z" style="fill: #e6e6e6"/>
    <path d="M292.5,299h-15a6.53,6.53,0,0,1-6.5-6.5v-15a6.53,6.53,0,0,1,6.5-6.5h15a6.53,6.53,0,0,1,6.5,6.5v15A6.53,6.53,0,0,1,292.5,299Z" style="fill: #e6e6e6"/>
    <path d="M262.5,329h-15a6.53,6.53,0,0,1-6.5-6.5v-15a6.53,6.53,0,0,1,6.5-6.5h15a6.53,6.53,0,0,1,6.5,6.5v15A6.53,6.53,0,0,1,262.5,329Z" style="fill: #e6e6e6"/>
    <path d="M292.5,359h-15a6.53,6.53,0,0,1-6.5-6.5v-15a6.53,6.53,0,0,1,6.5-6.5h15a6.53,6.53,0,0,1,6.5,6.5v15A6.53,6.53,0,0,1,292.5,359Z" style="fill: #e6e6e6"/>
    <path d="M262.5,389h-15a6.53,6.53,0,0,1-6.5-6.5v-15a6.53,6.53,0,0,1,6.5-6.5h15a6.53,6.53,0,0,1,6.5,6.5v15A6.53,6.53,0,0,1,262.5,389Z" style="fill: #e6e6e6"/>
    <path d="M292.5,419h-15a6.53,6.53,0,0,1-6.5-6.5v-15a6.53,6.53,0,0,1,6.5-6.5h15a6.53,6.53,0,0,1,6.5,6.5v15A6.53,6.53,0,0,1,292.5,419Z" style="fill: #e6e6e6"/>
    <path d="M322.5,89h-15a6.53,6.53,0,0,1-6.5-6.5v-15a6.53,6.53,0,0,1,6.5-6.5h15a6.53,6.53,0,0,1,6.5,6.5v15A6.53,6.53,0,0,1,322.5,89Z" style="fill: #e6e6e6"/>
    <path d="M352.5,119h-15a6.53,6.53,0,0,1-6.5-6.5v-15a6.53,6.53,0,0,1,6.5-6.5h15a6.53,6.53,0,0,1,6.5,6.5v15A6.53,6.53,0,0,1,352.5,119Z" style="fill: #e6e6e6"/>
    <path d="M322.5,149h-15a6.53,6.53,0,0,1-6.5-6.5v-15a6.53,6.53,0,0,1,6.5-6.5h15a6.53,6.53,0,0,1,6.5,6.5v15A6.53,6.53,0,0,1,322.5,149Z" style="fill: #e6e6e6"/>
    <path d="M352.5,179h-15a6.53,6.53,0,0,1-6.5-6.5v-15a6.53,6.53,0,0,1,6.5-6.5h15a6.53,6.53,0,0,1,6.5,6.5v15A6.53,6.53,0,0,1,352.5,179Z" style="fill: #e6e6e6"/>
    <path d="M322.5,209h-15a6.53,6.53,0,0,1-6.5-6.5v-15a6.53,6.53,0,0,1,6.5-6.5h15a6.53,6.53,0,0,1,6.5,6.5v15A6.53,6.53,0,0,1,322.5,209Z" style="fill: #e6e6e6"/>
    <path d="M352.5,239h-15a6.53,6.53,0,0,1-6.5-6.5v-15a6.53,6.53,0,0,1,6.5-6.5h15a6.53,6.53,0,0,1,6.5,6.5v15A6.53,6.53,0,0,1,352.5,239Z" style="fill: #e6e6e6"/>
    <path d="M322.5,269h-15a6.53,6.53,0,0,1-6.5-6.5v-15a6.53,6.53,0,0,1,6.5-6.5h15a6.53,6.53,0,0,1,6.5,6.5v15A6.53,6.53,0,0,1,322.5,269Z" style="fill: #e6e6e6"/>
    <path d="M352.5,299h-15a6.53,6.53,0,0,1-6.5-6.5v-15a6.53,6.53,0,0,1,6.5-6.5h15a6.53,6.53,0,0,1,6.5,6.5v15A6.53,6.53,0,0,1,352.5,299Z" style="fill: #e6e6e6"/>
    <path d="M322.5,329h-15a6.53,6.53,0,0,1-6.5-6.5v-15a6.53,6.53,0,0,1,6.5-6.5h15a6.53,6.53,0,0,1,6.5,6.5v15A6.53,6.53,0,0,1,322.5,329Z" style="fill: #e6e6e6"/>
    <path d="M352.5,359h-15a6.53,6.53,0,0,1-6.5-6.5v-15a6.53,6.53,0,0,1,6.5-6.5h15a6.53,6.53,0,0,1,6.5,6.5v15A6.53,6.53,0,0,1,352.5,359Z" style="fill: #e6e6e6"/>
    <path d="M322.5,389h-15a6.53,6.53,0,0,1-6.5-6.5v-15a6.53,6.53,0,0,1,6.5-6.5h15a6.53,6.53,0,0,1,6.5,6.5v15A6.53,6.53,0,0,1,322.5,389Z" style="fill: #e6e6e6"/>
    <path d="M352.5,419h-15a6.53,6.53,0,0,1-6.5-6.5v-15a6.53,6.53,0,0,1,6.5-6.5h15a6.53,6.53,0,0,1,6.5,6.5v15A6.53,6.53,0,0,1,352.5,419Z" style="fill: #e6e6e6"/>
    <path d="M382.5,89h-15a6.53,6.53,0,0,1-6.5-6.5v-15a6.53,6.53,0,0,1,6.5-6.5h15a6.53,6.53,0,0,1,6.5,6.5v15A6.53,6.53,0,0,1,382.5,89Z" style="fill: #e6e6e6"/>
    <path d="M412.5,119h-15a6.53,6.53,0,0,1-6.5-6.5v-15a6.53,6.53,0,0,1,6.5-6.5h15a6.53,6.53,0,0,1,6.5,6.5v15A6.53,6.53,0,0,1,412.5,119Z" style="fill: #e6e6e6"/>
    <path d="M382.5,149h-15a6.53,6.53,0,0,1-6.5-6.5v-15a6.53,6.53,0,0,1,6.5-6.5h15a6.53,6.53,0,0,1,6.5,6.5v15A6.53,6.53,0,0,1,382.5,149Z" style="fill: #e6e6e6"/>
    <path d="M412.5,179h-15a6.53,6.53,0,0,1-6.5-6.5v-15a6.53,6.53,0,0,1,6.5-6.5h15a6.53,6.53,0,0,1,6.5,6.5v15A6.53,6.53,0,0,1,412.5,179Z" style="fill: #e6e6e6"/>
    <path d="M382.5,209h-15a6.53,6.53,0,0,1-6.5-6.5v-15a6.53,6.53,0,0,1,6.5-6.5h15a6.53,6.53,0,0,1,6.5,6.5v15A6.53,6.53,0,0,1,382.5,209Z" style="fill: #e6e6e6"/>
    <path d="M412.5,239h-15a6.53,6.53,0,0,1-6.5-6.5v-15a6.53,6.53,0,0,1,6.5-6.5h15a6.53,6.53,0,0,1,6.5,6.5v15A6.53,6.53,0,0,1,412.5,239Z" style="fill: #e6e6e6"/>
    <path d="M382.5,269h-15a6.53,6.53,0,0,1-6.5-6.5v-15a6.53,6.53,0,0,1,6.5-6.5h15a6.53,6.53,0,0,1,6.5,6.5v15A6.53,6.53,0,0,1,382.5,269Z" style="fill: #e6e6e6"/>
    <path d="M412.5,299h-15a6.53,6.53,0,0,1-6.5-6.5v-15a6.53,6.53,0,0,1,6.5-6.5h15a6.53,6.53,0,0,1,6.5,6.5v15A6.53,6.53,0,0,1,412.5,299Z" style="fill: #e6e6e6"/>
    <path d="M382.5,329h-15a6.53,6.53,0,0,1-6.5-6.5v-15a6.53,6.53,0,0,1,6.5-6.5h15a6.53,6.53,0,0,1,6.5,6.5v15A6.53,6.53,0,0,1,382.5,329Z" style="fill: #e6e6e6"/>
    <path d="M412.5,359h-15a6.53,6.53,0,0,1-6.5-6.5v-15a6.53,6.53,0,0,1,6.5-6.5h15a6.53,6.53,0,0,1,6.5,6.5v15A6.53,6.53,0,0,1,412.5,359Z" style="fill: #e6e6e6"/>
    <path d="M382.5,389h-15a6.53,6.53,0,0,1-6.5-6.5v-15a6.53,6.53,0,0,1,6.5-6.5h15a6.53,6.53,0,0,1,6.5,6.5v15A6.53,6.53,0,0,1,382.5,389Z" style="fill: #e6e6e6"/>
    <path d="M412.5,419h-15a6.53,6.53,0,0,1-6.5-6.5v-15a6.53,6.53,0,0,1,6.5-6.5h15a6.53,6.53,0,0,1,6.5,6.5v15A6.53,6.53,0,0,1,412.5,419Z" style="fill: #e6e6e6"/>
    <path d="M442.5,89h-15a6.53,6.53,0,0,1-6.5-6.5v-15a6.53,6.53,0,0,1,6.5-6.5h15a6.53,6.53,0,0,1,6.5,6.5v15A6.53,6.53,0,0,1,442.5,89Z" style="fill: #e6e6e6"/>
    <path d="M472.5,119h-15a6.53,6.53,0,0,1-6.5-6.5v-15a6.53,6.53,0,0,1,6.5-6.5h15a6.53,6.53,0,0,1,6.5,6.5v15A6.53,6.53,0,0,1,472.5,119Z" style="fill: #e6e6e6"/>
    <path d="M22.5,29H7.5A6.53,6.53,0,0,1,1,22.5V7.5A6.53,6.53,0,0,1,7.5,1h15A6.53,6.53,0,0,1,29,7.5v15A6.53,6.53,0,0,1,22.5,29Z" style="fill: #e6e6e6"/>
    <path d="M52.5,59h-15A6.53,6.53,0,0,1,31,52.5v-15A6.53,6.53,0,0,1,37.5,31h15A6.53,6.53,0,0,1,59,37.5v15A6.53,6.53,0,0,1,52.5,59Z" style="fill: #e6e6e6"/>
    <path d="M82.5,29h-15A6.53,6.53,0,0,1,61,22.5V7.5A6.53,6.53,0,0,1,67.5,1h15A6.53,6.53,0,0,1,89,7.5v15A6.53,6.53,0,0,1,82.5,29Z" style="fill: #e6e6e6"/>
    <path d="M112.5,59h-15A6.53,6.53,0,0,1,91,52.5v-15A6.53,6.53,0,0,1,97.5,31h15a6.53,6.53,0,0,1,6.5,6.5v15A6.53,6.53,0,0,1,112.5,59Z" style="fill: #e6e6e6"/>
    <path d="M142.5,29h-15a6.53,6.53,0,0,1-6.5-6.5V7.5A6.53,6.53,0,0,1,127.5,1h15A6.53,6.53,0,0,1,149,7.5v15A6.53,6.53,0,0,1,142.5,29Z" style="fill: #e6e6e6"/>
    <path d="M172.5,59h-15a6.53,6.53,0,0,1-6.5-6.5v-15a6.53,6.53,0,0,1,6.5-6.5h15a6.53,6.53,0,0,1,6.5,6.5v15A6.53,6.53,0,0,1,172.5,59Z" style="fill: #e6e6e6"/>
    <path d="M202.5,29h-15a6.53,6.53,0,0,1-6.5-6.5V7.5A6.53,6.53,0,0,1,187.5,1h15A6.53,6.53,0,0,1,209,7.5v15A6.53,6.53,0,0,1,202.5,29Z" style="fill: #e6e6e6"/>
    <path d="M232.5,59h-15a6.53,6.53,0,0,1-6.5-6.5v-15a6.53,6.53,0,0,1,6.5-6.5h15a6.53,6.53,0,0,1,6.5,6.5v15A6.53,6.53,0,0,1,232.5,59Z" style="fill: #e6e6e6"/>
    <path d="M262.5,29h-15a6.53,6.53,0,0,1-6.5-6.5V7.5A6.53,6.53,0,0,1,247.5,1h15A6.53,6.53,0,0,1,269,7.5v15A6.53,6.53,0,0,1,262.5,29Z" style="fill: #e6e6e6"/>
    <path d="M292.5,59h-15a6.53,6.53,0,0,1-6.5-6.5v-15a6.53,6.53,0,0,1,6.5-6.5h15a6.53,6.53,0,0,1,6.5,6.5v15A6.53,6.53,0,0,1,292.5,59Z" style="fill: #e6e6e6"/>
    <path d="M322.5,29h-15a6.53,6.53,0,0,1-6.5-6.5V7.5A6.53,6.53,0,0,1,307.5,1h15A6.53,6.53,0,0,1,329,7.5v15A6.53,6.53,0,0,1,322.5,29Z" style="fill: #e6e6e6"/>
    <path d="M352.5,59h-15a6.53,6.53,0,0,1-6.5-6.5v-15a6.53,6.53,0,0,1,6.5-6.5h15a6.53,6.53,0,0,1,6.5,6.5v15A6.53,6.53,0,0,1,352.5,59Z" style="fill: #e6e6e6"/>
    <path d="M382.5,29h-15a6.53,6.53,0,0,1-6.5-6.5V7.5A6.53,6.53,0,0,1,367.5,1h15A6.53,6.53,0,0,1,389,7.5v15A6.53,6.53,0,0,1,382.5,29Z" style="fill: #e6e6e6"/>
    <path d="M412.5,59h-15a6.53,6.53,0,0,1-6.5-6.5v-15a6.53,6.53,0,0,1,6.5-6.5h15a6.53,6.53,0,0,1,6.5,6.5v15A6.53,6.53,0,0,1,412.5,59Z" style="fill: #e6e6e6"/>
    <path d="M442.5,29h-15a6.53,6.53,0,0,1-6.5-6.5V7.5A6.53,6.53,0,0,1,427.5,1h15A6.53,6.53,0,0,1,449,7.5v15A6.53,6.53,0,0,1,442.5,29Z" style="fill: #e6e6e6"/>
    <path d="M472.5,59h-15a6.53,6.53,0,0,1-6.5-6.5v-15a6.53,6.53,0,0,1,6.5-6.5h15a6.53,6.53,0,0,1,6.5,6.5v15A6.53,6.53,0,0,1,472.5,59Z" style="fill: #e6e6e6"/>
    <path d="M442.5,149h-15a6.53,6.53,0,0,1-6.5-6.5v-15a6.53,6.53,0,0,1,6.5-6.5h15a6.53,6.53,0,0,1,6.5,6.5v15A6.53,6.53,0,0,1,442.5,149Z" style="fill: #e6e6e6"/>
    <path d="M472.5,179h-15a6.53,6.53,0,0,1-6.5-6.5v-15a6.53,6.53,0,0,1,6.5-6.5h15a6.53,6.53,0,0,1,6.5,6.5v15A6.53,6.53,0,0,1,472.5,179Z" style="fill: #e6e6e6"/>
    <path d="M442.5,209h-15a6.53,6.53,0,0,1-6.5-6.5v-15a6.53,6.53,0,0,1,6.5-6.5h15a6.53,6.53,0,0,1,6.5,6.5v15A6.53,6.53,0,0,1,442.5,209Z" style="fill: #e6e6e6"/>
    <path d="M472.5,239h-15a6.53,6.53,0,0,1-6.5-6.5v-15a6.53,6.53,0,0,1,6.5-6.5h15a6.53,6.53,0,0,1,6.5,6.5v15A6.53,6.53,0,0,1,472.5,239Z" style="fill: #e6e6e6"/>
    <path d="M442.5,269h-15a6.53,6.53,0,0,1-6.5-6.5v-15a6.53,6.53,0,0,1,6.5-6.5h15a6.53,6.53,0,0,1,6.5,6.5v15A6.53,6.53,0,0,1,442.5,269Z" style="fill: #e6e6e6"/>
    <path d="M472.5,299h-15a6.53,6.53,0,0,1-6.5-6.5v-15a6.53,6.53,0,0,1,6.5-6.5h15a6.53,6.53,0,0,1,6.5,6.5v15A6.53,6.53,0,0,1,472.5,299Z" style="fill: #e6e6e6"/>
    <path d="M442.5,329h-15a6.53,6.53,0,0,1-6.5-6.5v-15a6.53,6.53,0,0,1,6.5-6.5h15a6.53,6.53,0,0,1,6.5,6.5v15A6.53,6.53,0,0,1,442.5,329Z" style="fill: #e6e6e6"/>
    <path d="M472.5,359h-15a6.53,6.53,0,0,1-6.5-6.5v-15a6.53,6.53,0,0,1,6.5-6.5h15a6.53,6.53,0,0,1,6.5,6.5v15A6.53,6.53,0,0,1,472.5,359Z" style="fill: #e6e6e6"/>
    <path d="M442.5,389h-15a6.53,6.53,0,0,1-6.5-6.5v-15a6.53,6.53,0,0,1,6.5-6.5h15a6.53,6.53,0,0,1,6.5,6.5v15A6.53,6.53,0,0,1,442.5,389Z" style="fill: #e6e6e6"/>
    <path d="M472.5,419h-15a6.53,6.53,0,0,1-6.5-6.5v-15a6.53,6.53,0,0,1,6.5-6.5h15a6.53,6.53,0,0,1,6.5,6.5v15A6.53,6.53,0,0,1,472.5,419Z" style="fill: #e6e6e6"/>
    <path d="M502.5,89h-15a6.53,6.53,0,0,1-6.5-6.5v-15a6.53,6.53,0,0,1,6.5-6.5h15a6.53,6.53,0,0,1,6.5,6.5v15A6.53,6.53,0,0,1,502.5,89Z" style="fill: #e6e6e6"/>
    <path d="M532.5,119h-15a6.53,6.53,0,0,1-6.5-6.5v-15a6.53,6.53,0,0,1,6.5-6.5h15a6.53,6.53,0,0,1,6.5,6.5v15A6.53,6.53,0,0,1,532.5,119Z" style="fill: #e6e6e6"/>
    <path d="M502.5,29h-15a6.53,6.53,0,0,1-6.5-6.5V7.5A6.53,6.53,0,0,1,487.5,1h15A6.53,6.53,0,0,1,509,7.5v15A6.53,6.53,0,0,1,502.5,29Z" style="fill: #e6e6e6"/>
    <path d="M532.5,59h-15a6.53,6.53,0,0,1-6.5-6.5v-15a6.53,6.53,0,0,1,6.5-6.5h15a6.53,6.53,0,0,1,6.5,6.5v15A6.53,6.53,0,0,1,532.5,59Z" style="fill: #e6e6e6"/>
    <path d="M502.5,149h-15a6.53,6.53,0,0,1-6.5-6.5v-15a6.53,6.53,0,0,1,6.5-6.5h15a6.53,6.53,0,0,1,6.5,6.5v15A6.53,6.53,0,0,1,502.5,149Z" style="fill: #e6e6e6"/>
    <path d="M532.5,179h-15a6.53,6.53,0,0,1-6.5-6.5v-15a6.53,6.53,0,0,1,6.5-6.5h15a6.53,6.53,0,0,1,6.5,6.5v15A6.53,6.53,0,0,1,532.5,179Z" style="fill: #e6e6e6"/>
    <path d="M502.5,209h-15a6.53,6.53,0,0,1-6.5-6.5v-15a6.53,6.53,0,0,1,6.5-6.5h15a6.53,6.53,0,0,1,6.5,6.5v15A6.53,6.53,0,0,1,502.5,209Z" style="fill: #e6e6e6"/>
    <path d="M532.5,239h-15a6.53,6.53,0,0,1-6.5-6.5v-15a6.53,6.53,0,0,1,6.5-6.5h15a6.53,6.53,0,0,1,6.5,6.5v15A6.53,6.53,0,0,1,532.5,239Z" style="fill: #e6e6e6"/>
    <path d="M502.5,269h-15a6.53,6.53,0,0,1-6.5-6.5v-15a6.53,6.53,0,0,1,6.5-6.5h15a6.53,6.53,0,0,1,6.5,6.5v15A6.53,6.53,0,0,1,502.5,269Z" style="fill: #e6e6e6"/>
    <path d="M532.5,299h-15a6.53,6.53,0,0,1-6.5-6.5v-15a6.53,6.53,0,0,1,6.5-6.5h15a6.53,6.53,0,0,1,6.5,6.5v15A6.53,6.53,0,0,1,532.5,299Z" style="fill: #e6e6e6"/>
    <path d="M502.5,329h-15a6.53,6.53,0,0,1-6.5-6.5v-15a6.53,6.53,0,0,1,6.5-6.5h15a6.53,6.53,0,0,1,6.5,6.5v15A6.53,6.53,0,0,1,502.5,329Z" style="fill: #e6e6e6"/>
    <path d="M532.5,359h-15a6.53,6.53,0,0,1-6.5-6.5v-15a6.53,6.53,0,0,1,6.5-6.5h15a6.53,6.53,0,0,1,6.5,6.5v15A6.53,6.53,0,0,1,532.5,359Z" style="fill: #e6e6e6"/>
    <path d="M502.5,389h-15a6.53,6.53,0,0,1-6.5-6.5v-15a6.53,6.53,0,0,1,6.5-6.5h15a6.53,6.53,0,0,1,6.5,6.5v15A6.53,6.53,0,0,1,502.5,389Z" style="fill: #e6e6e6"/>
    <path d="M532.5,419h-15a6.53,6.53,0,0,1-6.5-6.5v-15a6.53,6.53,0,0,1,6.5-6.5h15a6.53,6.53,0,0,1,6.5,6.5v15A6.53,6.53,0,0,1,532.5,419Z" style="fill: #e6e6e6"/>
  </g>
  <rect width="540" height="420" style="fill: #cee7ed;fill-opacity: 0.3"/>
</svg>
