<svg version="1.1" xmlns="http://www.w3.org/2000/svg" xmlns:xlink="http://www.w3.org/1999/xlink" width="20" height="26.21005" viewBox="0,0,20,26.21005"><g transform="translate(-229.5,-166)"><g data-paper-data="{&quot;isPaintingLayer&quot;:true}" fill-rule="nonzero" stroke="none" stroke-linecap="butt" stroke-linejoin="miter" stroke-miterlimit="10" stroke-dasharray="" stroke-dashoffset="0" style="mix-blend-mode: normal"><path d="M234.27629,187.55001c1.0617,0.32368 2.16083,0.50855 3.27,0.55c1.51,0 2.23,-0.48 2.23,-1.3c0,-0.82 -0.7,-1.29 -2.74,-1.29c-0.36783,-0.00158 -0.73534,0.02181 -1.1,0.07l-1.66,-1.27l1,-9h10l0.07,4.28h-5.38l-0.17,1.8c4,0.05 5.84,2.25 5.84,4.82c0,3.36 -2.38,6 -7.23,6c-1.53823,0.00362 -3.06839,-0.2222 -4.54,-0.67z" fill-opacity="0.2" fill="#000000" stroke-width="1"/><g stroke-width="1"><path d="M234.27629,184.55001c1.0617,0.32368 2.16083,0.50855 3.27,0.55c1.51,0 2.23,-0.48 2.23,-1.3c0,-0.82 -0.7,-1.29 -2.74,-1.29c-0.36783,-0.00158 -0.73534,0.02181 -1.1,0.07l-1.66,-1.27l1,-9h10l0.08,4.28h-5.38l-0.17,1.8c4,0.05 5.83,2.25 5.83,4.82c0,3.36 -2.37,6 -7.22,6c-1.53823,0.00362 -3.06839,-0.2222 -4.54,-0.67z" fill="#ffff00"/><path d="M238.4063,189.73001c-1.58942,0.00091 -3.17011,-0.23501 -4.69,-0.7l-0.38,-0.12l0.51,-5l0.57,0.17c1.01548,0.31359 2.06789,0.49179 3.13,0.53c0.79,0 1.73,-0.14 1.73,-0.8c0,-0.66 -1.22,-0.79 -2.24,-0.79c-0.33455,0.0003 -0.66867,0.02369 -1,0.07h-0.2l-2.05,-1.57l1.04,-9.67h10.9l0.09,5.28h-5.39l-0.08,0.82c4.26,0.26 5.78,3 5.78,5.3c0,3.13 -2.02,6.48 -7.72,6.48zM234.4063,188.20001c1.30461,0.34986 2.64929,0.52803 4,0.53c4.21,0 6.72,-2.05 6.72,-5.48c0,-2.63 -2,-4.28 -5.33,-4.32h-0.55l0.27,-2.79h5.31v-3.29h-9l-1,8.23l1.27,1c0.32,0 0.64,-0.05 1,-0.05c2.15,0 3.24,0.6 3.24,1.79c0,0.67 -0.36,1.8 -2.73,1.8c-0.95662,-0.02769 -1.90658,-0.16867 -2.83,-0.42z" fill="#000000"/></g><path d="M229.5,192v-26h20v26z" fill="none" stroke-width="0"/></g></g></svg>