<svg xmlns="http://www.w3.org/2000/svg" viewBox="0 0 153 41"><defs><style>.cls-1{opacity:0.1;}.cls-2{fill:#fff;opacity:0.95;}</style></defs><g id="Explosion"><path class="cls-1" d="M146.65,41H6.35A6.37,6.37,0,0,1,0,34.65V8.35A6.37,6.37,0,0,1,6.35,2h140.3A6.37,6.37,0,0,1,153,8.35v26.3A6.37,6.37,0,0,1,146.65,41Z"/><path class="cls-2" d="M146.65,39H6.35A6.37,6.37,0,0,1,0,32.65V6.35A6.37,6.37,0,0,1,6.35,0h140.3A6.37,6.37,0,0,1,153,6.35v26.3A6.37,6.37,0,0,1,146.65,39Z"/><path d="M25.65,22.82c0-.75-.81-1-2.3-1.42-1.64-.45-3.62-1.21-3.62-3.46,0-2.09,1.53-3.47,4.32-3.47a8.5,8.5,0,0,1,4.21,1l-.55,2.36a8.33,8.33,0,0,0-3.64-1c-1,0-1.48.34-1.48,1s1,1,2.38,1.41c1.73.46,3.53,1.26,3.53,3.4s-1.66,3.65-4.61,3.65a9.27,9.27,0,0,1-4.34-1l.54-2.38a8.31,8.31,0,0,0,3.85,1C25,23.88,25.65,23.51,25.65,22.82Z"/><path d="M41.3,26H38.45l-.83-2.39H33.45L32.64,26H29.79l4-11.25h3.58Zm-5.75-9-1.49,4.41H37Z"/><path d="M48.4,26H44.82L41,14.72h3l2.66,8.48,2.65-8.48h3Z"/><path d="M54.09,26V14.72h8.23V17H56.9v2.17h4.36v2.28H56.9v2.2h5.42V26Z"/><path d="M72.38,26H69.52V14.72H74c3,0,4.55,1.39,4.55,3.57a3.3,3.3,0,0,1-2.3,3.24L79.17,26H75.94l-2.25-3.78-1.31.11Zm1.39-5.83c1.22-.09,1.89-.59,1.89-1.67S75,17,73.53,17H72.32v3.19Z"/><path d="M81.2,26V14.72h8.23V17H84v2.17h4.35v2.28H84v2.2h5.42V26Z"/><path d="M95.9,22.7H94.81V26H91.94V14.72H96.1c3.15,0,4.81,1.58,4.81,3.91C100.91,21.26,99.13,22.7,95.9,22.7Zm0-5.71H94.73V20.5l1.16,0c1.47,0,2.18-.65,2.18-1.78S97.33,17,95.89,17Z"/><path d="M103.21,26V14.72h2.86v8.86h4.72V26Z"/><path d="M123.52,26h-2.85l-.82-2.39h-4.18L114.86,26H112l4-11.25h3.58Zm-5.75-9-1.49,4.41h2.94Z"/><path d="M129.89,21.71V26h-2.81V21.69l-3.92-7h3l2.32,4.45,2.25-4.45h3Z"/></g></svg>