<svg version="1.1" xmlns="http://www.w3.org/2000/svg" xmlns:xlink="http://www.w3.org/1999/xlink" width="20" height="26" viewBox="0,0,20,26"><g transform="translate(-229.5,-166)"><g data-paper-data="{&quot;isPaintingLayer&quot;:true}" fill-rule="nonzero" stroke="none" stroke-linecap="butt" stroke-linejoin="miter" stroke-miterlimit="10" stroke-dasharray="" stroke-dashoffset="0" style="mix-blend-mode: normal"><path d="M246.60916,181.61029c0,3.96 -2.6,6.45 -7.11,6.45c-4.51,0 -6.91,-2.4 -6.91,-6.36c0,-3.96 2.59,-6.46 7.1,-6.46c4.51,0 6.92,2.41 6.92,6.37zM240.69916,181.63029c0,-1.46 -0.35,-2.26 -1.1,-2.26c-0.75,0 -1.11,0.85 -1.11,2.31c0,1.46 0.34,2.25 1.11,2.25c0.74,0 1.1,-0.84 1.1,-2.3z" fill-opacity="0.2" fill="#000000" stroke-width="1"/><g stroke-width="1"><path d="M239.49916,185.06029c-4.51,0 -6.91,-2.37 -6.91,-6.36c0,-3.99 2.59,-6.46 7.1,-6.46c4.51,0 6.92,2.38 6.92,6.37c0,3.99 -2.6,6.45 -7.11,6.45zM240.69916,178.63029c0,-1.46 -0.36,-2.26 -1.1,-2.26c-0.74,0 -1.11,0.82 -1.11,2.31c0,1.49 0.34,2.25 1.11,2.25c0.77,0 1.1,-0.79 1.1,-2.3z" fill="#ffff00"/><path d="M239.49916,185.56029c-4.71,0 -7.41,-2.5 -7.41,-6.86c0,-4.36 2.91,-7 7.6,-7c4.69,0 7.42,2.51 7.42,6.87c0,4.36 -2.92,6.99 -7.61,6.99zM239.68916,172.74029c-4.13,0 -6.6,2.23 -6.6,6c0,3.77 2.28,5.86 6.41,5.86c4.13,0 6.61,-2.22 6.61,-5.95c0,-3.73 -2.28,-5.91 -6.42,-5.91zM239.59916,181.43029c-1.07,0 -1.61,-0.92 -1.61,-2.75c0,-2.32 0.87,-2.81 1.61,-2.81c0.74,0 1.6,0.48 1.6,2.76c0,2.28 -0.87,2.8 -1.6,2.8zM239.59916,176.87029c-0.56,0 -0.61,1.38 -0.61,1.81c0,0.8 0.11,1.75 0.61,1.75c0.5,0 0.6,-1.26 0.6,-1.8c0,-0.54 -0.06,-1.79 -0.6,-1.79z" fill="#000000"/></g><path d="M229.5,192v-26h20v26z" fill="none" stroke-width="0"/></g></g></svg>