<svg xmlns="http://www.w3.org/2000/svg" viewBox="0 0 41 41"><defs><style>.cls-1{fill-opacity:0.2;}.cls-2{fill:#ff0;}</style></defs><g id="Explosion"><rect x="12.38" y="9.76" width="8" height="17" rx="2.49"/><rect class="cls-1" x="12.38" y="11.76" width="8" height="17" rx="2.49"/><rect class="cls-1" x="21.38" y="11.76" width="8" height="17" rx="2.49"/><rect x="21.38" y="9.76" width="8" height="17" rx="2.49"/><path class="cls-2" d="M17.9,25.76h-3a1.49,1.49,0,0,1-1.49-1.48v-12a1.49,1.49,0,0,1,1.49-1.49h3a1.49,1.49,0,0,1,1.48,1.49v12A1.48,1.48,0,0,1,17.9,25.76Zm10.48-1.48v-12a1.49,1.49,0,0,0-1.48-1.49h-3a1.49,1.49,0,0,0-1.49,1.49v12a1.49,1.49,0,0,0,1.49,1.48h3A1.48,1.48,0,0,0,28.38,24.28Z"/><path class="cls-2" d="M17.9,25.76h-3a1.49,1.49,0,0,1-1.49-1.48v-12a1.49,1.49,0,0,1,1.49-1.49h3a1.49,1.49,0,0,1,1.48,1.49v12A1.48,1.48,0,0,1,17.9,25.76Z"/><path class="cls-2" d="M28.38,24.28v-12a1.49,1.49,0,0,0-1.48-1.49h-3a1.49,1.49,0,0,0-1.49,1.49v12a1.49,1.49,0,0,0,1.49,1.48h3A1.48,1.48,0,0,0,28.38,24.28Z"/></g></svg>