<svg id="Layer_1" data-name="Layer 1" xmlns="http://www.w3.org/2000/svg" viewBox="0 0 480 360"><defs><style>.cls-1{fill:none;stroke:#fff;stroke-width:4px;}</style></defs><path class="cls-1" d="M134.91,119.65c4.56,0,9.29,1,11.85,2.33v14.86a22.8,22.8,0,0,0-10-2.56c-5.67,0-8.73,2.72-8.73,6.45s3.06,6.4,8.73,6.4A21.64,21.64,0,0,0,147,144.46v14.19c-2.61,1.39-7.45,2.5-12.24,2.5-13.46,0-23.31-8.79-23.31-20.75S121.22,119.65,134.91,119.65Z"/><path class="cls-1" d="M151.49,142.23v-22h16.58v20.86c0,3.78,1.22,6.45,5.06,6.45,3.67,0,5-2.33,5-6.39V120.26H193V142c0,6.18-1.55,10.07-3.67,12.63-3.67,4.45-10.35,6.51-17.19,6.51-7.06,0-13.29-2.23-16.85-6.4C153.27,152.42,151.49,148.8,151.49,142.23Z"/><path class="cls-1" d="M198,144.18c5.4,3.51,10.85,4.78,13.24,4.78,1.67,0,2.06-.66,2.06-1.33s-.5-1.11-1.22-1.28c-1.95-.5-7.57-1.11-11.69-4.73a10.62,10.62,0,0,1-3.56-8.4c0-8.07,6.23-13.57,16.41-13.57a34.49,34.49,0,0,1,14.36,3.17V136a31.93,31.93,0,0,0-12.19-3.56c-1.61,0-2.05.61-2.05,1.23,0,.83.61,1.16,1.27,1.39,1.67.5,7.24,1.17,11.19,4.28a10.6,10.6,0,0,1,4.06,8.68c0,7.73-6.23,13.13-16.8,13.13-5.07,0-11.13-1.23-15.08-3.28Z"/><path class="cls-1" d="M242.18,133.94H231V120.26H270v13.68H258.76v26.6H242.18Z"/><path class="cls-1" d="M294.82,119.65c12.63,0,22.47,9.06,22.47,20.75s-9.84,20.75-22.47,20.75-22.48-9.07-22.48-20.75S282.19,119.65,294.82,119.65Zm0,27.26a6.23,6.23,0,1,0-6.23-6.23A6.22,6.22,0,0,0,294.82,146.91Z"/><path class="cls-1" d="M321.31,120.26h15.46l8,10.12,7.74-10.12h15v40.28H351V140.9h-.11l-7.18,9.46-7.34-9.46h-.11v19.64H321.31Z"/><path class="cls-1" d="M151.52,187H168.1v26h12.46v14.3h-29Z"/><path class="cls-1" d="M184.9,187h29v13.46H201.48v2.17h10v9.57h-10v2.28h13.19v12.8H184.9Z"/><path class="cls-1" d="M216.68,187h17.91l5.95,21.36h.11L247,187h16.19l-15.42,40.28H232.09Z"/><path class="cls-1" d="M266,187h29v13.46H282.55v2.17h10v9.57h-10v2.28h13.19v12.8H266Z"/><path class="cls-1" d="M299.86,187h16.58v26H328.9v14.3h-29Z"/><path d="M134.91,119.65c4.56,0,9.29,1,11.85,2.33v14.86a22.8,22.8,0,0,0-10-2.56c-5.67,0-8.73,2.72-8.73,6.45s3.06,6.4,8.73,6.4A21.64,21.64,0,0,0,147,144.46v14.19c-2.61,1.39-7.45,2.5-12.24,2.5-13.46,0-23.31-8.79-23.31-20.75S121.22,119.65,134.91,119.65Z"/><path d="M151.49,142.23v-22h16.58v20.86c0,3.78,1.22,6.45,5.06,6.45,3.67,0,5-2.33,5-6.39V120.26H193V142c0,6.18-1.55,10.07-3.67,12.63-3.67,4.45-10.35,6.51-17.19,6.51-7.06,0-13.29-2.23-16.85-6.4C153.27,152.42,151.49,148.8,151.49,142.23Z"/><path d="M198,144.18c5.4,3.51,10.85,4.78,13.24,4.78,1.67,0,2.06-.66,2.06-1.33s-.5-1.11-1.22-1.28c-1.95-.5-7.57-1.11-11.69-4.73a10.62,10.62,0,0,1-3.56-8.4c0-8.07,6.23-13.57,16.41-13.57a34.49,34.49,0,0,1,14.36,3.17V136a31.93,31.93,0,0,0-12.19-3.56c-1.61,0-2.05.61-2.05,1.23,0,.83.61,1.16,1.27,1.39,1.67.5,7.24,1.17,11.19,4.28a10.6,10.6,0,0,1,4.06,8.68c0,7.73-6.23,13.13-16.8,13.13-5.07,0-11.13-1.23-15.08-3.28Z"/><path d="M242.18,133.94H231V120.26H270v13.68H258.76v26.6H242.18Z"/><path d="M294.82,119.65c12.63,0,22.47,9.06,22.47,20.75s-9.84,20.75-22.47,20.75-22.48-9.07-22.48-20.75S282.19,119.65,294.82,119.65Zm0,27.26a6.23,6.23,0,1,0-6.23-6.23A6.22,6.22,0,0,0,294.82,146.91Z"/><path d="M321.31,120.26h15.46l8,10.12,7.74-10.12h15v40.28H351V140.9h-.11l-7.18,9.46-7.34-9.46h-.11v19.64H321.31Z"/><path d="M151.52,187H168.1v26h12.46v14.3h-29Z"/><path d="M184.9,187h29v13.46H201.48v2.17h10v9.57h-10v2.28h13.19v12.8H184.9Z"/><path d="M216.68,187h17.91l5.95,21.36h.11L247,187h16.19l-15.42,40.28H232.09Z"/><path d="M266,187h29v13.46H282.55v2.17h10v9.57h-10v2.28h13.19v12.8H266Z"/><path d="M299.86,187h16.58v26H328.9v14.3h-29Z"/></svg>