<svg version="1.1" xmlns="http://www.w3.org/2000/svg" xmlns:xlink="http://www.w3.org/1999/xlink" width="153" height="41" viewBox="0,0,153,41"><g transform="translate(-163.5,-159.5)"><g data-paper-data="{&quot;isPaintingLayer&quot;:true}" fill-rule="nonzero" stroke="none" stroke-width="1" stroke-linecap="butt" stroke-linejoin="miter" stroke-miterlimit="10" stroke-dasharray="" stroke-dashoffset="0" style="mix-blend-mode: normal"><path d="M310.15,200.5h-140.3c-3.50245,-0.01098 -6.33902,-2.84755 -6.35,-6.35v-26.3c0.01098,-3.50245 2.84755,-6.33902 6.35,-6.35h140.3c3.50245,0.01098 6.33902,2.84755 6.35,6.35v26.3c-0.01098,3.50245 -2.84755,6.33902 -6.35,6.35z" fill="#000000" opacity="0.1"/><path d="M310.15,198.5h-140.3c-3.50245,-0.01098 -6.33902,-2.84755 -6.35,-6.35v-26.3c0.01098,-3.50245 2.84755,-6.33902 6.35,-6.35h140.3c3.50245,0.01098 6.33902,2.84755 6.35,6.35v26.3c-0.01098,3.50245 -2.84755,6.33902 -6.35,6.35z" fill="#ffff87" opacity="0.95"/><path d="M205.12,184.74h-2.87v-11.24h4.52c3,0 4.56,1.39 4.56,3.57c0.04096,1.47499 -0.90223,2.7979 -2.31,3.24l2.89,4.45h-3.23l-2.25,-3.78l-1.31,0.11zM206.5,178.9c1.23,-0.09 1.89,-0.59 1.89,-1.67c0,-1.08 -0.68,-1.48 -2.12,-1.48h-1.21v3.19z" fill="#000000"/><path d="M213.94,184.74v-11.24h8.23v2.31h-5.42v2.16h4.35v2.29h-4.35v2.19h5.42v2.31z" fill="#000000"/><path d="M230.14,181.59c0,-0.76 -0.81,-1 -2.31,-1.42c-1.5,-0.42 -3.62,-1.21 -3.62,-3.46c0,-2.09 1.53,-3.48 4.33,-3.48c1.46558,-0.03049 2.91468,0.31371 4.21,1l-0.56,2.36c-1.12214,-0.6042 -2.36667,-0.9461 -3.64,-1c-1,0 -1.47,0.34 -1.47,1c0,0.66 1,1 2.37,1.4c1.73,0.47 3.53,1.26 3.53,3.4c0,2.14 -1.65,3.66 -4.61,3.66c-1.50669,0.02674 -2.99693,-0.31663 -4.34,-1l0.54,-2.37c1.18833,0.63685 2.51193,0.97975 3.86,1c1.01,-0.03 1.71,-0.41 1.71,-1.09z" fill="#000000"/><path d="M240.79,175.88v8.86h-2.86v-8.86h-3.58v-2.38h10v2.4z" fill="#000000"/><path d="M255.72,184.74h-2.85l-0.83,-2.4h-4.17l-0.81,2.4h-2.85l4,-11.26h3.58zM249.97,175.74l-1.47,4.37h2.93z" fill="#000000"/><path d="M260.36,184.74h-2.86v-11.24h4.52c3,0 4.55,1.39 4.55,3.57c0.04228,1.47225 -0.8962,2.79429 -2.3,3.24l2.88,4.45h-3.23l-2.25,-3.78l-1.31,0.11zM261.75,178.9c1.22,-0.09 1.89,-0.59 1.89,-1.67c0,-1.08 -0.69,-1.48 -2.13,-1.48h-1.21v3.19z" fill="#000000"/><path d="M274.35,175.88v8.86h-2.85v-8.86h-3.6v-2.38h10v2.4z" fill="#000000"/></g></g></svg>