<svg version="1.1" xmlns="http://www.w3.org/2000/svg" xmlns:xlink="http://www.w3.org/1999/xlink" width="40.67658" height="41.625" viewBox="0,0,40.67658,41.625"><g transform="translate(-220.34731,-157.96656)"><g data-paper-data="{&quot;isPaintingLayer&quot;:true}" fill-rule="nonzero" stroke-linecap="butt" stroke-miterlimit="10" stroke-dasharray="" stroke-dashoffset="0" style="mix-blend-mode: normal"><path d="M220.34731,199.59156v-41.625h40.67658v41.625z" fill="none" stroke="none" stroke-width="0" stroke-linejoin="miter"/><path d="M253.59622,179.48801c-0.76716,10.4368 -5.90126,16.33808 -13.48861,15.17469c-8.43037,1.16339 -12.81417,-4.69572 -13.48861,-15.17469c-0.67443,-11.05222 8.96992,-12.45166 13.48861,-9.34086c4.48496,-3.1108 14.12931,-0.2192 13.48861,9.34086z" fill="#ff7336" stroke="#000000" stroke-width="2" stroke-linejoin="round"/><path d="M242.35009,162.43335c0,1.92213 -2.24248,7.67165 -2.24248,7.67165" fill="none" stroke="#000000" stroke-width="2" stroke-linejoin="round"/><path d="M231.08308,177.2131c-1.05808,-0.99369 -0.9524,-2.82508 0.23604,-4.09051c1.18843,-1.26543 3.00959,-1.48572 4.06767,-0.49203c1.05808,0.99369 0.9524,2.82508 -0.23604,4.09052c-1.18843,1.26543 -3.00959,1.48572 -4.06767,0.49203z" fill="#ffffff" stroke="none" stroke-width="1" stroke-linejoin="miter"/></g></g></svg>