<svg version="1.1" xmlns="http://www.w3.org/2000/svg" xmlns:xlink="http://www.w3.org/1999/xlink" width="263.22212" height="91.41347" viewBox="0,0,263.22212,91.41347"><g transform="translate(-108.38788,-133.88608)"><g data-paper-data="{&quot;isPaintingLayer&quot;:true}" fill-rule="nonzero" stroke-linecap="butt" stroke-linejoin="miter" stroke-miterlimit="10" stroke-dasharray="" stroke-dashoffset="0" style="mix-blend-mode: normal"><path d="M110.39,137.09955h19.44v30.46h14.61v16.77h-34z" fill="none" stroke="#ffffff" stroke-width="4"/><path d="M149.52,137.09955h34v15.78h-14.56v2.55h11.74v11.22h-11.74v2.67h15.46v15h-34.9z" fill="none" stroke="#ffffff" stroke-width="4"/><path d="M186.77,137.09955h21l7,25h0.13l7.44,-25h19l-18.07,47.23h-18.43z" fill="none" stroke="#ffffff" stroke-width="4"/><path d="M244.56,137.09955h34v15.78h-14.56v2.55h11.74v11.22h-11.74v2.67h15.46v15h-34.9z" fill="none" stroke="#ffffff" stroke-width="4"/><path d="M284.29,137.09955h19.44v30.46h14.61v16.77h-34.05z" fill="none" stroke="#ffffff" stroke-width="4"/><path d="M350.17,156.98955l-7.7,1.63v-16.45l27.14,-5.81v48h-19.44z" fill="none" stroke="#ffffff" stroke-width="4"/><path d="M112.62,212.94955c4.45026,1.74766 9.15486,2.76086 13.93,3c1.75,0 2.16,-0.42 2.16,-0.84c0,-0.42 -0.52,-0.71 -1.28,-0.81c-2,-0.32 -8,-0.71 -12.3,-3c-2.22,-1.2 -3.74,-2.85 -3.74,-5.31c0,-5.1 6.55,-8.58 17.27,-8.58c5.10014,-0.01188 10.17881,0.66079 15.1,2v8.34c-4.16051,-1.29267 -8.46826,-2.05207 -12.82,-2.26c-1.7,0 -2.17,0.39 -2.17,0.78c0,0.39 0.65,0.74 1.35,0.88c1.76,0.31 7.61,0.74 11.76,2.71c2.87,1.4 4.28,3.2 4.28,5.48c0,4.89 -6.56,8.3 -17.68,8.3c-5.3559,0.02953 -10.6911,-0.66681 -15.86,-2.07z" fill="none" stroke="#ffffff" stroke-width="4"/><path d="M155.7,197.81955h16c10.18,0 21.6,1.76 21.6,9c0,6.54 -9.14,9.18 -19.61,9.18h-0.57v7.25h-17.42zM173.61,209.56955c3,0 4.39,-1 4.39,-2.15c0,-1.15 -1.46,-2.14 -4.39,-2.14h-0.49v4.29z" fill="none" stroke="#ffffff" stroke-width="4"/><path d="M202.94,197.81955h17.44v25.47h-17.44z" fill="none" stroke="#ffffff" stroke-width="4"/><path d="M231.38,197.81955h17.45v10.62h0.11l7.2,-10.66h19.08l-10,11.82l10.83,13.65h-19.62l-7.49,-12h-0.11v12h-17.45z" fill="none" stroke="#ffffff" stroke-width="4"/><path d="M285.06,197.81955h30.49v8.51h-13.05v1.38h10.54v6h-10.54v1.46h13.87v8.09h-31.31z" fill="none" stroke="#ffffff" stroke-width="4"/><path d="M326.56,223.28955v-25.47h17.73c8.2,0 14.52,1.51 18.79,4c3.75,2.14 6.15,5.06 6.15,8.75c0,3.52 -2.22,6.55 -6,8.73c-4.39,2.53 -10.77,4 -18.79,4zM344,214.98955h0.41c2.27743,0.11728 4.54417,-0.38375 6.56,-1.45c1.13121,-0.58546 1.86616,-1.72787 1.93,-3c-0.06293,-1.28765 -0.79509,-2.44847 -1.93,-3.06c-1.23,-0.77 -3.22,-1.37 -6.44,-1.37h-0.53z" fill="none" stroke="#ffffff" stroke-width="4"/><path d="M110.39,137.09955h19.44v30.46h14.61v16.77h-34z" fill="#000000" stroke="none" stroke-width="1"/><path d="M149.52,137.09955h34v15.78h-14.56v2.55h11.74v11.22h-11.74v2.67h15.46v15h-34.9z" fill="#000000" stroke="none" stroke-width="1"/><path d="M186.77,137.09955h21l7,25h0.13l7.44,-25h19l-18.07,47.23h-18.43z" fill="#000000" stroke="none" stroke-width="1"/><path d="M244.56,137.09955h34v15.78h-14.56v2.55h11.74v11.22h-11.74v2.67h15.46v15h-34.9z" fill="#000000" stroke="none" stroke-width="1"/><path d="M284.29,137.09955h19.44v30.46h14.61v16.77h-34.05z" fill="#000000" stroke="none" stroke-width="1"/><path d="M350.17,156.98955l-7.7,1.63v-16.45l27.14,-5.81v48h-19.44z" fill="#000000" stroke="none" stroke-width="1"/><path d="M112.62,212.94955c4.45026,1.74766 9.15486,2.76086 13.93,3c1.75,0 2.16,-0.42 2.16,-0.84c0,-0.42 -0.52,-0.71 -1.28,-0.81c-2,-0.32 -8,-0.71 -12.3,-3c-2.22,-1.2 -3.74,-2.85 -3.74,-5.31c0,-5.1 6.55,-8.58 17.27,-8.58c5.10014,-0.01188 10.17881,0.66079 15.1,2v8.34c-4.16051,-1.29267 -8.46826,-2.05207 -12.82,-2.26c-1.7,0 -2.17,0.39 -2.17,0.78c0,0.39 0.65,0.74 1.35,0.88c1.76,0.31 7.61,0.74 11.76,2.71c2.87,1.4 4.28,3.2 4.28,5.48c0,4.89 -6.56,8.3 -17.68,8.3c-5.3559,0.02953 -10.6911,-0.66681 -15.86,-2.07z" fill="#000000" stroke="none" stroke-width="1"/><path d="M155.7,197.81955h16c10.18,0 21.6,1.76 21.6,9c0,6.54 -9.14,9.18 -19.61,9.18h-0.57v7.25h-17.42zM173.61,209.56955c3,0 4.39,-1 4.39,-2.15c0,-1.15 -1.46,-2.14 -4.39,-2.14h-0.49v4.29z" fill="#000000" stroke="none" stroke-width="1"/><path d="M202.94,197.81955h17.44v25.47h-17.44z" fill="#000000" stroke="none" stroke-width="1"/><path d="M231.38,197.81955h17.45v10.62h0.11l7.2,-10.66h19.08l-10,11.82l10.83,13.65h-19.62l-7.49,-12h-0.11v12h-17.45z" fill="#000000" stroke="none" stroke-width="1"/><path d="M285.06,197.81955h30.49v8.51h-13.05v1.38h10.54v6h-10.54v1.46h13.87v8.09h-31.31z" fill="#000000" stroke="none" stroke-width="1"/><path d="M326.56,223.28955v-25.47h17.73c8.2,0 14.52,1.51 18.79,4c3.75,2.14 6.15,5.06 6.15,8.75c0,3.52 -2.22,6.55 -6,8.73c-4.39,2.53 -10.77,4 -18.79,4zM344,214.98955h0.41c2.27743,0.11728 4.54417,-0.38375 6.56,-1.45c1.13121,-0.58546 1.86616,-1.72787 1.93,-3c-0.06293,-1.28765 -0.79509,-2.44847 -1.93,-3.06c-1.23,-0.77 -3.22,-1.37 -6.44,-1.37h-0.53z" fill="#000000" stroke="none" stroke-width="1"/></g></g></svg>