<svg version="1.1" xmlns="http://www.w3.org/2000/svg" xmlns:xlink="http://www.w3.org/1999/xlink" width="19" height="21" viewBox="0,0,19,21"><g transform="translate(-231.5,-169)"><g data-paper-data="{&quot;isPaintingLayer&quot;:true}" fill-rule="nonzero" stroke="none" stroke-linecap="butt" stroke-linejoin="miter" stroke-miterlimit="10" stroke-dasharray="" stroke-dashoffset="0" style="mix-blend-mode: normal"><path d="M241.10909,183c-0.42872,-0.00904 -0.85358,-0.08322 -1.26,-0.22l-1.74,0.22v-8.11l1.85,-0.23v3.15c0.39948,-0.45321 0.96642,-0.72404 1.57,-0.75c1.38,0 2.38,1.13 2.38,2.9c0.05814,0.78104 -0.21,1.55126 -0.7406,2.12734c-0.5306,0.57608 -1.27622,0.90652 -2.0594,0.91266zM240.89909,178.55c-0.35309,-0.002 -0.69203,0.13863 -0.94,0.39v2.46c0.25621,0.15373 0.55138,0.23012 0.85,0.22c0.79,0 1.25,-0.62 1.25,-1.54c0,-0.92 -0.41,-1.55 -1.16,-1.55z" fill="#000000" stroke-width="1"/><path d="M231.5,190v-21h19v21z" fill="none" stroke-width="0"/></g></g></svg>