<svg version="1.1" xmlns="http://www.w3.org/2000/svg" xmlns:xlink="http://www.w3.org/1999/xlink" width="277.25235" height="91.32" viewBox="0,0,277.25235,91.32"><g transform="translate(-104.91877,-134.30344)"><g data-paper-data="{&quot;isPaintingLayer&quot;:true}" fill-rule="nonzero" stroke-linecap="butt" stroke-linejoin="miter" stroke-miterlimit="10" stroke-dasharray="" stroke-dashoffset="0" style="mix-blend-mode: normal"><path d="M352.38877,169.11344c-0.66503,0.05758 -1.33257,0.08095 -2,0.07c-9.07,0 -16.11,-6.26 -16.11,-15.33c0,-10.31 9,-17.55 20.81,-17.55c11.35,0 21.07,6.72 21.07,18.72c0,6.39 -2.74,11.74 -6.27,16.44l-9.65,12.79h-20.37zM358.45877,154.37344c0.01213,-1.31179 -0.77036,-2.50063 -1.98001,-3.00825c-1.20966,-0.50762 -2.60619,-0.23319 -3.5338,0.69443c-0.92762,0.92762 -1.20205,2.32415 -0.69443,3.5338c0.50762,1.20966 1.69645,1.99214 3.00825,1.98001c1.75506,-0.01077 3.17823,-1.42505 3.2,-3.18z" fill="none" stroke="#ffffff" stroke-width="4"/><path d="M106.91877,211.65344v-13.89h10.81v13.19c0,2.39 0.79,4.08 3.3,4.08c2.51,0 3.22,-1.48 3.22,-4v-13.27h9.72v13.75c0,3.91 -1,6.37 -2.39,8c-2.4,2.81 -6.75,4.11 -11.21,4.11c-4.46,0 -8.66,-1.4 -11,-4c-1.31,-1.51 -2.45,-3.81 -2.45,-7.97z" fill="none" stroke="#ffffff" stroke-width="4"/><path d="M137.11877,197.76344h9.83l7.72,10.87h0.07v-10.87h9.72v25.47h-9.82l-7.73,-10.87h-0.07v10.84h-9.72z" fill="none" stroke="#ffffff" stroke-width="4"/><path d="M167.64877,197.76344h10.52c3.95,0 12.29,0.39 12.29,6.47c0,2.15 -1.06,4.12 -4,5.1v0.07c3.81,1.38 4.68,3.77 4.68,6.05c0,6.72 -7.4,7.78 -12.51,7.78h-11zM178.84877,208.11344c1.38,0 2,-0.7 2,-1.58c0,-0.88 -0.68,-1.58 -2,-1.58h-0.39v3.16zM178.92877,216.41344c1.7,0 2.5,-0.88 2.5,-2c0,-1.12 -0.84,-2 -2.5,-2h-0.47v3.94z" fill="none" stroke="#ffffff" stroke-width="4"/><path d="M200.85877,197.76344h10.33l10,25.47h-11.66l-0.91,-3.34h-6l-1,3.34h-10.76zM206.85877,213.48344l-1.16,-5.17h-0.07l-1.16,5.17z" fill="none" stroke="#ffffff" stroke-width="4"/><path d="M223.05877,197.76344h10.8v16.43h8.12v9h-18.92z" fill="none" stroke="#ffffff" stroke-width="4"/><path d="M253.39877,197.76344h10.33l10,25.47h-11.67l-0.9,-3.34h-6l-1,3.34h-10.77zM259.39877,213.48344l-1.16,-5.17h-0.08l-1.1,5.17z" fill="none" stroke="#ffffff" stroke-width="4"/><path d="M275.54877,197.76344h9.82l7.69,10.87h0.07v-10.87h9.72v25.47h-9.79l-7.72,-10.87h-0.07v10.84h-9.72z" fill="none" stroke="#ffffff" stroke-width="4"/><path d="M320.79877,197.38344c2.64704,-0.04608 5.27513,0.45435 7.72,1.47v9.39c-2.02914,-1.01753 -4.26042,-1.56766 -6.53,-1.61c-3.69,0 -5.69,1.72 -5.69,4.07c0,2.35 2,4 5.69,4c2.31902,0.01559 4.6074,-0.52992 6.67,-1.59v9c-2.52361,1.09073 -5.25121,1.62944 -8,1.58c-8.78,0 -15.19,-5.55 -15.19,-13.12c0,-7.57 6.41,-13.19 15.33,-13.19z" fill="none" stroke="#ffffff" stroke-width="4"/><path d="M331.63877,197.76344h18.89v8.51h-8.09v1.38h6.53v6h-6.53v1.46h8.62v8.09h-19.42z" fill="none" stroke="#ffffff" stroke-width="4"/><path d="M353.71877,223.23344v-25.47h11c5.08,0 9,1.51 11.64,4c2.41958,2.25813 3.79911,5.41529 3.81237,8.72487c0.01325,3.30958 -1.34095,6.47769 -3.74237,8.75513c-2.72,2.53 -6.67,4 -11.63,4zM364.51877,214.93344h0.26c1.4931,0.08123 2.95616,-0.44129 4.06,-1.45c0.78038,-0.8016 1.20871,-1.88142 1.19,-3c0.02042,-1.13667 -0.40701,-2.23577 -1.19,-3.06c-1.08928,-0.98547 -2.53527,-1.48073 -4,-1.37h-0.33z" fill="none" stroke="#ffffff" stroke-width="4"/><path d="M352.38877,169.11344c-0.66503,0.05758 -1.33257,0.08095 -2,0.07c-9.07,0 -16.11,-6.26 -16.11,-15.33c0,-10.31 9,-17.55 20.81,-17.55c11.35,0 21.07,6.72 21.07,18.72c0,6.39 -2.74,11.74 -6.27,16.44l-9.65,12.79h-20.37zM358.45877,154.37344c0.01213,-1.31179 -0.77036,-2.50063 -1.98001,-3.00825c-1.20966,-0.50762 -2.60619,-0.23319 -3.5338,0.69443c-0.92762,0.92762 -1.20205,2.32415 -0.69443,3.5338c0.50762,1.20966 1.69645,1.99214 3.00825,1.98001c1.75506,-0.01077 3.17823,-1.42505 3.2,-3.18z" fill="#000000" stroke="none" stroke-width="1"/><path d="M106.91877,211.65344v-13.89h10.81v13.19c0,2.39 0.79,4.08 3.3,4.08c2.51,0 3.22,-1.48 3.22,-4v-13.27h9.72v13.75c0,3.91 -1,6.37 -2.39,8c-2.4,2.81 -6.75,4.11 -11.21,4.11c-4.46,0 -8.66,-1.4 -11,-4c-1.31,-1.51 -2.45,-3.81 -2.45,-7.97z" fill="#000000" stroke="none" stroke-width="1"/><path d="M137.11877,197.76344h9.83l7.72,10.87h0.07v-10.87h9.72v25.47h-9.82l-7.73,-10.87h-0.07v10.84h-9.72z" fill="#000000" stroke="none" stroke-width="1"/><path d="M167.64877,197.76344h10.52c3.95,0 12.29,0.39 12.29,6.47c0,2.15 -1.06,4.12 -4,5.1v0.07c3.81,1.38 4.68,3.77 4.68,6.05c0,6.72 -7.4,7.78 -12.51,7.78h-11zM178.84877,208.11344c1.38,0 2,-0.7 2,-1.58c0,-0.88 -0.68,-1.58 -2,-1.58h-0.39v3.16zM178.92877,216.41344c1.7,0 2.5,-0.88 2.5,-2c0,-1.12 -0.84,-2 -2.5,-2h-0.47v3.94z" fill="#000000" stroke="none" stroke-width="1"/><path d="M200.85877,197.76344h10.33l10,25.47h-11.66l-0.91,-3.34h-6l-1,3.34h-10.76zM206.85877,213.48344l-1.16,-5.17h-0.07l-1.16,5.17z" fill="#000000" stroke="none" stroke-width="1"/><path d="M223.05877,197.76344h10.8v16.43h8.12v9h-18.92z" fill="#000000" stroke="none" stroke-width="1"/><path d="M253.39877,197.76344h10.33l10,25.47h-11.67l-0.9,-3.34h-6l-1,3.34h-10.77zM259.39877,213.48344l-1.16,-5.17h-0.08l-1.1,5.17z" fill="#000000" stroke="none" stroke-width="1"/><path d="M275.54877,197.76344h9.82l7.69,10.87h0.07v-10.87h9.72v25.47h-9.79l-7.72,-10.87h-0.07v10.84h-9.72z" fill="#000000" stroke="none" stroke-width="1"/><path d="M320.79877,197.38344c2.64704,-0.04608 5.27513,0.45435 7.72,1.47v9.39c-2.02914,-1.01753 -4.26042,-1.56766 -6.53,-1.61c-3.69,0 -5.69,1.72 -5.69,4.07c0,2.35 2,4 5.69,4c2.31902,0.01559 4.6074,-0.52992 6.67,-1.59v9c-2.52361,1.09073 -5.25121,1.62944 -8,1.58c-8.78,0 -15.19,-5.55 -15.19,-13.12c0,-7.57 6.41,-13.19 15.33,-13.19z" fill="#000000" stroke="none" stroke-width="1"/><path d="M331.63877,197.76344h18.89v8.51h-8.09v1.38h6.53v6h-6.53v1.46h8.62v8.09h-19.42z" fill="#000000" stroke="none" stroke-width="1"/><path d="M353.71877,223.23344v-25.47h11c5.08,0 9,1.51 11.64,4c2.41958,2.25813 3.79911,5.41529 3.81237,8.72487c0.01325,3.30958 -1.34095,6.47769 -3.74237,8.75513c-2.72,2.53 -6.67,4 -11.63,4zM364.51877,214.93344h0.26c1.4931,0.08123 2.95616,-0.44129 4.06,-1.45c0.78038,-0.8016 1.20871,-1.88142 1.19,-3c0.02042,-1.13667 -0.40701,-2.23577 -1.19,-3.06c-1.08928,-0.98547 -2.53527,-1.48073 -4,-1.37h-0.33z" fill="#000000" stroke="none" stroke-width="1"/><path d="M110.39,137.09956h19.44v30.46h14.61v16.77h-34z" fill="none" stroke="#ffffff" stroke-width="4"/><path d="M149.52,137.09956h34v15.78h-14.56v2.55h11.74v11.22h-11.74v2.67h15.46v15h-34.9z" fill="none" stroke="#ffffff" stroke-width="4"/><path d="M186.77,137.09956h21l7,25h0.13l7.44,-25h19l-18.07,47.23h-18.43z" fill="none" stroke="#ffffff" stroke-width="4"/><path d="M244.56,137.09956h34v15.78h-14.56v2.55h11.74v11.22h-11.74v2.67h15.46v15h-34.9z" fill="none" stroke="#ffffff" stroke-width="4"/><path d="M284.29,137.09956h19.44v30.46h14.61v16.77h-34.05z" fill="none" stroke="#ffffff" stroke-width="4"/><path d="M110.39,137.09956h19.44v30.46h14.61v16.77h-34z" fill="#000000" stroke="none" stroke-width="1"/><path d="M149.52,137.09956h34v15.78h-14.56v2.55h11.74v11.22h-11.74v2.67h15.46v15h-34.9z" fill="#000000" stroke="none" stroke-width="1"/><path d="M186.77,137.09956h21l7,25h0.13l7.44,-25h19l-18.07,47.23h-18.43z" fill="#000000" stroke="none" stroke-width="1"/><path d="M244.56,137.09956h34v15.78h-14.56v2.55h11.74v11.22h-11.74v2.67h15.46v15h-34.9z" fill="#000000" stroke="none" stroke-width="1"/><path d="M284.29,137.09956h19.44v30.46h14.61v16.77h-34.05z" fill="#000000" stroke="none" stroke-width="1"/></g></g></svg>