<svg version="1.1" xmlns="http://www.w3.org/2000/svg" xmlns:xlink="http://www.w3.org/1999/xlink" width="19" height="21" viewBox="0,0,19,21"><g transform="translate(-231.5,-169)"><g data-paper-data="{&quot;isPaintingLayer&quot;:true}" fill-rule="nonzero" stroke="none" stroke-linecap="butt" stroke-linejoin="miter" stroke-miterlimit="10" stroke-dasharray="" stroke-dashoffset="0" style="mix-blend-mode: normal"><path d="M241.37001,177.06c1.38,0 2.39,1.13 2.39,2.9c0.0495,0.77339 -0.22147,1.53307 -0.74924,2.10056c-0.52777,0.56749 -1.26582,0.89278 -2.04076,0.89944c-0.39006,-0.00361 -0.77749,-0.06425 -1.15,-0.18v2.5h-1.85v-8l1.85,-0.22v0.7c0.3999,-0.43452 0.95961,-0.68729 1.55,-0.7zM239.82001,181.38c0.25575,0.1548 0.55126,0.23128 0.85,0.22c0.79,0 1.24,-0.62 1.24,-1.54c0,-0.92 -0.4,-1.53 -1.16,-1.53c-0.35008,-0.00158 -0.68576,0.13919 -0.93,0.39z" fill="#000000" stroke-width="1"/><path d="M231.5,190v-21h19v21z" fill="none" stroke-width="0"/></g></g></svg>