<svg version="1.1" xmlns="http://www.w3.org/2000/svg" xmlns:xlink="http://www.w3.org/1999/xlink" width="19" height="21" viewBox="0,0,19,21"><g transform="translate(-231.5,-169)"><g data-paper-data="{&quot;isPaintingLayer&quot;:true}" fill-rule="nonzero" stroke="none" stroke-linecap="butt" stroke-linejoin="miter" stroke-miterlimit="10" stroke-dasharray="" stroke-dashoffset="0" style="mix-blend-mode: normal"><path d="M245.03001,182.82v-3.29c0,-0.67 -0.29,-0.9 -0.76,-0.9c-0.33348,0.00812 -0.65292,0.13589 -0.9,0.36v3.83h-1.85v-3.29c0,-0.67 -0.3,-0.9 -0.76,-0.9c-0.33226,-0.00492 -0.65398,0.11662 -0.9,0.34v3.85h-1.85v-5.49l1.85,-0.22v0.78c0.4431,-0.51845 1.08806,-0.82089 1.77,-0.83c0.68092,-0.02764 1.30717,0.37124 1.57,1c0.46732,-0.59811 1.17186,-0.96316 1.93,-1c0.50262,-0.01691 0.98693,0.18958 1.32271,0.56396c0.33578,0.37438 0.48857,0.87821 0.41729,1.37604v3.83z" fill="#000000" stroke-width="1"/><path d="M231.5,190v-21h19v21z" fill="none" stroke-width="0"/></g></g></svg>