<svg version="1.1" xmlns="http://www.w3.org/2000/svg" xmlns:xlink="http://www.w3.org/1999/xlink" width="53" height="27" viewBox="0,0,53,27"><g transform="translate(-189,-155)"><g data-paper-data="{&quot;isPaintingLayer&quot;:true}" fill-rule="nonzero" stroke-linecap="butt" stroke-miterlimit="10" stroke-dasharray="" stroke-dashoffset="0" style="mix-blend-mode: normal"><g><path d="M240,171l-9,-2l7,-12z" fill="none" stroke="#000000" stroke-width="4" stroke-linejoin="round"/><path d="M240,171l-9,-2l7,-12z" fill="#b3b3b3" stroke="none" stroke-width="1" stroke-linejoin="miter"/></g><g stroke="none" stroke-width="1" stroke-linejoin="miter"><path d="M242,182h-53v-9c0,-4.41828 3.58172,-8 8,-8h37c4.41828,0 8,3.58172 8,8zM193,178h45v-5c0,-2.20914 -1.79086,-4 -4,-4h-37c-2.20914,0 -4,1.79086 -4,4z" fill="#000000"/><path d="M240,180h-49v-7c0,-3.31371 2.68629,-6 6,-6h37c3.31371,0 6,2.68629 6,6z" fill="#00a99d"/></g><path d="M232,177v-5h5v5z" fill="#ffffff" stroke="#ffffff" stroke-width="2" stroke-linejoin="round"/><path d="M234,177v-3h3v3z" fill="#000000" stroke="none" stroke-width="1" stroke-linejoin="miter"/><path d="M222,180v-13h5v13z" fill="#008279" stroke="none" stroke-width="1" stroke-linejoin="miter"/><path d="M212,180v-13h5v13z" fill="#008279" stroke="none" stroke-width="1" stroke-linejoin="miter"/><path d="M202,180v-13h5v13z" fill="#008279" stroke="none" stroke-width="1" stroke-linejoin="miter"/></g></g></svg>