<svg version="1.1" xmlns="http://www.w3.org/2000/svg" xmlns:xlink="http://www.w3.org/1999/xlink" width="153" height="41" viewBox="0,0,153,41"><g transform="translate(-163.5,-159.5)"><g data-paper-data="{&quot;isPaintingLayer&quot;:true}" fill-rule="nonzero" stroke="none" stroke-width="1" stroke-linecap="butt" stroke-linejoin="miter" stroke-miterlimit="10" stroke-dasharray="" stroke-dashoffset="0" style="mix-blend-mode: normal"><path d="M310.15,200.5h-140.3c-3.50245,-0.01098 -6.33902,-2.84755 -6.35,-6.35v-26.3c0.01098,-3.50245 2.84755,-6.33902 6.35,-6.35h140.3c3.50245,0.01098 6.33902,2.84755 6.35,6.35v26.3c-0.01098,3.50245 -2.84755,6.33902 -6.35,6.35z" fill="#000000" opacity="0.1"/><path d="M310.15,198.5h-140.3c-3.50245,-0.01098 -6.33902,-2.84755 -6.35,-6.35v-26.3c0.01098,-3.50245 2.84755,-6.33902 6.35,-6.35h140.3c3.50245,0.01098 6.33902,2.84755 6.35,6.35v26.3c-0.01098,3.50245 -2.84755,6.33902 -6.35,6.35z" fill="#ffff87" opacity="0.95"/><path d="M196.36,174.22h2.69v11.36h-3l-4.73,-7.4v7.32h-2.74v-11.28h3.1l4.68,7.28z" fill="#000000"/><path d="M201.96,185.5v-11.28h8.23v2.28h-5.42v2.17h4.35v2.28h-4.35v2.2h5.42v2.35z" fill="#000000"/><path d="M214.86,185.5h-3.13l3.87,-5.63l-3.76,-5.62h3.22l2.27,3.66l2.32,-3.66h3.19l-3.8,5.51l3.91,5.74h-3.26l-2.39,-3.86z" fill="#000000"/><path d="M230.56,176.62v8.88h-2.86v-8.88h-3.58v-2.4h10v2.4z" fill="#000000"/><path d="M240.98,185.5v-11.28h2.86v8.86h4.72v2.42z" fill="#000000"/><path d="M250.92,185.5v-11.28h8.23v2.28h-5.42v2.17h4.35v2.28h-4.35v2.2h5.42v2.35z" fill="#000000"/><path d="M267.97,185.5h-3.59l-3.8,-11.25h3l2.66,8.48l2.65,-8.48h3z" fill="#000000"/><path d="M273.65,185.5v-11.28h8.23v2.28h-5.38v2.17h4.36v2.28h-4.36v2.2h5.42v2.35z" fill="#000000"/><path d="M284.4,185.5v-11.28h2.86v8.86h4.72v2.42z" fill="#000000"/></g></g></svg>