<svg version="1.1" xmlns="http://www.w3.org/2000/svg" xmlns:xlink="http://www.w3.org/1999/xlink" width="44" height="39.6" viewBox="0,0,44,39.6"><g transform="translate(-218,-140.4)"><g data-paper-data="{&quot;isPaintingLayer&quot;:true}" fill-rule="nonzero" stroke-linejoin="miter" stroke-miterlimit="10" stroke-dasharray="" stroke-dashoffset="0" style="mix-blend-mode: normal"><path d="M225,165v-14h18v14z" fill="#000000" stroke="none" stroke-width="1" stroke-linecap="butt"/><path d="M261,165v14h-42v-14h32v-3c0,-1.10457 0.89543,-2 2,-2h3c1.10457,0 2,0.89543 2,2v3z" fill="#7a1cbe" stroke="#000000" stroke-width="2" stroke-linecap="butt"/><g stroke="none" stroke-width="1" stroke-linecap="butt"><path d="M261,165.14667h-42v-18.77333c0,-2.8277 2.68629,-5.12 6,-5.12h30c3.31371,0 6,2.2923 6,5.12z" fill="#9500ff"/><path d="M262,166h-44v-19.62667c0,-3.29898 3.13401,-5.97333 7,-5.97333h30c3.86599,0 7,2.67436 7,5.97333zM220,164.29333h40v-17.92c0,-2.35642 -2.23858,-4.26667 -5,-4.26667h-30c-2.76143,0 -5,1.91025 -5,4.26667z" fill="#000000"/></g><path d="M242.9,158.06h10.4" fill="none" stroke="#000000" stroke-width="2" stroke-linecap="round"/></g></g></svg>