<svg xmlns="http://www.w3.org/2000/svg" viewBox="0 0 153 41"><defs><style>.cls-1{opacity:0.1;}.cls-2{fill:#fff;opacity:0.95;}</style></defs><g id="Explosion"><path class="cls-1" d="M146.65,41H6.35A6.37,6.37,0,0,1,0,34.65V8.35A6.37,6.37,0,0,1,6.35,2h140.3A6.37,6.37,0,0,1,153,8.35v26.3A6.37,6.37,0,0,1,146.65,41Z"/><path class="cls-2" d="M146.65,39H6.35A6.37,6.37,0,0,1,0,32.65V6.35A6.37,6.37,0,0,1,6.35,0h140.3A6.37,6.37,0,0,1,153,6.35v26.3A6.37,6.37,0,0,1,146.65,39Z"/><path d="M51,22.82c0-.75-.81-1-2.3-1.42s-3.62-1.21-3.62-3.46c0-2.09,1.53-3.47,4.32-3.47a8.54,8.54,0,0,1,4.22,1l-.56,2.36a8.29,8.29,0,0,0-3.64-1c-1,0-1.48.34-1.48,1s1,1,2.38,1.41c1.73.46,3.53,1.26,3.53,3.4s-1.66,3.65-4.61,3.65a9.3,9.3,0,0,1-4.34-1l.54-2.38a8.31,8.31,0,0,0,3.85,1C50.31,23.88,51,23.51,51,22.82Z"/><path d="M56.29,26V14.72h8.23V17H59.1v2.17h4.35v2.28H59.1v2.2h5.42V26Z"/><path d="M67,26V14.72H69.9v8.86h4.71V26Z"/><path d="M77,26V14.72H85.2V17H79.78v2.17h4.35v2.28H79.78v2.2H85.2V26Z"/><path d="M96,17.69a5.68,5.68,0,0,0-2.85-.81,3.1,3.1,0,0,0-3.2,3.44c0,2.14,1.19,3.49,3.22,3.49a5.38,5.38,0,0,0,3-.92l.6,2.54a8.44,8.44,0,0,1-3.69.81c-3.61,0-6-2.07-6-5.85s2.36-5.94,6.07-5.94a8.56,8.56,0,0,1,3.72.85Z"/><path d="M104.62,17.12V26h-2.87V17.12H98.17v-2.4h10v2.4Z"/></g></svg>