<svg version="1.1" xmlns="http://www.w3.org/2000/svg" xmlns:xlink="http://www.w3.org/1999/xlink" width="153" height="41" viewBox="0,0,153,41"><g transform="translate(-163.5,-159.5)"><g data-paper-data="{&quot;isPaintingLayer&quot;:true}" fill-rule="nonzero" stroke="none" stroke-width="1" stroke-linecap="butt" stroke-linejoin="miter" stroke-miterlimit="10" stroke-dasharray="" stroke-dashoffset="0" style="mix-blend-mode: normal"><path d="M310.15,200.5h-140.3c-3.50245,-0.01098 -6.33902,-2.84755 -6.35,-6.35v-26.3c0.01098,-3.50245 2.84755,-6.33902 6.35,-6.35h140.3c3.50245,0.01098 6.33902,2.84755 6.35,6.35v26.3c-0.01098,3.50245 -2.84755,6.33902 -6.35,6.35z" fill="#000000" opacity="0.1"/><path d="M310.15,198.5h-140.3c-3.50245,-0.01098 -6.33902,-2.84755 -6.35,-6.35v-26.3c0.01098,-3.50245 2.84755,-6.33902 6.35,-6.35h140.3c3.50245,0.01098 6.33902,2.84755 6.35,6.35v26.3c-0.01098,3.50245 -2.84755,6.33902 -6.35,6.35z" fill="#ffff87" opacity="0.95"/><path d="M217.64,185.5v-11.28h2.86v8.86h4.71v2.42z" fill="#000000"/><path d="M232.24,185.74c-1.58825,0.11098 -3.14666,-0.47173 -4.27247,-1.59753c-1.1258,-1.1258 -1.70851,-2.68421 -1.59753,-4.27247c-0.06546,-1.58749 0.5358,-3.13005 1.65833,-4.25448c1.12253,-1.12443 2.66407,-1.7283 4.25167,-1.66552c3.35,0 5.89,2.05 5.89,5.85c0.06239,1.59194 -0.54197,3.13778 -1.66755,4.26526c-1.12559,1.12749 -2.6704,1.73445 -4.26245,1.67474zM232.24,176.25c-1.9,0 -3,1.45 -3,3.55c0,2.1 1.11,3.64 3,3.64c1.89,0 3,-1.46 3,-3.57c0,-2.11 -1.09,-3.62 -3,-3.62z" fill="#000000"/><path d="M250.66,185.5h-2.85l-0.82,-2.39h-4.18l-0.81,2.39h-2.85l4,-11.25h3.58zM244.92,176.5l-1.5,4.41h2.94z" fill="#000000"/><path d="M256.5,185.5h-4v-11.28h4.23c4,0 6.21,2.2 6.21,5.55c0,3.35 -2.35,5.73 -6.44,5.73zM256.5,176.5h-1.2v6.68h1.33c2.07,0 3.37,-1.07 3.37,-3.32c0,-2.25 -1.17,-3.36 -3.5,-3.36z" fill="#000000"/></g></g></svg>