<svg id="Layer_1" data-name="Layer 1" xmlns="http://www.w3.org/2000/svg" viewBox="0 0 480 360"><defs><style>.cls-1{fill:none;stroke:#fff;stroke-width:4px;}</style></defs><path class="cls-1" d="M105.27,127.93h19.44v30.46h14.61v16.77h-34Z"/><path class="cls-1" d="M144.4,127.93h34v15.78H163.84v2.55h11.74v11.22H163.84v2.67H179.3v15H144.4Z"/><path class="cls-1" d="M181.65,127.93h21l7,25h.13l7.44-25h19l-18.07,47.23H199.72Z"/><path class="cls-1" d="M239.44,127.93h34v15.78H258.88v2.55h11.74v11.22H258.88v2.67h15.46v15h-34.9Z"/><path class="cls-1" d="M279.17,127.93h19.44v30.46h14.61v16.77H279.17Z"/><path class="cls-1" d="M350.85,143.71H337V127.93h39.4l.06.13-17.61,47.1H338.33Z"/><path class="cls-1" d="M105.19,188.65h12.38l2.8,11.82h.08l2.38-11.82h7.82L133,200.47h.07l2.85-11.82h11.21l-8.3,25.47H128.59l-2.42-9.92h-.07l-2.38,9.92H113.45Z"/><path class="cls-1" d="M162.41,188.27c8.84,0,15.73,5.73,15.73,13.11s-6.89,13.12-15.73,13.12-15.72-5.73-15.72-13.12S153.58,188.27,162.41,188.27Zm0,17.23a4,4,0,1,0-4.36-3.94A4.16,4.16,0,0,0,162.41,205.5Z"/><path class="cls-1" d="M180.94,188.65H192.5c5.8,0,13.71,1.3,13.71,8.09a7,7,0,0,1-3.55,6l6.43,11.33H196.9l-4.2-8.37h-.16v8.37h-11.6Zm12.46,11.26c1.83,0,2.65-.88,2.65-2s-.86-1.94-2.65-1.94h-.86v3.91Z"/><path class="cls-1" d="M210.3,188.65h10.82l5.6,6.4,5.41-6.4h10.51v25.47H231V201.7H231l-5,6-5.13-6h-.08v12.42H210.3Z"/><path class="cls-1" d="M257.75,188.65h20.86v8.51h-9.26v1.45h7.39V205h-7.39v9.11h-11.6Z"/><path class="cls-1" d="M296,188.27c8.84,0,15.73,5.73,15.73,13.11S304.81,214.5,296,214.5s-15.72-5.73-15.72-13.12S287.14,188.27,296,188.27Zm0,17.23a4,4,0,1,0-4.36-3.94A4.16,4.16,0,0,0,296,205.5Z"/><path class="cls-1" d="M329.61,188.27c8.83,0,15.72,5.73,15.72,13.11s-6.89,13.12-15.72,13.12-15.73-5.73-15.73-13.12S320.77,188.27,329.61,188.27Zm0,17.23a4,4,0,1,0-4.36-3.94A4.15,4.15,0,0,0,329.61,205.5Z"/><path class="cls-1" d="M348.14,214.12V188.65h11.79c5.45,0,9.65,1.51,12.49,4a11.46,11.46,0,0,1,.08,17.48c-2.92,2.53-7.16,4-12.49,4Zm11.6-8.3H360a6.26,6.26,0,0,0,4.36-1.45,4,4,0,0,0,1.28-3,4.15,4.15,0,0,0-1.28-3.06,6,6,0,0,0-4.28-1.37h-.35Z"/><path d="M105.27,127.93h19.44v30.46h14.61v16.77h-34Z"/><path d="M144.4,127.93h34v15.78H163.84v2.55h11.74v11.22H163.84v2.67H179.3v15H144.4Z"/><path d="M181.65,127.93h21l7,25h.13l7.44-25h19l-18.07,47.23H199.72Z"/><path d="M239.44,127.93h34v15.78H258.88v2.55h11.74v11.22H258.88v2.67h15.46v15h-34.9Z"/><path d="M279.17,127.93h19.44v30.46h14.61v16.77H279.17Z"/><path d="M350.85,143.71H337V127.93h39.4l.06.13-17.61,47.1H338.33Z"/><path d="M105.19,188.65h12.38l2.8,11.82h.08l2.38-11.82h7.82L133,200.47h.07l2.85-11.82h11.21l-8.3,25.47H128.59l-2.42-9.92h-.07l-2.38,9.92H113.45Z"/><path d="M162.41,188.27c8.84,0,15.73,5.73,15.73,13.11s-6.89,13.12-15.73,13.12-15.72-5.73-15.72-13.12S153.58,188.27,162.41,188.27Zm0,17.23a4,4,0,1,0-4.36-3.94A4.16,4.16,0,0,0,162.41,205.5Z"/><path d="M180.94,188.65H192.5c5.8,0,13.71,1.3,13.71,8.09a7,7,0,0,1-3.55,6l6.43,11.33H196.9l-4.2-8.37h-.16v8.37h-11.6Zm12.46,11.26c1.83,0,2.65-.88,2.65-2s-.86-1.94-2.65-1.94h-.86v3.91Z"/><path d="M210.3,188.65h10.82l5.6,6.4,5.41-6.4h10.51v25.47H231V201.7H231l-5,6-5.13-6h-.08v12.42H210.3Z"/><path d="M257.75,188.65h20.86v8.51h-9.26v1.45h7.39V205h-7.39v9.11h-11.6Z"/><path d="M296,188.27c8.84,0,15.73,5.73,15.73,13.11S304.81,214.5,296,214.5s-15.72-5.73-15.72-13.12S287.14,188.27,296,188.27Zm0,17.23a4,4,0,1,0-4.36-3.94A4.16,4.16,0,0,0,296,205.5Z"/><path d="M329.61,188.27c8.83,0,15.72,5.73,15.72,13.11s-6.89,13.12-15.72,13.12-15.73-5.73-15.73-13.12S320.77,188.27,329.61,188.27Zm0,17.23a4,4,0,1,0-4.36-3.94A4.15,4.15,0,0,0,329.61,205.5Z"/><path d="M348.14,214.12V188.65h11.79c5.45,0,9.65,1.51,12.49,4a11.46,11.46,0,0,1,.08,17.48c-2.92,2.53-7.16,4-12.49,4Zm11.6-8.3H360a6.26,6.26,0,0,0,4.36-1.45,4,4,0,0,0,1.28-3,4.15,4.15,0,0,0-1.28-3.06,6,6,0,0,0-4.28-1.37h-.35Z"/></svg>