<svg version="1.1" xmlns="http://www.w3.org/2000/svg" xmlns:xlink="http://www.w3.org/1999/xlink" width="19" height="21" viewBox="0,0,19,21"><g transform="translate(-231.5,-169)"><g data-paper-data="{&quot;isPaintingLayer&quot;:true}" fill-rule="nonzero" stroke="none" stroke-linecap="butt" stroke-linejoin="miter" stroke-miterlimit="10" stroke-dasharray="" stroke-dashoffset="0" style="mix-blend-mode: normal"><path d="M240.81788,183c-0.77397,0.0826 -1.54321,-0.19681 -2.09981,-0.76271c-0.5566,-0.5659 -0.8431,-1.35986 -0.78204,-2.16729c-0.05059,-0.82313 0.2463,-1.62828 0.81299,-2.20475c0.56669,-0.57647 1.34677,-0.86688 2.13611,-0.79525c0.66783,-0.01048 1.32779,0.15097 1.92124,0.47l-0.34582,1.39c-0.42923,-0.26286 -0.91446,-0.41061 -1.41211,-0.43c-0.37869,-0.0171 -0.74562,0.13913 -1.00426,0.4276c-0.25864,0.28847 -0.38308,0.68029 -0.34061,1.0724c-0.05162,0.40225 0.07073,0.80762 0.33406,1.10685c0.26334,0.29923 0.64057,0.46153 1.03001,0.44315c0.50236,0.00147 0.99499,-0.14406 1.42171,-0.42l0.26897,1.4c-0.59789,0.32593 -1.26576,0.4877 -1.94045,0.47z" fill="#000000" stroke-width="1"/><path d="M231.5,190v-21h19v21z" fill="none" stroke-width="0"/></g></g></svg>