<svg version="1.1" xmlns="http://www.w3.org/2000/svg" xmlns:xlink="http://www.w3.org/1999/xlink" width="269.2" height="91.3" viewBox="0,0,269.2,91.3"><g transform="translate(-106.4,-134.35)"><g data-paper-data="{&quot;isPaintingLayer&quot;:true}" fill-rule="nonzero" stroke-linecap="butt" stroke-linejoin="miter" stroke-miterlimit="10" stroke-dasharray="" stroke-dashoffset="0" style="mix-blend-mode: normal"><path d="M338.61,169.68c3.40499,1.07717 6.93346,1.71566 10.5,1.9c3.07,0 4,-0.85 4,-2.29c0,-1.44 -1,-2.28 -3.91,-2.28h-4.8v-11.35h4.76c2.93,0 3.91,-0.78 3.91,-2.28c0,-1.5 -1,-2.29 -4,-2.29c-3.11636,0.14231 -6.20314,0.66965 -9.19,1.57v-13.44c3.58,-1.89 9.39,-2.87 14.15,-2.87c10.77,0 19.05,5.15 19.05,13.31c0,5.28 -3.46,8.67 -8.48,9.65v0.13c5.28,1.37 9,4.83 9,10.9c0,9.59 -9.33,14.67 -21.26,14.67c-4.68229,0.05197 -9.33913,-0.69542 -13.77,-2.21z" fill="none" stroke="#ffffff" stroke-width="4"/><path d="M130.4,197.41c3.75524,-0.05508 7.4983,0.44018 11.11,1.47v9.39c-3.02371,-1.03558 -6.19402,-1.57916 -9.39,-1.61c-5.32,0 -8.18,1.72 -8.18,4.07c0,2.35 2.86,4 8.18,4c3.27062,-0.00134 6.51594,-0.57325 9.59,-1.69v9c-3.72179,1.102 -7.58887,1.63469 -11.47,1.58c-12.61,0.02 -21.84,-5.48 -21.84,-13.1c0,-7.62 9.17,-13.11 22,-13.11z" fill="none" stroke="#ffffff" stroke-width="4"/><path d="M145.98,197.79h15.49c7.77,0 18.35,1.3 18.35,8.09c0,2.74 -1.93,4.71 -4.74,6l8.6,11.33h-16.28l-5.63,-8.37h-0.21v8.37h-15.58zM162.67,209.05c2.45,0 3.54,-0.88 3.54,-2c0,-1.12 -1.14,-1.94 -3.54,-1.94h-1.15v3.91z" fill="none" stroke="#ffffff" stroke-width="4"/><path d="M183.4,211.68v-13.89h15.5v13.19c0,2.39 1.15,4.08 4.75,4.08c3.44,0 4.64,-1.48 4.64,-4v-13.27h14v13.75c0,3.91 -1.46,6.37 -3.44,8c-3.44,2.81 -9.7,4.11 -16.11,4.11c-6.62,0 -12.46,-1.4 -15.8,-4c-1.91,-1.51 -3.54,-3.81 -3.54,-7.97z" fill="none" stroke="#ffffff" stroke-width="4"/><path d="M226.89,212.92c3.92265,1.738 8.12661,2.75427 12.41,3c1.57,0 1.93,-0.42 1.93,-0.84c0,-0.42 -0.47,-0.71 -1.15,-0.81c-1.82,-0.32 -7.09,-0.71 -11,-3c-2.01975,-1.00348 -3.30619,-3.05482 -3.33,-5.31c0,-5.1 5.84,-8.58 15.38,-8.58c4.55812,-0.0096 9.09189,0.66456 13.45,2v8.34c-3.68087,-1.28875 -7.52572,-2.04964 -11.42,-2.26c-1.51,0 -1.93,0.39 -1.93,0.78c0,0.39 0.58,0.74 1.2,0.88c1.57,0.31 6.78,0.74 10.48,2.71c2.56,1.4 3.81,3.2 3.81,5.48c0,4.89 -5.84,8.3 -15.75,8.3c-4.78737,0.02556 -9.55113,-0.67232 -14.13,-2.07z" fill="none" stroke="#ffffff" stroke-width="4"/><path d="M260.05,197.79h15.54v7.88h7.81v-7.88h15.53v25.47h-15.53v-9.29h-7.82v9.29h-15.53z" fill="none" stroke="#ffffff" stroke-width="4"/><path d="M303.52,197.79h27.17v8.51h-11.63v1.38h9.39v6h-9.39v1.46h12.34v8.09h-27.9z" fill="none" stroke="#ffffff" stroke-width="4"/><path d="M335.27,223.26v-25.47h15.8c7.3,0 12.93,1.51 16.74,4c3.34,2.14 5.47,5.06 5.47,8.75c0,3.52 -2,6.55 -5.37,8.73c-3.91,2.53 -9.59,4 -16.73,4zM350.81,214.96h0.37c2.04778,0.11059 4.08177,-0.39443 5.84,-1.45c1.03939,-0.64902 1.68502,-1.77512 1.72,-3c-0.03107,-1.24194 -0.67519,-2.38788 -1.72,-3.06c-1.1,-0.77 -2.87,-1.37 -5.74,-1.37h-0.47z" fill="none" stroke="#ffffff" stroke-width="4"/><path d="M338.61,169.68c3.40499,1.07717 6.93346,1.71566 10.5,1.9c3.07,0 4,-0.85 4,-2.29c0,-1.44 -1,-2.28 -3.91,-2.28h-4.8v-11.35h4.76c2.93,0 3.91,-0.78 3.91,-2.28c0,-1.5 -1,-2.29 -4,-2.29c-3.11636,0.14231 -6.20314,0.66965 -9.19,1.57v-13.44c3.58,-1.89 9.39,-2.87 14.15,-2.87c10.77,0 19.05,5.15 19.05,13.31c0,5.28 -3.46,8.67 -8.48,9.65v0.13c5.28,1.37 9,4.83 9,10.9c0,9.59 -9.33,14.67 -21.26,14.67c-4.68229,0.05197 -9.33913,-0.69542 -13.77,-2.21z" fill="#000000" stroke="none" stroke-width="1"/><path d="M130.4,197.41c3.75524,-0.05508 7.4983,0.44018 11.11,1.47v9.39c-3.02371,-1.03558 -6.19402,-1.57916 -9.39,-1.61c-5.32,0 -8.18,1.72 -8.18,4.07c0,2.35 2.86,4 8.18,4c3.27062,-0.00134 6.51594,-0.57325 9.59,-1.69v9c-3.72179,1.102 -7.58887,1.63469 -11.47,1.58c-12.61,0.02 -21.84,-5.48 -21.84,-13.1c0,-7.62 9.17,-13.11 22,-13.11z" fill="#000000" stroke="none" stroke-width="1"/><path d="M145.98,197.79h15.49c7.77,0 18.35,1.3 18.35,8.09c0,2.74 -1.93,4.71 -4.74,6l8.6,11.33h-16.28l-5.63,-8.37h-0.21v8.37h-15.58zM162.67,209.05c2.45,0 3.54,-0.88 3.54,-2c0,-1.12 -1.14,-1.94 -3.54,-1.94h-1.15v3.91z" fill="#000000" stroke="none" stroke-width="1"/><path d="M183.4,211.68v-13.89h15.5v13.19c0,2.39 1.15,4.08 4.75,4.08c3.44,0 4.64,-1.48 4.64,-4v-13.27h14v13.75c0,3.91 -1.46,6.37 -3.44,8c-3.44,2.81 -9.7,4.11 -16.11,4.11c-6.62,0 -12.46,-1.4 -15.8,-4c-1.91,-1.51 -3.54,-3.81 -3.54,-7.97z" fill="#000000" stroke="none" stroke-width="1"/><path d="M226.89,212.92c3.92265,1.738 8.12661,2.75427 12.41,3c1.57,0 1.93,-0.42 1.93,-0.84c0,-0.42 -0.47,-0.71 -1.15,-0.81c-1.82,-0.32 -7.09,-0.71 -11,-3c-2.01975,-1.00348 -3.30619,-3.05482 -3.33,-5.31c0,-5.1 5.84,-8.58 15.38,-8.58c4.55812,-0.0096 9.09189,0.66456 13.45,2v8.34c-3.68087,-1.28875 -7.52572,-2.04964 -11.42,-2.26c-1.51,0 -1.93,0.39 -1.93,0.78c0,0.39 0.58,0.74 1.2,0.88c1.57,0.31 6.78,0.74 10.48,2.71c2.56,1.4 3.81,3.2 3.81,5.48c0,4.89 -5.84,8.3 -15.75,8.3c-4.78737,0.02556 -9.55113,-0.67232 -14.13,-2.07z" fill="#000000" stroke="none" stroke-width="1"/><path d="M260.05,197.79h15.54v7.88h7.81v-7.88h15.53v25.47h-15.53v-9.29h-7.82v9.29h-15.53z" fill="#000000" stroke="none" stroke-width="1"/><path d="M303.52,197.79h27.17v8.51h-11.63v1.38h9.39v6h-9.39v1.46h12.34v8.09h-27.9z" fill="#000000" stroke="none" stroke-width="1"/><path d="M335.27,223.26v-25.47h15.8c7.3,0 12.93,1.51 16.74,4c3.34,2.14 5.47,5.06 5.47,8.75c0,3.52 -2,6.55 -5.37,8.73c-3.91,2.53 -9.59,4 -16.73,4zM350.81,214.96h0.37c2.04778,0.11059 4.08177,-0.39443 5.84,-1.45c1.03939,-0.64902 1.68502,-1.77512 1.72,-3c-0.03107,-1.24194 -0.67519,-2.38788 -1.72,-3.06c-1.1,-0.77 -2.87,-1.37 -5.74,-1.37h-0.47z" fill="#000000" stroke="none" stroke-width="1"/><path d="M110.39,137.09956h19.44v30.46h14.61v16.77h-34z" fill="none" stroke="#ffffff" stroke-width="4"/><path d="M149.52,137.09956h34v15.78h-14.56v2.55h11.74v11.22h-11.74v2.67h15.46v15h-34.9z" fill="none" stroke="#ffffff" stroke-width="4"/><path d="M186.77,137.09956h21l7,25h0.13l7.44,-25h19l-18.07,47.23h-18.43z" fill="none" stroke="#ffffff" stroke-width="4"/><path d="M244.56,137.09956h34v15.78h-14.56v2.55h11.74v11.22h-11.74v2.67h15.46v15h-34.9z" fill="none" stroke="#ffffff" stroke-width="4"/><path d="M284.29,137.09956h19.44v30.46h14.61v16.77h-34.05z" fill="none" stroke="#ffffff" stroke-width="4"/><path d="M110.39,137.09956h19.44v30.46h14.61v16.77h-34z" fill="#000000" stroke="none" stroke-width="1"/><path d="M149.52,137.09956h34v15.78h-14.56v2.55h11.74v11.22h-11.74v2.67h15.46v15h-34.9z" fill="#000000" stroke="none" stroke-width="1"/><path d="M186.77,137.09956h21l7,25h0.13l7.44,-25h19l-18.07,47.23h-18.43z" fill="#000000" stroke="none" stroke-width="1"/><path d="M244.56,137.09956h34v15.78h-14.56v2.55h11.74v11.22h-11.74v2.67h15.46v15h-34.9z" fill="#000000" stroke="none" stroke-width="1"/><path d="M284.29,137.09956h19.44v30.46h14.61v16.77h-34.05z" fill="#000000" stroke="none" stroke-width="1"/></g></g></svg>