<svg xmlns="http://www.w3.org/2000/svg" viewBox="0 0 153 41"><defs><style>.cls-1{opacity:0.1;}.cls-2{fill:#fff;opacity:0.95;}</style></defs><g id="Explosion"><path class="cls-1" d="M146.65,41H6.35A6.37,6.37,0,0,1,0,34.65V8.35A6.37,6.37,0,0,1,6.35,2h140.3A6.37,6.37,0,0,1,153,8.35v26.3A6.37,6.37,0,0,1,146.65,41Z"/><path class="cls-2" d="M146.65,39H6.35A6.37,6.37,0,0,1,0,32.65V6.35A6.37,6.37,0,0,1,6.35,0h140.3A6.37,6.37,0,0,1,153,6.35v26.3A6.37,6.37,0,0,1,146.65,39Z"/><path d="M36.11,17.29l-2.46,8.5H30.58l-2.46-8.48L28.05,26H25.38l.4-11.25h4l2.34,8.45,2.34-8.45h4L38.88,26H36.17Z"/><path d="M51.92,26H49.07l-.83-2.39H44.07L43.26,26H40.41l4-11.25H48Zm-5.75-9-1.49,4.41h2.93Z"/><path d="M53.71,26V14.72h2.87V26Z"/><path d="M67.3,14.72H70V26.08h-3l-4.73-7.4V26H59.53V14.72h3.09L67.3,22Z"/><path d="M88,17.29l-2.47,8.5H82.51l-2.46-8.48L80,26H77.31l.4-11.25h4.05l2.34,8.45,2.34-8.45h4L90.81,26H88.1Z"/><path d="M93.47,26V14.72h8.23V17H96.28v2.17h4.36v2.28H96.28v2.2h5.42V26Z"/><path d="M112,14.72h2.68V26.08h-3l-4.74-7.4V26h-2.68V14.72h3.1L112,22Z"/><path d="M122.47,26.24c-2.93,0-5-1.44-5-4.61V14.72h2.85v6.54c0,1.69.68,2.57,2.18,2.57s2-.72,2-2.47V14.72h2.84v6.66C127.44,24.64,125.5,26.24,122.47,26.24Z"/></g></svg>