<svg version="1.1" xmlns="http://www.w3.org/2000/svg" xmlns:xlink="http://www.w3.org/1999/xlink" width="62" height="64" viewBox="0,0,62,64"><g transform="translate(-209,-147)"><g data-paper-data="{&quot;isPaintingLayer&quot;:true}" fill-rule="nonzero" stroke-linecap="butt" stroke-miterlimit="10" stroke-dasharray="" stroke-dashoffset="0" style="mix-blend-mode: normal"><path d="M271,149h-19l-7,7v24h-10v-24l-7,-7h-19" fill="none" stroke="#000000" stroke-width="4" stroke-linejoin="round"/><path d="M262,202.00001h-44v-14h22h22z" fill="#3ac54d" stroke="none" stroke-width="1" stroke-linejoin="miter"/><path d="M271,149v62h-62v-62h19l7,7v24h10v-24l7,-7z" fill="#39b54a" stroke="none" stroke-width="1" stroke-linejoin="miter"/><path d="M221.99,191.88001h-4v-4h2h2z" fill="#3ac54d" stroke="none" stroke-width="1" stroke-linejoin="miter"/><path d="M241.99,201.88001h-4v-4h2h2z" fill="#3ac54d" stroke="none" stroke-width="1" stroke-linejoin="miter"/><path d="M262,192.00001h-4v-4h2h2z" fill="#3ac54d" stroke="none" stroke-width="1" stroke-linejoin="miter"/><path d="M262,202.00001h-4v-4h2h2z" fill="#3ac54d" stroke="none" stroke-width="1" stroke-linejoin="miter"/><path d="M262,182.00001h-4v-4h2h2z" fill="#3ac54d" stroke="none" stroke-width="1" stroke-linejoin="miter"/><path d="M222,202.00001h-4v-4h2h2z" fill="#3ac54d" stroke="none" stroke-width="1" stroke-linejoin="miter"/><path d="M222,182.00001h-4v-4h2h2z" fill="#3ac54d" stroke="none" stroke-width="1" stroke-linejoin="miter"/><path d="M262,162h-4v-4h2h2z" fill="#3ac54d" stroke="none" stroke-width="1" stroke-linejoin="miter"/><path d="M262,172.00001h-4v-4h2h2z" fill="#3ac54d" stroke="none" stroke-width="1" stroke-linejoin="miter"/><path d="M222,162h-4v-4h2h2z" fill="#3ac54d" stroke="none" stroke-width="1" stroke-linejoin="miter"/><path d="M222,172.00001h-4v-4h2h2z" fill="#3ac54d" stroke="none" stroke-width="1" stroke-linejoin="miter"/><path d="M262,202.00001h-44v-14h22h22z" fill="#3ac54d" stroke="none" stroke-width="1" stroke-linejoin="miter"/></g></g></svg>