<svg version="1.1" xmlns="http://www.w3.org/2000/svg" xmlns:xlink="http://www.w3.org/1999/xlink" width="53" height="27.29" viewBox="0,0,53,27.29"><g transform="translate(-213,-167.71)"><g data-paper-data="{&quot;isPaintingLayer&quot;:true}" fill-rule="nonzero" stroke-linecap="butt" stroke-miterlimit="10" stroke-dasharray="" stroke-dashoffset="0" style="mix-blend-mode: normal"><g data-paper-data="{&quot;index&quot;:null}"><path d="M216.95,169.71001l7.44,12.25l-9.35,1.95z" fill="none" stroke="#000000" stroke-width="4" stroke-linejoin="round"/><path d="M216.95,169.71001l7.44,12.25l-9.35,1.95z" fill="#b3b3b3" stroke="none" stroke-width="1" stroke-linejoin="miter"/></g><g data-paper-data="{&quot;index&quot;:null}" stroke="none" stroke-width="1" stroke-linejoin="miter"><path d="M213,186.00001c0,-4.41828 3.58172,-8 8,-8h37c4.41828,0 8,3.58172 8,8v9h-53zM262,186.00001c0,-2.20914 -1.79086,-4 -4,-4h-37c-2.20914,0 -4,1.79086 -4,4v5h45z" fill="#000000"/><path d="M215,186.00001c0,-3.31371 2.68629,-6 6,-6h37c3.31371,0 6,2.68629 6,6v7h-49z" fill="#00a99d"/></g><path d="M218,190.00001v-5h5v5z" data-paper-data="{&quot;index&quot;:null}" fill="#ffffff" stroke="#ffffff" stroke-width="2" stroke-linejoin="round"/><path d="M218,190.00001v-3h3v3z" data-paper-data="{&quot;index&quot;:null}" fill="#000000" stroke="none" stroke-width="1" stroke-linejoin="miter"/><path d="M228,193.00001v-13h5v13z" data-paper-data="{&quot;index&quot;:null}" fill="#008279" stroke="none" stroke-width="1" stroke-linejoin="miter"/><path d="M238,193.00001v-13h5v13z" data-paper-data="{&quot;index&quot;:null}" fill="#008279" stroke="none" stroke-width="1" stroke-linejoin="miter"/><path d="M248,193.00001v-13h5v13z" data-paper-data="{&quot;index&quot;:null}" fill="#008279" stroke="none" stroke-width="1" stroke-linejoin="miter"/></g></g></svg>