<svg version="1.1" xmlns="http://www.w3.org/2000/svg" xmlns:xlink="http://www.w3.org/1999/xlink" width="278.326" height="89.3245" viewBox="0,0,278.326,89.3245"><g transform="translate(-101.49749,-149.37)"><g data-paper-data="{&quot;isPaintingLayer&quot;:true}" fill-rule="nonzero" stroke-linecap="butt" stroke-linejoin="miter" stroke-miterlimit="10" stroke-dasharray="" stroke-dashoffset="0" style="mix-blend-mode: normal"><path d="M170.13,164.38l5.87,49.54h-22.44l0.18,-4.78h-11.24l-1.93,4.78h-22.44l27.29,-49.54zM154.89999,181.39c0.03273,-1.4353 0.19674,-2.8646 0.49,-4.27h-0.72c-0.33635,1.47336 -0.79804,2.91528 -1.38,4.31l-5.13,12.07h6.65l0.09,-12.12zM227.53,182.38c-0.47,13.03 -7.94,20.54 -23.47,20.54h-3.86l-1.06,11h-20.13l7.06,-49.54h22.33c12.98,0 19.49,7.01 19.13,18zM204.92,177.83h-2.62l-1,10.49h2.53c3.07,0 4.72,-1.97 5,-5.54c0.26,-3.22 -1.2,-4.95 -3.91,-4.95zM274.87,182.38c1.1,13.03 -5.53,20.54 -21.05,20.54h-3.87l0.24,11h-20.13l1.23,-49.54h22.32c12.99,0 20.33,7.01 21.26,18zM256.21,182.83c-0.12,-3.27 -1.79,-5 -4.47,-5h-2.62l0.22,10.49h2.54c3.05,0 4.47,-1.97 4.33,-5.49zM358.18,195.09h-16l-7.51,-30.71h-17.83l9.8,49.54h36.86zM312.44,164.5h-34.75l1.09,11.42h35.79zM279.39,181.85l3,31.65h39.18l-5.9,-31.63zM288.33,181.01h17.3l-0.69,-4.25h-17.11z" fill="#a1c3c4" stroke="none" stroke-width="1"/><g><path d="M142.94,205.94l0.2,-5.36h-12.64l-2.12,5.36h-25.19l30.61,-55.57h27.7l6.6,55.57zM144.44,169.5c0.03315,-1.62688 0.21728,-3.24716 0.55,-4.84h-0.82c-0.37679,1.65364 -0.89194,3.27267 -1.54,4.84l-5.75,13.48h7.46z" fill="#ffff1f" stroke="#000000" stroke-width="2"/><path d="M171.5,205.94l7.9,-55.57h25c14.57,0 21.87,7.86 21.46,20.2c-0.48,14.61 -8.91,23 -26.32,23h-4.29l-1.18,12.37zM199.36,177.22c3.43,0 5.28,-2.21 5.59,-6.22c0.29,-3.6 -1.35,-5.55 -4.36,-5.55h-2.94l-1.15,11.77z" fill="#ffff1f" stroke="#000000" stroke-width="2"/><path d="M228.75,205.94l1.38,-55.57h25c14.57,0 22.8,7.86 23.84,20.2c1.24,14.61 -6.19,23 -23.61,23h-4.33l0.26,12.33zM253.22,177.22c3.43,0 5,-2.21 4.87,-6.22c-0.14,-3.6 -2,-5.55 -5,-5.55h-2.94l0.25,11.77z" fill="#ffff1f" stroke="#000000" stroke-width="2"/><path d="M337.1,205.94l-11,-55.57h20l8.4,34.44h18l6,21.13z" fill="#ffff1f" stroke="#000000" stroke-width="2"/><g><path d="M283.40999,163.26l-1.23,-12.77h38.98l2.39,12.77z" fill="#00ff55" stroke="#000000" stroke-width="2"/><path d="M324.78999,169.94l6.62,35.5h-43.96l-3.4,-35.5z" fill="#ffff1f" stroke="#000000" stroke-width="2"/><path d="M322.76,190.17h-26.13" fill="none" stroke="#000000" stroke-width="2"/><path d="M313.52,168.97h-19.4l-0.57,-4.77h19.2z" fill="#000000" stroke="#000000" stroke-width="2"/><path d="M309.19,170.91h10.21l1.91,10.95h-10.46z" fill="#ffffff" stroke="none" stroke-width="1"/><path d="M319.84,178.82h-3.78l-0.65,-3.99h3.74z" fill="#000000" stroke="none" stroke-width="1"/><path d="M288.78,170.91h10.21l1.41,10.95h-10.46z" fill="#ffffff" stroke="none" stroke-width="1"/><path d="M299.06,178.82h-3.78l-0.47,-3.99h3.75z" fill="#000000" stroke="none" stroke-width="1"/></g></g><path d="M186.32,234.58412c-0.73212,-0.02185 -1.45685,-0.15331 -2.15,-0.39l-3,0.41v-13.86l3.16,-0.39v5.38c0.67424,-0.77953 1.64027,-1.24626 2.67,-1.29c2.35,0 4.05,1.93 4.05,5c0.0849,1.31661 -0.37247,2.61064 -1.26586,3.58147c-0.89339,0.97083 -2.14504,1.53395 -3.46415,1.55853zM186,226.96412c-0.59697,-0.0017 -1.1697,0.23604 -1.59,0.66v4.19c0.43299,0.27316 0.93841,0.4091 1.45,0.39c1.35,0 2.13,-1.06 2.13,-2.64c0,-1.58 -0.75,-2.6 -1.99,-2.6z" fill="#000000" stroke="none" stroke-width="1"/><path d="M198.63,233.82412l-0.48,1.25c-1,2.78 -2.17,3.62 -4.17,3.62c-0.97706,0.01063 -1.94408,-0.19781 -2.83,-0.61l0.94,-2.4c0.45602,0.24968 0.96119,0.39646 1.48,0.43c0.67,0 1,-0.24 1.35,-1.16l0.27,-0.74l-3.73,-9.46h3.38l2,6.27l1.85,-6.27h3.36z" fill="#000000" stroke="none" stroke-width="1"/><path d="M214.33,234.58412c-4.1,0 -6.88,-2.44 -6.88,-6.66c0,-4.22 2.7,-6.75 6.9,-6.75c1.66953,-0.0358 3.32198,0.3421 4.81,1.1l-1,2.72c-1.11646,-0.66921 -2.38859,-1.03465 -3.69,-1.06c-1.04018,-0.05317 -2.05241,0.34676 -2.77534,1.09654c-0.72293,0.74978 -1.08571,1.77591 -0.99466,2.81346c0,2.56 1.29,4.08 3.73,4.08c0.69168,0.01057 1.37951,-0.10464 2.03,-0.34v-1.94h-3.16v-2.58h6.11v6.33c-1.57175,0.80283 -3.31521,1.21123 -5.08,1.19z" fill="#000000" stroke="none" stroke-width="1"/><path d="M224.71,234.27412h-3.16v-9.36l3.16,-0.39v1.4c0.41142,-0.89595 1.30412,-1.4729 2.29,-1.48c0.55042,0.00057 1.09253,0.13439 1.58,0.39l-0.64,2.75c-0.3649,-0.18851 -0.76928,-0.28789 -1.18,-0.29c-0.87662,0.04569 -1.65159,0.5843 -2,1.39z" fill="#000000" stroke="none" stroke-width="1"/><path d="M231.34,223.40412c-1.15,0 -1.86,-0.6 -1.86,-1.68c-0.02594,-0.4873 0.16782,-0.96059 0.52803,-1.28981c0.36021,-0.32922 0.84896,-0.47974 1.33198,-0.41019c1.17,0 1.86,0.59 1.86,1.7c0,1.11 -0.69,1.68 -1.86,1.68zM229.76,234.27412v-9.36l3.16,-0.39v9.75z" fill="#000000" stroke="none" stroke-width="1"/><path d="M238.85,234.27412h-3.15v-6.9l-1.64,-0.12l0.08,-2l1.54,-0.45v-0.61c0.08,-2.77 1.33,-4 3.73,-4c0.8816,-0.0035 1.75627,0.15583 2.58,0.47c0,0 -0.6,2.63 -0.6,2.6c-0.50235,-0.21982 -1.04195,-0.342 -1.59,-0.36c-0.82,0 -1.11,0.47 -1.11,1.39v0.55h4.05v-0.9c0.08,-2.76 1.35,-4 3.72,-4c0.88816,-0.00413 1.7695,0.15518 2.6,0.47c0,0 -0.61,2.62 -0.61,2.6c-0.49702,-0.22661 -1.03404,-0.35236 -1.58,-0.37c-0.82,0 -1.1,0.47 -1.1,1.39v0.76h2.64l-0.06,2.48h-2.41v6.92h-3.15v-6.84h-3.94z" fill="#000000" stroke="none" stroke-width="1"/><path d="M255.66,224.44412c2.36,0 4.08,1.93 4.08,5c0.08497,1.31831 -0.37374,2.61389 -1.26931,3.58503c-0.89557,0.97115 -2.14983,1.53308 -3.47069,1.55497c-0.67796,-0.00839 -1.35131,-0.11275 -2,-0.31v4.26h-3.15v-13.62l3.15,-0.39v1.21c0.66814,-0.78191 1.6323,-1.24949 2.66,-1.29zM253,231.81412c0.43348,0.27201 0.93855,0.40786 1.45,0.39c1.36,0 2.13,-1.06 2.13,-2.64c0,-1.58 -0.69,-2.6 -2,-2.6c-0.5876,-0.0086 -1.15506,0.21408 -1.58,0.62z" fill="#000000" stroke="none" stroke-width="1"/><path d="M266.66,233.12412c-0.62802,0.90117 -1.65169,1.44465 -2.75,1.46c-0.73723,0.04078 -1.46006,-0.21554 -2.00691,-0.71165c-0.54685,-0.49611 -0.87212,-1.19065 -0.90309,-1.92835c0,-1.81 1.36,-3.26 5.64,-3.38v-0.19c0,-1 -0.52,-1.45 -1.68,-1.45c-1.14038,0.09106 -2.24666,0.4325 -3.24,1l-0.65,-2.34c1.34901,-0.72053 2.85078,-1.10797 4.38,-1.13c3.29,0 4.38,1.5 4.34,4.16v2.82c0,0.66 0.12,0.72 0.78,0.78l-0.31,2.26c-2.07,0.26 -3.09,-0.29 -3.52,-1.34zM266.66,230.03412c-2,0.23 -2.67,0.6 -2.67,1.44c0.01732,0.29352 0.15466,0.56697 0.37976,0.75613c0.2251,0.18916 0.51812,0.27736 0.81024,0.24387c0.56128,0.0038 1.09833,-0.22844 1.48,-0.64z" fill="#000000" stroke="none" stroke-width="1"/><path d="M275.81,234.58412c-2.36,0 -3.63,-1 -3.5,-3.46l0.14,-3.63l-1.45,-0.24l0.06,-2l1.43,-0.47v-2.17h3v2.27h2.51l-0.06,2.48h-2.54l-0.11,3.42c0,0.88 0.48,1.25 1.25,1.25c0.42753,-0.0144 0.84981,-0.09885 1.25,-0.25l0.37,2.46c-0.75826,0.24633 -1.55302,0.36132 -2.35,0.34z" fill="#000000" stroke="none" stroke-width="1"/><path d="M284.26,234.58412c-3.15,0 -5.16,-1.76 -5.16,-5c0,-3.24 2.05,-5.14 5.24,-5.14c1.20502,-0.02428 2.39725,0.25058 3.47,0.8l-0.62,2.34c-0.7658,-0.45145 -1.6317,-0.70572 -2.52,-0.74c-0.67436,-0.02047 -1.32371,0.25618 -1.7761,0.7567c-0.4524,0.50052 -0.66221,1.17444 -0.5739,1.8433c-0.08954,0.68669 0.12967,1.37778 0.59866,1.8873c0.469,0.50952 1.13959,0.78515 1.83134,0.75269c0.89143,0.0049 1.76572,-0.24489 2.52,-0.72l0.47,2.4c-1.07043,0.5674 -2.26886,0.84978 -3.48,0.82z" fill="#000000" stroke="none" stroke-width="1"/><path d="M295.73,234.27412v-5.63c0,-1.15 -0.51,-1.52 -1.31,-1.52c-0.65534,0.01494 -1.28209,0.27133 -1.76,0.72v6.43h-3.16v-13.53l3.16,-0.39v5.71c0.78462,-0.97974 1.95577,-1.57078 3.21,-1.62c1.88,0 3,1.25 3,3.28v6.55z" fill="#000000" stroke="none" stroke-width="1"/></g></g></svg>