<svg version="1.1" xmlns="http://www.w3.org/2000/svg" xmlns:xlink="http://www.w3.org/1999/xlink" width="406.44851" height="20.9" viewBox="0,0,406.44851,20.9"><g transform="translate(-43.29958,-170.3)"><g data-paper-data="{&quot;isPaintingLayer&quot;:true}" fill-rule="nonzero" stroke-linecap="butt" stroke-linejoin="miter" stroke-miterlimit="10" stroke-dasharray="" stroke-dashoffset="0" style="mix-blend-mode: normal"><path d="M110.93429,178.70208c1.2174,1.08821 1.86159,2.67928 1.7442,4.30792c0,5.67 -3.34,8.19 -7.46,8.19c-4.12,0 -7.46,-2.52 -7.46,-8.19c0,-4.47 3.93,-6.31 6.55,-5.47c0.51809,-1.20118 0.9037,-2.45525 1.15,-3.74h2c-0.17456,1.25469 -0.51068,2.48154 -1,3.65c1.60534,-0.29857 3.2584,0.16386 4.4758,1.25208z" fill-opacity="0.2" fill="#000000" stroke="none" stroke-width="1"/><path d="M105.05849,177.92l0.14,0.08z" fill-opacity="0.2" fill="#000000" stroke="none" stroke-width="1"/><path d="M110.93429,175.70208c1.2174,1.08821 1.86159,2.67928 1.7442,4.30792c0,5.67 -3.34,8.19 -7.46,8.19c-4.12,0 -7.46,-2.52 -7.46,-8.19c0,-4.47 3.93,-6.31 6.55,-5.47c0.51809,-1.20118 0.9037,-2.45525 1.15,-3.74h2c-0.17456,1.25469 -0.51068,2.48154 -1,3.65c1.60534,-0.29857 3.2584,0.16386 4.4758,1.25208zM105.19849,175v0l-0.14,-0.11z" fill="#ffff00" stroke="#000000" stroke-width="1"/><path d="M90.83899,184.36143l-1.19781,-1.99388l-1.1755,1.99388h-2.23195l2.17987,-3.17681l-2.09059,-3.05033h2.18731l1.15318,1.793l1.10854,-1.793h2.19475l-2.06083,3.02801l2.14267,3.19913z" fill="#000000" stroke="#000000" stroke-width="0"/><path d="M408.81524,181.00001c-0.89873,-0.02741 -1.6078,-0.77336 -1.58967,-1.67232c0.01814,-0.89896 0.75673,-1.6157 1.65583,-1.60684c0.8991,0.00886 1.62342,0.74001 1.62384,1.63916c0.01501,0.44822 -0.15997,0.88194 -0.48182,1.19426c-0.32184,0.31232 -0.76062,0.4742 -1.20818,0.44574zM408.81524,186.08001c-0.90575,0 -1.64,-0.73425 -1.64,-1.64c0,-0.90575 0.73425,-1.64 1.64,-1.64c0.90575,0 1.64,0.73425 1.64,1.64c0,0.90575 -0.73425,1.64 -1.64,1.64z" fill="#000000" stroke="#000000" stroke-width="0"/><path d="M408.81524,181.00001c-0.89873,-0.02741 -1.6078,-0.77336 -1.58967,-1.67232c0.01814,-0.89896 0.75673,-1.6157 1.65583,-1.60684c0.8991,0.00886 1.62342,0.74001 1.62384,1.63916c0.01501,0.44822 -0.15997,0.88194 -0.48182,1.19426c-0.32184,0.31232 -0.76062,0.4742 -1.20818,0.44574zM408.81524,186.08001c-0.90575,0 -1.64,-0.73425 -1.64,-1.64c0,-0.90575 0.73425,-1.64 1.64,-1.64c0.90575,0 1.64,0.73425 1.64,1.64c0,0.90575 -0.73425,1.64 -1.64,1.64z" fill="#000000" stroke="#000000" stroke-width="0"/><path d="M408.81524,181.00001c-0.89873,-0.02741 -1.6078,-0.77336 -1.58967,-1.67232c0.01814,-0.89896 0.75673,-1.6157 1.65583,-1.60684c0.8991,0.00886 1.62342,0.74001 1.62384,1.63916c0.01501,0.44822 -0.15997,0.88194 -0.48182,1.19426c-0.32184,0.31232 -0.76062,0.4742 -1.20818,0.44574zM408.81524,186.08001c-0.90575,0 -1.64,-0.73425 -1.64,-1.64c0,-0.90575 0.73425,-1.64 1.64,-1.64c0.90575,0 1.64,0.73425 1.64,1.64c0,0.90575 -0.73425,1.64 -1.64,1.64z" fill="#000000" stroke="#000000" stroke-width="0"/><path d="M448.1081,186.08001c-0.90575,0 -1.64,-0.73425 -1.64,-1.64c0,-0.90575 0.73425,-1.64 1.64,-1.64c0.90575,0 1.64,0.73425 1.64,1.64c0,0.90575 -0.73425,1.64 -1.64,1.64z" fill="#000000" stroke="#000000" stroke-width="0"/><path d="M448.1081,186.08001c-0.90575,0 -1.64,-0.73425 -1.64,-1.64c0,-0.90575 0.73425,-1.64 1.64,-1.64c0.90575,0 1.64,0.73425 1.64,1.64c0,0.90575 -0.73425,1.64 -1.64,1.64z" fill="#000000" stroke="#000000" stroke-width="0"/><path d="M45.53154,184.36143h-2.23195l4.53831,-6.22714h2.19475z" fill="#000000" stroke="#000000" stroke-width="0"/></g></g></svg>