<svg version="1.1" xmlns="http://www.w3.org/2000/svg" xmlns:xlink="http://www.w3.org/1999/xlink" width="18.00455" height="26.5141" viewBox="0,0,18.00455,26.5141"><g transform="translate(-231.49772,-166.7359)"><g data-paper-data="{&quot;isPaintingLayer&quot;:true}" fill-rule="nonzero" stroke-linecap="butt" stroke-miterlimit="10" stroke-dasharray="" stroke-dashoffset="0" style="mix-blend-mode: normal"><g stroke-width="2.5"><path d="M248.25228,181.49692h-12.00352v-9.00264h12.00352l-3.00088,4.50132z" fill="none" stroke="#000000" stroke-linejoin="round"/><path d="M248.25228,181.49692h-12.00352v-9.00264h12.00352l-3.00088,4.50132z" fill="#ffff00" stroke="none" stroke-linejoin="miter"/></g><g stroke-width="2.5"><path d="M237.74919,189.49927v2.50073h-5.00146v-2.50073h1.50044v-17.78022c-0.78417,-0.45274 -1.16648,-1.37572 -0.93213,-2.25035c0.23435,-0.87463 1.02695,-1.4828 1.93242,-1.4828c0.90547,0 1.69806,0.60817 1.93241,1.4828c0.23435,0.87463 -0.14796,1.79761 -0.93212,2.25035v17.78022z" fill="none" stroke="#000000" stroke-linejoin="round"/><path d="M237.74919,189.49927v2.50073h-5.00146v-2.50073h1.50044v-17.78022c-0.78417,-0.45274 -1.16648,-1.37572 -0.93213,-2.25035c0.23435,-0.87463 1.02695,-1.4828 1.93242,-1.4828c0.90547,0 1.69806,0.60817 1.93241,1.4828c0.23435,0.87463 -0.14796,1.79761 -0.93212,2.25035v17.78022z" fill="#3ac54d" stroke="none" stroke-linejoin="miter"/></g><path d="M248.25228,181.49692h-12.00352v-9.00264h12.00352l-3.00088,4.50132z" fill="#ffff00" stroke="none" stroke-width="1" stroke-linejoin="miter"/><path d="M237.74919,189.49927v2.50073h-5.00146v-2.50073h1.50044v-17.78022c-0.78417,-0.45274 -1.16648,-1.37572 -0.93213,-2.25035c0.23435,-0.87463 1.02695,-1.4828 1.93242,-1.4828c0.90547,0 1.69806,0.60817 1.93241,1.4828c0.23435,0.87463 -0.14796,1.79761 -0.93212,2.25035v17.78022z" fill="#3ac54d" stroke="none" stroke-width="1" stroke-linejoin="miter"/><path d="M243.75095,174.99501l-3.50103,3.50103l-1.50044,-1.50044" fill="none" stroke="#a8a800" stroke-width="1.5" stroke-linejoin="round"/></g></g></svg>