<svg version="1.1" xmlns="http://www.w3.org/2000/svg" xmlns:xlink="http://www.w3.org/1999/xlink" width="153" height="41" viewBox="0,0,153,41"><g transform="translate(-163.5,-159.5)"><g data-paper-data="{&quot;isPaintingLayer&quot;:true}" fill-rule="nonzero" stroke="none" stroke-width="1" stroke-linecap="butt" stroke-linejoin="miter" stroke-miterlimit="10" stroke-dasharray="" stroke-dashoffset="0" style="mix-blend-mode: normal"><path d="M310.15,200.5h-140.3c-3.50245,-0.01098 -6.33902,-2.84755 -6.35,-6.35v-26.3c0.01098,-3.50245 2.84755,-6.33902 6.35,-6.35h140.3c3.50245,0.01098 6.33902,2.84755 6.35,6.35v26.3c-0.01098,3.50245 -2.84755,6.33902 -6.35,6.35z" fill="#000000" opacity="0.1"/><path d="M310.15,198.5h-140.3c-3.50245,-0.01098 -6.33902,-2.84755 -6.35,-6.35v-26.3c0.01098,-3.50245 2.84755,-6.33902 6.35,-6.35h140.3c3.50245,0.01098 6.33902,2.84755 6.35,6.35v26.3c-0.01098,3.50245 -2.84755,6.33902 -6.35,6.35z" fill="#ffff87" opacity="0.95"/><path d="M224.59,182.32c0,-0.75 -0.81,-1 -2.3,-1.42c-1.49,-0.42 -3.62,-1.21 -3.62,-3.46c0,-2.09 1.53,-3.47 4.32,-3.47c1.46928,-0.03534 2.92282,0.3091 4.22,1l-0.56,2.36c-1.12029,-0.60882 -2.36591,-0.95102 -3.64,-1c-1,0 -1.48,0.34 -1.48,1c0,0.66 1,1 2.38,1.41c1.73,0.46 3.53,1.26 3.53,3.4c0,2.14 -1.66,3.65 -4.61,3.65c-1.50631,0.0231 -2.99568,-0.32007 -4.34,-1l0.54,-2.38c1.18345,0.64009 2.50464,0.98326 3.85,1c1.01,-0.03 1.71,-0.4 1.71,-1.09z" fill="#000000"/><path d="M240.24,185.5h-2.85l-0.83,-2.39h-4.17l-0.81,2.39h-2.85l4,-11.25h3.58zM234.49,176.5l-1.49,4.35h2.93z" fill="#000000"/><path d="M247.35,185.5h-3.59l-3.8,-11.25h3l2.66,8.48l2.65,-8.48h3z" fill="#000000"/><path d="M253.03,185.5v-11.28h8.23v2.28h-5.42v2.17h4.36v2.28h-4.36v2.2h5.42v2.35z" fill="#000000"/></g></g></svg>