<svg version="1.1" xmlns="http://www.w3.org/2000/svg" xmlns:xlink="http://www.w3.org/1999/xlink" width="53" height="27.29" viewBox="0,0,53,27.29"><g transform="translate(-213,-167.71)"><g data-paper-data="{&quot;isPaintingLayer&quot;:true}" fill-rule="nonzero" stroke-linecap="butt" stroke-miterlimit="10" stroke-dasharray="" stroke-dashoffset="0" style="mix-blend-mode: normal"><g><path d="M263.96,183.91001l-9.35,-1.95l7.44,-12.25z" fill="none" stroke="#000000" stroke-width="4" stroke-linejoin="round"/><path d="M263.96,183.91001l-9.35,-1.95l7.44,-12.25z" fill="#b3b3b3" stroke="none" stroke-width="1" stroke-linejoin="miter"/></g><g stroke="none" stroke-width="1" stroke-linejoin="miter"><path d="M266,195.00001h-53v-9c0,-4.41828 3.58172,-8 8,-8h37c4.41828,0 8,3.58172 8,8zM217,191.00001h45v-5c0,-2.20914 -1.79086,-4 -4,-4h-37c-2.20914,0 -4,1.79086 -4,4z" fill="#000000"/><path d="M264,193.00001h-49v-7c0,-3.31371 2.68629,-6 6,-6h37c3.31371,0 6,2.68629 6,6z" fill="#00a99d"/></g><path d="M256,190.00001v-5h5v5z" fill="#ffffff" stroke="#ffffff" stroke-width="2" stroke-linejoin="round"/><path d="M258,190.00001v-3h3v3z" fill="#000000" stroke="none" stroke-width="1" stroke-linejoin="miter"/><path d="M246,193.00001v-13h5v13z" fill="#008279" stroke="none" stroke-width="1" stroke-linejoin="miter"/><path d="M236,193.00001v-13h5v13z" fill="#008279" stroke="none" stroke-width="1" stroke-linejoin="miter"/><path d="M226,193.00001v-13h5v13z" fill="#008279" stroke="none" stroke-width="1" stroke-linejoin="miter"/></g></g></svg>