<svg xmlns="http://www.w3.org/2000/svg" viewBox="0 0 93 41"><defs><style>.cls-1{opacity:0.1;}.cls-2{fill:#fff;opacity:0.95;}</style></defs><g id="Layer_1" data-name="Layer 1"><path class="cls-1" d="M86.65,41H6.35A6.37,6.37,0,0,1,0,34.65V8.35A6.37,6.37,0,0,1,6.35,2h80.3A6.37,6.37,0,0,1,93,8.35v26.3A6.37,6.37,0,0,1,86.65,41Z"/><path class="cls-2" d="M86.65,39H6.35A6.37,6.37,0,0,1,0,32.65V6.35A6.37,6.37,0,0,1,6.35,0h80.3A6.37,6.37,0,0,1,93,6.35v26.3A6.37,6.37,0,0,1,86.65,39Z"/></g><g id="Explosion"><path d="M33.64,21c0,1.8-1,3.28-4.55,3.28H24.17V13h4.88c3.35,0,4.25,1.27,4.25,2.93a2.46,2.46,0,0,1-2.09,2.43A2.68,2.68,0,0,1,33.64,21Zm-4.86-5.83H26.94v2.59h1.7c1.19,0,1.8-.49,1.8-1.33S29.86,15.13,28.78,15.13Zm0,4.37H26.94v2.6h1.93c1.3,0,1.89-.42,1.89-1.3S30,19.5,28.78,19.5Z"/><path d="M46.28,24.24H43.43l-.83-2.4H38.43l-.81,2.4H34.77l4-11.25h3.58Zm-5.75-9L39,19.61H42Z"/><path d="M56.2,16a5.58,5.58,0,0,0-2.85-.81,3.1,3.1,0,0,0-3.2,3.43c0,2.15,1.18,3.5,3.22,3.5a5.4,5.4,0,0,0,3-.92l.59,2.54a8.52,8.52,0,0,1-3.69.81c-3.6,0-6-2.07-6-5.85s2.35-5.95,6.06-5.95a8.75,8.75,0,0,1,3.73.85Z"/><path d="M62.22,18,66,13h3.28L64.8,18.48l4.55,5.76H65.93l-3.71-4.95h0v4.95H59.34V13h2.87v5Z"/></g></svg>