<svg version="1.1" xmlns="http://www.w3.org/2000/svg" xmlns:xlink="http://www.w3.org/1999/xlink" width="93" height="41" viewBox="0,0,93,41"><g transform="translate(-193.5,-159.5)"><g data-paper-data="{&quot;isPaintingLayer&quot;:true}" fill-rule="nonzero" stroke="none" stroke-width="1" stroke-linecap="butt" stroke-linejoin="miter" stroke-miterlimit="10" stroke-dasharray="" stroke-dashoffset="0" style="mix-blend-mode: normal"><g><path d="M280.15,200.5h-80.3c-3.50245,-0.01098 -6.33902,-2.84755 -6.35,-6.35v-26.3c0.01098,-3.50245 2.84755,-6.33902 6.35,-6.35h80.3c3.50245,0.01098 6.33902,2.84755 6.35,6.35v26.3c-0.01098,3.50245 -2.84755,6.33902 -6.35,6.35z" fill="#000000" opacity="0.1"/><path d="M280.15,198.5h-80.3c-3.50245,-0.01098 -6.33902,-2.84755 -6.35,-6.35v-26.3c0.01098,-3.50245 2.84755,-6.33902 6.35,-6.35h80.3c3.50245,0.01098 6.33902,2.84755 6.35,6.35v26.3c-0.01098,3.50245 -2.84755,6.33902 -6.35,6.35z" fill="#ffff87" opacity="0.95"/></g><g fill="#000000"><path d="M227.14,180.5c0,1.8 -1,3.28 -4.55,3.28h-4.92v-11.28h4.88c3.35,0 4.25,1.27 4.25,2.93c-0.001,1.21498 -0.88884,2.24726 -2.09,2.43c1.3665,0.12795 2.41549,1.2676 2.43,2.64zM222.28,174.67h-1.84v2.59h1.7c1.19,0 1.8,-0.49 1.8,-1.33c0,-0.84 -0.58,-1.3 -1.66,-1.3zM222.28,179.04h-1.84v2.6h1.93c1.3,0 1.89,-0.42 1.89,-1.3c0,-0.88 -0.76,-1.34 -1.98,-1.34z"/><path d="M239.78,183.74h-2.85l-0.83,-2.4h-4.17l-0.81,2.4h-2.85l4,-11.25h3.58zM234.03,174.74l-1.53,4.37h3z"/><path d="M249.7,175.5c-0.85965,-0.52189 -1.84437,-0.80176 -2.85,-0.81c-0.89991,-0.03424 -1.77023,0.32455 -2.38457,0.98304c-0.61433,0.65849 -0.91195,1.55158 -0.81543,2.44696c0,2.15 1.18,3.5 3.22,3.5c1.06902,-0.00296 2.11311,-0.32314 3,-0.92l0.59,2.54c-1.15389,0.54273 -2.41488,0.81954 -3.69,0.81c-3.6,0 -6,-2.07 -6,-5.85c0,-3.78 2.35,-5.95 6.06,-5.95c1.29081,0.00474 2.56458,0.29501 3.73,0.85z"/><path d="M255.72,177.5l3.78,-5h3.28l-4.48,5.48l4.55,5.76h-3.42l-3.71,-4.95v0v4.95h-2.88v-11.24h2.87v5z"/></g></g></g></svg>