<svg id="Layer_1" data-name="Layer 1" xmlns="http://www.w3.org/2000/svg" viewBox="0 0 480 360"><defs><style>.cls-1{fill:#fff;opacity:0.95;}</style></defs><path class="cls-1" d="M410,336.29H69.71a6.37,6.37,0,0,1-6.36-6.35V227.65a6.38,6.38,0,0,1,6.36-6.36H410a6.37,6.37,0,0,1,6.35,6.36V329.94A6.37,6.37,0,0,1,410,336.29Z"/><path d="M98.43,240.58l2.49-3.31h2.19l-3,3.66,3,3.84H100.9l-2.47-3.3h0v3.3H96.51v-7.5h1.91v3.31Z"/><path d="M105.41,242.42c.06.74.58,1.17,1.48,1.17a3.69,3.69,0,0,0,1.82-.54l.18,1.43a5,5,0,0,1-2.17.46A2.79,2.79,0,0,1,103.6,242a2.86,2.86,0,0,1,3-3,2.21,2.21,0,0,1,2.45,2.34,4.24,4.24,0,0,1-.12,1l-3.54.06Zm2-1v-.11c0-.66-.28-1.07-.86-1.07a1.18,1.18,0,0,0-1.08,1.19Z"/><path d="M114,244.51l-.28.73c-.57,1.63-1.27,2.12-2.44,2.12a3.87,3.87,0,0,1-1.66-.36l.55-1.4a2.19,2.19,0,0,0,.87.25c.39,0,.57-.15.79-.68l.15-.44-2.18-5.54h2l1.19,3.67,1.08-3.67h2Z"/><path d="M119,245a5.75,5.75,0,0,1-2.36-.49l.36-1.33a4.68,4.68,0,0,0,2,.52c.49,0,.75-.16.75-.45s-.31-.43-.94-.58c-1.3-.25-2.13-.73-2.13-1.82s.91-1.79,2.46-1.79a6.11,6.11,0,0,1,2.27.48l-.37,1.32a4.85,4.85,0,0,0-1.92-.5c-.45,0-.69.14-.69.42s.35.42,1,.55c1.32.29,2.1.72,2.1,1.83S120.68,245,119,245Z"/><path d="M124,241.57a1.1,1.1,0,1,1,1.13-1.09A1.06,1.06,0,0,1,124,241.57Zm0,3.38a1.09,1.09,0,1,1,1.13-1.09A1.05,1.05,0,0,1,124,245Z"/><path d="M96.55,261.63V250.87h4.07v1.37H98.19v8h2.43v1.36Z"/><path d="M106.05,255.14l-1.39.32,0-1.52,3.26-.71v5.94h-1.83Z"/><path d="M110.68,259.35a1.09,1.09,0,1,1,1.13-1.09A1.06,1.06,0,0,1,110.68,259.35Z"/><path d="M114.4,259.35a1.09,1.09,0,1,1,1.13-1.09A1.06,1.06,0,0,1,114.4,259.35Z"/><path d="M116.54,255l0-1.59h5.52v1.25l-3.21,6.6h-1.79l3.14-6.26Z"/><path d="M125.91,260.27h2.43v-8h-2.43v-1.37H130v10.76h-4.09Z"/><path d="M152,253.27v5.9h-1.91v-5.9h-2.39v-1.6h6.68v1.6Z"/><path d="M157.37,259.35a2.79,2.79,0,0,1-3-3,2.86,2.86,0,0,1,3-3,2.78,2.78,0,0,1,2.95,3A2.88,2.88,0,0,1,157.37,259.35Zm0-4.53c-.76,0-1.15.61-1.15,1.57s.41,1.54,1.16,1.54,1.15-.6,1.15-1.56S158.15,254.82,157.39,254.82Z"/><path d="M161.47,258.53a1.45,1.45,0,0,1,1.15-1.23,1.89,1.89,0,0,1-1.12-1.73c0-1.21,1-2.16,2.65-2.16a4.25,4.25,0,0,1,1.7.4l1.57-.13.08,1.49-1.07-.16a1.25,1.25,0,0,1,.15.61,2.2,2.2,0,0,1-2.45,2,4,4,0,0,1-.74-.08.5.5,0,0,0-.32.41c0,.25.28.34,1,.34h.66c1.52,0,2.57.39,2.57,1.58,0,1.39-1.66,2.29-3.49,2.29-1.49,0-2.72-.47-2.72-1.45,0-.56.45-1.07,1.33-1.18C162,259.4,161.47,259.05,161.47,258.53Zm1.26,1.83c0,.43.55.73,1.4.73s1.59-.28,1.59-.76-.47-.55-1.44-.55c-.35,0-.9,0-1.1,0A.69.69,0,0,0,162.73,260.36Zm1.4-3.79c.57,0,.82-.41.82-1s-.28-1-.85-1-.84.41-.84,1S163.55,256.57,164.13,256.57Z"/><path d="M168.25,258.53a1.45,1.45,0,0,1,1.15-1.23,1.89,1.89,0,0,1-1.12-1.73c0-1.21,1-2.16,2.65-2.16a4.25,4.25,0,0,1,1.7.4l1.57-.13.08,1.49L173.2,255a1.15,1.15,0,0,1,.16.61,2.2,2.2,0,0,1-2.45,2,4,4,0,0,1-.74-.08.5.5,0,0,0-.32.41c0,.25.28.34,1,.34h.66c1.52,0,2.57.39,2.57,1.58,0,1.39-1.66,2.29-3.49,2.29-1.5,0-2.72-.47-2.72-1.45,0-.56.45-1.07,1.33-1.18C168.73,259.4,168.25,259.05,168.25,258.53Zm1.26,1.83c0,.43.55.73,1.4.73s1.59-.28,1.59-.76-.47-.55-1.44-.55c-.35,0-.9,0-1.11,0A.69.69,0,0,0,169.51,260.36Zm1.4-3.79c.57,0,.82-.41.82-1s-.28-1-.85-1-.84.41-.84,1S170.33,256.57,170.91,256.57Z"/><path d="M175.3,259.17v-7.93l1.84-.23v8.16Z"/><path d="M180.36,256.82c.06.74.57,1.17,1.47,1.17a3.73,3.73,0,0,0,1.83-.54l.18,1.43a5,5,0,0,1-2.17.46,2.79,2.79,0,0,1-3.12-2.92,2.86,2.86,0,0,1,3-3,2.22,2.22,0,0,1,2.45,2.34,4.24,4.24,0,0,1-.12,1l-3.54.06Zm1.94-1v-.11c0-.66-.27-1.07-.85-1.07a1.16,1.16,0,0,0-1.08,1.19Z"/><path d="M187.44,259.35a5.72,5.72,0,0,1-2.36-.49l.35-1.33a4.71,4.71,0,0,0,2,.52c.5,0,.76-.16.76-.45s-.31-.43-.95-.58c-1.29-.25-2.12-.73-2.12-1.82s.91-1.79,2.46-1.79a6.1,6.1,0,0,1,2.26.48l-.37,1.32a4.81,4.81,0,0,0-1.92-.5c-.44,0-.68.14-.68.42s.35.42,1,.55c1.32.29,2.1.72,2.1,1.83S189.08,259.35,187.44,259.35Z"/><path d="M198.37,253.27v5.9h-1.91v-5.9h-2.38v-1.6h6.68v1.6Z"/><path d="M202.85,252.8c-.68,0-1.1-.35-1.1-1s.42-1,1.1-1a1,1,0,0,1,1.09,1C203.94,252.45,203.53,252.8,202.85,252.8Zm-.93,6.37v-5.48l1.85-.23v5.71Z"/><path d="M205.47,259.17v-7.93l1.85-.23v8.16Z"/><path d="M210.54,256.82c.06.74.57,1.17,1.47,1.17a3.76,3.76,0,0,0,1.83-.54l.18,1.43a5,5,0,0,1-2.17.46,2.79,2.79,0,0,1-3.12-2.92,2.86,2.86,0,0,1,3-3,2.22,2.22,0,0,1,2.45,2.34,4.24,4.24,0,0,1-.12,1l-3.54.06Zm1.94-1v-.11c0-.66-.28-1.07-.85-1.07a1.16,1.16,0,0,0-1.08,1.19Z"/><path d="M219,261.56h-1.51l2.91-10.81h1.51Z"/><path d="M231.44,253.65a3.78,3.78,0,0,0-1.9-.54,2.32,2.32,0,0,0,0,4.62,3.65,3.65,0,0,0,2-.61l.39,1.69a5.69,5.69,0,0,1-2.46.54,3.63,3.63,0,0,1-4-3.9,3.73,3.73,0,0,1,4-4,5.78,5.78,0,0,1,2.49.57Z"/><path d="M236.43,258.5a2,2,0,0,1-1.6.85,1.62,1.62,0,0,1-1.71-1.55c0-1.05.79-1.91,3.3-2v-.1c0-.59-.3-.86-1-.86a4.47,4.47,0,0,0-1.9.57l-.38-1.36a5.64,5.64,0,0,1,2.57-.66c1.93,0,2.56.88,2.54,2.44v1.65c0,.39.07.42.45.46l-.18,1.32c-1.21.15-1.81-.17-2.06-.78Zm0-1.81c-1.14.13-1.56.34-1.56.84a.62.62,0,0,0,.7.6,1.12,1.12,0,0,0,.86-.38Z"/><path d="M242.18,259.35c-1.38,0-2.12-.56-2.05-2l.08-2.12-.84-.15,0-1.17.84-.28,0-1.27h1.79v1.33h1.39l0,1.46h-1.48l-.06,2c0,.51.27.73.73.73a2.47,2.47,0,0,0,.73-.14l.22,1.43A4,4,0,0,1,242.18,259.35Z"/><path d="M246.3,256.82c.06.74.57,1.17,1.47,1.17a3.76,3.76,0,0,0,1.83-.54l.18,1.43a5,5,0,0,1-2.18.46,2.79,2.79,0,0,1-3.11-2.92,2.86,2.86,0,0,1,3-3,2.21,2.21,0,0,1,2.44,2.34,4.26,4.26,0,0,1-.11,1l-3.54.06Zm1.94-1v-.11c0-.66-.28-1.07-.85-1.07a1.16,1.16,0,0,0-1.08,1.19Z"/><path d="M251.06,258.53a1.45,1.45,0,0,1,1.15-1.23,1.89,1.89,0,0,1-1.12-1.73c0-1.21,1-2.16,2.65-2.16a4.25,4.25,0,0,1,1.7.4l1.57-.13.08,1.49L256,255a1.25,1.25,0,0,1,.15.61,2.2,2.2,0,0,1-2.45,2,4,4,0,0,1-.74-.08.5.5,0,0,0-.32.41c0,.25.28.34,1,.34h.66c1.52,0,2.57.39,2.57,1.58,0,1.39-1.66,2.29-3.49,2.29-1.49,0-2.72-.47-2.72-1.45,0-.56.45-1.07,1.33-1.18C251.54,259.4,251.06,259.05,251.06,258.53Zm1.26,1.83c0,.43.55.73,1.4.73s1.59-.28,1.59-.76-.47-.55-1.44-.55c-.35,0-.9,0-1.1,0A.69.69,0,0,0,252.32,260.36Zm1.4-3.79c.57,0,.82-.41.82-1s-.28-1-.85-1-.84.41-.84,1S253.14,256.57,253.72,256.57Z"/><path d="M260.77,259.35a2.78,2.78,0,0,1-3-3,2.85,2.85,0,0,1,3-3,2.78,2.78,0,0,1,3,3A2.87,2.87,0,0,1,260.77,259.35Zm0-4.53c-.75,0-1.15.61-1.15,1.57s.41,1.54,1.16,1.54,1.16-.6,1.16-1.56S261.55,254.82,260.79,254.82Z"/><path d="M267,259.17H265.2v-5.48l1.84-.23v.82a1.5,1.5,0,0,1,1.35-.87,2,2,0,0,1,.92.23l-.37,1.63a1.57,1.57,0,0,0-.7-.17,1.37,1.37,0,0,0-1.2.82Z"/><path d="M274.05,258.91l-.27.73c-.58,1.63-1.28,2.12-2.45,2.12a3.87,3.87,0,0,1-1.66-.36l.56-1.4a2.15,2.15,0,0,0,.86.25c.4,0,.58-.15.79-.69l.16-.43-2.19-5.54h2l1.19,3.67,1.08-3.67h2Z"/><path d="M282.43,259.35c-1.38,0-2.12-.56-2.05-2l.08-2.12-.84-.15,0-1.17.84-.28,0-1.27h1.79v1.33h1.39l0,1.46h-1.49l-.06,2c0,.51.28.73.74.73a2.53,2.53,0,0,0,.73-.14l.21,1.43A4,4,0,0,1,282.43,259.35Z"/><path d="M287.7,259.35a2.79,2.79,0,0,1-3-3,2.86,2.86,0,0,1,3-3,2.78,2.78,0,0,1,3,3A2.88,2.88,0,0,1,287.7,259.35Zm0-4.53c-.76,0-1.15.61-1.15,1.57s.41,1.54,1.16,1.54,1.15-.6,1.15-1.56S288.48,254.82,287.72,254.82Z"/><path d="M298.9,251.24l1.85-.23v8.16H298.9v-.58a2.16,2.16,0,0,1-1.56.75c-1.37,0-2.38-1.13-2.38-2.89a2.83,2.83,0,0,1,2.79-3,3.51,3.51,0,0,1,1.15.2Zm-.85,3.55c-.78,0-1.25.64-1.25,1.56s.48,1.51,1.17,1.51a1.23,1.23,0,0,0,.93-.38V255A1.5,1.5,0,0,0,298.05,254.79Z"/><path d="M304.32,259.17h-1.85v-5.48l1.85-.23v.82a1.48,1.48,0,0,1,1.34-.87,2,2,0,0,1,.92.23l-.37,1.63a1.5,1.5,0,0,0-.69-.17,1.35,1.35,0,0,0-1.2.82Z"/><path d="M310.64,258.5a2,2,0,0,1-1.61.85,1.61,1.61,0,0,1-1.7-1.55c0-1.05.79-1.91,3.3-2v-.1c0-.59-.3-.86-1-.86a4.47,4.47,0,0,0-1.89.57l-.38-1.36a5.6,5.6,0,0,1,2.56-.66c1.93,0,2.57.88,2.54,2.44v1.65c0,.39.07.42.46.46l-.18,1.32c-1.21.15-1.81-.17-2.06-.78Zm0-1.81c-1.14.13-1.56.34-1.56.84a.62.62,0,0,0,.69.6,1.13,1.13,0,0,0,.87-.38Z"/><path d="M315.19,259.19l-1.57-5.6h1.87l.75,3.71.95-3.71h1.93l1,3.65.65-3.65h1.92l-1.58,5.6h-1.88l-1.06-3.67-1.07,3.67Z"/><path d="M327.94,259.19l-1.57-5.6h1.87l.76,3.71.95-3.71h1.93l1,3.65.65-3.65h1.91l-1.58,5.6H332l-1.07-3.67-1.06,3.67Z"/><path d="M337.46,252.8c-.67,0-1.09-.35-1.09-1a1.09,1.09,0,0,1,2.18,0C338.55,252.45,338.14,252.8,337.46,252.8Zm-.92,6.37v-5.48l1.84-.23v5.71Z"/><path d="M342.33,259.35c-1.38,0-2.12-.56-2.05-2l.08-2.12-.83-.15,0-1.17.84-.28,0-1.27h1.79v1.33h1.39l0,1.46h-1.48l-.06,2c0,.51.27.73.73.73a2.47,2.47,0,0,0,.73-.14l.22,1.43A4,4,0,0,1,342.33,259.35Z"/><path d="M348.64,259.17v-3.3c0-.67-.3-.89-.77-.89a1.59,1.59,0,0,0-1,.42v3.77H345v-7.93l1.84-.23v3.35a2.58,2.58,0,0,1,1.89-1,1.7,1.7,0,0,1,1.76,1.92v3.84Z"/><path d="M96.55,276V265.27h4.07v1.37H98.19v8h2.43V276Z"/><path d="M106.9,273.57H105v-7.5h3c2,0,3,.93,3,2.38a2.2,2.2,0,0,1-1.54,2.16l1.92,3h-2.15l-1.49-2.52-.88.07Zm.92-3.89c.82-.06,1.26-.39,1.26-1.11s-.45-1-1.41-1h-.81v2.13Z"/><path d="M115.21,274.67h2.43v-8h-2.43v-1.37h4.09V276h-4.09Z"/><path d="M150.09,273.57h-1.9v-7.5h3c2,0,3,.93,3,2.38a2.21,2.21,0,0,1-1.53,2.16l1.92,3h-2.15l-1.5-2.52-.88.07Zm.93-3.89c.81-.06,1.26-.39,1.26-1.11s-.46-1-1.42-1h-.8v2.13Z"/><path d="M158.33,273.75a2.79,2.79,0,0,1-3-2.95,2.86,2.86,0,0,1,3-3,2.78,2.78,0,0,1,2.95,2.95A2.88,2.88,0,0,1,158.33,273.75Zm0-4.53c-.76,0-1.15.61-1.15,1.57s.41,1.54,1.16,1.54,1.15-.6,1.15-1.56S159.1,269.22,158.35,269.22Z"/><path d="M165,273.75c-1.38,0-2.12-.57-2.05-2l.08-2.12-.84-.14,0-1.18.84-.28,0-1.27h1.79v1.33h1.39l0,1.45h-1.49l-.06,2c0,.51.28.73.74.73a2.53,2.53,0,0,0,.73-.14l.21,1.44A4.22,4.22,0,0,1,165,273.75Z"/><path d="M170.67,272.9a2,2,0,0,1-1.6.85,1.62,1.62,0,0,1-1.71-1.55c0-1.05.79-1.91,3.3-2v-.11c0-.58-.3-.85-1-.85a4.47,4.47,0,0,0-1.9.57l-.38-1.36a5.64,5.64,0,0,1,2.57-.66c1.93,0,2.56.88,2.54,2.44v1.65c0,.39.07.42.45.46l-.18,1.32c-1.21.15-1.81-.17-2.06-.78Zm0-1.81c-1.14.13-1.56.34-1.56.84a.62.62,0,0,0,.7.6,1.12,1.12,0,0,0,.86-.38Z"/><path d="M176.42,273.75c-1.38,0-2.12-.57-2-2l.08-2.12-.83-.14,0-1.18.84-.28,0-1.27h1.78v1.33h1.39l0,1.45h-1.49l-.06,2c0,.51.27.73.73.73a2.47,2.47,0,0,0,.73-.14l.22,1.44A4.24,4.24,0,0,1,176.42,273.75Z"/><path d="M180.54,271.22c.06.74.57,1.17,1.47,1.17a3.76,3.76,0,0,0,1.83-.54l.18,1.43a5,5,0,0,1-2.17.46,2.79,2.79,0,0,1-3.12-2.92,2.86,2.86,0,0,1,3-3,2.22,2.22,0,0,1,2.45,2.34,4.24,4.24,0,0,1-.12,1l-3.54.06Zm1.94-1v-.11c0-.66-.28-1.07-.85-1.07a1.16,1.16,0,0,0-1.08,1.19Z"/><path d="M191.48,273.75a2.72,2.72,0,0,1-3-2.93,2.84,2.84,0,0,1,3.07-3,4.26,4.26,0,0,1,2,.47l-.36,1.39a3.2,3.2,0,0,0-1.48-.43,1.35,1.35,0,0,0-1.38,1.52,1.38,1.38,0,0,0,1.43,1.55,2.78,2.78,0,0,0,1.47-.42l.28,1.4A4.13,4.13,0,0,1,191.48,273.75Z"/><path d="M196.75,268v3.3c0,.67.29.9.77.9a1.41,1.41,0,0,0,.94-.37V268h1.85v5.49l-1.85.23v-.83a2.51,2.51,0,0,1-1.81.87,1.7,1.7,0,0,1-1.75-1.92V268Z"/><path d="M203.87,273.57H202v-5.48l1.85-.23v.81a1.48,1.48,0,0,1,1.34-.86,2,2,0,0,1,.92.23l-.37,1.63a1.57,1.57,0,0,0-.7-.17,1.34,1.34,0,0,0-1.19.82Z"/><path d="M209.06,273.57h-1.85v-5.48l1.85-.23v.81a1.51,1.51,0,0,1,1.34-.86,2,2,0,0,1,.93.23l-.37,1.63a1.57,1.57,0,0,0-.7-.17,1.36,1.36,0,0,0-1.2.82Z"/><path d="M213.8,271.22c.06.74.58,1.17,1.48,1.17a3.69,3.69,0,0,0,1.82-.54l.18,1.43a5,5,0,0,1-2.17.46,2.79,2.79,0,0,1-3.12-2.92,2.86,2.86,0,0,1,3-3,2.21,2.21,0,0,1,2.45,2.34,4.24,4.24,0,0,1-.12,1l-3.54.06Zm1.95-1v-.11c0-.66-.28-1.07-.86-1.07a1.17,1.17,0,0,0-1.08,1.19Z"/><path d="M222.54,273.57v-3.3c0-.67-.3-.89-.79-.89a1.58,1.58,0,0,0-1,.42v3.77h-1.85v-5.48l1.85-.23v.91a2.55,2.55,0,0,1,1.87-1,1.7,1.7,0,0,1,1.77,1.92v3.84Z"/><path d="M228.3,273.75c-1.38,0-2.13-.57-2.05-2l.08-2.12-.84-.14,0-1.18.84-.28,0-1.27h1.79v1.33h1.39l0,1.45H228l-.06,2a.64.64,0,0,0,.73.73,2.6,2.6,0,0,0,.74-.14l.21,1.44A4.22,4.22,0,0,1,228.3,273.75Z"/><path d="M236.33,273.75c-1.38,0-2.13-.57-2.06-2l.09-2.12-.84-.14,0-1.18.84-.28,0-1.27h1.78v1.33h1.39l0,1.45h-1.49l-.06,2a.64.64,0,0,0,.73.73,2.47,2.47,0,0,0,.73-.14l.22,1.44A4.22,4.22,0,0,1,236.33,273.75Z"/><path d="M239.91,267.2c-.67,0-1.09-.35-1.09-1a1,1,0,0,1,1.09-1c.69,0,1.09.35,1.09,1S240.6,267.2,239.91,267.2Zm-.92,6.37v-5.48l1.85-.23v5.71Z"/><path d="M242.54,273.57v-7.93l1.85-.23v8.16Z"/><path d="M247.61,271.22c.06.74.57,1.17,1.47,1.17a3.69,3.69,0,0,0,1.82-.54l.18,1.43a4.93,4.93,0,0,1-2.17.46,2.79,2.79,0,0,1-3.12-2.92,2.87,2.87,0,0,1,3-3,2.21,2.21,0,0,1,2.44,2.34,3.76,3.76,0,0,1-.12,1l-3.53.06Zm1.94-1v-.11c0-.66-.28-1.07-.85-1.07a1.16,1.16,0,0,0-1.08,1.19Z"/><path d="M96.55,290.43V279.67h4.07V281H98.19v8h2.43v1.36Z"/><path d="M105,288v-7.5h5.48V282h-3.61v1.44h2.91V285h-2.91v1.46h3.61V288Z"/><path d="M114.58,289.07H117v-8h-2.44v-1.37h4.09v10.76h-4.09Z"/><path d="M150.87,288h-2.68v-7.5H151c2.63,0,4.13,1.47,4.13,3.7S153.62,288,150.87,288Zm0-6h-.8v4.45H151a2,2,0,0,0,2.24-2.21C153.22,282.69,152.44,282,150.89,282Z"/><path d="M158.47,288h-1.85v-5.48l1.85-.23v.82a1.49,1.49,0,0,1,1.34-.87,2,2,0,0,1,.93.23l-.38,1.63a1.5,1.5,0,0,0-.69-.17,1.36,1.36,0,0,0-1.2.82Z"/><path d="M164.79,287.3a2,2,0,0,1-1.6.85,1.62,1.62,0,0,1-1.71-1.55c0-1.05.79-1.91,3.3-2v-.11c0-.58-.3-.85-1-.85a4.47,4.47,0,0,0-1.9.57l-.38-1.36a5.64,5.64,0,0,1,2.57-.66c1.93,0,2.56.88,2.54,2.44v1.65c0,.39.07.42.45.46l-.18,1.32c-1.21.15-1.81-.17-2.06-.78Zm0-1.81c-1.14.13-1.56.34-1.56.84a.62.62,0,0,0,.7.6,1.12,1.12,0,0,0,.86-.38Z"/><path d="M169.34,288l-1.57-5.6h1.87l.76,3.71.95-3.71h1.93l1,3.65.64-3.65h1.92l-1.58,5.6h-1.87l-1.07-3.67L171.21,288Z"/><path d="M182.1,288l-1.57-5.6h1.87l.75,3.71.95-3.71H186l1,3.65.65-3.65h1.92L188,288H186.1L185,284.32,184,288Z"/><path d="M191.61,281.6c-.67,0-1.09-.35-1.09-1a1,1,0,0,1,1.09-1c.69,0,1.1.35,1.1,1S192.3,281.6,191.61,281.6Zm-.92,6.37v-5.48l1.85-.23V288Z"/><path d="M196.49,288.15c-1.38,0-2.13-.56-2.06-2l.09-2.12-.84-.14,0-1.18.84-.28,0-1.27h1.79l0,1.33h1.4l0,1.46h-1.49l-.06,2a.64.64,0,0,0,.73.73,2.6,2.6,0,0,0,.74-.14l.21,1.44A4.22,4.22,0,0,1,196.49,288.15Z"/><path d="M202.8,288v-3.3c0-.67-.3-.89-.77-.89a1.59,1.59,0,0,0-1,.42V288h-1.85V280l1.85-.23v3.35a2.55,2.55,0,0,1,1.88-1,1.7,1.7,0,0,1,1.76,1.92V288Z"/><path d="M211.42,288.15a5.79,5.79,0,0,1-2.36-.49l.36-1.33a4.68,4.68,0,0,0,2,.52c.49,0,.76-.16.76-.45s-.32-.43-.95-.58c-1.3-.25-2.12-.73-2.12-1.82s.91-1.79,2.45-1.79a6.11,6.11,0,0,1,2.27.48L213.5,284a4.85,4.85,0,0,0-1.92-.5c-.44,0-.68.14-.68.42s.35.42,1,.55c1.32.29,2.1.72,2.1,1.83S213.07,288.15,211.42,288.15Z"/><path d="M218.35,287.3a2,2,0,0,1-1.61.85,1.61,1.61,0,0,1-1.7-1.55c0-1.05.79-1.91,3.3-2v-.11c0-.58-.3-.85-1-.85a4.47,4.47,0,0,0-1.89.57l-.38-1.36a5.6,5.6,0,0,1,2.56-.66c1.93,0,2.57.88,2.54,2.44v1.65c0,.39.07.42.46.46l-.18,1.32c-1.21.15-1.81-.17-2.06-.78Zm0-1.81c-1.14.13-1.56.34-1.56.84a.62.62,0,0,0,.69.6,1.13,1.13,0,0,0,.87-.38Z"/><path d="M228.87,288v-3.29c0-.67-.29-.9-.75-.9a1.35,1.35,0,0,0-.9.36V288h-1.85v-3.29c0-.67-.3-.9-.77-.9a1.4,1.4,0,0,0-.9.34V288h-1.85v-5.48l1.85-.23V283a2.42,2.42,0,0,1,1.78-.83,1.64,1.64,0,0,1,1.57,1,2.55,2.55,0,0,1,1.93-1,1.7,1.7,0,0,1,1.74,1.93V288Z"/><path d="M233.91,285.62c.06.74.58,1.17,1.48,1.17a3.69,3.69,0,0,0,1.82-.54l.18,1.43a5,5,0,0,1-2.17.46,2.79,2.79,0,0,1-3.12-2.92,2.86,2.86,0,0,1,3-3,2.21,2.21,0,0,1,2.45,2.34,4.17,4.17,0,0,1-.12,1l-3.54.06Zm2-1v-.11c0-.66-.28-1.07-.86-1.07a1.18,1.18,0,0,0-1.08,1.19Z"/><path d="M244.36,288.15c-1.37,0-2.12-.56-2.05-2l.09-2.12-.84-.14,0-1.18.84-.28,0-1.27h1.79l0,1.33h1.39l0,1.46H244.1l-.06,2a.64.64,0,0,0,.73.73,2.47,2.47,0,0,0,.73-.14l.22,1.44A4.24,4.24,0,0,1,244.36,288.15Z"/><path d="M248,281.6c-.67,0-1.09-.35-1.09-1a1,1,0,0,1,1.09-1c.69,0,1.09.35,1.09,1S248.64,281.6,248,281.6ZM247,288v-5.48l1.85-.23V288Z"/><path d="M250.58,288V280l1.85-.23V288Z"/><path d="M255.64,285.62c.06.74.58,1.17,1.48,1.17a3.69,3.69,0,0,0,1.82-.54l.18,1.43a4.93,4.93,0,0,1-2.17.46,2.79,2.79,0,0,1-3.12-2.92,2.87,2.87,0,0,1,3-3,2.21,2.21,0,0,1,2.44,2.34,4.17,4.17,0,0,1-.12,1l-3.54.06Zm1.95-1v-.11c0-.66-.28-1.07-.85-1.07a1.17,1.17,0,0,0-1.08,1.19Z"/><path d="M265.66,282.39v3.3c0,.67.29.9.77.9a1.44,1.44,0,0,0,.95-.37v-3.83h1.85v5.49l-1.85.23v-.82a2.56,2.56,0,0,1-1.81.86,1.7,1.7,0,0,1-1.75-1.92v-3.84Z"/><path d="M274.58,288v-3.3c0-.67-.3-.89-.79-.89a1.58,1.58,0,0,0-1,.42V288h-1.85v-5.48l1.85-.23v.91a2.55,2.55,0,0,1,1.87-1,1.71,1.71,0,0,1,1.78,1.92V288Z"/><path d="M281.75,280l1.85-.23V288h-1.85v-.58a2.15,2.15,0,0,1-1.55.75c-1.38,0-2.39-1.13-2.39-2.89a2.83,2.83,0,0,1,2.79-3,3.51,3.51,0,0,1,1.15.2Zm-.85,3.55c-.78,0-1.24.64-1.24,1.56s.48,1.51,1.16,1.51a1.21,1.21,0,0,0,.93-.38v-2.45A1.5,1.5,0,0,0,280.9,283.59Z"/><path d="M286.83,285.62c.06.74.58,1.17,1.48,1.17a3.69,3.69,0,0,0,1.82-.54l.18,1.43a5,5,0,0,1-2.17.46,2.79,2.79,0,0,1-3.12-2.92,2.86,2.86,0,0,1,3-3,2.21,2.21,0,0,1,2.45,2.34,4.17,4.17,0,0,1-.12,1l-3.54.06Zm1.94-1v-.11c0-.66-.27-1.07-.85-1.07a1.18,1.18,0,0,0-1.08,1.19Z"/><path d="M293.77,288h-1.85v-5.48l1.85-.23v.82a1.48,1.48,0,0,1,1.34-.87,2,2,0,0,1,.92.23l-.37,1.63a1.5,1.5,0,0,0-.69-.17,1.35,1.35,0,0,0-1.2.82Z"/><path d="M303,288.15a2.72,2.72,0,0,1-3-2.93,2.84,2.84,0,0,1,3.07-3,4.26,4.26,0,0,1,2,.47l-.36,1.39a3.2,3.2,0,0,0-1.48-.43,1.35,1.35,0,0,0-1.38,1.52,1.37,1.37,0,0,0,1.43,1.55,2.78,2.78,0,0,0,1.47-.42l.28,1.4A4.13,4.13,0,0,1,303,288.15Z"/><path d="M308.24,282.39v3.3c0,.67.29.9.77.9a1.41,1.41,0,0,0,.94-.37v-3.83h1.85v5.49l-1.85.23v-.82a2.56,2.56,0,0,1-1.81.86,1.7,1.7,0,0,1-1.75-1.92v-3.84Z"/><path d="M315.36,288h-1.85v-5.48l1.85-.23v.82a1.48,1.48,0,0,1,1.34-.87,2,2,0,0,1,.92.23l-.37,1.63a1.57,1.57,0,0,0-.7-.17,1.34,1.34,0,0,0-1.19.82Z"/><path d="M320.66,288.15a5.72,5.72,0,0,1-2.36-.49l.36-1.33a4.64,4.64,0,0,0,2,.52c.49,0,.75-.16.75-.45s-.31-.43-.95-.58c-1.29-.25-2.12-.73-2.12-1.82s.91-1.79,2.46-1.79a6.2,6.2,0,0,1,2.27.48l-.38,1.32a4.8,4.8,0,0,0-1.91-.5c-.45,0-.69.14-.69.42s.35.42,1,.55c1.32.29,2.1.72,2.1,1.83S322.3,288.15,320.66,288.15Z"/><path d="M327.23,288.15a2.78,2.78,0,0,1-3-2.95,2.86,2.86,0,0,1,3-3,2.78,2.78,0,0,1,2.95,3A2.88,2.88,0,0,1,327.23,288.15Zm0-4.53c-.76,0-1.15.61-1.15,1.57s.41,1.54,1.16,1.54,1.15-.6,1.15-1.56S328,283.62,327.26,283.62Z"/><path d="M333.51,288h-1.85v-5.48l1.85-.23v.82a1.49,1.49,0,0,1,1.34-.87,2,2,0,0,1,.93.23l-.37,1.63a1.57,1.57,0,0,0-.7-.17,1.36,1.36,0,0,0-1.2.82Z"/><path d="M96.55,304.83V294.07h4.07v1.37H98.19v8h2.43v1.36Z"/><path d="M105.13,304.76h-1.52L106.53,294H108Z"/><path d="M111.23,303.47h2.44v-8h-2.44v-1.37h4.09v10.76h-4.09Z"/><path d="M155.1,302.37h-1.9l-.55-1.6h-2.78l-.54,1.6h-1.9l2.66-7.5h2.39Zm-3.83-6-1,2.94h2Z"/><path d="M158.16,302.55a5.72,5.72,0,0,1-2.36-.49l.36-1.33a4.63,4.63,0,0,0,2,.52c.5,0,.76-.16.76-.45s-.31-.43-.95-.58c-1.29-.25-2.12-.73-2.12-1.82s.91-1.79,2.46-1.79a6.1,6.1,0,0,1,2.26.48l-.37,1.32a4.81,4.81,0,0,0-1.92-.5c-.44,0-.68.14-.68.42s.35.42,1,.55c1.32.29,2.1.72,2.1,1.83S159.8,302.55,158.16,302.55Z"/><path d="M164.12,302.55a5.75,5.75,0,0,1-2.36-.49l.36-1.33a4.68,4.68,0,0,0,2,.52c.49,0,.75-.16.75-.45s-.31-.43-.94-.58c-1.3-.25-2.13-.73-2.13-1.82s.91-1.79,2.46-1.79a6.11,6.11,0,0,1,2.27.48l-.37,1.32a4.85,4.85,0,0,0-1.92-.5c-.45,0-.69.14-.69.42s.35.42,1,.55c1.32.29,2.1.72,2.1,1.83S165.77,302.55,164.12,302.55Z"/><path d="M169,296c-.67,0-1.09-.35-1.09-1a1.09,1.09,0,0,1,2.18,0C170.05,295.65,169.64,296,169,296Zm-.92,6.37v-5.48l1.84-.23v5.71Z"/><path d="M171.26,301.73a1.45,1.45,0,0,1,1.15-1.23,1.91,1.91,0,0,1-1.12-1.73c0-1.21,1-2.16,2.65-2.16a4.25,4.25,0,0,1,1.7.4l1.57-.13.09,1.5-1.08-.17a1.25,1.25,0,0,1,.15.61,2.19,2.19,0,0,1-2.44,2,4,4,0,0,1-.75-.08.52.52,0,0,0-.32.41c0,.25.29.35,1,.35h.66c1.52,0,2.58.38,2.58,1.57,0,1.39-1.67,2.29-3.49,2.29-1.5,0-2.73-.47-2.73-1.45,0-.56.45-1.07,1.33-1.18C171.74,302.6,171.26,302.25,171.26,301.73Zm1.26,1.83c0,.43.55.73,1.41.73s1.58-.28,1.58-.76-.47-.55-1.44-.55c-.35,0-.9,0-1.1,0A.69.69,0,0,0,172.52,303.56Zm1.41-3.79c.56,0,.81-.41.81-1s-.27-1-.85-1-.84.41-.84,1S173.34,299.77,173.93,299.77Z"/><path d="M182,302.37v-3.3c0-.67-.3-.89-.79-.89a1.58,1.58,0,0,0-1,.42v3.77h-1.84v-5.48l1.84-.23v.91a2.59,2.59,0,0,1,1.88-1,1.7,1.7,0,0,1,1.77,1.92v3.84Z"/><path d="M191.33,302.55a2.73,2.73,0,0,1-3-2.93,2.84,2.84,0,0,1,3.07-3,4.23,4.23,0,0,1,2,.47l-.36,1.39a3.13,3.13,0,0,0-1.47-.43,1.35,1.35,0,0,0-1.38,1.52,1.37,1.37,0,0,0,1.42,1.55,2.79,2.79,0,0,0,1.48-.42l.27,1.4A4.07,4.07,0,0,1,191.33,302.55Z"/><path d="M197.39,302.55a2.79,2.79,0,0,1-3-2.95,2.86,2.86,0,0,1,3-3,2.78,2.78,0,0,1,2.95,2.95A2.88,2.88,0,0,1,197.39,302.55Zm0-4.53c-.76,0-1.15.61-1.15,1.57s.41,1.54,1.16,1.54,1.15-.6,1.15-1.56S198.16,298,197.41,298Z"/><path d="M208.83,302.37v-3.29c0-.67-.29-.9-.75-.9a1.35,1.35,0,0,0-.9.36v3.83h-1.85v-3.29c0-.67-.3-.9-.77-.9a1.4,1.4,0,0,0-.9.34v3.85h-1.85v-5.48l1.85-.23v.78a2.41,2.41,0,0,1,1.78-.83,1.64,1.64,0,0,1,1.57,1,2.55,2.55,0,0,1,1.93-1,1.7,1.7,0,0,1,1.74,1.93v3.83Z"/><path d="M219.38,302.37v-3.29c0-.67-.29-.9-.76-.9a1.39,1.39,0,0,0-.9.36v3.83h-1.84v-3.29c0-.67-.3-.9-.77-.9a1.4,1.4,0,0,0-.9.34v3.85h-1.85v-5.48l1.85-.23v.78a2.41,2.41,0,0,1,1.78-.83,1.64,1.64,0,0,1,1.57,1,2.55,2.55,0,0,1,1.93-1,1.7,1.7,0,0,1,1.74,1.93v3.83Z"/><path d="M225.92,301.7a2,2,0,0,1-1.61.85,1.61,1.61,0,0,1-1.7-1.55c0-1.05.79-1.91,3.3-2v-.1c0-.59-.3-.86-1-.86a4.47,4.47,0,0,0-1.9.57l-.38-1.36a5.6,5.6,0,0,1,2.56-.66c1.93,0,2.57.88,2.55,2.44l0,1.65c0,.39.08.42.46.46l-.18,1.32c-1.21.15-1.81-.17-2.06-.78Zm0-1.81c-1.14.13-1.56.34-1.56.84a.62.62,0,0,0,.7.6,1.12,1.12,0,0,0,.86-.38Z"/><path d="M233.07,302.37v-3.3c0-.67-.3-.89-.79-.89a1.58,1.58,0,0,0-1,.42v3.77h-1.84v-5.48l1.84-.23v.91a2.59,2.59,0,0,1,1.87-1,1.71,1.71,0,0,1,1.78,1.92v3.84Z"/><path d="M240.25,294.44l1.85-.23v8.16h-1.85v-.58a2.18,2.18,0,0,1-1.56.75c-1.38,0-2.39-1.13-2.39-2.89a2.84,2.84,0,0,1,2.8-3,3.56,3.56,0,0,1,1.15.2ZM239.4,298c-.78,0-1.25.64-1.25,1.56s.48,1.51,1.16,1.51a1.25,1.25,0,0,0,.94-.38v-2.45A1.53,1.53,0,0,0,239.4,298Z"/><path d="M249.18,302.55c-1.38,0-2.13-.56-2.05-2l.08-2.12-.84-.14,0-1.18.84-.28,0-1.27h1.79v1.33h1.39l0,1.46h-1.49l-.06,2a.64.64,0,0,0,.73.73,2.6,2.6,0,0,0,.74-.14l.21,1.43A4,4,0,0,1,249.18,302.55Z"/><path d="M254.44,302.55a2.78,2.78,0,0,1-3-2.95,2.86,2.86,0,0,1,3-3,2.78,2.78,0,0,1,3,2.95A2.88,2.88,0,0,1,254.44,302.55Zm0-4.53c-.76,0-1.15.61-1.15,1.57s.41,1.54,1.16,1.54,1.15-.6,1.15-1.56S255.22,298,254.47,298Z"/><path d="M264.24,302.55c-1.38,0-2.13-.56-2.05-2l.08-2.12-.84-.14,0-1.18.84-.28,0-1.27h1.79l0,1.33h1.4l0,1.46H264l-.06,2a.64.64,0,0,0,.73.73,2.6,2.6,0,0,0,.74-.14l.21,1.43A4,4,0,0,1,264.24,302.55Z"/><path d="M267.83,296c-.68,0-1.1-.35-1.1-1s.42-1,1.1-1a1,1,0,0,1,1.09,1C268.92,295.65,268.51,296,267.83,296Zm-.93,6.37v-5.48l1.85-.23v5.71Z"/><path d="M270.45,302.37v-7.93l1.85-.23v8.16Z"/><path d="M275.52,300c.06.74.57,1.17,1.47,1.17a3.76,3.76,0,0,0,1.83-.54l.18,1.43a5,5,0,0,1-2.18.46,2.79,2.79,0,0,1-3.11-2.92,2.86,2.86,0,0,1,3-3,2.22,2.22,0,0,1,2.45,2.34,4.24,4.24,0,0,1-.12,1l-3.54.06Zm1.94-1V299c0-.66-.28-1.07-.85-1.07a1.16,1.16,0,0,0-1.08,1.19Z"/><path d="M283.74,299.55a6.9,6.9,0,0,1,3.55-6l1,1.26a5.44,5.44,0,0,0,0,9.48l-1,1.26A6.89,6.89,0,0,1,283.74,299.55Z"/><path d="M292.22,301.7a2,2,0,0,1-1.61.85,1.61,1.61,0,0,1-1.7-1.55c0-1.05.79-1.91,3.3-2v-.1c0-.59-.3-.86-1-.86a4.47,4.47,0,0,0-1.89.57l-.38-1.36a5.6,5.6,0,0,1,2.56-.66c1.93,0,2.57.88,2.54,2.44v1.65c0,.39.07.42.46.46l-.18,1.32c-1.21.15-1.81-.17-2.06-.78Zm0-1.81c-1.14.13-1.56.34-1.56.84a.62.62,0,0,0,.69.6,1.13,1.13,0,0,0,.87-.38Z"/><path d="M299.38,294.44l1.85-.23v8.16h-1.85v-.58a2.16,2.16,0,0,1-1.56.75c-1.38,0-2.38-1.13-2.38-2.89a2.83,2.83,0,0,1,2.79-3,3.51,3.51,0,0,1,1.15.2Zm-.85,3.55c-.78,0-1.25.64-1.25,1.56s.48,1.51,1.17,1.51a1.23,1.23,0,0,0,.93-.38v-2.45A1.5,1.5,0,0,0,298.53,298Z"/><path d="M306.39,302.38H304.3l-2.06-5.59h2l1.15,3.83,1.14-3.83h2Z"/><path d="M312.51,301.7a2,2,0,0,1-1.61.85,1.61,1.61,0,0,1-1.7-1.55c0-1.05.79-1.91,3.3-2v-.1c0-.59-.3-.86-1-.86a4.47,4.47,0,0,0-1.9.57l-.38-1.36a5.6,5.6,0,0,1,2.56-.66c1.93,0,2.57.88,2.55,2.44l0,1.65c0,.39.08.42.46.46l-.18,1.32c-1.21.15-1.81-.17-2.06-.78Zm0-1.81c-1.14.13-1.56.34-1.56.84a.62.62,0,0,0,.7.6,1.12,1.12,0,0,0,.86-.38Z"/><path d="M319.66,302.37v-3.3c0-.67-.3-.89-.79-.89a1.58,1.58,0,0,0-1,.42v3.77H316v-5.48l1.84-.23v.91a2.59,2.59,0,0,1,1.87-1,1.71,1.71,0,0,1,1.78,1.92v3.84Z"/><path d="M325.91,302.55a2.73,2.73,0,0,1-3-2.93,2.84,2.84,0,0,1,3.07-3,4.23,4.23,0,0,1,2,.47l-.36,1.39a3.13,3.13,0,0,0-1.48-.43,1.35,1.35,0,0,0-1.37,1.52,1.37,1.37,0,0,0,1.42,1.55,2.79,2.79,0,0,0,1.48-.42l.27,1.4A4.08,4.08,0,0,1,325.91,302.55Z"/><path d="M330.82,300c.06.74.58,1.17,1.48,1.17a3.69,3.69,0,0,0,1.82-.54l.18,1.43a5,5,0,0,1-2.17.46,2.79,2.79,0,0,1-3.12-2.92,2.87,2.87,0,0,1,3-3,2.21,2.21,0,0,1,2.44,2.34,4.24,4.24,0,0,1-.12,1l-3.54.06Zm1.95-1V299c0-.66-.28-1.07-.85-1.07a1.16,1.16,0,0,0-1.08,1.19Z"/><path d="M339.57,294.44l1.85-.23v8.16h-1.85v-.58a2.18,2.18,0,0,1-1.56.75c-1.38,0-2.39-1.13-2.39-2.89a2.84,2.84,0,0,1,2.8-3,3.56,3.56,0,0,1,1.15.2Zm-.85,3.55c-.78,0-1.25.64-1.25,1.56s.48,1.51,1.17,1.51a1.24,1.24,0,0,0,.93-.38v-2.45A1.5,1.5,0,0,0,338.72,298Z"/><path d="M348.5,302.55c-1.38,0-2.12-.56-2.05-2l.08-2.12-.84-.14,0-1.18.84-.28,0-1.27h1.79v1.33h1.39l0,1.46h-1.48l-.06,2c0,.51.27.73.73.73a2.47,2.47,0,0,0,.73-.14l.21,1.43A4,4,0,0,1,348.5,302.55Z"/><path d="M353.77,302.55a2.79,2.79,0,0,1-3-2.95,2.86,2.86,0,0,1,3-3,2.78,2.78,0,0,1,3,2.95A2.88,2.88,0,0,1,353.77,302.55Zm0-4.53c-.75,0-1.15.61-1.15,1.57s.41,1.54,1.16,1.54,1.15-.6,1.15-1.56S354.55,298,353.79,298Z"/><path d="M361.6,296.61c1.38,0,2.39,1.13,2.39,2.9a2.83,2.83,0,0,1-2.79,3,4.08,4.08,0,0,1-1.16-.18v2.49H358.2v-8l1.84-.23v.71A2.19,2.19,0,0,1,361.6,296.61ZM360,300.93a1.59,1.59,0,0,0,.86.23c.79,0,1.24-.63,1.24-1.55s-.41-1.52-1.16-1.52a1.32,1.32,0,0,0-.94.38Z"/><path d="M366.34,296c-.67,0-1.09-.35-1.09-1a1,1,0,0,1,1.09-1c.69,0,1.09.35,1.09,1S367,296,366.34,296Zm-.92,6.37v-5.48l1.85-.23v5.71Z"/><path d="M371.71,302.55a2.73,2.73,0,0,1-3-2.93,2.84,2.84,0,0,1,3.07-3,4.23,4.23,0,0,1,2,.47l-.36,1.39A3.13,3.13,0,0,0,372,298a1.35,1.35,0,0,0-1.38,1.52,1.37,1.37,0,0,0,1.42,1.55,2.79,2.79,0,0,0,1.48-.42l.28,1.4A4.13,4.13,0,0,1,371.71,302.55Z"/><path d="M374.42,304.29a5.44,5.44,0,0,0,0-9.48l1-1.26a6.84,6.84,0,0,1,0,12Z"/><path d="M96.55,319.23V308.47h4.07v1.37H98.19v8h2.43v1.36Z"/><path d="M112.83,317.17l-.76,1.54-3.32-1.77h-.16a3.66,3.66,0,0,1-3.91-3.91,3.79,3.79,0,0,1,3.94-4,3.66,3.66,0,0,1,3.92,3.9,3.71,3.71,0,0,1-1.78,3.29Zm-4.24-6.54c-1.27,0-2,1-2,2.36s.74,2.45,2,2.45,2-1,2-2.4S109.86,310.63,108.59,310.63Z"/><path d="M117.29,314.6v2h-1.47v-2h-2l0-1.39h2v-2h1.47v2h2l0,1.39Z"/><path d="M127.84,311l-1.65,5.66h-2L122.51,311l-.05,5.77h-1.77l.26-7.5h2.7l1.56,5.63,1.56-5.63h2.66l.25,7.5h-1.81Z"/><path d="M133.89,317.87h2.43v-8h-2.43v-1.37H138v10.76h-4.09Z"/><path d="M152,310.87v5.9h-1.91v-5.9h-2.39v-1.6h6.68v1.6Z"/><path d="M157.37,317a2.79,2.79,0,0,1-3-2.95,2.86,2.86,0,0,1,3-3,2.78,2.78,0,0,1,2.95,2.95A2.88,2.88,0,0,1,157.37,317Zm0-4.53c-.76,0-1.15.61-1.15,1.57s.41,1.54,1.16,1.54,1.15-.6,1.15-1.56S158.15,312.42,157.39,312.42Z"/><path d="M161.47,316.13a1.45,1.45,0,0,1,1.15-1.23,1.89,1.89,0,0,1-1.12-1.73c0-1.21,1-2.16,2.65-2.16a4.25,4.25,0,0,1,1.7.4l1.57-.13.08,1.5-1.07-.17a1.25,1.25,0,0,1,.15.61,2.2,2.2,0,0,1-2.45,2,4,4,0,0,1-.74-.08.5.5,0,0,0-.32.41c0,.25.28.35,1,.35h.66c1.52,0,2.57.38,2.57,1.57,0,1.39-1.66,2.29-3.49,2.29-1.49,0-2.72-.47-2.72-1.45,0-.56.45-1.07,1.33-1.18C162,317,161.47,316.65,161.47,316.13Zm1.26,1.83c0,.43.55.73,1.4.73s1.59-.28,1.59-.76-.47-.55-1.44-.55c-.35,0-.9,0-1.1,0A.7.7,0,0,0,162.73,318Zm1.4-3.79c.57,0,.82-.41.82-1s-.28-1-.85-1-.84.41-.84,1S163.55,314.17,164.13,314.17Z"/><path d="M168.25,316.13a1.45,1.45,0,0,1,1.15-1.23,1.89,1.89,0,0,1-1.12-1.73c0-1.21,1-2.16,2.65-2.16a4.25,4.25,0,0,1,1.7.4l1.57-.13.08,1.5-1.08-.17a1.15,1.15,0,0,1,.16.61,2.2,2.2,0,0,1-2.45,2,4,4,0,0,1-.74-.08.5.5,0,0,0-.32.41c0,.25.28.35,1,.35h.66c1.52,0,2.57.38,2.57,1.57,0,1.39-1.66,2.29-3.49,2.29-1.49,0-2.72-.47-2.72-1.45,0-.56.45-1.07,1.33-1.18C168.73,317,168.25,316.65,168.25,316.13Zm1.26,1.83c0,.43.55.73,1.4.73s1.59-.28,1.59-.76-.47-.55-1.44-.55c-.35,0-.9,0-1.11,0A.71.71,0,0,0,169.51,318Zm1.4-3.79c.57,0,.82-.41.82-1s-.28-1-.85-1-.84.41-.84,1S170.33,314.17,170.91,314.17Z"/><path d="M175.3,316.77v-7.93l1.84-.23v8.16Z"/><path d="M180.36,314.42c.06.74.57,1.17,1.47,1.17a3.73,3.73,0,0,0,1.83-.54l.18,1.43a5,5,0,0,1-2.17.46,2.79,2.79,0,0,1-3.12-2.92,2.86,2.86,0,0,1,3-3,2.22,2.22,0,0,1,2.45,2.34,4.24,4.24,0,0,1-.12,1l-3.54.06Zm1.94-1v-.11c0-.66-.27-1.07-.85-1.07a1.17,1.17,0,0,0-1.08,1.19Z"/><path d="M188.69,316.77v-7.5h5.48v1.54h-3.61v1.44h2.9v1.52h-2.9v1.46h3.61v1.54Z"/><path d="M199.33,308.84l1.85-.23v8.16h-1.85v-.58a2.18,2.18,0,0,1-1.56.75c-1.38,0-2.39-1.13-2.39-2.89a2.84,2.84,0,0,1,2.8-3,3.56,3.56,0,0,1,1.15.2Zm-.85,3.55c-.78,0-1.25.64-1.25,1.56s.48,1.51,1.16,1.51a1.25,1.25,0,0,0,.94-.38v-2.45A1.5,1.5,0,0,0,198.48,312.39Z"/><path d="M203.82,310.4c-.67,0-1.09-.35-1.09-1a1.09,1.09,0,0,1,2.18,0C204.91,310.05,204.5,310.4,203.82,310.4Zm-.93,6.37v-5.48l1.85-.23v5.71Z"/><path d="M208.69,317c-1.38,0-2.12-.57-2.05-2l.08-2.12-.84-.14,0-1.18.84-.28,0-1.27h1.79v1.33H210l0,1.46h-1.48l-.06,2c0,.51.27.73.73.73a2.47,2.47,0,0,0,.73-.14l.22,1.44A4.33,4.33,0,0,1,208.69,317Z"/><path d="M214,317a2.78,2.78,0,0,1-3-2.95,2.85,2.85,0,0,1,3-3A2.78,2.78,0,0,1,217,314,2.88,2.88,0,0,1,214,317Zm0-4.53c-.75,0-1.15.61-1.15,1.57s.41,1.54,1.16,1.54,1.15-.6,1.15-1.56S214.74,312.42,214,312.42Z"/><path d="M220.23,316.77h-1.84v-5.48l1.84-.23v.82a1.5,1.5,0,0,1,1.35-.87,2,2,0,0,1,.92.23l-.37,1.63a1.57,1.57,0,0,0-.7-.17,1.37,1.37,0,0,0-1.2.82Z"/><path d="M227,319.16h-1.51l2.92-10.81h1.51Z"/><path d="M236.4,314.59h-.73v2.17h-1.91v-7.5h2.77c2.1,0,3.2,1.06,3.2,2.61C239.73,313.63,238.54,314.59,236.4,314.59Zm0-3.81h-.77v2.34h.77c1,0,1.45-.43,1.45-1.19S237.34,310.78,236.39,310.78Z"/><path d="M241.15,316.77v-7.93l1.85-.23v8.16Z"/><path d="M247.71,316.1a2,2,0,0,1-1.6.85,1.62,1.62,0,0,1-1.71-1.55c0-1,.79-1.91,3.3-2v-.11c0-.58-.3-.85-1-.85a4.47,4.47,0,0,0-1.9.57l-.38-1.36A5.64,5.64,0,0,1,247,311c1.93,0,2.56.88,2.54,2.44v1.65c0,.39.07.42.45.46l-.18,1.32c-1.21.15-1.81-.17-2.06-.78Zm0-1.81c-1.14.13-1.56.34-1.56.84a.62.62,0,0,0,.7.6,1.12,1.12,0,0,0,.86-.38Z"/><path d="M254.68,316.51l-.27.73c-.58,1.63-1.27,2.12-2.45,2.12a3.79,3.79,0,0,1-1.65-.36l.55-1.4a2.15,2.15,0,0,0,.86.25c.4,0,.58-.15.79-.68l.16-.44-2.18-5.54h2l1.18,3.67,1.08-3.67h2Z"/><path d="M267.91,311l-1.65,5.66h-2L262.58,311l-.05,5.77h-1.77l.26-7.5h2.7l1.56,5.63,1.56-5.63h2.66l.25,7.5h-1.81Z"/><path d="M274.08,317a2.79,2.79,0,0,1-3-2.95,2.86,2.86,0,0,1,3-3,2.78,2.78,0,0,1,3,2.95A2.88,2.88,0,0,1,274.08,317Zm0-4.53c-.75,0-1.15.61-1.15,1.57s.41,1.54,1.16,1.54,1.15-.6,1.15-1.56S274.86,312.42,274.1,312.42Z"/><path d="M282.16,308.84l1.85-.23v8.16h-1.85v-.58a2.16,2.16,0,0,1-1.56.75c-1.37,0-2.38-1.13-2.38-2.89a2.83,2.83,0,0,1,2.79-3,3.51,3.51,0,0,1,1.15.2Zm-.85,3.55c-.78,0-1.24.64-1.24,1.56s.48,1.51,1.16,1.51a1.23,1.23,0,0,0,.93-.38v-2.45A1.5,1.5,0,0,0,281.31,312.39Z"/><path d="M287.24,314.42c.06.74.58,1.17,1.48,1.17a3.69,3.69,0,0,0,1.82-.54l.18,1.43a5,5,0,0,1-2.17.46,2.79,2.79,0,0,1-3.12-2.92,2.86,2.86,0,0,1,3-3,2.21,2.21,0,0,1,2.45,2.34,4.24,4.24,0,0,1-.12,1l-3.54.06Zm1.94-1v-.11c0-.66-.27-1.07-.85-1.07a1.18,1.18,0,0,0-1.08,1.19Z"/></svg>