<svg xmlns="http://www.w3.org/2000/svg" viewBox="0 0 153 41"><defs><style>.cls-1{opacity:0.1;}.cls-2{fill:#fff;opacity:0.95;}</style></defs><g id="Explosion"><path class="cls-1" d="M146.65,41H6.35A6.37,6.37,0,0,1,0,34.65V8.35A6.37,6.37,0,0,1,6.35,2h140.3A6.37,6.37,0,0,1,153,8.35v26.3A6.37,6.37,0,0,1,146.65,41Z"/><path class="cls-2" d="M146.65,39H6.35A6.37,6.37,0,0,1,0,32.65V6.35A6.37,6.37,0,0,1,6.35,0h140.3A6.37,6.37,0,0,1,153,6.35v26.3A6.37,6.37,0,0,1,146.65,39Z"/><path d="M47.72,26H44.86V14.72h4.52c3,0,4.55,1.39,4.55,3.57a3.3,3.3,0,0,1-2.3,3.24L54.51,26H51.28L49,22.19l-1.31.11Zm1.39-5.83c1.22-.09,1.89-.59,1.89-1.67S50.31,17,48.87,17h-1.2v3.19Z"/><path d="M56.54,26V14.72h8.23V17H59.35v2.17H63.7v2.28H59.35v2.2h5.42V26Z"/><path d="M71.25,22.7h-1.1V26H67.28V14.72h4.16c3.15,0,4.81,1.58,4.81,3.91C76.25,21.26,74.47,22.7,71.25,22.7Zm0-5.71H70.08V20.5l1.15,0c1.47,0,2.18-.65,2.18-1.78S72.67,17,71.23,17Z"/><path d="M78.55,26V14.72h2.86v8.86h4.72V26Z"/><path d="M98.86,26H96l-.82-2.39H91L90.2,26H87.35l4-11.25h3.58Zm-5.74-9-1.5,4.41h2.94Z"/><path d="M105.23,21.71V26h-2.81V21.69l-3.92-7h3l2.32,4.45,2.25-4.45h3Z"/></g></svg>