<svg version="1.1" xmlns="http://www.w3.org/2000/svg" xmlns:xlink="http://www.w3.org/1999/xlink" width="153.19" height="41" viewBox="0,0,153.19,41"><g transform="translate(-163.5,-159.5)"><g data-paper-data="{&quot;isPaintingLayer&quot;:true}" fill-rule="nonzero" stroke="none" stroke-width="1" stroke-linecap="butt" stroke-linejoin="miter" stroke-miterlimit="10" stroke-dasharray="" stroke-dashoffset="0" style="mix-blend-mode: normal"><path d="M310.15,200.5h-140.3c-3.50245,-0.01098 -6.33902,-2.84755 -6.35,-6.35v-26.3c0.01098,-3.50245 2.84755,-6.33902 6.35,-6.35h140.3c3.50245,0.01098 6.33902,2.84755 6.35,6.35v26.3c-0.01098,3.50245 -2.84755,6.33902 -6.35,6.35z" fill="#000000" opacity="0.1"/><path d="M310.34,198.5h-140.3c-3.50245,-0.01098 -6.33902,-2.84755 -6.35,-6.35v-26.3c0.01098,-3.50245 2.84755,-6.33902 6.35,-6.35h140.3c3.50245,0.01098 6.33902,2.84755 6.35,6.35v26.3c-0.01098,3.50245 -2.84755,6.33902 -6.35,6.35z" fill="#ffffff" opacity="0.95"/><path d="M204.38,181.35c0,-0.75 -0.81,-1 -2.3,-1.42c-1.49,-0.42 -3.58,-1.21 -3.58,-3.43c0,-2.09 1.53,-3.47 4.32,-3.47c1.4661,-0.03543 2.91643,0.30907 4.21,1l-0.55,2.36c-1.12082,-0.60748 -2.36613,-0.9496 -3.64,-1c-1,0 -1.48,0.34 -1.48,0.95c0,0.61 1,1 2.38,1.4c1.73,0.47 3.53,1.27 3.53,3.41c0,2.14 -1.66,3.65 -4.61,3.65c-1.50644,0.0243 -2.99609,-0.31894 -4.34,-1l0.54,-2.38c1.18519,0.63567 2.50527,0.97855 3.85,1c0.97,-0.01 1.67,-0.38 1.67,-1.07z" fill="#000000"/><path d="M209.65,173.25h8.05v2.36h-5.2v2.32h4.16v2.34h-4.16v4.23h-2.85z" fill="#000000"/><path d="M222.13,184.5h-3.13l3.87,-5.63l-3.77,-5.62h3.23l2.27,3.66l2.32,-3.66h3.19l-3.8,5.51l3.9,5.74h-3.26l-2.39,-3.83z" fill="#000000"/><path d="M242.24,184.77c-1.58913,0.11439 -3.14959,-0.46722 -4.27618,-1.59382c-1.1266,-1.1266 -1.7082,-2.68705 -1.59382,-4.27618c-0.06835,-1.58654 0.53059,-3.12925 1.65158,-4.25404c1.12099,-1.12479 2.66166,-1.72895 4.24842,-1.66596c3.35,0 5.89,2 5.89,5.85c0.06527,1.59099 -0.53678,3.13696 -1.66082,4.2648c-1.12404,1.12785 -2.66798,1.7351 -4.25918,1.6752zM242.24,175.28c-1.91,0 -3,1.44 -3,3.55c0,2.11 1.11,3.64 3,3.64c1.89,0 3,-1.46 3,-3.57c0,-2.11 -1.1,-3.62 -3,-3.62z" fill="#000000"/><path d="M258.38,173.25h2.68v11.36h-3l-4.73,-7.4v7.29h-2.73v-11.25h3.1l4.68,7.31z" fill="#000000"/><path d="M263.98,184.5v-11.25h2.86v8.86h4.72v2.39z" fill="#000000"/><path d="M277.97,180.24v4.26h-2.81v-4.28l-3.93,-7h3l2.33,4.45l2.25,-4.45h3z" fill="#000000"/></g></g></svg>