<svg version="1.1" xmlns="http://www.w3.org/2000/svg" xmlns:xlink="http://www.w3.org/1999/xlink" width="98" height="44.53" viewBox="0,0,98,44.53"><g transform="translate(-191,-164.47)"><g data-paper-data="{&quot;isPaintingLayer&quot;:true}" fill-rule="nonzero" stroke-linecap="butt" stroke-miterlimit="10" stroke-dasharray="" stroke-dashoffset="0" style="mix-blend-mode: normal"><g><path d="M276.3,207h-72.6c-5.90945,0 -10.7,-4.79055 -10.7,-10.7v-11.64c-0.00144,-5.04951 3.53058,-9.41137 8.47,-10.46l36.3,-7.73c1.47051,-0.31002 2.98949,-0.31002 4.46,0l36.3,7.73c4.93942,1.04863 8.47145,5.41049 8.47,10.46v11.64c0,5.90945 -4.79055,10.7 -10.7,10.7z" fill="none" stroke="#000000" stroke-width="4" stroke-linejoin="round"/><path d="M276.3,207h-72.6c-5.90945,0 -10.7,-4.79055 -10.7,-10.7v-11.64c-0.00144,-5.04951 3.53058,-9.41137 8.47,-10.46l36.3,-7.73c1.47051,-0.31002 2.98949,-0.31002 4.46,0l36.3,7.73c4.93942,1.04863 8.47145,5.41049 8.47,10.46v11.64c0,5.90945 -4.79055,10.7 -10.7,10.7z" fill="#a30000" stroke="none" stroke-width="1" stroke-linejoin="miter"/></g><path d="M276,198l-36,-5l-37,5v-17l37.09,-7l35.91,7z" fill="#b50000" stroke="none" stroke-width="1" stroke-linejoin="miter"/><path d="M233,198v-25h14v25z" fill="#a30000" stroke="none" stroke-width="1" stroke-linejoin="miter"/><path d="M237,183v-6h6v6z" fill="#7d0000" stroke="none" stroke-width="1" stroke-linejoin="miter"/><path d="M237,175v-6h6v6z" fill="#7d0000" stroke="none" stroke-width="1" stroke-linejoin="miter"/><path d="M237,191v-6h6v6z" fill="#7d0000" stroke="none" stroke-width="1" stroke-linejoin="miter"/><path d="M237,199v-6h6v6z" fill="#7d0000" stroke="none" stroke-width="1" stroke-linejoin="miter"/><path d="M237,207v-6h6v6z" fill="#7d0000" stroke="none" stroke-width="1" stroke-linejoin="miter"/><path d="M232,192c0,-4.41828 3.58172,-8 8,-8c4.41828,0 8,3.58172 8,8c0,4.41828 -3.58172,8 -8,8c-4.41828,0 -8,-3.58172 -8,-8z" fill="#cf6c14" stroke="#000000" stroke-width="2" stroke-linejoin="round"/><path d="M268,184v11l-22,-3" fill="none" stroke="#000000" stroke-width="2" stroke-linejoin="round"/><path d="M258,198v-9" fill="none" stroke="#000000" stroke-width="2" stroke-linejoin="round"/><path d="M240,208v-9" fill="none" stroke="#000000" stroke-width="2" stroke-linejoin="round"/><path d="M234,192l-22,3v-11" fill="none" stroke="#000000" stroke-width="2" stroke-linejoin="round"/><path d="M222,198v-9" fill="none" stroke="#000000" stroke-width="2" stroke-linejoin="round"/></g></g></svg>