<svg version="1.1" xmlns="http://www.w3.org/2000/svg" xmlns:xlink="http://www.w3.org/1999/xlink" width="153" height="41" viewBox="0,0,153,41"><g transform="translate(-163.5,-159.5)"><g data-paper-data="{&quot;isPaintingLayer&quot;:true}" fill-rule="nonzero" stroke="none" stroke-width="1" stroke-linecap="butt" stroke-linejoin="miter" stroke-miterlimit="10" stroke-dasharray="" stroke-dashoffset="0" style="mix-blend-mode: normal"><path d="M310.15,200.5h-140.3c-3.50245,-0.01098 -6.33902,-2.84755 -6.35,-6.35v-26.3c0.01098,-3.50245 2.84755,-6.33902 6.35,-6.35h140.3c3.50245,0.01098 6.33902,2.84755 6.35,6.35v26.3c-0.01098,3.50245 -2.84755,6.33902 -6.35,6.35z" fill="#000000" opacity="0.1"/><path d="M310.15,198.5h-140.3c-3.50245,-0.01098 -6.33902,-2.84755 -6.35,-6.35v-26.3c0.01098,-3.50245 2.84755,-6.33902 6.35,-6.35h140.3c3.50245,0.01098 6.33902,2.84755 6.35,6.35v26.3c-0.01098,3.50245 -2.84755,6.33902 -6.35,6.35z" fill="#ffff87" opacity="0.95"/><path d="M199.75,176.62v8.88h-2.86v-8.88h-3.58v-2.4h10v2.4z" fill="#000000"/><path d="M208.36,185.5h-2.86v-11.28h4.52c3,0 4.56,1.39 4.56,3.57c0.04096,1.47499 -0.90223,2.7979 -2.31,3.24l2.88,4.47h-3.23l-2.25,-3.78l-1.31,0.11zM209.74,179.67c1.23,-0.09 1.89,-0.59 1.89,-1.67c0,-1.08 -0.68,-1.5 -2.13,-1.5h-1.2v3.19z" fill="#000000"/><path d="M222.27,181.21v4.29h-2.77v-4.31l-3.92,-7h3l2.32,4.45l2.25,-4.45h3z" fill="#000000"/><path d="M243.15,185.5h-2.84l-0.81,-2.42h-4.2l-0.8,2.42h-2.85l4,-11.25h3.58zM237.41,176.5l-1.49,4.41h2.93z" fill="#000000"/><path d="M250.19,185.74c-3.6,0 -6,-2.14 -6,-5.85c0,-3.71 2.38,-5.94 6.07,-5.94c1.47089,-0.02056 2.92403,0.32297 4.23,1l-0.9,2.4c-0.97883,-0.59215 -2.09624,-0.91634 -3.24,-0.94c-0.91542,-0.04681 -1.80629,0.30492 -2.44284,0.96447c-0.63654,0.65955 -0.95643,1.56234 -0.87716,2.47553c0,2.25 1.14,3.58 3.28,3.58c0.61606,0.00106 1.22677,-0.11429 1.8,-0.34v-1.69h-2.82v-2.26h5.36v5.56c-1.37919,0.70633 -2.91064,1.06344 -4.46,1.04z" fill="#000000"/><path d="M267.85,185.5h-2.85l-0.82,-2.39h-4.18l-0.81,2.39h-2.85l4,-11.25h3.58zM262.11,176.5l-1.5,4.41h2.94z" fill="#000000"/><path d="M269.65,185.5v-11.28h2.85v11.28z" fill="#000000"/><path d="M283.24,174.22h2.68v11.36h-3l-4.74,-7.4v7.32h-2.68v-11.28h3.1l4.64,7.28z" fill="#000000"/></g></g></svg>