<svg xmlns="http://www.w3.org/2000/svg" viewBox="0 0 153 41"><defs><style>.cls-1{opacity:0.1;}.cls-2{fill:#fff;opacity:0.95;}</style></defs><g id="Explosion"><rect class="cls-1" y="2" width="153" height="39" rx="6.35"/><rect class="cls-2" width="153" height="39" rx="6.35"/><path d="M46.05,25V13.72h2.87v8.86h4.71V25Z"/><path d="M56,25V13.72h8.23V16H58.8v2.17h4.36v2.28H58.8v2.2h5.42V25Z"/><path d="M73,25H69.45l-3.8-11.25h3l2.66,8.48,2.65-8.48h3Z"/><path d="M78.72,25V13.72H87V16H81.53v2.17h4.36v2.28H81.53v2.2H87V25Z"/><path d="M89.47,25V13.72h2.86v8.86h4.72V25Z"/><path d="M104.59,21.82c0-.75-.81-1-2.3-1.42-1.64-.45-3.62-1.21-3.62-3.46,0-2.09,1.53-3.47,4.32-3.47a8.5,8.5,0,0,1,4.21,1l-.56,2.36a8.25,8.25,0,0,0-3.63-1c-1,0-1.48.34-1.48,1s1,1,2.38,1.41c1.73.46,3.53,1.26,3.53,3.4s-1.66,3.65-4.61,3.65a9.27,9.27,0,0,1-4.34-1L99,21.84a8.25,8.25,0,0,0,3.85,1C103.89,22.88,104.59,22.51,104.59,21.82Z"/></g></svg>