<svg xmlns="http://www.w3.org/2000/svg" viewBox="0 0 153 41"><defs><style>.cls-1{opacity:0.1;}.cls-2{fill:#fff;opacity:0.95;}</style></defs><g id="Explosion"><path class="cls-1" d="M146.65,41H6.35A6.37,6.37,0,0,1,0,34.65V8.35A6.37,6.37,0,0,1,6.35,2h140.3A6.37,6.37,0,0,1,153,8.35v26.3A6.37,6.37,0,0,1,146.65,41Z"/><path class="cls-2" d="M146.65,39H6.35A6.37,6.37,0,0,1,0,32.65V6.35A6.37,6.37,0,0,1,6.35,0h140.3A6.37,6.37,0,0,1,153,6.35v26.3A6.37,6.37,0,0,1,146.65,39Z"/><path d="M58.4,17.69a5.68,5.68,0,0,0-2.85-.81,3.1,3.1,0,0,0-3.2,3.44c0,2.14,1.18,3.49,3.22,3.49a5.4,5.4,0,0,0,3-.92l.59,2.54a8.38,8.38,0,0,1-3.69.81c-3.6,0-6-2.07-6-5.85s2.36-5.94,6.07-5.94a8.61,8.61,0,0,1,3.73.85Z"/><path d="M61.54,26V14.72h2.87v8.86h4.71V26Z"/><path d="M76.14,26.24a5.5,5.5,0,0,1-5.87-5.87,5.69,5.69,0,0,1,5.91-5.92c3.35,0,5.89,2.05,5.89,5.85A5.72,5.72,0,0,1,76.14,26.24Zm0-9.49c-1.91,0-3,1.45-3,3.55s1.12,3.64,3,3.64,3-1.46,3-3.57S78.05,16.75,76.14,16.75Z"/><path d="M90,22.82c0-.75-.81-1-2.31-1.42S84,20.19,84,17.94c0-2.09,1.53-3.47,4.32-3.47a8.51,8.51,0,0,1,4.22,1L92,17.82a8.29,8.29,0,0,0-3.64-1c-1,0-1.48.34-1.48,1s1,1,2.38,1.41c1.73.46,3.53,1.26,3.53,3.4s-1.66,3.65-4.61,3.65a9.33,9.33,0,0,1-4.34-1l.54-2.38a8.32,8.32,0,0,0,3.86,1C89.26,23.88,90,23.51,90,22.82Z"/><path d="M95.24,26V14.72h8.23V17H98.05v2.17h4.35v2.28H98.05v2.2h5.42V26Z"/></g></svg>