<svg id="Layer_1" data-name="Layer 1" xmlns="http://www.w3.org/2000/svg" viewBox="0 0 480 360"><defs><style>.cls-1{fill:none;stroke:#fff;stroke-width:4px;}</style></defs><path class="cls-1" d="M103.77,127.93h19.44v30.46h14.61v16.77h-34Z"/><path class="cls-1" d="M142.9,127.93h34v15.78H162.34v2.55h11.74v11.22H162.34v2.67H177.8v15H142.9Z"/><path class="cls-1" d="M180.15,127.93h21l7,25h.13l7.44-25h19l-18.07,47.23H198.22Z"/><path class="cls-1" d="M237.94,127.93h34v15.78H257.38v2.55h11.74v11.22H257.38v2.67h15.46v15h-34.9Z"/><path class="cls-1" d="M277.67,127.93h19.44v30.46h14.61v16.77H277.67Z"/><path class="cls-1" d="M353.33,160a19.48,19.48,0,0,1-2,.07c-9.07,0-16.11-6.26-16.11-15.33,0-10.31,9-17.55,20.81-17.55,11.35,0,21.07,6.72,21.07,18.72,0,6.39-2.74,11.74-6.27,16.44l-9.65,12.79H340.81Zm6.07-14.74a3.23,3.23,0,1,0-3.2,3.2A3.22,3.22,0,0,0,359.4,145.28Z"/><path class="cls-1" d="M104.86,202.54V188.65h10.81v13.19c0,2.39.79,4.08,3.3,4.08s3.22-1.48,3.22-4V188.65h9.72V202.4c0,3.91-1,6.37-2.39,8-2.4,2.81-6.75,4.11-11.21,4.11s-8.66-1.4-11-4C106,209,104.86,206.7,104.86,202.54Z"/><path class="cls-1" d="M135.06,188.65h9.83l7.72,10.87.07,0V188.65h9.72v25.47h-9.82l-7.73-10.87-.07,0v10.84h-9.72Z"/><path class="cls-1" d="M165.59,188.65h10.52c3.95,0,12.29.39,12.29,6.47,0,2.15-1.06,4.12-4,5.1v.07c3.81,1.38,4.68,3.77,4.68,6.05,0,6.72-7.4,7.78-12.51,7.78h-11ZM176.79,199c1.38,0,2-.7,2-1.58s-.68-1.58-2-1.58h-.39V199Zm.08,8.3c1.7,0,2.5-.88,2.5-2s-.84-2-2.5-2h-.47v3.94Z"/><path class="cls-1" d="M198.8,188.65h10.33l10,25.47H207.47l-.91-3.34h-6l-1,3.34H188.8Zm6,15.72-1.16-5.17h-.07l-1.16,5.17Z"/><path class="cls-1" d="M221,188.65h10.8v16.43h8.12v9H221Z"/><path class="cls-1" d="M251.34,188.65h10.33l10,25.47H260l-.9-3.34h-6l-1,3.34H241.33Zm6,15.72-1.16-5.17h-.08L255,204.37Z"/><path class="cls-1" d="M273.49,188.65h9.82L291,199.52l.07,0V188.65h9.72v25.47H291l-7.72-10.87-.07,0v10.84h-9.72Z"/><path class="cls-1" d="M318.74,188.27a19.25,19.25,0,0,1,7.72,1.47v9.39a15.2,15.2,0,0,0-6.53-1.61c-3.69,0-5.69,1.72-5.69,4.07s2,4,5.69,4A14.38,14.38,0,0,0,326.6,204v9a19.29,19.29,0,0,1-8,1.58c-8.78,0-15.19-5.55-15.19-13.12S309.82,188.27,318.74,188.27Z"/><path class="cls-1" d="M329.58,188.65h18.89v8.51h-8.09v1.38h6.53v6h-6.53V206H349v8.09H329.58Z"/><path class="cls-1" d="M351.66,214.12V188.65h11c5.08,0,9,1.51,11.64,4a12,12,0,0,1,.07,17.48c-2.72,2.53-6.67,4-11.63,4Zm10.8-8.3h.26a5.57,5.57,0,0,0,4.06-1.45,4.2,4.2,0,0,0,1.19-3,4.33,4.33,0,0,0-1.19-3.06,5.36,5.36,0,0,0-4-1.37h-.33Z"/><path d="M103.77,127.93h19.44v30.46h14.61v16.77h-34Z"/><path d="M142.9,127.93h34v15.78H162.34v2.55h11.74v11.22H162.34v2.67H177.8v15H142.9Z"/><path d="M180.15,127.93h21l7,25h.13l7.44-25h19l-18.07,47.23H198.22Z"/><path d="M237.94,127.93h34v15.78H257.38v2.55h11.74v11.22H257.38v2.67h15.46v15h-34.9Z"/><path d="M277.67,127.93h19.44v30.46h14.61v16.77H277.67Z"/><path d="M353.33,160a19.48,19.48,0,0,1-2,.07c-9.07,0-16.11-6.26-16.11-15.33,0-10.31,9-17.55,20.81-17.55,11.35,0,21.07,6.72,21.07,18.72,0,6.39-2.74,11.74-6.27,16.44l-9.65,12.79H340.81Zm6.07-14.74a3.23,3.23,0,1,0-3.2,3.2A3.22,3.22,0,0,0,359.4,145.28Z"/><path d="M104.86,202.54V188.65h10.81v13.19c0,2.39.79,4.08,3.3,4.08s3.22-1.48,3.22-4V188.65h9.72V202.4c0,3.91-1,6.37-2.39,8-2.4,2.81-6.75,4.11-11.21,4.11s-8.66-1.4-11-4C106,209,104.86,206.7,104.86,202.54Z"/><path d="M135.06,188.65h9.83l7.72,10.87.07,0V188.65h9.72v25.47h-9.82l-7.73-10.87-.07,0v10.84h-9.72Z"/><path d="M165.59,188.65h10.52c3.95,0,12.29.39,12.29,6.47,0,2.15-1.06,4.12-4,5.1v.07c3.81,1.38,4.68,3.77,4.68,6.05,0,6.72-7.4,7.78-12.51,7.78h-11ZM176.79,199c1.38,0,2-.7,2-1.58s-.68-1.58-2-1.58h-.39V199Zm.08,8.3c1.7,0,2.5-.88,2.5-2s-.84-2-2.5-2h-.47v3.94Z"/><path d="M198.8,188.65h10.33l10,25.47H207.47l-.91-3.34h-6l-1,3.34H188.8Zm6,15.72-1.16-5.17h-.07l-1.16,5.17Z"/><path d="M221,188.65h10.8v16.43h8.12v9H221Z"/><path d="M251.34,188.65h10.33l10,25.47H260l-.9-3.34h-6l-1,3.34H241.33Zm6,15.72-1.16-5.17h-.08L255,204.37Z"/><path d="M273.49,188.65h9.82L291,199.52l.07,0V188.65h9.72v25.47H291l-7.72-10.87-.07,0v10.84h-9.72Z"/><path d="M318.74,188.27a19.25,19.25,0,0,1,7.72,1.47v9.39a15.2,15.2,0,0,0-6.53-1.61c-3.69,0-5.69,1.72-5.69,4.07s2,4,5.69,4A14.38,14.38,0,0,0,326.6,204v9a19.29,19.29,0,0,1-8,1.58c-8.78,0-15.19-5.55-15.19-13.12S309.82,188.27,318.74,188.27Z"/><path d="M329.58,188.65h18.89v8.51h-8.09v1.38h6.53v6h-6.53V206H349v8.09H329.58Z"/><path d="M351.66,214.12V188.65h11c5.08,0,9,1.51,11.64,4a12,12,0,0,1,.07,17.48c-2.72,2.53-6.67,4-11.63,4Zm10.8-8.3h.26a5.57,5.57,0,0,0,4.06-1.45,4.2,4.2,0,0,0,1.19-3,4.33,4.33,0,0,0-1.19-3.06,5.36,5.36,0,0,0-4-1.37h-.33Z"/></svg>