<svg id="Layer_1" data-name="Layer 1" xmlns="http://www.w3.org/2000/svg" viewBox="0 0 480 360"><defs><style>.cls-1{fill:none;stroke:#fff;stroke-width:4px;}</style></defs><path class="cls-1" d="M104.27,127.93h19.44v30.46h14.61v16.77h-34Z"/><path class="cls-1" d="M143.4,127.93h34v15.78H162.84v2.55h11.74v11.22H162.84v2.67H178.3v15H143.4Z"/><path class="cls-1" d="M180.65,127.93h21l7,25h.13l7.44-25h19l-18.07,47.23H198.72Z"/><path class="cls-1" d="M238.44,127.93h34v15.78H257.88v2.55h11.74v11.22H257.88v2.67h15.46v15h-34.9Z"/><path class="cls-1" d="M278.17,127.93H297.6v30.46h14.62v16.77H278.17Z"/><path class="cls-1" d="M336.8,159a42.05,42.05,0,0,0,11,2c3.53,0,5-1,5-2.8s-1.43-2.61-6-2.61c-2.22,0-6.59.13-9.59.26l2.48-27.92h30.92l-1.44,15.78H356l-.19,2.55c8.09.39,16.44,4,16.44,13.57,0,10.63-10.31,16-22.12,16a46.45,46.45,0,0,1-14.54-2.41Z"/><path class="cls-1" d="M123,188.27a26.16,26.16,0,0,1,9.09,1.47v9.39a20.44,20.44,0,0,0-7.68-1.61c-4.35,0-6.69,1.72-6.69,4.07s2.34,4,6.69,4a19.33,19.33,0,0,0,7.85-1.69v9a26.23,26.23,0,0,1-9.38,1.58C112.55,214.5,105,209,105,201.38S112.5,188.27,123,188.27Z"/><path class="cls-1" d="M135.74,188.65h12.71v16.43H158v9H135.74Z"/><path class="cls-1" d="M177.24,188.27c9.68,0,17.23,5.73,17.23,13.11s-7.55,13.12-17.23,13.12S160,208.77,160,201.38,167.56,188.27,177.24,188.27Zm0,17.23c2.64,0,4.77-1.76,4.77-3.94s-2.13-3.94-4.77-3.94-4.78,1.76-4.78,3.94S174.59,205.5,177.24,205.5Z"/><path class="cls-1" d="M197.62,203.78a24.87,24.87,0,0,0,10.15,3c1.28,0,1.58-.42,1.58-.84s-.38-.71-.94-.81c-1.49-.32-5.8-.71-8.95-3a6.23,6.23,0,0,1-2.73-5.31c0-5.1,4.77-8.58,12.58-8.58a31.08,31.08,0,0,1,11,2v8.34a28.39,28.39,0,0,0-9.34-2.26c-1.24,0-1.58.39-1.58.78s.47.74,1,.88c1.28.31,5.55.74,8.58,2.71a6.29,6.29,0,0,1,3.11,5.48c0,4.89-4.78,8.3-12.88,8.3a32.38,32.38,0,0,1-11.56-2.07Z"/><path class="cls-1" d="M224.74,188.65H247v8.51h-9.51v1.38h7.68v6h-7.68V206h10.11v8.09H224.74Z"/><path class="cls-1" d="M280.82,188.27a26.2,26.2,0,0,1,9.09,1.47v9.39a20.48,20.48,0,0,0-7.68-1.61c-4.35,0-6.7,1.72-6.7,4.07s2.35,4,6.7,4a19.37,19.37,0,0,0,7.85-1.69v9a26.29,26.29,0,0,1-9.39,1.58c-10.32,0-17.87-5.55-17.87-13.12S270.33,188.27,280.82,188.27Z"/><path class="cls-1" d="M303.25,188.65h12.16l11.77,25.47H313.45l-1.07-3.34H305.3l-1.19,3.34H291.48Zm7.08,15.72L309,199.2h-.09l-1.36,5.17Z"/><path class="cls-1" d="M329.31,188.65H342v16.43h9.55v9H329.31Z"/><path class="cls-1" d="M354.9,188.65h12.7v16.43h9.56v9H354.9Z"/><path d="M104.27,127.93h19.44v30.46h14.61v16.77h-34Z"/><path d="M143.4,127.93h34v15.78H162.84v2.55h11.74v11.22H162.84v2.67H178.3v15H143.4Z"/><path d="M180.65,127.93h21l7,25h.13l7.44-25h19l-18.07,47.23H198.72Z"/><path d="M238.44,127.93h34v15.78H257.88v2.55h11.74v11.22H257.88v2.67h15.46v15h-34.9Z"/><path d="M278.17,127.93H297.6v30.46h14.62v16.77H278.17Z"/><path d="M336.8,159a42.05,42.05,0,0,0,11,2c3.53,0,5-1,5-2.8s-1.43-2.61-6-2.61c-2.22,0-6.59.13-9.59.26l2.48-27.92h30.92l-1.44,15.78H356l-.19,2.55c8.09.39,16.44,4,16.44,13.57,0,10.63-10.31,16-22.12,16a46.45,46.45,0,0,1-14.54-2.41Z"/><path d="M123,188.27a26.16,26.16,0,0,1,9.09,1.47v9.39a20.44,20.44,0,0,0-7.68-1.61c-4.35,0-6.69,1.72-6.69,4.07s2.34,4,6.69,4a19.33,19.33,0,0,0,7.85-1.69v9a26.23,26.23,0,0,1-9.38,1.58C112.55,214.5,105,209,105,201.38S112.5,188.27,123,188.27Z"/><path d="M135.74,188.65h12.71v16.43H158v9H135.74Z"/><path d="M177.24,188.27c9.68,0,17.23,5.73,17.23,13.11s-7.55,13.12-17.23,13.12S160,208.77,160,201.38,167.56,188.27,177.24,188.27Zm0,17.23c2.64,0,4.77-1.76,4.77-3.94s-2.13-3.94-4.77-3.94-4.78,1.76-4.78,3.94S174.59,205.5,177.24,205.5Z"/><path d="M197.62,203.78a24.87,24.87,0,0,0,10.15,3c1.28,0,1.58-.42,1.58-.84s-.38-.71-.94-.81c-1.49-.32-5.8-.71-8.95-3a6.23,6.23,0,0,1-2.73-5.31c0-5.1,4.77-8.58,12.58-8.58a31.08,31.08,0,0,1,11,2v8.34a28.39,28.39,0,0,0-9.34-2.26c-1.24,0-1.58.39-1.58.78s.47.74,1,.88c1.28.31,5.55.74,8.58,2.71a6.29,6.29,0,0,1,3.11,5.48c0,4.89-4.78,8.3-12.88,8.3a32.38,32.38,0,0,1-11.56-2.07Z"/><path d="M224.74,188.65H247v8.51h-9.51v1.38h7.68v6h-7.68V206h10.11v8.09H224.74Z"/><path d="M280.82,188.27a26.2,26.2,0,0,1,9.09,1.47v9.39a20.48,20.48,0,0,0-7.68-1.61c-4.35,0-6.7,1.72-6.7,4.07s2.35,4,6.7,4a19.37,19.37,0,0,0,7.85-1.69v9a26.29,26.29,0,0,1-9.39,1.58c-10.32,0-17.87-5.55-17.87-13.12S270.33,188.27,280.82,188.27Z"/><path d="M303.25,188.65h12.16l11.77,25.47H313.45l-1.07-3.34H305.3l-1.19,3.34H291.48Zm7.08,15.72L309,199.2h-.09l-1.36,5.17Z"/><path d="M329.31,188.65H342v16.43h9.55v9H329.31Z"/><path d="M354.9,188.65h12.7v16.43h9.56v9H354.9Z"/></svg>