<svg version="1.1" xmlns="http://www.w3.org/2000/svg" xmlns:xlink="http://www.w3.org/1999/xlink" width="27" height="44" viewBox="0,0,27,44"><g transform="translate(-215,-178)"><g data-paper-data="{&quot;isPaintingLayer&quot;:true}" fill-rule="nonzero" stroke-linecap="butt" stroke-miterlimit="10" stroke-dasharray="" stroke-dashoffset="0" style="mix-blend-mode: normal"><g data-paper-data="{&quot;index&quot;:null}"><path d="M238,203l-7,-12l9,-2z" fill="none" stroke="#000000" stroke-width="4" stroke-linejoin="round"/><path d="M238,203l-7,-12l9,-2z" fill="#b3b3b3" stroke="none" stroke-width="1" stroke-linejoin="miter"/></g><g data-paper-data="{&quot;index&quot;:null}" stroke="none" stroke-width="1" stroke-linejoin="miter"><path d="M242,187c0,4.41828 -3.58172,8 -8,8h-2v19c0,4.41828 -3.58172,8 -8,8h-9v-44h27zM219,218h5c2.20914,0 4,-1.79086 4,-4v-23h6c2.20914,0 4,-1.79086 4,-4v-5h-19z" fill="#000000"/><path d="M234,193h-4v21c0,3.31371 -2.68629,6 -6,6h-7v-40h23v7c0,3.31371 -2.68629,6 -6,6z" fill="#00a99d"/></g><path d="M237,183v5h-5v-5z" data-paper-data="{&quot;index&quot;:null}" fill="#ffffff" stroke="#ffffff" stroke-width="2" stroke-linejoin="round"/><path d="M237,183v3h-3v-3z" data-paper-data="{&quot;index&quot;:null}" fill="#000000" stroke="none" stroke-width="1" stroke-linejoin="miter"/><path d="M230,193h-5l-3,-13h5z" data-paper-data="{&quot;index&quot;:null}" fill="#008279" stroke="none" stroke-width="1" stroke-linejoin="miter"/><path d="M217,194h13v5h-13z" data-paper-data="{&quot;index&quot;:null}" fill="#008279" stroke="none" stroke-width="1" stroke-linejoin="miter"/><path d="M217,204h13v5h-13z" data-paper-data="{&quot;index&quot;:null}" fill="#008279" stroke="none" stroke-width="1" stroke-linejoin="miter"/></g></g></svg>