<svg version="1.1" xmlns="http://www.w3.org/2000/svg" xmlns:xlink="http://www.w3.org/1999/xlink" width="20" height="26" viewBox="0,0,20,26"><g transform="translate(-229.5,-166)"><g data-paper-data="{&quot;isPaintingLayer&quot;:true}" fill-rule="nonzero" stroke="none" stroke-linecap="butt" stroke-linejoin="miter" stroke-miterlimit="10" stroke-dasharray="" stroke-dashoffset="0" style="mix-blend-mode: normal"><path d="M234.77538,187.74001l0.07,-3.7c3.58,-1.8 5.26,-2.85 5.26,-3.67c0,-0.53 -0.48,-0.81 -1.27,-0.81c-1.28752,0.09271 -2.52849,0.52015 -3.6,1.24l-0.72,-4.05c1.81438,-0.96406 3.84591,-1.44612 5.9,-1.4c3.63,0 5.59,1.78 5.59,4.23c0,1.46 -0.84,2.86 -2.85,4h3.09l0.1,4.13z" fill-opacity="0.2" fill="#000000" stroke-width="1"/><g stroke-width="1"><path d="M234.77538,184.74001l0.07,-3.7c3.58,-1.8 5.26,-2.85 5.26,-3.67c0,-0.53 -0.48,-0.81 -1.27,-0.81c-1.28752,0.09271 -2.52849,0.52015 -3.6,1.24l-0.72,-4.05c1.81438,-0.96406 3.84591,-1.44612 5.9,-1.4c3.63,0 5.59,1.78 5.59,4.23c0,1.46 -0.84,2.86 -2.85,4h3.09l0.1,4.13z" fill="#ffff00"/><path d="M246.85537,185.24001h-12.59l0.09,-4.51l0.27,-0.13c1.36,-0.69 5,-2.51 5,-3.23c0,-0.29 -0.59,-0.31 -0.77,-0.31c-1.19221,0.08944 -2.34025,0.48936 -3.33,1.16l-0.63,0.42l-0.98,-5.14l0.3,-0.18c1.89343,-1.0098 4.01462,-1.516 6.16,-1.47c3.7,0 6.09,1.86 6.09,4.73c-0.02444,1.38643 -0.67977,2.68604 -1.78,3.53h2zM235.28538,184.24001h10.55l-0.07,-3.13h-4.46l1.6,-0.93c1.73,-1 2.6,-2.22 2.6,-3.6c0,-2.3 -2,-3.73 -5.09,-3.73c-1.84921,-0.03398 -3.68093,0.36317 -5.35,1.16l0.53,3c0.99264,-0.56145 2.10135,-0.88653 3.24,-0.95c1.3,0 1.77,0.68 1.77,1.31c0,1 -1.24,1.95 -5.26,4z" fill="#000000"/></g><path d="M229.5,192v-26h20v26z" fill="none" stroke-width="0"/></g></g></svg>