<svg version="1.1" xmlns="http://www.w3.org/2000/svg" xmlns:xlink="http://www.w3.org/1999/xlink" width="37" height="48" viewBox="0,0,37,48"><g transform="translate(-205,-155)"><g data-paper-data="{&quot;isPaintingLayer&quot;:true}" fill-rule="nonzero" stroke-linecap="butt" stroke-miterlimit="10" stroke-dasharray="" stroke-dashoffset="0" style="mix-blend-mode: normal"><g><path d="M240,171l-9,-2l7,-12z" fill="none" stroke="#000000" stroke-width="4" stroke-linejoin="round"/><path d="M240,171l-9,-2l7,-12z" fill="#b3b3b3" stroke="none" stroke-width="1" stroke-linejoin="miter"/></g><g stroke="none" stroke-width="1" stroke-linejoin="miter"><path d="M222,203h-9c-4.41828,0 -8,-3.58172 -8,-8v-22c0,-4.41828 3.58172,-8 8,-8h21c4.41828,0 8,3.58172 8,8v9h-20zM213,169c-2.20914,0 -4,1.79086 -4,4v22c0,2.20914 1.79086,4 4,4h5v-21h20v-5c0,-2.20914 -1.79086,-4 -4,-4z" fill="#000000"/><path d="M240,180h-20v21h-7c-3.31371,0 -6,-2.68629 -6,-6v-22c0,-3.31371 2.68629,-6 6,-6h21c3.31371,0 6,2.68629 6,6z" fill="#00a99d"/></g><path d="M232,177v-5h5v5z" fill="#ffffff" stroke="#ffffff" stroke-width="2" stroke-linejoin="round"/><path d="M234,177v-3h3v3z" fill="#000000" stroke="none" stroke-width="1" stroke-linejoin="miter"/><path d="M222,180v-13h5v13z" fill="#008279" stroke="none" stroke-width="1" stroke-linejoin="miter"/><path d="M220,180h-5l-3,-13h5z" fill="#008279" stroke="none" stroke-width="1" stroke-linejoin="miter"/><path d="M220,190h-13v-5h13z" fill="#008279" stroke="none" stroke-width="1" stroke-linejoin="miter"/></g></g></svg>