<svg version="1.1" xmlns="http://www.w3.org/2000/svg" xmlns:xlink="http://www.w3.org/1999/xlink" width="19" height="21" viewBox="0,0,19,21"><g transform="translate(-231.5,-169)"><g data-paper-data="{&quot;isPaintingLayer&quot;:true}" fill-rule="nonzero" stroke="none" stroke-linecap="butt" stroke-linejoin="miter" stroke-miterlimit="10" stroke-dasharray="" stroke-dashoffset="0" style="mix-blend-mode: normal"><path d="M242.14202,174.89l1.85,-0.23v8.16h-1.85v-0.58c-0.39142,0.45129 -0.95296,0.71938 -1.55,0.74c-1.38,0 -2.39,-1.12 -2.39,-2.89c-0.04656,-0.77266 0.2254,-1.53066 0.75255,-2.09748c0.52714,-0.56682 1.26345,-0.89298 2.03745,-0.90252c0.39124,-0.0012 0.77993,0.06302 1.15,0.19zM241.29202,178.44c-0.78,0 -1.24,0.63 -1.24,1.56c0,0.93 0.48,1.51 1.16,1.51c0.35174,0.0102 0.69075,-0.13196 0.93,-0.39v-2.44c-0.25091,-0.16769 -0.54844,-0.2517 -0.85,-0.24z" fill="#000000" stroke-width="1"/><path d="M231.5,190v-21h19v21z" fill="none" stroke-width="0"/></g></g></svg>