<svg version="1.1" xmlns="http://www.w3.org/2000/svg" xmlns:xlink="http://www.w3.org/1999/xlink" width="153" height="41" viewBox="0,0,153,41"><g transform="translate(-163.5,-159.5)"><g data-paper-data="{&quot;isPaintingLayer&quot;:true}" fill-rule="nonzero" stroke="none" stroke-width="1" stroke-linecap="butt" stroke-linejoin="miter" stroke-miterlimit="10" stroke-dasharray="" stroke-dashoffset="0" style="mix-blend-mode: normal"><path d="M310.15,200.5h-140.3c-3.50245,-0.01098 -6.33902,-2.84755 -6.35,-6.35v-26.3c0.01098,-3.50245 2.84755,-6.33902 6.35,-6.35h140.3c3.50245,0.01098 6.33902,2.84755 6.35,6.35v26.3c-0.01098,3.50245 -2.84755,6.33902 -6.35,6.35z" fill="#000000" opacity="0.1"/><path d="M310.15,198.5h-140.3c-3.50245,-0.01098 -6.33902,-2.84755 -6.35,-6.35v-26.3c0.01098,-3.50245 2.84755,-6.33902 6.35,-6.35h140.3c3.50245,0.01098 6.33902,2.84755 6.35,6.35v26.3c-0.01098,3.50245 -2.84755,6.33902 -6.35,6.35z" fill="#ffff87" opacity="0.95"/><path d="M211.22,185.5h-2.86v-11.28h4.52c3,0 4.55,1.39 4.55,3.57c0.04228,1.47225 -0.8962,2.79429 -2.3,3.24l2.88,4.47h-3.23l-2.28,-3.81l-1.31,0.11zM212.61,179.67c1.22,-0.09 1.89,-0.59 1.89,-1.67c0,-1.08 -0.69,-1.5 -2.13,-1.5h-1.2v3.19z" fill="#000000"/><path d="M220.04,185.5v-11.28h8.23v2.28h-5.42v2.17h4.35v2.28h-4.35v2.2h5.42v2.35z" fill="#000000"/><path d="M234.75,182.2h-1.1v3.3h-2.87v-11.28h4.16c3.15,0 4.81,1.58 4.81,3.91c0,2.63 -1.78,4.07 -5,4.07zM234.75,176.49h-1.17v3.51h1.15c1.47,0 2.18,-0.65 2.18,-1.78c0,-1.13 -0.74,-1.72 -2.18,-1.72z" fill="#000000"/><path d="M242.05,185.5v-11.28h2.86v8.86h4.72v2.42z" fill="#000000"/><path d="M262.36,185.5h-2.86l-0.82,-2.39h-4.18l-0.8,2.39h-2.85l4,-11.25h3.58zM256.62,176.5l-1.5,4.41h2.94z" fill="#000000"/><path d="M268.73,181.21v4.29h-2.81v-4.31l-3.92,-7h3l2.32,4.45l2.25,-4.45h3z" fill="#000000"/></g></g></svg>