<svg xmlns="http://www.w3.org/2000/svg" width="540" height="420" viewBox="0 0 540 420">
  <g>
    <rect width="540" height="420" style="fill: #2f943c"/>
    <g>
      <path d="M22.5,61H7.5A6.52,6.52,0,0,0,1,67.5v15A6.52,6.52,0,0,0,7.5,89h15A6.52,6.52,0,0,0,29,82.5v-15A6.52,6.52,0,0,0,22.5,61Z" style="fill: #32a842"/>
      <path d="M52.5,91h-15A6.52,6.52,0,0,0,31,97.5v15a6.52,6.52,0,0,0,6.5,6.5h15a6.52,6.52,0,0,0,6.5-6.5v-15A6.52,6.52,0,0,0,52.5,91Z" style="fill: #32a842"/>
      <path d="M22.5,121H7.5A6.52,6.52,0,0,0,1,127.5v15A6.52,6.52,0,0,0,7.5,149h15a6.52,6.52,0,0,0,6.5-6.5v-15A6.52,6.52,0,0,0,22.5,121Z" style="fill: #32a842"/>
      <path d="M52.5,151h-15a6.52,6.52,0,0,0-6.5,6.5v15a6.52,6.52,0,0,0,6.5,6.5h15a6.52,6.52,0,0,0,6.5-6.5v-15A6.52,6.52,0,0,0,52.5,151Z" style="fill: #32a842"/>
      <path d="M22.5,181H7.5A6.52,6.52,0,0,0,1,187.5v15A6.52,6.52,0,0,0,7.5,209h15a6.52,6.52,0,0,0,6.5-6.5v-15A6.52,6.52,0,0,0,22.5,181Z" style="fill: #32a842"/>
      <path d="M52.5,211h-15a6.52,6.52,0,0,0-6.5,6.5v15a6.52,6.52,0,0,0,6.5,6.5h15a6.52,6.52,0,0,0,6.5-6.5v-15A6.52,6.52,0,0,0,52.5,211Z" style="fill: #32a842"/>
      <path d="M22.5,241H7.5A6.52,6.52,0,0,0,1,247.5v15A6.52,6.52,0,0,0,7.5,269h15a6.52,6.52,0,0,0,6.5-6.5v-15A6.52,6.52,0,0,0,22.5,241Z" style="fill: #32a842"/>
      <path d="M52.5,271h-15a6.52,6.52,0,0,0-6.5,6.5v15a6.52,6.52,0,0,0,6.5,6.5h15a6.52,6.52,0,0,0,6.5-6.5v-15A6.52,6.52,0,0,0,52.5,271Z" style="fill: #32a842"/>
      <path d="M22.5,301H7.5A6.52,6.52,0,0,0,1,307.5v15A6.52,6.52,0,0,0,7.5,329h15a6.52,6.52,0,0,0,6.5-6.5v-15A6.52,6.52,0,0,0,22.5,301Z" style="fill: #32a842"/>
      <path d="M52.5,331h-15a6.52,6.52,0,0,0-6.5,6.5v15a6.52,6.52,0,0,0,6.5,6.5h15a6.52,6.52,0,0,0,6.5-6.5v-15A6.52,6.52,0,0,0,52.5,331Z" style="fill: #32a842"/>
      <path d="M22.5,361H7.5A6.52,6.52,0,0,0,1,367.5v15A6.52,6.52,0,0,0,7.5,389h15a6.52,6.52,0,0,0,6.5-6.5v-15A6.52,6.52,0,0,0,22.5,361Z" style="fill: #32a842"/>
      <path d="M52.5,391h-15a6.52,6.52,0,0,0-6.5,6.5v15a6.52,6.52,0,0,0,6.5,6.5h15a6.52,6.52,0,0,0,6.5-6.5v-15A6.52,6.52,0,0,0,52.5,391Z" style="fill: #32a842"/>
      <path d="M82.5,61h-15A6.52,6.52,0,0,0,61,67.5v15A6.52,6.52,0,0,0,67.5,89h15A6.52,6.52,0,0,0,89,82.5v-15A6.52,6.52,0,0,0,82.5,61Z" style="fill: #32a842"/>
      <path d="M112.5,91h-15A6.52,6.52,0,0,0,91,97.5v15a6.52,6.52,0,0,0,6.5,6.5h15a6.52,6.52,0,0,0,6.5-6.5v-15A6.52,6.52,0,0,0,112.5,91Z" style="fill: #32a842"/>
      <path d="M82.5,121h-15a6.52,6.52,0,0,0-6.5,6.5v15a6.52,6.52,0,0,0,6.5,6.5h15a6.52,6.52,0,0,0,6.5-6.5v-15A6.52,6.52,0,0,0,82.5,121Z" style="fill: #32a842"/>
      <path d="M112.5,151h-15a6.52,6.52,0,0,0-6.5,6.5v15a6.52,6.52,0,0,0,6.5,6.5h15a6.52,6.52,0,0,0,6.5-6.5v-15A6.52,6.52,0,0,0,112.5,151Z" style="fill: #32a842"/>
      <path d="M82.5,181h-15a6.52,6.52,0,0,0-6.5,6.5v15a6.52,6.52,0,0,0,6.5,6.5h15a6.52,6.52,0,0,0,6.5-6.5v-15A6.52,6.52,0,0,0,82.5,181Z" style="fill: #32a842"/>
      <path d="M112.5,211h-15a6.52,6.52,0,0,0-6.5,6.5v15a6.52,6.52,0,0,0,6.5,6.5h15a6.52,6.52,0,0,0,6.5-6.5v-15A6.52,6.52,0,0,0,112.5,211Z" style="fill: #32a842"/>
      <path d="M82.5,241h-15a6.52,6.52,0,0,0-6.5,6.5v15a6.52,6.52,0,0,0,6.5,6.5h15a6.52,6.52,0,0,0,6.5-6.5v-15A6.52,6.52,0,0,0,82.5,241Z" style="fill: #32a842"/>
      <path d="M112.5,271h-15a6.52,6.52,0,0,0-6.5,6.5v15a6.52,6.52,0,0,0,6.5,6.5h15a6.52,6.52,0,0,0,6.5-6.5v-15A6.52,6.52,0,0,0,112.5,271Z" style="fill: #32a842"/>
      <path d="M82.5,301h-15a6.52,6.52,0,0,0-6.5,6.5v15a6.52,6.52,0,0,0,6.5,6.5h15a6.52,6.52,0,0,0,6.5-6.5v-15A6.52,6.52,0,0,0,82.5,301Z" style="fill: #32a842"/>
      <path d="M112.5,331h-15a6.52,6.52,0,0,0-6.5,6.5v15a6.52,6.52,0,0,0,6.5,6.5h15a6.52,6.52,0,0,0,6.5-6.5v-15A6.52,6.52,0,0,0,112.5,331Z" style="fill: #32a842"/>
      <path d="M82.5,361h-15a6.52,6.52,0,0,0-6.5,6.5v15a6.52,6.52,0,0,0,6.5,6.5h15a6.52,6.52,0,0,0,6.5-6.5v-15A6.52,6.52,0,0,0,82.5,361Z" style="fill: #32a842"/>
      <path d="M112.5,391h-15a6.52,6.52,0,0,0-6.5,6.5v15a6.52,6.52,0,0,0,6.5,6.5h15a6.52,6.52,0,0,0,6.5-6.5v-15A6.52,6.52,0,0,0,112.5,391Z" style="fill: #32a842"/>
      <path d="M142.5,61h-15a6.52,6.52,0,0,0-6.5,6.5v15a6.52,6.52,0,0,0,6.5,6.5h15a6.52,6.52,0,0,0,6.5-6.5v-15A6.52,6.52,0,0,0,142.5,61Z" style="fill: #32a842"/>
      <path d="M172.5,91h-15a6.52,6.52,0,0,0-6.5,6.5v15a6.52,6.52,0,0,0,6.5,6.5h15a6.52,6.52,0,0,0,6.5-6.5v-15A6.52,6.52,0,0,0,172.5,91Z" style="fill: #32a842"/>
      <path d="M142.5,121h-15a6.52,6.52,0,0,0-6.5,6.5v15a6.52,6.52,0,0,0,6.5,6.5h15a6.52,6.52,0,0,0,6.5-6.5v-15A6.52,6.52,0,0,0,142.5,121Z" style="fill: #32a842"/>
      <path d="M172.5,151h-15a6.52,6.52,0,0,0-6.5,6.5v15a6.52,6.52,0,0,0,6.5,6.5h15a6.52,6.52,0,0,0,6.5-6.5v-15A6.52,6.52,0,0,0,172.5,151Z" style="fill: #32a842"/>
      <path d="M142.5,181h-15a6.52,6.52,0,0,0-6.5,6.5v15a6.52,6.52,0,0,0,6.5,6.5h15a6.52,6.52,0,0,0,6.5-6.5v-15A6.52,6.52,0,0,0,142.5,181Z" style="fill: #32a842"/>
      <path d="M172.5,211h-15a6.52,6.52,0,0,0-6.5,6.5v15a6.52,6.52,0,0,0,6.5,6.5h15a6.52,6.52,0,0,0,6.5-6.5v-15A6.52,6.52,0,0,0,172.5,211Z" style="fill: #32a842"/>
      <path d="M142.5,241h-15a6.52,6.52,0,0,0-6.5,6.5v15a6.52,6.52,0,0,0,6.5,6.5h15a6.52,6.52,0,0,0,6.5-6.5v-15A6.52,6.52,0,0,0,142.5,241Z" style="fill: #32a842"/>
      <path d="M172.5,271h-15a6.52,6.52,0,0,0-6.5,6.5v15a6.52,6.52,0,0,0,6.5,6.5h15a6.52,6.52,0,0,0,6.5-6.5v-15A6.52,6.52,0,0,0,172.5,271Z" style="fill: #32a842"/>
      <path d="M142.5,301h-15a6.52,6.52,0,0,0-6.5,6.5v15a6.52,6.52,0,0,0,6.5,6.5h15a6.52,6.52,0,0,0,6.5-6.5v-15A6.52,6.52,0,0,0,142.5,301Z" style="fill: #32a842"/>
      <path d="M172.5,331h-15a6.52,6.52,0,0,0-6.5,6.5v15a6.52,6.52,0,0,0,6.5,6.5h15a6.52,6.52,0,0,0,6.5-6.5v-15A6.52,6.52,0,0,0,172.5,331Z" style="fill: #32a842"/>
      <path d="M142.5,361h-15a6.52,6.52,0,0,0-6.5,6.5v15a6.52,6.52,0,0,0,6.5,6.5h15a6.52,6.52,0,0,0,6.5-6.5v-15A6.52,6.52,0,0,0,142.5,361Z" style="fill: #32a842"/>
      <path d="M172.5,391h-15a6.52,6.52,0,0,0-6.5,6.5v15a6.52,6.52,0,0,0,6.5,6.5h15a6.52,6.52,0,0,0,6.5-6.5v-15A6.52,6.52,0,0,0,172.5,391Z" style="fill: #32a842"/>
      <path d="M202.5,61h-15a6.52,6.52,0,0,0-6.5,6.5v15a6.52,6.52,0,0,0,6.5,6.5h15a6.52,6.52,0,0,0,6.5-6.5v-15A6.52,6.52,0,0,0,202.5,61Z" style="fill: #32a842"/>
      <path d="M232.5,91h-15a6.52,6.52,0,0,0-6.5,6.5v15a6.52,6.52,0,0,0,6.5,6.5h15a6.52,6.52,0,0,0,6.5-6.5v-15A6.52,6.52,0,0,0,232.5,91Z" style="fill: #32a842"/>
      <path d="M202.5,121h-15a6.52,6.52,0,0,0-6.5,6.5v15a6.52,6.52,0,0,0,6.5,6.5h15a6.52,6.52,0,0,0,6.5-6.5v-15A6.52,6.52,0,0,0,202.5,121Z" style="fill: #32a842"/>
      <path d="M232.5,151h-15a6.52,6.52,0,0,0-6.5,6.5v15a6.52,6.52,0,0,0,6.5,6.5h15a6.52,6.52,0,0,0,6.5-6.5v-15A6.52,6.52,0,0,0,232.5,151Z" style="fill: #32a842"/>
      <path d="M202.5,181h-15a6.52,6.52,0,0,0-6.5,6.5v15a6.52,6.52,0,0,0,6.5,6.5h15a6.52,6.52,0,0,0,6.5-6.5v-15A6.52,6.52,0,0,0,202.5,181Z" style="fill: #32a842"/>
      <path d="M232.5,211h-15a6.52,6.52,0,0,0-6.5,6.5v15a6.52,6.52,0,0,0,6.5,6.5h15a6.52,6.52,0,0,0,6.5-6.5v-15A6.52,6.52,0,0,0,232.5,211Z" style="fill: #32a842"/>
      <path d="M202.5,241h-15a6.52,6.52,0,0,0-6.5,6.5v15a6.52,6.52,0,0,0,6.5,6.5h15a6.52,6.52,0,0,0,6.5-6.5v-15A6.52,6.52,0,0,0,202.5,241Z" style="fill: #32a842"/>
      <path d="M232.5,271h-15a6.52,6.52,0,0,0-6.5,6.5v15a6.52,6.52,0,0,0,6.5,6.5h15a6.52,6.52,0,0,0,6.5-6.5v-15A6.52,6.52,0,0,0,232.5,271Z" style="fill: #32a842"/>
      <path d="M202.5,301h-15a6.52,6.52,0,0,0-6.5,6.5v15a6.52,6.52,0,0,0,6.5,6.5h15a6.52,6.52,0,0,0,6.5-6.5v-15A6.52,6.52,0,0,0,202.5,301Z" style="fill: #32a842"/>
      <path d="M232.5,331h-15a6.52,6.52,0,0,0-6.5,6.5v15a6.52,6.52,0,0,0,6.5,6.5h15a6.52,6.52,0,0,0,6.5-6.5v-15A6.52,6.52,0,0,0,232.5,331Z" style="fill: #32a842"/>
      <path d="M202.5,361h-15a6.52,6.52,0,0,0-6.5,6.5v15a6.52,6.52,0,0,0,6.5,6.5h15a6.52,6.52,0,0,0,6.5-6.5v-15A6.52,6.52,0,0,0,202.5,361Z" style="fill: #32a842"/>
      <path d="M232.5,391h-15a6.52,6.52,0,0,0-6.5,6.5v15a6.52,6.52,0,0,0,6.5,6.5h15a6.52,6.52,0,0,0,6.5-6.5v-15A6.52,6.52,0,0,0,232.5,391Z" style="fill: #32a842"/>
      <path d="M262.5,61h-15a6.52,6.52,0,0,0-6.5,6.5v15a6.52,6.52,0,0,0,6.5,6.5h15a6.52,6.52,0,0,0,6.5-6.5v-15A6.52,6.52,0,0,0,262.5,61Z" style="fill: #32a842"/>
      <path d="M292.5,91h-15a6.52,6.52,0,0,0-6.5,6.5v15a6.52,6.52,0,0,0,6.5,6.5h15a6.52,6.52,0,0,0,6.5-6.5v-15A6.52,6.52,0,0,0,292.5,91Z" style="fill: #32a842"/>
      <path d="M262.5,121h-15a6.52,6.52,0,0,0-6.5,6.5v15a6.52,6.52,0,0,0,6.5,6.5h15a6.52,6.52,0,0,0,6.5-6.5v-15A6.52,6.52,0,0,0,262.5,121Z" style="fill: #32a842"/>
      <path d="M292.5,151h-15a6.52,6.52,0,0,0-6.5,6.5v15a6.52,6.52,0,0,0,6.5,6.5h15a6.52,6.52,0,0,0,6.5-6.5v-15A6.52,6.52,0,0,0,292.5,151Z" style="fill: #32a842"/>
      <path d="M262.5,181h-15a6.52,6.52,0,0,0-6.5,6.5v15a6.52,6.52,0,0,0,6.5,6.5h15a6.52,6.52,0,0,0,6.5-6.5v-15A6.52,6.52,0,0,0,262.5,181Z" style="fill: #32a842"/>
      <path d="M292.5,211h-15a6.52,6.52,0,0,0-6.5,6.5v15a6.52,6.52,0,0,0,6.5,6.5h15a6.52,6.52,0,0,0,6.5-6.5v-15A6.52,6.52,0,0,0,292.5,211Z" style="fill: #32a842"/>
      <path d="M262.5,241h-15a6.52,6.52,0,0,0-6.5,6.5v15a6.52,6.52,0,0,0,6.5,6.5h15a6.52,6.52,0,0,0,6.5-6.5v-15A6.52,6.52,0,0,0,262.5,241Z" style="fill: #32a842"/>
      <path d="M292.5,271h-15a6.52,6.52,0,0,0-6.5,6.5v15a6.52,6.52,0,0,0,6.5,6.5h15a6.52,6.52,0,0,0,6.5-6.5v-15A6.52,6.52,0,0,0,292.5,271Z" style="fill: #32a842"/>
      <path d="M262.5,301h-15a6.52,6.52,0,0,0-6.5,6.5v15a6.52,6.52,0,0,0,6.5,6.5h15a6.52,6.52,0,0,0,6.5-6.5v-15A6.52,6.52,0,0,0,262.5,301Z" style="fill: #32a842"/>
      <path d="M292.5,331h-15a6.52,6.52,0,0,0-6.5,6.5v15a6.52,6.52,0,0,0,6.5,6.5h15a6.52,6.52,0,0,0,6.5-6.5v-15A6.52,6.52,0,0,0,292.5,331Z" style="fill: #32a842"/>
      <path d="M262.5,361h-15a6.52,6.52,0,0,0-6.5,6.5v15a6.52,6.52,0,0,0,6.5,6.5h15a6.52,6.52,0,0,0,6.5-6.5v-15A6.52,6.52,0,0,0,262.5,361Z" style="fill: #32a842"/>
      <path d="M292.5,391h-15a6.52,6.52,0,0,0-6.5,6.5v15a6.52,6.52,0,0,0,6.5,6.5h15a6.52,6.52,0,0,0,6.5-6.5v-15A6.52,6.52,0,0,0,292.5,391Z" style="fill: #32a842"/>
      <path d="M322.5,61h-15a6.52,6.52,0,0,0-6.5,6.5v15a6.52,6.52,0,0,0,6.5,6.5h15a6.52,6.52,0,0,0,6.5-6.5v-15A6.52,6.52,0,0,0,322.5,61Z" style="fill: #32a842"/>
      <path d="M352.5,91h-15a6.52,6.52,0,0,0-6.5,6.5v15a6.52,6.52,0,0,0,6.5,6.5h15a6.52,6.52,0,0,0,6.5-6.5v-15A6.52,6.52,0,0,0,352.5,91Z" style="fill: #32a842"/>
      <path d="M322.5,121h-15a6.52,6.52,0,0,0-6.5,6.5v15a6.52,6.52,0,0,0,6.5,6.5h15a6.52,6.52,0,0,0,6.5-6.5v-15A6.52,6.52,0,0,0,322.5,121Z" style="fill: #32a842"/>
      <path d="M352.5,151h-15a6.52,6.52,0,0,0-6.5,6.5v15a6.52,6.52,0,0,0,6.5,6.5h15a6.52,6.52,0,0,0,6.5-6.5v-15A6.52,6.52,0,0,0,352.5,151Z" style="fill: #32a842"/>
      <path d="M322.5,181h-15a6.52,6.52,0,0,0-6.5,6.5v15a6.52,6.52,0,0,0,6.5,6.5h15a6.52,6.52,0,0,0,6.5-6.5v-15A6.52,6.52,0,0,0,322.5,181Z" style="fill: #32a842"/>
      <path d="M352.5,211h-15a6.52,6.52,0,0,0-6.5,6.5v15a6.52,6.52,0,0,0,6.5,6.5h15a6.52,6.52,0,0,0,6.5-6.5v-15A6.52,6.52,0,0,0,352.5,211Z" style="fill: #32a842"/>
      <path d="M322.5,241h-15a6.52,6.52,0,0,0-6.5,6.5v15a6.52,6.52,0,0,0,6.5,6.5h15a6.52,6.52,0,0,0,6.5-6.5v-15A6.52,6.52,0,0,0,322.5,241Z" style="fill: #32a842"/>
      <path d="M352.5,271h-15a6.52,6.52,0,0,0-6.5,6.5v15a6.52,6.52,0,0,0,6.5,6.5h15a6.52,6.52,0,0,0,6.5-6.5v-15A6.52,6.52,0,0,0,352.5,271Z" style="fill: #32a842"/>
      <path d="M322.5,301h-15a6.52,6.52,0,0,0-6.5,6.5v15a6.52,6.52,0,0,0,6.5,6.5h15a6.52,6.52,0,0,0,6.5-6.5v-15A6.52,6.52,0,0,0,322.5,301Z" style="fill: #32a842"/>
      <path d="M352.5,331h-15a6.52,6.52,0,0,0-6.5,6.5v15a6.52,6.52,0,0,0,6.5,6.5h15a6.52,6.52,0,0,0,6.5-6.5v-15A6.52,6.52,0,0,0,352.5,331Z" style="fill: #32a842"/>
      <path d="M322.5,361h-15a6.52,6.52,0,0,0-6.5,6.5v15a6.52,6.52,0,0,0,6.5,6.5h15a6.52,6.52,0,0,0,6.5-6.5v-15A6.52,6.52,0,0,0,322.5,361Z" style="fill: #32a842"/>
      <path d="M352.5,391h-15a6.52,6.52,0,0,0-6.5,6.5v15a6.52,6.52,0,0,0,6.5,6.5h15a6.52,6.52,0,0,0,6.5-6.5v-15A6.52,6.52,0,0,0,352.5,391Z" style="fill: #32a842"/>
      <path d="M382.5,61h-15a6.52,6.52,0,0,0-6.5,6.5v15a6.52,6.52,0,0,0,6.5,6.5h15a6.52,6.52,0,0,0,6.5-6.5v-15A6.52,6.52,0,0,0,382.5,61Z" style="fill: #32a842"/>
      <path d="M412.5,91h-15a6.52,6.52,0,0,0-6.5,6.5v15a6.52,6.52,0,0,0,6.5,6.5h15a6.52,6.52,0,0,0,6.5-6.5v-15A6.52,6.52,0,0,0,412.5,91Z" style="fill: #32a842"/>
      <path d="M382.5,121h-15a6.52,6.52,0,0,0-6.5,6.5v15a6.52,6.52,0,0,0,6.5,6.5h15a6.52,6.52,0,0,0,6.5-6.5v-15A6.52,6.52,0,0,0,382.5,121Z" style="fill: #32a842"/>
      <path d="M412.5,151h-15a6.52,6.52,0,0,0-6.5,6.5v15a6.52,6.52,0,0,0,6.5,6.5h15a6.52,6.52,0,0,0,6.5-6.5v-15A6.52,6.52,0,0,0,412.5,151Z" style="fill: #32a842"/>
      <path d="M382.5,181h-15a6.52,6.52,0,0,0-6.5,6.5v15a6.52,6.52,0,0,0,6.5,6.5h15a6.52,6.52,0,0,0,6.5-6.5v-15A6.52,6.52,0,0,0,382.5,181Z" style="fill: #32a842"/>
      <path d="M412.5,211h-15a6.52,6.52,0,0,0-6.5,6.5v15a6.52,6.52,0,0,0,6.5,6.5h15a6.52,6.52,0,0,0,6.5-6.5v-15A6.52,6.52,0,0,0,412.5,211Z" style="fill: #32a842"/>
      <path d="M382.5,241h-15a6.52,6.52,0,0,0-6.5,6.5v15a6.52,6.52,0,0,0,6.5,6.5h15a6.52,6.52,0,0,0,6.5-6.5v-15A6.52,6.52,0,0,0,382.5,241Z" style="fill: #32a842"/>
      <path d="M412.5,271h-15a6.52,6.52,0,0,0-6.5,6.5v15a6.52,6.52,0,0,0,6.5,6.5h15a6.52,6.52,0,0,0,6.5-6.5v-15A6.52,6.52,0,0,0,412.5,271Z" style="fill: #32a842"/>
      <path d="M382.5,301h-15a6.52,6.52,0,0,0-6.5,6.5v15a6.52,6.52,0,0,0,6.5,6.5h15a6.52,6.52,0,0,0,6.5-6.5v-15A6.52,6.52,0,0,0,382.5,301Z" style="fill: #32a842"/>
      <path d="M412.5,331h-15a6.52,6.52,0,0,0-6.5,6.5v15a6.52,6.52,0,0,0,6.5,6.5h15a6.52,6.52,0,0,0,6.5-6.5v-15A6.52,6.52,0,0,0,412.5,331Z" style="fill: #32a842"/>
      <path d="M382.5,361h-15a6.52,6.52,0,0,0-6.5,6.5v15a6.52,6.52,0,0,0,6.5,6.5h15a6.52,6.52,0,0,0,6.5-6.5v-15A6.52,6.52,0,0,0,382.5,361Z" style="fill: #32a842"/>
      <path d="M412.5,391h-15a6.52,6.52,0,0,0-6.5,6.5v15a6.52,6.52,0,0,0,6.5,6.5h15a6.52,6.52,0,0,0,6.5-6.5v-15A6.52,6.52,0,0,0,412.5,391Z" style="fill: #32a842"/>
      <path d="M442.5,61h-15a6.52,6.52,0,0,0-6.5,6.5v15a6.52,6.52,0,0,0,6.5,6.5h15a6.52,6.52,0,0,0,6.5-6.5v-15A6.52,6.52,0,0,0,442.5,61Z" style="fill: #32a842"/>
      <path d="M472.5,91h-15a6.52,6.52,0,0,0-6.5,6.5v15a6.52,6.52,0,0,0,6.5,6.5h15a6.52,6.52,0,0,0,6.5-6.5v-15A6.52,6.52,0,0,0,472.5,91Z" style="fill: #32a842"/>
      <path d="M22.5,1H7.5A6.52,6.52,0,0,0,1,7.5v15A6.52,6.52,0,0,0,7.5,29h15A6.52,6.52,0,0,0,29,22.5V7.5A6.52,6.52,0,0,0,22.5,1Z" style="fill: #32a842"/>
      <path d="M52.5,31h-15A6.52,6.52,0,0,0,31,37.5v15A6.52,6.52,0,0,0,37.5,59h15A6.52,6.52,0,0,0,59,52.5v-15A6.52,6.52,0,0,0,52.5,31Z" style="fill: #32a842"/>
      <path d="M82.5,1h-15A6.52,6.52,0,0,0,61,7.5v15A6.52,6.52,0,0,0,67.5,29h15A6.52,6.52,0,0,0,89,22.5V7.5A6.52,6.52,0,0,0,82.5,1Z" style="fill: #32a842"/>
      <path d="M112.5,31h-15A6.52,6.52,0,0,0,91,37.5v15A6.52,6.52,0,0,0,97.5,59h15a6.52,6.52,0,0,0,6.5-6.5v-15A6.52,6.52,0,0,0,112.5,31Z" style="fill: #32a842"/>
      <path d="M142.5,1h-15A6.52,6.52,0,0,0,121,7.5v15a6.52,6.52,0,0,0,6.5,6.5h15a6.52,6.52,0,0,0,6.5-6.5V7.5A6.52,6.52,0,0,0,142.5,1Z" style="fill: #32a842"/>
      <path d="M172.5,31h-15a6.52,6.52,0,0,0-6.5,6.5v15a6.52,6.52,0,0,0,6.5,6.5h15a6.52,6.52,0,0,0,6.5-6.5v-15A6.52,6.52,0,0,0,172.5,31Z" style="fill: #32a842"/>
      <path d="M202.5,1h-15A6.52,6.52,0,0,0,181,7.5v15a6.52,6.52,0,0,0,6.5,6.5h15a6.52,6.52,0,0,0,6.5-6.5V7.5A6.52,6.52,0,0,0,202.5,1Z" style="fill: #32a842"/>
      <path d="M232.5,31h-15a6.52,6.52,0,0,0-6.5,6.5v15a6.52,6.52,0,0,0,6.5,6.5h15a6.52,6.52,0,0,0,6.5-6.5v-15A6.52,6.52,0,0,0,232.5,31Z" style="fill: #32a842"/>
      <path d="M262.5,1h-15A6.52,6.52,0,0,0,241,7.5v15a6.52,6.52,0,0,0,6.5,6.5h15a6.52,6.52,0,0,0,6.5-6.5V7.5A6.52,6.52,0,0,0,262.5,1Z" style="fill: #32a842"/>
      <path d="M292.5,31h-15a6.52,6.52,0,0,0-6.5,6.5v15a6.52,6.52,0,0,0,6.5,6.5h15a6.52,6.52,0,0,0,6.5-6.5v-15A6.52,6.52,0,0,0,292.5,31Z" style="fill: #32a842"/>
      <path d="M322.5,1h-15A6.52,6.52,0,0,0,301,7.5v15a6.52,6.52,0,0,0,6.5,6.5h15a6.52,6.52,0,0,0,6.5-6.5V7.5A6.52,6.52,0,0,0,322.5,1Z" style="fill: #32a842"/>
      <path d="M352.5,31h-15a6.52,6.52,0,0,0-6.5,6.5v15a6.52,6.52,0,0,0,6.5,6.5h15a6.52,6.52,0,0,0,6.5-6.5v-15A6.52,6.52,0,0,0,352.5,31Z" style="fill: #32a842"/>
      <path d="M382.5,1h-15A6.52,6.52,0,0,0,361,7.5v15a6.52,6.52,0,0,0,6.5,6.5h15a6.52,6.52,0,0,0,6.5-6.5V7.5A6.52,6.52,0,0,0,382.5,1Z" style="fill: #32a842"/>
      <path d="M412.5,31h-15a6.52,6.52,0,0,0-6.5,6.5v15a6.52,6.52,0,0,0,6.5,6.5h15a6.52,6.52,0,0,0,6.5-6.5v-15A6.52,6.52,0,0,0,412.5,31Z" style="fill: #32a842"/>
      <path d="M442.5,1h-15A6.52,6.52,0,0,0,421,7.5v15a6.52,6.52,0,0,0,6.5,6.5h15a6.52,6.52,0,0,0,6.5-6.5V7.5A6.52,6.52,0,0,0,442.5,1Z" style="fill: #32a842"/>
      <path d="M472.5,31h-15a6.52,6.52,0,0,0-6.5,6.5v15a6.52,6.52,0,0,0,6.5,6.5h15a6.52,6.52,0,0,0,6.5-6.5v-15A6.52,6.52,0,0,0,472.5,31Z" style="fill: #32a842"/>
      <path d="M442.5,121h-15a6.52,6.52,0,0,0-6.5,6.5v15a6.52,6.52,0,0,0,6.5,6.5h15a6.52,6.52,0,0,0,6.5-6.5v-15A6.52,6.52,0,0,0,442.5,121Z" style="fill: #32a842"/>
      <path d="M472.5,151h-15a6.52,6.52,0,0,0-6.5,6.5v15a6.52,6.52,0,0,0,6.5,6.5h15a6.52,6.52,0,0,0,6.5-6.5v-15A6.52,6.52,0,0,0,472.5,151Z" style="fill: #32a842"/>
      <path d="M442.5,181h-15a6.52,6.52,0,0,0-6.5,6.5v15a6.52,6.52,0,0,0,6.5,6.5h15a6.52,6.52,0,0,0,6.5-6.5v-15A6.52,6.52,0,0,0,442.5,181Z" style="fill: #32a842"/>
      <path d="M472.5,211h-15a6.52,6.52,0,0,0-6.5,6.5v15a6.52,6.52,0,0,0,6.5,6.5h15a6.52,6.52,0,0,0,6.5-6.5v-15A6.52,6.52,0,0,0,472.5,211Z" style="fill: #32a842"/>
      <path d="M442.5,241h-15a6.52,6.52,0,0,0-6.5,6.5v15a6.52,6.52,0,0,0,6.5,6.5h15a6.52,6.52,0,0,0,6.5-6.5v-15A6.52,6.52,0,0,0,442.5,241Z" style="fill: #32a842"/>
      <path d="M472.5,271h-15a6.52,6.52,0,0,0-6.5,6.5v15a6.52,6.52,0,0,0,6.5,6.5h15a6.52,6.52,0,0,0,6.5-6.5v-15A6.52,6.52,0,0,0,472.5,271Z" style="fill: #32a842"/>
      <path d="M442.5,301h-15a6.52,6.52,0,0,0-6.5,6.5v15a6.52,6.52,0,0,0,6.5,6.5h15a6.52,6.52,0,0,0,6.5-6.5v-15A6.52,6.52,0,0,0,442.5,301Z" style="fill: #32a842"/>
      <path d="M472.5,331h-15a6.52,6.52,0,0,0-6.5,6.5v15a6.52,6.52,0,0,0,6.5,6.5h15a6.52,6.52,0,0,0,6.5-6.5v-15A6.52,6.52,0,0,0,472.5,331Z" style="fill: #32a842"/>
      <path d="M442.5,361h-15a6.52,6.52,0,0,0-6.5,6.5v15a6.52,6.52,0,0,0,6.5,6.5h15a6.52,6.52,0,0,0,6.5-6.5v-15A6.52,6.52,0,0,0,442.5,361Z" style="fill: #32a842"/>
      <path d="M472.5,391h-15a6.52,6.52,0,0,0-6.5,6.5v15a6.52,6.52,0,0,0,6.5,6.5h15a6.52,6.52,0,0,0,6.5-6.5v-15A6.52,6.52,0,0,0,472.5,391Z" style="fill: #32a842"/>
      <path d="M502.5,61h-15a6.52,6.52,0,0,0-6.5,6.5v15a6.52,6.52,0,0,0,6.5,6.5h15a6.52,6.52,0,0,0,6.5-6.5v-15A6.52,6.52,0,0,0,502.5,61Z" style="fill: #32a842"/>
      <path d="M532.5,91h-15a6.52,6.52,0,0,0-6.5,6.5v15a6.52,6.52,0,0,0,6.5,6.5h15a6.52,6.52,0,0,0,6.5-6.5v-15A6.52,6.52,0,0,0,532.5,91Z" style="fill: #32a842"/>
      <path d="M502.5,1h-15A6.52,6.52,0,0,0,481,7.5v15a6.52,6.52,0,0,0,6.5,6.5h15a6.52,6.52,0,0,0,6.5-6.5V7.5A6.52,6.52,0,0,0,502.5,1Z" style="fill: #32a842"/>
      <path d="M532.5,31h-15a6.52,6.52,0,0,0-6.5,6.5v15a6.52,6.52,0,0,0,6.5,6.5h15a6.52,6.52,0,0,0,6.5-6.5v-15A6.52,6.52,0,0,0,532.5,31Z" style="fill: #32a842"/>
      <path d="M502.5,121h-15a6.52,6.52,0,0,0-6.5,6.5v15a6.52,6.52,0,0,0,6.5,6.5h15a6.52,6.52,0,0,0,6.5-6.5v-15A6.52,6.52,0,0,0,502.5,121Z" style="fill: #32a842"/>
      <path d="M532.5,151h-15a6.52,6.52,0,0,0-6.5,6.5v15a6.52,6.52,0,0,0,6.5,6.5h15a6.52,6.52,0,0,0,6.5-6.5v-15A6.52,6.52,0,0,0,532.5,151Z" style="fill: #32a842"/>
      <path d="M502.5,181h-15a6.52,6.52,0,0,0-6.5,6.5v15a6.52,6.52,0,0,0,6.5,6.5h15a6.52,6.52,0,0,0,6.5-6.5v-15A6.52,6.52,0,0,0,502.5,181Z" style="fill: #32a842"/>
      <path d="M532.5,211h-15a6.52,6.52,0,0,0-6.5,6.5v15a6.52,6.52,0,0,0,6.5,6.5h15a6.52,6.52,0,0,0,6.5-6.5v-15A6.52,6.52,0,0,0,532.5,211Z" style="fill: #32a842"/>
      <path d="M502.5,241h-15a6.52,6.52,0,0,0-6.5,6.5v15a6.52,6.52,0,0,0,6.5,6.5h15a6.52,6.52,0,0,0,6.5-6.5v-15A6.52,6.52,0,0,0,502.5,241Z" style="fill: #32a842"/>
      <path d="M532.5,271h-15a6.52,6.52,0,0,0-6.5,6.5v15a6.52,6.52,0,0,0,6.5,6.5h15a6.52,6.52,0,0,0,6.5-6.5v-15A6.52,6.52,0,0,0,532.5,271Z" style="fill: #32a842"/>
      <path d="M502.5,301h-15a6.52,6.52,0,0,0-6.5,6.5v15a6.52,6.52,0,0,0,6.5,6.5h15a6.52,6.52,0,0,0,6.5-6.5v-15A6.52,6.52,0,0,0,502.5,301Z" style="fill: #32a842"/>
      <path d="M532.5,331h-15a6.52,6.52,0,0,0-6.5,6.5v15a6.52,6.52,0,0,0,6.5,6.5h15a6.52,6.52,0,0,0,6.5-6.5v-15A6.52,6.52,0,0,0,532.5,331Z" style="fill: #32a842"/>
      <path d="M502.5,361h-15a6.52,6.52,0,0,0-6.5,6.5v15a6.52,6.52,0,0,0,6.5,6.5h15a6.52,6.52,0,0,0,6.5-6.5v-15A6.52,6.52,0,0,0,502.5,361Z" style="fill: #32a842"/>
      <path d="M532.5,391h-15a6.52,6.52,0,0,0-6.5,6.5v15a6.52,6.52,0,0,0,6.5,6.5h15a6.52,6.52,0,0,0,6.5-6.5v-15A6.52,6.52,0,0,0,532.5,391Z" style="fill: #32a842"/>
    </g>
  </g>
  <rect width="540" height="420" style="fill: #cee7ed;fill-opacity: 0.7000000000000001"/>
</svg>
