<svg version="1.1" xmlns="http://www.w3.org/2000/svg" xmlns:xlink="http://www.w3.org/1999/xlink" width="273.21" height="90.2" viewBox="0,0,273.21,90.2"><g transform="translate(-105.865,-134.72298)"><g data-paper-data="{&quot;isPaintingLayer&quot;:true}" fill-rule="nonzero" stroke-linecap="butt" stroke-linejoin="miter" stroke-miterlimit="10" stroke-dasharray="" stroke-dashoffset="0" style="mix-blend-mode: normal"><path d="M333.895,169.33298l20.55,-32.61h17.09v26.94h5.54v12.65h-5.54v7.64h-19.44v-7.64h-18.2zM352.895,163.66298v-7.05l-0.13,-0.06l-4.43,7.11z" fill="none" stroke="#ffffff" stroke-width="4"/><path d="M109.085,212.57298c4.32878,1.74682 8.9182,2.76068 13.58,3c1.71,0 2.11,-0.42 2.11,-0.84c0,-0.42 -0.51,-0.71 -1.26,-0.81c-2,-0.32 -7.75,-0.71 -12,-3c-2.17,-1.2 -3.65,-2.85 -3.65,-5.31c0,-5.1 6.39,-8.58 16.83,-8.58c4.97518,-0.01171 9.92831,0.66127 14.72,2v8.34c-4.04774,-1.29166 -8.24629,-2.05136 -12.49,-2.26c-1.66,0 -2.11,0.39 -2.11,0.78c0,0.39 0.62,0.74 1.31,0.88c1.71,0.31 7.41,0.74 11.47,2.71c2.79,1.4 4.16,3.2 4.16,5.48c0,4.89 -6.39,8.3 -17.23,8.3c-5.22427,0.02834 -10.42721,-0.6683 -15.46,-2.07z" fill="none" stroke="#ffffff" stroke-width="4"/><path d="M156.785,197.44298h17v16.43h12.78v9h-29.78z" fill="none" stroke="#ffffff" stroke-width="4"/><path d="M202.425,197.44298h17v25.47h-17z" fill="none" stroke="#ffffff" stroke-width="4"/><path d="M259.025,197.06298c4.09089,-0.05493 8.17065,0.43948 12.13,1.47v9.39c-3.32525,-1.03998 -6.78602,-1.58252 -10.27,-1.61c-5.82,0 -8.95,1.72 -8.95,4.07c0,2.35 3.13,4 8.95,4c3.56783,0.00143 7.11281,-0.56914 10.5,-1.69v9c-4.09015,1.10446 -8.31373,1.6362 -12.55,1.58c-13.81,0 -23.91,-5.55 -23.91,-13.12c0,-7.57 10.07,-13.09 24.1,-13.09z" fill="none" stroke="#ffffff" stroke-width="4"/><path d="M287.495,197.44298h29.73v8.51h-12.73v1.38h10.27v6h-10.27v1.46h13.53v8.09h-30.53z" fill="none" stroke="#ffffff" stroke-width="4"/><path d="M333.655,222.91298v-25.47h17.29c8,0 14.15,1.51 18.31,4c3.65,2.14 6,5.06 6,8.75c0,3.52 -2.17,6.55 -5.88,8.73c-4.27,2.53 -10.49,4 -18.31,4zM350.655,214.61298h0.4c2.223,0.11565 4.43464,-0.3862 6.39,-1.45c1.10907,-0.60148 1.82232,-1.73965 1.88,-3c-0.05454,-1.27672 -0.76575,-2.43434 -1.88,-3.06c-1.2,-0.77 -3.14,-1.37 -6.27,-1.37h-0.52z" fill="none" stroke="#ffffff" stroke-width="4"/><path d="M333.895,169.33298l20.55,-32.61h17.09v26.94h5.54v12.65h-5.54v7.64h-19.44v-7.64h-18.2zM352.895,163.66298v-7.05l-0.13,-0.06l-4.43,7.11z" fill="#000000" stroke="none" stroke-width="1"/><path d="M109.085,212.57298c4.32878,1.74682 8.9182,2.76068 13.58,3c1.71,0 2.11,-0.42 2.11,-0.84c0,-0.42 -0.51,-0.71 -1.26,-0.81c-2,-0.32 -7.75,-0.71 -12,-3c-2.17,-1.2 -3.65,-2.85 -3.65,-5.31c0,-5.1 6.39,-8.58 16.83,-8.58c4.97518,-0.01171 9.92831,0.66127 14.72,2v8.34c-4.04774,-1.29166 -8.24629,-2.05136 -12.49,-2.26c-1.66,0 -2.11,0.39 -2.11,0.78c0,0.39 0.62,0.74 1.31,0.88c1.71,0.31 7.41,0.74 11.47,2.71c2.79,1.4 4.16,3.2 4.16,5.48c0,4.89 -6.39,8.3 -17.23,8.3c-5.22427,0.02834 -10.42721,-0.6683 -15.46,-2.07z" fill="#000000" stroke="none" stroke-width="1"/><path d="M156.785,197.44298h17v16.43h12.78v9h-29.78z" fill="#000000" stroke="none" stroke-width="1"/><path d="M202.425,197.44298h17v25.47h-17z" fill="#000000" stroke="none" stroke-width="1"/><path d="M259.025,197.06298c4.09089,-0.05493 8.17065,0.43948 12.13,1.47v9.39c-3.32525,-1.03998 -6.78602,-1.58252 -10.27,-1.61c-5.82,0 -8.95,1.72 -8.95,4.07c0,2.35 3.13,4 8.95,4c3.56783,0.00143 7.11281,-0.56914 10.5,-1.69v9c-4.09015,1.10446 -8.31373,1.6362 -12.55,1.58c-13.81,0 -23.91,-5.55 -23.91,-13.12c0,-7.57 10.07,-13.09 24.1,-13.09z" fill="#000000" stroke="none" stroke-width="1"/><path d="M287.495,197.44298h29.73v8.51h-12.73v1.38h10.27v6h-10.27v1.46h13.53v8.09h-30.53z" fill="#000000" stroke="none" stroke-width="1"/><path d="M333.655,222.91298v-25.47h17.29c8,0 14.15,1.51 18.31,4c3.65,2.14 6,5.06 6,8.75c0,3.52 -2.17,6.55 -5.88,8.73c-4.27,2.53 -10.49,4 -18.31,4zM350.655,214.61298h0.4c2.223,0.11565 4.43464,-0.3862 6.39,-1.45c1.10907,-0.60148 1.82232,-1.73965 1.88,-3c-0.05454,-1.27672 -0.76575,-2.43434 -1.88,-3.06c-1.2,-0.77 -3.14,-1.37 -6.27,-1.37h-0.52z" fill="#000000" stroke="none" stroke-width="1"/><path d="M110.39,137.09956h19.44v30.46h14.61v16.77h-34z" fill="none" stroke="#ffffff" stroke-width="4"/><path d="M149.52,137.09956h34v15.78h-14.56v2.55h11.74v11.22h-11.74v2.67h15.46v15h-34.9z" fill="none" stroke="#ffffff" stroke-width="4"/><path d="M186.77,137.09956h21l7,25h0.13l7.44,-25h19l-18.07,47.23h-18.43z" fill="none" stroke="#ffffff" stroke-width="4"/><path d="M244.56,137.09956h34v15.78h-14.56v2.55h11.74v11.22h-11.74v2.67h15.46v15h-34.9z" fill="none" stroke="#ffffff" stroke-width="4"/><path d="M284.29,137.09956h19.44v30.46h14.61v16.77h-34.05z" fill="none" stroke="#ffffff" stroke-width="4"/><path d="M110.39,137.09956h19.44v30.46h14.61v16.77h-34z" fill="#000000" stroke="none" stroke-width="1"/><path d="M149.52,137.09956h34v15.78h-14.56v2.55h11.74v11.22h-11.74v2.67h15.46v15h-34.9z" fill="#000000" stroke="none" stroke-width="1"/><path d="M186.77,137.09956h21l7,25h0.13l7.44,-25h19l-18.07,47.23h-18.43z" fill="#000000" stroke="none" stroke-width="1"/><path d="M244.56,137.09956h34v15.78h-14.56v2.55h11.74v11.22h-11.74v2.67h15.46v15h-34.9z" fill="#000000" stroke="none" stroke-width="1"/><path d="M284.29,137.09956h19.44v30.46h14.61v16.77h-34.05z" fill="#000000" stroke="none" stroke-width="1"/></g></g></svg>