<svg version="1.1" xmlns="http://www.w3.org/2000/svg" xmlns:xlink="http://www.w3.org/1999/xlink" width="37" height="34" viewBox="0,0,37,34"><g transform="translate(-205,-148)"><g data-paper-data="{&quot;isPaintingLayer&quot;:true}" fill-rule="nonzero" stroke-linecap="butt" stroke-miterlimit="10" stroke-dasharray="" stroke-dashoffset="0" style="mix-blend-mode: normal"><g><path d="M240,171l-9,-2l7,-12z" fill="none" stroke="#000000" stroke-width="4" stroke-linejoin="round"/><path d="M240,171l-9,-2l7,-12z" fill="#b3b3b3" stroke="none" stroke-width="1" stroke-linejoin="miter"/></g><g stroke="none" stroke-width="1" stroke-linejoin="miter"><path d="M242,182h-37v-34h9c4.41828,0 8,3.58172 8,8v9h12c4.41828,0 8,3.58172 8,8zM209,178h29v-5c0,-2.20914 -1.79086,-4 -4,-4h-16v-13c0,-2.20914 -1.79086,-4 -4,-4h-5z" fill="#000000"/><path d="M240,173v7h-33v-30h7c3.31371,0 6,2.68629 6,6v11h14c3.31371,0 6,2.68629 6,6z" fill="#00a99d"/></g><path d="M232,177v-5h5v5z" fill="#ffffff" stroke="#ffffff" stroke-width="2" stroke-linejoin="round"/><path d="M234,177v-3h3v3z" fill="#000000" stroke="none" stroke-width="1" stroke-linejoin="miter"/><path d="M222,180v-13h5v13z" fill="#008279" stroke="none" stroke-width="1" stroke-linejoin="miter"/><path d="M217,180h-5l4,-13h5z" fill="#008279" stroke="none" stroke-width="1" stroke-linejoin="miter"/><path d="M207,161h13v5h-13z" fill="#008279" stroke="none" stroke-width="1" stroke-linejoin="miter"/></g></g></svg>