<svg version="1.1" xmlns="http://www.w3.org/2000/svg" xmlns:xlink="http://www.w3.org/1999/xlink" width="19" height="21" viewBox="0,0,19,21"><g transform="translate(-231.5,-169)"><g data-paper-data="{&quot;isPaintingLayer&quot;:true}" fill-rule="nonzero" stroke="none" stroke-linecap="butt" stroke-linejoin="miter" stroke-miterlimit="10" stroke-dasharray="" stroke-dashoffset="0" style="mix-blend-mode: normal"><path d="M240.90001,183c-0.81447,0.06746 -1.61736,-0.22687 -2.19525,-0.80475c-0.57789,-0.57789 -0.87222,-1.38078 -0.80475,-2.19525c-0.04379,-0.80828 0.25819,-1.59705 0.83057,-2.16943c0.57238,-0.57238 1.36115,-0.87436 2.16943,-0.83057c0.81447,-0.06746 1.61736,0.22687 2.19525,0.80475c0.57789,0.57789 0.87222,1.38078 0.80475,2.19525c0.03744,0.80655 -0.26659,1.59156 -0.83752,2.16248c-0.57093,0.57093 -1.35594,0.87496 -2.16248,0.83752zM240.90001,178.46c-0.75,0 -1.15,0.61 -1.15,1.57c0,0.96 0.41,1.55 1.16,1.55c0.75,0 1.16,-0.6 1.16,-1.56c0,-0.96 -0.4,-1.56 -1.17,-1.56z" fill="#000000" stroke-width="1"/><path d="M231.5,190v-21h19v21z" fill="none" stroke-width="0"/></g></g></svg>