<svg xmlns="http://www.w3.org/2000/svg" width="80" height="80" viewBox="0 0 80 80">
  <g>
    <polygon points="9 9 9 26 24 26 24 41 41 41 41 26 54 26 54 41 71 41 71 9 9 9" style="fill: none;stroke: #000;stroke-linejoin: round;stroke-width: 4px"/>
    <polygon points="9 9 9 26 24 26 24 41 41 41 41 26 54 26 54 41 71 41 71 9 9 9" style="fill: #ce7ca7"/>
  </g>
  <rect x="12" y="12" width="11" height="11" style="fill: #a3457d"/>
  <rect x="42" y="12" width="11" height="11" style="fill: #a3457d"/>
  <rect x="27" y="12" width="11" height="11" style="fill: #bc6296"/>
  <rect x="57" y="12" width="11" height="11" style="fill: #bc6296"/>
  <rect x="27" y="27" width="11" height="11" style="fill: #a3457d"/>
  <rect x="57" y="27" width="11" height="11" style="fill: #a3457d"/>
</svg>
