<svg version="1.1" xmlns="http://www.w3.org/2000/svg" xmlns:xlink="http://www.w3.org/1999/xlink" width="53" height="27" viewBox="0,0,53,27"><g transform="translate(-189,-178)"><g data-paper-data="{&quot;isPaintingLayer&quot;:true}" fill-rule="nonzero" stroke-linecap="butt" stroke-miterlimit="10" stroke-dasharray="" stroke-dashoffset="0" style="mix-blend-mode: normal"><g data-paper-data="{&quot;index&quot;:null}"><path d="M238,203l-7,-12l9,-2z" fill="none" stroke="#000000" stroke-width="4" stroke-linejoin="round"/><path d="M238,203l-7,-12l9,-2z" fill="#b3b3b3" stroke="none" stroke-width="1" stroke-linejoin="miter"/></g><g data-paper-data="{&quot;index&quot;:null}" stroke="none" stroke-width="1" stroke-linejoin="miter"><path d="M242,187c0,4.41828 -3.58172,8 -8,8h-37c-4.41828,0 -8,-3.58172 -8,-8v-9h53zM193,187c0,2.20914 1.79086,4 4,4h37c2.20914,0 4,-1.79086 4,-4v-5h-45z" fill="#000000"/><path d="M240,187c0,3.31371 -2.68629,6 -6,6h-37c-3.31371,0 -6,-2.68629 -6,-6v-7h49z" fill="#00a99d"/></g><path d="M237,183v5h-5v-5z" data-paper-data="{&quot;index&quot;:null}" fill="#ffffff" stroke="#ffffff" stroke-width="2" stroke-linejoin="round"/><path d="M237,183v3h-3v-3z" data-paper-data="{&quot;index&quot;:null}" fill="#000000" stroke="none" stroke-width="1" stroke-linejoin="miter"/><path d="M227,180v13h-5v-13z" data-paper-data="{&quot;index&quot;:null}" fill="#008279" stroke="none" stroke-width="1" stroke-linejoin="miter"/><path d="M217,180v13h-5v-13z" data-paper-data="{&quot;index&quot;:null}" fill="#008279" stroke="none" stroke-width="1" stroke-linejoin="miter"/><path d="M207,180v13h-5v-13z" data-paper-data="{&quot;index&quot;:null}" fill="#008279" stroke="none" stroke-width="1" stroke-linejoin="miter"/></g></g></svg>