<svg version="1.1" xmlns="http://www.w3.org/2000/svg" xmlns:xlink="http://www.w3.org/1999/xlink" width="35" height="52.0141" viewBox="0,0,35,52.0141"><g transform="translate(-233,-156.98591)"><g data-paper-data="{&quot;isPaintingLayer&quot;:true}" fill-rule="nonzero" stroke-linecap="butt" stroke-miterlimit="10" stroke-dasharray="" stroke-dashoffset="0" style="mix-blend-mode: normal"><g><path d="M245,202.00002v5h-10v-5h3v-35.55c-1.56787,-0.90521 -2.33228,-2.75064 -1.8637,-4.49938c0.46857,-1.74873 2.05328,-2.96472 3.8637,-2.96472c1.81042,0 3.39513,1.21599 3.8637,2.96472c0.46857,1.74873 -0.29583,3.59417 -1.8637,4.49938v35.55z" fill="none" stroke="#000000" stroke-width="4" stroke-linejoin="round"/><path d="M245,202.00002v5h-10v-5h3v-35.55c-1.56787,-0.90521 -2.33228,-2.75064 -1.8637,-4.49938c0.46857,-1.74873 2.05328,-2.96472 3.8637,-2.96472c1.81042,0 3.39513,1.21599 3.8637,2.96472c0.46857,1.74873 -0.29583,3.59417 -1.8637,4.49938v35.55z" fill="#3ac54d" stroke="none" stroke-width="1" stroke-linejoin="miter"/></g><g><g><path d="M266,184.85384c-9.6,-2.73 -14.4,4.23 -24,1.5v-18c9.6,2.72 14.4,-4.22 24,-1.5c-2.21838,2.70795 -4.22434,5.58317 -6,8.6c2.21142,2.99325 4.21608,6.13387 6,9.4z" fill="none" stroke="#000000" stroke-width="4" stroke-linejoin="round"/><path d="M266,184.85384c-9.6,-2.73 -14.4,4.23 -24,1.5v-18c9.6,2.72 14.4,-4.22 24,-1.5c-2.21838,2.70795 -4.22434,5.58317 -6,8.6c2.21142,2.99325 4.21608,6.13387 6,9.4z" fill="#ffff00" stroke="none" stroke-width="1" stroke-linejoin="miter"/></g><path d="M266,184.85384c-9.6,-2.73 -14.4,4.23 -24,1.5v-18c9.6,2.72 14.4,-4.22 24,-1.5c-2.21838,2.70795 -4.22434,5.58317 -6,8.6c2.21142,2.99325 4.21608,6.13387 6,9.4z" fill="#ffff00" stroke="none" stroke-width="1" stroke-linejoin="miter"/><path d="M264,172.45384c-0.66275,-0.08978 -1.33127,-0.12989 -2,-0.12v-6c2.07831,-0.13064 4.15287,0.30847 6,1.27c-1.46632,1.50223 -2.80432,3.12456 -4,4.85z" fill="#000000" stroke="none" stroke-width="1" stroke-linejoin="miter"/><path d="M250,180.47383c-1.96712,0.45171 -3.99936,0.54655 -6,0.28v-6c2.00064,0.26655 4.03288,0.17171 6,-0.28z" fill="#000000" stroke="none" stroke-width="1" stroke-linejoin="miter"/><path d="M268,185.60384c-1.84713,-0.96153 -3.92169,-1.40064 -6,-1.27v-6c0.66873,-0.00989 1.33725,0.03022 2,0.12c1.6,2.6 2.4,4 4,7.15z" fill="#000000" stroke="none" stroke-width="1" stroke-linejoin="miter"/><path d="M256,185.14384c-2.4,0.53 -3.6,0.9 -6,1.33v-6c2.4,-0.43 3.6,-0.8 6,-1.33z" fill="#000000" stroke="none" stroke-width="1" stroke-linejoin="miter"/><path d="M256,173.14384c-2.4,0.53 -3.6,0.9 -6,1.33v-6c2.4,-0.43 3.6,-0.8 6,-1.33z" fill="#000000" stroke="none" stroke-width="1" stroke-linejoin="miter"/><path d="M244,186.75383c-0.6777,-0.07053 -1.3473,-0.20445 -2,-0.4v-6c0.6527,0.19555 1.3223,0.32947 2,0.4z" fill="#000000" stroke="none" stroke-width="1" stroke-linejoin="miter"/><path d="M244,174.75383c-0.6777,-0.07053 -1.3473,-0.20445 -2,-0.4v-6c0.6527,0.19555 1.3223,0.32947 2,0.4z" fill="#000000" stroke="none" stroke-width="1" stroke-linejoin="miter"/><path d="M262,178.33384c-2.02632,0.01358 -4.04262,0.28578 -6,0.81v-6c1.95738,-0.52422 3.97368,-0.79642 6,-0.81z" fill="#000000" stroke="none" stroke-width="1" stroke-linejoin="miter"/></g><path d="M245,202.00002v5h-10v-5h3v-35.55c-1.56787,-0.90521 -2.33228,-2.75064 -1.8637,-4.49938c0.46857,-1.74873 2.05328,-2.96472 3.8637,-2.96472c1.81042,0 3.39513,1.21599 3.8637,2.96472c0.46857,1.74873 -0.29583,3.59417 -1.8637,4.49938v35.55z" fill="#3ac54d" stroke="none" stroke-width="1" stroke-linejoin="miter"/></g></g></svg>