<svg xmlns="http://www.w3.org/2000/svg" width="80" height="80" viewBox="0 0 80 80">
  <g>
    <polygon points="56 9 39 9 39 26 41 26 45 26 51 26 54 26 56 26 56 9" style="fill: none;stroke: #000;stroke-linejoin: round;stroke-width: 4px"/>
    <polygon points="56 9 39 9 39 26 41 26 45 26 51 26 54 26 56 26 56 9" style="fill: #ce7ca7"/>
  </g>
  <g>
    <polygon points="26 9 9 9 9 26 10 26 24 26 26 26 26 9" style="fill: none;stroke: #000;stroke-linejoin: round;stroke-width: 4px"/>
    <polygon points="26 9 9 9 9 26 10 26 24 26 26 26 26 9" style="fill: #ce7ca7"/>
  </g>
  <rect x="12" y="12" width="11" height="11" style="fill: #a3457d"/>
  <rect x="42" y="12" width="11" height="11" style="fill: #a3457d"/>
</svg>
