<svg version="1.1" xmlns="http://www.w3.org/2000/svg" xmlns:xlink="http://www.w3.org/1999/xlink" width="19" height="21" viewBox="0,0,19,21"><g transform="translate(-231.5,-169)"><g data-paper-data="{&quot;isPaintingLayer&quot;:true}" fill-rule="nonzero" stroke="none" stroke-linecap="butt" stroke-linejoin="miter" stroke-miterlimit="10" stroke-dasharray="" stroke-dashoffset="0" style="mix-blend-mode: normal"><path d="M241.35,182.14c-0.36694,0.52912 -0.96618,0.84922 -1.61,0.86c-0.43214,0.02447 -0.85593,-0.12609 -1.17577,-0.41771c-0.31984,-0.29162 -0.50879,-0.69974 -0.52423,-1.13229c0,-1.06 0.79,-1.91 3.29,-2v-0.11c0,-0.59 -0.3,-0.85 -1,-0.85c-0.66359,0.04502 -1.309,0.23625 -1.89,0.56l-0.39,-1.35c0.79199,-0.42125 1.67304,-0.64751 2.57,-0.66c1.93,0 2.57,0.87 2.54,2.43v1.66c0,0.38 0.07,0.42 0.45,0.45l-0.18,1.32c-1.21,0.16 -1.81,-0.16 -2.06,-0.78zM241.35,180.33c-1.14,0.13 -1.56,0.35 -1.56,0.84c0.0042,0.17578 0.08283,0.34152 0.21633,0.45595c0.1335,0.11443 0.30931,0.16679 0.48367,0.14405c0.32694,0.00814 0.6411,-0.12702 0.86,-0.37z" fill="#000000" stroke-width="1"/><path d="M231.5,190v-21h19v21z" fill="none" stroke-width="0"/></g></g></svg>