<svg version="1.1" xmlns="http://www.w3.org/2000/svg" xmlns:xlink="http://www.w3.org/1999/xlink" width="135" height="30" viewBox="0,0,135,30"><g transform="translate(-172.5,-165)"><g data-paper-data="{&quot;isPaintingLayer&quot;:true}" fill-rule="nonzero" stroke="none" stroke-linecap="butt" stroke-linejoin="miter" stroke-miterlimit="10" stroke-dasharray="" stroke-dashoffset="0" style="mix-blend-mode: normal"><path d="M301.66,171.5v9.78c0,4.85 -3.05,7.63 -8.37,7.63c-4.07,0 -6.82,-1.64 -7.88,-4.58v4.29h-8.26l-1.17,-2.31v2.19h-28v-0.24h-6.62v0.24h-7.54l0.6,-17h9.74l0.51,2.46l0.5,-2.46h31.24l1.17,2.31v-2.31h15.47v9.58c-0.01383,0.18946 0.00996,0.37978 0.07,0.56h0.15c0.0565,0.00611 0.1135,0.00611 0.17,0c0.04645,-0.17948 0.06666,-0.36473 0.06,-0.55v-9.59z" fill="#000000" stroke-width="1"/><path d="M207.79,171.5h23.15v7.25h-3.91v9.75h-8.1v-9.75h-3v9.75h-8.09v-4.75c-1.24,3.06 -4.13,4.75 -8.34,4.75h-21v-17.03h21.29c4,0 6.79,1.58 8,4.58z" fill="#000000" stroke-width="1"/><path d="M301.66,173.5v9.78c0,4.85 -3.05,7.63 -8.37,7.63c-4.07,0 -6.82,-1.64 -7.88,-4.58v4.29h-8.26l-1.17,-2.31v2.19h-28v-0.24h-6.62v0.24h-7.54l0.6,-17h9.74l0.51,2.46l0.5,-2.46h31.24l1.17,2.31v-2.31h15.47v9.58c-0.01383,0.18946 0.00996,0.37978 0.07,0.56h0.15c0.0565,0.00611 0.1135,0.00611 0.17,0c0.04645,-0.17948 0.06666,-0.36473 0.06,-0.55v-9.59z" fill="#000000" stroke-width="1" opacity="0.2"/><path d="M207.79,173.5h23.15v7.25h-3.91v9.75h-8.1v-9.75h-3v9.75h-8.09v-4.75c-1.24,3.06 -4.13,4.75 -8.34,4.75h-21v-17.03h21.29c4,0 6.79,1.58 8,4.58z" fill="#000000" stroke-width="1" opacity="0.2"/><path d="M179.5,187.5v-15h11.84v4.37h-5.84v1.2h4.7v3.87h-4.7v1.2h5.83v4.36z" fill="#ffff00" stroke-width="1"/><path d="M192.71,187.5v-15h7c5.31,0 7.79,2.9 7.79,7.36c0,4.46 -2.6,7.64 -8,7.64zM199.38,182.22c1.13,0 1.8,-0.67 1.8,-2.21c0,-1.54 -0.57,-2.23 -1.92,-2.23h-0.46v4.44z" fill="#ffff00" stroke-width="1"/><path d="M208.79,187.5v-15h6.09v15z" fill="#ffff00" stroke-width="1"/><path d="M219.92,187.5v-9.75h-3.91v-5.25h13.92v5.28h-3.91v9.72z" fill="#ffff00" stroke-width="1"/><path d="M248.99,187.5l0.1,-7.53h-0.24c-0.01152,0.5499 -0.08533,1.09672 -0.22,1.63l-1.37,5.66h-5.18l-1.37,-5.66c-0.13357,-0.54342 -0.20403,-1.10043 -0.21,-1.66h-0.24l0.1,7.53h-5.5l0.53,-15h8l1,5c0.10863,0.51302 0.16558,1.03563 0.17,1.56h0.24c0.00311,-0.51401 0.0567,-1.02647 0.16,-1.53l1,-5h8l0.54,15z" fill="#ffff00" stroke-width="1"/><path d="M255.9,187.5v-15h11.88v4.37h-5.83v1.2h4.7v3.87h-4.7v1.2h5.83v4.36z" fill="#ffff00" stroke-width="1"/><path d="M277.72,187.62l-2.22,-4.39c-0.1993,-0.36887 -0.30571,-0.78075 -0.31,-1.2h-0.24v5.47h-5.78v-15h6.65l2.23,4.39c0.1993,0.36887 0.30571,0.78075 0.31,1.2h0.24v-5.59h5.78v15.12z" fill="#ffff00" stroke-width="1"/><path d="M294.5,172.5h6.14v8.81c0,4.78 -3.17,6.63 -7.37,6.63c-4.2,0 -7.36,-1.85 -7.36,-6.63v-8.81h6.14v8.59c0,1.06 0.36,1.57 1.22,1.57c0.86,0 1.23,-0.51 1.23,-1.57z" fill="#ffff00" stroke-width="1"/><path d="M172.5,195v-30h135v30z" fill="none" stroke-width="0"/></g></g></svg>