<svg version="1.1" xmlns="http://www.w3.org/2000/svg" xmlns:xlink="http://www.w3.org/1999/xlink" width="19" height="21" viewBox="0,0,19,21"><g transform="translate(-231.5,-169)"><g data-paper-data="{&quot;isPaintingLayer&quot;:true}" fill-rule="nonzero" stroke="none" stroke-linecap="butt" stroke-linejoin="miter" stroke-miterlimit="10" stroke-dasharray="" stroke-dashoffset="0" style="mix-blend-mode: normal"><path d="M243.71591,180.72c0,1.28 -0.93,2.28 -2.86,2.28c-1.65,0 -2.8,-0.77 -2.8,-2.09c0.03889,-0.85178 0.67635,-1.55634 1.52,-1.68c-0.79324,-0.24785 -1.35056,-0.96041 -1.4,-1.79c0,-1.32 0.91,-2.25 2.78,-2.25c1.62,0 2.65,0.79 2.65,2.08c-0.03355,0.79554 -0.59418,1.47076 -1.37,1.65c0.82803,0.22094 1.42327,0.94488 1.48,1.8zM239.77591,180.72c0,0.56 0.45,1 1.17,1c0.72,0 1.08,-0.32 1.08,-0.9c0,-0.58 -0.58,-0.87 -1.43,-1.14c-0.44592,0.17546 -0.75784,0.58365 -0.81,1.06zM241.91591,177.45c0.0249,-0.27209 -0.07244,-0.54117 -0.26563,-0.73437c-0.1932,-0.1932 -0.46228,-0.29053 -0.73437,-0.26563c-0.25479,-0.02533 -0.50846,0.05785 -0.69877,0.22914c-0.19032,0.17128 -0.29967,0.41482 -0.30123,0.67086c0,0.51 0.45,0.83 1.28,1.11c0.39882,-0.18074 0.67522,-0.55557 0.73,-0.99z" fill="#000000" stroke-width="1"/><path d="M231.5,190v-21h19v21z" fill="none" stroke-width="0"/></g></g></svg>