<svg version="1.1" xmlns="http://www.w3.org/2000/svg" xmlns:xlink="http://www.w3.org/1999/xlink" width="49.1366" height="58.0252" viewBox="0,0,49.1366,58.0252"><g transform="translate(-212.8634,-121.97481)"><g data-paper-data="{&quot;isPaintingLayer&quot;:true}" fill-rule="nonzero" stroke-linecap="butt" stroke-miterlimit="10" stroke-dasharray="" stroke-dashoffset="0" style="mix-blend-mode: normal"><path d="M225,165v-14h18v14z" fill="#000000" stroke="none" stroke-width="1" stroke-linejoin="miter"/><path d="M261,165v14h-42v-14h32v-3c0,-1.10457 0.89543,-2 2,-2h3c1.10457,0 2,0.89543 2,2v3z" fill="#7a1cbe" stroke="#000000" stroke-width="2" stroke-linejoin="miter"/><g><g stroke="none" stroke-width="1" stroke-linejoin="miter"><path d="M260.1865,148.81025l-40.69628,10.38329l-5.43886,-21.3171c-0.81922,-3.21084 1.11958,-6.47786 4.33043,-7.29709l29.06877,-7.41663c3.21084,-0.81922 6.47786,1.11958 7.29709,4.33043z" fill="#9500ff"/><path d="M261.40267,149.53198l-42.63421,10.87774l-5.68609,-22.28606c-0.95575,-3.74599 1.30618,-7.5575 5.05217,-8.51326l29.06877,-7.41663c3.74599,-0.95575 7.5575,1.30618 8.51326,5.05217zM220.21195,157.97736l38.75837,-9.88885l-5.19165,-20.34814c-0.68268,-2.67571 -3.40521,-4.29137 -6.0809,-3.6087l-29.06877,7.41663c-2.67571,0.68268 -4.29137,3.4052 -3.6087,6.0809z" fill="#000000"/></g><path d="M250.45705,143.03635l-9.68959,2.47221l-2.47221,-9.68959l10.18403,-0.53429z" fill="#ffffff" stroke="#ffffff" stroke-width="2" stroke-linejoin="round"/><path d="M244.39609,143.55072l-1.48332,-5.81376l5.81376,-1.48332l1.48332,5.81376z" fill="#000000" stroke="none" stroke-width="1" stroke-linejoin="miter"/></g></g></g></svg>