<svg version="1.1" xmlns="http://www.w3.org/2000/svg" xmlns:xlink="http://www.w3.org/1999/xlink" width="19" height="21" viewBox="0,0,19,21"><g transform="translate(-231.5,-169)"><g data-paper-data="{&quot;isPaintingLayer&quot;:true}" fill-rule="nonzero" stroke="none" stroke-linecap="butt" stroke-linejoin="miter" stroke-miterlimit="10" stroke-dasharray="" stroke-dashoffset="0" style="mix-blend-mode: normal"><path d="M242.98591,174.78l0.44,1.5c-1.63,0.29 -3,1 -3.31,2.22c0.50169,-0.48195 1.17447,-0.74459 1.87,-0.73c0.62738,-0.02878 1.23646,0.21566 1.66988,0.67018c0.43342,0.45452 0.64866,1.07452 0.59012,1.69982c0.02626,0.7886 -0.28748,1.55049 -0.86144,2.09192c-0.57396,0.54143 -1.35283,0.81025 -2.13856,0.73808c-1.93,0 -3,-1.46 -3,-3.46c0.03,-2.27 1.78,-4.31 4.74,-4.73zM241.34591,181.6c0.66,0 1.08,-0.49 1.08,-1.27c0.05102,-0.30615 -0.043,-0.61865 -0.2545,-0.84581c-0.2115,-0.22716 -0.51648,-0.34324 -0.8255,-0.31419c-0.40076,0.00145 -0.78763,0.14697 -1.09,0.41c-0.04191,0.18366 -0.06205,0.37163 -0.06,0.56c-0.03,0.77 0.42,1.46 1.15,1.46z" fill="#000000" stroke-width="1"/><path d="M231.5,190v-21h19v21z" fill="none" stroke-width="0"/></g></g></svg>