<svg version="1.1" xmlns="http://www.w3.org/2000/svg" xmlns:xlink="http://www.w3.org/1999/xlink" width="19" height="21" viewBox="0,0,19,21"><g transform="translate(-231.5,-169)"><g data-paper-data="{&quot;isPaintingLayer&quot;:true}" fill-rule="nonzero" stroke="none" stroke-linecap="butt" stroke-linejoin="miter" stroke-miterlimit="10" stroke-dasharray="" stroke-dashoffset="0" style="mix-blend-mode: normal"><path d="M240.93091,183c-0.81003,0.05031 -1.60267,-0.24956 -2.17656,-0.82344c-0.57388,-0.57388 -0.87376,-1.36653 -0.82344,-2.17656c-0.05511,-0.81665 0.24108,-1.61798 0.8141,-2.20245c0.57301,-0.58447 1.36832,-0.89648 2.1859,-0.85755c0.81003,-0.05031 1.60267,0.24956 2.17656,0.82344c0.57388,0.57388 0.87376,1.36653 0.82344,2.17656c0.05187,0.81581 -0.24539,1.61523 -0.81767,2.19895c-0.57228,0.58372 -1.36566,0.89675 -2.18233,0.86105zM240.93091,178.29c-0.75,0 -1.24,0.63 -1.24,1.66c0,1.03 0.5,1.65 1.25,1.65c0.75,0 1.25,-0.6 1.25,-1.6c0,-1 -0.5,-1.71 -1.24,-1.71z" fill="#000000" stroke-width="1"/><path d="M231.5,190v-21h19v21z" fill="none" stroke-width="0"/></g></g></svg>