<svg version="1.1" xmlns="http://www.w3.org/2000/svg" xmlns:xlink="http://www.w3.org/1999/xlink" width="176.12" height="124.00706" viewBox="0,0,176.12,124.00706"><g transform="translate(-218.88,-122.01294)"><g data-paper-data="{&quot;isPaintingLayer&quot;:true}" fill-rule="nonzero" stroke-linecap="butt" stroke-linejoin="miter" stroke-miterlimit="10" stroke-dasharray="" stroke-dashoffset="0" style="mix-blend-mode: normal"><path d="M221.58,189.32h6.08v1.78h-3.95v1.75h3.14v1.77h-3.14v3.2h-2.13z" fill="#6f6f6f" stroke="none" stroke-width="1"/><path d="M231.89,197.05c-0.40737,0.6101 -1.08659,0.9833 -1.82,1c-0.48983,0.02721 -0.97024,-0.14231 -1.33452,-0.47091c-0.36427,-0.3286 -0.58224,-0.78906 -0.60548,-1.27909c0,-1.2 0.9,-2.17 3.74,-2.25v-0.12c0,-0.67 -0.34,-1 -1.11,-1c-0.75441,0.05594 -1.48781,0.27426 -2.15,0.64l-0.44,-1.53c0.89559,-0.48033 1.89381,-0.7376 2.91,-0.75c2.19,0 2.91,1 2.89,2.76v1.88c0,0.43 0.09,0.47 0.52,0.51l-0.2,1.5c-1.38,0.17 -2.06,-0.19 -2.34,-0.89zM231.89,195c-1.29,0.15 -1.76,0.4 -1.76,0.95c0.00433,0.19688 0.09139,0.38284 0.23984,0.51225c0.14844,0.12941 0.34453,0.19031 0.54016,0.16775c0.37987,0.01944 0.74793,-0.13514 1,-0.42z" fill="#6f6f6f" stroke="none" stroke-width="1"/><path d="M237.68,198c-0.92321,0.00821 -1.83732,-0.1828 -2.68,-0.56l0.41,-1.51c0.71346,0.37537 1.50405,0.58071 2.31,0.6c0.56,0 0.86,-0.19 0.86,-0.52c0,-0.33 -0.36,-0.49 -1.08,-0.65c-1.46,-0.28 -2.4,-0.83 -2.4,-2.06c0,-1.23 1,-2 2.78,-2c0.88364,0.01104 1.75664,0.19447 2.57,0.54l-0.42,1.5c-0.67628,-0.33762 -1.4151,-0.53169 -2.17,-0.57c-0.51,0 -0.78,0.16 -0.78,0.47c0,0.31 0.4,0.48 1.09,0.63c1.5,0.33 2.38,0.81 2.38,2.08c0,1.27 -1.01,2.05 -2.87,2.05z" fill="#6f6f6f" stroke="none" stroke-width="1"/><path d="M244.22,198c-1.56,0 -2.4,-0.64 -2.32,-2.3l0.09,-2.4l-0.95,-0.17v-1.33l0.95,-0.31v-1.44h2v1.51h1.58v1.64h-1.69l-0.07,2.27c-0.03426,0.22893 0.04209,0.46055 0.20577,0.62423c0.16368,0.16368 0.3953,0.24003 0.62423,0.20577c0.28312,-0.01148 0.5629,-0.06542 0.83,-0.16l0.25,1.63c-0.48444,0.15656 -0.99091,0.23421 -1.5,0.23z" fill="#6f6f6f" stroke="none" stroke-width="1"/><path d="M248.45,195.15c0.07,0.84 0.65,1.33 1.67,1.33c0.73106,-0.0214 1.44416,-0.23154 2.07,-0.61l0.2,1.62c-0.76987,0.35789 -1.61115,0.53572 -2.46,0.52c-2.14,0 -3.53,-1.2 -3.53,-3.31c-0.05014,-0.92238 0.29582,-1.8223 0.95091,-2.47357c0.65509,-0.65127 1.55702,-0.99196 2.47909,-0.93643c0.73536,-0.08152 1.46906,0.16686 2.00367,0.67831c0.53461,0.51145 0.81523,1.23344 0.76633,1.97169c-0.00337,0.37748 -0.05035,0.75331 -0.14,1.12l-4,0.06zM250.65,194.06v-0.12c0,-0.75 -0.31,-1.21 -1,-1.21c-0.70141,0.05306 -1.23799,0.64682 -1.22,1.35z" fill="#6f6f6f" stroke="none" stroke-width="1"/><path d="M256,198c-0.92321,0.00821 -1.83732,-0.1828 -2.68,-0.56l0.41,-1.51c0.71346,0.37537 1.50405,0.58071 2.31,0.6c0.56,0 0.86,-0.19 0.86,-0.52c0,-0.33 -0.36,-0.49 -1.08,-0.65c-1.46,-0.28 -2.4,-0.83 -2.4,-2.06c0,-1.23 1,-2 2.79,-2c0.8803,0.01208 1.74982,0.1955 2.56,0.54l-0.42,1.5c-0.67628,-0.33762 -1.4151,-0.53169 -2.17,-0.57c-0.51,0 -0.78,0.16 -0.78,0.47c0,0.31 0.4,0.48 1.09,0.63c1.5,0.33 2.38,0.81 2.38,2.08c0,1.27 -0.97,2.05 -2.87,2.05z" fill="#6f6f6f" stroke="none" stroke-width="1"/><path d="M262.58,198c-1.56,0 -2.4,-0.64 -2.32,-2.3l0.09,-2.4l-1,-0.17v-1.33l0.95,-0.31v-1.44h2v1.51h1.7v1.64h-1.69l-0.07,2.27c-0.03426,0.22893 0.04209,0.46055 0.20577,0.62423c0.16368,0.16368 0.3953,0.24003 0.62423,0.20577c0.28312,-0.01148 0.5629,-0.06542 0.83,-0.16l0.25,1.63c-0.50674,0.16415 -1.03747,0.2419 -1.57,0.23z" fill="#6f6f6f" stroke="none" stroke-width="1"/><path d="M266.32,194.19c-0.50202,-0.0166 -0.94443,-0.33442 -1.12042,-0.80487c-0.17599,-0.47045 -0.05078,-1.0006 0.3171,-1.34261c0.36787,-0.34201 0.90573,-0.4283 1.36213,-0.21854c0.4564,0.20976 0.74117,0.67413 0.72119,1.17602c-0.0049,0.32993 -0.14433,0.64355 -0.38599,0.86822c-0.24166,0.22467 -0.5646,0.3409 -0.89401,0.32178zM266.32,198.02c-0.67919,-0.02192 -1.21422,-0.58642 -1.19972,-1.26581c0.0145,-0.67939 0.57311,-1.22055 1.25262,-1.21348c0.67951,0.00707 1.22674,0.55974 1.22709,1.23929c0.00635,0.33608 -0.12854,0.65941 -0.37186,0.89133c-0.24332,0.23191 -0.57275,0.35114 -0.90814,0.32867z" fill="#6f6f6f" stroke="none" stroke-width="1"/><path d="M224,218.59v3.23h-2.12v-3.24l-3,-5.26h2.29l1.76,3.36l1.7,-3.36h2.28z" fill="#6f6f6f" stroke="none" stroke-width="1"/><path d="M228.38,219.15c0.07,0.84 0.65,1.33 1.67,1.33c0.73085,-0.02274 1.44361,-0.23279 2.07,-0.61l0.2,1.62c-0.7702,0.35689 -1.61125,0.53468 -2.46,0.52c-2.15,0 -3.53,-1.2 -3.53,-3.31c-0.04987,-0.92054 0.29476,-1.81873 0.94759,-2.46965c0.65283,-0.65092 1.55203,-0.99292 2.47241,-0.94035c0.73617,-0.08108 1.47056,0.16709 2.00665,0.6781c0.53608,0.51101 0.81912,1.23269 0.77335,1.9719c-0.00337,0.37748 -0.05035,0.75331 -0.14,1.12l-4,0.06zM230.58,218.06v-0.12c0,-0.75 -0.31,-1.21 -1,-1.21c-0.70299,0.05289 -1.24259,0.64513 -1.23,1.35z" fill="#6f6f6f" stroke="none" stroke-width="1"/><path d="M233.71,221.82v-9l2.09,-0.26v9.25z" fill="#6f6f6f" stroke="none" stroke-width="1"/><path d="M237.3,221.82v-9l2.09,-0.26v9.25z" fill="#6f6f6f" stroke="none" stroke-width="1"/><path d="M243.91,222c-0.90623,0.05924 -1.79413,-0.27428 -2.43725,-0.91548c-0.64312,-0.64121 -0.97928,-1.52812 -0.92275,-2.43452c-0.04157,-0.91915 0.30961,-1.81263 0.96591,-2.45748c0.6563,-0.64485 1.55582,-0.98026 2.47409,-0.92252c0.9027,-0.05595 1.78611,0.27758 2.4266,0.91615c0.64049,0.63857 0.97665,1.52098 0.9234,2.42385c0.0379,0.91723 -0.31269,1.80792 -0.96561,2.45323c-0.65293,0.64531 -1.54767,0.98542 -2.46439,0.93677zM243.91,216.86c-0.86,0 -1.31,0.69 -1.31,1.78c0,1.09 0.46,1.76 1.32,1.76c0.86,0 1.31,-0.68 1.31,-1.77c0,-1.09 -0.44,-1.75 -1.29,-1.75z" fill="#6f6f6f" stroke="none" stroke-width="1"/><path d="M249.61,221.84l-1.78,-6.35h2.17l0.85,4.2l1.08,-4.2h2.19l1.09,4.14l0.73,-4.14h2.17l-1.79,6.35h-2.12l-1.21,-4.16l-1.21,4.16z" fill="#6f6f6f" stroke="none" stroke-width="1"/><path d="M261.17,222c-0.92321,0.00821 -1.83732,-0.1828 -2.68,-0.56l0.41,-1.51c0.71346,0.37537 1.50405,0.58071 2.31,0.6c0.56,0 0.86,-0.19 0.86,-0.52c0,-0.33 -0.36,-0.49 -1.08,-0.65c-1.47,-0.28 -2.4,-0.83 -2.4,-2.06c0,-1.23 1,-2 2.78,-2c0.88364,0.01104 1.75664,0.19447 2.57,0.54l-0.42,1.5c-0.67669,-0.33655 -1.41527,-0.53055 -2.17,-0.57c-0.51,0 -0.78,0.16 -0.78,0.47c0,0.31 0.39,0.48 1.09,0.63c1.49,0.33 2.38,0.81 2.38,2.08c0,1.27 -1.04,2.05 -2.87,2.05z" fill="#6f6f6f" stroke="none" stroke-width="1"/><path d="M266.32,218.19c-0.50202,-0.0166 -0.94443,-0.33442 -1.12042,-0.80487c-0.17599,-0.47045 -0.05078,-1.0006 0.3171,-1.34261c0.36787,-0.34201 0.90573,-0.4283 1.36213,-0.21854c0.4564,0.20976 0.74117,0.67413 0.72119,1.17602c-0.0049,0.32993 -0.14433,0.64355 -0.38599,0.86822c-0.24166,0.22467 -0.5646,0.3409 -0.89401,0.32178zM266.32,222.02c-0.67919,-0.02192 -1.21422,-0.58642 -1.19972,-1.26581c0.0145,-0.67939 0.57311,-1.22055 1.25262,-1.21348c0.67951,0.00707 1.22674,0.55974 1.22709,1.23929c0.00635,0.33608 -0.12854,0.65941 -0.37186,0.89133c-0.24332,0.23191 -0.57275,0.35114 -0.90814,0.32867z" fill="#6f6f6f" stroke="none" stroke-width="1"/><path d="M235.61,243.35v2.32h-1.67v-2.32h-2.28v-1.57h2.24v-2.31h1.67v2.31h2.25v1.57z" fill="#6f6f6f" stroke="none" stroke-width="1"/><path d="M244.49,245.82h-2.16v-8.5h3.41c2.26,0 3.44,1.05 3.44,2.69c0.0337,1.11405 -0.67704,2.1148 -1.74,2.45l2.18,3.36h-2.43l-1.7,-2.86l-1,0.08zM245.54,241.41c0.92,-0.07 1.43,-0.45 1.43,-1.26c0,-0.81 -0.52,-1.12 -1.61,-1.12h-0.91v2.41z" fill="#6f6f6f" stroke="none" stroke-width="1"/><path d="M252.08,243.15c0.07,0.84 0.66,1.33 1.67,1.33c0.73106,-0.0214 1.44416,-0.23154 2.07,-0.61l0.21,1.62c-0.77336,0.35804 -1.61792,0.53585 -2.47,0.52c-2.14,0 -3.53,-1.2 -3.53,-3.31c-0.05014,-0.92238 0.29582,-1.8223 0.95091,-2.47357c0.65509,-0.65127 1.55702,-0.99196 2.47909,-0.93643c0.73536,-0.08152 1.46906,0.16686 2.00367,0.67831c0.53461,0.51145 0.81523,1.23344 0.76633,1.97169c-0.00337,0.37748 -0.05035,0.75331 -0.14,1.12l-4,0.06zM254.29,242.06v-0.12c0,-0.75 -0.32,-1.21 -1,-1.21c-0.70141,0.05306 -1.23799,0.64682 -1.22,1.35z" fill="#6f6f6f" stroke="none" stroke-width="1"/><path d="M261.56,236.83l2.1,-0.26v9.25h-2.1v-0.66c-0.44645,0.51672 -1.0876,0.82462 -1.77,0.85c-1.56,0 -2.7,-1.28 -2.7,-3.28c-0.05767,-0.88114 0.24905,-1.7473 0.84838,-2.39578c0.59933,-0.64849 1.43867,-1.02239 2.32162,-1.03422c0.44268,-0.00098 0.88229,0.07342 1.3,0.22zM260.56,240.83c-0.89,0 -1.42,0.72 -1.42,1.77c0,1.05 0.55,1.71 1.32,1.71c0.39822,0.01287 0.78329,-0.14334 1.06,-0.43v-2.78c-0.27677,-0.16886 -0.59583,-0.25557 -0.92,-0.25z" fill="#6f6f6f" stroke="none" stroke-width="1"/><path d="M266.32,242.19c-0.50202,-0.0166 -0.94443,-0.33442 -1.12042,-0.80487c-0.17599,-0.47045 -0.05078,-1.0006 0.3171,-1.34261c0.36787,-0.34201 0.90573,-0.4283 1.36213,-0.21854c0.4564,0.20976 0.74117,0.67413 0.72119,1.17602c-0.0049,0.32993 -0.14433,0.64355 -0.38599,0.86822c-0.24166,0.22467 -0.5646,0.3409 -0.89401,0.32178zM266.32,246.02c-0.67919,-0.02192 -1.21422,-0.58642 -1.19972,-1.26581c0.0145,-0.67939 0.57311,-1.22055 1.25262,-1.21348c0.67951,0.00707 1.22674,0.55974 1.22709,1.23929c0.00635,0.33608 -0.12854,0.65941 -0.37186,0.89133c-0.24332,0.23191 -0.57275,0.35114 -0.90814,0.32867z" fill="#6f6f6f" stroke="none" stroke-width="1"/><path d="M274.22,123.58h9v14.08h6.78v7.74h-15.78z" fill="none" stroke="#ffffff" stroke-width="2"/><path d="M292.3,123.58h15.7v7.3h-6.72v1.17h5.43v5.19h-5.43v1.23h7.15v6.93h-16.13z" fill="none" stroke="#ffffff" stroke-width="2"/><path d="M309.51,123.58h9.7l3.23,11.58h0.06l3.43,-11.58h8.77l-8.35,21.82h-8.49z" fill="none" stroke="#ffffff" stroke-width="2"/><path d="M336.21,123.58h15.7v7.3h-6.72v1.17h5.42v5.19h-5.42v1.23h7.14v6.93h-16.12z" fill="none" stroke="#ffffff" stroke-width="2"/><path d="M354.56,123.58h9v14.08h6.75v7.74h-15.75z" fill="none" stroke="#ffffff" stroke-width="2"/><path d="M385,132.78l-3.55,0.75v-7.59l12.55,-2.69v22.15h-9z" fill="none" stroke="#ffffff" stroke-width="2"/><path d="M275.25,158.62c2.05582,0.8152 4.23129,1.28813 6.44,1.4c0.81,0 1,-0.19 1,-0.39c0,-0.2 -0.24,-0.32 -0.6,-0.37c-1.95288,-0.14603 -3.86844,-0.61226 -5.67,-1.38c-1.00871,-0.41038 -1.68493,-1.37194 -1.73,-2.46c0,-2.35 3,-4 8,-4c2.36386,-0.00597 4.71796,0.30343 7,0.92v3.85c-1.9237,-0.57982 -3.91259,-0.91578 -5.92,-1c-0.79,0 -1,0.18 -1,0.36c0,0.18 0.29,0.34 0.62,0.41c1.85915,0.16319 3.68662,0.58388 5.43,1.25c1.33,0.65 2,1.48 2,2.53c0,2.26 -3,3.84 -8.17,3.84c-2.47725,-0.00118 -4.94296,-0.33756 -7.33,-1z" fill="none" stroke="#ffffff" stroke-width="2"/><path d="M295.16,151.64h7.4c4.71,0 10,0.81 10,4.17c0,3 -4.22,4.24 -9.06,4.24h-0.27v3.35h-8zM303.43,157.06c1.38,0 2,-0.44 2,-1c0,-0.56 -0.68,-1 -2,-1h-0.22v2z" fill="none" stroke="#ffffff" stroke-width="2"/><path d="M317,151.64h8v11.76h-8z" fill="none" stroke="#ffffff" stroke-width="2"/><path d="M330.12,151.64h8.06v4.9h0.05l3.33,-4.92h8.81l-4.62,5.46l5,6.3h-9.06l-3.46,-5.54h-0.05v5.52h-8.06z" fill="none" stroke="#ffffff" stroke-width="2"/><path d="M354.91,151.64h14.09v3.93h-6v0.63h4.87v2.8h-4.87v0.66h6.41v3.74h-14.5z" fill="none" stroke="#ffffff" stroke-width="2"/><path d="M374.09,163.4v-11.76h8.19c3.00198,-0.13934 5.98979,0.49058 8.68,1.83c1.73,1 2.84,2.34 2.84,4.05c0,1.71 -1,3 -2.79,4c-2.68795,1.34759 -5.67618,1.98448 -8.68,1.85zM382.14,159.57h0.19c1.04202,0.05005 2.07829,-0.18138 3,-0.67c0.51934,-0.27078 0.85756,-0.7952 0.89,-1.38c-0.02849,-0.59623 -0.36583,-1.13444 -0.89,-1.42c-0.92301,-0.48196 -1.96109,-0.69995 -3,-0.63h-0.25z" fill="none" stroke="#ffffff" stroke-width="2"/><path d="M274.22,123.58h9v14.08h6.78v7.74h-15.78z" fill="#000000" stroke="none" stroke-width="1"/><path d="M292.3,123.58h15.7v7.3h-6.72v1.17h5.43v5.19h-5.43v1.23h7.15v6.93h-16.13z" fill="#000000" stroke="none" stroke-width="1"/><path d="M309.51,123.58h9.7l3.23,11.58h0.06l3.43,-11.58h8.77l-8.35,21.82h-8.49z" fill="#000000" stroke="none" stroke-width="1"/><path d="M336.21,123.58h15.7v7.3h-6.72v1.17h5.42v5.19h-5.42v1.23h7.14v6.93h-16.12z" fill="#000000" stroke="none" stroke-width="1"/><path d="M354.56,123.58h9v14.08h6.75v7.74h-15.75z" fill="#000000" stroke="none" stroke-width="1"/><path d="M385,132.78l-3.55,0.75v-7.59l12.55,-2.69v22.15h-9z" fill="#000000" stroke="none" stroke-width="1"/><path d="M275.25,158.62c2.05582,0.8152 4.23129,1.28813 6.44,1.4c0.81,0 1,-0.19 1,-0.39c0,-0.2 -0.24,-0.32 -0.6,-0.37c-1.95288,-0.14603 -3.86844,-0.61226 -5.67,-1.38c-1.00871,-0.41038 -1.68493,-1.37194 -1.73,-2.46c0,-2.35 3,-4 8,-4c2.36386,-0.00597 4.71796,0.30343 7,0.92v3.85c-1.9237,-0.57982 -3.91259,-0.91578 -5.92,-1c-0.79,0 -1,0.18 -1,0.36c0,0.18 0.29,0.34 0.62,0.41c1.85915,0.16319 3.68662,0.58388 5.43,1.25c1.33,0.65 2,1.48 2,2.53c0,2.26 -3,3.84 -8.17,3.84c-2.47725,-0.00118 -4.94296,-0.33756 -7.33,-1z" fill="#000000" stroke="none" stroke-width="1"/><path d="M295.16,151.64h7.4c4.71,0 10,0.81 10,4.17c0,3 -4.22,4.24 -9.06,4.24h-0.27v3.35h-8zM303.43,157.06c1.38,0 2,-0.44 2,-1c0,-0.56 -0.68,-1 -2,-1h-0.22v2z" fill="#000000" stroke="none" stroke-width="1"/><path d="M317,151.64h8v11.76h-8z" fill="#000000" stroke="none" stroke-width="1"/><path d="M330.12,151.64h8.06v4.9h0.05l3.33,-4.92h8.81l-4.62,5.46l5,6.3h-9.06l-3.46,-5.54h-0.05v5.52h-8.06z" fill="#000000" stroke="none" stroke-width="1"/><path d="M354.91,151.64h14.09v3.93h-6v0.63h4.87v2.8h-4.87v0.66h6.41v3.74h-14.5z" fill="#000000" stroke="none" stroke-width="1"/><path d="M374.09,163.4v-11.76h8.19c3.00198,-0.13934 5.98979,0.49058 8.68,1.83c1.73,1 2.84,2.34 2.84,4.05c0,1.71 -1,3 -2.79,4c-2.68795,1.34759 -5.67618,1.98448 -8.68,1.85zM382.14,159.57h0.19c1.04202,0.05005 2.07829,-0.18138 3,-0.67c0.51934,-0.27078 0.85756,-0.7952 0.89,-1.38c-0.02849,-0.59623 -0.36583,-1.13444 -0.89,-1.42c-0.92301,-0.48196 -1.96109,-0.69995 -3,-0.63h-0.25z" fill="#000000" stroke="none" stroke-width="1"/></g></g></svg>