<svg xmlns="http://www.w3.org/2000/svg" viewBox="0 0 153 41"><defs><style>.cls-1{opacity:0.1;}.cls-2{fill:#fff;opacity:0.95;}</style></defs><g id="Explosion"><path class="cls-1" d="M146.65,41H6.35A6.37,6.37,0,0,1,0,34.65V8.35A6.37,6.37,0,0,1,6.35,2h140.3A6.37,6.37,0,0,1,153,8.35v26.3A6.37,6.37,0,0,1,146.65,41Z"/><path class="cls-2" d="M146.65,39H6.35A6.37,6.37,0,0,1,0,32.65V6.35A6.37,6.37,0,0,1,6.35,0h140.3A6.37,6.37,0,0,1,153,6.35v26.3A6.37,6.37,0,0,1,146.65,39Z"/><path d="M32.86,14.72h2.69V26.08h-3l-4.73-7.4V26H25.08V14.72h3.1L32.86,22Z"/><path d="M38.46,26V14.72h8.23V17H41.27v2.17h4.35v2.28H41.27v2.2h5.42V26Z"/><path d="M51.36,26H48.23l3.87-5.63-3.76-5.62h3.22l2.27,3.66,2.32-3.66h3.19l-3.8,5.51L59.45,26H56.19L53.8,22.14Z"/><path d="M67.06,17.12V26H64.2V17.12H60.62v-2.4h10v2.4Z"/><path d="M77.48,26V14.72h2.86v8.86h4.72V26Z"/><path d="M87.42,26V14.72h8.23V17H90.23v2.17h4.35v2.28H90.23v2.2h5.42V26Z"/><path d="M104.47,26h-3.59l-3.8-11.25h3l2.66,8.48,2.65-8.48h3Z"/><path d="M110.15,26V14.72h8.23V17H113v2.17h4.36v2.28H113v2.2h5.42V26Z"/><path d="M120.9,26V14.72h2.86v8.86h4.72V26Z"/></g></svg>