<svg version="1.1" xmlns="http://www.w3.org/2000/svg" xmlns:xlink="http://www.w3.org/1999/xlink" width="42" height="41" viewBox="0,0,42,41"><g transform="translate(-222,-160)"><g data-paper-data="{&quot;isPaintingLayer&quot;:true}" fill-rule="nonzero" stroke-linecap="butt" stroke-linejoin="miter" stroke-miterlimit="10" stroke-dasharray="" stroke-dashoffset="0" style="mix-blend-mode: normal"><g><path d="M252,180.00001h6c2.20914,0 4,1.79086 4,4v4h-10z" fill="none" stroke="#000000" stroke-width="4"/><path d="M252,180.00001h6c2.20914,0 4,1.79086 4,4v4h-10z" fill="#ff8b00" stroke="none" stroke-width="1"/></g><path d="M244,182.00001v-22h12v22z" fill="#000000" stroke="none" stroke-width="1"/><path d="M239.82,201.00001h-3.64c-7.82228,-0.02197 -14.15803,-6.35772 -14.18,-14.18v-2.64c0,-7.8 6.38,-15.18 14.18,-15.18h3.64c7.8,0 14.18,7.38 14.18,15.18v2.64c-0.02197,7.82228 -6.35772,14.15803 -14.18,14.18z" fill="#000000" stroke="none" stroke-width="1"/><path d="M238.09,181.24001l-1.32,0.49c-0.96401,0.36281 -2.03273,0.32741 -2.97062,-0.09839c-0.93789,-0.4258 -1.66799,-1.20706 -2.02938,-2.17161l-3.88,-10.46l-1.08,-2.91c-0.36891,-0.96237 -0.33763,-2.03231 0.08688,-2.97149c0.42451,-0.93918 1.20698,-1.66958 2.17312,-2.02851l1.32,-0.49c2.00479,-0.75658 4.24334,0.25524 5,2.26l5,13.38c0.3641,0.96769 0.32584,2.04083 -0.10624,2.98013c-0.43208,0.9393 -1.22205,1.66666 -2.19376,2.01987z" fill="#000000" stroke="none" stroke-width="1"/><path d="M235,173.00001v-4h13v4z" fill="#000000" stroke="none" stroke-width="1"/><g><path d="M248,180.00001v-16h6v16z" fill="none" stroke="#000000" stroke-width="4"/><path d="M248,180.00001v-16h6v16z" fill="#ffffff" stroke="none" stroke-width="1"/></g><path d="M250,176.00001v-4h4v4z" fill="#000000" stroke="none" stroke-width="1"/><path d="M250,180.00001h7.23c2.63,0 4.77,1.78 4.77,4v4h-12z" fill="#ff8b00" stroke="none" stroke-width="1"/></g></g></svg>