<svg version="1.1" xmlns="http://www.w3.org/2000/svg" xmlns:xlink="http://www.w3.org/1999/xlink" width="126" height="126" viewBox="0,0,126,126"><g transform="translate(-207,-87)"><g data-paper-data="{&quot;isPaintingLayer&quot;:true}" fill-rule="nonzero" stroke-linecap="butt" stroke-miterlimit="10" stroke-dasharray="" stroke-dashoffset="0" style="mix-blend-mode: normal"><path d="M209,211v-122h122v122z" fill="none" stroke="#000000" stroke-width="4" stroke-linejoin="round"/><path d="M209,211v-122h122v122z" fill="#b53838" stroke="none" stroke-width="1" stroke-linejoin="miter"/><path d="M218,202v-14h44v14z" fill="#c43939" stroke="none" stroke-width="1" stroke-linejoin="miter"/><path d="M278,202v-14h44v14z" fill="#c43939" stroke="none" stroke-width="1" stroke-linejoin="miter"/><path d="M218,112v-14h44v14z" fill="#c43939" stroke="none" stroke-width="1" stroke-linejoin="miter"/><path d="M278,112v-14h44v14z" fill="#c43939" stroke="none" stroke-width="1" stroke-linejoin="miter"/><path d="M248,172v-44h44v44z" fill="#ffffff" stroke="none" stroke-width="1" stroke-linejoin="miter"/><path d="M218,172v-14h14v14z" fill="#c43939" stroke="none" stroke-width="1" stroke-linejoin="miter"/><path d="M308,172v-14h14v14z" fill="#c43939" stroke="none" stroke-width="1" stroke-linejoin="miter"/><path d="M218,142v-14h14v14z" fill="#c43939" stroke="none" stroke-width="1" stroke-linejoin="miter"/><path d="M263,157v-14h14v14z" fill="#000000" stroke="none" stroke-width="1" stroke-linejoin="miter"/><path d="M308,142v-14h14v14z" fill="#c43939" stroke="none" stroke-width="1" stroke-linejoin="miter"/></g></g></svg>