<svg version="1.1" xmlns="http://www.w3.org/2000/svg" xmlns:xlink="http://www.w3.org/1999/xlink" width="27" height="44" viewBox="0,0,27,44"><g transform="translate(-215,-138)"><g data-paper-data="{&quot;isPaintingLayer&quot;:true}" fill-rule="nonzero" stroke-linecap="butt" stroke-miterlimit="10" stroke-dasharray="" stroke-dashoffset="0" style="mix-blend-mode: normal"><g><path d="M240,171l-9,-2l7,-12z" fill="none" stroke="#000000" stroke-width="4" stroke-linejoin="round"/><path d="M240,171l-9,-2l7,-12z" fill="#b3b3b3" stroke="none" stroke-width="1" stroke-linejoin="miter"/></g><g stroke="none" stroke-width="1" stroke-linejoin="miter"><path d="M242,182h-27v-44h9c4.41828,0 8,3.58172 8,8v19h2c4.41828,0 8,3.58172 8,8zM219,178h19v-5c0,-2.20914 -1.79086,-4 -4,-4h-6v-23c0,-2.20914 -1.79086,-4 -4,-4h-5z" fill="#000000"/><path d="M240,173v7h-23v-40h7c3.31371,0 6,2.68629 6,6v21h4c3.31371,0 6,2.68629 6,6z" fill="#00a99d"/></g><path d="M232,177v-5h5v5z" fill="#ffffff" stroke="#ffffff" stroke-width="2" stroke-linejoin="round"/><path d="M234,177v-3h3v3z" fill="#000000" stroke="none" stroke-width="1" stroke-linejoin="miter"/><path d="M227,180h-5l3,-13h5z" fill="#008279" stroke="none" stroke-width="1" stroke-linejoin="miter"/><path d="M217,161h13v5h-13z" fill="#008279" stroke="none" stroke-width="1" stroke-linejoin="miter"/><path d="M217,151h13v5h-13z" fill="#008279" stroke="none" stroke-width="1" stroke-linejoin="miter"/></g></g></svg>