<svg version="1.1" xmlns="http://www.w3.org/2000/svg" xmlns:xlink="http://www.w3.org/1999/xlink" width="564" height="444" viewBox="0,0,564,444"><g transform="translate(42,42)"><g data-paper-data="{&quot;isPaintingLayer&quot;:true}" fill-rule="nonzero" stroke="none" stroke-width="1" stroke-linecap="butt" stroke-linejoin="miter" stroke-miterlimit="10" stroke-dasharray="" stroke-dashoffset="0" style="mix-blend-mode: normal"><path d="M-42,402v-444h564v444z" fill="#d5eef5"/><g fill="#e1f5fa"><path d="M-2,370v20c0,4.41828 -3.58172,8 -8,8h-20c-4.41828,0 -8,-3.58172 -8,-8v-20c0,-4.41828 3.58172,-8 8,-8h20c4.41828,0 8,3.58172 8,8z"/><path d="M78,370v20c0,4.41828 -3.58172,8 -8,8h-20c-4.41828,0 -8,-3.58172 -8,-8v-20c0,-4.41828 3.58172,-8 8,-8h20c4.41828,0 8,3.58172 8,8z"/><path d="M-2,290v20c0,4.41828 -3.58172,8 -8,8h-20c-4.41828,0 -8,-3.58172 -8,-8v-20c0,-4.41828 3.58172,-8 8,-8h20c4.41828,0 8,3.58172 8,8z"/><path d="M78,290v20c0,4.41828 -3.58172,8 -8,8h-20c-4.41828,0 -8,-3.58172 -8,-8v-20c0,-4.41828 3.58172,-8 8,-8h20c4.41828,0 8,3.58172 8,8z"/><path d="M158,370v20c0,4.41828 -3.58172,8 -8,8h-20c-4.41828,0 -8,-3.58172 -8,-8v-20c0,-4.41828 3.58172,-8 8,-8h20c4.41828,0 8,3.58172 8,8z"/><path d="M238,370v20c0,4.41828 -3.58172,8 -8,8h-20c-4.41828,0 -8,-3.58172 -8,-8v-20c0,-4.41828 3.58172,-8 8,-8h20c4.41828,0 8,3.58172 8,8z"/><path d="M158,290v20c0,4.41828 -3.58172,8 -8,8h-20c-4.41828,0 -8,-3.58172 -8,-8v-20c0,-4.41828 3.58172,-8 8,-8h20c4.41828,0 8,3.58172 8,8z"/><path d="M238,290v20c0,4.41828 -3.58172,8 -8,8h-20c-4.41828,0 -8,-3.58172 -8,-8v-20c0,-4.41828 3.58172,-8 8,-8h20c4.41828,0 8,3.58172 8,8z"/><path d="M318,370v20c0,4.41828 -3.58172,8 -8,8h-20c-4.41828,0 -8,-3.58172 -8,-8v-20c0,-4.41828 3.58172,-8 8,-8h20c4.41828,0 8,3.58172 8,8z"/><path d="M398,370v20c0,4.41828 -3.58172,8 -8,8h-20c-4.41828,0 -8,-3.58172 -8,-8v-20c0,-4.41828 3.58172,-8 8,-8h20c4.41828,0 8,3.58172 8,8z"/><path d="M318,290v20c0,4.41828 -3.58172,8 -8,8h-20c-4.41828,0 -8,-3.58172 -8,-8v-20c0,-4.41828 3.58172,-8 8,-8h20c4.41828,0 8,3.58172 8,8z"/><path d="M398,290v20c0,4.41828 -3.58172,8 -8,8h-20c-4.41828,0 -8,-3.58172 -8,-8v-20c0,-4.41828 3.58172,-8 8,-8h20c4.41828,0 8,3.58172 8,8z"/><path d="M478,370v20c0,4.41828 -3.58172,8 -8,8h-20c-4.41828,0 -8,-3.58172 -8,-8v-20c0,-4.41828 3.58172,-8 8,-8h20c4.41828,0 8,3.58172 8,8z"/><path d="M478,290v20c0,4.41828 -3.58172,8 -8,8h-20c-4.41828,0 -8,-3.58172 -8,-8v-20c0,-4.41828 3.58172,-8 8,-8h20c4.41828,0 8,3.58172 8,8z"/><path d="M-2,210v20c0,4.41828 -3.58172,8 -8,8h-20c-4.41828,0 -8,-3.58172 -8,-8v-20c0,-4.41828 3.58172,-8 8,-8h20c4.41828,0 8,3.58172 8,8z"/><path d="M78,210v20c0,4.41828 -3.58172,8 -8,8h-20c-4.41828,0 -8,-3.58172 -8,-8v-20c0,-4.41828 3.58172,-8 8,-8h20c4.41828,0 8,3.58172 8,8z"/><path d="M-2,130v20c0,4.41828 -3.58172,8 -8,8h-20c-4.41828,0 -8,-3.58172 -8,-8v-20c0,-4.41828 3.58172,-8 8,-8h20c4.41828,0 8,3.58172 8,8z"/><path d="M78,130v20c0,4.41828 -3.58172,8 -8,8h-20c-4.41828,0 -8,-3.58172 -8,-8v-20c0,-4.41828 3.58172,-8 8,-8h20c4.41828,0 8,3.58172 8,8z"/><path d="M158,210v20c0,4.41828 -3.58172,8 -8,8h-20c-4.41828,0 -8,-3.58172 -8,-8v-20c0,-4.41828 3.58172,-8 8,-8h20c4.41828,0 8,3.58172 8,8z"/><path d="M238,210v20c0,4.41828 -3.58172,8 -8,8h-20c-4.41828,0 -8,-3.58172 -8,-8v-20c0,-4.41828 3.58172,-8 8,-8h20c4.41828,0 8,3.58172 8,8z"/><path d="M158,130v20c0,4.41828 -3.58172,8 -8,8h-20c-4.41828,0 -8,-3.58172 -8,-8v-20c0,-4.41828 3.58172,-8 8,-8h20c4.41828,0 8,3.58172 8,8z"/><path d="M238,130v20c0,4.41828 -3.58172,8 -8,8h-20c-4.41828,0 -8,-3.58172 -8,-8v-20c0,-4.41828 3.58172,-8 8,-8h20c4.41828,0 8,3.58172 8,8z"/><path d="M318,210v20c0,4.41828 -3.58172,8 -8,8h-20c-4.41828,0 -8,-3.58172 -8,-8v-20c0,-4.41828 3.58172,-8 8,-8h20c4.41828,0 8,3.58172 8,8z"/><path d="M398,210v20c0,4.41828 -3.58172,8 -8,8h-20c-4.41828,0 -8,-3.58172 -8,-8v-20c0,-4.41828 3.58172,-8 8,-8h20c4.41828,0 8,3.58172 8,8z"/><path d="M318,130v20c0,4.41828 -3.58172,8 -8,8h-20c-4.41828,0 -8,-3.58172 -8,-8v-20c0,-4.41828 3.58172,-8 8,-8h20c4.41828,0 8,3.58172 8,8z"/><path d="M398,130v20c0,4.41828 -3.58172,8 -8,8h-20c-4.41828,0 -8,-3.58172 -8,-8v-20c0,-4.41828 3.58172,-8 8,-8h20c4.41828,0 8,3.58172 8,8z"/><path d="M478,210v20c0,4.41828 -3.58172,8 -8,8h-20c-4.41828,0 -8,-3.58172 -8,-8v-20c0,-4.41828 3.58172,-8 8,-8h20c4.41828,0 8,3.58172 8,8z"/><path d="M478,130v20c0,4.41828 -3.58172,8 -8,8h-20c-4.41828,0 -8,-3.58172 -8,-8v-20c0,-4.41828 3.58172,-8 8,-8h20c4.41828,0 8,3.58172 8,8z"/><path d="M-2,50v20c0,4.41828 -3.58172,8 -8,8h-20c-4.41828,0 -8,-3.58172 -8,-8v-20c0,-4.41828 3.58172,-8 8,-8h20c4.41828,0 8,3.58172 8,8z"/><path d="M78,50v20c0,4.41828 -3.58172,8 -8,8h-20c-4.41828,0 -8,-3.58172 -8,-8v-20c0,-4.41828 3.58172,-8 8,-8h20c4.41828,0 8,3.58172 8,8z"/><path d="M-2,-30v20c0,4.41828 -3.58172,8 -8,8h-20c-4.41828,0 -8,-3.58172 -8,-8v-20c0,-4.41828 3.58172,-8 8,-8h20c4.41828,0 8,3.58172 8,8z"/><path d="M78,-30v20c0,4.41828 -3.58172,8 -8,8h-20c-4.41828,0 -8,-3.58172 -8,-8v-20c0,-4.41828 3.58172,-8 8,-8h20c4.41828,0 8,3.58172 8,8z"/><path d="M158,50v20c0,4.41828 -3.58172,8 -8,8h-20c-4.41828,0 -8,-3.58172 -8,-8v-20c0,-4.41828 3.58172,-8 8,-8h20c4.41828,0 8,3.58172 8,8z"/><path d="M238,50v20c0,4.41828 -3.58172,8 -8,8h-20c-4.41828,0 -8,-3.58172 -8,-8v-20c0,-4.41828 3.58172,-8 8,-8h20c4.41828,0 8,3.58172 8,8z"/><path d="M158,-30v20c0,4.41828 -3.58172,8 -8,8h-20c-4.41828,0 -8,-3.58172 -8,-8v-20c0,-4.41828 3.58172,-8 8,-8h20c4.41828,0 8,3.58172 8,8z"/><path d="M238,-30v20c0,4.41828 -3.58172,8 -8,8h-20c-4.41828,0 -8,-3.58172 -8,-8v-20c0,-4.41828 3.58172,-8 8,-8h20c4.41828,0 8,3.58172 8,8z"/><path d="M318,50v20c0,4.41828 -3.58172,8 -8,8h-20c-4.41828,0 -8,-3.58172 -8,-8v-20c0,-4.41828 3.58172,-8 8,-8h20c4.41828,0 8,3.58172 8,8z"/><path d="M398,50v20c0,4.41828 -3.58172,8 -8,8h-20c-4.41828,0 -8,-3.58172 -8,-8v-20c0,-4.41828 3.58172,-8 8,-8h20c4.41828,0 8,3.58172 8,8z"/><path d="M318,-30v20c0,4.41828 -3.58172,8 -8,8h-20c-4.41828,0 -8,-3.58172 -8,-8v-20c0,-4.41828 3.58172,-8 8,-8h20c4.41828,0 8,3.58172 8,8z"/><path d="M398,-30v20c0,4.41828 -3.58172,8 -8,8h-20c-4.41828,0 -8,-3.58172 -8,-8v-20c0,-4.41828 3.58172,-8 8,-8h20c4.41828,0 8,3.58172 8,8z"/><path d="M478,50v20c0,4.41828 -3.58172,8 -8,8h-20c-4.41828,0 -8,-3.58172 -8,-8v-20c0,-4.41828 3.58172,-8 8,-8h20c4.41828,0 8,3.58172 8,8z"/><path d="M478,-30v20c0,4.41828 -3.58172,8 -8,8h-20c-4.41828,0 -8,-3.58172 -8,-8v-20c0,-4.41828 3.58172,-8 8,-8h20c4.41828,0 8,3.58172 8,8z"/><path d="M38,330v20c0,4.41828 -3.58172,8 -8,8h-20c-4.41828,0 -8,-3.58172 -8,-8v-20c0,-4.41828 3.58172,-8 8,-8h20c4.41828,0 8,3.58172 8,8z"/><path d="M118,330v20c0,4.41828 -3.58172,8 -8,8h-20c-4.41828,0 -8,-3.58172 -8,-8v-20c0,-4.41828 3.58172,-8 8,-8h20c4.41828,0 8,3.58172 8,8z"/><path d="M38,250v20c0,4.41828 -3.58172,8 -8,8h-20c-4.41828,0 -8,-3.58172 -8,-8v-20c0,-4.41828 3.58172,-8 8,-8h20c4.41828,0 8,3.58172 8,8z"/><path d="M118,250v20c0,4.41828 -3.58172,8 -8,8h-20c-4.41828,0 -8,-3.58172 -8,-8v-20c0,-4.41828 3.58172,-8 8,-8h20c4.41828,0 8,3.58172 8,8z"/><path d="M198,330v20c0,4.41828 -3.58172,8 -8,8h-20c-4.41828,0 -8,-3.58172 -8,-8v-20c0,-4.41828 3.58172,-8 8,-8h20c4.41828,0 8,3.58172 8,8z"/><path d="M278,330v20c0,4.41828 -3.58172,8 -8,8h-20c-4.41828,0 -8,-3.58172 -8,-8v-20c0,-4.41828 3.58172,-8 8,-8h20c4.41828,0 8,3.58172 8,8z"/><path d="M198,250v20c0,4.41828 -3.58172,8 -8,8h-20c-4.41828,0 -8,-3.58172 -8,-8v-20c0,-4.41828 3.58172,-8 8,-8h20c4.41828,0 8,3.58172 8,8z"/><path d="M278,250v20c0,4.41828 -3.58172,8 -8,8h-20c-4.41828,0 -8,-3.58172 -8,-8v-20c0,-4.41828 3.58172,-8 8,-8h20c4.41828,0 8,3.58172 8,8z"/><path d="M358,330v20c0,4.41828 -3.58172,8 -8,8h-20c-4.41828,0 -8,-3.58172 -8,-8v-20c0,-4.41828 3.58172,-8 8,-8h20c4.41828,0 8,3.58172 8,8z"/><path d="M438,330v20c0,4.41828 -3.58172,8 -8,8h-20c-4.41828,0 -8,-3.58172 -8,-8v-20c0,-4.41828 3.58172,-8 8,-8h20c4.41828,0 8,3.58172 8,8z"/><path d="M358,250v20c0,4.41828 -3.58172,8 -8,8h-20c-4.41828,0 -8,-3.58172 -8,-8v-20c0,-4.41828 3.58172,-8 8,-8h20c4.41828,0 8,3.58172 8,8z"/><path d="M438,250v20c0,4.41828 -3.58172,8 -8,8h-20c-4.41828,0 -8,-3.58172 -8,-8v-20c0,-4.41828 3.58172,-8 8,-8h20c4.41828,0 8,3.58172 8,8z"/><path d="M518,330v20c0,4.41828 -3.58172,8 -8,8h-20c-4.41828,0 -8,-3.58172 -8,-8v-20c0,-4.41828 3.58172,-8 8,-8h20c4.41828,0 8,3.58172 8,8z"/><path d="M518,250v20c0,4.41828 -3.58172,8 -8,8h-20c-4.41828,0 -8,-3.58172 -8,-8v-20c0,-4.41828 3.58172,-8 8,-8h20c4.41828,0 8,3.58172 8,8z"/><path d="M38,170v20c0,4.41828 -3.58172,8 -8,8h-20c-4.41828,0 -8,-3.58172 -8,-8v-20c0,-4.41828 3.58172,-8 8,-8h20c4.41828,0 8,3.58172 8,8z"/><path d="M118,170v20c0,4.41828 -3.58172,8 -8,8h-20c-4.41828,0 -8,-3.58172 -8,-8v-20c0,-4.41828 3.58172,-8 8,-8h20c4.41828,0 8,3.58172 8,8z"/><path d="M38,90v20c0,4.41828 -3.58172,8 -8,8h-20c-4.41828,0 -8,-3.58172 -8,-8v-20c0,-4.41828 3.58172,-8 8,-8h20c4.41828,0 8,3.58172 8,8z"/><path d="M118,90v20c0,4.41828 -3.58172,8 -8,8h-20c-4.41828,0 -8,-3.58172 -8,-8v-20c0,-4.41828 3.58172,-8 8,-8h20c4.41828,0 8,3.58172 8,8z"/><path d="M198,170v20c0,4.41828 -3.58172,8 -8,8h-20c-4.41828,0 -8,-3.58172 -8,-8v-20c0,-4.41828 3.58172,-8 8,-8h20c4.41828,0 8,3.58172 8,8z"/><path d="M278,170v20c0,4.41828 -3.58172,8 -8,8h-20c-4.41828,0 -8,-3.58172 -8,-8v-20c0,-4.41828 3.58172,-8 8,-8h20c4.41828,0 8,3.58172 8,8z"/><path d="M198,90v20c0,4.41828 -3.58172,8 -8,8h-20c-4.41828,0 -8,-3.58172 -8,-8v-20c0,-4.41828 3.58172,-8 8,-8h20c4.41828,0 8,3.58172 8,8z"/><path d="M278,90v20c0,4.41828 -3.58172,8 -8,8h-20c-4.41828,0 -8,-3.58172 -8,-8v-20c0,-4.41828 3.58172,-8 8,-8h20c4.41828,0 8,3.58172 8,8z"/><path d="M358,170v20c0,4.41828 -3.58172,8 -8,8h-20c-4.41828,0 -8,-3.58172 -8,-8v-20c0,-4.41828 3.58172,-8 8,-8h20c4.41828,0 8,3.58172 8,8z"/><path d="M438,170v20c0,4.41828 -3.58172,8 -8,8h-20c-4.41828,0 -8,-3.58172 -8,-8v-20c0,-4.41828 3.58172,-8 8,-8h20c4.41828,0 8,3.58172 8,8z"/><path d="M358,90v20c0,4.41828 -3.58172,8 -8,8h-20c-4.41828,0 -8,-3.58172 -8,-8v-20c0,-4.41828 3.58172,-8 8,-8h20c4.41828,0 8,3.58172 8,8z"/><path d="M438,90v20c0,4.41828 -3.58172,8 -8,8h-20c-4.41828,0 -8,-3.58172 -8,-8v-20c0,-4.41828 3.58172,-8 8,-8h20c4.41828,0 8,3.58172 8,8z"/><path d="M518,170v20c0,4.41828 -3.58172,8 -8,8h-20c-4.41828,0 -8,-3.58172 -8,-8v-20c0,-4.41828 3.58172,-8 8,-8h20c4.41828,0 8,3.58172 8,8z"/><path d="M518,90v20c0,4.41828 -3.58172,8 -8,8h-20c-4.41828,0 -8,-3.58172 -8,-8v-20c0,-4.41828 3.58172,-8 8,-8h20c4.41828,0 8,3.58172 8,8z"/><path d="M38,10v20c0,4.41828 -3.58172,8 -8,8h-20c-4.41828,0 -8,-3.58172 -8,-8v-20c0,-4.41828 3.58172,-8 8,-8h20c4.41828,0 8,3.58172 8,8z"/><path d="M118,10v20c0,4.41828 -3.58172,8 -8,8h-20c-4.41828,0 -8,-3.58172 -8,-8v-20c0,-4.41828 3.58172,-8 8,-8h20c4.41828,0 8,3.58172 8,8z"/><path d="M198,10v20c0,4.41828 -3.58172,8 -8,8h-20c-4.41828,0 -8,-3.58172 -8,-8v-20c0,-4.41828 3.58172,-8 8,-8h20c4.41828,0 8,3.58172 8,8z"/><path d="M278,10v20c0,4.41828 -3.58172,8 -8,8h-20c-4.41828,0 -8,-3.58172 -8,-8v-20c0,-4.41828 3.58172,-8 8,-8h20c4.41828,0 8,3.58172 8,8z"/><path d="M358,10v20c0,4.41828 -3.58172,8 -8,8h-20c-4.41828,0 -8,-3.58172 -8,-8v-20c0,-4.41828 3.58172,-8 8,-8h20c4.41828,0 8,3.58172 8,8z"/><path d="M438,10v20c0,4.41828 -3.58172,8 -8,8h-20c-4.41828,0 -8,-3.58172 -8,-8v-20c0,-4.41828 3.58172,-8 8,-8h20c4.41828,0 8,3.58172 8,8z"/><path d="M518,10v20c0,4.41828 -3.58172,8 -8,8h-20c-4.41828,0 -8,-3.58172 -8,-8v-20c0,-4.41828 3.58172,-8 8,-8h20c4.41828,0 8,3.58172 8,8z"/></g></g></g></svg>