<svg version="1.1" xmlns="http://www.w3.org/2000/svg" xmlns:xlink="http://www.w3.org/1999/xlink" width="421" height="360" viewBox="0,0,421,360"><g data-paper-data="{&quot;isPaintingLayer&quot;:true}" fill="#ffffff" fill-rule="nonzero" stroke="none" stroke-width="1" stroke-linecap="butt" stroke-linejoin="miter" stroke-miterlimit="10" stroke-dasharray="" stroke-dashoffset="0" style="mix-blend-mode: normal"><path d="M53,0h-45c-4.41828,0 -8,3.58172 -8,8v352h61v-352c0,-4.41828 -3.58172,-8 -8,-8zM181,8v352h-61v-352c0,-4.41828 3.58172,-8 8,-8h45c4.41828,0 8,3.58172 8,8zM301,8v352h-61v-352c0,-4.41828 3.58172,-8 8,-8h45c4.41828,0 8,3.58172 8,8zM421,8v352h-61v-352c0,-4.41828 3.58172,-8 8,-8h45c4.41828,0 8,3.58172 8,8z"/></g></svg>