<svg version="1.1" xmlns="http://www.w3.org/2000/svg" xmlns:xlink="http://www.w3.org/1999/xlink" width="27" height="58" viewBox="0,0,27,58"><g transform="translate(-215,-147)"><g data-paper-data="{&quot;isPaintingLayer&quot;:true}" fill-rule="nonzero" stroke-linecap="butt" stroke-miterlimit="10" stroke-dasharray="" stroke-dashoffset="0" style="mix-blend-mode: normal"><g data-paper-data="{&quot;index&quot;:null}"><path d="M238,203l-7,-12l9,-2z" fill="none" stroke="#000000" stroke-width="4" stroke-linejoin="round"/><path d="M238,203l-7,-12l9,-2z" fill="#b3b3b3" stroke="none" stroke-width="1" stroke-linejoin="miter"/></g><g data-paper-data="{&quot;index&quot;:null}" stroke="none" stroke-width="1" stroke-linejoin="miter"><path d="M232,178h10v9c0,4.41828 -3.58172,8 -8,8h-11c-4.41828,0 -8,-3.58172 -8,-8v-32c0,-4.41828 3.58172,-8 8,-8h9zM234,191c2.20914,0 4,-1.79086 4,-4v-5h-10v-31h-5c-2.20914,0 -4,1.79086 -4,4v32c0,2.20914 1.79086,4 4,4z" fill="#000000"/><path d="M240,187c0,3.31371 -2.68629,6 -6,6h-11c-3.31371,0 -6,-2.68629 -6,-6v-32c0,-3.31371 2.68629,-6 6,-6h7v31h10z" fill="#00a99d"/></g><path d="M230,175h-13v-5h13z" data-paper-data="{&quot;index&quot;:null}" fill="#008279" stroke="none" stroke-width="1" stroke-linejoin="miter"/><path d="M230,165h-13v-5h13z" data-paper-data="{&quot;index&quot;:null}" fill="#008279" stroke="none" stroke-width="1" stroke-linejoin="miter"/><path d="M237,183v5h-5v-5z" data-paper-data="{&quot;index&quot;:null}" fill="#ffffff" stroke="#ffffff" stroke-width="2" stroke-linejoin="round"/><path d="M237,183v3h-3v-3z" data-paper-data="{&quot;index&quot;:null}" fill="#000000" stroke="none" stroke-width="1" stroke-linejoin="miter"/><path d="M227,193h-5l2,-13h5z" data-paper-data="{&quot;index&quot;:null}" fill="#008279" stroke="none" stroke-width="1" stroke-linejoin="miter"/></g></g></svg>