<svg version="1.1" xmlns="http://www.w3.org/2000/svg" xmlns:xlink="http://www.w3.org/1999/xlink" width="19" height="21" viewBox="0,0,19,21"><g transform="translate(-231.5,-169)"><g data-paper-data="{&quot;isPaintingLayer&quot;:true}" fill-rule="nonzero" stroke="none" stroke-linecap="butt" stroke-linejoin="miter" stroke-miterlimit="10" stroke-dasharray="" stroke-dashoffset="0" style="mix-blend-mode: normal"><path d="M240.23779,183c-0.81378,0.00806 -1.61941,-0.16262 -2.36,-0.5l0.36,-1.33c0.61672,0.32893 1.30132,0.51035 2,0.53c0.49,0 0.75,-0.17 0.75,-0.46c0,-0.29 -0.31,-0.43 -0.95,-0.57c-1.29,-0.25 -2.12,-0.73 -2.12,-1.82c0,-1.09 0.91,-1.79 2.46,-1.79c0.78069,0.01078 1.55177,0.17383 2.27,0.48l-0.38,1.32c-0.59469,-0.29987 -1.24498,-0.47351 -1.91,-0.51c-0.45,0 -0.69,0.15 -0.69,0.42c0,0.27 0.35,0.42 1,0.56c1.32,0.28 2.1,0.71 2.1,1.83c0,1.12 -0.89,1.84 -2.53,1.84z" fill="#000000" stroke-width="1"/><path d="M231.5,190v-21h19v21z" fill="none" stroke-width="0"/></g></g></svg>