<svg id="Layer_1" data-name="Layer 1" xmlns="http://www.w3.org/2000/svg" viewBox="0 0 144 36"><path d="M18.32,24a7.33,7.33,0,0,1-2.15-.39l-3,.41V10.16l3.16-.39v5.38A3.74,3.74,0,0,1,19,13.86c2.35,0,4.05,1.93,4.05,5A4.83,4.83,0,0,1,18.32,24ZM18,16.38a2.23,2.23,0,0,0-1.59.66v4.19a2.54,2.54,0,0,0,1.45.39c1.35,0,2.13-1.06,2.13-2.64S19.24,16.38,18,16.38Z"/><path d="M30.63,23.24l-.48,1.25c-1,2.78-2.17,3.62-4.17,3.62a6.54,6.54,0,0,1-2.83-.61l.94-2.4a3.56,3.56,0,0,0,1.48.43c.67,0,1-.24,1.35-1.16l.27-.74-3.73-9.46h3.38l2,6.27,1.85-6.27h3.36Z"/><path d="M46.33,24c-4.1,0-6.88-2.44-6.88-6.66s2.7-6.75,6.9-6.75a10.12,10.12,0,0,1,4.81,1.1l-1,2.72a7.46,7.46,0,0,0-3.69-1.06,3.6,3.6,0,0,0-3.77,3.91c0,2.56,1.29,4.08,3.73,4.08A5.71,5.71,0,0,0,48.46,21V19.06H45.3V16.48h6.11v6.33A10.88,10.88,0,0,1,46.33,24Z"/><path d="M56.71,23.69H53.55V14.33l3.16-.39v1.4A2.54,2.54,0,0,1,59,13.86a3.41,3.41,0,0,1,1.58.39L59.94,17a2.6,2.6,0,0,0-1.18-.29,2.31,2.31,0,0,0-2,1.39Z"/><path d="M63.34,12.82c-1.15,0-1.86-.6-1.86-1.68a1.63,1.63,0,0,1,1.86-1.7c1.17,0,1.86.59,1.86,1.7S64.51,12.82,63.34,12.82ZM61.76,23.69V14.33l3.16-.39v9.75Z"/><path d="M70.85,23.69H67.7v-6.9l-1.64-.12.08-2,1.54-.45,0-.61c.08-2.77,1.33-4,3.73-4a7.16,7.16,0,0,1,2.58.47s-.6,2.63-.6,2.6a4.32,4.32,0,0,0-1.59-.36c-.82,0-1.11.47-1.11,1.39v.55h4.05l0-.9c.08-2.76,1.35-4,3.72-4a7.24,7.24,0,0,1,2.6.47s-.61,2.62-.61,2.6a4.13,4.13,0,0,0-1.58-.37c-.82,0-1.1.47-1.1,1.39v.76h2.64l-.06,2.48H77.94v6.92H74.79V16.77H70.85Z"/><path d="M87.66,13.86c2.36,0,4.08,1.93,4.08,5A4.83,4.83,0,0,1,87,24a7.18,7.18,0,0,1-2-.31v4.26H81.85V14.33L85,13.94v1.21A3.69,3.69,0,0,1,87.66,13.86ZM85,21.23a2.56,2.56,0,0,0,1.45.39c1.36,0,2.13-1.06,2.13-2.64s-.69-2.6-2-2.6A2.24,2.24,0,0,0,85,17Z"/><path d="M98.66,22.54A3.41,3.41,0,0,1,95.91,24,2.76,2.76,0,0,1,93,21.36c0-1.81,1.36-3.26,5.64-3.38v-.19c0-1-.52-1.45-1.68-1.45a7.78,7.78,0,0,0-3.24,1L93.07,15a9.59,9.59,0,0,1,4.38-1.13c3.29,0,4.38,1.5,4.34,4.16l0,2.82c0,.66.12.72.78.78l-.31,2.26c-2.07.26-3.09-.29-3.52-1.34Zm0-3.09c-2,.23-2.67.6-2.67,1.44a1.07,1.07,0,0,0,1.19,1,2,2,0,0,0,1.48-.64Z"/><path d="M107.81,24c-2.36,0-3.63-1-3.5-3.46l.14-3.63L103,16.67l.06-2,1.43-.47,0-2.17h3l0,2.27H110l-.06,2.48h-2.54l-.11,3.42c0,.88.48,1.25,1.25,1.25a3.91,3.91,0,0,0,1.25-.25l.37,2.46A7,7,0,0,1,107.81,24Z"/><path d="M116.26,24c-3.15,0-5.16-1.76-5.16-5s2.05-5.14,5.24-5.14a7.29,7.29,0,0,1,3.47.8L119.19,17a5.37,5.37,0,0,0-2.52-.74,2.3,2.3,0,0,0-2.35,2.6,2.34,2.34,0,0,0,2.43,2.64,4.68,4.68,0,0,0,2.52-.72l.47,2.4A7.06,7.06,0,0,1,116.26,24Z"/><path d="M127.73,23.69V18.06c0-1.15-.51-1.52-1.31-1.52a2.66,2.66,0,0,0-1.76.72v6.43H121.5V10.16l3.16-.39v5.71a4.33,4.33,0,0,1,3.21-1.62c1.88,0,3,1.25,3,3.28v6.55Z"/></svg>