<svg xmlns="http://www.w3.org/2000/svg" viewBox="0 0 153 41"><defs><style>.cls-1{opacity:0.1;}.cls-2{fill:#fff;opacity:0.95;}</style></defs><g id="Explosion"><path class="cls-1" d="M146.65,41H6.35A6.37,6.37,0,0,1,0,34.65V8.35A6.37,6.37,0,0,1,6.35,2h140.3A6.37,6.37,0,0,1,153,8.35v26.3A6.37,6.37,0,0,1,146.65,41Z"/><path class="cls-2" d="M146.65,39H6.35A6.37,6.37,0,0,1,0,32.65V6.35A6.37,6.37,0,0,1,6.35,0h140.3A6.37,6.37,0,0,1,153,6.35v26.3A6.37,6.37,0,0,1,146.65,39Z"/><path d="M15.9,26V14.72h2.86v8.86h4.72V26Z"/><path d="M25.83,26V14.72h8.23V17H28.64v2.17H33v2.28H28.64v2.2h5.42V26Z"/><path d="M42.88,26H39.3L35.5,14.72h3l2.66,8.48,2.65-8.48h3Z"/><path d="M48.56,26V14.72h8.23V17H51.37v2.17h4.36v2.28H51.37v2.2h5.42V26Z"/><path d="M59.31,26V14.72h2.86v8.86h4.72V26Z"/><path d="M73.93,26V14.72h8.22V17H76.73v2.17h4.36v2.28H76.73v2.2h5.42V26Z"/><path d="M88.71,26h-4V14.72H88.9c4,0,6.22,2.2,6.22,5.55S92.83,26,88.71,26Zm0-9H87.54v6.68h1.33a3,3,0,0,0,3.36-3.32C92.23,18.05,91.06,17,88.72,17Z"/><path d="M97.52,26V14.72h2.87V26Z"/><path d="M109,17.12V26h-2.86V17.12h-3.59v-2.4h10v2.4Z"/><path d="M120,26.24a5.5,5.5,0,0,1-5.87-5.87A5.69,5.69,0,0,1,120,14.45c3.35,0,5.89,2.05,5.89,5.85A5.72,5.72,0,0,1,120,26.24Zm0-9.49c-1.91,0-3,1.45-3,3.55s1.12,3.64,3,3.64,3-1.46,3-3.57S121.88,16.75,120,16.75Z"/><path d="M131.2,26h-2.86V14.72h4.52c3,0,4.55,1.39,4.55,3.57a3.3,3.3,0,0,1-2.3,3.24L138,26h-3.22l-2.25-3.78-1.32.11Zm1.39-5.83c1.22-.09,1.89-.59,1.89-1.67S133.8,17,132.36,17h-1.21v3.19Z"/></g></svg>