<svg version="1.1" xmlns="http://www.w3.org/2000/svg" xmlns:xlink="http://www.w3.org/1999/xlink" width="481" height="570" viewBox="0,0,481,570"><g data-paper-data="{&quot;isPaintingLayer&quot;:true}" fill-rule="nonzero" stroke="none" stroke-width="1" stroke-linecap="butt" stroke-linejoin="miter" stroke-miterlimit="10" stroke-dasharray="" stroke-dashoffset="0" style="mix-blend-mode: normal"><path d="M0,360v-360h480v360z" fill="#cee7ed"/><g><path d="M0,570v-450h60v450z" fill="#dddddd"/><g fill="#e6e6e6"><path d="M7.5,149c-3.58985,0 -6.5,0 -6.5,0v-28c0,0 2.91015,0 6.5,0h15c3.58985,0 6.5,0 6.5,0v28c0,0 -2.91015,0 -6.5,0z"/><path d="M37.5,179c-3.58985,0 -6.5,0 -6.5,0v-28c0,0 2.91015,0 6.5,0h15c3.58985,0 6.5,0 6.5,0v28c0,0 -2.91015,0 -6.5,0z"/><path d="M7.5,209c-3.58985,0 -6.5,0 -6.5,0v-28c0,0 2.91015,0 6.5,0h15c3.58985,0 6.5,0 6.5,0v28c0,0 -2.91015,0 -6.5,0z"/><path d="M37.5,239c-3.58985,0 -6.5,0 -6.5,0v-28c0,0 2.91015,0 6.5,0h15c3.58985,0 6.5,0 6.5,0v28c0,0 -2.91015,0 -6.5,0z"/><path d="M6.5,269c-3.58985,0 -6.5,0 -6.5,0v-28c0,0 2.91015,0 6.5,0h15c3.58985,0 6.5,0 6.5,0v28c0,0 -2.91015,0 -6.5,0z"/><path d="M36.5,299c-3.58985,0 -6.5,0 -6.5,0v-28c0,0 2.91015,0 6.5,0h15c3.58985,0 6.5,0 6.5,0v28c0,0 -2.91015,0 -6.5,0z"/><path d="M9.5,329c-3.58985,0 -6.5,0 -6.5,0v-28c0,0 2.91015,0 6.5,0h15c3.58985,0 6.5,0 6.5,0v28c0,0 -2.91015,0 -6.5,0z"/><path d="M39.5,359c-3.58985,0 -6.5,0 -6.5,0v-28c0,0 2.91015,0 6.5,0h15c3.58985,0 6.5,0 6.5,0v28c0,0 -2.91015,0 -6.5,0z"/></g></g><g><path d="M60,570v-450h60v450z" fill="#dddddd"/><g fill="#e6e6e6"><path d="M67.5,149c-3.58985,0 -6.5,0 -6.5,0v-28c0,0 2.91015,0 6.5,0h15c3.58985,0 6.5,0 6.5,0v28c0,0 -2.91015,0 -6.5,0z"/><path d="M97.5,179c-3.58985,0 -6.5,0 -6.5,0v-28c0,0 2.91015,0 6.5,0h15c3.58985,0 6.5,0 6.5,0v28c0,0 -2.91015,0 -6.5,0z"/><path d="M67.5,209c-3.58985,0 -6.5,0 -6.5,0v-28c0,0 2.91015,0 6.5,0h15c3.58985,0 6.5,0 6.5,0v28c0,0 -2.91015,0 -6.5,0z"/><path d="M97.5,239c-3.58985,0 -6.5,0 -6.5,0v-28c0,0 2.91015,0 6.5,0h15c3.58985,0 6.5,0 6.5,0v28c0,0 -2.91015,0 -6.5,0z"/><path d="M66.5,269c-3.58985,0 -6.5,0 -6.5,0v-28c0,0 2.91015,0 6.5,0h15c3.58985,0 6.5,0 6.5,0v28c0,0 -2.91015,0 -6.5,0z"/><path d="M96.5,299c-3.58985,0 -6.5,0 -6.5,0v-28c0,0 2.91015,0 6.5,0h15c3.58985,0 6.5,0 6.5,0v28c0,0 -2.91015,0 -6.5,0z"/><path d="M69.5,329c-3.58985,0 -6.5,0 -6.5,0v-28c0,0 2.91015,0 6.5,0h15c3.58985,0 6.5,0 6.5,0v28c0,0 -2.91015,0 -6.5,0z"/><path d="M99.5,359c-3.58985,0 -6.5,0 -6.5,0v-28c0,0 2.91015,0 6.5,0h15c3.58985,0 6.5,0 6.5,0v28c0,0 -2.91015,0 -6.5,0z"/></g></g><g><path d="M120,570v-450h60v450z" fill="#dddddd"/><g fill="#e6e6e6"><path d="M127.5,149c-3.58985,0 -6.5,0 -6.5,0v-28c0,0 2.91015,0 6.5,0h15c3.58985,0 6.5,0 6.5,0v28c0,0 -2.91015,0 -6.5,0z"/><path d="M157.5,179c-3.58985,0 -6.5,0 -6.5,0v-28c0,0 2.91015,0 6.5,0h15c3.58985,0 6.5,0 6.5,0v28c0,0 -2.91015,0 -6.5,0z"/><path d="M127.5,209c-3.58985,0 -6.5,0 -6.5,0v-28c0,0 2.91015,0 6.5,0h15c3.58985,0 6.5,0 6.5,0v28c0,0 -2.91015,0 -6.5,0z"/><path d="M157.5,239c-3.58985,0 -6.5,0 -6.5,0v-28c0,0 2.91015,0 6.5,0h15c3.58985,0 6.5,0 6.5,0v28c0,0 -2.91015,0 -6.5,0z"/><path d="M126.5,269c-3.58985,0 -6.5,0 -6.5,0v-28c0,0 2.91015,0 6.5,0h15c3.58985,0 6.5,0 6.5,0v28c0,0 -2.91015,0 -6.5,0z"/><path d="M156.5,299c-3.58985,0 -6.5,0 -6.5,0v-28c0,0 2.91015,0 6.5,0h15c3.58985,0 6.5,0 6.5,0v28c0,0 -2.91015,0 -6.5,0z"/><path d="M129.5,329c-3.58985,0 -6.5,0 -6.5,0v-28c0,0 2.91015,0 6.5,0h15c3.58985,0 6.5,0 6.5,0v28c0,0 -2.91015,0 -6.5,0z"/><path d="M159.5,359c-3.58985,0 -6.5,0 -6.5,0v-28c0,0 2.91015,0 6.5,0h15c3.58985,0 6.5,0 6.5,0v28c0,0 -2.91015,0 -6.5,0z"/></g></g><g><path d="M180,510v-420h60v420z" fill="#dddddd"/><g fill="#e6e6e6"><path d="M217.5,119c-3.58985,0 -6.5,0 -6.5,0v-28c0,0 2.91015,0 6.5,0h15c3.58985,0 6.5,0 6.5,0v28c0,0 -2.91015,0 -6.5,0z"/><path d="M187.5,149c-3.58985,0 -6.5,0 -6.5,0v-28c0,0 2.91015,0 6.5,0h15c3.58985,0 6.5,0 6.5,0v28c0,0 -2.91015,0 -6.5,0z"/><path d="M217.5,179c-3.58985,0 -6.5,0 -6.5,0v-28c0,0 2.91015,0 6.5,0h15c3.58985,0 6.5,0 6.5,0v28c0,0 -2.91015,0 -6.5,0z"/><path d="M186.5,209c-3.58985,0 -6.5,0 -6.5,0v-28c0,0 2.91015,0 6.5,0h15c3.58985,0 6.5,0 6.5,0v28c0,0 -2.91015,0 -6.5,0z"/><path d="M216.5,239c-3.58985,0 -6.5,0 -6.5,0v-28c0,0 2.91015,0 6.5,0h15c3.58985,0 6.5,0 6.5,0v28c0,0 -2.91015,0 -6.5,0z"/><path d="M189.5,269c-3.58985,0 -6.5,0 -6.5,0v-28c0,0 2.91015,0 6.5,0h15c3.58985,0 6.5,0 6.5,0v28c0,0 -2.91015,0 -6.5,0z"/><path d="M219.5,299c-3.58985,0 -6.5,0 -6.5,0v-28c0,0 2.91015,0 6.5,0h15c3.58985,0 6.5,0 6.5,0v28c0,0 -2.91015,0 -6.5,0z"/><path d="M189.5,329c-3.58985,0 -6.5,0 -6.5,0v-28c0,0 2.91015,0 6.5,0h15c3.58985,0 6.5,0 6.5,0v28c0,0 -2.91015,0 -6.5,0z"/><path d="M219.5,359c-3.58985,0 -6.5,0 -6.5,0v-28c0,0 2.91015,0 6.5,0h15c3.58985,0 6.5,0 6.5,0v28c0,0 -2.91015,0 -6.5,0z"/></g></g><g><path d="M360,510v-420h60v420z" fill="#dddddd"/><g fill="#e6e6e6"><path d="M397.5,119c-3.58985,0 -6.5,0 -6.5,0v-28c0,0 2.91015,0 6.5,0h15c3.58985,0 6.5,0 6.5,0v28c0,0 -2.91015,0 -6.5,0z"/><path d="M367.5,149c-3.58985,0 -6.5,0 -6.5,0v-28c0,0 2.91015,0 6.5,0h15c3.58985,0 6.5,0 6.5,0v28c0,0 -2.91015,0 -6.5,0z"/><path d="M397.5,179c-3.58985,0 -6.5,0 -6.5,0v-28c0,0 2.91015,0 6.5,0h15c3.58985,0 6.5,0 6.5,0v28c0,0 -2.91015,0 -6.5,0z"/><path d="M366.5,209c-3.58985,0 -6.5,0 -6.5,0v-28c0,0 2.91015,0 6.5,0h15c3.58985,0 6.5,0 6.5,0v28c0,0 -2.91015,0 -6.5,0z"/><path d="M396.5,239c-3.58985,0 -6.5,0 -6.5,0v-28c0,0 2.91015,0 6.5,0h15c3.58985,0 6.5,0 6.5,0v28c0,0 -2.91015,0 -6.5,0z"/><path d="M369.5,269c-3.58985,0 -6.5,0 -6.5,0v-28c0,0 2.91015,0 6.5,0h15c3.58985,0 6.5,0 6.5,0v28c0,0 -2.91015,0 -6.5,0z"/><path d="M399.5,299c-3.58985,0 -6.5,0 -6.5,0v-28c0,0 2.91015,0 6.5,0h15c3.58985,0 6.5,0 6.5,0v28c0,0 -2.91015,0 -6.5,0z"/><path d="M369.5,329c-3.58985,0 -6.5,0 -6.5,0v-28c0,0 2.91015,0 6.5,0h15c3.58985,0 6.5,0 6.5,0v28c0,0 -2.91015,0 -6.5,0z"/><path d="M399.5,359c-3.58985,0 -6.5,0 -6.5,0v-28c0,0 2.91015,0 6.5,0h15c3.58985,0 6.5,0 6.5,0v28c0,0 -2.91015,0 -6.5,0z"/></g></g><g><path d="M240,510v-450h60v450z" fill="#dddddd"/><g fill="#e6e6e6"><path d="M247.5,89c-3.58985,0 -6.5,0 -6.5,0v-28c0,0 2.91015,0 6.5,0h15c3.58985,0 6.5,0 6.5,0v28c0,0 -2.91015,0 -6.5,0z"/><path d="M277.5,119c-3.58985,0 -6.5,0 -6.5,0v-28c0,0 2.91015,0 6.5,0h15c3.58985,0 6.5,0 6.5,0v28c0,0 -2.91015,0 -6.5,0z"/><path d="M247.5,149c-3.58985,0 -6.5,0 -6.5,0v-28c0,0 2.91015,0 6.5,0h15c3.58985,0 6.5,0 6.5,0v28c0,0 -2.91015,0 -6.5,0z"/><path d="M277.5,179c-3.58985,0 -6.5,0 -6.5,0v-28c0,0 2.91015,0 6.5,0h15c3.58985,0 6.5,0 6.5,0v28c0,0 -2.91015,0 -6.5,0z"/><path d="M246.5,209c-3.58985,0 -6.5,0 -6.5,0v-28c0,0 2.91015,0 6.5,0h15c3.58985,0 6.5,0 6.5,0v28c0,0 -2.91015,0 -6.5,0z"/><path d="M276.5,239c-3.58985,0 -6.5,0 -6.5,0v-28c0,0 2.91015,0 6.5,0h15c3.58985,0 6.5,0 6.5,0v28c0,0 -2.91015,0 -6.5,0z"/><path d="M249.5,269c-3.58985,0 -6.5,0 -6.5,0v-28c0,0 2.91015,0 6.5,0h15c3.58985,0 6.5,0 6.5,0v28c0,0 -2.91015,0 -6.5,0z"/><path d="M279.5,299c-3.58985,0 -6.5,0 -6.5,0v-28c0,0 2.91015,0 6.5,0h15c3.58985,0 6.5,0 6.5,0v28c0,0 -2.91015,0 -6.5,0z"/><path d="M249.5,329c-3.58985,0 -6.5,0 -6.5,0v-28c0,0 2.91015,0 6.5,0h15c3.58985,0 6.5,0 6.5,0v28c0,0 -2.91015,0 -6.5,0z"/><path d="M279.5,359c-3.58985,0 -6.5,0 -6.5,0v-28c0,0 2.91015,0 6.5,0h15c3.58985,0 6.5,0 6.5,0v28c0,0 -2.91015,0 -6.5,0z"/></g></g><g><path d="M300,510v-450h60v450z" fill="#dddddd"/><g fill="#e6e6e6"><path d="M307.5,89c-3.58985,0 -6.5,0 -6.5,0v-28c0,0 2.91015,0 6.5,0h15c3.58985,0 6.5,0 6.5,0v28c0,0 -2.91015,0 -6.5,0z"/><path d="M337.5,119c-3.58985,0 -6.5,0 -6.5,0v-28c0,0 2.91015,0 6.5,0h15c3.58985,0 6.5,0 6.5,0v28c0,0 -2.91015,0 -6.5,0z"/><path d="M307.5,149c-3.58985,0 -6.5,0 -6.5,0v-28c0,0 2.91015,0 6.5,0h15c3.58985,0 6.5,0 6.5,0v28c0,0 -2.91015,0 -6.5,0z"/><path d="M337.5,179c-3.58985,0 -6.5,0 -6.5,0v-28c0,0 2.91015,0 6.5,0h15c3.58985,0 6.5,0 6.5,0v28c0,0 -2.91015,0 -6.5,0z"/><path d="M306.5,209c-3.58985,0 -6.5,0 -6.5,0v-28c0,0 2.91015,0 6.5,0h15c3.58985,0 6.5,0 6.5,0v28c0,0 -2.91015,0 -6.5,0z"/><path d="M336.5,239c-3.58985,0 -6.5,0 -6.5,0v-28c0,0 2.91015,0 6.5,0h15c3.58985,0 6.5,0 6.5,0v28c0,0 -2.91015,0 -6.5,0z"/><path d="M309.5,269c-3.58985,0 -6.5,0 -6.5,0v-28c0,0 2.91015,0 6.5,0h15c3.58985,0 6.5,0 6.5,0v28c0,0 -2.91015,0 -6.5,0z"/><path d="M339.5,299c-3.58985,0 -6.5,0 -6.5,0v-28c0,0 2.91015,0 6.5,0h15c3.58985,0 6.5,0 6.5,0v28c0,0 -2.91015,0 -6.5,0z"/><path d="M309.5,329c-3.58985,0 -6.5,0 -6.5,0v-28c0,0 2.91015,0 6.5,0h15c3.58985,0 6.5,0 6.5,0v28c0,0 -2.91015,0 -6.5,0z"/><path d="M339.5,359c-3.58985,0 -6.5,0 -6.5,0v-28c0,0 2.91015,0 6.5,0h15c3.58985,0 6.5,0 6.5,0v28c0,0 -2.91015,0 -6.5,0z"/></g></g><g><path d="M420,570v-450h60v450z" fill="#dddddd"/><g fill="#e6e6e6"><path d="M427.5,149c-3.58985,0 -6.5,0 -6.5,0v-28c0,0 2.91015,0 6.5,0h15c3.58985,0 6.5,0 6.5,0v28c0,0 -2.91015,0 -6.5,0z"/><path d="M457.5,179c-3.58985,0 -6.5,0 -6.5,0v-28c0,0 2.91015,0 6.5,0h15c3.58985,0 6.5,0 6.5,0v28c0,0 -2.91015,0 -6.5,0z"/><path d="M427.5,209c-3.58985,0 -6.5,0 -6.5,0v-28c0,0 2.91015,0 6.5,0h15c3.58985,0 6.5,0 6.5,0v28c0,0 -2.91015,0 -6.5,0z"/><path d="M457.5,239c-3.58985,0 -6.5,0 -6.5,0v-28c0,0 2.91015,0 6.5,0h15c3.58985,0 6.5,0 6.5,0v28c0,0 -2.91015,0 -6.5,0z"/><path d="M426.5,269c-3.58985,0 -6.5,0 -6.5,0v-28c0,0 2.91015,0 6.5,0h15c3.58985,0 6.5,0 6.5,0v28c0,0 -2.91015,0 -6.5,0z"/><path d="M456.5,299c-3.58985,0 -6.5,0 -6.5,0v-28c0,0 2.91015,0 6.5,0h15c3.58985,0 6.5,0 6.5,0v28c0,0 -2.91015,0 -6.5,0z"/><path d="M429.5,329c-3.58985,0 -6.5,0 -6.5,0v-28c0,0 2.91015,0 6.5,0h15c3.58985,0 6.5,0 6.5,0v28c0,0 -2.91015,0 -6.5,0z"/><path d="M459.5,359c-3.58985,0 -6.5,0 -6.5,0v-28c0,0 2.91015,0 6.5,0h15c3.58985,0 6.5,0 6.5,0v28c0,0 -2.91015,0 -6.5,0z"/></g></g></g></svg>