<svg version="1.1" xmlns="http://www.w3.org/2000/svg" xmlns:xlink="http://www.w3.org/1999/xlink" width="24.60303" height="31.03325" viewBox="0,0,24.60303,31.03325"><g transform="translate(-226.88903,-148.92133)"><g data-paper-data="{&quot;isPaintingLayer&quot;:true}" fill-rule="nonzero" stroke-linecap="butt" stroke-miterlimit="10" stroke-dasharray="" stroke-dashoffset="0" style="mix-blend-mode: normal"><path d="M231.79205,171.65458v-7h11v7z" fill="#000000" stroke="none" stroke-width="1" stroke-linejoin="miter"/><path d="M229.49205,178.95458v-7h21v7z" fill="#ff0000" stroke="#000000" stroke-width="2" stroke-linejoin="miter"/><g><g stroke="none" stroke-width="1" stroke-linejoin="miter"><path d="M250.22239,162.50618l-20.5444,4.35058l-1.65736,-7.82644c-0.6865,-3.24182 1.38499,-6.42635 4.62681,-7.11285l8.80474,-1.86453c3.24182,-0.6865 6.42635,1.38499 7.11285,4.62681z" fill="#ff7800"/><path d="M251.40787,163.27731l-22.50101,4.76492l-1.86453,-8.80474c-0.80092,-3.78212 1.61582,-7.49741 5.39794,-8.29833l8.80474,-1.86453c3.78212,-0.80092 7.49741,1.61582 8.29833,5.39794zM230.44913,165.67128l18.58779,-3.93624l-1.45019,-6.84813c-0.57209,-2.70152 -3.22586,-4.42776 -5.92738,-3.85567l-8.80474,1.86453c-2.70152,0.57209 -4.42776,3.22586 -3.85567,5.92738z" fill="#000000"/></g><path d="M239.61066,160.66466l-1.03585,-4.89152l4.89152,-1.03585l1.03585,4.89152z" fill="#ffffff" stroke="#ffffff" stroke-width="2" stroke-linejoin="round"/><path d="M241.3601,159.27202l-0.62151,-2.93491l2.93491,-0.62151l0.62151,2.93491z" fill="#000000" stroke="none" stroke-width="1" stroke-linejoin="miter"/></g></g></g></svg>