<svg version="1.1" xmlns="http://www.w3.org/2000/svg" xmlns:xlink="http://www.w3.org/1999/xlink" width="271.71476" height="91.3" viewBox="0,0,271.71476,91.3"><g transform="translate(-105.22523,-134.35)"><g data-paper-data="{&quot;isPaintingLayer&quot;:true}" fill-rule="nonzero" stroke-linecap="butt" stroke-linejoin="miter" stroke-miterlimit="10" stroke-dasharray="" stroke-dashoffset="0" style="mix-blend-mode: normal"><path d="M348.93,165.38c3.66,-5.28 5.16,-7.63 5.16,-9.72c0,-2.61 -2.16,-3.65 -5,-3.65c-3.26,0 -7.37,1.37 -10.17,2.61v-14.62c5.06165,-2.37455 10.57913,-3.61999 16.17,-3.65c13.7,0 18.86,7.76 18.86,14.94c0,7.43 -5.61,13 -11.22,17.87l0.06,0.13h10.5v15h-37.21l-0.06,-0.13z" fill="none" stroke="#ffffff" stroke-width="4"/><path d="M108.05,197.79h13.46l3,11.82h0.08l2.58,-11.82h8.51l2.64,11.82v0l3.09,-11.82h12.19l-9,25.47h-11.11l-2.63,-9.92h-0.08l-2.58,9.92h-11.18z" fill="none" stroke="#ffffff" stroke-width="4"/><path d="M160.71,197.79h12.06l11.68,25.47h-13.63l-1.06,-3.35h-7l-1.19,3.35h-12.55zM167.71,213.51l-1.35,-5.17h-0.04l-1.35,5.17z" fill="none" stroke="#ffffff" stroke-width="4"/><path d="M186.57,197.79h12.61v16.43h9.48v9h-22.09z" fill="none" stroke="#ffffff" stroke-width="4"/><path d="M211.97,197.79h12.61v16.43h9.48v9h-22.09z" fill="none" stroke="#ffffff" stroke-width="4"/><path d="M249.47,214.14c1.50761,0.55524 3.09431,0.86583 4.7,0.92c2.45,0 3.17,-1.27 3.17,-2.54v-14.73h12.62v15.13c0,3.58 -1.23,6.4 -3.47,8.12c-2.46,1.9 -5.93,2.6 -9.82,2.6c-2.45416,0.06952 -4.89872,-0.33451 -7.2,-1.19z" fill="none" stroke="#ffffff" stroke-width="4"/><path d="M273.6,211.68v-13.89h12.61v13.19c0,2.39 0.93,4.08 3.85,4.08c2.92,0 3.77,-1.48 3.77,-4v-13.27h11.34v13.75c0,3.91 -1.18,6.37 -2.79,8c-2.79,2.81 -7.87,4.11 -13.08,4.11c-5.38,0 -10.12,-1.4 -12.83,-4c-1.52,-1.51 -2.87,-3.82 -2.87,-7.97z" fill="none" stroke="#ffffff" stroke-width="4"/><path d="M308.86,197.79h11.76l6.1,6.4l5.88,-6.4h11.43v25.47h-12.61v-12.42h-0.1l-5.46,6l-5.59,-6h-0.08v12.42h-11.33z" fill="none" stroke="#ffffff" stroke-width="4"/><path d="M347.76,197.79h11.56c7.37,0 15.62,1.76 15.62,9c0,6.54 -6.6,9.18 -14.18,9.18h-0.42v7.25h-12.58zM360.71,209.54c2.16,0 3.17,-1 3.17,-2.15c0,-1.15 -1.05,-2.14 -3.17,-2.14h-0.34v4.29z" fill="none" stroke="#ffffff" stroke-width="4"/><path d="M348.93,165.38c3.66,-5.28 5.16,-7.63 5.16,-9.72c0,-2.61 -2.16,-3.65 -5,-3.65c-3.26,0 -7.37,1.37 -10.17,2.61v-14.62c5.06165,-2.37455 10.57913,-3.61999 16.17,-3.65c13.7,0 18.86,7.76 18.86,14.94c0,7.43 -5.61,13 -11.22,17.87l0.06,0.13h10.5v15h-37.21l-0.06,-0.13z" fill="#000000" stroke="none" stroke-width="1"/><path d="M108.05,197.79h13.46l3,11.82h0.08l2.58,-11.82h8.51l2.64,11.82v0l3.09,-11.82h12.19l-9,25.47h-11.11l-2.63,-9.92h-0.08l-2.58,9.92h-11.18z" fill="#000000" stroke="none" stroke-width="1"/><path d="M160.71,197.79h12.06l11.68,25.47h-13.63l-1.06,-3.35h-7l-1.19,3.35h-12.55zM167.71,213.51l-1.35,-5.17h-0.04l-1.35,5.17z" fill="#000000" stroke="none" stroke-width="1"/><path d="M186.57,197.79h12.61v16.43h9.48v9h-22.09z" fill="#000000" stroke="none" stroke-width="1"/><path d="M211.97,197.79h12.61v16.43h9.48v9h-22.09z" fill="#000000" stroke="none" stroke-width="1"/><path d="M249.47,214.14c1.50761,0.55524 3.09431,0.86583 4.7,0.92c2.45,0 3.17,-1.27 3.17,-2.54v-14.73h12.62v15.13c0,3.58 -1.23,6.4 -3.47,8.12c-2.46,1.9 -5.93,2.6 -9.82,2.6c-2.45416,0.06952 -4.89872,-0.33451 -7.2,-1.19z" fill="#000000" stroke="none" stroke-width="1"/><path d="M273.6,211.68v-13.89h12.61v13.19c0,2.39 0.93,4.08 3.85,4.08c2.92,0 3.77,-1.48 3.77,-4v-13.27h11.34v13.75c0,3.91 -1.18,6.37 -2.79,8c-2.79,2.81 -7.87,4.11 -13.08,4.11c-5.38,0 -10.12,-1.4 -12.83,-4c-1.52,-1.51 -2.87,-3.82 -2.87,-7.97z" fill="#000000" stroke="none" stroke-width="1"/><path d="M308.86,197.79h11.76l6.1,6.4l5.88,-6.4h11.43v25.47h-12.61v-12.42h-0.1l-5.46,6l-5.59,-6h-0.08v12.42h-11.33z" fill="#000000" stroke="none" stroke-width="1"/><path d="M347.76,197.79h11.56c7.37,0 15.62,1.76 15.62,9c0,6.54 -6.6,9.18 -14.18,9.18h-0.42v7.25h-12.58zM360.71,209.54c2.16,0 3.17,-1 3.17,-2.15c0,-1.15 -1.05,-2.14 -3.17,-2.14h-0.34v4.29z" fill="#000000" stroke="none" stroke-width="1"/><path d="M110.39,137.09956h19.44v30.46h14.61v16.77h-34z" fill="none" stroke="#ffffff" stroke-width="4"/><path d="M149.52,137.09956h34v15.78h-14.56v2.55h11.74v11.22h-11.74v2.67h15.46v15h-34.9z" fill="none" stroke="#ffffff" stroke-width="4"/><path d="M186.77,137.09956h21l7,25h0.13l7.44,-25h19l-18.07,47.23h-18.43z" fill="none" stroke="#ffffff" stroke-width="4"/><path d="M244.56,137.09956h34v15.78h-14.56v2.55h11.74v11.22h-11.74v2.67h15.46v15h-34.9z" fill="none" stroke="#ffffff" stroke-width="4"/><path d="M284.29,137.09956h19.44v30.46h14.61v16.77h-34.05z" fill="none" stroke="#ffffff" stroke-width="4"/><path d="M110.39,137.09956h19.44v30.46h14.61v16.77h-34z" fill="#000000" stroke="none" stroke-width="1"/><path d="M149.52,137.09956h34v15.78h-14.56v2.55h11.74v11.22h-11.74v2.67h15.46v15h-34.9z" fill="#000000" stroke="none" stroke-width="1"/><path d="M186.77,137.09956h21l7,25h0.13l7.44,-25h19l-18.07,47.23h-18.43z" fill="#000000" stroke="none" stroke-width="1"/><path d="M244.56,137.09956h34v15.78h-14.56v2.55h11.74v11.22h-11.74v2.67h15.46v15h-34.9z" fill="#000000" stroke="none" stroke-width="1"/><path d="M284.29,137.09956h19.44v30.46h14.61v16.77h-34.05z" fill="#000000" stroke="none" stroke-width="1"/></g></g></svg>