<svg version="1.1" xmlns="http://www.w3.org/2000/svg" xmlns:xlink="http://www.w3.org/1999/xlink" width="47" height="27" viewBox="0,0,47,27"><g transform="translate(-195,-178)"><g data-paper-data="{&quot;isPaintingLayer&quot;:true}" fill-rule="nonzero" stroke-linecap="butt" stroke-miterlimit="10" stroke-dasharray="" stroke-dashoffset="0" style="mix-blend-mode: normal"><g data-paper-data="{&quot;index&quot;:null}"><path d="M238,203l-7,-12l9,-2z" fill="none" stroke="#000000" stroke-width="4" stroke-linejoin="round"/><path d="M238,203l-7,-12l9,-2z" fill="#b3b3b3" stroke="none" stroke-width="1" stroke-linejoin="miter"/></g><g data-paper-data="{&quot;index&quot;:null}" stroke="none" stroke-width="1" stroke-linejoin="miter"><path d="M242,187c0,4.41828 -3.58172,8 -8,8h-22.06c-0.50408,4.00104 -3.90733,7.00138 -7.94,7h-9v-24h47zM199,198h5c2.20914,0 4,-1.79086 4,-4v-3h26c2.20914,0 4,-1.79086 4,-4v-5h-39z" fill="#000000"/><path d="M234,193h-24v1c0,3.31371 -2.68629,6 -6,6h-7v-20h43v7c0,3.31371 -2.68629,6 -6,6z" fill="#00a99d"/></g><path d="M237,183v5h-5v-5z" data-paper-data="{&quot;index&quot;:null}" fill="#ffffff" stroke="#ffffff" stroke-width="2" stroke-linejoin="round"/><path d="M237,183v3h-3v-3z" data-paper-data="{&quot;index&quot;:null}" fill="#000000" stroke="none" stroke-width="1" stroke-linejoin="miter"/><path d="M227,180v13h-5v-13z" data-paper-data="{&quot;index&quot;:null}" fill="#008279" stroke="none" stroke-width="1" stroke-linejoin="miter"/><path d="M217,180v13h-5v-13z" data-paper-data="{&quot;index&quot;:null}" fill="#008279" stroke="none" stroke-width="1" stroke-linejoin="miter"/><path d="M210,193h-5l-3,-13h5z" data-paper-data="{&quot;index&quot;:null}" fill="#008279" stroke="none" stroke-width="1" stroke-linejoin="miter"/></g></g></svg>