<svg version="1.1" xmlns="http://www.w3.org/2000/svg" xmlns:xlink="http://www.w3.org/1999/xlink" width="20" height="22" viewBox="0,0,20,22"><g transform="translate(-230,-168)"><g data-paper-data="{&quot;isPaintingLayer&quot;:true}" fill-rule="nonzero" stroke-linecap="butt" stroke-miterlimit="10" stroke-dasharray="" stroke-dashoffset="0" style="mix-blend-mode: normal"><path d="M249,179.11001c0,6.89 -4,9.89 -9,9.89c-5,0 -9,-3 -9,-9.89c0,-6.11 6,-8.11 9,-6.11c3,-2 9,0 9,6.11z" fill="#ffff24" stroke="#000000" stroke-width="2" stroke-linejoin="round"/><path d="M241.5,168.00001c0,1.25 -1.5,5 -1.5,5" fill="none" stroke="#000000" stroke-width="2" stroke-linejoin="round"/><path d="M233,177.00001c0,-1.65685 1.34315,-3 3,-3c1.65685,0 3,1.34315 3,3c0,1.65685 -1.34315,3 -3,3c-1.65685,0 -3,-1.34315 -3,-3z" fill="#ffffff" stroke="none" stroke-width="1" stroke-linejoin="miter"/></g></g></svg>