<svg version="1.1" xmlns="http://www.w3.org/2000/svg" xmlns:xlink="http://www.w3.org/1999/xlink" width="187" height="136.58" viewBox="0,0,187,136.58"><g transform="translate(-146.57,-72)"><g data-paper-data="{&quot;isPaintingLayer&quot;:true}" fill-rule="nonzero" stroke-miterlimit="10" stroke-dasharray="" stroke-dashoffset="0" style="mix-blend-mode: normal"><g fill="none" stroke-linecap="round" stroke-linejoin="round"><path d="M191.89,204.58l15.94,-120.06l37.98,25.88" stroke="#000000" stroke-width="8"/><path d="M191.89,204.58l15.94,-120.06l37.98,25.88" stroke="#b3b3b3" stroke-width="4"/></g><g fill="none" stroke-linecap="round" stroke-linejoin="round"><path d="M233.97,110.4l37.98,-25.88l15.94,120.06" stroke="#000000" stroke-width="8"/><path d="M233.97,110.4l37.98,-25.88l15.94,120.06" stroke="#b3b3b3" stroke-width="4"/></g><g fill="none" stroke-linecap="round" stroke-linejoin="round"><path d="M172.7,204.36l25.92,-118.31l35.69,28.97" stroke="#000000" stroke-width="8"/><path d="M172.7,204.36l25.92,-118.31l35.69,28.97" stroke="#b3b3b3" stroke-width="4"/></g><g fill="none" stroke-linecap="round" stroke-linejoin="round"><path d="M150.57,204.02l38,-115l32.5,32.5" stroke="#000000" stroke-width="8"/><path d="M150.57,204.02l38,-115l32.5,32.5" stroke="#b3b3b3" stroke-width="4"/></g><g fill="none" stroke-linecap="round" stroke-linejoin="round"><path d="M246.09,115.02l35.69,-28.97l25.92,118.31" stroke="#000000" stroke-width="8"/><path d="M246.09,115.02l35.69,-28.97l25.92,118.31" stroke="#b3b3b3" stroke-width="4"/></g><g fill="none" stroke-linecap="round" stroke-linejoin="round"><path d="M259.07,121.52l32.5,-32.5l38,115" stroke="#000000" stroke-width="8"/><path d="M259.07,121.52l32.5,-32.5l38,115" stroke="#b3b3b3" stroke-width="4"/></g><g stroke-linecap="butt"><path d="M209,136v-62h62v62z" fill="none" stroke="#000000" stroke-width="4" stroke-linejoin="round"/><path d="M209,136v-62h62v62z" fill="#39b54a" stroke="none" stroke-width="1" stroke-linejoin="miter"/></g><path d="M218,127v-44h44v44z" fill="#3ac54d" stroke="none" stroke-width="1" stroke-linecap="butt" stroke-linejoin="miter"/><path d="M262,127h-44v-23l22,7l22,-7z" fill="#ffffff" stroke="none" stroke-width="1" stroke-linecap="butt" stroke-linejoin="miter"/><path d="M224,127v-9h9v9z" fill="#000000" stroke="none" stroke-width="1" stroke-linecap="butt" stroke-linejoin="miter"/><path d="M247,127v-9h9v9z" fill="#000000" stroke="none" stroke-width="1" stroke-linecap="butt" stroke-linejoin="miter"/><g stroke-linecap="butt"><path d="M254.09,138h16l-8,16z" fill="none" stroke="#000000" stroke-width="4" stroke-linejoin="round"/><path d="M254.09,138h16l-8,16z" fill="#b3b3b3" stroke="none" stroke-width="1" stroke-linejoin="miter"/></g><g stroke-linecap="butt"><path d="M210.09,138h16l-8,16z" fill="none" stroke="#000000" stroke-width="4" stroke-linejoin="round"/><path d="M210.09,138h16l-8,16z" fill="#b3b3b3" stroke="none" stroke-width="1" stroke-linejoin="miter"/></g><g stroke-linecap="butt"><path d="M232.09,138h16l-8,16z" fill="none" stroke="#000000" stroke-width="4" stroke-linejoin="round"/><path d="M232.09,138h16l-8,16z" fill="#b3b3b3" stroke="none" stroke-width="1" stroke-linejoin="miter"/></g></g></g></svg>