<svg id="Layer_1" data-name="Layer 1" xmlns="http://www.w3.org/2000/svg" viewBox="0 0 480 360"><defs><style>.cls-1{fill:none;stroke:#fff;stroke-width:4px;}</style></defs><path class="cls-1" d="M103,127.93h19.44v30.46h14.61v16.77H103Z"/><path class="cls-1" d="M142.16,127.93h34v15.78H161.6v2.55h11.74v11.22H161.6v2.67h15.46v15h-34.9Z"/><path class="cls-1" d="M179.4,127.93h21l7,25h.13l7.43-25h19l-18.07,47.23h-18.4Z"/><path class="cls-1" d="M237.2,127.93h34v15.78H256.63v2.55h11.75v11.22H256.63v2.67h15.46v15H237.2Z"/><path class="cls-1" d="M276.92,127.93h19.44v30.46H311v16.77H276.92Z"/><path class="cls-1" d="M343.45,149.65v-.13c-4.24-1.44-7.17-4.63-7.17-9.2,0-7.7,8.54-13.11,20-13.11s20,5.41,20,13.11c0,4.57-2.94,7.76-7.18,9.2v.13c5.61,1.76,9.07,6,9.07,11.55,0,9.26-9.59,14.67-21.92,14.67s-21.91-5.41-21.91-14.67C334.39,155.65,337.84,151.41,343.45,149.65Zm12.85,13.18a3.23,3.23,0,1,0-3.26-3.2A3.22,3.22,0,0,0,356.3,162.83Zm3.13-18.59a3.13,3.13,0,1,0-3.13,3.06A3.09,3.09,0,0,0,359.43,144.24Z"/><path class="cls-1" d="M104.36,188.65h12.16c6.1,0,14.42,1.3,14.42,8.09a6.93,6.93,0,0,1-3.73,6L134,214.12H121.15l-4.42-8.37h-.17v8.37h-12.2Zm13.1,11.26c1.93,0,2.79-.88,2.79-2s-.9-1.94-2.79-1.94h-.9v3.91Z"/><path class="cls-1" d="M135.24,188.65h21.34v8.51h-9.14v1.38h7.37v6h-7.37V206h9.71v8.09H135.24Z"/><path class="cls-1" d="M160.26,203.78a23.15,23.15,0,0,0,9.75,3c1.23,0,1.51-.42,1.51-.84s-.37-.71-.9-.81c-1.43-.32-5.57-.71-8.6-3a6.32,6.32,0,0,1-2.62-5.31c0-5.1,4.59-8.58,12.08-8.58a28.84,28.84,0,0,1,10.57,2v8.34a26.4,26.4,0,0,0-9-2.26c-1.19,0-1.52.39-1.52.78s.45.74.94.88c1.23.31,5.33.74,8.24,2.71a6.37,6.37,0,0,1,3,5.48c0,4.89-4.59,8.3-12.37,8.3a30,30,0,0,1-11.1-2.07Z"/><path class="cls-1" d="M186.3,188.65h12.21v25.47H186.3Z"/><path class="cls-1" d="M202.19,203.78a23.18,23.18,0,0,0,9.75,3c1.23,0,1.52-.42,1.52-.84s-.37-.71-.9-.81c-1.44-.32-5.57-.71-8.6-3a6.33,6.33,0,0,1-2.63-5.31c0-5.1,4.59-8.58,12.09-8.58a28.79,28.79,0,0,1,10.56,2v8.34a26.35,26.35,0,0,0-9-2.26c-1.18,0-1.51.39-1.51.78s.45.74.94.88c1.23.31,5.32.74,8.23,2.71a6.35,6.35,0,0,1,3,5.48c0,4.89-4.59,8.3-12.37,8.3a30,30,0,0,1-11.1-2.07Z"/><path class="cls-1" d="M234.75,197.3h-8.27v-8.65h28.75v8.65H247v16.82H234.75Z"/><path class="cls-1" d="M262.84,188.65h11.68l11.3,25.47H272.63l-1-3.34h-6.8l-1.15,3.34H251.54Zm6.8,15.72-1.31-5.17h-.08l-1.31,5.17Z"/><path class="cls-1" d="M287.87,188.65H299l8.72,10.87.08,0V188.65h11v25.47h-11.1l-8.73-10.87-.08,0v10.84h-11Z"/><path class="cls-1" d="M339,188.27a24.21,24.21,0,0,1,8.72,1.47v9.39a19,19,0,0,0-7.37-1.61c-4.18,0-6.43,1.72-6.43,4.07s2.25,4,6.43,4a17.91,17.91,0,0,0,7.53-1.69v9a24.25,24.25,0,0,1-9,1.58c-9.91,0-17.16-5.55-17.16-13.12S328.9,188.27,339,188.27Z"/><path class="cls-1" d="M351.22,188.65h21.34v8.51h-9.14v1.38h7.38v6h-7.38V206h9.71v8.09H351.22Z"/><path d="M103,127.93h19.44v30.46h14.61v16.77H103Z"/><path d="M142.16,127.93h34v15.78H161.6v2.55h11.74v11.22H161.6v2.67h15.46v15h-34.9Z"/><path d="M179.4,127.93h21l7,25h.13l7.43-25h19l-18.07,47.23h-18.4Z"/><path d="M237.2,127.93h34v15.78H256.63v2.55h11.75v11.22H256.63v2.67h15.46v15H237.2Z"/><path d="M276.92,127.93h19.44v30.46H311v16.77H276.92Z"/><path d="M343.45,149.65v-.13c-4.24-1.44-7.17-4.63-7.17-9.2,0-7.7,8.54-13.11,20-13.11s20,5.41,20,13.11c0,4.57-2.94,7.76-7.18,9.2v.13c5.61,1.76,9.07,6,9.07,11.55,0,9.26-9.59,14.67-21.92,14.67s-21.91-5.41-21.91-14.67C334.39,155.65,337.84,151.41,343.45,149.65Zm12.85,13.18a3.23,3.23,0,1,0-3.26-3.2A3.22,3.22,0,0,0,356.3,162.83Zm3.13-18.59a3.13,3.13,0,1,0-3.13,3.06A3.09,3.09,0,0,0,359.43,144.24Z"/><path d="M104.36,188.65h12.16c6.1,0,14.42,1.3,14.42,8.09a6.93,6.93,0,0,1-3.73,6L134,214.12H121.15l-4.42-8.37h-.17v8.37h-12.2Zm13.1,11.26c1.93,0,2.79-.88,2.79-2s-.9-1.94-2.79-1.94h-.9v3.91Z"/><path d="M135.24,188.65h21.34v8.51h-9.14v1.38h7.37v6h-7.37V206h9.71v8.09H135.24Z"/><path d="M160.26,203.78a23.15,23.15,0,0,0,9.75,3c1.23,0,1.51-.42,1.51-.84s-.37-.71-.9-.81c-1.43-.32-5.57-.71-8.6-3a6.32,6.32,0,0,1-2.62-5.31c0-5.1,4.59-8.58,12.08-8.58a28.84,28.84,0,0,1,10.57,2v8.34a26.4,26.4,0,0,0-9-2.26c-1.19,0-1.52.39-1.52.78s.45.74.94.88c1.23.31,5.33.74,8.24,2.71a6.37,6.37,0,0,1,3,5.48c0,4.89-4.59,8.3-12.37,8.3a30,30,0,0,1-11.1-2.07Z"/><path d="M186.3,188.65h12.21v25.47H186.3Z"/><path d="M202.19,203.78a23.18,23.18,0,0,0,9.75,3c1.23,0,1.52-.42,1.52-.84s-.37-.71-.9-.81c-1.44-.32-5.57-.71-8.6-3a6.33,6.33,0,0,1-2.63-5.31c0-5.1,4.59-8.58,12.09-8.58a28.79,28.79,0,0,1,10.56,2v8.34a26.35,26.35,0,0,0-9-2.26c-1.18,0-1.51.39-1.51.78s.45.74.94.88c1.23.31,5.32.74,8.23,2.71a6.35,6.35,0,0,1,3,5.48c0,4.89-4.59,8.3-12.37,8.3a30,30,0,0,1-11.1-2.07Z"/><path d="M234.75,197.3h-8.27v-8.65h28.75v8.65H247v16.82H234.75Z"/><path d="M262.84,188.65h11.68l11.3,25.47H272.63l-1-3.34h-6.8l-1.15,3.34H251.54Zm6.8,15.72-1.31-5.17h-.08l-1.31,5.17Z"/><path d="M287.87,188.65H299l8.72,10.87.08,0V188.65h11v25.47h-11.1l-8.73-10.87-.08,0v10.84h-11Z"/><path d="M339,188.27a24.21,24.21,0,0,1,8.72,1.47v9.39a19,19,0,0,0-7.37-1.61c-4.18,0-6.43,1.72-6.43,4.07s2.25,4,6.43,4a17.91,17.91,0,0,0,7.53-1.69v9a24.25,24.25,0,0,1-9,1.58c-9.91,0-17.16-5.55-17.16-13.12S328.9,188.27,339,188.27Z"/><path d="M351.22,188.65h21.34v8.51h-9.14v1.38h7.38v6h-7.38V206h9.71v8.09H351.22Z"/></svg>