<svg id="Layer_1" data-name="Layer 1" xmlns="http://www.w3.org/2000/svg" viewBox="0 0 480 360"><defs><style>.cls-1{opacity:0.35;}.cls-2{fill-opacity:0.25;}.cls-3{fill:#ffff1f;}.cls-3,.cls-4,.cls-5,.cls-6{stroke:#000;stroke-miterlimit:10;stroke-width:2px;}.cls-4{fill:#0f5;}.cls-5{fill:none;}.cls-7{fill:#fff;}</style></defs><rect class="cls-1" width="480" height="360"/><path class="cls-2" d="M144.92,58.88l-27.29,49.54h22.44l1.88-4.78h11.29l-.18,4.78H175.5l-5.87-49.54Zm9.48,17L154.31,88h-6.65l5.13-12.07a26.52,26.52,0,0,0,1.38-4.31h.72A23.53,23.53,0,0,0,154.4,75.89Zm53.5-17H185.57l-7.06,49.54h20.13l1.06-11h3.86c15.53,0,23-7.51,23.47-20.54C227.39,65.89,220.88,58.88,207.9,58.88Zm.43,18.4c-.28,3.57-1.93,5.54-5,5.54H200.8l1-10.49h2.62C207.12,72.33,208.59,74.06,208.33,77.28Zm44.78-18.4H230.79l-1.23,49.54h20.13l-.24-11h3.87c15.52,0,22.15-7.51,21.05-20.54C273.44,65.89,266.1,58.88,253.11,58.88Zm-1.73,23.94h-2.54l-.22-10.49h2.62c2.68,0,4.35,1.73,4.47,5C255.85,80.85,254.43,82.82,251.38,82.82ZM363,108.42H326.14l-9.8-49.54h17.83l7.51,30.71h16Zm-48.93-38H278.28L277.19,59h34.75Zm1.1,6,5.9,31.65H281.89l-3-31.65Zm-27.84-5.11h17.11l.69,4.25h-17.3Z"/><path class="cls-3" d="M142.44,100.44l.2-5.36H130l-2.12,5.36H102.69L133.3,44.87H161l6.58,55.57ZM143.94,64a26.29,26.29,0,0,1,.55-4.84h-.82A30.26,30.26,0,0,1,142.13,64l-5.75,13.53h7.46Z"/><path class="cls-3" d="M171,100.44l7.92-55.57h25c14.57,0,21.87,7.86,21.46,20.2-.48,14.61-8.91,23-26.32,23h-4.34l-1.18,12.33Zm27.86-28.72c3.43,0,5.28-2.21,5.59-6.22.29-3.6-1.35-5.55-4.36-5.55h-2.94L196,71.72Z"/><path class="cls-3" d="M228.25,100.44l1.38-55.57h25c14.57,0,22.8,7.86,23.84,20.2,1.24,14.61-6.19,23-23.61,23h-4.33l.26,12.33Zm24.47-28.72c3.43,0,5-2.21,4.87-6.22-.14-3.6-2-5.55-5-5.55h-2.94l.25,11.77Z"/><path class="cls-3" d="M336.6,100.44l-11-55.57h20L354,79.31h18l6,21.13Z"/><polygon class="cls-4" points="323.05 57.76 320.67 44.98 281.68 44.98 282.91 57.76 323.05 57.76"/><polygon class="cls-3" points="283.55 64.44 286.95 99.94 330.91 99.94 324.29 64.44 283.55 64.44"/><line class="cls-5" x1="322.26" y1="84.67" x2="296.13" y2="84.67"/><polygon class="cls-6" points="313.02 63.47 293.62 63.47 293.05 58.7 312.25 58.7 313.02 63.47"/><polygon class="cls-7" points="310.35 76.36 320.81 76.36 318.9 65.41 308.69 65.41 310.35 76.36"/><polygon points="319.34 73.32 315.56 73.32 314.91 69.33 318.65 69.33 319.34 73.32"/><polygon class="cls-7" points="289.44 76.36 299.9 76.36 298.49 65.41 288.28 65.41 289.44 76.36"/><polygon points="298.56 73.32 294.79 73.32 294.31 69.33 298.06 69.33 298.56 73.32"/></svg>