<svg version="1.1" xmlns="http://www.w3.org/2000/svg" xmlns:xlink="http://www.w3.org/1999/xlink" width="19" height="21" viewBox="0,0,19,21"><g transform="translate(-231.5,-169)"><g data-paper-data="{&quot;isPaintingLayer&quot;:true}" fill-rule="nonzero" stroke="none" stroke-linecap="butt" stroke-linejoin="miter" stroke-miterlimit="10" stroke-dasharray="" stroke-dashoffset="0" style="mix-blend-mode: normal"><path d="M240.91591,180c1.74,0 2.68,1 2.68,2.27c-0.00041,0.79013 -0.33823,1.54247 -0.92847,2.06776c-0.59023,0.52529 -1.3767,0.77352 -2.16153,0.68224c-0.7724,0.00053 -1.53721,-0.15243 -2.25,-0.45l0.17,-1.55c0.6275,0.29749 1.30667,0.47067 2,0.51c0.86,0 1.37,-0.41 1.37,-1.1c0,-0.69 -0.44,-1.08 -1.55,-1.08c-0.50912,-0.00456 -1.01564,0.0731 -1.5,0.23l-0.25,-0.29l0.52,-4.27h4.39v1.51h-2.91l-0.21,1.5c0.15,0.03 0.3,-0.03 0.63,-0.03z" fill="#000000" stroke-width="1"/><path d="M231.5,190v-21h19v21z" fill="none" stroke-width="0"/></g></g></svg>