<svg version="1.1" xmlns="http://www.w3.org/2000/svg" xmlns:xlink="http://www.w3.org/1999/xlink" width="19" height="21" viewBox="0,0,19,21"><g transform="translate(-231.5,-169)"><g data-paper-data="{&quot;isPaintingLayer&quot;:true}" fill-rule="nonzero" stroke="none" stroke-linecap="butt" stroke-linejoin="miter" stroke-miterlimit="10" stroke-dasharray="" stroke-dashoffset="0" style="mix-blend-mode: normal"><path d="M243.76091,182.61c0,1.55 -1.41,2.45 -3.08,2.45c-0.81395,0.00659 -1.61721,-0.18564 -2.34,-0.56l0.21,-1.5c0.61023,0.353 1.29588,0.55527 2,0.59c0.83,0 1.35,-0.33 1.35,-1c0,-0.67 -0.44,-0.92 -1.36,-1c-0.33441,-0.00701 -0.66883,0.01306 -1,0.06v-1.23c1.06,-0.2 2,-0.43 2,-1.23c0,-0.5 -0.37,-0.79 -1.1,-0.79c-0.61587,0.04183 -1.20483,0.26836 -1.69,0.65l-0.41,-1.34c0.74069,-0.53849 1.63427,-0.82584 2.55,-0.82c1.51,0 2.63,0.78 2.63,2c-0.0408,0.88533 -0.6594,1.63823 -1.52,1.85c0.97641,0.08597 1.73331,0.89018 1.76,1.87z" fill="#000000" stroke-width="1"/><path d="M231.5,190v-21h19v21z" fill="none" stroke-width="0"/></g></g></svg>