<svg version="1.1" xmlns="http://www.w3.org/2000/svg" xmlns:xlink="http://www.w3.org/1999/xlink" width="126" height="126" viewBox="0,0,126,126"><g transform="translate(-177,-117)"><g data-paper-data="{&quot;isPaintingLayer&quot;:true}" fill-rule="nonzero" stroke-linecap="butt" stroke-miterlimit="10" stroke-dasharray="" stroke-dashoffset="0" style="mix-blend-mode: normal"><g><path d="M179,241v-122h122v122z" fill="none" stroke="#000000" stroke-width="4" stroke-linejoin="round"/><path d="M179,241v-122h122v122z" fill="#39b54a" stroke="none" stroke-width="1" stroke-linejoin="miter"/></g><path d="M188,232v-14h44v14z" fill="#3ac54d" stroke="none" stroke-width="1" stroke-linejoin="miter"/><path d="M248,232v-14h44v14z" fill="#3ac54d" stroke="none" stroke-width="1" stroke-linejoin="miter"/><path d="M188,142v-14h44v14z" fill="#3ac54d" stroke="none" stroke-width="1" stroke-linejoin="miter"/><path d="M248,142v-14h44v14z" fill="#3ac54d" stroke="none" stroke-width="1" stroke-linejoin="miter"/><path d="M218,202v-44h44v44z" fill="#ffffff" stroke="none" stroke-width="1" stroke-linejoin="miter"/><path d="M188,202v-14h14v14z" fill="#3ac54d" stroke="none" stroke-width="1" stroke-linejoin="miter"/><path d="M278,202v-14h14v14z" fill="#3ac54d" stroke="none" stroke-width="1" stroke-linejoin="miter"/><path d="M188,172v-14h14v14z" fill="#3ac54d" stroke="none" stroke-width="1" stroke-linejoin="miter"/><path d="M233,187v-14h14v14z" fill="#000000" stroke="none" stroke-width="1" stroke-linejoin="miter"/><path d="M278,172v-14h14v14z" fill="#3ac54d" stroke="none" stroke-width="1" stroke-linejoin="miter"/></g></g></svg>