<svg version="1.1" xmlns="http://www.w3.org/2000/svg" xmlns:xlink="http://www.w3.org/1999/xlink" width="44.8906" height="38.36842" viewBox="0,0,44.8906,38.36842"><g transform="translate(-219.6094,-160.5)"><g data-paper-data="{&quot;isPaintingLayer&quot;:true}" fill-rule="nonzero" stroke-linecap="butt" stroke-linejoin="miter" stroke-miterlimit="10" stroke-dasharray="" stroke-dashoffset="0" style="mix-blend-mode: normal"><g><path d="M252.5,180.5h6c2.20914,0 4,1.79086 4,4v4h-10z" fill="none" stroke="#000000" stroke-width="4"/><path d="M252.5,180.5h6c2.20914,0 4,1.79086 4,4v4h-10z" fill="#ff8b00" stroke="none" stroke-width="1"/></g><path d="M244.5,182.5v-22h12v22z" fill="#000000" stroke="none" stroke-width="1"/><path d="M239.82,198.86842h-3.64c-7.82228,-0.02197 -14.15803,-6.35772 -14.18,-14.18v-2.64c0,-7.8 6.38,-15.18 14.18,-15.18h3.64c7.8,0 14.18,7.38 14.18,15.18v2.64c-0.02197,7.82228 -6.35772,14.15803 -14.18,14.18z" fill="#000000" stroke="none" stroke-width="1"/><path d="M239.50806,183.67477c-0.87113,0.55688 -1.92888,0.74203 -2.93736,0.51415l-13.93951,-3.11681c-2.08962,-0.47442 -3.39902,-2.55297 -2.92469,-4.64261l0.30424,-1.37475c0.22297,-1.00625 0.8391,-1.88154 1.71115,-2.43091c0.87205,-0.54936 1.92758,-0.72715 2.93147,-0.49378l3.03066,0.67049l10.89345,2.40807c1.005,0.22564 1.87905,0.84162 2.42952,1.71222c0.55046,0.8706 0.73216,1.92435 0.50506,2.92903l-0.30424,1.37475c-0.21654,1.01099 -0.82863,1.89328 -1.69975,2.45016z" data-paper-data="{&quot;index&quot;:null}" fill="#000000" stroke="none" stroke-width="1"/><path d="M235,171.36842v-4h13v4z" fill="#000000" stroke="none" stroke-width="1"/><g><path d="M248.5,180.5v-16h6v16z" fill="none" stroke="#000000" stroke-width="4"/><path d="M248.5,180.5v-16h6v16z" fill="#ffffff" stroke="none" stroke-width="1"/></g><path d="M250.5,176.5v-4h4v4z" fill="#000000" stroke="none" stroke-width="1"/><path d="M250.5,180.5h7.23c2.63,0 4.77,1.78 4.77,4v4h-12z" fill="#ff8b00" stroke="none" stroke-width="1"/></g></g></svg>