<svg xmlns="http://www.w3.org/2000/svg" viewBox="0 0 153 41"><defs><style>.cls-1{opacity:0.1;}.cls-2{fill:#fff;opacity:0.95;}</style></defs><g id="Explosion"><path class="cls-1" d="M146.65,41H6.35A6.37,6.37,0,0,1,0,34.65V8.35A6.37,6.37,0,0,1,6.35,2h140.3A6.37,6.37,0,0,1,153,8.35v26.3A6.37,6.37,0,0,1,146.65,41Z"/><path class="cls-2" d="M146.65,39H6.35A6.37,6.37,0,0,1,0,32.65V6.35A6.37,6.37,0,0,1,6.35,0h140.3A6.37,6.37,0,0,1,153,6.35v26.3A6.37,6.37,0,0,1,146.65,39Z"/><path d="M61.09,22.82c0-.75-.81-1-2.3-1.42s-3.62-1.21-3.62-3.46c0-2.09,1.53-3.47,4.32-3.47a8.54,8.54,0,0,1,4.22,1l-.56,2.36a8.29,8.29,0,0,0-3.64-1c-1,0-1.48.34-1.48,1s1,1,2.38,1.41c1.73.46,3.53,1.26,3.53,3.4s-1.66,3.65-4.61,3.65a9.3,9.3,0,0,1-4.34-1l.54-2.38a8.31,8.31,0,0,0,3.85,1C60.39,23.88,61.09,23.51,61.09,22.82Z"/><path d="M76.74,26H73.89l-.83-2.39H68.89L68.08,26H65.23l4-11.25h3.58Zm-5.75-9L69.5,21.35h2.93Z"/><path d="M83.85,26H80.26l-3.8-11.25h3l2.66,8.48,2.65-8.48h3Z"/><path d="M89.53,26V14.72h8.23V17H92.34v2.17H96.7v2.28H92.34v2.2h5.42V26Z"/></g></svg>