<svg version="1.1" xmlns="http://www.w3.org/2000/svg" xmlns:xlink="http://www.w3.org/1999/xlink" width="153" height="41" viewBox="0,0,153,41"><g transform="translate(-163.5,-159.5)"><g data-paper-data="{&quot;isPaintingLayer&quot;:true}" fill-rule="nonzero" stroke="none" stroke-width="1" stroke-linecap="butt" stroke-linejoin="miter" stroke-miterlimit="10" stroke-dasharray="" stroke-dashoffset="0" style="mix-blend-mode: normal"><path d="M310.15,200.5h-140.3c-3.50245,-0.01098 -6.33902,-2.84755 -6.35,-6.35v-26.3c0.01098,-3.50245 2.84755,-6.33902 6.35,-6.35h140.3c3.50245,0.01098 6.33902,2.84755 6.35,6.35v26.3c-0.01098,3.50245 -2.84755,6.33902 -6.35,6.35z" fill="#000000" opacity="0.1"/><path d="M310.15,198.5h-140.3c-3.50245,-0.01098 -6.33902,-2.84755 -6.35,-6.35v-26.3c0.01098,-3.50245 2.84755,-6.33902 6.35,-6.35h140.3c3.50245,0.01098 6.33902,2.84755 6.35,6.35v26.3c-0.01098,3.50245 -2.84755,6.33902 -6.35,6.35z" fill="#ffff87" opacity="0.95"/><path d="M203.41,176.5c-0.85965,-0.52189 -1.84437,-0.80176 -2.85,-0.81c-0.89991,-0.03424 -1.77023,0.32455 -2.38457,0.98304c-0.61433,0.65849 -0.91195,1.55158 -0.81543,2.44696c0,2.15 1.19,3.5 3.22,3.5c1.0692,-0.00175 2.11364,-0.32204 3,-0.92l0.6,2.54c-1.15422,0.54176 -2.41499,0.81852 -3.69,0.81c-3.6,0 -6,-2.07 -6,-5.85c0,-3.78 2.36,-5.95 6.07,-5.95c1.28758,0.00489 2.55807,0.29519 3.72,0.85z" fill="#000000"/><path d="M211.62,185.01c-1.58825,0.11098 -3.14666,-0.47173 -4.27247,-1.59753c-1.1258,-1.1258 -1.70851,-2.68421 -1.59753,-4.27247c-0.07123,-1.58823 0.52643,-3.13363 1.64776,-4.26065c1.12133,-1.12703 2.66367,-1.73252 4.25224,-1.66935c3.35,0 5.89,2.06 5.89,5.86c0.06527,1.59099 -0.53677,3.13696 -1.66082,4.26481c-1.12405,1.12784 -2.66798,1.73509 -4.25918,1.67519zM211.62,175.52c-1.91,0 -3,1.44 -3,3.55c0,2.11 1.11,3.63 3,3.63c1.89,0 3,-1.45 3,-3.56c0,-2.11 -1.12,-3.64 -3,-3.64z" fill="#000000"/><path d="M227.76,173.5h2.74v11.35h-3.1l-4.73,-7.35v7.29h-2.69v-11.29h3.1l4.68,7.31z" fill="#000000"/><path d="M239.03,175.88v8.86h-2.86v-8.86h-3.59v-2.38h10v2.4z" fill="#000000"/><path d="M244.79,184.74v-11.24h2.86v11.24z" fill="#000000"/><path d="M258.38,173.5h2.68v11.35h-3l-4.78,-7.35v7.29h-2.68v-11.29h3.1l4.68,7.31z" fill="#000000"/><path d="M268.86,185.01c-2.94,0 -5,-1.44 -5,-4.61v-6.9h2.85v6.54c0,1.69 0.68,2.58 2.18,2.58c1.35,0 2,-0.72 2,-2.47v-6.65h2.84v6.67c0.09,3.24 -1.85,4.84 -4.87,4.84z" fill="#000000"/><path d="M276.65,184.74v-11.24h8.23v2.31h-5.38v2.16h4.35v2.29h-4.35v2.19h5.42v2.31z" fill="#000000"/></g></g></svg>