<svg version="1.1" xmlns="http://www.w3.org/2000/svg" xmlns:xlink="http://www.w3.org/1999/xlink" width="277.36" height="90.57405" viewBox="0,0,277.36,90.57405"><g transform="translate(-103.79,-134.70991)"><g data-paper-data="{&quot;isPaintingLayer&quot;:true}" fill-rule="nonzero" stroke-linecap="butt" stroke-linejoin="miter" stroke-miterlimit="10" stroke-dasharray="" stroke-dashoffset="0" style="mix-blend-mode: normal"><path d="M339.82,149.48991l9.65,-12.78h20.36l-12.59,15.2c0.72,-0.07 1.43,-0.13 2.09,-0.13c9.06,0 16.11,6.26 16.11,15.33c0,10.3 -9,17.54 -20.81,17.54c-11.35,0 -21.07,-6.72 -21.07,-18.72c0.02,-6.39 2.74,-11.74 6.26,-16.44zM354.43,169.97991c1.2205,0.06726 2.37821,-0.54564 3.00871,-1.59283c0.6305,-1.0472 0.6305,-2.35713 0,-3.40433c-0.6305,-1.0472 -1.78821,-1.6601 -3.00871,-1.59283c-1.74933,0.09641 -3.11841,1.54301 -3.11841,3.295c0,1.75199 1.36908,3.19859 3.11841,3.295z" fill="none" stroke="#ffffff" stroke-width="4"/><path d="M105.79,197.42991h17.13v8.51h-7.6v1.45h6.07v6.39h-6.07v9.11h-9.53z" fill="none" stroke="#ffffff" stroke-width="4"/><path d="M129.51,197.42991h9.07l8.82,25.47h-10.25l-0.8,-3.34h-5.31l-0.89,3.34h-9.46zM134.81,213.14991l-1,-5.17h-0.06l-1,5.17z" fill="none" stroke="#ffffff" stroke-width="4"/><path d="M149.04,197.42991h9.54v16.43h7.17v9h-16.71z" fill="none" stroke="#ffffff" stroke-width="4"/><path d="M168.22,197.42991h9.52v16.43h7.16v9h-16.68z" fill="none" stroke="#ffffff" stroke-width="4"/><path d="M187.4,197.42991h9.52v25.47h-9.52z" fill="none" stroke="#ffffff" stroke-width="4"/><path d="M199.73,197.42991h8.67l6.81,10.87h0.06v-10.87h8.57v25.47h-8.67l-6.8,-10.87h-0.07v10.84h-8.57z" fill="none" stroke="#ffffff" stroke-width="4"/><path d="M226.07,210.36991c0,-7.66 5.72,-13.32 13.81,-13.32c2.67975,-0.02924 5.32621,0.59547 7.71,1.82v8.73c-2.15871,-1.01943 -4.49585,-1.60711 -6.88,-1.73c-3.38,0 -5.14,2.11 -5.14,4.86c-0.07707,1.23601 0.35864,2.44914 1.2045,3.35367c0.84586,0.90452 2.02711,1.42048 3.2655,1.42633c0.33901,0.01323 0.67766,-0.03418 1,-0.14v-1.3h-2.3v-5.7h9.46v12.59c-2.54786,1.58251 -5.50147,2.38867 -8.5,2.32c-8.38,0 -13.63,-5.59 -13.63,-12.91z" fill="none" stroke="#ffffff" stroke-width="4"/><path d="M268.04,197.42991h9.11l8.83,25.47h-10.3l-0.8,-3.34h-5.3l-0.9,3.34h-9.46zM273.35,213.14991l-1,-5.17h-0.07l-1,5.17z" fill="none" stroke="#ffffff" stroke-width="4"/><path d="M287.58,197.42991h8.76c5.56,0 11.8,1.76 11.8,9c0,6.54 -5,9.18 -10.71,9.18h-0.32v7.25h-9.53zM297.37,209.17991c0.82691,0.09796 1.63649,-0.28811 2.08085,-0.99233c0.44436,-0.70421 0.44436,-1.60114 0,-2.30535c-0.44436,-0.70421 -1.25394,-1.09029 -2.08085,-0.99233h-0.26v4.29z" fill="none" stroke="#ffffff" stroke-width="4"/><path d="M314.58,197.42991h9.11l8.83,25.47h-10.3l-0.8,-3.34h-5.3l-0.9,3.34h-9.46zM319.89,213.14991l-1,-5.17h-0.07l-1,5.17z" fill="none" stroke="#ffffff" stroke-width="4"/><path d="M334.11,197.42991h9.34c4.79,0 11.25,1.37 11.25,8c0.12919,2.35841 -0.86462,4.63898 -2.68,6.15c0.25569,1.52476 1.65209,2.58848 3.19,2.43c1.77064,-0.04614 3.47333,-0.69126 4.83,-1.83v9.28c-1.81975,1.20573 -3.95709,1.84275 -6.14,1.83c-5.46,0 -9.27,-3.76 -10.2,-8.83h-0.06v8.45h-9.53zM344.34,208.68991c0.79841,0.17229 1.62135,-0.15823 2.07879,-0.83491c0.45744,-0.67667 0.45744,-1.56351 0,-2.24019c-0.45744,-0.67667 -1.28039,-1.00719 -2.07879,-0.83491h-0.7v3.91z" fill="none" stroke="#ffffff" stroke-width="4"/><path d="M363.17,206.07991h-6.46v-8.65h22.44v8.65h-6.45v16.82h-9.53z" fill="none" stroke="#ffffff" stroke-width="4"/><path d="M339.82,149.48991l9.65,-12.78h20.36l-12.59,15.2c0.72,-0.07 1.43,-0.13 2.09,-0.13c9.06,0 16.11,6.26 16.11,15.33c0,10.3 -9,17.54 -20.81,17.54c-11.35,0 -21.07,-6.72 -21.07,-18.72c0.02,-6.39 2.74,-11.74 6.26,-16.44zM354.43,169.97991c1.2205,0.06726 2.37821,-0.54564 3.00871,-1.59283c0.6305,-1.0472 0.6305,-2.35713 0,-3.40433c-0.6305,-1.0472 -1.78821,-1.6601 -3.00871,-1.59283c-1.74933,0.09641 -3.11841,1.54301 -3.11841,3.295c0,1.75199 1.36908,3.19859 3.11841,3.295z" fill="#000000" stroke="none" stroke-width="1"/><path d="M105.79,197.42991h17.13v8.51h-7.6v1.45h6.07v6.39h-6.07v9.11h-9.53z" fill="#000000" stroke="none" stroke-width="1"/><path d="M129.51,197.42991h9.07l8.82,25.47h-10.25l-0.8,-3.34h-5.31l-0.89,3.34h-9.46zM134.81,213.14991l-1,-5.17h-0.06l-1,5.17z" fill="#000000" stroke="none" stroke-width="1"/><path d="M149.04,197.42991h9.54v16.43h7.17v9h-16.71z" fill="#000000" stroke="none" stroke-width="1"/><path d="M168.22,197.42991h9.52v16.43h7.16v9h-16.68z" fill="#000000" stroke="none" stroke-width="1"/><path d="M187.4,197.42991h9.52v25.47h-9.52z" fill="#000000" stroke="none" stroke-width="1"/><path d="M199.73,197.42991h8.67l6.81,10.87h0.06v-10.87h8.57v25.47h-8.67l-6.8,-10.87h-0.07v10.84h-8.57z" fill="#000000" stroke="none" stroke-width="1"/><path d="M226.07,210.36991c0,-7.66 5.72,-13.32 13.81,-13.32c2.67975,-0.02924 5.32621,0.59547 7.71,1.82v8.73c-2.15871,-1.01943 -4.49585,-1.60711 -6.88,-1.73c-3.38,0 -5.14,2.11 -5.14,4.86c-0.07707,1.23601 0.35864,2.44914 1.2045,3.35367c0.84586,0.90452 2.02711,1.42048 3.2655,1.42633c0.33901,0.01323 0.67766,-0.03418 1,-0.14v-1.3h-2.3v-5.7h9.46v12.59c-2.54786,1.58251 -5.50147,2.38867 -8.5,2.32c-8.38,0 -13.63,-5.59 -13.63,-12.91z" fill="#000000" stroke="none" stroke-width="1"/><path d="M268.04,197.42991h9.11l8.83,25.47h-10.3l-0.8,-3.34h-5.3l-0.9,3.34h-9.46zM273.35,213.14991l-1,-5.17h-0.07l-1,5.17z" fill="#000000" stroke="none" stroke-width="1"/><path d="M287.58,197.42991h8.76c5.56,0 11.8,1.76 11.8,9c0,6.54 -5,9.18 -10.71,9.18h-0.32v7.25h-9.53zM297.37,209.17991c0.82691,0.09796 1.63649,-0.28811 2.08085,-0.99233c0.44436,-0.70421 0.44436,-1.60114 0,-2.30535c-0.44436,-0.70421 -1.25394,-1.09029 -2.08085,-0.99233h-0.26v4.29z" fill="#000000" stroke="none" stroke-width="1"/><path d="M314.58,197.42991h9.11l8.83,25.47h-10.3l-0.8,-3.34h-5.3l-0.9,3.34h-9.46zM319.89,213.14991l-1,-5.17h-0.07l-1,5.17z" fill="#000000" stroke="none" stroke-width="1"/><path d="M334.11,197.42991h9.34c4.79,0 11.25,1.37 11.25,8c0.12919,2.35841 -0.86462,4.63898 -2.68,6.15c0.25569,1.52476 1.65209,2.58848 3.19,2.43c1.77064,-0.04614 3.47333,-0.69126 4.83,-1.83v9.28c-1.81975,1.20573 -3.95709,1.84275 -6.14,1.83c-5.46,0 -9.27,-3.76 -10.2,-8.83h-0.06v8.45h-9.53zM344.34,208.68991c0.79841,0.17229 1.62135,-0.15823 2.07879,-0.83491c0.45744,-0.67667 0.45744,-1.56351 0,-2.24019c-0.45744,-0.67667 -1.28039,-1.00719 -2.07879,-0.83491h-0.7v3.91z" fill="#000000" stroke="none" stroke-width="1"/><path d="M363.17,206.07991h-6.46v-8.65h22.44v8.65h-6.45v16.82h-9.53z" fill="#000000" stroke="none" stroke-width="1"/><path d="M110.39,137.09956h19.44v30.46h14.61v16.77h-34z" fill="none" stroke="#ffffff" stroke-width="4"/><path d="M149.52,137.09956h34v15.78h-14.56v2.55h11.74v11.22h-11.74v2.67h15.46v15h-34.9z" fill="none" stroke="#ffffff" stroke-width="4"/><path d="M186.77,137.09956h21l7,25h0.13l7.44,-25h19l-18.07,47.23h-18.43z" fill="none" stroke="#ffffff" stroke-width="4"/><path d="M244.56,137.09956h34v15.78h-14.56v2.55h11.74v11.22h-11.74v2.67h15.46v15h-34.9z" fill="none" stroke="#ffffff" stroke-width="4"/><path d="M284.29,137.09956h19.44v30.46h14.61v16.77h-34.05z" fill="none" stroke="#ffffff" stroke-width="4"/><path d="M110.39,137.09956h19.44v30.46h14.61v16.77h-34z" fill="#000000" stroke="none" stroke-width="1"/><path d="M149.52,137.09956h34v15.78h-14.56v2.55h11.74v11.22h-11.74v2.67h15.46v15h-34.9z" fill="#000000" stroke="none" stroke-width="1"/><path d="M186.77,137.09956h21l7,25h0.13l7.44,-25h19l-18.07,47.23h-18.43z" fill="#000000" stroke="none" stroke-width="1"/><path d="M244.56,137.09956h34v15.78h-14.56v2.55h11.74v11.22h-11.74v2.67h15.46v15h-34.9z" fill="#000000" stroke="none" stroke-width="1"/><path d="M284.29,137.09956h19.44v30.46h14.61v16.77h-34.05z" fill="#000000" stroke="none" stroke-width="1"/></g></g></svg>