<svg xmlns="http://www.w3.org/2000/svg" viewBox="0 0 153 41"><defs><style>.cls-1{opacity:0.1;}.cls-2{fill:#fff;opacity:0.95;}</style></defs><g id="Explosion"><path class="cls-1" d="M146.65,41H6.35A6.37,6.37,0,0,1,0,34.65V8.35A6.37,6.37,0,0,1,6.35,2h140.3A6.37,6.37,0,0,1,153,8.35v26.3A6.37,6.37,0,0,1,146.65,41Z"/><path class="cls-2" d="M146.65,39H6.35A6.37,6.37,0,0,1,0,32.65V6.35A6.37,6.37,0,0,1,6.35,0h140.3A6.37,6.37,0,0,1,153,6.35v26.3A6.37,6.37,0,0,1,146.65,39Z"/><path d="M43.89,25H41l-.83-2.39H36L35.23,25H32.38l4-11.25H40Zm-5.75-9-1.49,4.41h2.93Z"/><path d="M50.35,25.24c-2.94,0-5-1.44-5-4.61V13.72h2.84v6.54c0,1.69.69,2.57,2.18,2.57s2-.72,2-2.47V13.72h2.85v6.66C55.32,23.64,53.37,25.24,50.35,25.24Z"/><path d="M62.17,25h-4V13.72h4.23c4,0,6.21,2.2,6.21,5.55S66.3,25,62.17,25Zm0-9H61v6.68h1.34a3,3,0,0,0,3.36-3.32C65.7,17.05,64.53,16,62.19,16Z"/><path d="M71,25V13.72h2.87V25Z"/><path d="M82.21,25.24a5.5,5.5,0,0,1-5.87-5.87,5.69,5.69,0,0,1,5.9-5.92c3.35,0,5.89,2.05,5.89,5.85A5.71,5.71,0,0,1,82.21,25.24Zm0-9.49c-1.91,0-3,1.45-3,3.55s1.12,3.64,3,3.64,3-1.46,3-3.57S84.12,15.75,82.21,15.75Z"/><path d="M100.66,25.24a5.5,5.5,0,0,1-5.87-5.87,5.68,5.68,0,0,1,5.9-5.92c3.35,0,5.89,2.05,5.89,5.85A5.71,5.71,0,0,1,100.66,25.24Zm0-9.49c-1.91,0-3,1.45-3,3.55s1.11,3.64,3,3.64,3-1.46,3-3.57S102.57,15.75,100.66,15.75Z"/><path d="M116.8,13.72h2.69V25.08h-3l-4.73-7.4V25H109V13.72h3.09L116.8,21Z"/></g></svg>