<svg xmlns="http://www.w3.org/2000/svg" viewBox="0 0 153 41"><defs><style>.cls-1{opacity:0.1;}.cls-2{fill:#fff;opacity:0.95;}</style></defs><g id="Explosion"><path class="cls-1" d="M146.65,41H6.35A6.37,6.37,0,0,1,0,34.65V8.35A6.37,6.37,0,0,1,6.35,2h140.3A6.37,6.37,0,0,1,153,8.35v26.3A6.37,6.37,0,0,1,146.65,41Z"/><path class="cls-2" d="M146.65,39H6.35A6.37,6.37,0,0,1,0,32.65V6.35A6.37,6.37,0,0,1,6.35,0h140.3A6.37,6.37,0,0,1,153,6.35v26.3A6.37,6.37,0,0,1,146.65,39Z"/><path d="M36.25,17.12V26H33.39V17.12H29.81v-2.4h10v2.4Z"/><path d="M44.86,26H42V14.72h4.52c3,0,4.56,1.39,4.56,3.57a3.3,3.3,0,0,1-2.31,3.24L51.65,26H48.42l-2.25-3.78-1.31.11Zm1.38-5.83c1.23-.09,1.89-.59,1.89-1.67S47.45,17,46,17H44.8v3.19Z"/><path d="M58.77,21.71V26H56V21.69l-3.92-7h3l2.32,4.45,2.25-4.45h3Z"/><path d="M79.65,26H76.81L76,23.58H71.8L71,26H68.15l4-11.25h3.58Zm-5.74-9-1.49,4.41h2.93Z"/><path d="M86.69,26.24c-3.6,0-6-2.14-6-5.85s2.38-5.94,6.07-5.94a8.92,8.92,0,0,1,4.23,1l-.9,2.4a6.52,6.52,0,0,0-3.24-.94,3.17,3.17,0,0,0-3.32,3.44c0,2.25,1.14,3.58,3.28,3.58a4.89,4.89,0,0,0,1.8-.34V21.9H85.79V19.64h5.36V25.2A9.47,9.47,0,0,1,86.69,26.24Z"/><path d="M104.35,26H101.5l-.82-2.39H96.5L95.69,26H92.84l4-11.25h3.58Zm-5.74-9-1.5,4.41h2.94Z"/><path d="M106.15,26V14.72H109V26Z"/><path d="M119.74,14.72h2.68V26.08h-3l-4.74-7.4V26H112V14.72h3.1L119.74,22Z"/></g></svg>