<svg version="1.1" xmlns="http://www.w3.org/2000/svg" xmlns:xlink="http://www.w3.org/1999/xlink" width="175.56" height="25.08" viewBox="0,0,175.56,25.08"><g transform="translate(-152.22,-167.46)"><g data-paper-data="{&quot;isPaintingLayer&quot;:true}" fill-rule="nonzero" stroke="none" stroke-width="1" stroke-linecap="butt" stroke-linejoin="miter" stroke-miterlimit="10" stroke-dasharray="" stroke-dashoffset="0" style="mix-blend-mode: normal"><path d="M166.74,181.72c0,3.96 -2.6,6.45 -7.11,6.45c-4.51,0 -6.91,-2.4 -6.91,-6.36c0,-3.96 2.59,-6.46 7.1,-6.46c4.51,0 6.92,2.41 6.92,6.37zM160.83,181.74c0,-1.46 -0.35,-2.26 -1.1,-2.26c-0.75,0 -1.11,0.85 -1.11,2.31c0,1.46 0.34,2.25 1.11,2.25c0.74,0 1.1,-0.84 1.1,-2.3z" fill-opacity="0.2" fill="#000000"/><path d="M174.61,187.74v-6.67l-2.21,0.36l-0.15,-4.64l8.21,-1.43v12.38z" fill-opacity="0.2" fill="#000000"/><path d="M186.94,187.74l0.07,-3.7c3.58,-1.8 5.26,-2.85 5.26,-3.67c0,-0.53 -0.48,-0.81 -1.27,-0.81c-1.28752,0.09271 -2.52849,0.52015 -3.6,1.24l-0.72,-4.05c1.81438,-0.96406 3.84591,-1.44612 5.9,-1.4c3.63,0 5.59,1.78 5.59,4.23c0,1.46 -0.84,2.86 -2.85,4h3.09l0.1,4.13z" fill-opacity="0.2" fill="#000000"/><path d="M204.44,187.28c1.02548,0.50526 2.14734,0.78488 3.29,0.82c1.36,0 2,-0.41 2,-1.13c0,-0.72 -0.53,-1.15 -2.31,-1.15c-0.40237,-0.00796 -0.8045,0.02555 -1.2,0.1v-3.77c1.78,-0.22 2.91,-0.58 2.91,-1.63c0,-0.58 -0.46,-1 -1.54,-1c-1.02428,0.04761 -2.01781,0.36498 -2.88,0.92l-0.74,-3.77c1.72302,-0.87859 3.63628,-1.31826 5.57,-1.28c3.26,0 5.44,1.64 5.44,4.33c-0.01184,1.5223 -0.91061,2.8978 -2.3,3.52c1.68642,0.51884 2.85351,2.05618 2.9,3.82c0,3.26 -3,5.21 -6.79,5.21c-1.65653,0.05052 -3.30146,-0.29217 -4.8,-1z" fill-opacity="0.2" fill="#000000"/><path d="M234.8,187.74h-1.59v4.03h-5.85v-4.06h-5.93l-0.41,-3.67l5.4,-8.43h6.79v8h1.49zM227.48,181.21l-1.49,2.52h1.49z" fill-opacity="0.2" fill="#000000"/><path d="M240.53,187.55c1.0617,0.32368 2.16083,0.50855 3.27,0.55c1.51,0 2.23,-0.48 2.23,-1.3c0,-0.82 -0.7,-1.29 -2.74,-1.29c-0.36783,-0.00158 -0.73534,0.02181 -1.1,0.07l-1.66,-1.27l1,-9h10l0.07,4.28h-5.38l-0.17,1.8c4,0.05 5.84,2.25 5.84,4.82c0,3.36 -2.38,6 -7.23,6c-1.53823,0.00362 -3.06839,-0.2222 -4.54,-0.67z" fill-opacity="0.2" fill="#000000"/><path d="M271.23,181.84c0,3.55 -2.16,6.33 -6.74,6.33c-4.35,0 -6.94,-2.83 -6.94,-7.22c0,-5.13 4.27,-9.37 10.94,-10l1.2,4.09c-2.01344,0.15798 -3.94105,0.88257 -5.56,2.09l0.09,0.12c0.70238,-0.28338 1.45261,-0.42936 2.21,-0.43c2.9,0 4.8,1.75 4.8,5.02zM265.36,182.43c0,-0.94 -0.38,-1.56 -1.12,-1.56c-0.37795,0.01939 -0.73483,0.17999 -1,0.45c-0.06429,0.29237 -0.09781,0.59066 -0.1,0.89c0,1.38 0.41,2 1.18,2c0.65,0 1.05,-0.65 1.04,-1.78z" fill-opacity="0.2" fill="#000000"/><path d="M277.3,191.8l5.71,-12.17h-6.26l0.07,-4.27h11.98v3.81l-5.4,12.63z" fill-opacity="0.2" fill="#000000"/><path d="M307.95,183.18c0,2.89 -2.06,5 -6.82,5c-3.74,0 -6.62,-1.49 -6.62,-4.49c0.02849,-1.40498 0.97579,-2.62467 2.33,-3c-1.36092,-0.59363 -2.25145,-1.92552 -2.28,-3.41c0,-2.94 2.06,-4.94 6.79,-4.94c3.89,0 6.58,1.46 6.58,4.53c-0.05505,1.36679 -0.94517,2.55892 -2.24,3c1.33743,0.56445 2.22122,1.85885 2.26,3.31zM300.58911,176.51239c-0.16567,0.1771 -0.24887,0.41591 -0.22911,0.65761c0,0.48 0.44,0.94 1.08,1.23c0.37735,-0.27597 0.62353,-0.69592 0.68,-1.16c0.03881,-0.25581 -0.03825,-0.51563 -0.21027,-0.70891c-0.17202,-0.19328 -0.42114,-0.29996 -0.67973,-0.29109c-0.24248,-0.00363 -0.47522,0.09529 -0.64089,0.27239zM301.25,184.24c0.24351,0.01323 0.48052,-0.0813 0.64809,-0.2585c0.16756,-0.17719 0.24872,-0.41911 0.22191,-0.6615c0,-0.48 -0.5,-0.88 -1.15,-1.12c-0.36943,0.25486 -0.61304,0.65482 -0.67,1.1c-0.01444,0.25169 0.07855,0.4977 0.25586,0.67692c0.17731,0.17922 0.42231,0.27483 0.67414,0.26308z" fill-opacity="0.2" fill="#000000"/><path d="M327.29,182.54c0,5.13 -4.27,9.38 -10.94,10l-1.2,-4.08c2.01612,-0.15212 3.94765,-0.87341 5.57,-2.08l-0.1,-0.12c-0.70238,0.28338 -1.45261,0.42936 -2.21,0.43c-2.9,0 -4.8,-1.73 -4.8,-5c0,-3.55 2.16,-6.34 6.75,-6.34c4.34,0 6.93,2.84 6.93,7.19zM321.7,181.32c0,-1.38 -0.54,-2 -1.18,-2c-0.64,0 -1.05,0.64 -1.05,1.82c0,0.94 0.38,1.56 1.13,1.56c0.37934,-0.02205 0.73642,-0.18631 1,-0.46c0.06786,-0.30192 0.10141,-0.61055 0.1,-0.92z" fill-opacity="0.2" fill="#000000"/><g><path d="M159.63,185.17c-4.51,0 -6.91,-2.37 -6.91,-6.36c0,-3.99 2.59,-6.46 7.1,-6.46c4.51,0 6.92,2.38 6.92,6.37c0,3.99 -2.6,6.45 -7.11,6.45zM160.83,178.74c0,-1.46 -0.36,-2.26 -1.1,-2.26c-0.74,0 -1.11,0.82 -1.11,2.31c0,1.49 0.34,2.25 1.11,2.25c0.77,0 1.1,-0.79 1.1,-2.3z" fill="#ffff00"/><path d="M159.63,185.67c-4.71,0 -7.41,-2.5 -7.41,-6.86c0,-4.36 2.91,-7 7.6,-7c4.69,0 7.42,2.51 7.42,6.87c0,4.36 -2.92,6.99 -7.61,6.99zM159.82,172.85c-4.13,0 -6.6,2.23 -6.6,6c0,3.77 2.28,5.86 6.41,5.86c4.13,0 6.61,-2.22 6.61,-5.95c0,-3.73 -2.28,-5.91 -6.42,-5.91zM159.73,181.54c-1.07,0 -1.61,-0.92 -1.61,-2.75c0,-2.32 0.87,-2.81 1.61,-2.81c0.74,0 1.6,0.48 1.6,2.76c0,2.28 -0.87,2.8 -1.6,2.8zM159.73,176.98c-0.56,0 -0.61,1.38 -0.61,1.81c0,0.8 0.11,1.75 0.61,1.75c0.5,0 0.6,-1.26 0.6,-1.8c0,-0.54 -0.06,-1.79 -0.6,-1.79z" fill="#000000"/></g><g><path d="M174.61,184.74v-6.67l-2.21,0.36l-0.15,-4.63l8.21,-1.45v12.39z" fill="#ffff00"/><path d="M180.96,185.24h-6.88v-6.58l-2.19,0.35l-0.18,-5.63l9.22,-1.62zM175.11,184.24h4.85v-11.29l-7.19,1.26l0.11,3.63l2.23,-0.36z" fill="#000000"/></g><g><path d="M186.94,184.74l0.07,-3.7c3.58,-1.8 5.26,-2.85 5.26,-3.67c0,-0.53 -0.48,-0.81 -1.27,-0.81c-1.28752,0.09271 -2.52849,0.52015 -3.6,1.24l-0.72,-4.05c1.81438,-0.96406 3.84591,-1.44612 5.9,-1.4c3.63,0 5.59,1.78 5.59,4.23c0,1.46 -0.84,2.86 -2.85,4h3.09l0.1,4.13z" fill="#ffff00"/><path d="M199.02,185.24h-12.59l0.09,-4.51l0.27,-0.13c1.36,-0.69 5,-2.51 5,-3.23c0,-0.29 -0.59,-0.31 -0.77,-0.31c-1.19221,0.08944 -2.34025,0.48936 -3.33,1.16l-0.63,0.42l-0.98,-5.14l0.3,-0.18c1.89343,-1.0098 4.01462,-1.516 6.16,-1.47c3.7,0 6.09,1.86 6.09,4.73c-0.02444,1.38643 -0.67977,2.68604 -1.78,3.53h2zM187.45,184.24h10.55l-0.07,-3.13h-4.46l1.6,-0.93c1.73,-1 2.6,-2.22 2.6,-3.6c0,-2.3 -2,-3.73 -5.09,-3.73c-1.84921,-0.03398 -3.68093,0.36317 -5.35,1.16l0.53,3c0.99264,-0.56145 2.10135,-0.88653 3.24,-0.95c1.3,0 1.77,0.68 1.77,1.31c0,1 -1.24,1.95 -5.26,4z" fill="#000000"/></g><g><path d="M204.44,184.28c1.02548,0.50526 2.14734,0.78488 3.29,0.82c1.36,0 2,-0.41 2,-1.13c0,-0.72 -0.53,-1.15 -2.31,-1.15c-0.40237,-0.00796 -0.8045,0.02555 -1.2,0.1v-3.77c1.78,-0.22 2.91,-0.58 2.91,-1.63c0,-0.58 -0.46,-1 -1.54,-1c-1.02428,0.04761 -2.01781,0.36498 -2.88,0.92l-0.74,-3.77c1.72302,-0.87859 3.63628,-1.31826 5.57,-1.28c3.26,0 5.44,1.64 5.44,4.33c-0.01184,1.5223 -0.91061,2.8978 -2.3,3.52c1.68642,0.51884 2.85351,2.05618 2.9,3.82c0,3.26 -3,5.21 -6.79,5.21c-1.65663,0.05167 -3.30182,-0.29108 -4.8,-1z" fill="#ffff00"/><path d="M208.78,189.73c-1.72199,0.06289 -3.43466,-0.27965 -5,-1l-0.33,-0.15l0.58,-5l0.61,0.25c0.96506,0.48034 2.02253,0.74642 3.1,0.78c1,0 1.49,-0.21 1.49,-0.63c0,-0.18 0,-0.65 -1.81,-0.65c-0.37215,-0.00959 -0.74426,0.02058 -1.11,0.09l-0.59,0.1v-4.82l0.44,-0.05c2.05,-0.25 2.47,-0.63 2.47,-1.13c0,-0.5 -0.65,-0.54 -1,-0.54c-0.93395,0.04218 -1.83916,0.33586 -2.62,0.85l-0.61,0.36l-1,-4.84l0.34,-0.17c1.79645,-0.90829 3.78729,-1.36481 5.8,-1.33c3.61,0 5.94,1.9 5.94,4.83c-0.00625,1.36493 -0.64991,2.64855 -1.74,3.47c1.42776,0.76635 2.32464,2.24965 2.34,3.87c0,3.36 -3,5.71 -7.3,5.71zM204.52,187.95c1.34674,0.56464 2.80081,0.82746 4.26,0.77c3.13,0 6.29,-1.46 6.29,-4.71c-0.04005,-1.55566 -1.07781,-2.90837 -2.57,-3.35l-1.14,-0.42l1.1,-0.5c1.2082,-0.54587 1.98891,-1.74425 2,-3.07c0,-2.36 -1.89,-3.83 -4.94,-3.83c-1.72545,-0.03001 -3.43515,0.33245 -5,1.06l0.54,2.72c0.77939,-0.4088 1.64049,-0.63774 2.52,-0.67c1.5,0 2,0.79 2,1.54c0,1.52 -1.71,1.9 -2.91,2.07v2.79c0.23318,-0.012 0.46682,-0.012 0.7,0c0.7,0 2.81,0 2.81,1.65c0,0.61 -0.33,1.63 -2.49,1.63c-0.9877,-0.01054 -1.96339,-0.21792 -2.87,-0.61z" fill="#000000"/></g><g><path d="M227.36,188.8v-4.06h-5.93l-0.41,-3.67l5.4,-8.43h6.79v8h1.49l0.1,4.13h-1.59v4.06zM227.48,178.21l-1.49,2.52h1.49z" fill="#ffff00"/><path d="M233.71,189.3h-6.85v-4.06h-5.88l-0.48,-4.29l5.65,-8.81h7.56v8h1.48l0.12,5.13h-1.6zM227.86,188.3h4.85v-4.06h1.58l-0.08,-3.13h-1.5v-8h-6l-5.15,8l0.34,3.05h6zM227.98,181.23h-2.9l2.87,-4.85zM226.86,180.23h0.12v-0.19z" fill="#000000"/></g><g><path d="M240.53,184.55c1.0617,0.32368 2.16083,0.50855 3.27,0.55c1.51,0 2.23,-0.48 2.23,-1.3c0,-0.82 -0.7,-1.29 -2.74,-1.29c-0.36783,-0.00158 -0.73534,0.02181 -1.1,0.07l-1.66,-1.27l1,-9h10l0.08,4.28h-5.38l-0.17,1.8c4,0.05 5.83,2.25 5.83,4.82c0,3.36 -2.37,6 -7.22,6c-1.53823,0.00362 -3.06839,-0.2222 -4.54,-0.67z" fill="#ffff00"/><path d="M244.66,189.73c-1.58942,0.00091 -3.17011,-0.23501 -4.69,-0.7l-0.38,-0.12l0.51,-5l0.57,0.17c1.01548,0.31359 2.06789,0.49179 3.13,0.53c0.79,0 1.73,-0.14 1.73,-0.8c0,-0.66 -1.22,-0.79 -2.24,-0.79c-0.33455,0.0003 -0.66867,0.02369 -1,0.07h-0.2l-2.05,-1.57l1.04,-9.67h10.9l0.09,5.28h-5.39l-0.08,0.82c4.26,0.26 5.78,3 5.78,5.3c0,3.13 -2.02,6.48 -7.72,6.48zM240.66,188.2c1.30461,0.34986 2.64929,0.52803 4,0.53c4.21,0 6.72,-2.05 6.72,-5.48c0,-2.63 -2,-4.28 -5.33,-4.32h-0.55l0.27,-2.79h5.31v-3.29h-9l-1,8.23l1.27,1c0.32,0 0.64,-0.05 1,-0.05c2.15,0 3.24,0.6 3.24,1.79c0,0.67 -0.36,1.8 -2.73,1.8c-0.95662,-0.02769 -1.90658,-0.16867 -2.83,-0.42z" fill="#000000"/></g><g><path d="M264.22,174.25c0.70238,-0.28338 1.45261,-0.42936 2.21,-0.43c2.9,0 4.8,1.75 4.8,5c0,3.55 -2.16,6.33 -6.75,6.33c-4.34,0 -6.93,-2.83 -6.93,-7.22c0,-5.12 4.27,-9.36 10.94,-10l1.2,4.08c-2.033,0.16126 -3.97844,0.89644 -5.61,2.12zM263.14,179.17c0,1.42 0.41,2 1.18,2c0.77,0 1,-0.65 1,-1.82c0,-0.94 -0.38,-1.56 -1.13,-1.56c-0.37818,0.01841 -0.73541,0.17917 -1,0.45c-0.05037,0.30727 -0.06713,0.6191 -0.05,0.93z" fill="#ffff00"/><path d="M264.48,185.67c-4.58,0 -7.43,-3 -7.43,-7.72c0,-5.55 4.68,-9.86 11.4,-10.49h0.41l1.48,5l-0.59,0.07c-1.10181,0.12384 -2.18365,0.3859 -3.22,0.78c3.21,0 5.2,2.15 5.2,5.52c0,4.22 -2.78,6.84 -7.25,6.84zM268.13,168.5c-5.96,0.71 -10.05,4.55 -10.05,9.45c0,4.21 2.4,6.72 6.43,6.72c4.03,0 6.25,-2.18 6.25,-5.83c0,-2.87 -1.57,-4.52 -4.3,-4.52c-0.68552,0.00042 -1.36455,0.13283 -2,0.39l-0.35,0.15l-0.63,-0.8l0.37,-0.31c1.52415,-1.15854 3.32934,-1.89028 5.23,-2.12zM264.32,181.71c-0.77,0 -1.68,-0.44 -1.68,-2.54c0.00432,-0.3361 0.04116,-0.671 0.11,-1v-0.14l0.11,-0.11c0.35761,-0.3553 0.8362,-0.56245 1.34,-0.58c1,0 1.63,0.79 1.63,2.06c0.04,1.7 -0.75,2.31 -1.51,2.31zM263.69,178.55c-0.03319,0.205 -0.04991,0.41233 -0.05,0.62c0,1.54 0.49,1.54 0.68,1.54c0.41,0 0.55,-0.68 0.55,-1.32c0,-0.64 -0.11,-1.06 -0.63,-1.06c-0.20241,0.01142 -0.39555,0.08868 -0.55,0.22z" fill="#000000"/></g><g><path d="M277.3,188.8l5.71,-12.17h-6.26l0.07,-4.28h12v3.82l-5.41,12.63z" fill="#ffff00"/><path d="M283.73,189.3h-7.22l5.71,-12.17h-6l0.09,-5.28h13v4.52zM278.09,188.3h5l5.24,-12.23v-3.22h-11l-0.06,3.28h6.55z" fill="#000000"/></g><g><path d="M307.95,180.18c0,2.88 -2.07,5 -6.82,5c-3.74,0 -6.62,-1.46 -6.62,-4.49c0.0272,-1.40218 0.96974,-2.62099 2.32,-3c-1.36092,-0.59363 -2.25145,-1.92552 -2.28,-3.41c0,-2.93 2.07,-4.94 6.8,-4.94c3.89,0 6.57,1.46 6.57,4.53c-0.05071,1.36519 -0.93736,2.55799 -2.23,3c1.33411,0.5685 2.21624,1.86047 2.26,3.31zM300.31,180.3c-0.0115,0.25265 0.08383,0.49849 0.26267,0.67733c0.17884,0.17884 0.42467,0.27418 0.67733,0.26267c0.24688,0.01945 0.48954,-0.07236 0.66172,-0.25035c0.17218,-0.17799 0.2559,-0.42356 0.22828,-0.66965c0,-0.48 -0.5,-0.88 -1.15,-1.12c-0.37228,0.25376 -0.61942,0.65355 -0.68,1.1zM302.12,174.2c0.03881,-0.25581 -0.03825,-0.51563 -0.21027,-0.70891c-0.17202,-0.19328 -0.42114,-0.29996 -0.67973,-0.29109c-0.23511,-0.00288 -0.46115,0.09063 -0.62551,0.25877c-0.16436,0.16814 -0.25271,0.39624 -0.24449,0.63123c0,0.48 0.43,0.94 1.08,1.23c0.34975,-0.27686 0.57904,-0.67812 0.64,-1.12z" fill="#ffff00"/><path d="M301.13,185.67c-4.39,0 -7.12,-1.91 -7.12,-5c-0.01482,-1.27771 0.67777,-2.45897 1.8,-3.07c-1.09298,-0.76379 -1.73997,-2.01663 -1.73,-3.35c0,-3.46 2.66,-5.44 7.3,-5.44c4.43,0 7.07,1.88 7.07,5c-0.00338,1.25189 -0.66407,2.40999 -1.74,3.05c1.09735,0.73686 1.75983,1.96825 1.77,3.29c-0.03,3.52 -2.7,5.52 -7.35,5.52zM301.35,169.81c-2.87,0 -6.3,0.77 -6.3,4.44c0.01058,1.3088 0.79595,2.48685 2,3l0.95,0.5l-1,0.4c-1.16288,0.31196 -1.97869,1.35619 -2,2.56c0,3.7 4.68,4 6.12,4c4.07,0 6.32,-1.59 6.32,-4.49c-0.0385,-1.26864 -0.82316,-2.39462 -2,-2.87l-0.91,-0.48l0.94,-0.42c1.11633,-0.37036 1.88556,-1.39468 1.93,-2.57c0.02,-3.68 -4.23,-4.07 -6.05,-4.07zM301.25,181.74c-0.38523,0.01117 -0.75803,-0.13695 -1.03054,-0.40946c-0.27251,-0.27251 -0.42064,-0.64531 -0.40946,-1.03054c0.05889,-0.60495 0.38067,-1.15344 0.88,-1.5l0.21,-0.17l0.26,0.1c0.93,0.34 1.48,0.94 1.48,1.59c0.02612,0.37873 -0.11085,0.75057 -0.37641,1.02186c-0.26556,0.27129 -0.63439,0.41617 -1.01359,0.39814zM301.09,179.74c-0.14071,0.14331 -0.23781,0.32364 -0.28,0.52c-0.0091,0.11925 0.03433,0.23653 0.1189,0.3211c0.08457,0.08457 0.20185,0.128 0.3211,0.1189c0.23,0 0.39,-0.07 0.39,-0.42c0,-0.1 -0.19,-0.33 -0.56,-0.5zM301.52,175.9l-0.28,-0.13c-0.75079,-0.23925 -1.29112,-0.89704 -1.38,-1.68c-0.01096,-0.36842 0.12919,-0.7253 0.38792,-0.98781c0.25873,-0.26251 0.61354,-0.40781 0.98208,-0.40219c0.38295,-0.00642 0.75111,0.14776 1.0152,0.42515c0.26409,0.27739 0.40001,0.65268 0.3748,1.03485c-0.06266,0.61491 -0.37772,1.17623 -0.87,1.55zM301.23,173.7c-0.10264,-0.00321 -0.20176,0.03755 -0.27243,0.11205c-0.07067,0.0745 -0.10617,0.17563 -0.09757,0.27795c0,0.2 0.19,0.42 0.49,0.61c0.14348,-0.14788 0.23778,-0.33648 0.27,-0.54c0,-0.42 -0.3,-0.42 -0.39,-0.42z" fill="#000000"/></g><g><path d="M315.15,185.48c2.01349,-0.15018 3.94233,-0.87176 5.56,-2.08l-0.09,-0.12c-0.70238,0.28338 -1.45261,0.42936 -2.21,0.43c-2.9,0 -4.8,-1.75 -4.8,-5c0,-3.55 2.16,-6.34 6.74,-6.34c4.35,0 6.94,2.84 6.94,7.23c0,5.11 -4.27,9.36 -10.94,10zM321.7,178.36c0,-1.42 -0.41,-2 -1.18,-2c-0.77,0 -1.05,0.64 -1.05,1.82c0,0.94 0.38,1.56 1.12,1.56c0.3791,-0.02302 0.73584,-0.18712 1,-0.46c0.07123,-0.30154 0.10813,-0.61017 0.11,-0.92z" fill="#ffff00"/><path d="M315.98,190.1l-1.48,-5l0.58,-0.15c1.10181,-0.12384 2.18365,-0.3859 3.22,-0.78c-3.21,-0.05 -5.2,-2.15 -5.2,-5.52c0,-4.22 2.78,-6.84 7.24,-6.84c4.46,0 7.44,3 7.44,7.73c0,5.54 -4.69,9.85 -11.4,10.48zM315.79,185.9l0.92,3.12c6,-0.71 10.08,-4.54 10.08,-9.44c0,-4.21 -2.4,-6.73 -6.44,-6.73c-4.04,0 -6.27,2.19 -6.27,5.84c0,2.87 1.57,4.52 4.3,4.52c0.68664,0.00106 1.36659,-0.13492 2,-0.4l0.35,-0.14l0.63,0.8l-0.38,0.31c-1.50549,1.17329 -3.29742,1.92252 -5.19,2.17zM320.59,180.2c-1,0 -1.62,-0.79 -1.62,-2.06c0,-1.71 0.8,-2.32 1.55,-2.32c0.75,0 1.68,0.44 1.68,2.54c-0.00295,0.33618 -0.03981,0.67121 -0.11,1v0.15l-0.11,0.1c-0.36464,0.37632 -0.866,0.58913 -1.39,0.59zM320.52,176.82c-0.41,0 -0.55,0.68 -0.55,1.32c0,0.48 0.11,1.06 0.62,1.06c0.20781,-0.00887 0.40594,-0.09025 0.56,-0.23c0.02865,-0.20217 0.04535,-0.40586 0.05,-0.61c0,-1.54 -0.49,-1.54 -0.68,-1.54z" fill="#000000"/></g></g></g></svg>