<svg version="1.1" xmlns="http://www.w3.org/2000/svg" xmlns:xlink="http://www.w3.org/1999/xlink" width="19" height="21" viewBox="0,0,19,21"><g transform="translate(-231.5,-169)"><g data-paper-data="{&quot;isPaintingLayer&quot;:true}" fill-rule="nonzero" stroke="none" stroke-linecap="butt" stroke-linejoin="miter" stroke-miterlimit="10" stroke-dasharray="" stroke-dashoffset="0" style="mix-blend-mode: normal"><path d="M240.10448,179.61c-0.59781,-0.01646 -1.07072,-0.51152 -1.05982,-1.10945c0.0109,-0.59794 0.50153,-1.07543 1.09954,-1.07009c0.59801,0.00534 1.08005,0.49151 1.08027,1.08954c0.01204,0.29792 -0.10315,0.58691 -0.31683,0.79486c-0.21368,0.20795 -0.50569,0.31526 -0.80317,0.29514zM240.10448,183c-0.30181,0.02309 -0.59909,-0.08394 -0.81691,-0.29411c-0.21782,-0.21018 -0.3354,-0.50345 -0.32309,-0.80589c-0.01216,-0.45866 0.25422,-0.87914 0.67412,-1.06409c0.4199,-0.18494 0.90994,-0.09763 1.24012,0.22097c0.33018,0.31859 0.43493,0.80521 0.2651,1.23144c-0.16983,0.42623 -0.58054,0.70746 -1.03934,0.71168z" fill="#000000" stroke-width="1"/><path d="M231.5,190v-21h19v21z" fill="none" stroke-width="0"/></g></g></svg>