<svg version="1.1" xmlns="http://www.w3.org/2000/svg" xmlns:xlink="http://www.w3.org/1999/xlink" width="153" height="41" viewBox="0,0,153,41"><g transform="translate(-163.5,-159.5)"><g data-paper-data="{&quot;isPaintingLayer&quot;:true}" fill-rule="nonzero" stroke="none" stroke-width="1" stroke-linecap="butt" stroke-linejoin="miter" stroke-miterlimit="10" stroke-dasharray="" stroke-dashoffset="0" style="mix-blend-mode: normal"><path d="M310.15,200.5h-140.3c-3.50245,-0.01098 -6.33902,-2.84755 -6.35,-6.35v-26.3c0.01098,-3.50245 2.84755,-6.33902 6.35,-6.35h140.3c3.50245,0.01098 6.33902,2.84755 6.35,6.35v26.3c-0.01098,3.50245 -2.84755,6.33902 -6.35,6.35z" fill="#000000" opacity="0.1"/><path d="M310.15,198.5h-140.3c-3.50245,-0.01098 -6.33902,-2.84755 -6.35,-6.35v-26.3c0.01098,-3.50245 2.84755,-6.33902 6.35,-6.35h140.3c3.50245,0.01098 6.33902,2.84755 6.35,6.35v26.3c-0.01098,3.50245 -2.84755,6.33902 -6.35,6.35z" fill="#ffff87" opacity="0.95"/><path d="M228.29,174.22h2.69v11.36h-3l-4.73,-7.4v7.32h-2.75v-11.28h3.09l4.7,7.28z" fill="#000000"/><path d="M233.89,185.5v-11.28h8.23v2.28h-5.42v2.17h4.36v2.28h-4.36v2.2h5.42v2.35z" fill="#000000"/><path d="M249.86,185.5h-3l-3,-11.25h3.06l1.51,8l2,-8h3.28l2,8l1.51,-8h2.94l-2.92,11.25h-3l-2.18,-8z" fill="#000000"/></g></g></svg>