<svg version="1.1" xmlns="http://www.w3.org/2000/svg" xmlns:xlink="http://www.w3.org/1999/xlink" width="482" height="211" viewBox="0,0,482,211"><g transform="translate(1,60)"><g data-paper-data="{&quot;isPaintingLayer&quot;:true}" fill-rule="nonzero" stroke-linecap="butt" stroke-linejoin="miter" stroke-miterlimit="10" stroke-dasharray="" stroke-dashoffset="0" style="mix-blend-mode: normal"><path d="M-1,150v-150h62v150z" fill="#d9ecf1" stroke="none" stroke-width="1"/><path d="M-1,150h62" fill="none" stroke="#ededed" stroke-width="2"/><path d="M59,150v-150h62v150z" fill="#d9ecf1" stroke="none" stroke-width="1"/><path d="M59,150h62" fill="none" stroke="#ededed" stroke-width="2"/><path d="M119,150v-150h62v150z" fill="#d9ecf1" stroke="none" stroke-width="1"/><path d="M119,150h62" fill="none" stroke="#ededed" stroke-width="2"/><path d="M179,150v-150h62v150z" fill="#d9ecf1" stroke="none" stroke-width="1"/><path d="M179,150h62" fill="none" stroke="#ededed" stroke-width="2"/><path d="M239,120v-150h62v150z" fill="#d9ecf1" stroke="none" stroke-width="1"/><path d="M239,120h62" fill="none" stroke="#ededed" stroke-width="2"/><path d="M299,120v-150h62v150z" fill="#d9ecf1" stroke="none" stroke-width="1"/><path d="M299,120h62" fill="none" stroke="#ededed" stroke-width="2"/><path d="M359,90v-150h62v150z" fill="#d9ecf1" stroke="none" stroke-width="1"/><path d="M359,90h62" fill="none" stroke="#ededed" stroke-width="2"/><path d="M419,90v-150h62v150z" fill="#d9ecf1" stroke="none" stroke-width="1"/><path d="M419,90h62" fill="none" stroke="#ededed" stroke-width="2"/></g></g></svg>