<svg version="1.1" xmlns="http://www.w3.org/2000/svg" xmlns:xlink="http://www.w3.org/1999/xlink" width="540" height="420" viewBox="0,0,540,420"><g transform="translate(30,30)"><g data-paper-data="{&quot;isPaintingLayer&quot;:true}" fill="#8fcca8" fill-rule="nonzero" stroke="none" stroke-width="1" stroke-linecap="butt" stroke-linejoin="miter" stroke-miterlimit="10" stroke-dasharray="" stroke-dashoffset="0" style="mix-blend-mode: normal"><path d="M-30,390v-420h540v420z"/><path d="M-7.5,31h-15c-3.58529,0.01098 -6.48902,2.9147 -6.5,6.5v15c0.01098,3.5853 2.91471,6.48902 6.5,6.5h15c3.5853,-0.01098 6.48902,-2.9147 6.5,-6.5v-15c-0.01098,-3.5853 -2.9147,-6.48902 -6.5,-6.5zM29,67.5v15c-0.01098,3.5853 -2.91471,6.48902 -6.5,6.5h-15c-3.58529,-0.01098 -6.48902,-2.9147 -6.5,-6.5v-15c0.01098,-3.5853 2.91471,-6.48902 6.5,-6.5h15c3.58529,0.01098 6.48902,2.9147 6.5,6.5zM-1,97.5v15c-0.01098,3.5853 -2.9147,6.48902 -6.5,6.5h-15c-3.58529,-0.01098 -6.48902,-2.9147 -6.5,-6.5v-15c0.01098,-3.5853 2.91471,-6.48902 6.5,-6.5h15c3.5853,0.01098 6.48902,2.9147 6.5,6.5zM29,127.5v15c-0.01098,3.5853 -2.91471,6.48902 -6.5,6.5h-15c-3.58529,-0.01098 -6.48902,-2.9147 -6.5,-6.5v-15c0.01098,-3.5853 2.91471,-6.48902 6.5,-6.5h15c3.58529,0.01098 6.48902,2.9147 6.5,6.5zM-1,157.5v15c-0.01098,3.5853 -2.9147,6.48902 -6.5,6.5h-15c-3.58529,-0.01098 -6.48902,-2.9147 -6.5,-6.5v-15c0.01098,-3.5853 2.91471,-6.48902 6.5,-6.5h15c3.5853,0.01098 6.48902,2.9147 6.5,6.5zM29,187.5v15c-0.01098,3.5853 -2.91471,6.48902 -6.5,6.5h-15c-3.58529,-0.01098 -6.48902,-2.9147 -6.5,-6.5v-15c0.01098,-3.5853 2.91471,-6.48902 6.5,-6.5h15c3.58529,0.01098 6.48902,2.9147 6.5,6.5zM-1,217.5v15c-0.01098,3.5853 -2.9147,6.48902 -6.5,6.5h-15c-3.58529,-0.01098 -6.48902,-2.9147 -6.5,-6.5v-15c0.01098,-3.5853 2.91471,-6.48902 6.5,-6.5h15c3.5853,0.01098 6.48902,2.9147 6.5,6.5zM29,247.5v15c-0.01098,3.58529 -2.91471,6.48902 -6.5,6.5h-15c-3.58529,-0.01098 -6.48902,-2.91471 -6.5,-6.5v-15c0.01098,-3.5853 2.91471,-6.48902 6.5,-6.5h15c3.58529,0.01098 6.48902,2.9147 6.5,6.5zM-1,277.5v15c-0.01098,3.58529 -2.9147,6.48902 -6.5,6.5h-15c-3.58529,-0.01098 -6.48902,-2.91471 -6.5,-6.5v-15c0.01098,-3.58529 2.91471,-6.48902 6.5,-6.5h15c3.5853,0.01098 6.48902,2.91471 6.5,6.5zM29,307.5v15c-0.01098,3.58529 -2.91471,6.48902 -6.5,6.5h-15c-3.58529,-0.01098 -6.48902,-2.91471 -6.5,-6.5v-15c0.01098,-3.58529 2.91471,-6.48902 6.5,-6.5h15c3.58529,0.01098 6.48902,2.91471 6.5,6.5zM-1,337.5v15c-0.01098,3.58529 -2.9147,6.48902 -6.5,6.5h-15c-3.58529,-0.01098 -6.48902,-2.91471 -6.5,-6.5v-15c0.01098,-3.58529 2.91471,-6.48902 6.5,-6.5h15c3.5853,0.01098 6.48902,2.91471 6.5,6.5zM29,367.5v15c-0.01098,3.58529 -2.91471,6.48902 -6.5,6.5h-15c-3.58529,-0.01098 -6.48902,-2.91471 -6.5,-6.5v-15c0.01098,-3.58529 2.91471,-6.48902 6.5,-6.5h15c3.58529,0.01098 6.48902,2.91471 6.5,6.5zM59,37.5v15c-0.01098,3.5853 -2.9147,6.48902 -6.5,6.5h-15c-3.5853,-0.01098 -6.48902,-2.9147 -6.5,-6.5v-15c0.01098,-3.5853 2.9147,-6.48902 6.5,-6.5h15c3.5853,0.01098 6.48902,2.9147 6.5,6.5zM89,67.5v15c-0.01098,3.5853 -2.9147,6.48902 -6.5,6.5h-15c-3.5853,-0.01098 -6.48902,-2.9147 -6.5,-6.5v-15c0.01098,-3.5853 2.9147,-6.48902 6.5,-6.5h15c3.5853,0.01098 6.48902,2.9147 6.5,6.5zM59,97.5v15c-0.01098,3.5853 -2.9147,6.48902 -6.5,6.5h-15c-3.5853,-0.01098 -6.48902,-2.9147 -6.5,-6.5v-15c0.01098,-3.5853 2.9147,-6.48902 6.5,-6.5h15c3.5853,0.01098 6.48902,2.9147 6.5,6.5zM89,127.5v15c-0.01098,3.5853 -2.9147,6.48902 -6.5,6.5h-15c-3.5853,-0.01098 -6.48902,-2.9147 -6.5,-6.5v-15c0.01098,-3.5853 2.9147,-6.48902 6.5,-6.5h15c3.5853,0.01098 6.48902,2.9147 6.5,6.5zM59,157.5v15c-0.01098,3.5853 -2.9147,6.48902 -6.5,6.5h-15c-3.5853,-0.01098 -6.48902,-2.9147 -6.5,-6.5v-15c0.01098,-3.5853 2.9147,-6.48902 6.5,-6.5h15c3.5853,0.01098 6.48902,2.9147 6.5,6.5zM89,187.5v15c-0.01098,3.5853 -2.9147,6.48902 -6.5,6.5h-15c-3.5853,-0.01098 -6.48902,-2.9147 -6.5,-6.5v-15c0.01098,-3.5853 2.9147,-6.48902 6.5,-6.5h15c3.5853,0.01098 6.48902,2.9147 6.5,6.5zM59,217.5v15c-0.01098,3.5853 -2.9147,6.48902 -6.5,6.5h-15c-3.5853,-0.01098 -6.48902,-2.9147 -6.5,-6.5v-15c0.01098,-3.5853 2.9147,-6.48902 6.5,-6.5h15c3.5853,0.01098 6.48902,2.9147 6.5,6.5zM89,247.5v15c-0.01098,3.58529 -2.9147,6.48902 -6.5,6.5h-15c-3.5853,-0.01098 -6.48902,-2.91471 -6.5,-6.5v-15c0.01098,-3.5853 2.9147,-6.48902 6.5,-6.5h15c3.5853,0.01098 6.48902,2.9147 6.5,6.5zM59,277.5v15c-0.01098,3.58529 -2.9147,6.48902 -6.5,6.5h-15c-3.5853,-0.01098 -6.48902,-2.91471 -6.5,-6.5v-15c0.01098,-3.58529 2.9147,-6.48902 6.5,-6.5h15c3.5853,0.01098 6.48902,2.91471 6.5,6.5zM89,307.5v15c-0.01098,3.58529 -2.9147,6.48902 -6.5,6.5h-15c-3.5853,-0.01098 -6.48902,-2.91471 -6.5,-6.5v-15c0.01098,-3.58529 2.9147,-6.48902 6.5,-6.5h15c3.5853,0.01098 6.48902,2.91471 6.5,6.5zM59,337.5v15c-0.01098,3.58529 -2.9147,6.48902 -6.5,6.5h-15c-3.5853,-0.01098 -6.48902,-2.91471 -6.5,-6.5v-15c0.01098,-3.58529 2.9147,-6.48902 6.5,-6.5h15c3.5853,0.01098 6.48902,2.91471 6.5,6.5zM89,367.5v15c-0.01098,3.58529 -2.9147,6.48902 -6.5,6.5h-15c-3.5853,-0.01098 -6.48902,-2.91471 -6.5,-6.5v-15c0.01098,-3.58529 2.9147,-6.48902 6.5,-6.5h15c3.5853,0.01098 6.48902,2.91471 6.5,6.5zM119,37.5v15c-0.01098,3.5853 -2.9147,6.48902 -6.5,6.5h-15c-3.5853,-0.01098 -6.48902,-2.9147 -6.5,-6.5v-15c0.01098,-3.5853 2.9147,-6.48902 6.5,-6.5h15c3.5853,0.01098 6.48902,2.9147 6.5,6.5zM149,67.5v15c-0.01098,3.5853 -2.9147,6.48902 -6.5,6.5h-15c-3.5853,-0.01098 -6.48902,-2.9147 -6.5,-6.5v-15c0.01098,-3.5853 2.9147,-6.48902 6.5,-6.5h15c3.5853,0.01098 6.48902,2.9147 6.5,6.5zM119,97.5v15c-0.01098,3.5853 -2.9147,6.48902 -6.5,6.5h-15c-3.5853,-0.01098 -6.48902,-2.9147 -6.5,-6.5v-15c0.01098,-3.5853 2.9147,-6.48902 6.5,-6.5h15c3.5853,0.01098 6.48902,2.9147 6.5,6.5zM149,127.5v15c-0.01098,3.5853 -2.9147,6.48902 -6.5,6.5h-15c-3.5853,-0.01098 -6.48902,-2.9147 -6.5,-6.5v-15c0.01098,-3.5853 2.9147,-6.48902 6.5,-6.5h15c3.5853,0.01098 6.48902,2.9147 6.5,6.5zM119,157.5v15c-0.01098,3.5853 -2.9147,6.48902 -6.5,6.5h-15c-3.5853,-0.01098 -6.48902,-2.9147 -6.5,-6.5v-15c0.01098,-3.5853 2.9147,-6.48902 6.5,-6.5h15c3.5853,0.01098 6.48902,2.9147 6.5,6.5zM149,187.5v15c-0.01098,3.5853 -2.9147,6.48902 -6.5,6.5h-15c-3.5853,-0.01098 -6.48902,-2.9147 -6.5,-6.5v-15c0.01098,-3.5853 2.9147,-6.48902 6.5,-6.5h15c3.5853,0.01098 6.48902,2.9147 6.5,6.5zM119,217.5v15c-0.01098,3.5853 -2.9147,6.48902 -6.5,6.5h-15c-3.5853,-0.01098 -6.48902,-2.9147 -6.5,-6.5v-15c0.01098,-3.5853 2.9147,-6.48902 6.5,-6.5h15c3.5853,0.01098 6.48902,2.9147 6.5,6.5zM149,247.5v15c-0.01098,3.58529 -2.9147,6.48902 -6.5,6.5h-15c-3.5853,-0.01098 -6.48902,-2.91471 -6.5,-6.5v-15c0.01098,-3.5853 2.9147,-6.48902 6.5,-6.5h15c3.5853,0.01098 6.48902,2.9147 6.5,6.5zM119,277.5v15c-0.01098,3.58529 -2.9147,6.48902 -6.5,6.5h-15c-3.5853,-0.01098 -6.48902,-2.91471 -6.5,-6.5v-15c0.01098,-3.58529 2.9147,-6.48902 6.5,-6.5h15c3.5853,0.01098 6.48902,2.91471 6.5,6.5zM149,307.5v15c-0.01098,3.58529 -2.9147,6.48902 -6.5,6.5h-15c-3.5853,-0.01098 -6.48902,-2.91471 -6.5,-6.5v-15c0.01098,-3.58529 2.9147,-6.48902 6.5,-6.5h15c3.5853,0.01098 6.48902,2.91471 6.5,6.5zM119,337.5v15c-0.01098,3.58529 -2.9147,6.48902 -6.5,6.5h-15c-3.5853,-0.01098 -6.48902,-2.91471 -6.5,-6.5v-15c0.01098,-3.58529 2.9147,-6.48902 6.5,-6.5h15c3.5853,0.01098 6.48902,2.91471 6.5,6.5zM149,367.5v15c-0.01098,3.58529 -2.9147,6.48902 -6.5,6.5h-15c-3.5853,-0.01098 -6.48902,-2.91471 -6.5,-6.5v-15c0.01098,-3.58529 2.9147,-6.48902 6.5,-6.5h15c3.5853,0.01098 6.48902,2.91471 6.5,6.5zM179,37.5v15c-0.01098,3.5853 -2.9147,6.48902 -6.5,6.5h-15c-3.5853,-0.01098 -6.48902,-2.9147 -6.5,-6.5v-15c0.01098,-3.5853 2.9147,-6.48902 6.5,-6.5h15c3.5853,0.01098 6.48902,2.9147 6.5,6.5zM209,67.5v15c-0.01098,3.5853 -2.9147,6.48902 -6.5,6.5h-15c-3.5853,-0.01098 -6.48902,-2.9147 -6.5,-6.5v-15c0.01098,-3.5853 2.9147,-6.48902 6.5,-6.5h15c3.5853,0.01098 6.48902,2.9147 6.5,6.5zM179,97.5v15c-0.01098,3.5853 -2.9147,6.48902 -6.5,6.5h-15c-3.5853,-0.01098 -6.48902,-2.9147 -6.5,-6.5v-15c0.01098,-3.5853 2.9147,-6.48902 6.5,-6.5h15c3.5853,0.01098 6.48902,2.9147 6.5,6.5zM209,127.5v15c-0.01098,3.5853 -2.9147,6.48902 -6.5,6.5h-15c-3.5853,-0.01098 -6.48902,-2.9147 -6.5,-6.5v-15c0.01098,-3.5853 2.9147,-6.48902 6.5,-6.5h15c3.5853,0.01098 6.48902,2.9147 6.5,6.5zM179,157.5v15c-0.01098,3.5853 -2.9147,6.48902 -6.5,6.5h-15c-3.5853,-0.01098 -6.48902,-2.9147 -6.5,-6.5v-15c0.01098,-3.5853 2.9147,-6.48902 6.5,-6.5h15c3.5853,0.01098 6.48902,2.9147 6.5,6.5zM209,187.5v15c-0.01098,3.5853 -2.9147,6.48902 -6.5,6.5h-15c-3.5853,-0.01098 -6.48902,-2.9147 -6.5,-6.5v-15c0.01098,-3.5853 2.9147,-6.48902 6.5,-6.5h15c3.5853,0.01098 6.48902,2.9147 6.5,6.5zM179,217.5v15c-0.01098,3.5853 -2.9147,6.48902 -6.5,6.5h-15c-3.5853,-0.01098 -6.48902,-2.9147 -6.5,-6.5v-15c0.01098,-3.5853 2.9147,-6.48902 6.5,-6.5h15c3.5853,0.01098 6.48902,2.9147 6.5,6.5zM209,247.5v15c-0.01098,3.58529 -2.9147,6.48902 -6.5,6.5h-15c-3.5853,-0.01098 -6.48902,-2.91471 -6.5,-6.5v-15c0.01098,-3.5853 2.9147,-6.48902 6.5,-6.5h15c3.5853,0.01098 6.48902,2.9147 6.5,6.5zM179,277.5v15c-0.01098,3.58529 -2.9147,6.48902 -6.5,6.5h-15c-3.5853,-0.01098 -6.48902,-2.91471 -6.5,-6.5v-15c0.01098,-3.58529 2.9147,-6.48902 6.5,-6.5h15c3.5853,0.01098 6.48902,2.91471 6.5,6.5zM209,307.5v15c-0.01098,3.58529 -2.9147,6.48902 -6.5,6.5h-15c-3.5853,-0.01098 -6.48902,-2.91471 -6.5,-6.5v-15c0.01098,-3.58529 2.9147,-6.48902 6.5,-6.5h15c3.5853,0.01098 6.48902,2.91471 6.5,6.5zM179,337.5v15c-0.01098,3.58529 -2.9147,6.48902 -6.5,6.5h-15c-3.5853,-0.01098 -6.48902,-2.91471 -6.5,-6.5v-15c0.01098,-3.58529 2.9147,-6.48902 6.5,-6.5h15c3.5853,0.01098 6.48902,2.91471 6.5,6.5zM209,367.5v15c-0.01098,3.58529 -2.9147,6.48902 -6.5,6.5h-15c-3.5853,-0.01098 -6.48902,-2.91471 -6.5,-6.5v-15c0.01098,-3.58529 2.9147,-6.48902 6.5,-6.5h15c3.5853,0.01098 6.48902,2.91471 6.5,6.5zM239,37.5v15c-0.01098,3.5853 -2.9147,6.48902 -6.5,6.5h-15c-3.5853,-0.01098 -6.48902,-2.9147 -6.5,-6.5v-15c0.01098,-3.5853 2.9147,-6.48902 6.5,-6.5h15c3.5853,0.01098 6.48902,2.9147 6.5,6.5zM269,67.5v15c-0.01098,3.5853 -2.91471,6.48902 -6.5,6.5h-15c-3.5853,-0.01098 -6.48902,-2.9147 -6.5,-6.5v-15c0.01098,-3.5853 2.9147,-6.48902 6.5,-6.5h15c3.58529,0.01098 6.48902,2.9147 6.5,6.5zM239,97.5v15c-0.01098,3.5853 -2.9147,6.48902 -6.5,6.5h-15c-3.5853,-0.01098 -6.48902,-2.9147 -6.5,-6.5v-15c0.01098,-3.5853 2.9147,-6.48902 6.5,-6.5h15c3.5853,0.01098 6.48902,2.9147 6.5,6.5zM269,127.5v15c-0.01098,3.5853 -2.91471,6.48902 -6.5,6.5h-15c-3.5853,-0.01098 -6.48902,-2.9147 -6.5,-6.5v-15c0.01098,-3.5853 2.9147,-6.48902 6.5,-6.5h15c3.58529,0.01098 6.48902,2.9147 6.5,6.5zM239,157.5v15c-0.01098,3.5853 -2.9147,6.48902 -6.5,6.5h-15c-3.5853,-0.01098 -6.48902,-2.9147 -6.5,-6.5v-15c0.01098,-3.5853 2.9147,-6.48902 6.5,-6.5h15c3.5853,0.01098 6.48902,2.9147 6.5,6.5zM269,187.5v15c-0.01098,3.5853 -2.91471,6.48902 -6.5,6.5h-15c-3.5853,-0.01098 -6.48902,-2.9147 -6.5,-6.5v-15c0.01098,-3.5853 2.9147,-6.48902 6.5,-6.5h15c3.58529,0.01098 6.48902,2.9147 6.5,6.5zM239,217.5v15c-0.01098,3.5853 -2.9147,6.48902 -6.5,6.5h-15c-3.5853,-0.01098 -6.48902,-2.9147 -6.5,-6.5v-15c0.01098,-3.5853 2.9147,-6.48902 6.5,-6.5h15c3.5853,0.01098 6.48902,2.9147 6.5,6.5zM269,247.5v15c-0.01098,3.58529 -2.91471,6.48902 -6.5,6.5h-15c-3.5853,-0.01098 -6.48902,-2.91471 -6.5,-6.5v-15c0.01098,-3.5853 2.9147,-6.48902 6.5,-6.5h15c3.58529,0.01098 6.48902,2.9147 6.5,6.5zM239,277.5v15c-0.01098,3.58529 -2.9147,6.48902 -6.5,6.5h-15c-3.5853,-0.01098 -6.48902,-2.91471 -6.5,-6.5v-15c0.01098,-3.58529 2.9147,-6.48902 6.5,-6.5h15c3.5853,0.01098 6.48902,2.91471 6.5,6.5zM269,307.5v15c-0.01098,3.58529 -2.91471,6.48902 -6.5,6.5h-15c-3.5853,-0.01098 -6.48902,-2.91471 -6.5,-6.5v-15c0.01098,-3.58529 2.9147,-6.48902 6.5,-6.5h15c3.58529,0.01098 6.48902,2.91471 6.5,6.5zM239,337.5v15c-0.01098,3.58529 -2.9147,6.48902 -6.5,6.5h-15c-3.5853,-0.01098 -6.48902,-2.91471 -6.5,-6.5v-15c0.01098,-3.58529 2.9147,-6.48902 6.5,-6.5h15c3.5853,0.01098 6.48902,2.91471 6.5,6.5zM269,367.5v15c-0.01098,3.58529 -2.91471,6.48902 -6.5,6.5h-15c-3.5853,-0.01098 -6.48902,-2.91471 -6.5,-6.5v-15c0.01098,-3.58529 2.9147,-6.48902 6.5,-6.5h15c3.58529,0.01098 6.48902,2.91471 6.5,6.5zM299,37.5v15c-0.01098,3.5853 -2.91471,6.48902 -6.5,6.5h-15c-3.58529,-0.01098 -6.48902,-2.9147 -6.5,-6.5v-15c0.01098,-3.5853 2.91471,-6.48902 6.5,-6.5h15c3.58529,0.01098 6.48902,2.9147 6.5,6.5zM329,67.5v15c-0.01098,3.5853 -2.91471,6.48902 -6.5,6.5h-15c-3.58529,-0.01098 -6.48902,-2.9147 -6.5,-6.5v-15c0.01098,-3.5853 2.91471,-6.48902 6.5,-6.5h15c3.58529,0.01098 6.48902,2.9147 6.5,6.5zM299,97.5v15c-0.01098,3.5853 -2.91471,6.48902 -6.5,6.5h-15c-3.58529,-0.01098 -6.48902,-2.9147 -6.5,-6.5v-15c0.01098,-3.5853 2.91471,-6.48902 6.5,-6.5h15c3.58529,0.01098 6.48902,2.9147 6.5,6.5zM329,127.5v15c-0.01098,3.5853 -2.91471,6.48902 -6.5,6.5h-15c-3.58529,-0.01098 -6.48902,-2.9147 -6.5,-6.5v-15c0.01098,-3.5853 2.91471,-6.48902 6.5,-6.5h15c3.58529,0.01098 6.48902,2.9147 6.5,6.5zM299,157.5v15c-0.01098,3.5853 -2.91471,6.48902 -6.5,6.5h-15c-3.58529,-0.01098 -6.48902,-2.9147 -6.5,-6.5v-15c0.01098,-3.5853 2.91471,-6.48902 6.5,-6.5h15c3.58529,0.01098 6.48902,2.9147 6.5,6.5zM329,187.5v15c-0.01098,3.5853 -2.91471,6.48902 -6.5,6.5h-15c-3.58529,-0.01098 -6.48902,-2.9147 -6.5,-6.5v-15c0.01098,-3.5853 2.91471,-6.48902 6.5,-6.5h15c3.58529,0.01098 6.48902,2.9147 6.5,6.5zM299,217.5v15c-0.01098,3.5853 -2.91471,6.48902 -6.5,6.5h-15c-3.58529,-0.01098 -6.48902,-2.9147 -6.5,-6.5v-15c0.01098,-3.5853 2.91471,-6.48902 6.5,-6.5h15c3.58529,0.01098 6.48902,2.9147 6.5,6.5zM329,247.5v15c-0.01098,3.58529 -2.91471,6.48902 -6.5,6.5h-15c-3.58529,-0.01098 -6.48902,-2.91471 -6.5,-6.5v-15c0.01098,-3.5853 2.91471,-6.48902 6.5,-6.5h15c3.58529,0.01098 6.48902,2.9147 6.5,6.5zM299,277.5v15c-0.01098,3.58529 -2.91471,6.48902 -6.5,6.5h-15c-3.58529,-0.01098 -6.48902,-2.91471 -6.5,-6.5v-15c0.01098,-3.58529 2.91471,-6.48902 6.5,-6.5h15c3.58529,0.01098 6.48902,2.91471 6.5,6.5zM329,307.5v15c-0.01098,3.58529 -2.91471,6.48902 -6.5,6.5h-15c-3.58529,-0.01098 -6.48902,-2.91471 -6.5,-6.5v-15c0.01098,-3.58529 2.91471,-6.48902 6.5,-6.5h15c3.58529,0.01098 6.48902,2.91471 6.5,6.5zM299,337.5v15c-0.01098,3.58529 -2.91471,6.48902 -6.5,6.5h-15c-3.58529,-0.01098 -6.48902,-2.91471 -6.5,-6.5v-15c0.01098,-3.58529 2.91471,-6.48902 6.5,-6.5h15c3.58529,0.01098 6.48902,2.91471 6.5,6.5zM329,367.5v15c-0.01098,3.58529 -2.91471,6.48902 -6.5,6.5h-15c-3.58529,-0.01098 -6.48902,-2.91471 -6.5,-6.5v-15c0.01098,-3.58529 2.91471,-6.48902 6.5,-6.5h15c3.58529,0.01098 6.48902,2.91471 6.5,6.5zM359,37.5v15c-0.01098,3.5853 -2.91471,6.48902 -6.5,6.5h-15c-3.58529,-0.01098 -6.48902,-2.9147 -6.5,-6.5v-15c0.01098,-3.5853 2.91471,-6.48902 6.5,-6.5h15c3.58529,0.01098 6.48902,2.9147 6.5,6.5zM389,67.5v15c-0.01098,3.5853 -2.91471,6.48902 -6.5,6.5h-15c-3.58529,-0.01098 -6.48902,-2.9147 -6.5,-6.5v-15c0.01098,-3.5853 2.91471,-6.48902 6.5,-6.5h15c3.58529,0.01098 6.48902,2.9147 6.5,6.5zM359,97.5v15c-0.01098,3.5853 -2.91471,6.48902 -6.5,6.5h-15c-3.58529,-0.01098 -6.48902,-2.9147 -6.5,-6.5v-15c0.01098,-3.5853 2.91471,-6.48902 6.5,-6.5h15c3.58529,0.01098 6.48902,2.9147 6.5,6.5zM389,127.5v15c-0.01098,3.5853 -2.91471,6.48902 -6.5,6.5h-15c-3.58529,-0.01098 -6.48902,-2.9147 -6.5,-6.5v-15c0.01098,-3.5853 2.91471,-6.48902 6.5,-6.5h15c3.58529,0.01098 6.48902,2.9147 6.5,6.5zM359,157.5v15c-0.01098,3.5853 -2.91471,6.48902 -6.5,6.5h-15c-3.58529,-0.01098 -6.48902,-2.9147 -6.5,-6.5v-15c0.01098,-3.5853 2.91471,-6.48902 6.5,-6.5h15c3.58529,0.01098 6.48902,2.9147 6.5,6.5zM389,187.5v15c-0.01098,3.5853 -2.91471,6.48902 -6.5,6.5h-15c-3.58529,-0.01098 -6.48902,-2.9147 -6.5,-6.5v-15c0.01098,-3.5853 2.91471,-6.48902 6.5,-6.5h15c3.58529,0.01098 6.48902,2.9147 6.5,6.5zM359,217.5v15c-0.01098,3.5853 -2.91471,6.48902 -6.5,6.5h-15c-3.58529,-0.01098 -6.48902,-2.9147 -6.5,-6.5v-15c0.01098,-3.5853 2.91471,-6.48902 6.5,-6.5h15c3.58529,0.01098 6.48902,2.9147 6.5,6.5zM389,247.5v15c-0.01098,3.58529 -2.91471,6.48902 -6.5,6.5h-15c-3.58529,-0.01098 -6.48902,-2.91471 -6.5,-6.5v-15c0.01098,-3.5853 2.91471,-6.48902 6.5,-6.5h15c3.58529,0.01098 6.48902,2.9147 6.5,6.5zM359,277.5v15c-0.01098,3.58529 -2.91471,6.48902 -6.5,6.5h-15c-3.58529,-0.01098 -6.48902,-2.91471 -6.5,-6.5v-15c0.01098,-3.58529 2.91471,-6.48902 6.5,-6.5h15c3.58529,0.01098 6.48902,2.91471 6.5,6.5zM389,307.5v15c-0.01098,3.58529 -2.91471,6.48902 -6.5,6.5h-15c-3.58529,-0.01098 -6.48902,-2.91471 -6.5,-6.5v-15c0.01098,-3.58529 2.91471,-6.48902 6.5,-6.5h15c3.58529,0.01098 6.48902,2.91471 6.5,6.5zM359,337.5v15c-0.01098,3.58529 -2.91471,6.48902 -6.5,6.5h-15c-3.58529,-0.01098 -6.48902,-2.91471 -6.5,-6.5v-15c0.01098,-3.58529 2.91471,-6.48902 6.5,-6.5h15c3.58529,0.01098 6.48902,2.91471 6.5,6.5zM389,367.5v15c-0.01098,3.58529 -2.91471,6.48902 -6.5,6.5h-15c-3.58529,-0.01098 -6.48902,-2.91471 -6.5,-6.5v-15c0.01098,-3.58529 2.91471,-6.48902 6.5,-6.5h15c3.58529,0.01098 6.48902,2.91471 6.5,6.5zM419,37.5v15c-0.01098,3.5853 -2.91471,6.48902 -6.5,6.5h-15c-3.58529,-0.01098 -6.48902,-2.9147 -6.5,-6.5v-15c0.01098,-3.5853 2.91471,-6.48902 6.5,-6.5h15c3.58529,0.01098 6.48902,2.9147 6.5,6.5zM449,67.5v15c-0.01098,3.5853 -2.91471,6.48902 -6.5,6.5h-15c-3.58529,-0.01098 -6.48902,-2.9147 -6.5,-6.5v-15c0.01098,-3.5853 2.91471,-6.48902 6.5,-6.5h15c3.58529,0.01098 6.48902,2.9147 6.5,6.5zM-1,-22.5v15c-0.01098,3.5853 -2.9147,6.48902 -6.5,6.5h-15c-3.58529,-0.01098 -6.48902,-2.9147 -6.5,-6.5v-15c0.01098,-3.58529 2.91471,-6.48902 6.5,-6.5h15c3.5853,0.01098 6.48902,2.91471 6.5,6.5zM29,7.5v15c-0.01098,3.58529 -2.91471,6.48902 -6.5,6.5h-15c-3.58529,-0.01098 -6.48902,-2.91471 -6.5,-6.5v-15c0.01098,-3.58529 2.91471,-6.48902 6.5,-6.5h15c3.58529,0.01098 6.48902,2.91471 6.5,6.5zM59,-22.5v15c-0.01098,3.5853 -2.9147,6.48902 -6.5,6.5h-15c-3.5853,-0.01098 -6.48902,-2.9147 -6.5,-6.5v-15c0.01098,-3.58529 2.9147,-6.48902 6.5,-6.5h15c3.5853,0.01098 6.48902,2.91471 6.5,6.5zM89,7.5v15c-0.01098,3.58529 -2.9147,6.48902 -6.5,6.5h-15c-3.5853,-0.01098 -6.48902,-2.91471 -6.5,-6.5v-15c0.01098,-3.58529 2.9147,-6.48902 6.5,-6.5h15c3.5853,0.01098 6.48902,2.91471 6.5,6.5zM119,-22.5v15c-0.01098,3.5853 -2.9147,6.48902 -6.5,6.5h-15c-3.5853,-0.01098 -6.48902,-2.9147 -6.5,-6.5v-15c0.01098,-3.58529 2.9147,-6.48902 6.5,-6.5h15c3.5853,0.01098 6.48902,2.91471 6.5,6.5zM149,7.5v15c-0.01098,3.58529 -2.9147,6.48902 -6.5,6.5h-15c-3.5853,-0.01098 -6.48902,-2.91471 -6.5,-6.5v-15c0.01098,-3.58529 2.9147,-6.48902 6.5,-6.5h15c3.5853,0.01098 6.48902,2.91471 6.5,6.5zM179,-22.5v15c-0.01098,3.5853 -2.9147,6.48902 -6.5,6.5h-15c-3.5853,-0.01098 -6.48902,-2.9147 -6.5,-6.5v-15c0.01098,-3.58529 2.9147,-6.48902 6.5,-6.5h15c3.5853,0.01098 6.48902,2.91471 6.5,6.5zM209,7.5v15c-0.01098,3.58529 -2.9147,6.48902 -6.5,6.5h-15c-3.5853,-0.01098 -6.48902,-2.91471 -6.5,-6.5v-15c0.01098,-3.58529 2.9147,-6.48902 6.5,-6.5h15c3.5853,0.01098 6.48902,2.91471 6.5,6.5zM239,-22.5v15c-0.01098,3.5853 -2.9147,6.48902 -6.5,6.5h-15c-3.5853,-0.01098 -6.48902,-2.9147 -6.5,-6.5v-15c0.01098,-3.58529 2.9147,-6.48902 6.5,-6.5h15c3.5853,0.01098 6.48902,2.91471 6.5,6.5zM269,7.5v15c-0.01098,3.58529 -2.91471,6.48902 -6.5,6.5h-15c-3.5853,-0.01098 -6.48902,-2.91471 -6.5,-6.5v-15c0.01098,-3.58529 2.9147,-6.48902 6.5,-6.5h15c3.58529,0.01098 6.48902,2.91471 6.5,6.5zM299,-22.5v15c-0.01098,3.5853 -2.91471,6.48902 -6.5,6.5h-15c-3.58529,-0.01098 -6.48902,-2.9147 -6.5,-6.5v-15c0.01098,-3.58529 2.91471,-6.48902 6.5,-6.5h15c3.58529,0.01098 6.48902,2.91471 6.5,6.5zM329,7.5v15c-0.01098,3.58529 -2.91471,6.48902 -6.5,6.5h-15c-3.58529,-0.01098 -6.48902,-2.91471 -6.5,-6.5v-15c0.01098,-3.58529 2.91471,-6.48902 6.5,-6.5h15c3.58529,0.01098 6.48902,2.91471 6.5,6.5zM359,-22.5v15c-0.01098,3.5853 -2.91471,6.48902 -6.5,6.5h-15c-3.58529,-0.01098 -6.48902,-2.9147 -6.5,-6.5v-15c0.01098,-3.58529 2.91471,-6.48902 6.5,-6.5h15c3.58529,0.01098 6.48902,2.91471 6.5,6.5zM389,7.5v15c-0.01098,3.58529 -2.91471,6.48902 -6.5,6.5h-15c-3.58529,-0.01098 -6.48902,-2.91471 -6.5,-6.5v-15c0.01098,-3.58529 2.91471,-6.48902 6.5,-6.5h15c3.58529,0.01098 6.48902,2.91471 6.5,6.5zM419,-22.5v15c-0.01098,3.5853 -2.91471,6.48902 -6.5,6.5h-15c-3.58529,-0.01098 -6.48902,-2.9147 -6.5,-6.5v-15c0.01098,-3.58529 2.91471,-6.48902 6.5,-6.5h15c3.58529,0.01098 6.48902,2.91471 6.5,6.5zM449,7.5v15c-0.01098,3.58529 -2.91471,6.48902 -6.5,6.5h-15c-3.58529,-0.01098 -6.48902,-2.91471 -6.5,-6.5v-15c0.01098,-3.58529 2.91471,-6.48902 6.5,-6.5h15c3.58529,0.01098 6.48902,2.91471 6.5,6.5zM419,97.5v15c-0.01098,3.5853 -2.91471,6.48902 -6.5,6.5h-15c-3.58529,-0.01098 -6.48902,-2.9147 -6.5,-6.5v-15c0.01098,-3.5853 2.91471,-6.48902 6.5,-6.5h15c3.58529,0.01098 6.48902,2.9147 6.5,6.5zM449,127.5v15c-0.01098,3.5853 -2.91471,6.48902 -6.5,6.5h-15c-3.58529,-0.01098 -6.48902,-2.9147 -6.5,-6.5v-15c0.01098,-3.5853 2.91471,-6.48902 6.5,-6.5h15c3.58529,0.01098 6.48902,2.9147 6.5,6.5zM419,157.5v15c-0.01098,3.5853 -2.91471,6.48902 -6.5,6.5h-15c-3.58529,-0.01098 -6.48902,-2.9147 -6.5,-6.5v-15c0.01098,-3.5853 2.91471,-6.48902 6.5,-6.5h15c3.58529,0.01098 6.48902,2.9147 6.5,6.5zM449,187.5v15c-0.01098,3.5853 -2.91471,6.48902 -6.5,6.5h-15c-3.58529,-0.01098 -6.48902,-2.9147 -6.5,-6.5v-15c0.01098,-3.5853 2.91471,-6.48902 6.5,-6.5h15c3.58529,0.01098 6.48902,2.9147 6.5,6.5zM419,217.5v15c-0.01098,3.5853 -2.91471,6.48902 -6.5,6.5h-15c-3.58529,-0.01098 -6.48902,-2.9147 -6.5,-6.5v-15c0.01098,-3.5853 2.91471,-6.48902 6.5,-6.5h15c3.58529,0.01098 6.48902,2.9147 6.5,6.5zM449,247.5v15c-0.01098,3.58529 -2.91471,6.48902 -6.5,6.5h-15c-3.58529,-0.01098 -6.48902,-2.91471 -6.5,-6.5v-15c0.01098,-3.5853 2.91471,-6.48902 6.5,-6.5h15c3.58529,0.01098 6.48902,2.9147 6.5,6.5zM419,277.5v15c-0.01098,3.58529 -2.91471,6.48902 -6.5,6.5h-15c-3.58529,-0.01098 -6.48902,-2.91471 -6.5,-6.5v-15c0.01098,-3.58529 2.91471,-6.48902 6.5,-6.5h15c3.58529,0.01098 6.48902,2.91471 6.5,6.5zM449,307.5v15c-0.01098,3.58529 -2.91471,6.48902 -6.5,6.5h-15c-3.58529,-0.01098 -6.48902,-2.91471 -6.5,-6.5v-15c0.01098,-3.58529 2.91471,-6.48902 6.5,-6.5h15c3.58529,0.01098 6.48902,2.91471 6.5,6.5zM419,337.5v15c-0.01098,3.58529 -2.91471,6.48902 -6.5,6.5h-15c-3.58529,-0.01098 -6.48902,-2.91471 -6.5,-6.5v-15c0.01098,-3.58529 2.91471,-6.48902 6.5,-6.5h15c3.58529,0.01098 6.48902,2.91471 6.5,6.5zM449,367.5v15c-0.01098,3.58529 -2.91471,6.48902 -6.5,6.5h-15c-3.58529,-0.01098 -6.48902,-2.91471 -6.5,-6.5v-15c0.01098,-3.58529 2.91471,-6.48902 6.5,-6.5h15c3.58529,0.01098 6.48902,2.91471 6.5,6.5zM479,37.5v15c-0.01098,3.5853 -2.91471,6.48902 -6.5,6.5h-15c-3.58529,-0.01098 -6.48902,-2.9147 -6.5,-6.5v-15c0.01098,-3.5853 2.91471,-6.48902 6.5,-6.5h15c3.58529,0.01098 6.48902,2.9147 6.5,6.5zM509,67.5v15c-0.01098,3.5853 -2.91471,6.48902 -6.5,6.5h-15c-3.58529,-0.01098 -6.48902,-2.9147 -6.5,-6.5v-15c0.01098,-3.5853 2.91471,-6.48902 6.5,-6.5h15c3.58529,0.01098 6.48902,2.9147 6.5,6.5zM479,-22.5v15c-0.01098,3.5853 -2.91471,6.48902 -6.5,6.5h-15c-3.58529,-0.01098 -6.48902,-2.9147 -6.5,-6.5v-15c0.01098,-3.58529 2.91471,-6.48902 6.5,-6.5h15c3.58529,0.01098 6.48902,2.91471 6.5,6.5zM509,7.5v15c-0.01098,3.58529 -2.91471,6.48902 -6.5,6.5h-15c-3.58529,-0.01098 -6.48902,-2.91471 -6.5,-6.5v-15c0.01098,-3.58529 2.91471,-6.48902 6.5,-6.5h15c3.58529,0.01098 6.48902,2.91471 6.5,6.5zM479,97.5v15c-0.01098,3.5853 -2.91471,6.48902 -6.5,6.5h-15c-3.58529,-0.01098 -6.48902,-2.9147 -6.5,-6.5v-15c0.01098,-3.5853 2.91471,-6.48902 6.5,-6.5h15c3.58529,0.01098 6.48902,2.9147 6.5,6.5zM509,127.5v15c-0.01098,3.5853 -2.91471,6.48902 -6.5,6.5h-15c-3.58529,-0.01098 -6.48902,-2.9147 -6.5,-6.5v-15c0.01098,-3.5853 2.91471,-6.48902 6.5,-6.5h15c3.58529,0.01098 6.48902,2.9147 6.5,6.5zM479,157.5v15c-0.01098,3.5853 -2.91471,6.48902 -6.5,6.5h-15c-3.58529,-0.01098 -6.48902,-2.9147 -6.5,-6.5v-15c0.01098,-3.5853 2.91471,-6.48902 6.5,-6.5h15c3.58529,0.01098 6.48902,2.9147 6.5,6.5zM509,187.5v15c-0.01098,3.5853 -2.91471,6.48902 -6.5,6.5h-15c-3.58529,-0.01098 -6.48902,-2.9147 -6.5,-6.5v-15c0.01098,-3.5853 2.91471,-6.48902 6.5,-6.5h15c3.58529,0.01098 6.48902,2.9147 6.5,6.5zM479,217.5v15c-0.01098,3.5853 -2.91471,6.48902 -6.5,6.5h-15c-3.58529,-0.01098 -6.48902,-2.9147 -6.5,-6.5v-15c0.01098,-3.5853 2.91471,-6.48902 6.5,-6.5h15c3.58529,0.01098 6.48902,2.9147 6.5,6.5zM509,247.5v15c-0.01098,3.58529 -2.91471,6.48902 -6.5,6.5h-15c-3.58529,-0.01098 -6.48902,-2.91471 -6.5,-6.5v-15c0.01098,-3.5853 2.91471,-6.48902 6.5,-6.5h15c3.58529,0.01098 6.48902,2.9147 6.5,6.5zM479,277.5v15c-0.01098,3.58529 -2.91471,6.48902 -6.5,6.5h-15c-3.58529,-0.01098 -6.48902,-2.91471 -6.5,-6.5v-15c0.01098,-3.58529 2.91471,-6.48902 6.5,-6.5h15c3.58529,0.01098 6.48902,2.91471 6.5,6.5zM509,307.5v15c-0.01098,3.58529 -2.91471,6.48902 -6.5,6.5h-15c-3.58529,-0.01098 -6.48902,-2.91471 -6.5,-6.5v-15c0.01098,-3.58529 2.91471,-6.48902 6.5,-6.5h15c3.58529,0.01098 6.48902,2.91471 6.5,6.5zM479,337.5v15c-0.01098,3.58529 -2.91471,6.48902 -6.5,6.5h-15c-3.58529,-0.01098 -6.48902,-2.91471 -6.5,-6.5v-15c0.01098,-3.58529 2.91471,-6.48902 6.5,-6.5h15c3.58529,0.01098 6.48902,2.91471 6.5,6.5zM509,367.5v15c-0.01098,3.58529 -2.91471,6.48902 -6.5,6.5h-15c-3.58529,-0.01098 -6.48902,-2.91471 -6.5,-6.5v-15c0.01098,-3.58529 2.91471,-6.48902 6.5,-6.5h15c3.58529,0.01098 6.48902,2.91471 6.5,6.5z"/></g></g></svg>