<svg xmlns="http://www.w3.org/2000/svg" viewBox="0 0 153 41"><defs><style>.cls-1{opacity:0.1;}.cls-2{fill:#ffff87;}</style></defs><g id="Explosion"><rect class="cls-1" y="2" width="153" height="39" rx="6.35"/><rect class="cls-2" width="153" height="39" rx="6.35"/><path d="M60,22.7h-1.1V26H56.07V14.72h4.16c3.15,0,4.81,1.58,4.81,3.91C65,21.26,63.25,22.7,60,22.7ZM60,17H58.86V20.5l1.15,0c1.48,0,2.18-.65,2.18-1.78S61.45,17,60,17Z"/><path d="M67.34,26V14.72H70.2v8.86h4.72V26Z"/><path d="M87.65,26H84.8L84,23.58H79.79L79,26H76.14l4-11.25h3.58Zm-5.75-9-1.49,4.41h2.93Z"/><path d="M94,21.71V26H91.21V21.69l-3.93-7h3l2.33,4.45,2.25-4.45h3Z"/></g></svg>