<svg version="1.1" xmlns="http://www.w3.org/2000/svg" xmlns:xlink="http://www.w3.org/1999/xlink" width="20" height="26" viewBox="0,0,20,26"><g transform="translate(-229.5,-166)"><g data-paper-data="{&quot;isPaintingLayer&quot;:true}" fill-rule="nonzero" stroke="none" stroke-linecap="butt" stroke-linejoin="miter" stroke-miterlimit="10" stroke-dasharray="" stroke-dashoffset="0" style="mix-blend-mode: normal"><path d="M246.61981,186.68276c0,2.89 -2.06,5 -6.82,5c-3.74,0 -6.62,-1.49 -6.62,-4.49c0.02849,-1.40498 0.97579,-2.62467 2.33,-3c-1.36092,-0.59363 -2.25145,-1.92552 -2.28,-3.41c0,-2.94 2.06,-4.94 6.79,-4.94c3.89,0 6.58,1.46 6.58,4.53c-0.05505,1.36679 -0.94517,2.55892 -2.24,3c1.33743,0.56445 2.22122,1.85885 2.26,3.31zM239.25891,180.01515c-0.16567,0.1771 -0.24887,0.41591 -0.22911,0.65761c0,0.48 0.44,0.94 1.08,1.23c0.37735,-0.27597 0.62353,-0.69592 0.68,-1.16c0.03881,-0.25581 -0.03825,-0.51563 -0.21027,-0.70891c-0.17202,-0.19328 -0.42114,-0.29996 -0.67973,-0.29109c-0.24248,-0.00363 -0.47522,0.09529 -0.64089,0.27239zM239.91981,187.74276c0.24351,0.01323 0.48052,-0.0813 0.64809,-0.2585c0.16756,-0.17719 0.24872,-0.41911 0.22191,-0.6615c0,-0.48 -0.5,-0.88 -1.15,-1.12c-0.36943,0.25486 -0.61304,0.65482 -0.67,1.1c-0.01444,0.25169 0.07855,0.4977 0.25586,0.67692c0.17731,0.17922 0.42231,0.27483 0.67414,0.26308z" fill-opacity="0.2" fill="#000000" stroke-width="1"/><g stroke-width="1"><path d="M246.61981,183.68276c0,2.88 -2.07,5 -6.82,5c-3.74,0 -6.62,-1.46 -6.62,-4.49c0.0272,-1.40218 0.96974,-2.62099 2.32,-3c-1.36092,-0.59363 -2.25145,-1.92552 -2.28,-3.41c0,-2.93 2.07,-4.94 6.8,-4.94c3.89,0 6.57,1.46 6.57,4.53c-0.05071,1.36519 -0.93736,2.55799 -2.23,3c1.33411,0.5685 2.21624,1.86047 2.26,3.31zM238.97981,183.80276c-0.0115,0.25265 0.08383,0.49849 0.26267,0.67733c0.17884,0.17884 0.42467,0.27418 0.67733,0.26267c0.24688,0.01945 0.48954,-0.07236 0.66172,-0.25035c0.17218,-0.17799 0.2559,-0.42356 0.22828,-0.66965c0,-0.48 -0.5,-0.88 -1.15,-1.12c-0.37228,0.25376 -0.61942,0.65355 -0.68,1.1zM240.78981,177.70276c0.03881,-0.25581 -0.03825,-0.51563 -0.21027,-0.70891c-0.17202,-0.19328 -0.42114,-0.29996 -0.67973,-0.29109c-0.23511,-0.00288 -0.46115,0.09063 -0.62551,0.25877c-0.16436,0.16814 -0.25271,0.39624 -0.24449,0.63123c0,0.48 0.43,0.94 1.08,1.23c0.34975,-0.27686 0.57904,-0.67812 0.64,-1.12z" fill="#ffff00"/><path d="M239.79981,189.17276c-4.39,0 -7.12,-1.91 -7.12,-5c-0.01482,-1.27771 0.67777,-2.45897 1.8,-3.07c-1.09298,-0.76379 -1.73997,-2.01663 -1.73,-3.35c0,-3.46 2.66,-5.44 7.3,-5.44c4.43,0 7.07,1.88 7.07,5c-0.00338,1.25189 -0.66407,2.40999 -1.74,3.05c1.09735,0.73686 1.75983,1.96825 1.77,3.29c-0.03,3.52 -2.7,5.52 -7.35,5.52zM240.01981,173.31276c-2.87,0 -6.3,0.77 -6.3,4.44c0.01058,1.3088 0.79595,2.48685 2,3l0.95,0.5l-1,0.4c-1.16288,0.31196 -1.97869,1.35619 -2,2.56c0,3.7 4.68,4 6.12,4c4.07,0 6.32,-1.59 6.32,-4.49c-0.0385,-1.26864 -0.82316,-2.39462 -2,-2.87l-0.91,-0.48l0.94,-0.42c1.11633,-0.37036 1.88556,-1.39468 1.93,-2.57c0.02,-3.68 -4.23,-4.07 -6.05,-4.07zM239.91981,185.24276c-0.38523,0.01117 -0.75803,-0.13695 -1.03054,-0.40946c-0.27251,-0.27251 -0.42064,-0.64531 -0.40946,-1.03054c0.05889,-0.60495 0.38067,-1.15344 0.88,-1.5l0.21,-0.17l0.26,0.1c0.93,0.34 1.48,0.94 1.48,1.59c0.02612,0.37873 -0.11085,0.75057 -0.37641,1.02186c-0.26556,0.27129 -0.63439,0.41617 -1.01359,0.39814zM239.75981,183.24276c-0.14071,0.14331 -0.23781,0.32364 -0.28,0.52c-0.0091,0.11925 0.03433,0.23653 0.1189,0.3211c0.08457,0.08457 0.20185,0.128 0.3211,0.1189c0.23,0 0.39,-0.07 0.39,-0.42c0,-0.1 -0.19,-0.33 -0.56,-0.5zM240.18979,179.40276l-0.28,-0.13c-0.75079,-0.23925 -1.29112,-0.89704 -1.38,-1.68c-0.01096,-0.36842 0.12919,-0.7253 0.38792,-0.98781c0.25873,-0.26251 0.61354,-0.40781 0.98208,-0.40219c0.38295,-0.00642 0.75111,0.14776 1.0152,0.42515c0.26409,0.27739 0.40001,0.65268 0.3748,1.03485c-0.06266,0.61491 -0.37772,1.17623 -0.87,1.55zM239.89981,177.20276c-0.10264,-0.00321 -0.20176,0.03755 -0.27243,0.11205c-0.07067,0.0745 -0.10617,0.17563 -0.09757,0.27795c0,0.2 0.19,0.42 0.49,0.61c0.14348,-0.14788 0.23778,-0.33648 0.27,-0.54c0,-0.42 -0.3,-0.42 -0.39,-0.42z" fill="#000000"/></g><path d="M229.5,192v-26h20v26z" fill="none" stroke-width="0"/></g></g></svg>