<svg version="1.1" xmlns="http://www.w3.org/2000/svg" xmlns:xlink="http://www.w3.org/1999/xlink" width="23.87031" height="28.00618" viewBox="0,0,23.87031,28.00618"><g transform="translate(-227.62174,-151.9484)"><g data-paper-data="{&quot;isPaintingLayer&quot;:true}" fill-rule="nonzero" stroke-linecap="butt" stroke-miterlimit="10" stroke-dasharray="" stroke-dashoffset="0" style="mix-blend-mode: normal"><path d="M231.79205,171.65458v-7h11v7z" fill="#000000" stroke="none" stroke-width="1" stroke-linejoin="miter"/><path d="M229.49205,178.95458v-7h21v7z" fill="#ff0000" stroke="#000000" stroke-width="2" stroke-linejoin="miter"/><g><g stroke="none" stroke-width="1" stroke-linejoin="miter"><path d="M250.34368,166.31236l-20.89583,2.08907l-0.79583,-7.96032c-0.32964,-3.29727 2.07609,-6.23747 5.37336,-6.56711l8.95535,-0.89531c3.29727,-0.32964 6.23747,2.07609 6.56711,5.37336z" fill="#ff7800"/><path d="M251.4382,167.20792l-22.88591,2.28803l-0.89531,-8.95535c-0.38459,-3.84682 2.4221,-7.27705 6.26892,-7.66164l8.95535,-0.89531c3.84682,-0.38459 7.27705,2.4221 7.66164,6.26892zM230.34342,167.30691l18.90575,-1.89011l-0.69635,-6.96527c-0.27471,-2.74773 -2.72487,-4.75251 -5.4726,-4.4778l-8.95535,0.89531c-2.74773,0.27471 -4.75251,2.72487 -4.4778,5.4726z" fill="#000000"/></g><path d="M239.99537,163.32699l-0.4974,-4.97519l4.97519,-0.4974l0.4974,4.97519z" fill="#ffffff" stroke="#ffffff" stroke-width="2" stroke-linejoin="round"/><path d="M241.88597,162.133l-0.29844,-2.98511l2.98511,-0.29844l0.29844,2.98511z" fill="#000000" stroke="none" stroke-width="1" stroke-linejoin="miter"/></g></g></g></svg>