<svg version="1.1" xmlns="http://www.w3.org/2000/svg" xmlns:xlink="http://www.w3.org/1999/xlink" width="442.68225" height="23.02509" viewBox="0,0,442.68225,23.02509"><g transform="translate(-18,-170.3)"><g data-paper-data="{&quot;isPaintingLayer&quot;:true}" fill-rule="nonzero" stroke-linecap="butt" stroke-linejoin="miter" stroke-miterlimit="10" stroke-dasharray="" stroke-dashoffset="0" style="mix-blend-mode: normal"><path d="M47.18143,187.33c1.02623,0.50323 2.14764,0.78274 3.29,0.82c1.37,0 2,-0.41 2,-1.13c0,-0.72 -0.52,-1.15 -2.3,-1.15c-0.40239,-0.00854 -0.80457,0.02498 -1.2,0.1v-3.77c1.78,-0.22 2.9,-0.58 2.9,-1.63c0,-0.58 -0.45,-1 -1.53,-1c-1.02453,0.04619 -2.01842,0.36368 -2.88,0.92l-0.75,-3.77c1.71733,-0.88852 3.62655,-1.34178 5.56,-1.32c3.27,0 5.45,1.64 5.45,4.33c-0.01683,1.52079 -0.91399,2.89384 -2.3,3.52c1.68642,0.51884 2.85351,2.05618 2.9,3.82c0,3.26 -3,5.21 -6.79,5.21c-1.65663,0.05167 -3.30183,-0.29109 -4.8,-1z" fill-opacity="0.2" fill="#000000" stroke="none" stroke-width="1"/><path d="M111.91572,187.72c1.0232,0.50042 2.14147,0.77658 3.28,0.81c1.37,0 2,-0.4 2,-1.12c0,-0.72 -0.53,-1.16 -2.31,-1.16c-0.40238,-0.00796 -0.8045,0.02555 -1.2,0.1v-3.77c1.78,-0.21 2.91,-0.57 2.91,-1.63c0,-0.58 -0.46,-1 -1.54,-1c-1.02344,0.04414 -2.01701,0.35808 -2.88,0.91l-0.75,-3.77c1.72654,-0.86782 3.63792,-1.30363 5.57,-1.27c3.27,0 5.45,1.63 5.45,4.32c-0.01295,1.52443 -0.91073,2.90232 -2.3,3.53c1.68672,0.51234 2.85541,2.04775 2.9,3.81c0,3.27 -3,5.21 -6.79,5.21c-1.65706,0.05671 -3.30344,-0.28628 -4.8,-1z" fill-opacity="0.2" fill="#000000" stroke="none" stroke-width="1"/><path d="M18.5,174.5h13v4h-3v3h3v11h-13v-11h4v-3h-4z" fill-opacity="0.2" fill="#000000" stroke="none" stroke-width="1"/><path d="M94.7358,178.70208c1.2174,1.08821 1.86159,2.67928 1.7442,4.30792c0,5.67 -3.34,8.19 -7.46,8.19c-4.12,0 -7.46,-2.52 -7.46,-8.19c0,-4.47 3.93,-6.31 6.55,-5.47c0.51809,-1.20118 0.9037,-2.45525 1.15,-3.74h2c-0.17456,1.25469 -0.51068,2.48154 -1,3.65c1.60534,-0.29857 3.2584,0.16386 4.4758,1.25208z" fill-opacity="0.2" fill="#000000" stroke="none" stroke-width="1"/><path d="M88.86,177.92l0.14,0.08z" fill-opacity="0.2" fill="#000000" stroke="none" stroke-width="1"/><path d="M18.5,189.5v-11h13v11z" fill="#ffff00" stroke="#000000" stroke-width="1"/><path d="M18.5,175.5v-4h13v4z" fill="#00ff55" stroke="#000000" stroke-width="1"/><path d="M22.5,178.5v-3h6v3z" fill="#000000" stroke="#000000" stroke-width="1"/><path d="M20,183v-4h4v4z" fill="#ffffff" stroke="none" stroke-width="1"/><path d="M26,183v-4h4v4z" fill="#ffffff" stroke="none" stroke-width="1"/><path d="M22,182v-1h1v1z" fill="#000000" stroke="none" stroke-width="1"/><path d="M28,182v-1h1v1z" fill="#000000" stroke="none" stroke-width="1"/><path d="M22,185v-1h8v1z" fill="#000000" stroke="none" stroke-width="1"/><path d="M94.7358,175.70208c1.2174,1.08821 1.86159,2.67928 1.7442,4.30792c0,5.67 -3.34,8.19 -7.46,8.19c-4.12,0 -7.46,-2.52 -7.46,-8.19c0,-4.47 3.93,-6.31 6.55,-5.47c0.51809,-1.20118 0.9037,-2.45525 1.15,-3.74h2c-0.17456,1.25469 -0.51068,2.48154 -1,3.65c1.60534,-0.29857 3.2584,0.16386 4.4758,1.25208zM89,175v0l-0.14,-0.11z" fill="#ffff00" stroke="#000000" stroke-width="1"/><path d="M41.02037,184.36143l-1.19781,-1.99388l-1.17549,1.99388h-2.23195l2.17987,-3.17681l-2.09059,-3.05033h2.18731l1.15318,1.793l1.10853,-1.793h2.19475l-2.06083,3.02801l2.14267,3.19913z" fill="#000000" stroke="#000000" stroke-width="0"/><path d="M105.16323,184.36143l-1.19781,-1.99388l-1.1755,1.99388h-2.23195l2.17987,-3.17681l-2.09059,-3.05033h2.18731l1.15318,1.793l1.10854,-1.793h2.19475l-2.06083,3.02801l2.14267,3.19913z" fill="#000000" stroke="#000000" stroke-width="0"/><path d="M47.18143,184.33c1.02623,0.50323 2.14764,0.78274 3.29,0.82c1.37,0 2,-0.41 2,-1.13c0,-0.72 -0.52,-1.15 -2.3,-1.15c-0.40239,-0.00854 -0.80457,0.02498 -1.2,0.1v-3.77c1.78,-0.22 2.9,-0.58 2.9,-1.63c0,-0.58 -0.45,-1 -1.53,-1c-1.02453,0.04619 -2.01842,0.36368 -2.88,0.92l-0.75,-3.77c1.71733,-0.88852 3.62655,-1.34178 5.56,-1.32c3.27,0 5.45,1.64 5.45,4.33c-0.01683,1.52079 -0.91399,2.89384 -2.3,3.52c1.68642,0.51884 2.85351,2.05618 2.9,3.82c0,3.26 -3,5.21 -6.79,5.21c-1.65663,0.05167 -3.30183,-0.29109 -4.8,-1z" fill="#ffff00" stroke="#000000" stroke-width="1"/><path d="M111.91572,184.72c1.0232,0.50042 2.14147,0.77658 3.28,0.81c1.37,0 2,-0.4 2,-1.12c0,-0.72 -0.53,-1.16 -2.31,-1.16c-0.40238,-0.00796 -0.8045,0.02555 -1.2,0.1v-3.77c1.78,-0.21 2.91,-0.57 2.91,-1.63c0,-0.58 -0.46,-1 -1.54,-1c-1.02344,0.04414 -2.01701,0.35808 -2.88,0.91l-0.75,-3.77c1.72654,-0.86782 3.63792,-1.30363 5.57,-1.27c3.27,0 5.45,1.63 5.45,4.32c-0.01295,1.52443 -0.91073,2.90232 -2.3,3.53c1.68672,0.51234 2.85541,2.04775 2.9,3.81c0,3.27 -3,5.21 -6.79,5.21c-1.65706,0.05671 -3.30344,-0.28628 -4.8,-1z" fill="#ffff00" stroke="#000000" stroke-width="1"/><g fill-opacity="0.2" fill="#000000" stroke="none" stroke-width="1"><path d="M385.44857,189.22001c-4.52,0 -6.92,-2.37 -6.92,-6.36c0,-3.99 2.6,-6.46 7.11,-6.46c4.51,0 6.91,2.38 6.91,6.37c0,3.99 -2.62,6.45 -7.1,6.45z"/><path d="M385.53857,185.09001c-0.77,0 -1.1,-0.76 -1.1,-2.25c0,-1.49 0.35,-2.31 1.1,-2.31c0.75,0 1.11,0.8 1.11,2.26c0,1.51 -0.34,2.3 -1.11,2.3z"/></g><path d="M404.91429,188.79001v-6.67l-2.21,0.36l-0.15,-4.64l8.21,-1.43v12.38z" fill-opacity="0.2" fill="#000000" stroke="none" stroke-width="1"/><path d="M412.56429,188.33001c1.02548,0.50526 2.14734,0.78488 3.29,0.82c1.37,0 2,-0.41 2,-1.13c0,-0.72 -0.53,-1.15 -2.3,-1.15c-0.40241,-0.00905 -0.80464,0.02446 -1.2,0.1v-3.77c1.76,-0.2 2.86,-0.58 2.86,-1.63c0,-0.58 -0.45,-1 -1.53,-1c-1.02479,0.04475 -2.01904,0.36236 -2.88,0.92l-0.75,-3.77c1.72387,-0.87625 3.63654,-1.31579 5.57,-1.28c3.26,0 5.45,1.64 5.45,4.33c-0.01612,1.52388 -0.9184,2.89877 -2.31,3.52c1.69037,0.51531 2.86211,2.05348 2.91,3.82c0,3.26 -3,5.21 -6.79,5.21c-1.65663,0.05167 -3.30182,-0.29108 -4.8,-1z" fill-opacity="0.2" fill="#000000" stroke="none" stroke-width="1"/><path d="M434.15,188.79001l0.07,-3.7c3.58,-1.8 5.26,-2.85 5.26,-3.67c0,-0.53 -0.48,-0.81 -1.27,-0.81c-1.28752,0.09271 -2.52849,0.52015 -3.6,1.24l-0.72,-4.05c1.81438,-0.96406 3.84591,-1.44612 5.9,-1.4c3.63,0 5.59,1.78 5.59,4.23c0,1.46 -0.84,2.86 -2.85,4h3.09l0.1,4.13z" fill-opacity="0.2" fill="#000000" stroke="none" stroke-width="1"/><g fill-opacity="0.2" fill="#000000" stroke="none" stroke-width="1"><path d="M452.73,192.85001v-4.06h-5.93l-0.41,-3.67l5.4,-8.43h6.79v7.97h1.49l0.1,4.13h-1.59v4.06z"/><path d="M452.85,184.78001h-1.49l1.49,-2.52z"/></g><path d="M385.44857,186.22001c-4.52,0 -6.92,-2.37 -6.92,-6.36c0,-3.99 2.6,-6.46 7.11,-6.46c4.51,0 6.91,2.38 6.91,6.37c0,3.99 -2.62,6.45 -7.1,6.45zM386.64857,179.79001c0,-1.46 -0.36,-2.26 -1.11,-2.26c-0.75,0 -1.1,0.82 -1.1,2.31c0,1.49 0.33,2.25 1.1,2.25c0.77,0 1.11,-0.79 1.11,-2.3z" fill="#ffff00" stroke="#000000" stroke-width="1"/><path d="M397.64143,181.00001c-0.89873,-0.02741 -1.6078,-0.77336 -1.58967,-1.67232c0.01814,-0.89896 0.75673,-1.6157 1.65583,-1.60684c0.8991,0.00886 1.62342,0.74001 1.62384,1.63916c0.01501,0.44822 -0.15997,0.88194 -0.48182,1.19426c-0.32184,0.31232 -0.76062,0.4742 -1.20818,0.44574zM397.64143,186.08001c-0.90575,0 -1.64,-0.73425 -1.64,-1.64c0,-0.90575 0.73425,-1.64 1.64,-1.64c0.90575,0 1.64,0.73425 1.64,1.64c0,0.90575 -0.73425,1.64 -1.64,1.64z" fill="#000000" stroke="#000000" stroke-width="0"/><path d="M397.64143,181.00001c-0.89873,-0.02741 -1.6078,-0.77336 -1.58967,-1.67232c0.01814,-0.89896 0.75673,-1.6157 1.65583,-1.60684c0.8991,0.00886 1.62342,0.74001 1.62384,1.63916c0.01501,0.44822 -0.15997,0.88194 -0.48182,1.19426c-0.32184,0.31232 -0.76062,0.4742 -1.20818,0.44574zM397.64143,186.08001c-0.90575,0 -1.64,-0.73425 -1.64,-1.64c0,-0.90575 0.73425,-1.64 1.64,-1.64c0.90575,0 1.64,0.73425 1.64,1.64c0,0.90575 -0.73425,1.64 -1.64,1.64z" fill="#000000" stroke="#000000" stroke-width="0"/><path d="M397.64143,181.00001c-0.89873,-0.02741 -1.6078,-0.77336 -1.58967,-1.67232c0.01814,-0.89896 0.75673,-1.6157 1.65583,-1.60684c0.8991,0.00886 1.62342,0.74001 1.62384,1.63916c0.01501,0.44822 -0.15997,0.88194 -0.48182,1.19426c-0.32184,0.31232 -0.76062,0.4742 -1.20818,0.44574zM397.64143,186.08001c-0.90575,0 -1.64,-0.73425 -1.64,-1.64c0,-0.90575 0.73425,-1.64 1.64,-1.64c0.90575,0 1.64,0.73425 1.64,1.64c0,0.90575 -0.73425,1.64 -1.64,1.64z" fill="#000000" stroke="#000000" stroke-width="0"/><path d="M428.47476,186.08001c-0.90575,0 -1.64,-0.73425 -1.64,-1.64c0,-0.90575 0.73425,-1.64 1.64,-1.64c0.90575,0 1.64,0.73425 1.64,1.64c0,0.90575 -0.73425,1.64 -1.64,1.64z" fill="#000000" stroke="#000000" stroke-width="0"/><path d="M428.47476,186.08001c-0.90575,0 -1.64,-0.73425 -1.64,-1.64c0,-0.90575 0.73425,-1.64 1.64,-1.64c0.90575,0 1.64,0.73425 1.64,1.64c0,0.90575 -0.73425,1.64 -1.64,1.64z" fill="#000000" stroke="#000000" stroke-width="0"/><path d="M404.91429,185.79001v-6.67l-2.21,0.36l-0.15,-4.63l8.21,-1.45v12.39z" fill="#ffff00" stroke="#000000" stroke-width="1"/><path d="M412.56429,185.33001c1.02548,0.50526 2.14734,0.78488 3.29,0.82c1.37,0 2,-0.41 2,-1.13c0,-0.72 -0.53,-1.15 -2.3,-1.15c-0.40241,-0.00905 -0.80464,0.02446 -1.2,0.1v-3.77c1.76,-0.2 2.86,-0.58 2.86,-1.63c0,-0.58 -0.45,-1 -1.53,-1c-1.02479,0.04475 -2.01904,0.36236 -2.88,0.92l-0.75,-3.77c1.72387,-0.87625 3.63654,-1.31579 5.57,-1.28c3.26,0 5.45,1.64 5.45,4.33c-0.01612,1.52388 -0.9184,2.89877 -2.31,3.52c1.69037,0.51531 2.86211,2.05348 2.91,3.82c0,3.26 -3,5.21 -6.79,5.21c-1.65663,0.05167 -3.30182,-0.29108 -4.8,-1z" fill="#ffff00" stroke="#000000" stroke-width="1"/><path d="M434.15,185.79001l0.07,-3.7c3.58,-1.8 5.26,-2.85 5.26,-3.67c0,-0.53 -0.48,-0.81 -1.27,-0.81c-1.28752,0.09271 -2.52849,0.52015 -3.6,1.24l-0.72,-4.05c1.81438,-0.96406 3.84591,-1.44612 5.9,-1.4c3.63,0 5.59,1.78 5.59,4.23c0,1.46 -0.84,2.86 -2.85,4h3.09l0.1,4.13z" fill="#ffff00" stroke="#000000" stroke-width="1"/><path d="M452.73,189.85001v-4.06h-5.93l-0.41,-3.67l5.4,-8.43h6.79v8h1.49l0.1,4.13h-1.59v4.06zM452.85,179.26001l-1.49,2.52h1.49z" fill="#ffff00" stroke="#000000" stroke-width="1"/></g></g></svg>