<svg version="1.1" xmlns="http://www.w3.org/2000/svg" xmlns:xlink="http://www.w3.org/1999/xlink" width="153" height="41" viewBox="0,0,153,41"><g transform="translate(-163.5,-159.5)"><g data-paper-data="{&quot;isPaintingLayer&quot;:true}" fill-rule="nonzero" stroke="none" stroke-width="1" stroke-linecap="butt" stroke-linejoin="miter" stroke-miterlimit="10" stroke-dasharray="" stroke-dashoffset="0" style="mix-blend-mode: normal"><path d="M310.15,200.5h-140.3c-3.50245,-0.01098 -6.33902,-2.84755 -6.35,-6.35v-26.3c0.01098,-3.50245 2.84755,-6.33902 6.35,-6.35h140.3c3.50245,0.01098 6.33902,2.84755 6.35,6.35v26.3c-0.01098,3.50245 -2.84755,6.33902 -6.35,6.35z" fill="#000000" opacity="0.1"/><path d="M310.15,198.5h-140.3c-3.50245,-0.01098 -6.33902,-2.84755 -6.35,-6.35v-26.3c0.01098,-3.50245 2.84755,-6.33902 6.35,-6.35h140.3c3.50245,0.01098 6.33902,2.84755 6.35,6.35v26.3c-0.01098,3.50245 -2.84755,6.33902 -6.35,6.35z" fill="#ffff87" opacity="0.95"/><path d="M199.61,176.79l-2.46,8.5h-3.07l-2.46,-8.48l-0.07,8.69h-2.67l0.4,-11.25h4l2.34,8.45l2.34,-8.45h4l0.42,11.25h-2.71z" fill="#000000"/><path d="M215.42,185.5h-2.85l-0.83,-2.39h-4.17l-0.81,2.39h-2.85l4,-11.25h3.59zM209.67,176.5l-1.49,4.41h2.93z" fill="#000000"/><path d="M217.21,185.5v-11.28h2.87v11.28z" fill="#000000"/><path d="M230.8,174.22h2.7v11.36h-3l-4.73,-7.4v7.32h-2.74v-11.28h3.09l4.68,7.28z" fill="#000000"/><path d="M251.5,176.79l-2.47,8.5h-3.02l-2.46,-8.48l-0.05,8.69h-2.69l0.4,-11.25h4.05l2.34,8.45l2.34,-8.45h4l0.37,11.25h-2.71z" fill="#000000"/><path d="M256.97,185.5v-11.28h8.23v2.28h-5.42v2.17h4.36v2.28h-4.36v2.2h5.42v2.35z" fill="#000000"/><path d="M275.5,174.22h2.68v11.36h-3l-4.74,-7.4v7.32h-2.68v-11.28h3.1l4.64,7.28z" fill="#000000"/><path d="M285.97,185.74c-2.93,0 -5,-1.44 -5,-4.61v-6.91h2.85v6.54c0,1.69 0.68,2.57 2.18,2.57c1.5,0 2,-0.72 2,-2.47v-6.64h2.84v6.66c0.1,3.26 -1.84,4.86 -4.87,4.86z" fill="#000000"/></g></g></svg>