<svg version="1.1" xmlns="http://www.w3.org/2000/svg" xmlns:xlink="http://www.w3.org/1999/xlink" width="20" height="26.06194" viewBox="0,0,20,26.06194"><g transform="translate(-229.5,-166)"><g data-paper-data="{&quot;isPaintingLayer&quot;:true}" fill-rule="nonzero" stroke="none" stroke-linecap="butt" stroke-linejoin="miter" stroke-miterlimit="10" stroke-dasharray="" stroke-dashoffset="0" style="mix-blend-mode: normal"><path d="M246.4346,185.73194c0,3.55 -2.16,6.33 -6.74,6.33c-4.35,0 -6.94,-2.83 -6.94,-7.22c0,-5.13 4.27,-9.37 10.94,-10l1.2,4.09c-2.01344,0.15798 -3.94105,0.88257 -5.56,2.09l0.09,0.12c0.70238,-0.28338 1.45261,-0.42936 2.21,-0.43c2.9,0 4.8,1.75 4.8,5.02zM240.56461,186.32194c0,-0.94 -0.38,-1.56 -1.12,-1.56c-0.37795,0.01939 -0.73483,0.17999 -1,0.45c-0.06429,0.29237 -0.09781,0.59066 -0.1,0.89c0,1.38 0.41,2 1.18,2c0.65,0 1.05,-0.65 1.04,-1.78z" fill-opacity="0.2" fill="#000000" stroke-width="1"/><g stroke-width="1"><path d="M239.42463,178.14194c0.70238,-0.28338 1.45261,-0.42936 2.21,-0.43c2.9,0 4.8,1.75 4.8,5c0,3.55 -2.16,6.33 -6.75,6.33c-4.34,0 -6.93,-2.83 -6.93,-7.22c0,-5.12 4.27,-9.36 10.94,-10l1.2,4.08c-2.033,0.16126 -3.97844,0.89644 -5.61,2.12zM238.34461,183.06194c0,1.42 0.41,2 1.18,2c0.77,0 1,-0.65 1,-1.82c0,-0.94 -0.38,-1.56 -1.13,-1.56c-0.37818,0.01841 -0.73541,0.17917 -1,0.45c-0.05037,0.30727 -0.06713,0.6191 -0.05,0.93z" fill="#ffff00"/><path d="M239.6846,189.56194c-4.58,0 -7.43,-3 -7.43,-7.72c0,-5.55 4.68,-9.86 11.4,-10.49h0.41l1.48,5l-0.59,0.07c-1.10181,0.12384 -2.18365,0.3859 -3.22,0.78c3.21,0 5.2,2.15 5.2,5.52c0,4.22 -2.78,6.84 -7.25,6.84zM243.33463,172.39194c-5.96,0.71 -10.05,4.55 -10.05,9.45c0,4.21 2.4,6.72 6.43,6.72c4.03,0 6.25,-2.18 6.25,-5.83c0,-2.87 -1.57,-4.52 -4.3,-4.52c-0.68552,0.00042 -1.36455,0.13283 -2,0.39l-0.35,0.15l-0.63,-0.8l0.37,-0.31c1.52415,-1.15854 3.32934,-1.89028 5.23,-2.12zM239.5246,185.60194c-0.77,0 -1.68,-0.44 -1.68,-2.54c0.00432,-0.3361 0.04116,-0.671 0.11,-1v-0.14l0.11,-0.11c0.35761,-0.3553 0.8362,-0.56245 1.34,-0.58c1,0 1.63,0.79 1.63,2.06c0.04,1.7 -0.75,2.31 -1.51,2.31zM238.89463,182.44194c-0.03319,0.205 -0.04991,0.41233 -0.05,0.62c0,1.54 0.49,1.54 0.68,1.54c0.41,0 0.55,-0.68 0.55,-1.32c0,-0.64 -0.11,-1.06 -0.63,-1.06c-0.20241,0.01142 -0.39555,0.08868 -0.55,0.22z" fill="#000000"/></g><path d="M229.5,192v-26h20v26z" fill="none" stroke-width="0"/></g></g></svg>