<svg id="Layer_1" data-name="Layer 1" xmlns="http://www.w3.org/2000/svg" viewBox="0 0 480 360"><defs><style>.cls-1{fill:none;stroke:#fff;stroke-width:4px;}</style></defs><path class="cls-1" d="M151.52,120.26H168.1v26h12.46v14.3h-29Z"/><path class="cls-1" d="M184.9,120.26h29v13.46H201.48v2.17h10v9.57h-10v2.28h13.19v12.8H184.9Z"/><path class="cls-1" d="M216.68,120.26h17.91l5.95,21.36h.11L247,120.26h16.19l-15.42,40.28H232.09Z"/><path class="cls-1" d="M266,120.26h29v13.46H282.55v2.17h10v9.57h-10v2.28h13.19v12.8H266Z"/><path class="cls-1" d="M299.86,120.26h16.58v26H328.9v14.3h-29Z"/><path class="cls-1" d="M126.54,187h29v13.46h-12.4v2.17h10v9.57h-10v2.28H156.3v12.8H126.54Z"/><path class="cls-1" d="M160.42,227.31V187h16.86c7.79,0,13.8,2.39,17.86,6.28a19.41,19.41,0,0,1,.11,27.65c-4.17,4-10.24,6.35-17.86,6.35ZM177,214.18h.39a8.4,8.4,0,0,0,6.23-2.28,6.77,6.77,0,0,0,1.84-4.73,6.92,6.92,0,0,0-1.84-4.84c-1.17-1.23-3.06-2.17-6.12-2.17H177Z"/><path class="cls-1" d="M205,187h16.58v40.28H205Z"/><path class="cls-1" d="M237.15,200.71H225.91V187h39v13.68H253.73v26.6H237.15Z"/><path class="cls-1" d="M289.78,186.42c12.63,0,22.48,9.06,22.48,20.75s-9.85,20.75-22.48,20.75-22.47-9.07-22.47-20.75S277.15,186.42,289.78,186.42Zm0,27.26a6.24,6.24,0,1,0-6.23-6.23A6.22,6.22,0,0,0,289.78,213.68Z"/><path class="cls-1" d="M316.27,187h16.52c8.29,0,19.59,2.06,19.59,12.79a11.24,11.24,0,0,1-5.07,9.57l9.18,17.92H339.08l-6-13.24h-.22v13.24H316.27Zm17.8,17.8c2.62,0,3.79-1.39,3.79-3.12s-1.23-3.05-3.79-3.05h-1.22v6.17Z"/><path d="M151.52,120.26H168.1v26h12.46v14.3h-29Z"/><path d="M184.9,120.26h29v13.46H201.48v2.17h10v9.57h-10v2.28h13.19v12.8H184.9Z"/><path d="M216.68,120.26h17.91l5.95,21.36h.11L247,120.26h16.19l-15.42,40.28H232.09Z"/><path d="M266,120.26h29v13.46H282.55v2.17h10v9.57h-10v2.28h13.19v12.8H266Z"/><path d="M299.86,120.26h16.58v26H328.9v14.3h-29Z"/><path d="M126.54,187h29v13.46h-12.4v2.17h10v9.57h-10v2.28H156.3v12.8H126.54Z"/><path d="M160.42,227.31V187h16.86c7.79,0,13.8,2.39,17.86,6.28a19.41,19.41,0,0,1,.11,27.65c-4.17,4-10.24,6.35-17.86,6.35ZM177,214.18h.39a8.4,8.4,0,0,0,6.23-2.28,6.77,6.77,0,0,0,1.84-4.73,6.92,6.92,0,0,0-1.84-4.84c-1.17-1.23-3.06-2.17-6.12-2.17H177Z"/><path d="M205,187h16.58v40.28H205Z"/><path d="M237.15,200.71H225.91V187h39v13.68H253.73v26.6H237.15Z"/><path d="M289.78,186.42c12.63,0,22.48,9.06,22.48,20.75s-9.85,20.75-22.48,20.75-22.47-9.07-22.47-20.75S277.15,186.42,289.78,186.42Zm0,27.26a6.24,6.24,0,1,0-6.23-6.23A6.22,6.22,0,0,0,289.78,213.68Z"/><path d="M316.27,187h16.52c8.29,0,19.59,2.06,19.59,12.79a11.24,11.24,0,0,1-5.07,9.57l9.18,17.92H339.08l-6-13.24h-.22v13.24H316.27Zm17.8,17.8c2.62,0,3.79-1.39,3.79-3.12s-1.23-3.05-3.79-3.05h-1.22v6.17Z"/></svg>