<svg version="1.1" xmlns="http://www.w3.org/2000/svg" xmlns:xlink="http://www.w3.org/1999/xlink" width="19" height="21" viewBox="0,0,19,21"><g transform="translate(-231.5,-169)"><g data-paper-data="{&quot;isPaintingLayer&quot;:true}" fill-rule="nonzero" stroke="none" stroke-linecap="butt" stroke-linejoin="miter" stroke-miterlimit="10" stroke-dasharray="" stroke-dashoffset="0" style="mix-blend-mode: normal"><path d="M237.77092,182.18c0.08055,-0.61587 0.54193,-1.11336 1.15,-1.24c-0.68489,-0.29796 -1.12844,-0.9731 -1.13,-1.72c0,-1.21 1,-2.16 2.65,-2.16c0.59205,0.00951 1.17516,0.14591 1.71,0.4l1.57,-0.14l0.08,1.5l-1.08,-0.17c0.11045,0.18756 0.16589,0.40242 0.16,0.62c-0.05009,0.59408 -0.33915,1.14239 -0.80099,1.51941c-0.46184,0.37702 -1.05693,0.55045 -1.64901,0.48059c-0.24834,-0.00791 -0.49571,-0.03465 -0.74,-0.08c-0.16,0.08 -0.33,0.21 -0.33,0.4c0,0.19 0.29,0.35 1,0.35h0.66c1.57,0.06 2.57,0.4 2.57,1.58c0,1.39 -1.67,2.29 -3.49,2.29c-1.5,0 -2.72,-0.46 -2.72,-1.45c0,-0.55 0.44,-1.07 1.33,-1.17c-0.46,-0.19 -0.94,-0.49 -0.94,-1.01zM239.03092,184c0,0.43 0.55,0.73 1.4,0.73c0.85,0 1.58,-0.27 1.58,-0.75c0,-0.48 -0.42,-0.55 -1.42,-0.55c-0.35,0 -0.9,0 -1.11,0c-0.24739,0.08729 -0.42251,0.3091 -0.45,0.57zM240.43092,180.21c0.57,0 0.82,-0.4 0.82,-1c0,-0.6 -0.28,-1 -0.86,-1c-0.58,0 -0.83,0.41 -0.83,1c0,0.59 0.28,1 0.87,1z" fill="#000000" stroke-width="1"/><path d="M231.5,190v-21h19v21z" fill="none" stroke-width="0"/></g></g></svg>