<svg version="1.1" xmlns="http://www.w3.org/2000/svg" xmlns:xlink="http://www.w3.org/1999/xlink" width="64" height="64" viewBox="0,0,64,64"><g transform="translate(-208,-148)"><g data-paper-data="{&quot;isPaintingLayer&quot;:true}" fill-rule="nonzero" stroke-miterlimit="10" stroke-dasharray="" stroke-dashoffset="0" style="mix-blend-mode: normal"><g data-paper-data="{&quot;index&quot;:null}" stroke-linecap="butt"><path d="M240,150l7.88,7.33l3.6,-5.05l4.47,9.79l5.26,-3.28l0.39,10.75l6.12,-1.02l-3.76,10.08l6.04,1.4l-7.33,7.88l5.05,3.6l-9.79,4.47l3.28,5.26l-10.75,0.39l1.02,6.12l-10.08,-3.76l-1.4,6.04l-7.87,-7.33l-3.61,5.05l-4.47,-9.79l-5.26,3.28l-0.39,-10.75l-6.12,1.02l3.76,-10.08l-6.04,-1.4l7.33,-7.87l-5.05,-3.61l9.79,-4.47l-3.28,-5.26l10.75,-0.39l-1.02,-6.12l10.08,3.76z" fill="none" stroke="#000000" stroke-width="4" stroke-linejoin="round"/><path d="M240,150l7.88,7.33l3.6,-5.05l4.47,9.79l5.26,-3.28l0.39,10.75l6.12,-1.02l-3.76,10.08l6.04,1.4l-7.33,7.88l5.05,3.6l-9.79,4.47l3.28,5.26l-10.75,0.39l1.02,6.12l-10.08,-3.76l-1.4,6.04l-7.87,-7.33l-3.61,5.05l-4.47,-9.79l-5.26,3.28l-0.39,-10.75l-6.12,1.02l3.76,-10.08l-6.04,-1.4l7.33,-7.87l-5.05,-3.61l9.79,-4.47l-3.28,-5.26l10.75,-0.39l-1.02,-6.12l10.08,3.76z" fill="#e6e6e6" stroke="none" stroke-width="1" stroke-linejoin="miter"/></g><path d="M240,163l2.65,3.66l3.86,-2.37l1.05,4.4l4.46,-0.71l-0.71,4.46l4.4,1.05l-2.37,3.86l3.66,2.65l-3.66,2.65l2.37,3.86l-4.4,1.05l0.71,4.46l-4.46,-0.71l-1.05,4.4l-3.86,-2.37l-2.65,3.66l-2.65,-3.66l-3.86,2.37l-1.05,-4.4l-4.46,0.71l0.71,-4.46l-4.4,-1.05l2.37,-3.86l-3.66,-2.65l3.66,-2.65l-2.37,-3.86l4.4,-1.05l-0.71,-4.46l4.46,0.71l1.05,-4.4l3.86,2.37z" data-paper-data="{&quot;index&quot;:null}" fill="#cccccc" stroke="none" stroke-width="1" stroke-linecap="butt" stroke-linejoin="miter"/><path d="M238,180c0,-1.10457 0.89543,-2 2,-2c1.10457,0 2,0.89543 2,2c0,1.10457 -0.89543,2 -2,2c-1.10457,0 -2,-0.89543 -2,-2z" data-paper-data="{&quot;index&quot;:null}" fill="#000000" stroke="none" stroke-width="1" stroke-linecap="butt" stroke-linejoin="miter"/><g data-paper-data="{&quot;index&quot;:null}" stroke="#000000" stroke-linejoin="miter"><path d="M239.79917,180.02539l18,0" fill="none" stroke-width="2" stroke-linecap="round"/><path d="M261.29661,179.93928l-6.27506,4.49042l-0.21536,-8.76548z" fill="#000000" stroke-width="1" stroke-linecap="butt"/></g></g></g></svg>