<svg version="1.1" xmlns="http://www.w3.org/2000/svg" xmlns:xlink="http://www.w3.org/1999/xlink" width="20" height="22" viewBox="0,0,20,22"><g transform="translate(-230,-167.875)"><g data-paper-data="{&quot;isPaintingLayer&quot;:true}" fill="#000000" fill-rule="nonzero" stroke="none" stroke-width="1" stroke-linecap="butt" stroke-linejoin="miter" stroke-miterlimit="10" stroke-dasharray="" stroke-dashoffset="0" style="mix-blend-mode: normal"><path d="M250,178.975c0,6.7 -3.8,10.9 -10,10.9c-6.2,0 -10,-4.2 -10,-10.9c0,-3.1 1.4,-5.6 3.9,-7c1.8,-0.9 3.9,-1.1 5.6,-0.5c0.5,-1.4 1,-3 1,-3.6h2c0,0.7 -0.4,2.1 -0.8,3.3c1.4,-0.2 3,0 4.4,0.8c2.5,1.4 3.9,3.9 3.9,7zM248.1,179.075c0,-3.2 -1.8,-4.6 -2.9,-5.2c-1.6,-0.9 -3.4,-0.9 -4.6,-0.1c-0.3,0.2 -0.8,0.2 -1.1,0c-0.6,-0.4 -1.3,-0.6 -2.1,-0.6c-0.8,0 -1.7,0.2 -2.5,0.6c-1.1,0.5 -2.9,2 -2.9,5.2c0,5.7 2.9,8.9 8,8.9c5.1,0 8,-3.2 8.1,-8.8z" opacity="0.1"/></g></g></svg>