<svg version="1.1" xmlns="http://www.w3.org/2000/svg" xmlns:xlink="http://www.w3.org/1999/xlink" width="224.89" height="11.36" viewBox="0,0,224.89,11.36"><g transform="translate(-237.04,-174.45)"><g data-paper-data="{&quot;isPaintingLayer&quot;:true}" fill="#000000" fill-rule="nonzero" stroke="none" stroke-width="1" stroke-linecap="butt" stroke-linejoin="miter" stroke-miterlimit="10" stroke-dasharray="" stroke-dashoffset="0" style="mix-blend-mode: normal"><path d="M240.35,182.14c-0.36694,0.52912 -0.96618,0.84922 -1.61,0.86c-0.43214,0.02447 -0.85593,-0.12609 -1.17577,-0.41771c-0.31984,-0.29162 -0.50879,-0.69974 -0.52423,-1.13229c0,-1.06 0.79,-1.91 3.29,-2v-0.11c0,-0.59 -0.3,-0.85 -1,-0.85c-0.66359,0.04502 -1.309,0.23625 -1.89,0.56l-0.39,-1.35c0.79199,-0.42125 1.67304,-0.64751 2.57,-0.66c1.93,0 2.57,0.87 2.54,2.43v1.66c0,0.38 0.07,0.42 0.45,0.45l-0.18,1.32c-1.21,0.16 -1.81,-0.16 -2.06,-0.78zM240.35,180.33c-1.14,0.13 -1.56,0.35 -1.56,0.84c0.0042,0.17578 0.08283,0.34152 0.21633,0.45595c0.1335,0.11443 0.30931,0.16679 0.48367,0.14405c0.32694,0.00814 0.6411,-0.12702 0.86,-0.37z"/><path d="M249.2,183c-0.42872,-0.00904 -0.85358,-0.08322 -1.26,-0.22l-1.74,0.22v-8.11l1.85,-0.23v3.15c0.39948,-0.45321 0.96642,-0.72404 1.57,-0.75c1.38,0 2.38,1.13 2.38,2.9c0.05814,0.78104 -0.21,1.55126 -0.7406,2.12734c-0.5306,0.57608 -1.27622,0.90652 -2.0594,0.91266zM248.99,178.55c-0.35309,-0.002 -0.69203,0.13863 -0.94,0.39v2.46c0.25621,0.15373 0.55138,0.23012 0.85,0.22c0.79,0 1.25,-0.62 1.25,-1.54c0,-0.92 -0.41,-1.55 -1.16,-1.55z"/><path d="M258.5,183c-0.8057,0.0826 -1.60648,-0.19681 -2.1859,-0.76271c-0.57942,-0.5659 -0.87766,-1.35986 -0.8141,-2.16729c-0.05266,-0.82313 0.2564,-1.62828 0.84632,-2.20475c0.58992,-0.57647 1.40198,-0.86688 2.22368,-0.79525c0.69521,-0.01048 1.38223,0.15097 2,0.47l-0.36,1.39c-0.44683,-0.26286 -0.95195,-0.41061 -1.47,-0.43c-0.39422,-0.0171 -0.77619,0.13913 -1.04543,0.4276c-0.26924,0.28847 -0.39879,0.68029 -0.35457,1.0724c-0.05374,0.40225 0.07363,0.80762 0.34776,1.10685c0.27414,0.29923 0.66683,0.46153 1.07224,0.44315c0.52295,0.00147 1.03578,-0.14406 1.48,-0.42l0.28,1.4c-0.6224,0.32593 -1.31765,0.4877 -2.02,0.47z"/><path d="M267.94,174.89l1.85,-0.23v8.16h-1.85v-0.58c-0.39142,0.45129 -0.95296,0.71938 -1.55,0.74c-1.38,0 -2.39,-1.12 -2.39,-2.89c-0.04656,-0.77266 0.2254,-1.53066 0.75255,-2.09748c0.52714,-0.56682 1.26345,-0.89298 2.03745,-0.90252c0.39124,-0.0012 0.77993,0.06302 1.15,0.19zM267.09,178.44c-0.78,0 -1.24,0.63 -1.24,1.56c0,0.93 0.48,1.51 1.16,1.51c0.35174,0.0102 0.69075,-0.13196 0.93,-0.39v-2.44c-0.25091,-0.16769 -0.54844,-0.2517 -0.85,-0.24z"/><path d="M275.37,180.46c0.06,0.75 0.58,1.18 1.48,1.18c0.64258,-0.02312 1.26879,-0.20892 1.82,-0.54l0.18,1.43c-0.68057,0.31043 -1.42211,0.46421 -2.17,0.45c-1.89,0 -3.12,-1 -3.12,-2.91c-0.04059,-0.80741 0.26242,-1.59429 0.83407,-2.16593c0.57165,-0.57165 1.35852,-0.87466 2.16593,-0.83407c0.64979,-0.07238 1.29828,0.14667 1.77109,0.59824c0.47281,0.45158 0.72139,1.08933 0.67891,1.74176c-0.00013,0.33692 -0.04041,0.67262 -0.12,1l-3.54,0.06zM277.32,179.46v-0.06c0,-0.66 -0.28,-1.07 -0.86,-1.07c-0.61699,0.04776 -1.08785,0.57142 -1.07,1.19z"/><path d="M286.5,176.27c-0.29212,-0.13494 -0.60839,-0.20975 -0.93,-0.22c-0.48,0 -0.65,0.28 -0.65,0.82v0.44h1.58v1.45h-1.53v4.06h-1.84v-4l-1,-0.07v-1.17l0.91,-0.27v-0.48c0,-1.62 0.78,-2.31 2.18,-2.31c0.51574,-0.00461 1.02782,0.08695 1.51,0.27c0,0 -0.23,1.49 -0.23,1.48z"/><path d="M289.68,182.18c0.08055,-0.61587 0.54193,-1.11336 1.15,-1.24c-0.68489,-0.29796 -1.12844,-0.9731 -1.13,-1.72c0,-1.21 1,-2.16 2.65,-2.16c0.59205,0.00951 1.17516,0.14591 1.71,0.4l1.57,-0.14l0.08,1.5l-1.08,-0.17c0.11045,0.18756 0.16589,0.40242 0.16,0.62c-0.05009,0.59408 -0.33915,1.14239 -0.80099,1.51941c-0.46184,0.37702 -1.05693,0.55045 -1.64901,0.48059c-0.24834,-0.00791 -0.49571,-0.03465 -0.74,-0.08c-0.16,0.08 -0.33,0.21 -0.33,0.4c0,0.19 0.29,0.35 1,0.35h0.66c1.57,0.06 2.57,0.4 2.57,1.58c0,1.39 -1.67,2.29 -3.49,2.29c-1.5,0 -2.72,-0.46 -2.72,-1.45c0,-0.55 0.44,-1.07 1.33,-1.17c-0.46,-0.19 -0.94,-0.49 -0.94,-1.01zM290.94,184c0,0.43 0.55,0.73 1.4,0.73c0.85,0 1.58,-0.27 1.58,-0.75c0,-0.48 -0.42,-0.55 -1.42,-0.55c-0.35,0 -0.9,0 -1.11,0c-0.24739,0.08729 -0.42251,0.3091 -0.45,0.57zM292.34,180.21c0.57,0 0.82,-0.4 0.82,-1c0,-0.6 -0.28,-1 -0.86,-1c-0.58,0 -0.83,0.41 -0.83,1c0,0.59 0.28,1 0.87,1z"/><path d="M302.72,182.82v-3.3c0,-0.67 -0.3,-0.89 -0.77,-0.89c-0.37324,0.0141 -0.72863,0.16337 -1,0.42v3.77h-1.88v-7.93l1.85,-0.23v3.34c0.45705,-0.57702 1.14435,-0.92432 1.88,-0.95c0.50976,-0.02667 1.00452,0.17713 1.3476,0.5551c0.34308,0.37797 0.49816,0.8901 0.4224,1.3949v3.84z"/><path d="M309.5,176.45c-0.55228,0 -1,-0.44772 -1,-1c0,-0.55228 0.44772,-1 1,-1c0.69,0 1.1,0.35 1.1,1c0,0.65 -0.4,1 -1.1,1zM308.58,182.82v-5.49l1.85,-0.22v5.71z"/><path d="M313.5,184.47c0.68,-0.32 1,-0.72 1,-1.91v-5.23l1.85,-0.22v5.57c0,1.65 -0.47,2.58 -1.77,3zM315.41,176.47c-0.55228,0 -1,-0.44772 -1,-1c0,-0.55228 0.44772,-1 1,-1c0.68,0 1.09,0.35 1.09,1c0,0.65 -0.4,0.98 -1.08,0.98z"/><path d="M322.23,180.2v2.62h-1.84v-7.93l1.84,-0.23v5v0l1.7,-2.4h2.12l-2,2.65l2.06,2.93h-2.1l-1.73,-2.62z"/><path d="M329.5,182.82v-7.93l1.85,-0.23v8.16z"/><path d="M342.43,182.82v-3.29c0,-0.67 -0.29,-0.9 -0.76,-0.9c-0.33348,0.00812 -0.65292,0.13589 -0.9,0.36v3.83h-1.85v-3.29c0,-0.67 -0.3,-0.9 -0.76,-0.9c-0.33226,-0.00492 -0.65398,0.11662 -0.9,0.34v3.85h-1.85v-5.49l1.85,-0.22v0.78c0.4431,-0.51845 1.08806,-0.82089 1.77,-0.83c0.68092,-0.02764 1.30717,0.37124 1.57,1c0.46732,-0.59811 1.17186,-0.96316 1.93,-1c0.50262,-0.01691 0.98693,0.18958 1.32271,0.56396c0.33578,0.37438 0.48857,0.87821 0.41729,1.37604v3.83z"/><path d="M351.96,182.82v-3.3c0,-0.67 -0.3,-0.89 -0.8,-0.89c-0.37344,0.01319 -0.72914,0.16258 -1,0.42v3.77h-1.85v-5.49l1.85,-0.22v0.89c0.4486,-0.589 1.13105,-0.95395 1.87,-1c0.52004,-0.02978 1.02502,0.1805 1.37023,0.57057c0.34521,0.39007 0.49254,0.91687 0.39977,1.42943v3.84z"/><path d="M360.5,183c-0.81447,0.06746 -1.61736,-0.22687 -2.19525,-0.80475c-0.57789,-0.57789 -0.87222,-1.38078 -0.80475,-2.19525c-0.04379,-0.80828 0.25819,-1.59705 0.83057,-2.16943c0.57238,-0.57238 1.36115,-0.87436 2.16943,-0.83057c0.81447,-0.06746 1.61736,0.22687 2.19525,0.80475c0.57789,0.57789 0.87222,1.38078 0.80475,2.19525c0.03744,0.80655 -0.26659,1.59156 -0.83752,2.16248c-0.57093,0.57093 -1.35594,0.87496 -2.16248,0.83752zM360.5,178.46c-0.75,0 -1.15,0.61 -1.15,1.57c0,0.96 0.41,1.55 1.16,1.55c0.75,0 1.16,-0.6 1.16,-1.56c0,-0.96 -0.4,-1.56 -1.17,-1.56z"/><path d="M370.67,177.06c1.38,0 2.39,1.13 2.39,2.9c0.0495,0.77339 -0.22147,1.53307 -0.74924,2.10056c-0.52777,0.56749 -1.26582,0.89278 -2.04076,0.89944c-0.39006,-0.00361 -0.77749,-0.06425 -1.15,-0.18v2.5h-1.85v-8l1.85,-0.22v0.7c0.3999,-0.43452 0.95961,-0.68729 1.55,-0.7zM369.12,181.38c0.25575,0.1548 0.55126,0.23128 0.85,0.22c0.79,0 1.24,-0.62 1.24,-1.54c0,-0.92 -0.4,-1.53 -1.16,-1.53c-0.35008,-0.00158 -0.68576,0.13919 -0.93,0.39z"/><path d="M380.5,185.3v-3.06c-0.39376,0.4538 -0.95945,0.72214 -1.56,0.74c-1.38,0 -2.38,-1.12 -2.38,-2.89c-0.04656,-0.77266 0.2254,-1.53066 0.75255,-2.09748c0.52714,-0.56682 1.26345,-0.89298 2.03745,-0.90252c0.46163,0.0081 0.91838,0.09607 1.35,0.26l1.65,-0.22v8.17zM379.65,178.44c-0.78,0 -1.25,0.63 -1.25,1.56c0,0.93 0.48,1.52 1.17,1.52c0.35279,0.00505 0.69103,-0.14043 0.93,-0.4v-2.44c-0.25091,-0.16769 -0.54844,-0.2517 -0.85,-0.24z"/><path d="M388.27,182.82h-1.85v-5.49l1.85,-0.22v0.81c0.24128,-0.52298 0.76405,-0.85849 1.34,-0.86c0.32067,0.0018 0.63621,0.08069 0.92,0.23l-0.37,1.63c-0.21306,-0.11112 -0.4497,-0.16942 -0.69,-0.17c-0.52556,0.01632 -0.99382,0.3363 -1.2,0.82z"/><path d="M395.96,183c-0.81378,0.00806 -1.61941,-0.16262 -2.36,-0.5l0.36,-1.33c0.61672,0.32893 1.30132,0.51035 2,0.53c0.49,0 0.75,-0.17 0.75,-0.46c0,-0.29 -0.31,-0.43 -0.95,-0.57c-1.29,-0.25 -2.12,-0.73 -2.12,-1.82c0,-1.09 0.91,-1.79 2.46,-1.79c0.78069,0.01078 1.55177,0.17383 2.27,0.48l-0.38,1.32c-0.59469,-0.29987 -1.24498,-0.47351 -1.91,-0.51c-0.45,0 -0.69,0.15 -0.69,0.42c0,0.27 0.35,0.42 1,0.56c1.32,0.28 2.1,0.71 2.1,1.83c0,1.12 -0.89,1.84 -2.53,1.84z"/><path d="M404.5,183c-1.38,0 -2.13,-0.57 -2.05,-2l0.08,-2.12l-0.84,-0.15v-1.17l0.84,-0.28v-1.27h1.79v1.33h1.4v1.45h-1.52l-0.06,2c0,0.52 0.28,0.74 0.74,0.74c0.24983,-0.01034 0.49634,-0.06099 0.73,-0.15l0.21,1.44c-0.42762,0.12985 -0.87323,0.19061 -1.32,0.18z"/><path d="M411.3,177.24v3.3c0,0.67 0.28,0.9 0.76,0.9c0.35327,-0.00227 0.69262,-0.13801 0.95,-0.38v-3.82h1.85v5.49l-1.85,0.23v-0.83c-0.45747,0.52729 -1.11248,0.84213 -1.81,0.87c-0.49171,0.00414 -0.96112,-0.20484 -1.28709,-0.57299c-0.32597,-0.36815 -0.47656,-0.85942 -0.41291,-1.34701v-3.84z"/><path d="M422.36,182.83h-2.09l-2.06,-5.59h2l1.15,3.82l1.14,-3.82h2z"/><path d="M428.86,182.84l-1.57,-5.6h1.87l0.76,3.7l1,-3.7h1.93l1,3.64l0.64,-3.64h1.92l-1.58,5.6h-1.87l-1.07,-3.67l-1.07,3.67z"/><path d="M443.2,182.82l-1.07,-1.82l-1,1.79h-2l1.88,-2.79l-1.87,-2.73h2l1,1.61l1,-1.61h2l-1.9,2.73l1.92,2.87z"/><path d="M451.97,182.55l-0.27,0.73c-0.58,1.63 -1.27,2.13 -2.45,2.13c-0.57008,0.00563 -1.13408,-0.11743 -1.65,-0.36l0.55,-1.41c0.26324,0.15077 0.55732,0.23968 0.86,0.26c0.4,0 0.58,-0.15 0.79,-0.69l0.16,-0.43l-2.18,-5.54h2l1.18,3.67l1.08,-3.67h2z"/><path d="M456.9,182.82v-1.11l2.61,-3h-2.51v-1.47h4.93v1.1l-2.6,3h2.6v1.52z"/></g></g></svg>