<svg version="1.1" xmlns="http://www.w3.org/2000/svg" xmlns:xlink="http://www.w3.org/1999/xlink" width="66" height="64.00001" viewBox="0,0,66,64.00001"><g transform="translate(-207,-147)"><g data-paper-data="{&quot;isPaintingLayer&quot;:true}" fill-rule="nonzero" stroke-linecap="butt" stroke-miterlimit="10" stroke-dasharray="" stroke-dashoffset="0" style="mix-blend-mode: normal"><path d="M240.41202,155.7763l-31.41202,-6.7763l11.67,1l9.88,-1l4.7,1l18.91,-1l6.09,1l10.75,-1z" fill="none" stroke="#000000" stroke-width="4" stroke-linejoin="round"/><path d="M271,211.00002h-62v-62l11.67,1l9.88,-1l4.7,1l18.91,-1l6.09,1l10.75,-1z" fill="#39b54a" stroke="none" stroke-width="1" stroke-linejoin="miter"/><path d="M262,202.00002h-44v-44l18,2l9,3l10,-4l7,-1z" fill="#3ac54d" stroke="none" stroke-width="1" stroke-linejoin="miter"/><path d="M236,157l-2,-2l1,-6" fill="none" stroke="#000000" stroke-width="2" stroke-linejoin="round"/><path d="M255,152l-1,-4" fill="none" stroke="#000000" stroke-width="2" stroke-linejoin="round"/><path d="M244,148l2,13l-4,6" fill="none" stroke="#000000" stroke-width="2" stroke-linejoin="round"/><path d="M220,153l1,-4" fill="none" stroke="#000000" stroke-width="2" stroke-linejoin="round"/><path d="M250,163l-4,-2" fill="none" stroke="#000000" stroke-width="2" stroke-linejoin="round"/><path d="M261.43,153l1.02,-4" fill="none" stroke="#000000" stroke-width="2" stroke-linejoin="round"/></g></g></svg>