<svg version="1.1" xmlns="http://www.w3.org/2000/svg" xmlns:xlink="http://www.w3.org/1999/xlink" width="420" height="360" viewBox="0,0,420,360"><g transform="translate(-60,0)"><g data-paper-data="{&quot;isPaintingLayer&quot;:true}" fill="#ffffff" fill-rule="nonzero" stroke="none" stroke-width="1" stroke-linecap="butt" stroke-linejoin="miter" stroke-miterlimit="10" stroke-dasharray="" stroke-dashoffset="0" style="mix-blend-mode: normal"><path d="M121,352v-352h-61v352c0,4.41828 3.58172,8 8,8h45c4.41828,0 8,-3.58172 8,-8zM233,360h-45c-4.41828,0 -8,-3.58172 -8,-8v-352h61v352c0,4.41828 -3.58172,8 -8,8zM353,360h-45c-4.41828,0 -8,-3.58172 -8,-8v-352h61v352c0,4.41828 -3.58172,8 -8,8zM472,360h-44c-4.41828,0 -8,-3.58172 -8,-8v-352h60v352c0,4.41828 -3.58172,8 -8,8z"/></g></g></svg>