<svg version="1.1" xmlns="http://www.w3.org/2000/svg" xmlns:xlink="http://www.w3.org/1999/xlink" width="20" height="26.54001" viewBox="0,0,20,26.54001"><g transform="translate(-229.5,-166)"><g data-paper-data="{&quot;isPaintingLayer&quot;:true}" fill-rule="nonzero" stroke="none" stroke-linecap="butt" stroke-linejoin="miter" stroke-miterlimit="10" stroke-dasharray="" stroke-dashoffset="0" style="mix-blend-mode: normal"><path d="M246.54039,182.54001c0,5.13 -4.27,9.38 -10.94,10l-1.2,-4.08c2.01612,-0.15212 3.94765,-0.87341 5.57,-2.08l-0.1,-0.12c-0.70238,0.28338 -1.45261,0.42936 -2.21,0.43c-2.9,0 -4.8,-1.73 -4.8,-5c0,-3.55 2.16,-6.34 6.75,-6.34c4.34,0 6.93,2.84 6.93,7.19zM240.95039,181.32001c0,-1.38 -0.54,-2 -1.18,-2c-0.64,0 -1.05,0.64 -1.05,1.82c0,0.94 0.38,1.56 1.13,1.56c0.37934,-0.02205 0.73642,-0.18631 1,-0.46c0.06786,-0.30192 0.10141,-0.61055 0.1,-0.92z" fill-opacity="0.2" fill="#000000" stroke-width="1"/><g stroke-width="1"><path d="M234.40039,185.48001c2.01349,-0.15018 3.94233,-0.87176 5.56,-2.08l-0.09,-0.12c-0.70238,0.28338 -1.45261,0.42936 -2.21,0.43c-2.9,0 -4.8,-1.75 -4.8,-5c0,-3.55 2.16,-6.34 6.74,-6.34c4.35,0 6.94,2.84 6.94,7.23c0,5.11 -4.27,9.36 -10.94,10zM240.95039,178.36001c0,-1.42 -0.41,-2 -1.18,-2c-0.77,0 -1.05,0.64 -1.05,1.82c0,0.94 0.38,1.56 1.12,1.56c0.3791,-0.02302 0.73584,-0.18712 1,-0.46c0.07123,-0.30154 0.10813,-0.61017 0.11,-0.92z" fill="#ffff00"/><path d="M235.23039,190.10001l-1.48,-5l0.58,-0.15c1.10181,-0.12384 2.18365,-0.3859 3.22,-0.78c-3.21,-0.05 -5.2,-2.15 -5.2,-5.52c0,-4.22 2.78,-6.84 7.24,-6.84c4.46,0 7.44,3 7.44,7.73c0,5.54 -4.69,9.85 -11.4,10.48zM235.04039,185.90001l0.92,3.12c6,-0.71 10.08,-4.54 10.08,-9.44c0,-4.21 -2.4,-6.73 -6.44,-6.73c-4.04,0 -6.27,2.19 -6.27,5.84c0,2.87 1.57,4.52 4.3,4.52c0.68664,0.00106 1.36659,-0.13492 2,-0.4l0.35,-0.14l0.63,0.8l-0.38,0.31c-1.50549,1.17329 -3.29742,1.92252 -5.19,2.17zM239.84039,180.20001c-1,0 -1.62,-0.79 -1.62,-2.06c0,-1.71 0.8,-2.32 1.55,-2.32c0.75,0 1.68,0.44 1.68,2.54c-0.00295,0.33618 -0.03981,0.67121 -0.11,1v0.15l-0.11,0.1c-0.36464,0.37632 -0.866,0.58913 -1.39,0.59zM239.77038,176.82001c-0.41,0 -0.55,0.68 -0.55,1.32c0,0.48 0.11,1.06 0.62,1.06c0.20781,-0.00887 0.40594,-0.09025 0.56,-0.23c0.02865,-0.20217 0.04535,-0.40586 0.05,-0.61c0,-1.54 -0.49,-1.54 -0.68,-1.54z" fill="#000000"/></g><path d="M229.5,192v-26h20v26z" fill="none" stroke-width="0"/></g></g></svg>