<svg version="1.1" xmlns="http://www.w3.org/2000/svg" xmlns:xlink="http://www.w3.org/1999/xlink" width="153" height="41" viewBox="0,0,153,41"><g transform="translate(-163.5,-159.5)"><g data-paper-data="{&quot;isPaintingLayer&quot;:true}" fill-rule="nonzero" stroke="none" stroke-width="1" stroke-linecap="butt" stroke-linejoin="miter" stroke-miterlimit="10" stroke-dasharray="" stroke-dashoffset="0" style="mix-blend-mode: normal"><path d="M310.15,200.5h-140.3c-3.50245,-0.01098 -6.33902,-2.84755 -6.35,-6.35v-26.3c0.01098,-3.50245 2.84755,-6.33902 6.35,-6.35h140.3c3.50245,0.01098 6.33902,2.84755 6.35,6.35v26.3c-0.01098,3.50245 -2.84755,6.33902 -6.35,6.35z" fill="#000000" opacity="0.1"/><path d="M310.15,198.5h-140.3c-3.50245,-0.01098 -6.33902,-2.84755 -6.35,-6.35v-26.3c0.01098,-3.50245 2.84755,-6.33902 6.35,-6.35h140.3c3.50245,0.01098 6.33902,2.84755 6.35,6.35v26.3c-0.01098,3.50245 -2.84755,6.33902 -6.35,6.35z" fill="#ffff87" opacity="0.95"/><path d="M189.15,182.32c0,-0.75 -0.81,-1 -2.3,-1.42c-1.64,-0.45 -3.62,-1.21 -3.62,-3.46c0,-2.09 1.53,-3.47 4.32,-3.47c1.4661,-0.03543 2.91643,0.30907 4.21,1l-0.55,2.36c-1.12082,-0.60748 -2.36613,-0.9496 -3.64,-1c-1,0 -1.48,0.34 -1.48,1c0,0.66 1,1 2.38,1.41c1.73,0.46 3.53,1.26 3.53,3.4c0,2.14 -1.66,3.65 -4.61,3.65c-1.50644,0.0243 -2.99609,-0.31893 -4.34,-1l0.54,-2.38c1.18345,0.64009 2.50464,0.98326 3.85,1c1.06,-0.03 1.71,-0.4 1.71,-1.09z" fill="#000000"/><path d="M204.8,185.5h-2.85l-0.83,-2.39h-4.17l-0.81,2.39h-2.85l4,-11.25h3.58zM199.05,176.5l-1.49,4.41h2.94z" fill="#000000"/><path d="M211.9,185.5h-3.58l-3.82,-11.28h3l2.66,8.48l2.65,-8.48h3z" fill="#000000"/><path d="M217.59,185.5v-11.28h8.23v2.28h-5.42v2.17h4.36v2.28h-4.36v2.2h5.42v2.35z" fill="#000000"/><path d="M235.88,185.5h-2.86v-11.28h4.48c3,0 4.55,1.39 4.55,3.57c0.04228,1.47225 -0.8962,2.79429 -2.3,3.24l2.92,4.47h-3.23l-2.25,-3.78l-1.31,0.11zM237.27,179.67c1.22,-0.09 1.89,-0.59 1.89,-1.67c0,-1.08 -0.66,-1.5 -2.13,-1.5h-1.21v3.19z" fill="#000000"/><path d="M244.7,185.5v-11.28h8.23v2.28h-5.43v2.17h4.35v2.28h-4.35v2.2h5.42v2.35z" fill="#000000"/><path d="M259.4,182.2h-1.09v3.3h-2.87v-11.28h4.16c3.15,0 4.81,1.58 4.81,3.91c0,2.63 -1.78,4.07 -5.01,4.07zM259.4,176.49h-1.17v3.51h1.16c1.47,0 2.18,-0.65 2.18,-1.78c0,-1.13 -0.74,-1.72 -2.18,-1.72z" fill="#000000"/><path d="M266.71,185.5v-11.28h2.86v8.86h4.72v2.42z" fill="#000000"/><path d="M287.02,185.5h-2.85l-0.82,-2.39h-4.18l-0.81,2.39h-2.86l4,-11.25h3.58zM281.27,176.5l-1.49,4.41h2.94z" fill="#000000"/><path d="M293.39,181.21v4.29h-2.81v-4.31l-3.92,-7h3l2.32,4.45l2.25,-4.45h3z" fill="#000000"/></g></g></svg>