<svg version="1.1" xmlns="http://www.w3.org/2000/svg" xmlns:xlink="http://www.w3.org/1999/xlink" width="55.95126" height="56.80941" viewBox="0,0,55.95126,56.80941"><g transform="translate(-211.42367,-152.196)"><g data-paper-data="{&quot;isPaintingLayer&quot;:true}" fill="none" fill-rule="nonzero" stroke-linejoin="miter" stroke-miterlimit="10" stroke-dasharray="" stroke-dashoffset="0" style="mix-blend-mode: normal"><path d="M228.89326,180.00002c0,-6.13409 4.97266,-11.10676 11.10676,-11.10676c6.13409,0 11.10676,4.97266 11.10676,11.10676c0,6.13409 -4.97266,11.10676 -11.10676,11.10676c-6.13409,0 -11.10676,-4.97266 -11.10676,-11.10676z" stroke="#ff6666" stroke-width="2" stroke-linecap="butt"/><g stroke="#000000" stroke-width="1.5" stroke-linecap="round"><path d="M219.48518,155.69851h7.57873"/><path d="M236.62427,155.69851h7.57873"/><path d="M252.73795,155.69851h7.57873"/></g><g stroke="#000000" stroke-width="1.5" stroke-linecap="round"><path d="M227.21039,204.25091h-7.57872"/><path d="M236.77076,204.25091h7.57873"/><path d="M260.46315,204.25091h-7.57873"/></g><g stroke="#000000" stroke-width="1.5" stroke-linecap="round"><path d="M263.8109,167.65041v-7.57873"/><path d="M263.8109,184.7895v-7.57873"/><path d="M263.8109,200.90316v-7.57872"/></g><g stroke="#000000" stroke-width="1.5" stroke-linecap="round"><path d="M215.99095,160.07168v7.57873"/><path d="M215.99095,177.21077v7.57873"/><path d="M215.99095,200.90316v-7.57872"/></g><path d="M211.42367,209.00541v-56.8094h55.95126v56.80941z" stroke="none" stroke-width="0" stroke-linecap="butt"/></g></g></svg>