<svg xmlns="http://www.w3.org/2000/svg" width="312" height="76" viewBox="0 0 312 76">
  <g>
    <g>
      <path d="M26.52,32.22c-4.52,0-6.92-2.37-6.92-6.36s2.6-6.46,7.11-6.46,6.91,2.38,6.91,6.37S31,32.22,26.52,32.22Z" style="fill-opacity: 0.2"/>
      <path d="M27.72,25.79c0-1.46-.36-2.26-1.11-2.26s-1.1.82-1.1,2.31.33,2.25,1.1,2.25S27.72,27.3,27.72,25.79Z" style="fill-opacity: 0.2"/>
    </g>
    <g>
      <path d="M36.57,27a1.64,1.64,0,1,1,1.69-1.64A1.59,1.59,0,0,1,36.57,27Z" style="fill-opacity: 0.2"/>
      <path d="M36.57,32.06a1.64,1.64,0,1,1,0-3.28,1.64,1.64,0,1,1,0,3.28Z" style="fill-opacity: 0.2"/>
    </g>
    <polygon points="41.7 31.79 41.7 25.12 39.49 25.48 39.34 20.84 47.55 19.41 47.55 31.79 41.7 31.79" style="fill-opacity: 0.2"/>
    <path d="M49.35,31.33a8,8,0,0,0,3.29.82c1.37,0,2-.41,2-1.13s-.53-1.15-2.3-1.15a5.71,5.71,0,0,0-1.2.1V26.2C52.9,26,54,25.62,54,24.57c0-.58-.45-1-1.53-1a5.76,5.76,0,0,0-2.88.92l-.75-3.77a11.81,11.81,0,0,1,5.57-1.28c3.26,0,5.45,1.64,5.45,4.33a3.9,3.9,0,0,1-2.31,3.52,4.11,4.11,0,0,1,2.91,3.82c0,3.26-3,5.21-6.79,5.21a10.46,10.46,0,0,1-4.8-1Z" style="fill-opacity: 0.2"/>
    <ellipse cx="64.74" cy="29.44" rx="3.22" ry="2.78" style="fill-opacity: 0.2"/>
    <path d="M69.15,31.79l.07-3.7c3.58-1.8,5.26-2.85,5.26-3.67,0-.53-.48-.81-1.27-.81a7.41,7.41,0,0,0-3.6,1.24l-.72-4.05a12,12,0,0,1,5.9-1.4c3.63,0,5.59,1.78,5.59,4.23,0,1.46-.84,2.86-2.85,4h3.09l.1,4.13Z" style="fill-opacity: 0.2"/>
    <g>
      <polygon points="87.73 35.85 87.73 31.79 81.8 31.79 81.39 28.12 86.79 19.69 93.58 19.69 93.58 27.66 95.07 27.66 95.17 31.79 93.58 31.79 93.58 35.85 87.73 35.85" style="fill-opacity: 0.2"/>
      <polygon points="87.85 25.26 86.36 27.78 87.85 27.78 87.85 25.26" style="fill-opacity: 0.2"/>
    </g>
    <g>
      <path d="M107.55,32.22c-4.51,0-6.91-2.37-6.91-6.36s2.59-6.46,7.1-6.46,6.92,2.38,6.92,6.37S112.06,32.22,107.55,32.22Z" style="fill-opacity: 0.2"/>
      <path d="M108.75,25.79c0-1.46-.36-2.26-1.1-2.26s-1.11.82-1.11,2.31.34,2.25,1.11,2.25S108.75,27.3,108.75,25.79Z" style="fill-opacity: 0.2"/>
    </g>
    <polygon points="122.53 31.79 122.53 25.12 120.32 25.48 120.17 20.84 128.38 19.41 128.38 31.79 122.53 31.79" style="fill-opacity: 0.2"/>
    <path d="M134.86,31.79l.07-3.7c3.58-1.8,5.26-2.85,5.26-3.67,0-.53-.48-.81-1.27-.81a7.41,7.41,0,0,0-3.6,1.24l-.72-4.05a12,12,0,0,1,5.9-1.4c3.63,0,5.59,1.78,5.59,4.23,0,1.46-.84,2.86-2.85,4h3.09l.1,4.13Z" style="fill-opacity: 0.2"/>
    <path d="M152.36,31.33a8,8,0,0,0,3.29.82c1.36,0,2-.41,2-1.13s-.53-1.15-2.31-1.15a5.86,5.86,0,0,0-1.2.1V26.2c1.78-.22,2.91-.58,2.91-1.63,0-.58-.46-1-1.54-1a5.82,5.82,0,0,0-2.88.92l-.74-3.77a11.75,11.75,0,0,1,5.57-1.28c3.26,0,5.44,1.64,5.44,4.33a3.89,3.89,0,0,1-2.3,3.52,4.11,4.11,0,0,1,2.9,3.82c0,3.26-3,5.21-6.79,5.21a10.49,10.49,0,0,1-4.8-1Z" style="fill-opacity: 0.2"/>
    <g>
      <polygon points="175.28 35.85 175.28 31.79 169.35 31.79 168.94 28.12 174.34 19.69 181.13 19.69 181.13 27.66 182.62 27.66 182.72 31.79 181.13 31.79 181.13 35.85 175.28 35.85" style="fill-opacity: 0.2"/>
      <polygon points="175.4 25.26 173.91 27.78 175.4 27.78 175.4 25.26" style="fill-opacity: 0.2"/>
    </g>
    <path d="M188.45,31.6a12.86,12.86,0,0,0,3.27.55c1.51,0,2.23-.48,2.23-1.3s-.7-1.29-2.74-1.29a8.13,8.13,0,0,0-1.1.07l-1.66-1.27,1-9h10l.07,4.28h-5.38l-.17,1.8c4,.05,5.84,2.25,5.84,4.82,0,3.36-2.38,6-7.23,6a15.47,15.47,0,0,1-4.54-.67Z" style="fill-opacity: 0.2"/>
    <g>
      <path d="M212.14,21.3a5.92,5.92,0,0,1,2.21-.43c2.9,0,4.8,1.75,4.8,5,0,3.55-2.16,6.33-6.74,6.33-4.35,0-6.94-2.83-6.94-7.22,0-5.12,4.27-9.36,10.94-10l1.2,4.08a10.7,10.7,0,0,0-5.56,2.09Z" style="fill-opacity: 0.2"/>
      <path d="M211.06,26.22c0,1.42.41,2,1.18,2s1-.65,1-1.82c0-.94-.38-1.56-1.12-1.56a1.51,1.51,0,0,0-1,.45A4.29,4.29,0,0,0,211.06,26.22Z" style="fill-opacity: 0.2"/>
    </g>
    <polygon points="225.22 35.85 230.93 23.68 224.67 23.68 224.74 19.41 236.72 19.41 236.72 23.22 231.32 35.85 225.22 35.85" style="fill-opacity: 0.2"/>
    <g>
      <path d="M255.87,27.23c0,2.88-2.06,5-6.82,5-3.74,0-6.62-1.46-6.62-4.49a3.18,3.18,0,0,1,2.33-3,3.8,3.8,0,0,1-2.28-3.41c0-2.93,2.06-4.94,6.79-4.94,3.89,0,6.58,1.46,6.58,4.53a3.31,3.31,0,0,1-2.24,3A3.7,3.7,0,0,1,255.87,27.23Z" style="fill-opacity: 0.2"/>
      <path d="M248.24,27.35a.89.89,0,0,0,.93.94.83.83,0,0,0,.89-.92c0-.48-.5-.88-1.15-1.12A1.58,1.58,0,0,0,248.24,27.35Z" style="fill-opacity: 0.2"/>
      <path d="M250,21.25a.87.87,0,0,0-.89-1,.86.86,0,0,0-.87.89c0,.48.44.94,1.08,1.23A1.69,1.69,0,0,0,250,21.25Z" style="fill-opacity: 0.2"/>
    </g>
    <g>
      <path d="M263.07,32.53a10.68,10.68,0,0,0,5.57-2.08l-.1-.12a5.92,5.92,0,0,1-2.21.43c-2.9,0-4.8-1.75-4.8-5,0-3.55,2.16-6.34,6.75-6.34,4.34,0,6.93,2.84,6.93,7.23,0,5.11-4.27,9.36-10.94,10Z" style="fill-opacity: 0.2"/>
      <path d="M269.62,25.41c0-1.42-.41-2-1.18-2s-1.05.64-1.05,1.82c0,.94.38,1.56,1.13,1.56a1.51,1.51,0,0,0,1-.46A4.11,4.11,0,0,0,269.62,25.41Z" style="fill-opacity: 0.2"/>
    </g>
    <g>
      <path d="M283.68,27.22a2.11,2.11,0,1,1,0-4.18c1.45,0,2.42.79,2.42,2.09S285.13,27.22,283.68,27.22Z" style="fill-opacity: 0.2"/>
      <path d="M283.68,32.11c-1.44,0-2.41-.79-2.41-2.08a2.12,2.12,0,0,1,2.41-2.09c1.45,0,2.42.79,2.42,2.09S285.13,32.11,283.68,32.11Z" style="fill-opacity: 0.2"/>
    </g>
    <path d="M293,32.11c-1.44,0-2.41-.79-2.41-2.08A2.12,2.12,0,0,1,293,27.94c1.44,0,2.42.79,2.42,2.09S294.48,32.11,293,32.11Z" style="fill-opacity: 0.2"/>
  </g>
  <g>
    <polygon points="47.26 59.79 45.66 57.11 44.07 59.79 41.08 59.79 43.96 55.52 41.15 51.42 44.09 51.42 45.64 53.83 47.13 51.42 50.08 51.42 47.31 55.49 50.19 59.79 47.26 59.79" style="fill-opacity: 0.2"/>
    <path d="M55.61,59.33a8.07,8.07,0,0,0,3.29.82c1.37,0,2-.41,2-1.13s-.52-1.15-2.3-1.15a5.78,5.78,0,0,0-1.2.1V54.2c1.78-.22,2.9-.58,2.9-1.63,0-.58-.45-1-1.53-1a5.79,5.79,0,0,0-2.88.92l-.75-3.77A11.81,11.81,0,0,1,60.7,47.4c3.27,0,5.45,1.64,5.45,4.33a3.91,3.91,0,0,1-2.3,3.52,4.11,4.11,0,0,1,2.9,3.82c0,3.26-3,5.21-6.79,5.21a10.46,10.46,0,0,1-4.8-1Z" style="fill-opacity: 0.2"/>
  </g>
  <g>
    <polygon points="113.27 60.17 111.67 57.49 110.08 60.17 107.09 60.17 109.97 55.91 107.17 51.8 110.1 51.8 111.65 54.22 113.14 51.8 116.1 51.8 113.32 55.87 116.2 60.17 113.27 60.17" style="fill-opacity: 0.2"/>
    <path d="M121.63,59.72a8,8,0,0,0,3.28.81c1.37,0,2-.4,2-1.12s-.53-1.16-2.31-1.16a5.86,5.86,0,0,0-1.2.1V54.58c1.78-.21,2.91-.57,2.91-1.63,0-.58-.46-1-1.54-1a5.81,5.81,0,0,0-2.88.91l-.75-3.77a11.94,11.94,0,0,1,5.57-1.27c3.27,0,5.45,1.63,5.45,4.32a3.91,3.91,0,0,1-2.3,3.53,4.09,4.09,0,0,1,2.9,3.81c0,3.27-3,5.21-6.79,5.21a10.33,10.33,0,0,1-4.8-1Z" style="fill-opacity: 0.2"/>
  </g>
  <polygon points="22.5 50.5 26.5 50.5 26.5 53.5 22.5 53.5 22.5 64.5 35.5 64.5 35.5 53.5 32.5 53.5 32.5 50.5 35.5 50.5 35.5 46.5 22.5 46.5 22.5 50.5" style="fill-opacity: 0.2"/>
  <g>
    <path d="M94.26,49.45a14.69,14.69,0,0,0,1-3.65h-2a18,18,0,0,1-1.15,3.74c-2.62-.84-6.55,1-6.55,5.47,0,5.67,3.34,8.19,7.46,8.19s7.46-2.52,7.46-8.19A5.27,5.27,0,0,0,94.26,49.45Z" style="fill-opacity: 0.2"/>
    <path d="M93,50l-.14-.08L93,50Z" style="fill-opacity: 0.2"/>
  </g>
  <g>
    <rect x="22.5" y="50.5" width="13" height="11" style="fill: #ff0;stroke: #000;stroke-miterlimit: 10"/>
    <rect x="22.5" y="43.5" width="13" height="4" style="fill: #0f5;stroke: #000;stroke-miterlimit: 10"/>
    <rect x="26.5" y="47.5" width="6" height="3" style="stroke: #000;stroke-miterlimit: 10"/>
    <rect x="24" y="51" width="4" height="4" style="fill: #fff"/>
    <rect x="30" y="51" width="4" height="4" style="fill: #fff"/>
    <rect x="26" y="53" width="1" height="1"/>
    <rect x="32" y="53" width="1" height="1"/>
    <rect x="26" y="56" width="8" height="1"/>
  </g>
  <polygon points="152.5 50.5 156.5 50.5 156.5 53.5 152.5 53.5 152.5 64.5 165.5 64.5 165.5 53.5 162.5 53.5 162.5 50.5 165.5 50.5 165.5 46.5 152.5 46.5 152.5 50.5" style="fill-opacity: 0.2"/>
  <g>
    <rect x="152.5" y="50.5" width="13" height="11" style="fill: #ff0;stroke: #000;stroke-miterlimit: 10"/>
    <rect x="152.5" y="43.5" width="13" height="4" style="fill: #0f5;stroke: #000;stroke-miterlimit: 10"/>
    <rect x="156.5" y="47.5" width="6" height="3" style="stroke: #000;stroke-miterlimit: 10"/>
    <rect x="154" y="51" width="5" height="5" style="fill: #fff"/>
    <rect x="159" y="51" width="5" height="5" style="fill: #fff"/>
    <rect x="157" y="53" width="1" height="1"/>
    <rect x="162" y="53" width="1" height="1"/>
  </g>
  <g>
    <path d="M26.52,29.22c-4.52,0-6.92-2.37-6.92-6.36s2.6-6.46,7.11-6.46,6.91,2.38,6.91,6.37S31,29.22,26.52,29.22Zm1.2-6.43c0-1.46-.36-2.26-1.11-2.26s-1.1.82-1.1,2.31.33,2.25,1.1,2.25S27.72,24.3,27.72,22.79Z" style="fill: #ff0;stroke: #000;stroke-miterlimit: 10"/>
    <path d="M36.57,24a1.64,1.64,0,1,1,1.69-1.64A1.59,1.59,0,0,1,36.57,24Zm0,5.08a1.64,1.64,0,1,1,0-3.28,1.64,1.64,0,1,1,0,3.28Z" style="fill: #ff0;stroke: #000;stroke-miterlimit: 10"/>
    <path d="M41.7,28.79V22.12l-2.21.36-.15-4.63,8.21-1.45V28.79Z" style="fill: #ff0;stroke: #000;stroke-miterlimit: 10"/>
    <path d="M49.35,28.33a8,8,0,0,0,3.29.82c1.37,0,2-.41,2-1.13s-.53-1.15-2.3-1.15a5.71,5.71,0,0,0-1.2.1V23.2C52.9,23,54,22.62,54,21.57c0-.58-.45-1-1.53-1a5.76,5.76,0,0,0-2.88.92l-.75-3.77a11.81,11.81,0,0,1,5.57-1.28c3.26,0,5.45,1.64,5.45,4.33a3.9,3.9,0,0,1-2.31,3.52,4.11,4.11,0,0,1,2.91,3.82c0,3.26-3,5.21-6.79,5.21a10.46,10.46,0,0,1-4.8-1Z" style="fill: #ff0;stroke: #000;stroke-miterlimit: 10"/>
    <path d="M64.74,29.22c-1.92,0-3.22-1-3.22-2.78s1.3-2.79,3.22-2.79S68,24.71,68,26.44,66.66,29.22,64.74,29.22Z" style="fill: #ff0;stroke: #000;stroke-miterlimit: 10"/>
    <path d="M69.15,28.79l.07-3.7c3.58-1.8,5.26-2.85,5.26-3.67,0-.53-.48-.81-1.27-.81a7.41,7.41,0,0,0-3.6,1.24l-.72-4.05a12,12,0,0,1,5.9-1.4c3.63,0,5.59,1.78,5.59,4.23,0,1.46-.84,2.86-2.85,4h3.09l.1,4.13Z" style="fill: #ff0;stroke: #000;stroke-miterlimit: 10"/>
    <path d="M87.73,32.85V28.79H81.8l-.41-3.67,5.4-8.43h6.79v8h1.49l.1,4.13H93.58v4.06Zm.12-10.59-1.49,2.52h1.49Z" style="fill: #ff0;stroke: #000;stroke-miterlimit: 10"/>
    <path d="M107.55,29.22c-4.51,0-6.91-2.37-6.91-6.36s2.59-6.46,7.1-6.46,6.92,2.38,6.92,6.37S112.06,29.22,107.55,29.22Zm1.2-6.43c0-1.46-.36-2.26-1.1-2.26s-1.11.82-1.11,2.31.34,2.25,1.11,2.25S108.75,24.3,108.75,22.79Z" style="fill: #ff0;stroke: #000;stroke-miterlimit: 10"/>
    <path d="M122.53,28.79V22.12l-2.21.36-.15-4.63,8.21-1.45V28.79Z" style="fill: #ff0;stroke: #000;stroke-miterlimit: 10"/>
    <path d="M134.86,28.79l.07-3.7c3.58-1.8,5.26-2.85,5.26-3.67,0-.53-.48-.81-1.27-.81a7.41,7.41,0,0,0-3.6,1.24l-.72-4.05a12,12,0,0,1,5.9-1.4c3.63,0,5.59,1.78,5.59,4.23,0,1.46-.84,2.86-2.85,4h3.09l.1,4.13Z" style="fill: #ff0;stroke: #000;stroke-miterlimit: 10"/>
    <path d="M152.36,28.33a8,8,0,0,0,3.29.82c1.36,0,2-.41,2-1.13s-.53-1.15-2.31-1.15a5.86,5.86,0,0,0-1.2.1V23.2c1.78-.22,2.91-.58,2.91-1.63,0-.58-.46-1-1.54-1a5.82,5.82,0,0,0-2.88.92l-.74-3.77a11.75,11.75,0,0,1,5.57-1.28c3.26,0,5.44,1.64,5.44,4.33a3.89,3.89,0,0,1-2.3,3.52,4.11,4.11,0,0,1,2.9,3.82c0,3.26-3,5.21-6.79,5.21a10.49,10.49,0,0,1-4.8-1Z" style="fill: #ff0;stroke: #000;stroke-miterlimit: 10"/>
    <path d="M175.28,32.85V28.79h-5.93l-.41-3.67,5.4-8.43h6.79v8h1.49l.1,4.13h-1.59v4.06Zm.12-10.59-1.49,2.52h1.49Z" style="fill: #ff0;stroke: #000;stroke-miterlimit: 10"/>
    <path d="M188.45,28.6a12.86,12.86,0,0,0,3.27.55c1.51,0,2.23-.48,2.23-1.3s-.7-1.29-2.74-1.29a8.13,8.13,0,0,0-1.1.07l-1.66-1.27,1-9h10l.07,4.28h-5.38l-.17,1.8c4,.05,5.84,2.25,5.84,4.82,0,3.36-2.38,6-7.23,6a15.47,15.47,0,0,1-4.54-.67Z" style="fill: #ff0;stroke: #000;stroke-miterlimit: 10"/>
    <path d="M212.14,18.3a5.92,5.92,0,0,1,2.21-.43c2.9,0,4.8,1.75,4.8,5,0,3.55-2.16,6.33-6.74,6.33-4.35,0-6.94-2.83-6.94-7.22,0-5.12,4.27-9.36,10.94-10l1.2,4.08a10.7,10.7,0,0,0-5.56,2.09Zm-1.08,4.92c0,1.42.41,2,1.18,2s1-.65,1-1.82c0-.94-.38-1.56-1.12-1.56a1.51,1.51,0,0,0-1,.45A4.29,4.29,0,0,0,211.06,23.22Z" style="fill: #ff0;stroke: #000;stroke-miterlimit: 10"/>
    <path d="M225.22,32.85l5.71-12.17h-6.26l.07-4.28h12v3.82l-5.4,12.63Z" style="fill: #ff0;stroke: #000;stroke-miterlimit: 10"/>
    <path d="M255.87,24.23c0,2.88-2.06,5-6.82,5-3.74,0-6.62-1.46-6.62-4.49a3.18,3.18,0,0,1,2.33-3,3.8,3.8,0,0,1-2.28-3.41c0-2.93,2.06-4.94,6.79-4.94,3.89,0,6.58,1.46,6.58,4.53a3.31,3.31,0,0,1-2.24,3A3.7,3.7,0,0,1,255.87,24.23Zm-7.63.12a.89.89,0,0,0,.93.94.83.83,0,0,0,.89-.92c0-.48-.5-.88-1.15-1.12A1.58,1.58,0,0,0,248.24,24.35Zm1.8-6.1a.87.87,0,0,0-.89-1,.86.86,0,0,0-.87.89c0,.48.44.94,1.08,1.23A1.69,1.69,0,0,0,250,18.25Z" style="fill: #ff0;stroke: #000;stroke-miterlimit: 10"/>
    <path d="M263.07,29.53a10.68,10.68,0,0,0,5.57-2.08l-.1-.12a5.92,5.92,0,0,1-2.21.43c-2.9,0-4.8-1.75-4.8-5,0-3.55,2.16-6.34,6.75-6.34,4.34,0,6.93,2.84,6.93,7.23,0,5.11-4.27,9.36-10.94,10Zm6.55-7.12c0-1.42-.41-2-1.18-2s-1.05.64-1.05,1.82c0,.94.38,1.56,1.13,1.56a1.51,1.51,0,0,0,1-.46A4.11,4.11,0,0,0,269.62,22.41Z" style="fill: #ff0;stroke: #000;stroke-miterlimit: 10"/>
    <path d="M283.68,24.22a2.11,2.11,0,1,1,0-4.18c1.45,0,2.42.79,2.42,2.09S285.13,24.22,283.68,24.22Zm0,4.89c-1.44,0-2.41-.79-2.41-2.08a2.12,2.12,0,0,1,2.41-2.09c1.45,0,2.42.79,2.42,2.09S285.13,29.11,283.68,29.11Z" style="fill: #ff0;stroke: #000;stroke-miterlimit: 10"/>
    <path d="M293,29.11c-1.44,0-2.41-.79-2.41-2.08A2.12,2.12,0,0,1,293,24.94c1.44,0,2.42.79,2.42,2.09S294.48,29.11,293,29.11Z" style="fill: #ff0;stroke: #000;stroke-miterlimit: 10"/>
  </g>
  <path d="M94.26,46.45a14.69,14.69,0,0,0,1-3.65h-2a18,18,0,0,1-1.15,3.74c-2.62-.84-6.55,1-6.55,5.47,0,5.67,3.34,8.19,7.46,8.19s7.46-2.52,7.46-8.19A5.27,5.27,0,0,0,94.26,46.45Zm-1.4.44L93,47l0,0Z" style="fill: #ff0;stroke: #000;stroke-miterlimit: 10"/>
  <g>
    <path d="M47.26,56.79l-1.61-2.68-1.58,2.68h-3L44,52.52l-2.81-4.1h2.94l1.55,2.41,1.49-2.41h2.95l-2.77,4.07,2.88,4.3Z" style="fill: #ff0;stroke: #000;stroke-miterlimit: 10"/>
    <path d="M55.61,56.33a8.07,8.07,0,0,0,3.29.82c1.37,0,2-.41,2-1.13s-.52-1.15-2.3-1.15a5.78,5.78,0,0,0-1.2.1V51.2c1.78-.22,2.9-.58,2.9-1.63,0-.58-.45-1-1.53-1a5.79,5.79,0,0,0-2.88.92l-.75-3.77A11.81,11.81,0,0,1,60.7,44.4c3.27,0,5.45,1.64,5.45,4.33a3.91,3.91,0,0,1-2.3,3.52,4.11,4.11,0,0,1,2.9,3.82c0,3.26-3,5.21-6.79,5.21a10.46,10.46,0,0,1-4.8-1Z" style="fill: #ff0;stroke: #000;stroke-miterlimit: 10"/>
  </g>
  <g>
    <path d="M113.27,57.17l-1.6-2.68-1.59,2.68h-3L110,52.91l-2.8-4.11h2.93l1.55,2.41,1.49-2.41h3l-2.78,4.07,2.88,4.3Z" style="fill: #ff0;stroke: #000;stroke-miterlimit: 10"/>
    <path d="M121.63,56.72a8,8,0,0,0,3.28.81c1.37,0,2-.4,2-1.12s-.53-1.16-2.31-1.16a5.86,5.86,0,0,0-1.2.1V51.58c1.78-.21,2.91-.57,2.91-1.63,0-.58-.46-1-1.54-1a5.81,5.81,0,0,0-2.88.91l-.75-3.77a11.94,11.94,0,0,1,5.57-1.27c3.27,0,5.45,1.63,5.45,4.32a3.91,3.91,0,0,1-2.3,3.53,4.09,4.09,0,0,1,2.9,3.81c0,3.27-3,5.21-6.79,5.21a10.33,10.33,0,0,1-4.8-1Z" style="fill: #ff0;stroke: #000;stroke-miterlimit: 10"/>
  </g>
</svg>
