<svg xmlns="http://www.w3.org/2000/svg" viewBox="0 0 153 41"><defs><style>.cls-1{opacity:0.1;}.cls-2{fill:#fff;opacity:0.95;}</style></defs><g id="Explosion"><path class="cls-1" d="M146.65,41H6.35A6.37,6.37,0,0,1,0,34.65V8.35A6.37,6.37,0,0,1,6.35,2h140.3A6.37,6.37,0,0,1,153,8.35v26.3A6.37,6.37,0,0,1,146.65,41Z"/><path class="cls-2" d="M146.65,39H6.35A6.37,6.37,0,0,1,0,32.65V6.35A6.37,6.37,0,0,1,6.35,0h140.3A6.37,6.37,0,0,1,153,6.35v26.3A6.37,6.37,0,0,1,146.65,39Z"/><path d="M54.14,26V14.72H57v8.86h4.71V26Z"/><path d="M68.74,26.24a5.5,5.5,0,0,1-5.87-5.87,5.69,5.69,0,0,1,5.91-5.92c3.35,0,5.89,2.05,5.89,5.85A5.72,5.72,0,0,1,68.74,26.24Zm0-9.49c-1.9,0-3,1.45-3,3.55s1.11,3.64,3,3.64,3-1.46,3-3.57S70.65,16.75,68.74,16.75Z"/><path d="M87.16,26H84.31l-.82-2.39H79.31L78.5,26H75.65l4-11.25h3.58Zm-5.74-9-1.5,4.41h2.94Z"/><path d="M93,26h-4V14.72h4.23c4,0,6.21,2.2,6.21,5.55S97.09,26,93,26Zm0-9H91.8v6.68h1.33c2.07,0,3.37-1.07,3.37-3.32S95.33,17,93,17Z"/></g></svg>