<svg version="1.1" xmlns="http://www.w3.org/2000/svg" xmlns:xlink="http://www.w3.org/1999/xlink" width="27" height="58" viewBox="0,0,27,58"><g transform="translate(-215,-155)"><g data-paper-data="{&quot;isPaintingLayer&quot;:true}" fill-rule="nonzero" stroke-linecap="butt" stroke-miterlimit="10" stroke-dasharray="" stroke-dashoffset="0" style="mix-blend-mode: normal"><g data-paper-data="{&quot;index&quot;:null}"><path d="M240,171l-9,-2l7,-12z" fill="none" stroke="#000000" stroke-width="4" stroke-linejoin="round"/><path d="M240,171l-9,-2l7,-12z" fill="#b3b3b3" stroke="none" stroke-width="1" stroke-linejoin="miter"/></g><g data-paper-data="{&quot;index&quot;:null}" stroke="none" stroke-width="1" stroke-linejoin="miter"><path d="M232,213h-9c-4.41828,0 -8,-3.58172 -8,-8v-32c0,-4.41828 3.58172,-8 8,-8h11c4.41828,0 8,3.58172 8,8v9h-10zM223,169c-2.20914,0 -4,1.79086 -4,4v32c0,2.20914 1.79086,4 4,4h5v-31h10v-5c0,-2.20914 -1.79086,-4 -4,-4z" fill="#000000"/><path d="M240,180h-10v31h-7c-3.31371,0 -6,-2.68629 -6,-6v-32c0,-3.31371 2.68629,-6 6,-6h11c3.31371,0 6,2.68629 6,6z" fill="#00a99d"/></g><path d="M230,190h-13v-5h13z" data-paper-data="{&quot;index&quot;:null}" fill="#008279" stroke="none" stroke-width="1" stroke-linejoin="miter"/><path d="M230,200h-13v-5h13z" data-paper-data="{&quot;index&quot;:null}" fill="#008279" stroke="none" stroke-width="1" stroke-linejoin="miter"/><path d="M232,177v-5h5v5z" data-paper-data="{&quot;index&quot;:null}" fill="#ffffff" stroke="#ffffff" stroke-width="2" stroke-linejoin="round"/><path d="M234,177v-3h3v3z" data-paper-data="{&quot;index&quot;:null}" fill="#000000" stroke="none" stroke-width="1" stroke-linejoin="miter"/><path d="M229,180h-5l-2,-13h5z" data-paper-data="{&quot;index&quot;:null}" fill="#008279" stroke="none" stroke-width="1" stroke-linejoin="miter"/></g></g></svg>