<svg id="Layer_1" data-name="Layer 1" xmlns="http://www.w3.org/2000/svg" viewBox="0 0 480 360"><defs><style>.cls-1{fill:none;stroke:#fff;stroke-width:4px;}</style></defs><path class="cls-1" d="M107,127.93h19.44v30.46h14.61v16.77H107Z"/><path class="cls-1" d="M146.14,127.93h34v15.78H165.58v2.55h11.74v11.22H165.58v2.67H181v15H146.14Z"/><path class="cls-1" d="M183.38,127.93h21l7,25h.13l7.43-25h19l-18.07,47.23h-18.4Z"/><path class="cls-1" d="M241.17,127.93h34v15.78H260.61v2.55h11.74v11.22H260.61v2.67h15.46v15h-34.9Z"/><path class="cls-1" d="M280.9,127.93h19.44v30.46H315v16.77H280.9Z"/><path class="cls-1" d="M339.21,160.54a42,42,0,0,0,10.5,1.9c3.07,0,4-.85,4-2.29s-1-2.28-3.91-2.28H345V146.52h4.76c2.93,0,3.91-.78,3.91-2.28s-1-2.29-4-2.29a37.82,37.82,0,0,0-9.19,1.57V130.08c3.58-1.89,9.39-2.87,14.15-2.87,10.77,0,19.05,5.15,19.05,13.31,0,5.28-3.46,8.67-8.48,9.65v.13c5.28,1.37,9,4.83,9,10.9,0,9.59-9.33,14.67-21.26,14.67a41.16,41.16,0,0,1-13.77-2.21Z"/><path class="cls-1" d="M130,188.27a38.46,38.46,0,0,1,11.11,1.47v9.39a29.87,29.87,0,0,0-9.39-1.61c-5.32,0-8.18,1.72-8.18,4.07s2.86,4,8.18,4a28.12,28.12,0,0,0,9.59-1.69v9a38.49,38.49,0,0,1-11.47,1.58C117.23,214.5,108,209,108,201.38S117.17,188.27,130,188.27Z"/><path class="cls-1" d="M145.58,188.65h15.49c7.77,0,18.35,1.3,18.35,8.09,0,2.74-1.93,4.71-4.74,6l8.6,11.33H167l-5.63-8.37h-.21v8.37H145.58Zm16.69,11.26c2.45,0,3.54-.88,3.54-2s-1.14-1.94-3.54-1.94h-1.15v3.91Z"/><path class="cls-1" d="M183,202.54V188.65H198.5v13.19c0,2.39,1.15,4.08,4.75,4.08,3.44,0,4.64-1.48,4.64-4V188.65h14V202.4c0,3.91-1.46,6.37-3.44,8-3.44,2.81-9.7,4.11-16.11,4.11-6.62,0-12.46-1.4-15.8-4C184.63,209,183,206.7,183,202.54Z"/><path class="cls-1" d="M226.49,203.78a35.68,35.68,0,0,0,12.41,3c1.57,0,1.93-.42,1.93-.84s-.47-.71-1.15-.81c-1.82-.32-7.09-.71-11-3a6,6,0,0,1-3.33-5.31c0-5.1,5.84-8.58,15.38-8.58a45.58,45.58,0,0,1,13.45,2v8.34a41.3,41.3,0,0,0-11.42-2.26c-1.51,0-1.93.39-1.93.78s.58.74,1.2.88c1.57.31,6.78.74,10.48,2.71,2.56,1.4,3.81,3.2,3.81,5.48,0,4.89-5.84,8.3-15.75,8.3a47.53,47.53,0,0,1-14.13-2.07Z"/><path class="cls-1" d="M259.65,188.65h15.54v7.88H283v-7.88h15.53v25.47H283v-9.29h-7.82v9.29H259.65Z"/><path class="cls-1" d="M303.12,188.65h27.17v8.51H318.66v1.38h9.39v6h-9.39V206H331v8.09h-27.9Z"/><path class="cls-1" d="M334.87,214.12V188.65h15.8c7.3,0,12.93,1.51,16.74,4,3.34,2.14,5.47,5.06,5.47,8.75,0,3.52-2,6.55-5.37,8.73-3.91,2.53-9.59,4-16.73,4Zm15.54-8.3h.37a10.27,10.27,0,0,0,5.84-1.45,3.66,3.66,0,0,0,1.72-3,3.75,3.75,0,0,0-1.72-3.06c-1.1-.77-2.87-1.37-5.74-1.37h-.47Z"/><path d="M107,127.93h19.44v30.46h14.61v16.77H107Z"/><path d="M146.14,127.93h34v15.78H165.58v2.55h11.74v11.22H165.58v2.67H181v15H146.14Z"/><path d="M183.38,127.93h21l7,25h.13l7.43-25h19l-18.07,47.23h-18.4Z"/><path d="M241.17,127.93h34v15.78H260.61v2.55h11.74v11.22H260.61v2.67h15.46v15h-34.9Z"/><path d="M280.9,127.93h19.44v30.46H315v16.77H280.9Z"/><path d="M339.21,160.54a42,42,0,0,0,10.5,1.9c3.07,0,4-.85,4-2.29s-1-2.28-3.91-2.28H345V146.52h4.76c2.93,0,3.91-.78,3.91-2.28s-1-2.29-4-2.29a37.82,37.82,0,0,0-9.19,1.57V130.08c3.58-1.89,9.39-2.87,14.15-2.87,10.77,0,19.05,5.15,19.05,13.31,0,5.28-3.46,8.67-8.48,9.65v.13c5.28,1.37,9,4.83,9,10.9,0,9.59-9.33,14.67-21.26,14.67a41.16,41.16,0,0,1-13.77-2.21Z"/><path d="M130,188.27a38.46,38.46,0,0,1,11.11,1.47v9.39a29.87,29.87,0,0,0-9.39-1.61c-5.32,0-8.18,1.72-8.18,4.07s2.86,4,8.18,4a28.12,28.12,0,0,0,9.59-1.69v9a38.49,38.49,0,0,1-11.47,1.58C117.23,214.5,108,209,108,201.38S117.17,188.27,130,188.27Z"/><path d="M145.58,188.65h15.49c7.77,0,18.35,1.3,18.35,8.09,0,2.74-1.93,4.71-4.74,6l8.6,11.33H167l-5.63-8.37h-.21v8.37H145.58Zm16.69,11.26c2.45,0,3.54-.88,3.54-2s-1.14-1.94-3.54-1.94h-1.15v3.91Z"/><path d="M183,202.54V188.65H198.5v13.19c0,2.39,1.15,4.08,4.75,4.08,3.44,0,4.64-1.48,4.64-4V188.65h14V202.4c0,3.91-1.46,6.37-3.44,8-3.44,2.81-9.7,4.11-16.11,4.11-6.62,0-12.46-1.4-15.8-4C184.63,209,183,206.7,183,202.54Z"/><path d="M226.49,203.78a35.68,35.68,0,0,0,12.41,3c1.57,0,1.93-.42,1.93-.84s-.47-.71-1.15-.81c-1.82-.32-7.09-.71-11-3a6,6,0,0,1-3.33-5.31c0-5.1,5.84-8.58,15.38-8.58a45.58,45.58,0,0,1,13.45,2v8.34a41.3,41.3,0,0,0-11.42-2.26c-1.51,0-1.93.39-1.93.78s.58.74,1.2.88c1.57.31,6.78.74,10.48,2.71,2.56,1.4,3.81,3.2,3.81,5.48,0,4.89-5.84,8.3-15.75,8.3a47.53,47.53,0,0,1-14.13-2.07Z"/><path d="M259.65,188.65h15.54v7.88H283v-7.88h15.53v25.47H283v-9.29h-7.82v9.29H259.65Z"/><path d="M303.12,188.65h27.17v8.51H318.66v1.38h9.39v6h-9.39V206H331v8.09h-27.9Z"/><path d="M334.87,214.12V188.65h15.8c7.3,0,12.93,1.51,16.74,4,3.34,2.14,5.47,5.06,5.47,8.75,0,3.52-2,6.55-5.37,8.73-3.91,2.53-9.59,4-16.73,4Zm15.54-8.3h.37a10.27,10.27,0,0,0,5.84-1.45,3.66,3.66,0,0,0,1.72-3,3.75,3.75,0,0,0-1.72-3.06c-1.1-.77-2.87-1.37-5.74-1.37h-.47Z"/></svg>