<svg id="Layer_1" data-name="Layer 1" xmlns="http://www.w3.org/2000/svg" viewBox="0 0 480 360"><defs><style>.cls-1{fill:none;stroke:#fff;stroke-width:4px;}</style></defs><path class="cls-1" d="M108.27,127.93h19.44v30.46h14.61v16.77h-34Z"/><path class="cls-1" d="M147.4,127.93h34v15.78H166.84v2.55h11.74v11.22H166.84v2.67H182.3v15H147.4Z"/><path class="cls-1" d="M184.65,127.93h21l7,25h.13l7.44-25h19l-18.07,47.23H202.72Z"/><path class="cls-1" d="M242.44,127.93h34v15.78H261.88v2.55h11.74v11.22H261.88v2.67h15.46v15h-34.9Z"/><path class="cls-1" d="M282.17,127.93h19.44v30.46h14.61v16.77H282.17Z"/><path class="cls-1" d="M348.05,147.82l-7.7,1.63V133l27.14-5.81v48H348.05Z"/><path class="cls-1" d="M110.5,203.78a44.15,44.15,0,0,0,13.93,3c1.75,0,2.16-.42,2.16-.84s-.52-.71-1.28-.81c-2-.32-8-.71-12.3-3-2.22-1.2-3.74-2.85-3.74-5.31,0-5.1,6.55-8.58,17.27-8.58a57,57,0,0,1,15.1,2v8.34a51.49,51.49,0,0,0-12.82-2.26c-1.7,0-2.17.39-2.17.78s.65.74,1.35.88c1.76.31,7.61.74,11.76,2.71,2.87,1.4,4.28,3.2,4.28,5.48,0,4.89-6.56,8.3-17.68,8.3a59.29,59.29,0,0,1-15.86-2.07Z"/><path class="cls-1" d="M153.58,188.65h16c10.18,0,21.6,1.76,21.6,9,0,6.54-9.14,9.18-19.61,9.18H171v7.25H153.58Zm17.91,11.75c3,0,4.39-1,4.39-2.15s-1.46-2.14-4.39-2.14H171v4.29Z"/><path class="cls-1" d="M200.82,188.65h17.44v25.47H200.82Z"/><path class="cls-1" d="M229.26,188.65h17.45v10.62l.11,0,7.2-10.66H273.1l-10,11.82,10.83,13.65H254.31l-7.49-12-.11,0v12H229.26Z"/><path class="cls-1" d="M282.94,188.65h30.49v8.51H300.38v1.38h10.54v6H300.38V206h13.87v8.09H282.94Z"/><path class="cls-1" d="M324.44,214.12V188.65h17.73c8.2,0,14.52,1.51,18.79,4,3.75,2.14,6.15,5.06,6.15,8.75,0,3.52-2.22,6.55-6,8.73-4.39,2.53-10.77,4-18.79,4Zm17.44-8.3h.41a12.64,12.64,0,0,0,6.56-1.45,3.58,3.58,0,0,0,1.93-3,3.68,3.68,0,0,0-1.93-3.06c-1.23-.77-3.22-1.37-6.44-1.37h-.53Z"/><path d="M108.27,127.93h19.44v30.46h14.61v16.77h-34Z"/><path d="M147.4,127.93h34v15.78H166.84v2.55h11.74v11.22H166.84v2.67H182.3v15H147.4Z"/><path d="M184.65,127.93h21l7,25h.13l7.44-25h19l-18.07,47.23H202.72Z"/><path d="M242.44,127.93h34v15.78H261.88v2.55h11.74v11.22H261.88v2.67h15.46v15h-34.9Z"/><path d="M282.17,127.93h19.44v30.46h14.61v16.77H282.17Z"/><path d="M348.05,147.82l-7.7,1.63V133l27.14-5.81v48H348.05Z"/><path d="M110.5,203.78a44.15,44.15,0,0,0,13.93,3c1.75,0,2.16-.42,2.16-.84s-.52-.71-1.28-.81c-2-.32-8-.71-12.3-3-2.22-1.2-3.74-2.85-3.74-5.31,0-5.1,6.55-8.58,17.27-8.58a57,57,0,0,1,15.1,2v8.34a51.49,51.49,0,0,0-12.82-2.26c-1.7,0-2.17.39-2.17.78s.65.74,1.35.88c1.76.31,7.61.74,11.76,2.71,2.87,1.4,4.28,3.2,4.28,5.48,0,4.89-6.56,8.3-17.68,8.3a59.29,59.29,0,0,1-15.86-2.07Z"/><path d="M153.58,188.65h16c10.18,0,21.6,1.76,21.6,9,0,6.54-9.14,9.18-19.61,9.18H171v7.25H153.58Zm17.91,11.75c3,0,4.39-1,4.39-2.15s-1.46-2.14-4.39-2.14H171v4.29Z"/><path d="M200.82,188.65h17.44v25.47H200.82Z"/><path d="M229.26,188.65h17.45v10.62l.11,0,7.2-10.66H273.1l-10,11.82,10.83,13.65H254.31l-7.49-12-.11,0v12H229.26Z"/><path d="M282.94,188.65h30.49v8.51H300.38v1.38h10.54v6H300.38V206h13.87v8.09H282.94Z"/><path d="M324.44,214.12V188.65h17.73c8.2,0,14.52,1.51,18.79,4,3.75,2.14,6.15,5.06,6.15,8.75,0,3.52-2.22,6.55-6,8.73-4.39,2.53-10.77,4-18.79,4Zm17.44-8.3h.41a12.64,12.64,0,0,0,6.56-1.45,3.58,3.58,0,0,0,1.93-3,3.68,3.68,0,0,0-1.93-3.06c-1.23-.77-3.22-1.37-6.44-1.37h-.53Z"/></svg>