<svg xmlns="http://www.w3.org/2000/svg" viewBox="0 0 153 41"><defs><style>.cls-1{opacity:0.1;}.cls-2{fill:#fff;opacity:0.95;}</style></defs><g id="Explosion"><path class="cls-1" d="M146.65,41H6.35A6.37,6.37,0,0,1,0,34.65V8.35A6.37,6.37,0,0,1,6.35,2h140.3A6.37,6.37,0,0,1,153,8.35v26.3A6.37,6.37,0,0,1,146.65,41Z"/><path class="cls-2" d="M146.65,39H6.35A6.37,6.37,0,0,1,0,32.65V6.35A6.37,6.37,0,0,1,6.35,0h140.3A6.37,6.37,0,0,1,153,6.35v26.3A6.37,6.37,0,0,1,146.65,39Z"/><path d="M40.26,25H37.42l-.83-2.39H32.41L31.6,25H28.76l4-11.25h3.59Zm-5.74-9L33,20.35H36Z"/><path d="M46.72,25.24c-2.93,0-4.95-1.44-4.95-4.61V13.72h2.85v6.54c0,1.69.68,2.57,2.17,2.57s2.06-.72,2.06-2.47V13.72h2.84v6.66C51.69,23.64,49.75,25.24,46.72,25.24Z"/><path d="M58.55,25h-4V13.72h4.24c4,0,6.21,2.2,6.21,5.55S62.67,25,58.55,25Zm0-9H57.38v6.68h1.33c2.07,0,3.37-1.07,3.37-3.32S60.91,16,58.57,16Z"/><path d="M67.37,25V13.72h2.86V25Z"/><path d="M78.58,25.24a5.5,5.5,0,0,1-5.87-5.87,5.69,5.69,0,0,1,5.91-5.92c3.35,0,5.89,2.05,5.89,5.85A5.72,5.72,0,0,1,78.58,25.24Zm0-9.49c-1.91,0-3,1.45-3,3.55s1.12,3.64,3,3.64,3-1.46,3-3.57S80.49,15.75,78.58,15.75Z"/><path d="M97,25.24a5.5,5.5,0,0,1-5.87-5.87,5.69,5.69,0,0,1,5.91-5.92c3.35,0,5.89,2.05,5.89,5.85A5.72,5.72,0,0,1,97,25.24Zm0-9.49c-1.91,0-3,1.45-3,3.55s1.12,3.64,3,3.64,3-1.46,3-3.57S98.94,15.75,97,15.75Z"/><path d="M105.4,13.72h8v2.36h-5.22V18.4h4.16v2.34h-4.16V25H105.4Z"/><path d="M115.71,13.72h8.05v2.36h-5.22V18.4h4.16v2.34h-4.16V25h-2.83Z"/></g></svg>