<svg xmlns="http://www.w3.org/2000/svg" width="564" height="444" viewBox="0 0 564 444">
  <rect width="564" height="444" style="fill: #b7b7b7"/>
  <path d="M30,402H10a8,8,0,0,0-8,8v20a8,8,0,0,0,8,8H30a8,8,0,0,0,8-8V410a8,8,0,0,0-8-8Z" transform="translate(2 2)" style="fill: silver"/>
  <path d="M110,402H90a8,8,0,0,0-8,8v20a8,8,0,0,0,8,8h20a8,8,0,0,0,8-8V410a8,8,0,0,0-8-8Z" transform="translate(2 2)" style="fill: silver"/>
  <path d="M30,322H10a8,8,0,0,0-8,8v20a8,8,0,0,0,8,8H30a8,8,0,0,0,8-8V330a8,8,0,0,0-8-8Z" transform="translate(2 2)" style="fill: silver"/>
  <path d="M110,322H90a8,8,0,0,0-8,8v20a8,8,0,0,0,8,8h20a8,8,0,0,0,8-8V330a8,8,0,0,0-8-8Z" transform="translate(2 2)" style="fill: silver"/>
  <path d="M190,402H170a8,8,0,0,0-8,8v20a8,8,0,0,0,8,8h20a8,8,0,0,0,8-8V410a8,8,0,0,0-8-8Z" transform="translate(2 2)" style="fill: silver"/>
  <path d="M270,402H250a8,8,0,0,0-8,8v20a8,8,0,0,0,8,8h20a8,8,0,0,0,8-8V410a8,8,0,0,0-8-8Z" transform="translate(2 2)" style="fill: silver"/>
  <path d="M190,322H170a8,8,0,0,0-8,8v20a8,8,0,0,0,8,8h20a8,8,0,0,0,8-8V330a8,8,0,0,0-8-8Z" transform="translate(2 2)" style="fill: silver"/>
  <path d="M270,322H250a8,8,0,0,0-8,8v20a8,8,0,0,0,8,8h20a8,8,0,0,0,8-8V330a8,8,0,0,0-8-8Z" transform="translate(2 2)" style="fill: silver"/>
  <path d="M350,402H330a8,8,0,0,0-8,8v20a8,8,0,0,0,8,8h20a8,8,0,0,0,8-8V410a8,8,0,0,0-8-8Z" transform="translate(2 2)" style="fill: silver"/>
  <path d="M430,402H410a8,8,0,0,0-8,8v20a8,8,0,0,0,8,8h20a8,8,0,0,0,8-8V410a8,8,0,0,0-8-8Z" transform="translate(2 2)" style="fill: silver"/>
  <path d="M350,322H330a8,8,0,0,0-8,8v20a8,8,0,0,0,8,8h20a8,8,0,0,0,8-8V330a8,8,0,0,0-8-8Z" transform="translate(2 2)" style="fill: silver"/>
  <path d="M430,322H410a8,8,0,0,0-8,8v20a8,8,0,0,0,8,8h20a8,8,0,0,0,8-8V330a8,8,0,0,0-8-8Z" transform="translate(2 2)" style="fill: silver"/>
  <path d="M510,402H490a8,8,0,0,0-8,8v20a8,8,0,0,0,8,8h20a8,8,0,0,0,8-8V410a8,8,0,0,0-8-8Z" transform="translate(2 2)" style="fill: silver"/>
  <path d="M510,322H490a8,8,0,0,0-8,8v20a8,8,0,0,0,8,8h20a8,8,0,0,0,8-8V330a8,8,0,0,0-8-8Z" transform="translate(2 2)" style="fill: silver"/>
  <path d="M30,242H10a8,8,0,0,0-8,8v20a8,8,0,0,0,8,8H30a8,8,0,0,0,8-8V250a8,8,0,0,0-8-8Z" transform="translate(2 2)" style="fill: silver"/>
  <path d="M110,242H90a8,8,0,0,0-8,8v20a8,8,0,0,0,8,8h20a8,8,0,0,0,8-8V250a8,8,0,0,0-8-8Z" transform="translate(2 2)" style="fill: silver"/>
  <path d="M30,162H10a8,8,0,0,0-8,8v20a8,8,0,0,0,8,8H30a8,8,0,0,0,8-8V170a8,8,0,0,0-8-8Z" transform="translate(2 2)" style="fill: silver"/>
  <path d="M110,162H90a8,8,0,0,0-8,8v20a8,8,0,0,0,8,8h20a8,8,0,0,0,8-8V170a8,8,0,0,0-8-8Z" transform="translate(2 2)" style="fill: silver"/>
  <path d="M190,242H170a8,8,0,0,0-8,8v20a8,8,0,0,0,8,8h20a8,8,0,0,0,8-8V250a8,8,0,0,0-8-8Z" transform="translate(2 2)" style="fill: silver"/>
  <path d="M270,242H250a8,8,0,0,0-8,8v20a8,8,0,0,0,8,8h20a8,8,0,0,0,8-8V250a8,8,0,0,0-8-8Z" transform="translate(2 2)" style="fill: silver"/>
  <path d="M190,162H170a8,8,0,0,0-8,8v20a8,8,0,0,0,8,8h20a8,8,0,0,0,8-8V170a8,8,0,0,0-8-8Z" transform="translate(2 2)" style="fill: silver"/>
  <path d="M270,162H250a8,8,0,0,0-8,8v20a8,8,0,0,0,8,8h20a8,8,0,0,0,8-8V170a8,8,0,0,0-8-8Z" transform="translate(2 2)" style="fill: silver"/>
  <path d="M350,242H330a8,8,0,0,0-8,8v20a8,8,0,0,0,8,8h20a8,8,0,0,0,8-8V250a8,8,0,0,0-8-8Z" transform="translate(2 2)" style="fill: silver"/>
  <path d="M430,242H410a8,8,0,0,0-8,8v20a8,8,0,0,0,8,8h20a8,8,0,0,0,8-8V250a8,8,0,0,0-8-8Z" transform="translate(2 2)" style="fill: silver"/>
  <path d="M350,162H330a8,8,0,0,0-8,8v20a8,8,0,0,0,8,8h20a8,8,0,0,0,8-8V170a8,8,0,0,0-8-8Z" transform="translate(2 2)" style="fill: silver"/>
  <path d="M430,162H410a8,8,0,0,0-8,8v20a8,8,0,0,0,8,8h20a8,8,0,0,0,8-8V170a8,8,0,0,0-8-8Z" transform="translate(2 2)" style="fill: silver"/>
  <path d="M510,242H490a8,8,0,0,0-8,8v20a8,8,0,0,0,8,8h20a8,8,0,0,0,8-8V250a8,8,0,0,0-8-8Z" transform="translate(2 2)" style="fill: silver"/>
  <path d="M510,162H490a8,8,0,0,0-8,8v20a8,8,0,0,0,8,8h20a8,8,0,0,0,8-8V170a8,8,0,0,0-8-8Z" transform="translate(2 2)" style="fill: silver"/>
  <path d="M30,82H10a8,8,0,0,0-8,8v20a8,8,0,0,0,8,8H30a8,8,0,0,0,8-8V90a8,8,0,0,0-8-8Z" transform="translate(2 2)" style="fill: silver"/>
  <path d="M110,82H90a8,8,0,0,0-8,8v20a8,8,0,0,0,8,8h20a8,8,0,0,0,8-8V90a8,8,0,0,0-8-8Z" transform="translate(2 2)" style="fill: silver"/>
  <path d="M30,2H10a8,8,0,0,0-8,8V30a8,8,0,0,0,8,8H30a8,8,0,0,0,8-8V10a8,8,0,0,0-8-8Z" transform="translate(2 2)" style="fill: silver"/>
  <path d="M110,2H90a8,8,0,0,0-8,8V30a8,8,0,0,0,8,8h20a8,8,0,0,0,8-8V10a8,8,0,0,0-8-8Z" transform="translate(2 2)" style="fill: silver"/>
  <path d="M190,82H170a8,8,0,0,0-8,8v20a8,8,0,0,0,8,8h20a8,8,0,0,0,8-8V90a8,8,0,0,0-8-8Z" transform="translate(2 2)" style="fill: silver"/>
  <path d="M270,82H250a8,8,0,0,0-8,8v20a8,8,0,0,0,8,8h20a8,8,0,0,0,8-8V90a8,8,0,0,0-8-8Z" transform="translate(2 2)" style="fill: silver"/>
  <path d="M190,2H170a8,8,0,0,0-8,8V30a8,8,0,0,0,8,8h20a8,8,0,0,0,8-8V10a8,8,0,0,0-8-8Z" transform="translate(2 2)" style="fill: silver"/>
  <path d="M270,2H250a8,8,0,0,0-8,8V30a8,8,0,0,0,8,8h20a8,8,0,0,0,8-8V10a8,8,0,0,0-8-8Z" transform="translate(2 2)" style="fill: silver"/>
  <path d="M350,82H330a8,8,0,0,0-8,8v20a8,8,0,0,0,8,8h20a8,8,0,0,0,8-8V90a8,8,0,0,0-8-8Z" transform="translate(2 2)" style="fill: silver"/>
  <path d="M430,82H410a8,8,0,0,0-8,8v20a8,8,0,0,0,8,8h20a8,8,0,0,0,8-8V90a8,8,0,0,0-8-8Z" transform="translate(2 2)" style="fill: silver"/>
  <path d="M350,2H330a8,8,0,0,0-8,8V30a8,8,0,0,0,8,8h20a8,8,0,0,0,8-8V10a8,8,0,0,0-8-8Z" transform="translate(2 2)" style="fill: silver"/>
  <path d="M430,2H410a8,8,0,0,0-8,8V30a8,8,0,0,0,8,8h20a8,8,0,0,0,8-8V10a8,8,0,0,0-8-8Z" transform="translate(2 2)" style="fill: silver"/>
  <path d="M510,82H490a8,8,0,0,0-8,8v20a8,8,0,0,0,8,8h20a8,8,0,0,0,8-8V90a8,8,0,0,0-8-8Z" transform="translate(2 2)" style="fill: silver"/>
  <path d="M510,2H490a8,8,0,0,0-8,8V30a8,8,0,0,0,8,8h20a8,8,0,0,0,8-8V10a8,8,0,0,0-8-8Z" transform="translate(2 2)" style="fill: silver"/>
  <path d="M70,362H50a8,8,0,0,0-8,8v20a8,8,0,0,0,8,8H70a8,8,0,0,0,8-8V370a8,8,0,0,0-8-8Z" transform="translate(2 2)" style="fill: silver"/>
  <path d="M150,362H130a8,8,0,0,0-8,8v20a8,8,0,0,0,8,8h20a8,8,0,0,0,8-8V370a8,8,0,0,0-8-8Z" transform="translate(2 2)" style="fill: silver"/>
  <path d="M70,282H50a8,8,0,0,0-8,8v20a8,8,0,0,0,8,8H70a8,8,0,0,0,8-8V290a8,8,0,0,0-8-8Z" transform="translate(2 2)" style="fill: silver"/>
  <path d="M150,282H130a8,8,0,0,0-8,8v20a8,8,0,0,0,8,8h20a8,8,0,0,0,8-8V290a8,8,0,0,0-8-8Z" transform="translate(2 2)" style="fill: silver"/>
  <path d="M230,362H210a8,8,0,0,0-8,8v20a8,8,0,0,0,8,8h20a8,8,0,0,0,8-8V370a8,8,0,0,0-8-8Z" transform="translate(2 2)" style="fill: silver"/>
  <path d="M310,362H290a8,8,0,0,0-8,8v20a8,8,0,0,0,8,8h20a8,8,0,0,0,8-8V370a8,8,0,0,0-8-8Z" transform="translate(2 2)" style="fill: silver"/>
  <path d="M230,282H210a8,8,0,0,0-8,8v20a8,8,0,0,0,8,8h20a8,8,0,0,0,8-8V290a8,8,0,0,0-8-8Z" transform="translate(2 2)" style="fill: silver"/>
  <path d="M310,282H290a8,8,0,0,0-8,8v20a8,8,0,0,0,8,8h20a8,8,0,0,0,8-8V290a8,8,0,0,0-8-8Z" transform="translate(2 2)" style="fill: silver"/>
  <path d="M390,362H370a8,8,0,0,0-8,8v20a8,8,0,0,0,8,8h20a8,8,0,0,0,8-8V370a8,8,0,0,0-8-8Z" transform="translate(2 2)" style="fill: silver"/>
  <path d="M470,362H450a8,8,0,0,0-8,8v20a8,8,0,0,0,8,8h20a8,8,0,0,0,8-8V370a8,8,0,0,0-8-8Z" transform="translate(2 2)" style="fill: silver"/>
  <path d="M390,282H370a8,8,0,0,0-8,8v20a8,8,0,0,0,8,8h20a8,8,0,0,0,8-8V290a8,8,0,0,0-8-8Z" transform="translate(2 2)" style="fill: silver"/>
  <path d="M470,282H450a8,8,0,0,0-8,8v20a8,8,0,0,0,8,8h20a8,8,0,0,0,8-8V290a8,8,0,0,0-8-8Z" transform="translate(2 2)" style="fill: silver"/>
  <path d="M550,362H530a8,8,0,0,0-8,8v20a8,8,0,0,0,8,8h20a8,8,0,0,0,8-8V370a8,8,0,0,0-8-8Z" transform="translate(2 2)" style="fill: silver"/>
  <path d="M550,282H530a8,8,0,0,0-8,8v20a8,8,0,0,0,8,8h20a8,8,0,0,0,8-8V290a8,8,0,0,0-8-8Z" transform="translate(2 2)" style="fill: silver"/>
  <path d="M70,202H50a8,8,0,0,0-8,8v20a8,8,0,0,0,8,8H70a8,8,0,0,0,8-8V210a8,8,0,0,0-8-8Z" transform="translate(2 2)" style="fill: silver"/>
  <path d="M150,202H130a8,8,0,0,0-8,8v20a8,8,0,0,0,8,8h20a8,8,0,0,0,8-8V210a8,8,0,0,0-8-8Z" transform="translate(2 2)" style="fill: silver"/>
  <path d="M70,122H50a8,8,0,0,0-8,8v20a8,8,0,0,0,8,8H70a8,8,0,0,0,8-8V130a8,8,0,0,0-8-8Z" transform="translate(2 2)" style="fill: silver"/>
  <path d="M150,122H130a8,8,0,0,0-8,8v20a8,8,0,0,0,8,8h20a8,8,0,0,0,8-8V130a8,8,0,0,0-8-8Z" transform="translate(2 2)" style="fill: silver"/>
  <path d="M230,202H210a8,8,0,0,0-8,8v20a8,8,0,0,0,8,8h20a8,8,0,0,0,8-8V210a8,8,0,0,0-8-8Z" transform="translate(2 2)" style="fill: silver"/>
  <path d="M310,202H290a8,8,0,0,0-8,8v20a8,8,0,0,0,8,8h20a8,8,0,0,0,8-8V210a8,8,0,0,0-8-8Z" transform="translate(2 2)" style="fill: silver"/>
  <path d="M230,122H210a8,8,0,0,0-8,8v20a8,8,0,0,0,8,8h20a8,8,0,0,0,8-8V130a8,8,0,0,0-8-8Z" transform="translate(2 2)" style="fill: silver"/>
  <path d="M310,122H290a8,8,0,0,0-8,8v20a8,8,0,0,0,8,8h20a8,8,0,0,0,8-8V130a8,8,0,0,0-8-8Z" transform="translate(2 2)" style="fill: silver"/>
  <path d="M390,202H370a8,8,0,0,0-8,8v20a8,8,0,0,0,8,8h20a8,8,0,0,0,8-8V210a8,8,0,0,0-8-8Z" transform="translate(2 2)" style="fill: silver"/>
  <path d="M470,202H450a8,8,0,0,0-8,8v20a8,8,0,0,0,8,8h20a8,8,0,0,0,8-8V210a8,8,0,0,0-8-8Z" transform="translate(2 2)" style="fill: silver"/>
  <path d="M390,122H370a8,8,0,0,0-8,8v20a8,8,0,0,0,8,8h20a8,8,0,0,0,8-8V130a8,8,0,0,0-8-8Z" transform="translate(2 2)" style="fill: silver"/>
  <path d="M470,122H450a8,8,0,0,0-8,8v20a8,8,0,0,0,8,8h20a8,8,0,0,0,8-8V130a8,8,0,0,0-8-8Z" transform="translate(2 2)" style="fill: silver"/>
  <path d="M550,202H530a8,8,0,0,0-8,8v20a8,8,0,0,0,8,8h20a8,8,0,0,0,8-8V210a8,8,0,0,0-8-8Z" transform="translate(2 2)" style="fill: silver"/>
  <path d="M550,122H530a8,8,0,0,0-8,8v20a8,8,0,0,0,8,8h20a8,8,0,0,0,8-8V130a8,8,0,0,0-8-8Z" transform="translate(2 2)" style="fill: silver"/>
  <path d="M70,42H50a8,8,0,0,0-8,8V70a8,8,0,0,0,8,8H70a8,8,0,0,0,8-8V50a8,8,0,0,0-8-8Z" transform="translate(2 2)" style="fill: silver"/>
  <path d="M150,42H130a8,8,0,0,0-8,8V70a8,8,0,0,0,8,8h20a8,8,0,0,0,8-8V50a8,8,0,0,0-8-8Z" transform="translate(2 2)" style="fill: silver"/>
  <path d="M230,42H210a8,8,0,0,0-8,8V70a8,8,0,0,0,8,8h20a8,8,0,0,0,8-8V50a8,8,0,0,0-8-8Z" transform="translate(2 2)" style="fill: silver"/>
  <path d="M310,42H290a8,8,0,0,0-8,8V70a8,8,0,0,0,8,8h20a8,8,0,0,0,8-8V50a8,8,0,0,0-8-8Z" transform="translate(2 2)" style="fill: silver"/>
  <path d="M390,42H370a8,8,0,0,0-8,8V70a8,8,0,0,0,8,8h20a8,8,0,0,0,8-8V50a8,8,0,0,0-8-8Z" transform="translate(2 2)" style="fill: silver"/>
  <path d="M470,42H450a8,8,0,0,0-8,8V70a8,8,0,0,0,8,8h20a8,8,0,0,0,8-8V50a8,8,0,0,0-8-8Z" transform="translate(2 2)" style="fill: silver"/>
  <path d="M550,42H530a8,8,0,0,0-8,8V70a8,8,0,0,0,8,8h20a8,8,0,0,0,8-8V50a8,8,0,0,0-8-8Z" transform="translate(2 2)" style="fill: silver"/>
</svg>
