<svg version="1.1" xmlns="http://www.w3.org/2000/svg" xmlns:xlink="http://www.w3.org/1999/xlink" width="276.16" height="90.57" viewBox="0,0,276.16,90.57"><g transform="translate(-104.285,-134.715)"><g data-paper-data="{&quot;isPaintingLayer&quot;:true}" fill-rule="nonzero" stroke-linecap="butt" stroke-linejoin="miter" stroke-miterlimit="10" stroke-dasharray="" stroke-dashoffset="0" style="mix-blend-mode: normal"><path d="M336.085,167.785c3.5613,1.15332 7.26066,1.82593 11,2c3.53,0 5,-1 5,-2.8c0,-1.8 -1.43,-2.61 -6,-2.61c-2.22,0 -6.59,0.13 -9.59,0.26l2.48,-27.92h30.92l-1.44,15.78h-13.17l-0.19,2.55c8.09,0.39 16.44,4 16.44,13.57c0,10.63 -10.31,16 -22.12,16c-4.94404,-0.0244 -9.85248,-0.83797 -14.54,-2.41z" fill="none" stroke="#ffffff" stroke-width="4"/><path d="M124.285,197.055c3.09308,-0.05132 6.17075,0.44639 9.09,1.47v9.39c-2.43199,-1.02764 -5.04005,-1.57438 -7.68,-1.61c-4.35,0 -6.69,1.72 -6.69,4.07c0,2.35 2.34,4 6.69,4c2.70612,-0.00764 5.38048,-0.58339 7.85,-1.69v9c-3.00424,1.09394 -6.18317,1.62941 -9.38,1.58c-10.33,0.02 -17.88,-5.48 -17.88,-13.1c0,-7.62 7.5,-13.11 18,-13.11z" fill="none" stroke="#ffffff" stroke-width="4"/><path d="M137.025,197.435h12.71v16.43h9.55v9h-22.26z" fill="none" stroke="#ffffff" stroke-width="4"/><path d="M178.525,197.055c9.68,0 17.23,5.73 17.23,13.11c0,7.38 -7.55,13.12 -17.23,13.12c-9.68,0 -17.24,-5.73 -17.24,-13.12c0,-7.39 7.56,-13.11 17.24,-13.11zM178.525,214.285c2.64,0 4.77,-1.76 4.77,-3.94c0,-2.18 -2.13,-3.94 -4.77,-3.94c-2.64,0 -4.78,1.76 -4.78,3.94c0,2.18 2.13,3.94 4.78,3.94z" fill="none" stroke="#ffffff" stroke-width="4"/><path d="M198.905,212.565c3.12889,1.71669 6.5906,2.73985 10.15,3c1.28,0 1.58,-0.42 1.58,-0.84c0,-0.42 -0.38,-0.71 -0.94,-0.81c-1.49,-0.32 -5.8,-0.71 -8.95,-3c-1.75413,-1.19027 -2.78266,-3.19081 -2.73,-5.31c0,-5.1 4.77,-8.58 12.58,-8.58c3.75742,-0.00374 7.48437,0.67389 11,2v8.34c-2.96229,-1.27859 -6.12086,-2.04287 -9.34,-2.26c-1.24,0 -1.58,0.39 -1.58,0.78c0,0.39 0.47,0.74 1,0.88c1.28,0.31 5.55,0.74 8.58,2.71c1.94282,1.13832 3.12895,3.22834 3.11,5.48c0,4.89 -4.78,8.3 -12.88,8.3c-3.9473,0.02039 -7.86505,-0.68115 -11.56,-2.07z" fill="none" stroke="#ffffff" stroke-width="4"/><path d="M226.025,197.435h22.26v8.51h-9.51v1.38h7.68v6h-7.68v1.46h10.11v8.09h-22.86z" fill="none" stroke="#ffffff" stroke-width="4"/><path d="M282.105,197.055c3.09302,-0.05047 6.17054,0.44721 9.09,1.47v9.39c-2.4323,-1.02667 -5.04016,-1.57337 -7.68,-1.61c-4.35,0 -6.7,1.72 -6.7,4.07c0,2.35 2.35,4 6.7,4c2.70599,-0.00882 5.38011,-0.58453 7.85,-1.69v9c-3.00774,1.09383 -6.18992,1.62928 -9.39,1.58c-10.32,0 -17.87,-5.55 -17.87,-13.12c0,-7.57 7.51,-13.09 18,-13.09z" fill="none" stroke="#ffffff" stroke-width="4"/><path d="M304.535,197.435h12.16l11.77,25.47h-13.73l-1.07,-3.34h-7.08l-1.19,3.34h-12.63zM311.615,213.155l-1.33,-5.17h-0.09l-1.36,5.17z" fill="none" stroke="#ffffff" stroke-width="4"/><path d="M330.595,197.435h12.69v16.43h9.55v9h-22.24z" fill="none" stroke="#ffffff" stroke-width="4"/><path d="M356.185,197.435h12.7v16.43h9.56v9h-22.26z" fill="none" stroke="#ffffff" stroke-width="4"/><path d="M336.085,167.785c3.5613,1.15332 7.26066,1.82593 11,2c3.53,0 5,-1 5,-2.8c0,-1.8 -1.43,-2.61 -6,-2.61c-2.22,0 -6.59,0.13 -9.59,0.26l2.48,-27.92h30.92l-1.44,15.78h-13.17l-0.19,2.55c8.09,0.39 16.44,4 16.44,13.57c0,10.63 -10.31,16 -22.12,16c-4.94404,-0.0244 -9.85248,-0.83797 -14.54,-2.41z" fill="#000000" stroke="none" stroke-width="1"/><path d="M124.285,197.055c3.09308,-0.05132 6.17075,0.44639 9.09,1.47v9.39c-2.43199,-1.02764 -5.04005,-1.57438 -7.68,-1.61c-4.35,0 -6.69,1.72 -6.69,4.07c0,2.35 2.34,4 6.69,4c2.70612,-0.00764 5.38048,-0.58339 7.85,-1.69v9c-3.00424,1.09394 -6.18317,1.62941 -9.38,1.58c-10.33,0.02 -17.88,-5.48 -17.88,-13.1c0,-7.62 7.5,-13.11 18,-13.11z" fill="#000000" stroke="none" stroke-width="1"/><path d="M137.025,197.435h12.71v16.43h9.55v9h-22.26z" fill="#000000" stroke="none" stroke-width="1"/><path d="M178.525,197.055c9.68,0 17.23,5.73 17.23,13.11c0,7.38 -7.55,13.12 -17.23,13.12c-9.68,0 -17.24,-5.73 -17.24,-13.12c0,-7.39 7.56,-13.11 17.24,-13.11zM178.525,214.285c2.64,0 4.77,-1.76 4.77,-3.94c0,-2.18 -2.13,-3.94 -4.77,-3.94c-2.64,0 -4.78,1.76 -4.78,3.94c0,2.18 2.13,3.94 4.78,3.94z" fill="#000000" stroke="none" stroke-width="1"/><path d="M198.905,212.565c3.12889,1.71669 6.5906,2.73985 10.15,3c1.28,0 1.58,-0.42 1.58,-0.84c0,-0.42 -0.38,-0.71 -0.94,-0.81c-1.49,-0.32 -5.8,-0.71 -8.95,-3c-1.75413,-1.19027 -2.78266,-3.19081 -2.73,-5.31c0,-5.1 4.77,-8.58 12.58,-8.58c3.75742,-0.00374 7.48437,0.67389 11,2v8.34c-2.96229,-1.27859 -6.12086,-2.04287 -9.34,-2.26c-1.24,0 -1.58,0.39 -1.58,0.78c0,0.39 0.47,0.74 1,0.88c1.28,0.31 5.55,0.74 8.58,2.71c1.94282,1.13832 3.12895,3.22834 3.11,5.48c0,4.89 -4.78,8.3 -12.88,8.3c-3.9473,0.02039 -7.86505,-0.68115 -11.56,-2.07z" fill="#000000" stroke="none" stroke-width="1"/><path d="M226.025,197.435h22.26v8.51h-9.51v1.38h7.68v6h-7.68v1.46h10.11v8.09h-22.86z" fill="#000000" stroke="none" stroke-width="1"/><path d="M282.105,197.055c3.09302,-0.05047 6.17054,0.44721 9.09,1.47v9.39c-2.4323,-1.02667 -5.04016,-1.57337 -7.68,-1.61c-4.35,0 -6.7,1.72 -6.7,4.07c0,2.35 2.35,4 6.7,4c2.70599,-0.00882 5.38011,-0.58453 7.85,-1.69v9c-3.00774,1.09383 -6.18992,1.62928 -9.39,1.58c-10.32,0 -17.87,-5.55 -17.87,-13.12c0,-7.57 7.51,-13.09 18,-13.09z" fill="#000000" stroke="none" stroke-width="1"/><path d="M304.535,197.435h12.16l11.77,25.47h-13.73l-1.07,-3.34h-7.08l-1.19,3.34h-12.63zM311.615,213.155l-1.33,-5.17h-0.09l-1.36,5.17z" fill="#000000" stroke="none" stroke-width="1"/><path d="M330.595,197.435h12.69v16.43h9.55v9h-22.24z" fill="#000000" stroke="none" stroke-width="1"/><path d="M356.185,197.435h12.7v16.43h9.56v9h-22.26z" fill="#000000" stroke="none" stroke-width="1"/><path d="M110.39,137.09956h19.44v30.46h14.61v16.77h-34z" fill="none" stroke="#ffffff" stroke-width="4"/><path d="M149.52,137.09956h34v15.78h-14.56v2.55h11.74v11.22h-11.74v2.67h15.46v15h-34.9z" fill="none" stroke="#ffffff" stroke-width="4"/><path d="M186.77,137.09956h21l7,25h0.13l7.44,-25h19l-18.07,47.23h-18.43z" fill="none" stroke="#ffffff" stroke-width="4"/><path d="M244.56,137.09956h34v15.78h-14.56v2.55h11.74v11.22h-11.74v2.67h15.46v15h-34.9z" fill="none" stroke="#ffffff" stroke-width="4"/><path d="M284.29,137.09956h19.44v30.46h14.61v16.77h-34.05z" fill="none" stroke="#ffffff" stroke-width="4"/><path d="M110.39,137.09956h19.44v30.46h14.61v16.77h-34z" fill="#000000" stroke="none" stroke-width="1"/><path d="M149.52,137.09956h34v15.78h-14.56v2.55h11.74v11.22h-11.74v2.67h15.46v15h-34.9z" fill="#000000" stroke="none" stroke-width="1"/><path d="M186.77,137.09956h21l7,25h0.13l7.44,-25h19l-18.07,47.23h-18.43z" fill="#000000" stroke="none" stroke-width="1"/><path d="M244.56,137.09956h34v15.78h-14.56v2.55h11.74v11.22h-11.74v2.67h15.46v15h-34.9z" fill="#000000" stroke="none" stroke-width="1"/><path d="M284.29,137.09956h19.44v30.46h14.61v16.77h-34.05z" fill="#000000" stroke="none" stroke-width="1"/></g></g></svg>