<svg version="1.1" xmlns="http://www.w3.org/2000/svg" xmlns:xlink="http://www.w3.org/1999/xlink" width="153" height="41" viewBox="0,0,153,41"><g transform="translate(-163.5,-159.5)"><g data-paper-data="{&quot;isPaintingLayer&quot;:true}" fill-rule="nonzero" stroke="none" stroke-width="1" stroke-linecap="butt" stroke-linejoin="miter" stroke-miterlimit="10" stroke-dasharray="" stroke-dashoffset="0" style="mix-blend-mode: normal"><path d="M310.15,200.5h-140.3c-3.50245,-0.01098 -6.33902,-2.84755 -6.35,-6.35v-26.3c0.01098,-3.50245 2.84755,-6.33902 6.35,-6.35h140.3c3.50245,0.01098 6.33902,2.84755 6.35,6.35v26.3c-0.01098,3.50245 -2.84755,6.33902 -6.35,6.35z" fill="#000000" opacity="0.1"/><path d="M310.15,198.5h-140.3c-3.50245,-0.01098 -6.33902,-2.84755 -6.35,-6.35v-26.3c0.01098,-3.50245 2.84755,-6.33902 6.35,-6.35h140.3c3.50245,0.01098 6.33902,2.84755 6.35,6.35v26.3c-0.01098,3.50245 -2.84755,6.33902 -6.35,6.35z" fill="#ffff87" opacity="0.95"/><path d="M180.04,185.5v-11.28h2.87v8.86h4.71v2.42z" fill="#000000"/><path d="M189.98,185.5v-11.28h8.23v2.28h-5.42v2.17h4.36v2.28h-4.36v2.2h5.42v2.35z" fill="#000000"/><path d="M207.03,185.5h-3.59l-3.8,-11.25h3l2.66,8.48l2.65,-8.48h3z" fill="#000000"/><path d="M212.71,185.5v-11.28h8.23v2.28h-5.44v2.17h4.36v2.28h-4.36v2.2h5.42v2.35z" fill="#000000"/><path d="M223.5,185.5v-11.28h2.86v8.86h4.72v2.42z" fill="#000000"/><path d="M243.5,182.32c0,-0.75 -0.81,-1 -2.3,-1.42c-1.64,-0.45 -3.62,-1.21 -3.62,-3.46c0,-2.09 1.53,-3.47 4.32,-3.47c1.4661,-0.03543 2.91643,0.30907 4.21,1l-0.56,2.36c-1.11988,-0.60983 -2.36574,-0.9521 -3.64,-1c-1,0 -1.47,0.34 -1.47,1c0,0.66 1,1 2.38,1.41c1.72,0.46 3.52,1.26 3.52,3.4c0,2.14 -1.65,3.65 -4.6,3.65c-1.50644,0.0243 -2.99609,-0.31893 -4.34,-1l0.54,-2.38c1.18256,0.64236 2.50431,0.98567 3.85,1c1.04,-0.03 1.71,-0.4 1.71,-1.09z" fill="#000000"/><path d="M248.8,185.5v-11.28h8.23v2.28h-5.42v2.17h4.36v2.28h-4.36v2.2h5.42v2.35z" fill="#000000"/><path d="M259.55,185.5v-11.28h2.86v8.86h4.72v2.42z" fill="#000000"/><path d="M269.5,185.5v-11.28h8.23v2.28h-5.42v2.17h4.36v2.28h-4.36v2.2h5.42v2.35z" fill="#000000"/><path d="M288.5,177.19c-0.85733,-0.5188 -1.83798,-0.79849 -2.84,-0.81c-0.90255,-0.03421 -1.7754,0.32564 -2.3916,0.98599c-0.6162,0.66035 -0.91489,1.55597 -0.8184,2.45401c0,2.14 1.19,3.49 3.23,3.49c1.06902,-0.00296 2.11311,-0.32314 3,-0.92l0.59,2.54c-1.15231,0.54735 -2.41438,0.82439 -3.69,0.81c-3.6,0 -6,-2.07 -6,-5.85c0,-3.78 2.36,-5.94 6.07,-5.94c1.29134,0.00003 2.56614,0.29054 3.73,0.85z" fill="#000000"/><path d="M297.13,176.62v8.88h-2.86v-8.88h-3.58v-2.4h10v2.4z" fill="#000000"/></g></g></svg>