<svg xmlns="http://www.w3.org/2000/svg" viewBox="0 0 93 41"><defs><style>.cls-1{opacity:0.1;}.cls-2{fill:#fff;opacity:0.95;}</style></defs><g id="Layer_1" data-name="Layer 1"><path class="cls-1" d="M86.65,41H6.35A6.37,6.37,0,0,1,0,34.65V8.35A6.37,6.37,0,0,1,6.35,2h80.3A6.37,6.37,0,0,1,93,8.35v26.3A6.37,6.37,0,0,1,86.65,41Z"/><path class="cls-2" d="M86.65,39H6.35A6.37,6.37,0,0,1,0,32.65V6.35A6.37,6.37,0,0,1,6.35,0h80.3A6.37,6.37,0,0,1,93,6.35v26.3A6.37,6.37,0,0,1,86.65,39Z"/></g><g id="Explosion"><path d="M31.79,15.56l-2.47,8.5H26.26l-2.47-8.48-.07,8.66H21.06L21.45,13H25.5l2.35,8.44L30.19,13h4l.38,11.25H31.84Z"/><path d="M37.22,24.24V13h8.23v2.3H40v2.16h4.36v2.29H40v2.19h5.42v2.31Z"/><path d="M55.75,13h2.68V24.35h-3L50.65,17v7.29H48V13h3.09l4.69,7.3Z"/><path d="M66.22,24.51c-2.93,0-4.95-1.44-4.95-4.61V13h2.84v6.53c0,1.69.69,2.58,2.18,2.58s2.06-.72,2.06-2.47V13h2.84v6.66C71.19,22.91,69.25,24.51,66.22,24.51Z"/></g></svg>