<svg version="1.1" xmlns="http://www.w3.org/2000/svg" xmlns:xlink="http://www.w3.org/1999/xlink" width="20" height="26.27488" viewBox="0,0,20,26.27488"><g transform="translate(-229.5,-166)"><g data-paper-data="{&quot;isPaintingLayer&quot;:true}" fill-rule="nonzero" stroke="none" stroke-linecap="butt" stroke-linejoin="miter" stroke-miterlimit="10" stroke-dasharray="" stroke-dashoffset="0" style="mix-blend-mode: normal"><path d="M235.70854,187.28001c1.02548,0.50526 2.14734,0.78488 3.29,0.82c1.36,0 2,-0.41 2,-1.13c0,-0.72 -0.53,-1.15 -2.31,-1.15c-0.40237,-0.00796 -0.8045,0.02555 -1.2,0.1v-3.77c1.78,-0.22 2.91,-0.58 2.91,-1.63c0,-0.58 -0.46,-1 -1.54,-1c-1.02428,0.04761 -2.01781,0.36498 -2.88,0.92l-0.74,-3.77c1.72302,-0.87859 3.63628,-1.31826 5.57,-1.28c3.26,0 5.44,1.64 5.44,4.33c-0.01184,1.5223 -0.91061,2.8978 -2.3,3.52c1.68642,0.51884 2.85351,2.05618 2.9,3.82c0,3.26 -3,5.21 -6.79,5.21c-1.65653,0.05052 -3.30146,-0.29217 -4.8,-1z" fill-opacity="0.2" fill="#000000" stroke-width="1"/><g stroke-width="1"><path d="M235.70854,184.28001c1.02548,0.50526 2.14734,0.78488 3.29,0.82c1.36,0 2,-0.41 2,-1.13c0,-0.72 -0.53,-1.15 -2.31,-1.15c-0.40237,-0.00796 -0.8045,0.02555 -1.2,0.1v-3.77c1.78,-0.22 2.91,-0.58 2.91,-1.63c0,-0.58 -0.46,-1 -1.54,-1c-1.02428,0.04761 -2.01781,0.36498 -2.88,0.92l-0.74,-3.77c1.72302,-0.87859 3.63628,-1.31826 5.57,-1.28c3.26,0 5.44,1.64 5.44,4.33c-0.01184,1.5223 -0.91061,2.8978 -2.3,3.52c1.68642,0.51884 2.85351,2.05618 2.9,3.82c0,3.26 -3,5.21 -6.79,5.21c-1.65663,0.05167 -3.30182,-0.29108 -4.8,-1z" fill="#ffff00"/><path d="M240.04854,189.73001c-1.72199,0.06289 -3.43466,-0.27965 -5,-1l-0.33,-0.15l0.58,-5l0.61,0.25c0.96506,0.48034 2.02253,0.74642 3.1,0.78c1,0 1.49,-0.21 1.49,-0.63c0,-0.18 0,-0.65 -1.81,-0.65c-0.37215,-0.00959 -0.74426,0.02058 -1.11,0.09l-0.59,0.1v-4.82l0.44,-0.05c2.05,-0.25 2.47,-0.63 2.47,-1.13c0,-0.5 -0.65,-0.54 -1,-0.54c-0.93395,0.04218 -1.83916,0.33586 -2.62,0.85l-0.61,0.36l-1,-4.84l0.34,-0.17c1.79645,-0.90829 3.78729,-1.36481 5.8,-1.33c3.61,0 5.94,1.9 5.94,4.83c-0.00625,1.36493 -0.64991,2.64855 -1.74,3.47c1.42776,0.76635 2.32464,2.24965 2.34,3.87c0,3.36 -3,5.71 -7.3,5.71zM235.78854,187.95001c1.34674,0.56464 2.80081,0.82746 4.26,0.77c3.13,0 6.29,-1.46 6.29,-4.71c-0.04005,-1.55566 -1.07781,-2.90837 -2.57,-3.35l-1.14,-0.42l1.1,-0.5c1.2082,-0.54587 1.98891,-1.74425 2,-3.07c0,-2.36 -1.89,-3.83 -4.94,-3.83c-1.72545,-0.03001 -3.43515,0.33245 -5,1.06l0.54,2.72c0.77939,-0.4088 1.64049,-0.63774 2.52,-0.67c1.5,0 2,0.79 2,1.54c0,1.52 -1.71,1.9 -2.91,2.07v2.79c0.23318,-0.012 0.46682,-0.012 0.7,0c0.7,0 2.81,0 2.81,1.65c0,0.61 -0.33,1.63 -2.49,1.63c-0.9877,-0.01054 -1.96339,-0.21792 -2.87,-0.61z" fill="#000000"/></g><path d="M229.5,192v-26h20v26z" fill="none" stroke-width="0"/></g></g></svg>