<svg version="1.1" xmlns="http://www.w3.org/2000/svg" xmlns:xlink="http://www.w3.org/1999/xlink" width="153" height="41" viewBox="0,0,153,41"><g transform="translate(-163.5,-159.5)"><g data-paper-data="{&quot;isPaintingLayer&quot;:true}" fill-rule="nonzero" stroke="none" stroke-width="1" stroke-linecap="butt" stroke-linejoin="miter" stroke-miterlimit="10" stroke-dasharray="" stroke-dashoffset="0" style="mix-blend-mode: normal"><path d="M310.15,200.5h-140.3c-3.50245,-0.01098 -6.33902,-2.84755 -6.35,-6.35v-26.3c0.01098,-3.50245 2.84755,-6.33902 6.35,-6.35h140.3c3.50245,0.01098 6.33902,2.84755 6.35,6.35v26.3c-0.01098,3.50245 -2.84755,6.33902 -6.35,6.35z" fill="#000000" opacity="0.1"/><path d="M310.15,198.5h-140.3c-3.50245,-0.01098 -6.33902,-2.84755 -6.35,-6.35v-26.3c0.01098,-3.50245 2.84755,-6.33902 6.35,-6.35h140.3c3.50245,0.01098 6.33902,2.84755 6.35,6.35v26.3c-0.01098,3.50245 -2.84755,6.33902 -6.35,6.35z" fill="#ffff87" opacity="0.95"/><path d="M214.5,182.32c0,-0.75 -0.81,-1 -2.3,-1.42c-1.49,-0.42 -3.62,-1.21 -3.62,-3.46c0,-2.09 1.53,-3.47 4.32,-3.47c1.46928,-0.03534 2.92282,0.3091 4.22,1l-0.56,2.36c-1.12029,-0.60882 -2.36591,-0.95102 -3.64,-1c-1,0 -1.48,0.34 -1.48,1c0,0.66 1,1 2.38,1.41c1.73,0.46 3.53,1.26 3.53,3.4c0,2.14 -1.66,3.65 -4.61,3.65c-1.50631,0.0231 -2.99568,-0.32007 -4.34,-1l0.54,-2.38c1.18345,0.64009 2.50464,0.98326 3.85,1c1.02,-0.03 1.71,-0.4 1.71,-1.09z" fill="#000000"/><path d="M219.79,185.5v-11.28h8.23v2.28h-5.42v2.17h4.35v2.28h-4.35v2.2h5.42v2.35z" fill="#000000"/><path d="M230.5,185.5v-11.28h2.9v8.86h4.71v2.42z" fill="#000000"/><path d="M240.5,185.5v-11.28h8.2v2.28h-5.42v2.17h4.35v2.28h-4.35v2.2h5.42v2.35z" fill="#000000"/><path d="M259.5,177.19c-0.86161,-0.51738 -1.84507,-0.79689 -2.85,-0.81c-0.90185,-0.03463 -1.77402,0.32548 -2.38873,0.98629c-0.61471,0.66081 -0.91092,1.5567 -0.81127,2.45371c0,2.14 1.19,3.49 3.22,3.49c1.0692,-0.00175 2.11364,-0.32204 3,-0.92l0.6,2.54c-1.153,0.54535 -2.4146,0.82229 -3.69,0.81c-3.61,0 -6,-2.07 -6,-5.85c0,-3.78 2.36,-5.94 6.07,-5.94c1.28816,-0.00018 2.55975,0.29037 3.72,0.85z" fill="#000000"/><path d="M268.12,176.62v8.88h-2.87v-8.88h-3.58v-2.4h10v2.4z" fill="#000000"/></g></g></svg>