<svg version="1.1" xmlns="http://www.w3.org/2000/svg" xmlns:xlink="http://www.w3.org/1999/xlink" width="66" height="203.41665" viewBox="0,0,66,203.41665"><g transform="translate(-207,-27.58335)"><g data-paper-data="{&quot;isPaintingLayer&quot;:true}" fill-rule="nonzero" stroke-linecap="butt" stroke-miterlimit="10" stroke-dasharray="" stroke-dashoffset="0" style="mix-blend-mode: normal"><path d="M226.23256,153.00001v-125.41666h27.53488v125.41667z" fill="#000000" stroke="none" stroke-width="NaN" stroke-linejoin="miter"/><path d="M221.5,141.50001v-13h37v13z" fill="#000000" stroke="none" stroke-width="0" stroke-linejoin="miter"/><path d="M221.5,121.50001v-13h37v13z" fill="#000000" stroke="none" stroke-width="0" stroke-linejoin="miter"/><path d="M221.5,96.50001v-13h37v13z" fill="#000000" stroke="none" stroke-width="0" stroke-linejoin="miter"/><path d="M221.5,76.50001v-13h37v13z" fill="#000000" stroke="none" stroke-width="0" stroke-linejoin="miter"/><path d="M221.5,51.50001v-13h37v13z" fill="#000000" stroke="none" stroke-width="0" stroke-linejoin="miter"/><g><g><path d="M209,211.00001v-62h62v62z" fill="none" stroke="#000000" stroke-width="4" stroke-linejoin="round"/><path d="M209,211.00001v-62h62v62z" fill="#39b54a" stroke="none" stroke-width="1" stroke-linejoin="miter"/></g><path d="M218,202.00001v-44h44v44z" fill="#3ac54d" stroke="none" stroke-width="1" stroke-linejoin="miter"/><g><path d="M254.09,213.00001h16l-8,16z" fill="none" stroke="#000000" stroke-width="4" stroke-linejoin="round"/><path d="M254.09,213.00001h16l-8,16z" fill="#b3b3b3" stroke="none" stroke-width="1" stroke-linejoin="miter"/></g><g><path d="M210.09,213.00001h16l-8,16z" fill="none" stroke="#000000" stroke-width="4" stroke-linejoin="round"/><path d="M210.09,213.00001h16l-8,16z" fill="#b3b3b3" stroke="none" stroke-width="1" stroke-linejoin="miter"/></g><g><path d="M232.09,213.00001h16l-8,16z" fill="none" stroke="#000000" stroke-width="4" stroke-linejoin="round"/><path d="M232.09,213.00001h16l-8,16z" fill="#b3b3b3" stroke="none" stroke-width="1" stroke-linejoin="miter"/></g></g><path d="M261,201.00001h-42v-1l21,1l21,-1z" fill="#ffffff" stroke="#000000" stroke-width="2" stroke-linejoin="round"/></g></g></svg>