<svg version="1.1" xmlns="http://www.w3.org/2000/svg" xmlns:xlink="http://www.w3.org/1999/xlink" width="35" height="52.0141" viewBox="0,0,35,52.0141"><g transform="translate(-233,-156.98591)"><g data-paper-data="{&quot;isPaintingLayer&quot;:true}" fill-rule="nonzero" stroke-linecap="butt" stroke-miterlimit="10" stroke-dasharray="" stroke-dashoffset="0" style="mix-blend-mode: normal"><g><path d="M245,202.00002v5h-10v-5h3v-35.55c-1.56787,-0.90521 -2.33228,-2.75064 -1.8637,-4.49938c0.46857,-1.74873 2.05328,-2.96472 3.8637,-2.96472c1.81042,0 3.39513,1.21599 3.8637,2.96472c0.46857,1.74873 -0.29583,3.59417 -1.8637,4.49938v35.55z" fill="none" stroke="#000000" stroke-width="4" stroke-linejoin="round"/><path d="M245,202.00002v5h-10v-5h3v-35.55c-1.56787,-0.90521 -2.33228,-2.75064 -1.8637,-4.49938c0.46857,-1.74873 2.05328,-2.96472 3.8637,-2.96472c1.81042,0 3.39513,1.21599 3.8637,2.96472c0.46857,1.74873 -0.29583,3.59417 -1.8637,4.49938v35.55z" fill="#3ac54d" stroke="none" stroke-width="1" stroke-linejoin="miter"/></g><g><g><path d="M266,187.92239c-9.6,4.08 -14.4,-6.34 -24,-2.26v-18c9.6,-4.08 14.4,6.34 24,2.26c-1.67855,3.39002 -3.68834,6.60568 -6,9.6c1.65959,3.02817 3.67376,5.84801 6,8.4z" fill="none" stroke="#000000" stroke-width="4" stroke-linejoin="round"/><path d="M266,187.92239c-9.6,4.08 -14.4,-6.34 -24,-2.26v-18c9.6,-4.08 14.4,6.34 24,2.26c-1.67855,3.39002 -3.68834,6.60568 -6,9.6c1.65959,3.02817 3.67376,5.84801 6,8.4z" fill="#ffff00" stroke="none" stroke-width="1" stroke-linejoin="miter"/></g><path d="M266,187.92239c-9.6,4.08 -14.4,-6.34 -24,-2.26v-18c9.6,-4.08 14.4,6.34 24,2.26c-1.67855,3.39002 -3.68834,6.60568 -6,9.6c1.65959,3.02817 3.67376,5.84801 6,8.4z" fill="#ffff00" stroke="none" stroke-width="1" stroke-linejoin="miter"/><path d="M264,176.52239c-0.65754,0.13593 -1.32895,0.193 -2,0.17v-6c2.17151,0.17564 4.32541,-0.50642 6,-1.9c-1.1618,2.66187 -2.49804,5.24415 -4,7.73z" fill="#000000" stroke="none" stroke-width="1" stroke-linejoin="miter"/><path d="M250,179.49238c-1.92441,-0.68281 -3.99788,-0.83141 -6,-0.43v-6c2.00212,-0.40141 4.07559,-0.25281 6,0.43z" fill="#000000" stroke="none" stroke-width="1" stroke-linejoin="miter"/><path d="M268,186.79239c-1.67459,1.39358 -3.82849,2.07564 -6,1.9v-6c0.67105,0.023 1.34246,-0.03407 2,-0.17c1.11793,1.61081 2.46554,3.04938 4,4.27z" fill="#000000" stroke="none" stroke-width="1" stroke-linejoin="miter"/><path d="M256,187.48239c-2.4,-0.79 -3.6,-1.35 -6,-2v-6c2.4,0.64 3.6,1.2 6,2z" fill="#000000" stroke="none" stroke-width="1" stroke-linejoin="miter"/><path d="M256,175.48239c-2.4,-0.79 -3.6,-1.35 -6,-2v-6c2.4,0.64 3.6,1.2 6,2z" fill="#000000" stroke="none" stroke-width="1" stroke-linejoin="miter"/><path d="M244,185.06238c-0.69002,0.11176 -1.36241,0.31348 -2,0.6v-6c0.63759,-0.28652 1.30998,-0.48824 2,-0.6z" fill="#000000" stroke="none" stroke-width="1" stroke-linejoin="miter"/><path d="M244,173.06238c-0.69002,0.11176 -1.36241,0.31348 -2,0.6v-6c0.63759,-0.28652 1.30998,-0.48824 2,-0.6z" fill="#000000" stroke="none" stroke-width="1" stroke-linejoin="miter"/><path d="M262,182.69239c-2.05854,-0.02011 -4.09456,-0.43071 -6,-1.21v-6c1.90544,0.77929 3.94146,1.18989 6,1.21z" fill="#000000" stroke="none" stroke-width="1" stroke-linejoin="miter"/></g><path d="M245,202.00002v5h-10v-5h3v-35.55c-1.56787,-0.90521 -2.33228,-2.75064 -1.8637,-4.49938c0.46857,-1.74873 2.05328,-2.96472 3.8637,-2.96472c1.81042,0 3.39513,1.21599 3.8637,2.96472c0.46857,1.74873 -0.29583,3.59417 -1.8637,4.49938v35.55z" fill="#3ac54d" stroke="none" stroke-width="1" stroke-linejoin="miter"/></g></g></svg>