<svg version="1.1" xmlns="http://www.w3.org/2000/svg" xmlns:xlink="http://www.w3.org/1999/xlink" width="43" height="43.38217" viewBox="0,0,43,43.38217"><g transform="translate(-222,-161)"><g data-paper-data="{&quot;isPaintingLayer&quot;:true}" fill-rule="nonzero" stroke-linecap="butt" stroke-linejoin="miter" stroke-miterlimit="10" stroke-dasharray="" stroke-dashoffset="0" style="mix-blend-mode: normal"><g><path d="M250.875,181h7.275c2.67858,0 4.85,1.79086 4.85,4v4h-12.125z" fill="none" stroke="#000000" stroke-width="4"/><path d="M250.875,181h7.275c2.67858,0 4.85,1.79086 4.85,4v4h-12.125z" fill="#ff8b00" stroke="none" stroke-width="1"/></g><path d="M245,183v-22h12v22z" fill="#000000" stroke="none" stroke-width="1"/><path d="M239.82,196.73684h-3.64c-7.82228,-0.02197 -14.15803,-6.35772 -14.18,-14.18v-2.64c0,-7.8 6.38,-15.18 14.18,-15.18h3.64c7.8,0 14.18,7.38 14.18,15.18v2.64c-0.02197,7.82228 -6.35772,14.15803 -14.18,14.18z" fill="#000000" stroke="none" stroke-width="1"/><path d="M240.28376,185.51109c0.43208,0.9393 0.47034,2.01245 0.10624,2.98013l-5,13.38c-0.75666,2.00476 -2.99521,3.01658 -5,2.26l-1.32,-0.49c-0.96614,-0.35893 -1.74861,-1.08933 -2.17312,-2.02851c-0.42451,-0.93918 -0.45579,-2.00912 -0.08688,-2.97149l1.08,-2.91l3.88,-10.46c0.3614,-0.96454 1.09149,-1.7458 2.02938,-2.17161c0.93789,-0.4258 2.00661,-0.4612 2.97062,-0.09839l1.32,0.49c0.97171,0.35321 1.76168,1.08057 2.19376,2.01987z" data-paper-data="{&quot;index&quot;:null}" fill="#000000" stroke="none" stroke-width="1"/><path d="M235,169.73684v-4h13v4z" fill="#000000" stroke="none" stroke-width="1"/><g><path d="M249,181v-16.16667h6v16.16667z" fill="none" stroke="#000000" stroke-width="4"/><path d="M249,181v-16.16667h6v16.16667z" fill="#ffffff" stroke="none" stroke-width="1"/></g><path d="M251,177v-4h4v4z" fill="#000000" stroke="none" stroke-width="1"/><path d="M251,181h7.23c2.63,0 4.77,1.78 4.77,4v4h-12z" fill="#ff8b00" stroke="none" stroke-width="1"/></g></g></svg>