<svg version="1.1" xmlns="http://www.w3.org/2000/svg" xmlns:xlink="http://www.w3.org/1999/xlink" width="540" height="420" viewBox="0,0,540,420"><g transform="translate(0,60)"><g data-paper-data="{&quot;isPaintingLayer&quot;:true}" fill-rule="nonzero" stroke-linecap="butt" stroke-linejoin="miter" stroke-miterlimit="10" stroke-dasharray="" stroke-dashoffset="0" style="mix-blend-mode: normal"><path d="M0,360v-420h540v420z" fill="#dcf4fa" stroke="none" stroke-width="1"/><path d="M22.5,29h-15c-3.58302,-0.01643 -6.48357,-2.91698 -6.5,-6.5v-15c0.01642,-3.58302 2.91698,-6.48357 6.5,-6.5h15c3.58302,0.01642 6.48357,2.91698 6.5,6.5v15c-0.01643,3.58302 -2.91698,6.48357 -6.5,6.5z" fill="#d3ecf3" stroke="#dcf4fa" stroke-width="0"/><path d="M52.5,59h-15c-3.58302,-0.01642 -6.48357,-2.91698 -6.5,-6.5v-15c0.01643,-3.58302 2.91698,-6.48357 6.5,-6.5h15c3.58302,0.01643 6.48358,2.91698 6.5,6.5v15c-0.01642,3.58302 -2.91698,6.48358 -6.5,6.5z" fill="#d3ecf3" stroke="#dcf4fa" stroke-width="0"/><path d="M22.5,89h-15c-3.58302,-0.01642 -6.48357,-2.91697 -6.5,-6.5v-15c0.01642,-3.58302 2.91698,-6.48358 6.5,-6.5h15c3.58302,0.01642 6.48357,2.91698 6.5,6.5v15c-0.01643,3.58303 -2.91698,6.48358 -6.5,6.5z" fill="#d3ecf3" stroke="#dcf4fa" stroke-width="0"/><path d="M52.5,119h-15c-3.58302,-0.01642 -6.48357,-2.91697 -6.5,-6.5v-15c0.01643,-3.58303 2.91698,-6.48358 6.5,-6.5h15c3.58302,0.01642 6.48358,2.91697 6.5,6.5v15c-0.01642,3.58303 -2.91698,6.48358 -6.5,6.5z" fill="#d3ecf3" stroke="#dcf4fa" stroke-width="0"/><path d="M22.5,149h-15c-3.58302,-0.01642 -6.48357,-2.91698 -6.5,-6.5v-15c0.01642,-3.58303 2.91698,-6.48358 6.5,-6.5h15c3.58302,0.01642 6.48357,2.91697 6.5,6.5v15c-0.01643,3.58302 -2.91698,6.48358 -6.5,6.5z" fill="#d3ecf3" stroke="#dcf4fa" stroke-width="0"/><path d="M52.5,179h-15c-3.58302,-0.01642 -6.48357,-2.91698 -6.5,-6.5v-15c0.01643,-3.58302 2.91698,-6.48358 6.5,-6.5h15c3.58302,0.01642 6.48358,2.91698 6.5,6.5v15c-0.01642,3.58302 -2.91698,6.48358 -6.5,6.5z" fill="#d3ecf3" stroke="#dcf4fa" stroke-width="0"/><path d="M22.5,209h-15c-3.58302,-0.01642 -6.48357,-2.91698 -6.5,-6.5v-15c0.01642,-3.58302 2.91698,-6.48358 6.5,-6.5h15c3.58302,0.01642 6.48357,2.91698 6.5,6.5v15c-0.01643,3.58302 -2.91698,6.48358 -6.5,6.5z" fill="#d3ecf3" stroke="#dcf4fa" stroke-width="0"/><path d="M52.5,239h-15c-3.58302,-0.01642 -6.48357,-2.91698 -6.5,-6.5v-15c0.01643,-3.58302 2.91698,-6.48358 6.5,-6.5h15c3.58302,0.01642 6.48358,2.91698 6.5,6.5v15c-0.01642,3.58302 -2.91698,6.48358 -6.5,6.5z" fill="#d3ecf3" stroke="#dcf4fa" stroke-width="0"/><path d="M22.5,269h-15c-3.58302,-0.01643 -6.48357,-2.91697 -6.5,-6.5v-15c0.01642,-3.58302 2.91698,-6.48358 6.5,-6.5h15c3.58302,0.01642 6.48357,2.91698 6.5,6.5v15c-0.01643,3.58303 -2.91698,6.48357 -6.5,6.5z" fill="#d3ecf3" stroke="#dcf4fa" stroke-width="0"/><path d="M52.5,299h-15c-3.58302,-0.01643 -6.48357,-2.91697 -6.5,-6.5v-15c0.01643,-3.58303 2.91698,-6.48357 6.5,-6.5h15c3.58302,0.01643 6.48358,2.91697 6.5,6.5v15c-0.01642,3.58303 -2.91698,6.48357 -6.5,6.5z" fill="#d3ecf3" stroke="#dcf4fa" stroke-width="0"/><path d="M22.5,329h-15c-3.58302,-0.01643 -6.48357,-2.91697 -6.5,-6.5v-15c0.01642,-3.58303 2.91698,-6.48357 6.5,-6.5h15c3.58302,0.01643 6.48357,2.91697 6.5,6.5v15c-0.01643,3.58303 -2.91698,6.48357 -6.5,6.5z" fill="#d3ecf3" stroke="#dcf4fa" stroke-width="0"/><path d="M52.5,359h-15c-3.58302,-0.01643 -6.48357,-2.91697 -6.5,-6.5v-15c0.01643,-3.58303 2.91698,-6.48357 6.5,-6.5h15c3.58302,0.01643 6.48358,2.91697 6.5,6.5v15c-0.01642,3.58303 -2.91698,6.48357 -6.5,6.5z" fill="#d3ecf3" stroke="#dcf4fa" stroke-width="0"/><path d="M82.5,29h-15c-3.58302,-0.01643 -6.48358,-2.91698 -6.5,-6.5v-15c0.01642,-3.58302 2.91698,-6.48357 6.5,-6.5h15c3.58303,0.01642 6.48358,2.91698 6.5,6.5v15c-0.01642,3.58302 -2.91697,6.48357 -6.5,6.5z" fill="#d3ecf3" stroke="#dcf4fa" stroke-width="0"/><path d="M112.5,59h-15c-3.58303,-0.01642 -6.48358,-2.91698 -6.5,-6.5v-15c0.01642,-3.58302 2.91697,-6.48357 6.5,-6.5h15c3.58303,0.01643 6.48358,2.91698 6.5,6.5v15c-0.01642,3.58302 -2.91697,6.48358 -6.5,6.5z" fill="#d3ecf3" stroke="#dcf4fa" stroke-width="0"/><path d="M82.5,89h-15c-3.58302,-0.01642 -6.48358,-2.91697 -6.5,-6.5v-15c0.01642,-3.58302 2.91698,-6.48358 6.5,-6.5h15c3.58303,0.01642 6.48358,2.91698 6.5,6.5v15c-0.01642,3.58303 -2.91697,6.48358 -6.5,6.5z" fill="#d3ecf3" stroke="#dcf4fa" stroke-width="0"/><path d="M112.5,119h-15c-3.58303,-0.01642 -6.48358,-2.91697 -6.5,-6.5v-15c0.01642,-3.58303 2.91697,-6.48358 6.5,-6.5h15c3.58303,0.01642 6.48358,2.91697 6.5,6.5v15c-0.01642,3.58303 -2.91697,6.48358 -6.5,6.5z" fill="#d3ecf3" stroke="#dcf4fa" stroke-width="0"/><path d="M82.5,149h-15c-3.58302,-0.01642 -6.48358,-2.91698 -6.5,-6.5v-15c0.01642,-3.58303 2.91698,-6.48358 6.5,-6.5h15c3.58303,0.01642 6.48358,2.91697 6.5,6.5v15c-0.01642,3.58302 -2.91697,6.48358 -6.5,6.5z" fill="#d3ecf3" stroke="#dcf4fa" stroke-width="0"/><path d="M112.5,179h-15c-3.58303,-0.01642 -6.48358,-2.91698 -6.5,-6.5v-15c0.01642,-3.58302 2.91697,-6.48358 6.5,-6.5h15c3.58303,0.01642 6.48358,2.91698 6.5,6.5v15c-0.01642,3.58302 -2.91697,6.48358 -6.5,6.5z" fill="#d3ecf3" stroke="#dcf4fa" stroke-width="0"/><path d="M82.5,209h-15c-3.58302,-0.01642 -6.48358,-2.91698 -6.5,-6.5v-15c0.01642,-3.58302 2.91698,-6.48358 6.5,-6.5h15c3.58303,0.01642 6.48358,2.91698 6.5,6.5v15c-0.01642,3.58302 -2.91697,6.48358 -6.5,6.5z" fill="#d3ecf3" stroke="#dcf4fa" stroke-width="0"/><path d="M112.5,239h-15c-3.58303,-0.01642 -6.48358,-2.91698 -6.5,-6.5v-15c0.01642,-3.58302 2.91697,-6.48358 6.5,-6.5h15c3.58303,0.01642 6.48358,2.91698 6.5,6.5v15c-0.01642,3.58302 -2.91697,6.48358 -6.5,6.5z" fill="#d3ecf3" stroke="#dcf4fa" stroke-width="0"/><path d="M82.5,269h-15c-3.58302,-0.01643 -6.48358,-2.91697 -6.5,-6.5v-15c0.01642,-3.58302 2.91698,-6.48358 6.5,-6.5h15c3.58303,0.01642 6.48358,2.91698 6.5,6.5v15c-0.01642,3.58303 -2.91697,6.48357 -6.5,6.5z" fill="#d3ecf3" stroke="#dcf4fa" stroke-width="0"/><path d="M112.5,299h-15c-3.58303,-0.01643 -6.48358,-2.91697 -6.5,-6.5v-15c0.01642,-3.58303 2.91697,-6.48357 6.5,-6.5h15c3.58303,0.01643 6.48358,2.91697 6.5,6.5v15c-0.01642,3.58303 -2.91697,6.48357 -6.5,6.5z" fill="#d3ecf3" stroke="#dcf4fa" stroke-width="0"/><path d="M82.5,329h-15c-3.58302,-0.01643 -6.48358,-2.91697 -6.5,-6.5v-15c0.01642,-3.58303 2.91698,-6.48357 6.5,-6.5h15c3.58303,0.01643 6.48358,2.91697 6.5,6.5v15c-0.01642,3.58303 -2.91697,6.48357 -6.5,6.5z" fill="#d3ecf3" stroke="#dcf4fa" stroke-width="0"/><path d="M112.5,359h-15c-3.58303,-0.01643 -6.48358,-2.91697 -6.5,-6.5v-15c0.01642,-3.58303 2.91697,-6.48357 6.5,-6.5h15c3.58303,0.01643 6.48358,2.91697 6.5,6.5v15c-0.01642,3.58303 -2.91697,6.48357 -6.5,6.5z" fill="#d3ecf3" stroke="#dcf4fa" stroke-width="0"/><path d="M142.5,29h-15c-3.58303,-0.01643 -6.48358,-2.91698 -6.5,-6.5v-15c0.01642,-3.58302 2.91697,-6.48357 6.5,-6.5h15c3.58302,0.01642 6.48358,2.91698 6.5,6.5v15c-0.01642,3.58302 -2.91698,6.48357 -6.5,6.5z" fill="#d3ecf3" stroke="#dcf4fa" stroke-width="0"/><path d="M172.5,59h-15c-3.58302,-0.01642 -6.48358,-2.91698 -6.5,-6.5v-15c0.01642,-3.58302 2.91698,-6.48357 6.5,-6.5h15c3.58302,0.01643 6.48358,2.91698 6.5,6.5v15c-0.01642,3.58302 -2.91698,6.48358 -6.5,6.5z" fill="#d3ecf3" stroke="#dcf4fa" stroke-width="0"/><path d="M142.5,89h-15c-3.58303,-0.01642 -6.48358,-2.91697 -6.5,-6.5v-15c0.01642,-3.58302 2.91697,-6.48358 6.5,-6.5h15c3.58302,0.01642 6.48358,2.91698 6.5,6.5v15c-0.01642,3.58303 -2.91698,6.48358 -6.5,6.5z" fill="#d3ecf3" stroke="#dcf4fa" stroke-width="0"/><path d="M172.5,119h-15c-3.58302,-0.01642 -6.48358,-2.91697 -6.5,-6.5v-15c0.01642,-3.58303 2.91698,-6.48358 6.5,-6.5h15c3.58302,0.01642 6.48358,2.91697 6.5,6.5v15c-0.01642,3.58303 -2.91698,6.48358 -6.5,6.5z" fill="#d3ecf3" stroke="#dcf4fa" stroke-width="0"/><path d="M142.5,149h-15c-3.58303,-0.01642 -6.48358,-2.91698 -6.5,-6.5v-15c0.01642,-3.58303 2.91697,-6.48358 6.5,-6.5h15c3.58302,0.01642 6.48358,2.91697 6.5,6.5v15c-0.01642,3.58302 -2.91698,6.48358 -6.5,6.5z" fill="#d3ecf3" stroke="#dcf4fa" stroke-width="0"/><path d="M172.5,179h-15c-3.58302,-0.01642 -6.48358,-2.91698 -6.5,-6.5v-15c0.01642,-3.58302 2.91698,-6.48358 6.5,-6.5h15c3.58302,0.01642 6.48358,2.91698 6.5,6.5v15c-0.01642,3.58302 -2.91698,6.48358 -6.5,6.5z" fill="#d3ecf3" stroke="#dcf4fa" stroke-width="0"/><path d="M142.5,209h-15c-3.58303,-0.01642 -6.48358,-2.91698 -6.5,-6.5v-15c0.01642,-3.58302 2.91697,-6.48358 6.5,-6.5h15c3.58302,0.01642 6.48358,2.91698 6.5,6.5v15c-0.01642,3.58302 -2.91698,6.48358 -6.5,6.5z" fill="#d3ecf3" stroke="#dcf4fa" stroke-width="0"/><path d="M172.5,239h-15c-3.58302,-0.01642 -6.48358,-2.91698 -6.5,-6.5v-15c0.01642,-3.58302 2.91698,-6.48358 6.5,-6.5h15c3.58302,0.01642 6.48358,2.91698 6.5,6.5v15c-0.01642,3.58302 -2.91698,6.48358 -6.5,6.5z" fill="#d3ecf3" stroke="#dcf4fa" stroke-width="0"/><path d="M142.5,269h-15c-3.58303,-0.01643 -6.48358,-2.91697 -6.5,-6.5v-15c0.01642,-3.58302 2.91697,-6.48358 6.5,-6.5h15c3.58302,0.01642 6.48358,2.91698 6.5,6.5v15c-0.01642,3.58303 -2.91698,6.48357 -6.5,6.5z" fill="#d3ecf3" stroke="#dcf4fa" stroke-width="0"/><path d="M172.5,299h-15c-3.58302,-0.01643 -6.48358,-2.91697 -6.5,-6.5v-15c0.01642,-3.58303 2.91698,-6.48357 6.5,-6.5h15c3.58302,0.01643 6.48358,2.91697 6.5,6.5v15c-0.01642,3.58303 -2.91698,6.48357 -6.5,6.5z" fill="#d3ecf3" stroke="#dcf4fa" stroke-width="0"/><path d="M142.5,329h-15c-3.58303,-0.01643 -6.48358,-2.91697 -6.5,-6.5v-15c0.01642,-3.58303 2.91697,-6.48357 6.5,-6.5h15c3.58302,0.01643 6.48358,2.91697 6.5,6.5v15c-0.01642,3.58303 -2.91698,6.48357 -6.5,6.5z" fill="#d3ecf3" stroke="#dcf4fa" stroke-width="0"/><path d="M172.5,359h-15c-3.58302,-0.01643 -6.48358,-2.91697 -6.5,-6.5v-15c0.01642,-3.58303 2.91698,-6.48357 6.5,-6.5h15c3.58302,0.01643 6.48358,2.91697 6.5,6.5v15c-0.01642,3.58303 -2.91698,6.48357 -6.5,6.5z" fill="#d3ecf3" stroke="#dcf4fa" stroke-width="0"/><path d="M202.5,29h-15c-3.58302,-0.01643 -6.48358,-2.91698 -6.5,-6.5v-15c0.01642,-3.58302 2.91698,-6.48357 6.5,-6.5h15c3.58302,0.01642 6.48358,2.91698 6.5,6.5v15c-0.01642,3.58302 -2.91698,6.48357 -6.5,6.5z" fill="#d3ecf3" stroke="#dcf4fa" stroke-width="0"/><path d="M232.5,59h-15c-3.58302,-0.01642 -6.48358,-2.91698 -6.5,-6.5v-15c0.01642,-3.58302 2.91698,-6.48357 6.5,-6.5h15c3.58302,0.01643 6.48358,2.91698 6.5,6.5v15c-0.01642,3.58302 -2.91698,6.48358 -6.5,6.5z" fill="#d3ecf3" stroke="#dcf4fa" stroke-width="0"/><path d="M202.5,89h-15c-3.58302,-0.01642 -6.48358,-2.91697 -6.5,-6.5v-15c0.01642,-3.58302 2.91698,-6.48358 6.5,-6.5h15c3.58302,0.01642 6.48358,2.91698 6.5,6.5v15c-0.01642,3.58303 -2.91698,6.48358 -6.5,6.5z" fill="#d3ecf3" stroke="#dcf4fa" stroke-width="0"/><path d="M232.5,119h-15c-3.58302,-0.01642 -6.48358,-2.91697 -6.5,-6.5v-15c0.01642,-3.58303 2.91698,-6.48358 6.5,-6.5h15c3.58302,0.01642 6.48358,2.91697 6.5,6.5v15c-0.01642,3.58303 -2.91698,6.48358 -6.5,6.5z" fill="#d3ecf3" stroke="#dcf4fa" stroke-width="0"/><path d="M202.5,149h-15c-3.58302,-0.01642 -6.48358,-2.91698 -6.5,-6.5v-15c0.01642,-3.58303 2.91698,-6.48358 6.5,-6.5h15c3.58302,0.01642 6.48358,2.91697 6.5,6.5v15c-0.01642,3.58302 -2.91698,6.48358 -6.5,6.5z" fill="#d3ecf3" stroke="#dcf4fa" stroke-width="0"/><path d="M232.5,179h-15c-3.58302,-0.01642 -6.48358,-2.91698 -6.5,-6.5v-15c0.01642,-3.58302 2.91698,-6.48358 6.5,-6.5h15c3.58302,0.01642 6.48358,2.91698 6.5,6.5v15c-0.01642,3.58302 -2.91698,6.48358 -6.5,6.5z" fill="#d3ecf3" stroke="#dcf4fa" stroke-width="0"/><path d="M202.5,209h-15c-3.58302,-0.01642 -6.48358,-2.91698 -6.5,-6.5v-15c0.01642,-3.58302 2.91698,-6.48358 6.5,-6.5h15c3.58302,0.01642 6.48358,2.91698 6.5,6.5v15c-0.01642,3.58302 -2.91698,6.48358 -6.5,6.5z" fill="#d3ecf3" stroke="#dcf4fa" stroke-width="0"/><path d="M232.5,239h-15c-3.58302,-0.01642 -6.48358,-2.91698 -6.5,-6.5v-15c0.01642,-3.58302 2.91698,-6.48358 6.5,-6.5h15c3.58302,0.01642 6.48358,2.91698 6.5,6.5v15c-0.01642,3.58302 -2.91698,6.48358 -6.5,6.5z" fill="#d3ecf3" stroke="#dcf4fa" stroke-width="0"/><path d="M202.5,269h-15c-3.58302,-0.01643 -6.48358,-2.91697 -6.5,-6.5v-15c0.01642,-3.58302 2.91698,-6.48358 6.5,-6.5h15c3.58302,0.01642 6.48358,2.91698 6.5,6.5v15c-0.01642,3.58303 -2.91698,6.48357 -6.5,6.5z" fill="#d3ecf3" stroke="#dcf4fa" stroke-width="0"/><path d="M232.5,299h-15c-3.58302,-0.01643 -6.48358,-2.91697 -6.5,-6.5v-15c0.01642,-3.58303 2.91698,-6.48357 6.5,-6.5h15c3.58302,0.01643 6.48358,2.91697 6.5,6.5v15c-0.01642,3.58303 -2.91698,6.48357 -6.5,6.5z" fill="#d3ecf3" stroke="#dcf4fa" stroke-width="0"/><path d="M202.5,329h-15c-3.58302,-0.01643 -6.48358,-2.91697 -6.5,-6.5v-15c0.01642,-3.58303 2.91698,-6.48357 6.5,-6.5h15c3.58302,0.01643 6.48358,2.91697 6.5,6.5v15c-0.01642,3.58303 -2.91698,6.48357 -6.5,6.5z" fill="#d3ecf3" stroke="#dcf4fa" stroke-width="0"/><path d="M232.5,359h-15c-3.58302,-0.01643 -6.48358,-2.91697 -6.5,-6.5v-15c0.01642,-3.58303 2.91698,-6.48357 6.5,-6.5h15c3.58302,0.01643 6.48358,2.91697 6.5,6.5v15c-0.01642,3.58303 -2.91698,6.48357 -6.5,6.5z" fill="#d3ecf3" stroke="#dcf4fa" stroke-width="0"/><path d="M262.5,29h-15c-3.58302,-0.01643 -6.48358,-2.91698 -6.5,-6.5v-15c0.01642,-3.58302 2.91698,-6.48357 6.5,-6.5h15c3.58303,0.01642 6.48357,2.91698 6.5,6.5v15c-0.01643,3.58302 -2.91697,6.48357 -6.5,6.5z" fill="#d3ecf3" stroke="#dcf4fa" stroke-width="0"/><path d="M292.5,59h-15c-3.58303,-0.01642 -6.48357,-2.91698 -6.5,-6.5v-15c0.01643,-3.58302 2.91697,-6.48357 6.5,-6.5h15c3.58303,0.01643 6.48357,2.91698 6.5,6.5v15c-0.01643,3.58302 -2.91697,6.48358 -6.5,6.5z" fill="#d3ecf3" stroke="#dcf4fa" stroke-width="0"/><path d="M262.5,89h-15c-3.58302,-0.01642 -6.48358,-2.91697 -6.5,-6.5v-15c0.01642,-3.58302 2.91698,-6.48358 6.5,-6.5h15c3.58303,0.01642 6.48357,2.91698 6.5,6.5v15c-0.01643,3.58303 -2.91697,6.48358 -6.5,6.5z" fill="#d3ecf3" stroke="#dcf4fa" stroke-width="0"/><path d="M292.5,119h-15c-3.58303,-0.01642 -6.48357,-2.91697 -6.5,-6.5v-15c0.01643,-3.58303 2.91697,-6.48358 6.5,-6.5h15c3.58303,0.01642 6.48357,2.91697 6.5,6.5v15c-0.01643,3.58303 -2.91697,6.48358 -6.5,6.5z" fill="#d3ecf3" stroke="#dcf4fa" stroke-width="0"/><path d="M262.5,149h-15c-3.58302,-0.01642 -6.48358,-2.91698 -6.5,-6.5v-15c0.01642,-3.58303 2.91698,-6.48358 6.5,-6.5h15c3.58303,0.01642 6.48357,2.91697 6.5,6.5v15c-0.01643,3.58302 -2.91697,6.48358 -6.5,6.5z" fill="#d3ecf3" stroke="#dcf4fa" stroke-width="0"/><path d="M292.5,179h-15c-3.58303,-0.01642 -6.48357,-2.91698 -6.5,-6.5v-15c0.01643,-3.58302 2.91697,-6.48358 6.5,-6.5h15c3.58303,0.01642 6.48357,2.91698 6.5,6.5v15c-0.01643,3.58302 -2.91697,6.48358 -6.5,6.5z" fill="#d3ecf3" stroke="#dcf4fa" stroke-width="0"/><path d="M262.5,209h-15c-3.58302,-0.01642 -6.48358,-2.91698 -6.5,-6.5v-15c0.01642,-3.58302 2.91698,-6.48358 6.5,-6.5h15c3.58303,0.01642 6.48357,2.91698 6.5,6.5v15c-0.01643,3.58302 -2.91697,6.48358 -6.5,6.5z" fill="#d3ecf3" stroke="#dcf4fa" stroke-width="0"/><path d="M292.5,239h-15c-3.58303,-0.01642 -6.48357,-2.91698 -6.5,-6.5v-15c0.01643,-3.58302 2.91697,-6.48358 6.5,-6.5h15c3.58303,0.01642 6.48357,2.91698 6.5,6.5v15c-0.01643,3.58302 -2.91697,6.48358 -6.5,6.5z" fill="#d3ecf3" stroke="#dcf4fa" stroke-width="0"/><path d="M262.5,269h-15c-3.58302,-0.01643 -6.48358,-2.91697 -6.5,-6.5v-15c0.01642,-3.58302 2.91698,-6.48358 6.5,-6.5h15c3.58303,0.01642 6.48357,2.91698 6.5,6.5v15c-0.01643,3.58303 -2.91697,6.48357 -6.5,6.5z" fill="#d3ecf3" stroke="#dcf4fa" stroke-width="0"/><path d="M292.5,299h-15c-3.58303,-0.01643 -6.48357,-2.91697 -6.5,-6.5v-15c0.01643,-3.58303 2.91697,-6.48357 6.5,-6.5h15c3.58303,0.01643 6.48357,2.91697 6.5,6.5v15c-0.01643,3.58303 -2.91697,6.48357 -6.5,6.5z" fill="#d3ecf3" stroke="#dcf4fa" stroke-width="0"/><path d="M262.5,329h-15c-3.58302,-0.01643 -6.48358,-2.91697 -6.5,-6.5v-15c0.01642,-3.58303 2.91698,-6.48357 6.5,-6.5h15c3.58303,0.01643 6.48357,2.91697 6.5,6.5v15c-0.01643,3.58303 -2.91697,6.48357 -6.5,6.5z" fill="#d3ecf3" stroke="#dcf4fa" stroke-width="0"/><path d="M292.5,359h-15c-3.58303,-0.01643 -6.48357,-2.91697 -6.5,-6.5v-15c0.01643,-3.58303 2.91697,-6.48357 6.5,-6.5h15c3.58303,0.01643 6.48357,2.91697 6.5,6.5v15c-0.01643,3.58303 -2.91697,6.48357 -6.5,6.5z" fill="#d3ecf3" stroke="#dcf4fa" stroke-width="0"/><path d="M322.5,29h-15c-3.58303,-0.01643 -6.48357,-2.91698 -6.5,-6.5v-15c0.01643,-3.58302 2.91697,-6.48357 6.5,-6.5h15c3.58303,0.01642 6.48357,2.91698 6.5,6.5v15c-0.01643,3.58302 -2.91697,6.48357 -6.5,6.5z" fill="#d3ecf3" stroke="#dcf4fa" stroke-width="0"/><path d="M352.5,59h-15c-3.58303,-0.01642 -6.48357,-2.91698 -6.5,-6.5v-15c0.01643,-3.58302 2.91697,-6.48357 6.5,-6.5h15c3.58303,0.01643 6.48357,2.91698 6.5,6.5v15c-0.01643,3.58302 -2.91697,6.48358 -6.5,6.5z" fill="#d3ecf3" stroke="#dcf4fa" stroke-width="0"/><path d="M322.5,89h-15c-3.58303,-0.01642 -6.48357,-2.91697 -6.5,-6.5v-15c0.01643,-3.58302 2.91697,-6.48358 6.5,-6.5h15c3.58303,0.01642 6.48357,2.91698 6.5,6.5v15c-0.01643,3.58303 -2.91697,6.48358 -6.5,6.5z" fill="#d3ecf3" stroke="#dcf4fa" stroke-width="0"/><path d="M352.5,119h-15c-3.58303,-0.01642 -6.48357,-2.91697 -6.5,-6.5v-15c0.01643,-3.58303 2.91697,-6.48358 6.5,-6.5h15c3.58303,0.01642 6.48357,2.91697 6.5,6.5v15c-0.01643,3.58303 -2.91697,6.48358 -6.5,6.5z" fill="#d3ecf3" stroke="#dcf4fa" stroke-width="0"/><path d="M322.5,149h-15c-3.58303,-0.01642 -6.48357,-2.91698 -6.5,-6.5v-15c0.01643,-3.58303 2.91697,-6.48358 6.5,-6.5h15c3.58303,0.01642 6.48357,2.91697 6.5,6.5v15c-0.01643,3.58302 -2.91697,6.48358 -6.5,6.5z" fill="#d3ecf3" stroke="#dcf4fa" stroke-width="0"/><path d="M352.5,179h-15c-3.58303,-0.01642 -6.48357,-2.91698 -6.5,-6.5v-15c0.01643,-3.58302 2.91697,-6.48358 6.5,-6.5h15c3.58303,0.01642 6.48357,2.91698 6.5,6.5v15c-0.01643,3.58302 -2.91697,6.48358 -6.5,6.5z" fill="#d3ecf3" stroke="#dcf4fa" stroke-width="0"/><path d="M322.5,209h-15c-3.58303,-0.01642 -6.48357,-2.91698 -6.5,-6.5v-15c0.01643,-3.58302 2.91697,-6.48358 6.5,-6.5h15c3.58303,0.01642 6.48357,2.91698 6.5,6.5v15c-0.01643,3.58302 -2.91697,6.48358 -6.5,6.5z" fill="#d3ecf3" stroke="#dcf4fa" stroke-width="0"/><path d="M352.5,239h-15c-3.58303,-0.01642 -6.48357,-2.91698 -6.5,-6.5v-15c0.01643,-3.58302 2.91697,-6.48358 6.5,-6.5h15c3.58303,0.01642 6.48357,2.91698 6.5,6.5v15c-0.01643,3.58302 -2.91697,6.48358 -6.5,6.5z" fill="#d3ecf3" stroke="#dcf4fa" stroke-width="0"/><path d="M322.5,269h-15c-3.58303,-0.01643 -6.48357,-2.91697 -6.5,-6.5v-15c0.01643,-3.58302 2.91697,-6.48358 6.5,-6.5h15c3.58303,0.01642 6.48357,2.91698 6.5,6.5v15c-0.01643,3.58303 -2.91697,6.48357 -6.5,6.5z" fill="#d3ecf3" stroke="#dcf4fa" stroke-width="0"/><path d="M352.5,299h-15c-3.58303,-0.01643 -6.48357,-2.91697 -6.5,-6.5v-15c0.01643,-3.58303 2.91697,-6.48357 6.5,-6.5h15c3.58303,0.01643 6.48357,2.91697 6.5,6.5v15c-0.01643,3.58303 -2.91697,6.48357 -6.5,6.5z" fill="#d3ecf3" stroke="#dcf4fa" stroke-width="0"/><path d="M322.5,329h-15c-3.58303,-0.01643 -6.48357,-2.91697 -6.5,-6.5v-15c0.01643,-3.58303 2.91697,-6.48357 6.5,-6.5h15c3.58303,0.01643 6.48357,2.91697 6.5,6.5v15c-0.01643,3.58303 -2.91697,6.48357 -6.5,6.5z" fill="#d3ecf3" stroke="#dcf4fa" stroke-width="0"/><path d="M352.5,359h-15c-3.58303,-0.01643 -6.48357,-2.91697 -6.5,-6.5v-15c0.01643,-3.58303 2.91697,-6.48357 6.5,-6.5h15c3.58303,0.01643 6.48357,2.91697 6.5,6.5v15c-0.01643,3.58303 -2.91697,6.48357 -6.5,6.5z" fill="#d3ecf3" stroke="#dcf4fa" stroke-width="0"/><path d="M382.5,29h-15c-3.58303,-0.01643 -6.48357,-2.91698 -6.5,-6.5v-15c0.01643,-3.58302 2.91697,-6.48357 6.5,-6.5h15c3.58303,0.01642 6.48357,2.91698 6.5,6.5v15c-0.01643,3.58302 -2.91697,6.48357 -6.5,6.5z" fill="#d3ecf3" stroke="#dcf4fa" stroke-width="0"/><path d="M412.5,59h-15c-3.58303,-0.01642 -6.48357,-2.91698 -6.5,-6.5v-15c0.01643,-3.58302 2.91697,-6.48357 6.5,-6.5h15c3.58303,0.01643 6.48357,2.91698 6.5,6.5v15c-0.01643,3.58302 -2.91697,6.48358 -6.5,6.5z" fill="#d3ecf3" stroke="#dcf4fa" stroke-width="0"/><path d="M382.5,89h-15c-3.58303,-0.01642 -6.48357,-2.91697 -6.5,-6.5v-15c0.01643,-3.58302 2.91697,-6.48358 6.5,-6.5h15c3.58303,0.01642 6.48357,2.91698 6.5,6.5v15c-0.01643,3.58303 -2.91697,6.48358 -6.5,6.5z" fill="#d3ecf3" stroke="#dcf4fa" stroke-width="0"/><path d="M412.5,119h-15c-3.58303,-0.01642 -6.48357,-2.91697 -6.5,-6.5v-15c0.01643,-3.58303 2.91697,-6.48358 6.5,-6.5h15c3.58303,0.01642 6.48357,2.91697 6.5,6.5v15c-0.01643,3.58303 -2.91697,6.48358 -6.5,6.5z" fill="#d3ecf3" stroke="#dcf4fa" stroke-width="0"/><path d="M382.5,149h-15c-3.58303,-0.01642 -6.48357,-2.91698 -6.5,-6.5v-15c0.01643,-3.58303 2.91697,-6.48358 6.5,-6.5h15c3.58303,0.01642 6.48357,2.91697 6.5,6.5v15c-0.01643,3.58302 -2.91697,6.48358 -6.5,6.5z" fill="#d3ecf3" stroke="#dcf4fa" stroke-width="0"/><path d="M412.5,179h-15c-3.58303,-0.01642 -6.48357,-2.91698 -6.5,-6.5v-15c0.01643,-3.58302 2.91697,-6.48358 6.5,-6.5h15c3.58303,0.01642 6.48357,2.91698 6.5,6.5v15c-0.01643,3.58302 -2.91697,6.48358 -6.5,6.5z" fill="#d3ecf3" stroke="#dcf4fa" stroke-width="0"/><path d="M382.5,209h-15c-3.58303,-0.01642 -6.48357,-2.91698 -6.5,-6.5v-15c0.01643,-3.58302 2.91697,-6.48358 6.5,-6.5h15c3.58303,0.01642 6.48357,2.91698 6.5,6.5v15c-0.01643,3.58302 -2.91697,6.48358 -6.5,6.5z" fill="#d3ecf3" stroke="#dcf4fa" stroke-width="0"/><path d="M412.5,239h-15c-3.58303,-0.01642 -6.48357,-2.91698 -6.5,-6.5v-15c0.01643,-3.58302 2.91697,-6.48358 6.5,-6.5h15c3.58303,0.01642 6.48357,2.91698 6.5,6.5v15c-0.01643,3.58302 -2.91697,6.48358 -6.5,6.5z" fill="#d3ecf3" stroke="#dcf4fa" stroke-width="0"/><path d="M382.5,269h-15c-3.58303,-0.01643 -6.48357,-2.91697 -6.5,-6.5v-15c0.01643,-3.58302 2.91697,-6.48358 6.5,-6.5h15c3.58303,0.01642 6.48357,2.91698 6.5,6.5v15c-0.01643,3.58303 -2.91697,6.48357 -6.5,6.5z" fill="#d3ecf3" stroke="#dcf4fa" stroke-width="0"/><path d="M412.5,299h-15c-3.58303,-0.01643 -6.48357,-2.91697 -6.5,-6.5v-15c0.01643,-3.58303 2.91697,-6.48357 6.5,-6.5h15c3.58303,0.01643 6.48357,2.91697 6.5,6.5v15c-0.01643,3.58303 -2.91697,6.48357 -6.5,6.5z" fill="#d3ecf3" stroke="#dcf4fa" stroke-width="0"/><path d="M382.5,329h-15c-3.58303,-0.01643 -6.48357,-2.91697 -6.5,-6.5v-15c0.01643,-3.58303 2.91697,-6.48357 6.5,-6.5h15c3.58303,0.01643 6.48357,2.91697 6.5,6.5v15c-0.01643,3.58303 -2.91697,6.48357 -6.5,6.5z" fill="#d3ecf3" stroke="#dcf4fa" stroke-width="0"/><path d="M412.5,359h-15c-3.58303,-0.01643 -6.48357,-2.91697 -6.5,-6.5v-15c0.01643,-3.58303 2.91697,-6.48357 6.5,-6.5h15c3.58303,0.01643 6.48357,2.91697 6.5,6.5v15c-0.01643,3.58303 -2.91697,6.48357 -6.5,6.5z" fill="#d3ecf3" stroke="#dcf4fa" stroke-width="0"/><path d="M442.5,29h-15c-3.58303,-0.01643 -6.48357,-2.91698 -6.5,-6.5v-15c0.01643,-3.58302 2.91697,-6.48357 6.5,-6.5h15c3.58303,0.01642 6.48357,2.91698 6.5,6.5v15c-0.01643,3.58302 -2.91697,6.48357 -6.5,6.5z" fill="#d3ecf3" stroke="#dcf4fa" stroke-width="0"/><path d="M472.5,59h-15c-3.58303,-0.01642 -6.48357,-2.91698 -6.5,-6.5v-15c0.01643,-3.58302 2.91697,-6.48357 6.5,-6.5h15c3.58303,0.01643 6.48357,2.91698 6.5,6.5v15c-0.01643,3.58302 -2.91697,6.48358 -6.5,6.5z" fill="#d3ecf3" stroke="#dcf4fa" stroke-width="0"/><path d="M442.5,89h-15c-3.58303,-0.01642 -6.48357,-2.91697 -6.5,-6.5v-15c0.01643,-3.58302 2.91697,-6.48358 6.5,-6.5h15c3.58303,0.01642 6.48357,2.91698 6.5,6.5v15c-0.01643,3.58303 -2.91697,6.48358 -6.5,6.5z" fill="#d3ecf3" stroke="#dcf4fa" stroke-width="0"/><path d="M472.5,119h-15c-3.58303,-0.01642 -6.48357,-2.91697 -6.5,-6.5v-15c0.01643,-3.58303 2.91697,-6.48358 6.5,-6.5h15c3.58303,0.01642 6.48357,2.91697 6.5,6.5v15c-0.01643,3.58303 -2.91697,6.48358 -6.5,6.5z" fill="#d3ecf3" stroke="#dcf4fa" stroke-width="0"/><path d="M442.5,149h-15c-3.58303,-0.01642 -6.48357,-2.91698 -6.5,-6.5v-15c0.01643,-3.58303 2.91697,-6.48358 6.5,-6.5h15c3.58303,0.01642 6.48357,2.91697 6.5,6.5v15c-0.01643,3.58302 -2.91697,6.48358 -6.5,6.5z" fill="#d3ecf3" stroke="#dcf4fa" stroke-width="0"/><path d="M472.5,179h-15c-3.58303,-0.01642 -6.48357,-2.91698 -6.5,-6.5v-15c0.01643,-3.58302 2.91697,-6.48358 6.5,-6.5h15c3.58303,0.01642 6.48357,2.91698 6.5,6.5v15c-0.01643,3.58302 -2.91697,6.48358 -6.5,6.5z" fill="#d3ecf3" stroke="#dcf4fa" stroke-width="0"/><path d="M442.5,209h-15c-3.58303,-0.01642 -6.48357,-2.91698 -6.5,-6.5v-15c0.01643,-3.58302 2.91697,-6.48358 6.5,-6.5h15c3.58303,0.01642 6.48357,2.91698 6.5,6.5v15c-0.01643,3.58302 -2.91697,6.48358 -6.5,6.5z" fill="#d3ecf3" stroke="#dcf4fa" stroke-width="0"/><path d="M472.5,239h-15c-3.58303,-0.01642 -6.48357,-2.91698 -6.5,-6.5v-15c0.01643,-3.58302 2.91697,-6.48358 6.5,-6.5h15c3.58303,0.01642 6.48357,2.91698 6.5,6.5v15c-0.01643,3.58302 -2.91697,6.48358 -6.5,6.5z" fill="#d3ecf3" stroke="#dcf4fa" stroke-width="0"/><path d="M442.5,269h-15c-3.58303,-0.01643 -6.48357,-2.91697 -6.5,-6.5v-15c0.01643,-3.58302 2.91697,-6.48358 6.5,-6.5h15c3.58303,0.01642 6.48357,2.91698 6.5,6.5v15c-0.01643,3.58303 -2.91697,6.48357 -6.5,6.5z" fill="#d3ecf3" stroke="#dcf4fa" stroke-width="0"/><path d="M472.5,299h-15c-3.58303,-0.01643 -6.48357,-2.91697 -6.5,-6.5v-15c0.01643,-3.58303 2.91697,-6.48357 6.5,-6.5h15c3.58303,0.01643 6.48357,2.91697 6.5,6.5v15c-0.01643,3.58303 -2.91697,6.48357 -6.5,6.5z" fill="#d3ecf3" stroke="#dcf4fa" stroke-width="0"/><path d="M442.5,329h-15c-3.58303,-0.01643 -6.48357,-2.91697 -6.5,-6.5v-15c0.01643,-3.58303 2.91697,-6.48357 6.5,-6.5h15c3.58303,0.01643 6.48357,2.91697 6.5,6.5v15c-0.01643,3.58303 -2.91697,6.48357 -6.5,6.5z" fill="#d3ecf3" stroke="#dcf4fa" stroke-width="0"/><path d="M472.5,359h-15c-3.58303,-0.01643 -6.48357,-2.91697 -6.5,-6.5v-15c0.01643,-3.58303 2.91697,-6.48357 6.5,-6.5h15c3.58303,0.01643 6.48357,2.91697 6.5,6.5v15c-0.01643,3.58303 -2.91697,6.48357 -6.5,6.5z" fill="#d3ecf3" stroke="#dcf4fa" stroke-width="0"/><path d="M502.5,29h-15c-3.58303,-0.01643 -6.48357,-2.91698 -6.5,-6.5v-15c0.01643,-3.58302 2.91697,-6.48357 6.5,-6.5h15c3.58303,0.01642 6.48357,2.91698 6.5,6.5v15c-0.01643,3.58302 -2.91697,6.48357 -6.5,6.5z" fill="#d3ecf3" stroke="#dcf4fa" stroke-width="0"/><path d="M532.5,59h-15c-3.58303,-0.01642 -6.48357,-2.91698 -6.5,-6.5v-15c0.01643,-3.58302 2.91697,-6.48357 6.5,-6.5h15c3.58303,0.01643 6.48357,2.91698 6.5,6.5v15c-0.01643,3.58302 -2.91697,6.48358 -6.5,6.5z" fill="#d3ecf3" stroke="#dcf4fa" stroke-width="0"/><path d="M502.5,89h-15c-3.58303,-0.01642 -6.48357,-2.91697 -6.5,-6.5v-15c0.01643,-3.58302 2.91697,-6.48358 6.5,-6.5h15c3.58303,0.01642 6.48357,2.91698 6.5,6.5v15c-0.01643,3.58303 -2.91697,6.48358 -6.5,6.5z" fill="#d3ecf3" stroke="#dcf4fa" stroke-width="0"/><path d="M532.5,119h-15c-3.58303,-0.01642 -6.48357,-2.91697 -6.5,-6.5v-15c0.01643,-3.58303 2.91697,-6.48358 6.5,-6.5h15c3.58303,0.01642 6.48357,2.91697 6.5,6.5v15c-0.01643,3.58303 -2.91697,6.48358 -6.5,6.5z" fill="#d3ecf3" stroke="#dcf4fa" stroke-width="0"/><path d="M502.5,149h-15c-3.58303,-0.01642 -6.48357,-2.91698 -6.5,-6.5v-15c0.01643,-3.58303 2.91697,-6.48358 6.5,-6.5h15c3.58303,0.01642 6.48357,2.91697 6.5,6.5v15c-0.01643,3.58302 -2.91697,6.48358 -6.5,6.5z" fill="#d3ecf3" stroke="#dcf4fa" stroke-width="0"/><path d="M532.5,179h-15c-3.58303,-0.01642 -6.48357,-2.91698 -6.5,-6.5v-15c0.01643,-3.58302 2.91697,-6.48358 6.5,-6.5h15c3.58303,0.01642 6.48357,2.91698 6.5,6.5v15c-0.01643,3.58302 -2.91697,6.48358 -6.5,6.5z" fill="#d3ecf3" stroke="#dcf4fa" stroke-width="0"/><path d="M502.5,209h-15c-3.58303,-0.01642 -6.48357,-2.91698 -6.5,-6.5v-15c0.01643,-3.58302 2.91697,-6.48358 6.5,-6.5h15c3.58303,0.01642 6.48357,2.91698 6.5,6.5v15c-0.01643,3.58302 -2.91697,6.48358 -6.5,6.5z" fill="#d3ecf3" stroke="#dcf4fa" stroke-width="0"/><path d="M532.5,239h-15c-3.58303,-0.01642 -6.48357,-2.91698 -6.5,-6.5v-15c0.01643,-3.58302 2.91697,-6.48358 6.5,-6.5h15c3.58303,0.01642 6.48357,2.91698 6.5,6.5v15c-0.01643,3.58302 -2.91697,6.48358 -6.5,6.5z" fill="#d3ecf3" stroke="#dcf4fa" stroke-width="0"/><path d="M502.5,269h-15c-3.58303,-0.01643 -6.48357,-2.91697 -6.5,-6.5v-15c0.01643,-3.58302 2.91697,-6.48358 6.5,-6.5h15c3.58303,0.01642 6.48357,2.91698 6.5,6.5v15c-0.01643,3.58303 -2.91697,6.48357 -6.5,6.5z" fill="#d3ecf3" stroke="#dcf4fa" stroke-width="0"/><path d="M532.5,299h-15c-3.58303,-0.01643 -6.48357,-2.91697 -6.5,-6.5v-15c0.01643,-3.58303 2.91697,-6.48357 6.5,-6.5h15c3.58303,0.01643 6.48357,2.91697 6.5,6.5v15c-0.01643,3.58303 -2.91697,6.48357 -6.5,6.5z" fill="#d3ecf3" stroke="#dcf4fa" stroke-width="0"/><path d="M502.5,329h-15c-3.58303,-0.01643 -6.48357,-2.91697 -6.5,-6.5v-15c0.01643,-3.58303 2.91697,-6.48357 6.5,-6.5h15c3.58303,0.01643 6.48357,2.91697 6.5,6.5v15c-0.01643,3.58303 -2.91697,6.48357 -6.5,6.5z" fill="#d3ecf3" stroke="#dcf4fa" stroke-width="0"/><path d="M532.5,359h-15c-3.58303,-0.01643 -6.48357,-2.91697 -6.5,-6.5v-15c0.01643,-3.58303 2.91697,-6.48357 6.5,-6.5h15c3.58303,0.01643 6.48357,2.91697 6.5,6.5v15c-0.01643,3.58303 -2.91697,6.48357 -6.5,6.5z" fill="#d3ecf3" stroke="#dcf4fa" stroke-width="0"/><path d="M22.5,-31h-15c-3.58302,-0.01642 -6.48357,-2.91698 -6.5,-6.5v-15c0.01642,-3.58302 2.91698,-6.48358 6.5,-6.5h15c3.58302,0.01642 6.48358,2.91698 6.5,6.5v15c-0.01642,3.58302 -2.91698,6.48358 -6.5,6.5z" fill="#d3ecf3" stroke="#dcf4fa" stroke-width="0"/><path d="M52.5,-1h-15c-3.58302,-0.01642 -6.48358,-2.91698 -6.5,-6.5v-15c0.01642,-3.58302 2.91698,-6.48358 6.5,-6.5h15c3.58302,0.01642 6.48358,2.91698 6.5,6.5v15c-0.01642,3.58302 -2.91698,6.48358 -6.5,6.5z" fill="#d3ecf3" stroke="#dcf4fa" stroke-width="0"/><path d="M82.5,-31h-15c-3.58302,-0.01642 -6.48358,-2.91698 -6.5,-6.5v-15c0.01642,-3.58302 2.91698,-6.48358 6.5,-6.5h15c3.58303,0.01642 6.48358,2.91698 6.5,6.5v15c-0.01642,3.58302 -2.91697,6.48358 -6.5,6.5z" fill="#d3ecf3" stroke="#dcf4fa" stroke-width="0"/><path d="M112.5,-1h-15c-3.58303,-0.01642 -6.48358,-2.91698 -6.5,-6.5v-15c0.01642,-3.58302 2.91697,-6.48358 6.5,-6.5h15c3.58303,0.01642 6.48358,2.91698 6.5,6.5v15c-0.01642,3.58302 -2.91697,6.48358 -6.5,6.5z" fill="#d3ecf3" stroke="#dcf4fa" stroke-width="0"/><path d="M142.5,-31h-15c-3.58303,-0.01642 -6.48358,-2.91698 -6.5,-6.5v-15c0.01642,-3.58302 2.91697,-6.48358 6.5,-6.5h15c3.58302,0.01642 6.48358,2.91698 6.5,6.5v15c-0.01642,3.58302 -2.91698,6.48358 -6.5,6.5z" fill="#d3ecf3" stroke="#dcf4fa" stroke-width="0"/><path d="M172.5,-1h-15c-3.58302,-0.01642 -6.48358,-2.91698 -6.5,-6.5v-15c0.01642,-3.58302 2.91698,-6.48358 6.5,-6.5h15c3.58302,0.01642 6.48358,2.91698 6.5,6.5v15c-0.01642,3.58302 -2.91698,6.48358 -6.5,6.5z" fill="#d3ecf3" stroke="#dcf4fa" stroke-width="0"/><path d="M202.5,-31h-15c-3.58302,-0.01642 -6.48358,-2.91698 -6.5,-6.5v-15c0.01642,-3.58302 2.91698,-6.48358 6.5,-6.5h15c3.58302,0.01642 6.48358,2.91698 6.5,6.5v15c-0.01642,3.58302 -2.91698,6.48358 -6.5,6.5z" fill="#d3ecf3" stroke="#dcf4fa" stroke-width="0"/><path d="M232.5,-1h-15c-3.58302,-0.01642 -6.48358,-2.91698 -6.5,-6.5v-15c0.01642,-3.58302 2.91698,-6.48358 6.5,-6.5h15c3.58302,0.01642 6.48358,2.91698 6.5,6.5v15c-0.01642,3.58302 -2.91698,6.48358 -6.5,6.5z" fill="#d3ecf3" stroke="#dcf4fa" stroke-width="0"/><path d="M262.5,-31h-15c-3.58302,-0.01642 -6.48358,-2.91698 -6.5,-6.5v-15c0.01642,-3.58302 2.91698,-6.48358 6.5,-6.5h15c3.58303,0.01642 6.48357,2.91698 6.5,6.5v15c-0.01643,3.58302 -2.91697,6.48358 -6.5,6.5z" fill="#d3ecf3" stroke="#dcf4fa" stroke-width="0"/><path d="M292.5,-1h-15c-3.58303,-0.01642 -6.48357,-2.91698 -6.5,-6.5v-15c0.01643,-3.58302 2.91697,-6.48358 6.5,-6.5h15c3.58303,0.01642 6.48357,2.91698 6.5,6.5v15c-0.01643,3.58302 -2.91697,6.48358 -6.5,6.5z" fill="#d3ecf3" stroke="#dcf4fa" stroke-width="0"/><path d="M322.5,-31h-15c-3.58303,-0.01642 -6.48357,-2.91698 -6.5,-6.5v-15c0.01643,-3.58302 2.91697,-6.48358 6.5,-6.5h15c3.58303,0.01642 6.48357,2.91698 6.5,6.5v15c-0.01643,3.58302 -2.91697,6.48358 -6.5,6.5z" fill="#d3ecf3" stroke="#dcf4fa" stroke-width="0"/><path d="M352.5,-1h-15c-3.58303,-0.01642 -6.48357,-2.91698 -6.5,-6.5v-15c0.01643,-3.58302 2.91697,-6.48358 6.5,-6.5h15c3.58303,0.01642 6.48357,2.91698 6.5,6.5v15c-0.01643,3.58302 -2.91697,6.48358 -6.5,6.5z" fill="#d3ecf3" stroke="#dcf4fa" stroke-width="0"/><path d="M382.5,-31h-15c-3.58303,-0.01642 -6.48357,-2.91698 -6.5,-6.5v-15c0.01643,-3.58302 2.91697,-6.48358 6.5,-6.5h15c3.58303,0.01642 6.48357,2.91698 6.5,6.5v15c-0.01643,3.58302 -2.91697,6.48358 -6.5,6.5z" fill="#d3ecf3" stroke="#dcf4fa" stroke-width="0"/><path d="M412.5,-1h-15c-3.58303,-0.01642 -6.48357,-2.91698 -6.5,-6.5v-15c0.01643,-3.58302 2.91697,-6.48358 6.5,-6.5h15c3.58303,0.01642 6.48357,2.91698 6.5,6.5v15c-0.01643,3.58302 -2.91697,6.48358 -6.5,6.5z" fill="#d3ecf3" stroke="#dcf4fa" stroke-width="0"/><path d="M442.5,-31h-15c-3.58303,-0.01642 -6.48357,-2.91698 -6.5,-6.5v-15c0.01643,-3.58302 2.91697,-6.48358 6.5,-6.5h15c3.58303,0.01642 6.48357,2.91698 6.5,6.5v15c-0.01643,3.58302 -2.91697,6.48358 -6.5,6.5z" fill="#d3ecf3" stroke="#dcf4fa" stroke-width="0"/><path d="M472.5,-1h-15c-3.58303,-0.01642 -6.48357,-2.91698 -6.5,-6.5v-15c0.01643,-3.58302 2.91697,-6.48358 6.5,-6.5h15c3.58303,0.01642 6.48357,2.91698 6.5,6.5v15c-0.01643,3.58302 -2.91697,6.48358 -6.5,6.5z" fill="#d3ecf3" stroke="#dcf4fa" stroke-width="0"/><path d="M502.5,-31h-15c-3.58303,-0.01642 -6.48357,-2.91698 -6.5,-6.5v-15c0.01643,-3.58302 2.91697,-6.48358 6.5,-6.5h15c3.58303,0.01642 6.48357,2.91698 6.5,6.5v15c-0.01643,3.58302 -2.91697,6.48358 -6.5,6.5z" fill="#d3ecf3" stroke="#dcf4fa" stroke-width="0"/><path d="M532.5,-1h-15c-3.58303,-0.01642 -6.48357,-2.91698 -6.5,-6.5v-15c0.01643,-3.58302 2.91697,-6.48358 6.5,-6.5h15c3.58303,0.01642 6.48357,2.91698 6.5,6.5v15c-0.01643,3.58302 -2.91697,6.48358 -6.5,6.5z" fill="#d3ecf3" stroke="#dcf4fa" stroke-width="0"/></g></g></svg>