<svg version="1.1" xmlns="http://www.w3.org/2000/svg" xmlns:xlink="http://www.w3.org/1999/xlink" width="274.81" height="90.91" viewBox="0,0,274.81,90.91"><g transform="translate(-104.775,-134.3635)"><g data-paper-data="{&quot;isPaintingLayer&quot;:true}" fill-rule="nonzero" stroke-linecap="butt" stroke-linejoin="miter" stroke-miterlimit="10" stroke-dasharray="" stroke-dashoffset="0" style="mix-blend-mode: normal"><path d="M342.865,158.8035v-0.13c-4.24,-1.44 -7.17,-4.63 -7.17,-9.2c0,-7.7 8.54,-13.11 20,-13.11c11.46,0 20,5.41 20,13.11c0,4.57 -2.94,7.76 -7.18,9.2v0.13c5.61,1.76 9.07,6 9.07,11.55c0,9.26 -9.59,14.67 -21.92,14.67c-12.33,0 -21.91,-5.41 -21.91,-14.67c0.05,-5.55 3.5,-9.79 9.11,-11.55zM355.715,171.9835c1.78377,-0.01664 3.21632,-1.47614 3.19972,-3.2599c-0.01659,-1.78377 -1.47605,-3.21636 -3.25981,-3.19982c-1.78377,0.01654 -3.2164,1.47595 -3.19991,3.25972c0.00526,0.8575 0.35234,1.67748 0.9643,2.27818c0.61196,0.6007 1.43825,0.93249 2.2957,0.92182zM358.845,153.3935c0.02845,-1.27195 -0.71584,-2.43457 -1.8829,-2.94117c-1.16706,-0.5066 -2.52465,-0.25636 -3.43439,0.63304c-0.90975,0.8894 -1.19062,2.24098 -0.71054,3.4192c0.48008,1.17822 1.62557,1.94861 2.89783,1.94893c0.82125,0.01067 1.61296,-0.30605 2.20026,-0.88021c0.58729,-0.57416 0.92184,-1.3585 0.92974,-2.17979z" fill="none" stroke="#ffffff" stroke-width="4"/><path d="M106.775,197.8035h12.16c6.1,0 14.42,1.3 14.42,8.09c-0.05398,2.5312 -1.48401,4.8315 -3.73,6l6.79,11.38h-12.85l-4.42,-8.37h-0.17v8.37h-12.2zM119.875,209.0635c1.93,0 2.79,-0.88 2.79,-2c0,-1.12 -0.9,-1.94 -2.79,-1.94h-0.9v3.91z" fill="none" stroke="#ffffff" stroke-width="4"/><path d="M137.655,197.8035h21.34v8.51h-9.14v1.38h7.37v6h-7.37v1.46h9.71v8.09h-21.91z" fill="none" stroke="#ffffff" stroke-width="4"/><path d="M162.675,212.9335c2.9865,1.71253 6.31736,2.73741 9.75,3c1.23,0 1.51,-0.42 1.51,-0.84c0,-0.42 -0.37,-0.71 -0.9,-0.81c-1.43,-0.32 -5.57,-0.71 -8.6,-3c-1.69975,-1.22609 -2.68113,-3.21507 -2.62,-5.31c0,-5.1 4.59,-8.58 12.08,-8.58c3.61759,-0.00217 7.20329,0.6763 10.57,2v8.34c-2.84304,-1.2788 -5.8901,-2.04395 -9,-2.26c-1.19,0 -1.52,0.39 -1.52,0.78c0,0.39 0.45,0.74 0.94,0.88c1.23,0.31 5.33,0.74 8.24,2.71c1.8886,1.17721 3.02592,3.2547 3,5.48c0,4.89 -4.59,8.3 -12.37,8.3c-3.79767,0.0188 -7.56437,-0.68364 -11.1,-2.07z" fill="none" stroke="#ffffff" stroke-width="4"/><path d="M188.715,197.8035h12.21v25.47h-12.21z" fill="none" stroke="#ffffff" stroke-width="4"/><path d="M204.605,212.9335c2.98691,1.7116 6.31755,2.73641 9.75,3c1.23,0 1.52,-0.42 1.52,-0.84c0,-0.42 -0.37,-0.71 -0.9,-0.81c-1.44,-0.32 -5.57,-0.71 -8.6,-3c-1.70215,-1.22505 -2.68707,-3.21362 -2.63,-5.31c0,-5.1 4.59,-8.58 12.09,-8.58c3.61434,-0.0021 7.19675,0.67639 10.56,2v8.34c-2.84269,-1.2798 -5.88993,-2.045 -9,-2.26c-1.18,0 -1.51,0.39 -1.51,0.78c0,0.39 0.45,0.74 0.94,0.88c1.23,0.31 5.32,0.74 8.23,2.71c1.89157,1.1744 3.02987,3.25371 3,5.48c0,4.89 -4.59,8.3 -12.37,8.3c-3.79767,0.0188 -7.56437,-0.68364 -11.1,-2.07z" fill="none" stroke="#ffffff" stroke-width="4"/><path d="M237.165,206.4535h-8.27v-8.65h28.75v8.65h-8.23v16.82h-12.25z" fill="none" stroke="#ffffff" stroke-width="4"/><path d="M265.255,197.8035h11.68l11.3,25.47h-13.19l-1,-3.34h-6.8l-1.15,3.34h-12.14zM272.055,213.5235l-1.31,-5.17h-0.08l-1.31,5.17z" fill="none" stroke="#ffffff" stroke-width="4"/><path d="M290.285,197.8035h11.13l8.72,10.87h0.08v-10.87h11v25.47h-11.1l-8.73,-10.87h-0.08v10.84h-11z" fill="none" stroke="#ffffff" stroke-width="4"/><path d="M341.415,197.4235c2.97226,-0.04951 5.92823,0.4488 8.72,1.47v9.39c-2.32436,-1.02387 -4.83042,-1.57133 -7.37,-1.61c-4.18,0 -6.43,1.72 -6.43,4.07c0,2.35 2.25,4 6.43,4c2.60299,-0.00944 5.17263,-0.58616 7.53,-1.69v9c-2.87277,1.09223 -5.92698,1.62841 -9,1.58c-9.91,0 -17.16,-5.55 -17.16,-13.12c0,-7.57 7.18,-13.09 17.28,-13.09z" fill="none" stroke="#ffffff" stroke-width="4"/><path d="M353.635,197.8035h21.34v8.51h-9.14v1.38h7.38v6h-7.38v1.46h9.71v8.09h-21.91z" fill="none" stroke="#ffffff" stroke-width="4"/><path d="M342.865,158.8035v-0.13c-4.24,-1.44 -7.17,-4.63 -7.17,-9.2c0,-7.7 8.54,-13.11 20,-13.11c11.46,0 20,5.41 20,13.11c0,4.57 -2.94,7.76 -7.18,9.2v0.13c5.61,1.76 9.07,6 9.07,11.55c0,9.26 -9.59,14.67 -21.92,14.67c-12.33,0 -21.91,-5.41 -21.91,-14.67c0.05,-5.55 3.5,-9.79 9.11,-11.55zM355.715,171.9835c1.78377,-0.01664 3.21632,-1.47614 3.19972,-3.2599c-0.01659,-1.78377 -1.47605,-3.21636 -3.25981,-3.19982c-1.78377,0.01654 -3.2164,1.47595 -3.19991,3.25972c0.00526,0.8575 0.35234,1.67748 0.9643,2.27818c0.61196,0.6007 1.43825,0.93249 2.2957,0.92182zM358.845,153.3935c0.02845,-1.27195 -0.71584,-2.43457 -1.8829,-2.94117c-1.16706,-0.5066 -2.52465,-0.25636 -3.43439,0.63304c-0.90975,0.8894 -1.19062,2.24098 -0.71054,3.4192c0.48008,1.17822 1.62557,1.94861 2.89783,1.94893c0.82125,0.01067 1.61296,-0.30605 2.20026,-0.88021c0.58729,-0.57416 0.92184,-1.3585 0.92974,-2.17979z" fill="#000000" stroke="none" stroke-width="1"/><path d="M106.775,197.8035h12.16c6.1,0 14.42,1.3 14.42,8.09c-0.05398,2.5312 -1.48401,4.8315 -3.73,6l6.79,11.38h-12.85l-4.42,-8.37h-0.17v8.37h-12.2zM119.875,209.0635c1.93,0 2.79,-0.88 2.79,-2c0,-1.12 -0.9,-1.94 -2.79,-1.94h-0.9v3.91z" fill="#000000" stroke="none" stroke-width="1"/><path d="M137.655,197.8035h21.34v8.51h-9.14v1.38h7.37v6h-7.37v1.46h9.71v8.09h-21.91z" fill="#000000" stroke="none" stroke-width="1"/><path d="M162.675,212.9335c2.9865,1.71253 6.31736,2.73741 9.75,3c1.23,0 1.51,-0.42 1.51,-0.84c0,-0.42 -0.37,-0.71 -0.9,-0.81c-1.43,-0.32 -5.57,-0.71 -8.6,-3c-1.69975,-1.22609 -2.68113,-3.21507 -2.62,-5.31c0,-5.1 4.59,-8.58 12.08,-8.58c3.61759,-0.00217 7.20329,0.6763 10.57,2v8.34c-2.84304,-1.2788 -5.8901,-2.04395 -9,-2.26c-1.19,0 -1.52,0.39 -1.52,0.78c0,0.39 0.45,0.74 0.94,0.88c1.23,0.31 5.33,0.74 8.24,2.71c1.8886,1.17721 3.02592,3.2547 3,5.48c0,4.89 -4.59,8.3 -12.37,8.3c-3.79767,0.0188 -7.56437,-0.68364 -11.1,-2.07z" fill="#000000" stroke="none" stroke-width="1"/><path d="M188.715,197.8035h12.21v25.47h-12.21z" fill="#000000" stroke="none" stroke-width="1"/><path d="M204.605,212.9335c2.98691,1.7116 6.31755,2.73641 9.75,3c1.23,0 1.52,-0.42 1.52,-0.84c0,-0.42 -0.37,-0.71 -0.9,-0.81c-1.44,-0.32 -5.57,-0.71 -8.6,-3c-1.70215,-1.22505 -2.68707,-3.21362 -2.63,-5.31c0,-5.1 4.59,-8.58 12.09,-8.58c3.61434,-0.0021 7.19675,0.67639 10.56,2v8.34c-2.84269,-1.2798 -5.88993,-2.045 -9,-2.26c-1.18,0 -1.51,0.39 -1.51,0.78c0,0.39 0.45,0.74 0.94,0.88c1.23,0.31 5.32,0.74 8.23,2.71c1.89157,1.1744 3.02987,3.25371 3,5.48c0,4.89 -4.59,8.3 -12.37,8.3c-3.79767,0.0188 -7.56437,-0.68364 -11.1,-2.07z" fill="#000000" stroke="none" stroke-width="1"/><path d="M237.165,206.4535h-8.27v-8.65h28.75v8.65h-8.23v16.82h-12.25z" fill="#000000" stroke="none" stroke-width="1"/><path d="M265.255,197.8035h11.68l11.3,25.47h-13.19l-1,-3.34h-6.8l-1.15,3.34h-12.14zM272.055,213.5235l-1.31,-5.17h-0.08l-1.31,5.17z" fill="#000000" stroke="none" stroke-width="1"/><path d="M290.285,197.8035h11.13l8.72,10.87h0.08v-10.87h11v25.47h-11.1l-8.73,-10.87h-0.08v10.84h-11z" fill="#000000" stroke="none" stroke-width="1"/><path d="M341.415,197.4235c2.97226,-0.04951 5.92823,0.4488 8.72,1.47v9.39c-2.32436,-1.02387 -4.83042,-1.57133 -7.37,-1.61c-4.18,0 -6.43,1.72 -6.43,4.07c0,2.35 2.25,4 6.43,4c2.60299,-0.00944 5.17263,-0.58616 7.53,-1.69v9c-2.87277,1.09223 -5.92698,1.62841 -9,1.58c-9.91,0 -17.16,-5.55 -17.16,-13.12c0,-7.57 7.18,-13.09 17.28,-13.09z" fill="#000000" stroke="none" stroke-width="1"/><path d="M353.635,197.8035h21.34v8.51h-9.14v1.38h7.38v6h-7.38v1.46h9.71v8.09h-21.91z" fill="#000000" stroke="none" stroke-width="1"/><path d="M110.39,137.09956h19.44v30.46h14.61v16.77h-34z" fill="none" stroke="#ffffff" stroke-width="4"/><path d="M149.52,137.09956h34v15.78h-14.56v2.55h11.74v11.22h-11.74v2.67h15.46v15h-34.9z" fill="none" stroke="#ffffff" stroke-width="4"/><path d="M186.77,137.09956h21l7,25h0.13l7.44,-25h19l-18.07,47.23h-18.43z" fill="none" stroke="#ffffff" stroke-width="4"/><path d="M244.56,137.09956h34v15.78h-14.56v2.55h11.74v11.22h-11.74v2.67h15.46v15h-34.9z" fill="none" stroke="#ffffff" stroke-width="4"/><path d="M284.29,137.09956h19.44v30.46h14.61v16.77h-34.05z" fill="none" stroke="#ffffff" stroke-width="4"/><path d="M110.39,137.09956h19.44v30.46h14.61v16.77h-34z" fill="#000000" stroke="none" stroke-width="1"/><path d="M149.52,137.09956h34v15.78h-14.56v2.55h11.74v11.22h-11.74v2.67h15.46v15h-34.9z" fill="#000000" stroke="none" stroke-width="1"/><path d="M186.77,137.09956h21l7,25h0.13l7.44,-25h19l-18.07,47.23h-18.43z" fill="#000000" stroke="none" stroke-width="1"/><path d="M244.56,137.09956h34v15.78h-14.56v2.55h11.74v11.22h-11.74v2.67h15.46v15h-34.9z" fill="#000000" stroke="none" stroke-width="1"/><path d="M284.29,137.09956h19.44v30.46h14.61v16.77h-34.05z" fill="#000000" stroke="none" stroke-width="1"/></g></g></svg>