<svg version="1.1" xmlns="http://www.w3.org/2000/svg" xmlns:xlink="http://www.w3.org/1999/xlink" width="87" height="76" viewBox="0,0,87,76"><g transform="translate(-197.5,-182.25)"><g data-paper-data="{&quot;isPaintingLayer&quot;:true}" fill-rule="nonzero" stroke="none" stroke-linecap="butt" stroke-linejoin="miter" stroke-miterlimit="10" stroke-dasharray="" stroke-dashoffset="0" style="mix-blend-mode: normal"><path d="M225.21,191.32h3.57v1.05h-2.32v1h1.85v1h-1.85v1.88h-1.25z" fill="#848484" stroke-width="1"/><path d="M231.27,195.87c-0.24316,0.35224 -0.64202,0.56472 -1.07,0.57c-0.58947,0.03436 -1.09726,-0.41108 -1.14,-1c0,-0.7 0.53,-1.27 2.2,-1.32v-0.07c0,-0.39 -0.2,-0.57 -0.65,-0.57c-0.44637,0.03038 -0.8803,0.16022 -1.27,0.38l-0.25,-0.9c0.52642,-0.28178 1.11295,-0.43269 1.71,-0.44c1.29,0 1.71,0.58 1.69,1.62v1.1c0,0.26 0,0.28 0.3,0.31l-0.12,0.88c-0.81,0.1 -1.21,-0.11 -1.38,-0.52zM231.27,194.66c-0.76,0.09 -1,0.23 -1,0.56c0.00474,0.11711 0.05819,0.22691 0.14744,0.30288c0.08926,0.07596 0.2062,0.11118 0.32256,0.09713c0.21751,0.00451 0.42599,-0.08693 0.57,-0.25z" fill="#848484" stroke-width="1"/><path d="M234.68,196.44c-0.54407,0.00287 -1.08257,-0.10959 -1.58,-0.33l0.24,-0.89c0.42135,0.2172 0.88615,0.33682 1.36,0.35c0.33,0 0.51,-0.11 0.51,-0.3c0,-0.19 -0.21,-0.29 -0.63,-0.39c-0.87,-0.16 -1.42,-0.48 -1.42,-1.21c0,-0.73 0.61,-1.19 1.64,-1.19c0.51934,0.00762 1.03221,0.11631 1.51,0.32l-0.25,0.88c-0.39808,-0.20191 -0.8342,-0.31776 -1.28,-0.34c-0.29,0 -0.45,0.1 -0.45,0.28c0,0.18 0.23,0.28 0.64,0.37c0.88,0.19 1.4,0.48 1.4,1.22c0,0.74 -0.6,1.23 -1.69,1.23z" fill="#848484" stroke-width="1"/><path d="M238.53,196.44c-0.92,0 -1.42,-0.38 -1.37,-1.36l0.06,-1.41l-0.56,-0.1v-0.78l0.56,-0.18v-0.85h1.19v0.89h0.93v1h-1v1.34c-0.02066,0.13524 0.02427,0.27224 0.12101,0.36898c0.09674,0.09674 0.23374,0.14167 0.36899,0.12101c0.16771,-0.00624 0.33325,-0.04002 0.49,-0.1l0.14,1c-0.3043,0.07296 -0.61885,0.09325 -0.93,0.06z" fill="#848484" stroke-width="1"/><path d="M241,194.75c0,0.49 0.38,0.78 1,0.78c0.42801,-0.0113 0.84543,-0.1355 1.21,-0.36l0.12,1c-0.44924,0.21426 -0.94239,0.32042 -1.44,0.31c-0.5555,0.06812 -1.11213,-0.11752 -1.51555,-0.50543c-0.40342,-0.3879 -0.61073,-0.93684 -0.56445,-1.49457c-0.02919,-0.53886 0.17213,-1.0647 0.55372,-1.44628c0.38159,-0.38159 0.90743,-0.58291 1.44628,-0.55372c0.43293,-0.04841 0.86503,0.0977 1.17974,0.3989c0.31472,0.3012 0.47963,0.72647 0.45026,1.1611c0.00052,0.21916 -0.02635,0.43752 -0.08,0.65h-2.35zM242.29,194.11v-0.07c0,-0.44 -0.18,-0.71 -0.57,-0.71c-0.41345,0.02674 -0.73163,0.37584 -0.72,0.79z" fill="#848484" stroke-width="1"/><path d="M245.48,196.44c-0.54407,0.00287 -1.08256,-0.10959 -1.58,-0.33l0.24,-0.89c0.42135,0.2172 0.88616,0.33682 1.36,0.35c0.33,0 0.51,-0.11 0.51,-0.3c0,-0.19 -0.21,-0.29 -0.63,-0.39c-0.87,-0.16 -1.42,-0.48 -1.42,-1.21c0,-0.73 0.61,-1.19 1.64,-1.19c0.51934,0.00762 1.03222,0.11631 1.51,0.32l-0.25,0.88c-0.39808,-0.20191 -0.8342,-0.31776 -1.28,-0.34c-0.29,0 -0.45,0.1 -0.45,0.28c0,0.18 0.23,0.28 0.64,0.37c0.88,0.19 1.4,0.48 1.4,1.22c0,0.74 -0.6,1.23 -1.69,1.23z" fill="#848484" stroke-width="1"/><path d="M249.33,196.44c-0.92,0 -1.42,-0.38 -1.37,-1.36l0.06,-1.41l-0.56,-0.1v-0.78l0.56,-0.18v-0.85h1.19v0.89h0.93v1h-1v1.34c-0.02066,0.13524 0.02427,0.27224 0.12101,0.36898c0.09674,0.09674 0.23374,0.14167 0.36899,0.12101c0.16771,-0.00624 0.33326,-0.04002 0.49,-0.1l0.14,1c-0.3043,0.07296 -0.61885,0.09325 -0.93,0.06z" fill="#848484" stroke-width="1"/><path d="M255.27,192.38v3.94h-1.27v-3.94h-1.59v-1.06h4.45v1.06z" fill="#848484" stroke-width="1"/><path d="M258,192.07c-0.45,0 -0.73,-0.23 -0.73,-0.66c0,-0.43 0.28,-0.66 0.73,-0.66c0.45,0 0.73,0.23 0.73,0.66c0,0.43 -0.27,0.66 -0.73,0.66zM257.38,196.32v-3.66l1.24,-0.15v3.81z" fill="#848484" stroke-width="1"/><path d="M264.17,196.32v-2.2c0,-0.44 -0.19,-0.6 -0.5,-0.6c-0.22208,0.00658 -0.43465,0.0916 -0.6,0.24v2.56h-1.23v-2.2c0,-0.44 -0.2,-0.6 -0.51,-0.6c-0.22149,0.00023 -0.43511,0.08211 -0.6,0.23v2.57h-1.23v-3.66l1.23,-0.15v0.52c0.29438,-0.34654 0.72531,-0.5474 1.18,-0.55c0.43442,0.00323 0.82624,0.26183 1,0.66c0.31002,-0.40142 0.78307,-0.64345 1.29,-0.66c0.33105,-0.00881 0.64931,0.12805 0.87063,0.3744c0.22132,0.24634 0.32345,0.57738 0.27937,0.9056v2.56z" fill="#848484" stroke-width="1"/><path d="M267.28,194.75c0,0.49 0.38,0.78 1,0.78c0.4309,-0.0128 0.85118,-0.13682 1.22,-0.36l0.12,1c-0.45276,0.21437 -0.94916,0.3205 -1.45,0.31c-0.5555,0.06812 -1.11214,-0.11752 -1.51556,-0.50543c-0.40342,-0.3879 -0.61073,-0.93684 -0.56445,-1.49457c-0.02601,-0.53798 0.17635,-1.06194 0.5572,-1.4428c0.38085,-0.38085 0.90481,-0.58321 1.4428,-0.5572c0.43293,-0.04841 0.86503,0.0977 1.17974,0.3989c0.31471,0.3012 0.47963,0.72647 0.45026,1.1611c0.00052,0.21916 -0.02636,0.43752 -0.08,0.65h-2.36zM268.57,194.11v-0.07c0,-0.44 -0.18,-0.71 -0.56,-0.71c-0.41345,0.02674 -0.73162,0.37584 -0.72,0.79z" fill="#848484" stroke-width="1"/><path d="M271.09,194.18c-0.20033,0.01424 -0.39733,-0.05704 -0.54217,-0.19617c-0.14484,-0.13913 -0.224,-0.33309 -0.21783,-0.53384c0,-0.41974 0.34026,-0.76 0.76,-0.76c0.41974,0 0.76,0.34026 0.76,0.76c0.00617,0.20075 -0.07299,0.39471 -0.21783,0.53384c-0.14484,0.13913 -0.34184,0.21041 -0.54217,0.19617zM271.09,196.44c-0.39885,-0.0164 -0.71055,-0.35014 -0.69973,-0.74918c0.01083,-0.39904 0.34017,-0.71538 0.73932,-0.71014c0.39916,0.00525 0.72008,0.33014 0.72041,0.72932c0.00617,0.20075 -0.07299,0.3947 -0.21783,0.53383c-0.14484,0.13913 -0.34184,0.21041 -0.54217,0.19617z" fill="#848484" stroke-width="1"/><path d="M214.7,220.32h-1.26l-0.37,-1.07h-1.85l-0.36,1.07h-1.27l1.78,-5h1.63zM212.15,216.32l-0.66,2h1.3z" fill="#848484" stroke-width="1"/><path d="M215.16,220.32v-5.29l1.23,-0.15v5.44z" fill="#848484" stroke-width="1"/><path d="M217.27,220.32v-5.29l1.23,-0.15v5.44z" fill="#848484" stroke-width="1"/><path d="M223.84,218.42v1.9h-1.25v-1.91l-1.74,-3.09h1.35l1,2l1,-2h1.34z" fill="#848484" stroke-width="1"/><path d="M226.43,218.75c0,0.49 0.39,0.78 1,0.78c0.42778,-0.01271 0.84485,-0.13679 1.21,-0.36l0.12,1c-0.45239,0.21543 -0.94906,0.32162 -1.45,0.31c-0.55388,0.06484 -1.10763,-0.12225 -1.50868,-0.50974c-0.40105,-0.38749 -0.60708,-0.93448 -0.56132,-1.49026c-0.02919,-0.53886 0.17213,-1.0647 0.55371,-1.44628c0.38159,-0.38159 0.90743,-0.58291 1.44629,-0.55372c0.43293,-0.04841 0.86502,0.0977 1.17974,0.3989c0.31472,0.3012 0.47963,0.72647 0.45026,1.1611c0.00052,0.21916 -0.02636,0.43752 -0.08,0.65h-2.36zM227.73,218.11v-0.07c0,-0.44 -0.19,-0.71 -0.57,-0.71c-0.41345,0.02674 -0.73163,0.37584 -0.72,0.79z" fill="#848484" stroke-width="1"/><path d="M229.57,220.32v-5.29l1.23,-0.15v5.44z" fill="#848484" stroke-width="1"/><path d="M231.68,220.32v-5.29l1.23,-0.15v5.44z" fill="#848484" stroke-width="1"/><path d="M235.57,220.44c-0.54238,0.04262 -1.07623,-0.15436 -1.46094,-0.53906c-0.3847,-0.3847 -0.58168,-0.91855 -0.53906,-1.46094c-0.02601,-0.53798 0.17634,-1.06195 0.5572,-1.4428c0.38085,-0.38085 0.90482,-0.58321 1.4428,-0.5572c0.54327,-0.04617 1.07925,0.14967 1.46479,0.53521c0.38554,0.38554 0.58138,0.92151 0.53521,1.46479c0.02289,0.53713 -0.18046,1.05924 -0.56061,1.43939c-0.38015,0.38015 -0.90226,0.5835 -1.43939,0.56061zM235.57,217.44c-0.5,0 -0.76,0.41 -0.76,1.05c0,0.64 0.27,1 0.77,1c0.5,0 0.77,-0.4 0.77,-1c0,-0.6 -0.26,-1.08 -0.77,-1.08z" fill="#848484" stroke-width="1"/><path d="M238.92,220.33l-1.05,-3.73h1.25l0.5,2.47l0.63,-2.47h1.29l0.64,2.43l0.43,-2.43h1.28l-1.05,3.73h-1.25l-0.71,-2.45l-0.71,2.45z" fill="#848484" stroke-width="1"/><path d="M250.9,220.32h-1.26l-0.37,-1.07h-1.85l-0.36,1.07h-1.27l1.78,-5h1.59zM248.35,216.32l-0.66,2h1.31z" fill="#848484" stroke-width="1"/><path d="M253.63,216.5c0.92,0 1.59,0.75 1.59,1.93c0.03007,0.51486 -0.15157,1.01964 -0.50279,1.3973c-0.35122,0.37766 -0.84152,0.59539 -1.35721,0.6027c-0.26099,-0.00417 -0.52013,-0.04456 -0.77,-0.12v1.66h-1.23v-5.31l1.23,-0.15v0.47c0.26538,-0.29692 0.64187,-0.47069 1.04,-0.48zM252.63,219.38c0.17262,0.10139 0.36983,0.1533 0.57,0.15c0.53,0 0.83,-0.42 0.83,-1c0,-0.58 -0.27,-1 -0.77,-1c-0.23708,-0.00501 -0.46546,0.08925 -0.63,0.26z" fill="#848484" stroke-width="1"/><path d="M258.19,216.5c0.92,0 1.59,0.75 1.59,1.93c0.03007,0.51486 -0.15156,1.01964 -0.50279,1.3973c-0.35122,0.37766 -0.84152,0.59539 -1.35721,0.6027c-0.26099,-0.00417 -0.52013,-0.04456 -0.77,-0.12v1.66h-1.23v-5.31l1.23,-0.15v0.47c0.26538,-0.29692 0.64188,-0.47069 1.04,-0.48zM257.19,219.38c0.17262,0.10139 0.36983,0.1533 0.57,0.15c0.53,0 0.83,-0.42 0.83,-1c0,-0.58 -0.27,-1 -0.77,-1c-0.23708,-0.00501 -0.46546,0.08925 -0.63,0.26z" fill="#848484" stroke-width="1"/><path d="M260.48,220.32v-5.29l1.23,-0.15v5.44z" fill="#848484" stroke-width="1"/><path d="M263.6,218.75c0,0.49 0.38,0.78 1,0.78c0.4309,-0.0128 0.85117,-0.13682 1.22,-0.36l0.12,1c-0.45276,0.21437 -0.94916,0.3205 -1.45,0.31c-0.5555,0.06812 -1.11214,-0.11752 -1.51556,-0.50543c-0.40342,-0.3879 -0.61073,-0.93684 -0.56444,-1.49457c-0.02601,-0.53798 0.17634,-1.06194 0.5572,-1.4428c0.38085,-0.38085 0.90482,-0.58321 1.4428,-0.5572c0.43293,-0.04841 0.86503,0.0977 1.17974,0.3989c0.31471,0.3012 0.47963,0.72647 0.45026,1.1611c0.00052,0.21916 -0.02636,0.43752 -0.08,0.65h-2.36zM264.89,218.11v-0.07c0,-0.44 -0.18,-0.71 -0.56,-0.71c-0.41345,0.02674 -0.73162,0.37584 -0.72,0.79z" fill="#848484" stroke-width="1"/><path d="M268.06,220.44c-0.54095,0.00392 -1.0764,-0.10863 -1.57,-0.33l0.24,-0.89c0.42084,0.2185 0.88596,0.3382 1.36,0.35c0.33,0 0.5,-0.11 0.5,-0.3c0,-0.19 -0.21,-0.29 -0.63,-0.39c-0.86,-0.16 -1.42,-0.48 -1.42,-1.21c0,-0.73 0.61,-1.19 1.64,-1.19c0.51963,0.00501 1.03301,0.1138 1.51,0.32l-0.24,0.88c-0.3985,-0.2008 -0.83438,-0.31659 -1.28,-0.34c-0.3,0 -0.46,0.1 -0.46,0.28c0,0.18 0.23,0.28 0.64,0.37c0.88,0.19 1.4,0.48 1.4,1.22c0,0.74 -0.59,1.23 -1.69,1.23z" fill="#848484" stroke-width="1"/><path d="M271.1,218.18c-0.20033,0.01424 -0.39733,-0.05704 -0.54217,-0.19617c-0.14484,-0.13913 -0.224,-0.33309 -0.21783,-0.53384c0.04421,-0.38352 0.36894,-0.67296 0.755,-0.67296c0.38606,0 0.71079,0.28944 0.755,0.67296c0.00592,0.19889 -0.07188,0.39114 -0.21447,0.52993c-0.14259,0.13879 -0.33687,0.21137 -0.53553,0.20007zM271.1,220.44c-0.40038,-0.01098 -0.71715,-0.3425 -0.70988,-0.74297c0.00727,-0.40046 0.33585,-0.72029 0.73636,-0.71673c0.40051,0.00356 0.72337,0.32917 0.72352,0.7297c0.00592,0.19889 -0.07188,0.39114 -0.21447,0.52993c-0.14259,0.13879 -0.33687,0.21137 -0.53553,0.20007z" fill="#848484" stroke-width="1"/><path d="M218.3,244.32h-1.3l-0.37,-1.07h-1.85l-0.36,1.07h-1.27l1.78,-5h1.59zM215.75,240.32l-0.66,2h1.3z" fill="#848484" stroke-width="1"/><path d="M218.76,244.32v-5.29l1.23,-0.15v5.44z" fill="#848484" stroke-width="1"/><path d="M220.87,244.32v-5.29l1.23,-0.15v5.44z" fill="#848484" stroke-width="1"/><path d="M227.44,242.42v1.9h-1.25v-1.91l-1.74,-3.09h1.35l1,2l1,-2h1.34z" fill="#848484" stroke-width="1"/><path d="M230,242.75c0,0.49 0.39,0.78 1,0.78c0.42778,-0.01271 0.84485,-0.13679 1.21,-0.36l0.12,1c-0.45239,0.21543 -0.94906,0.32162 -1.45,0.31c-0.55388,0.06484 -1.10763,-0.12225 -1.50868,-0.50974c-0.40105,-0.38749 -0.60708,-0.93448 -0.56132,-1.49026c-0.02919,-0.53886 0.17213,-1.0647 0.55372,-1.44628c0.38159,-0.38159 0.90743,-0.58291 1.44628,-0.55372c0.43293,-0.04841 0.86503,0.0977 1.17974,0.3989c0.31472,0.3012 0.47963,0.72647 0.45026,1.1611c0.00052,0.21916 -0.02635,0.43752 -0.08,0.65h-2.36zM231.3,242.11v-0.07c0,-0.44 -0.19,-0.71 -0.57,-0.71c-0.41345,0.02674 -0.73163,0.37584 -0.72,0.79z" fill="#848484" stroke-width="1"/><path d="M233.17,244.32v-5.29l1.23,-0.15v5.44z" fill="#848484" stroke-width="1"/><path d="M235.28,244.32v-5.29l1.23,-0.15v5.44z" fill="#848484" stroke-width="1"/><path d="M239.17,244.44c-0.54238,0.04262 -1.07623,-0.15436 -1.46093,-0.53906c-0.3847,-0.3847 -0.58169,-0.91855 -0.53907,-1.46094c-0.02601,-0.53798 0.17635,-1.06195 0.5572,-1.4428c0.38085,-0.38085 0.90481,-0.58321 1.4428,-0.5572c0.54327,-0.04617 1.07925,0.14967 1.46479,0.53521c0.38554,0.38554 0.58137,0.92151 0.53521,1.46479c0.02289,0.53713 -0.18046,1.05924 -0.56061,1.43939c-0.38015,0.38015 -0.90226,0.5835 -1.43939,0.56061zM239.17,241.44c-0.5,0 -0.76,0.41 -0.76,1.05c0,0.64 0.27,1 0.77,1c0.5,0 0.77,-0.4 0.77,-1c0,-0.6 -0.26,-1.08 -0.77,-1.08z" fill="#848484" stroke-width="1"/><path d="M242.52,244.33l-1,-3.73h1.25l0.5,2.47l0.63,-2.47h1.29l0.64,2.43l0.43,-2.43h1.28l-1.05,3.73h-1.25l-0.71,-2.45l-0.71,2.45z" fill="#848484" stroke-width="1"/><path d="M251.14,244.44c-0.39749,0.04783 -0.79683,-0.07315 -1.10094,-0.33354c-0.30411,-0.26039 -0.48513,-0.63635 -0.49906,-1.03646c0.02409,-0.65118 0.49125,-1.20104 1.13,-1.33c-0.43992,-0.21231 -0.72516,-0.65176 -0.74,-1.14c0.02228,-0.40604 0.21064,-0.78502 0.52085,-1.04794c0.31021,-0.26292 0.71495,-0.38663 1.11915,-0.34205c0.92,0 1.59,0.48 1.59,1.21c-0.04898,0.54942 -0.45773,0.99904 -1,1.1c0.24914,0.15024 0.4806,0.32802 0.69,0.53l0.46,-0.85h1.3l-1.14,1.49l1.2,1.5l-1.26,0.22l-0.62,-0.89c-0.38652,0.536 -0.99086,0.87295 -1.65,0.92zM251.22,242.06c-0.30086,0.1482 -0.50738,0.43735 -0.55,0.77c-0.00052,0.1867 0.07689,0.36516 0.21358,0.49235c0.13668,0.12719 0.32024,0.19158 0.50642,0.17765c0.41464,-0.0137 0.7928,-0.24058 1,-0.6c-0.32491,-0.36104 -0.72402,-0.64758 -1.17,-0.84zM252.1,240.57c0.00589,-0.14936 -0.05157,-0.29426 -0.15821,-0.399c-0.10664,-0.10474 -0.25256,-0.15957 -0.40179,-0.151c-0.14135,-0.00544 -0.27881,0.04693 -0.3807,0.14505c-0.10189,0.09812 -0.15941,0.2335 -0.1593,0.37495c0,0.34 0.26,0.54 0.65,0.71c0.26005,-0.13073 0.43132,-0.38953 0.45,-0.68z" fill="#848484" stroke-width="1"/><path d="M258.25,244.32h-1.25v-5h2c1.33,0 2,0.61 2,1.58c0.02069,0.648 -0.38559,1.23304 -1,1.44l1.28,2h-1.43l-1,-1.68h-0.59zM258.87,241.72c0.54,0 0.84,-0.26 0.84,-0.74c0,-0.48 -0.3,-0.65 -0.94,-0.65h-0.54v1.41z" fill="#848484" stroke-width="1"/><path d="M262.72,242.75c0,0.49 0.38,0.78 1,0.78c0.4309,-0.0128 0.85117,-0.13682 1.22,-0.36l0.12,1c-0.45276,0.21437 -0.94916,0.3205 -1.45,0.31c-0.5555,0.06812 -1.11214,-0.11752 -1.51556,-0.50543c-0.40342,-0.3879 -0.61073,-0.93684 -0.56445,-1.49457c-0.02601,-0.53798 0.17635,-1.06194 0.5572,-1.4428c0.38085,-0.38085 0.90481,-0.58321 1.4428,-0.5572c0.43293,-0.04841 0.86503,0.0977 1.17974,0.3989c0.31471,0.3012 0.47963,0.72647 0.45026,1.1611c0.00052,0.21916 -0.02636,0.43752 -0.08,0.65h-2.36zM264.01,242.11v-0.07c0,-0.44 -0.18,-0.71 -0.56,-0.71c-0.41345,0.02674 -0.73162,0.37584 -0.72,0.79z" fill="#848484" stroke-width="1"/><path d="M268.29,239.03l1.24,-0.15v5.44h-1.24v-0.39c-0.25239,0.29455 -0.61293,0.47482 -1,0.5c-0.91,0 -1.59,-0.75 -1.59,-1.93c-0.03013,-0.51657 0.15284,-1.02291 0.50625,-1.40088c0.35341,-0.37797 0.84632,-0.59452 1.36375,-0.59912c0.25824,-0.0024 0.51506,0.03816 0.76,0.12zM267.73,241.4c-0.52,0 -0.83,0.42 -0.83,1c0,0.58 0.31,1 0.77,1c0.2328,0.00851 0.45823,-0.08238 0.62,-0.25v-1.63c-0.1694,-0.09791 -0.36536,-0.1399 -0.56,-0.12z" fill="#848484" stroke-width="1"/><path d="M271.09,242.18c-0.20033,0.01424 -0.39733,-0.05704 -0.54217,-0.19617c-0.14484,-0.13913 -0.224,-0.33309 -0.21783,-0.53384c0,-0.41974 0.34026,-0.76 0.76,-0.76c0.41974,0 0.76,0.34026 0.76,0.76c0.00617,0.20075 -0.07299,0.39471 -0.21783,0.53384c-0.14484,0.13913 -0.34184,0.21041 -0.54217,0.19617zM271.09,244.44c-0.39885,-0.0164 -0.71055,-0.35014 -0.69973,-0.74918c0.01083,-0.39904 0.34017,-0.71538 0.73932,-0.71014c0.39916,0.00525 0.72008,0.33014 0.72041,0.72932c0.00617,0.20075 -0.07299,0.3947 -0.21783,0.53383c-0.14484,0.13913 -0.34184,0.21041 -0.54217,0.19617z" fill="#848484" stroke-width="1"/><path d="M197.5,258.25v-76h87v76z" fill="none" stroke-width="0"/></g></g></svg>